<?xml version="1.0" encoding="utf-8" standalone="no"?>
<!DOCTYPE svg PUBLIC "-//W3C//DTD SVG 1.1//EN"
  "http://www.w3.org/Graphics/SVG/1.1/DTD/svg11.dtd">
<svg xmlns:xlink="http://www.w3.org/1999/xlink" width="720pt" height="432pt" viewBox="0 0 720 432" xmlns="http://www.w3.org/2000/svg" version="1.1">
 <metadata>
  <rdf:RDF xmlns:dc="http://purl.org/dc/elements/1.1/" xmlns:cc="http://creativecommons.org/ns#" xmlns:rdf="http://www.w3.org/1999/02/22-rdf-syntax-ns#">
   <cc:Work>
    <dc:type rdf:resource="http://purl.org/dc/dcmitype/StillImage"/>
    <dc:date>2025-01-25T16:02:59.573295</dc:date>
    <dc:format>image/svg+xml</dc:format>
    <dc:creator>
     <cc:Agent>
      <dc:title>Matplotlib v3.5.1, https://matplotlib.org/</dc:title>
     </cc:Agent>
    </dc:creator>
   </cc:Work>
  </rdf:RDF>
 </metadata>
 <defs>
  <style type="text/css">*{stroke-linejoin: round; stroke-linecap: butt}</style>
 </defs>
 <g id="figure_1">
  <g id="patch_1">
   <path d="M 0 432 
L 720 432 
L 720 0 
L 0 0 
z
" style="fill: #ffffff"/>
  </g>
  <g id="axes_1">
   <g id="patch_2">
    <path d="M 90 378 
L 648 378 
L 648 51.84 
L 90 51.84 
z
" style="fill: #ffffff"/>
   </g>
   <g id="matplotlib.axis_1">
    <g id="xtick_1">
     <g id="line2d_1">
      <path d="M 109.795397 378 
L 109.795397 51.84 
" clip-path="url(#pcca3a7db7e)" style="fill: none; stroke: #b0b0b0; stroke-width: 0.8; stroke-linecap: square"/>
     </g>
     <g id="line2d_2">
      <defs>
       <path id="m8130562e2a" d="M 0 0 
L 0 3.5 
" style="stroke: #000000; stroke-width: 0.8"/>
      </defs>
      <g>
       <use xlink:href="#m8130562e2a" x="109.795397" y="378" style="stroke: #000000; stroke-width: 0.8"/>
      </g>
     </g>
     <g id="text_1">
      <!-- $\mathdefault{10^{0}}$ -->
      <g transform="translate(100.995397 392.598437)scale(0.1 -0.1)">
       <defs>
        <path id="DejaVuSans-31" d="M 794 531 
L 1825 531 
L 1825 4091 
L 703 3866 
L 703 4441 
L 1819 4666 
L 2450 4666 
L 2450 531 
L 3481 531 
L 3481 0 
L 794 0 
L 794 531 
z
" transform="scale(0.015625)"/>
        <path id="DejaVuSans-30" d="M 2034 4250 
Q 1547 4250 1301 3770 
Q 1056 3291 1056 2328 
Q 1056 1369 1301 889 
Q 1547 409 2034 409 
Q 2525 409 2770 889 
Q 3016 1369 3016 2328 
Q 3016 3291 2770 3770 
Q 2525 4250 2034 4250 
z
M 2034 4750 
Q 2819 4750 3233 4129 
Q 3647 3509 3647 2328 
Q 3647 1150 3233 529 
Q 2819 -91 2034 -91 
Q 1250 -91 836 529 
Q 422 1150 422 2328 
Q 422 3509 836 4129 
Q 1250 4750 2034 4750 
z
" transform="scale(0.015625)"/>
       </defs>
       <use xlink:href="#DejaVuSans-31" transform="translate(0 0.765625)"/>
       <use xlink:href="#DejaVuSans-30" transform="translate(63.623047 0.765625)"/>
       <use xlink:href="#DejaVuSans-30" transform="translate(128.203125 39.046875)scale(0.7)"/>
      </g>
     </g>
    </g>
    <g id="xtick_2">
     <g id="line2d_3">
      <path d="M 289.196932 378 
L 289.196932 51.84 
" clip-path="url(#pcca3a7db7e)" style="fill: none; stroke: #b0b0b0; stroke-width: 0.8; stroke-linecap: square"/>
     </g>
     <g id="line2d_4">
      <g>
       <use xlink:href="#m8130562e2a" x="289.196932" y="378" style="stroke: #000000; stroke-width: 0.8"/>
      </g>
     </g>
     <g id="text_2">
      <!-- $\mathdefault{10^{1}}$ -->
      <g transform="translate(280.396932 392.598437)scale(0.1 -0.1)">
       <use xlink:href="#DejaVuSans-31" transform="translate(0 0.684375)"/>
       <use xlink:href="#DejaVuSans-30" transform="translate(63.623047 0.684375)"/>
       <use xlink:href="#DejaVuSans-31" transform="translate(128.203125 38.965625)scale(0.7)"/>
      </g>
     </g>
    </g>
    <g id="xtick_3">
     <g id="line2d_5">
      <path d="M 468.598466 378 
L 468.598466 51.84 
" clip-path="url(#pcca3a7db7e)" style="fill: none; stroke: #b0b0b0; stroke-width: 0.8; stroke-linecap: square"/>
     </g>
     <g id="line2d_6">
      <g>
       <use xlink:href="#m8130562e2a" x="468.598466" y="378" style="stroke: #000000; stroke-width: 0.8"/>
      </g>
     </g>
     <g id="text_3">
      <!-- $\mathdefault{10^{2}}$ -->
      <g transform="translate(459.798466 392.598437)scale(0.1 -0.1)">
       <defs>
        <path id="DejaVuSans-32" d="M 1228 531 
L 3431 531 
L 3431 0 
L 469 0 
L 469 531 
Q 828 903 1448 1529 
Q 2069 2156 2228 2338 
Q 2531 2678 2651 2914 
Q 2772 3150 2772 3378 
Q 2772 3750 2511 3984 
Q 2250 4219 1831 4219 
Q 1534 4219 1204 4116 
Q 875 4013 500 3803 
L 500 4441 
Q 881 4594 1212 4672 
Q 1544 4750 1819 4750 
Q 2544 4750 2975 4387 
Q 3406 4025 3406 3419 
Q 3406 3131 3298 2873 
Q 3191 2616 2906 2266 
Q 2828 2175 2409 1742 
Q 1991 1309 1228 531 
z
" transform="scale(0.015625)"/>
       </defs>
       <use xlink:href="#DejaVuSans-31" transform="translate(0 0.765625)"/>
       <use xlink:href="#DejaVuSans-30" transform="translate(63.623047 0.765625)"/>
       <use xlink:href="#DejaVuSans-32" transform="translate(128.203125 39.046875)scale(0.7)"/>
      </g>
     </g>
    </g>
    <g id="xtick_4">
     <g id="line2d_7">
      <path d="M 648 378 
L 648 51.84 
" clip-path="url(#pcca3a7db7e)" style="fill: none; stroke: #b0b0b0; stroke-width: 0.8; stroke-linecap: square"/>
     </g>
     <g id="line2d_8">
      <g>
       <use xlink:href="#m8130562e2a" x="648" y="378" style="stroke: #000000; stroke-width: 0.8"/>
      </g>
     </g>
     <g id="text_4">
      <!-- $\mathdefault{10^{3}}$ -->
      <g transform="translate(639.2 392.598437)scale(0.1 -0.1)">
       <defs>
        <path id="DejaVuSans-33" d="M 2597 2516 
Q 3050 2419 3304 2112 
Q 3559 1806 3559 1356 
Q 3559 666 3084 287 
Q 2609 -91 1734 -91 
Q 1441 -91 1130 -33 
Q 819 25 488 141 
L 488 750 
Q 750 597 1062 519 
Q 1375 441 1716 441 
Q 2309 441 2620 675 
Q 2931 909 2931 1356 
Q 2931 1769 2642 2001 
Q 2353 2234 1838 2234 
L 1294 2234 
L 1294 2753 
L 1863 2753 
Q 2328 2753 2575 2939 
Q 2822 3125 2822 3475 
Q 2822 3834 2567 4026 
Q 2313 4219 1838 4219 
Q 1578 4219 1281 4162 
Q 984 4106 628 3988 
L 628 4550 
Q 988 4650 1302 4700 
Q 1616 4750 1894 4750 
Q 2613 4750 3031 4423 
Q 3450 4097 3450 3541 
Q 3450 3153 3228 2886 
Q 3006 2619 2597 2516 
z
" transform="scale(0.015625)"/>
       </defs>
       <use xlink:href="#DejaVuSans-31" transform="translate(0 0.765625)"/>
       <use xlink:href="#DejaVuSans-30" transform="translate(63.623047 0.765625)"/>
       <use xlink:href="#DejaVuSans-33" transform="translate(128.203125 39.046875)scale(0.7)"/>
      </g>
     </g>
    </g>
    <g id="xtick_5">
     <g id="line2d_9">
      <defs>
       <path id="m0dd3390adf" d="M 0 0 
L 0 2 
" style="stroke: #000000; stroke-width: 0.6"/>
      </defs>
      <g>
       <use xlink:href="#m0dd3390adf" x="92.409592" y="378" style="stroke: #000000; stroke-width: 0.6"/>
      </g>
     </g>
    </g>
    <g id="xtick_6">
     <g id="line2d_10">
      <g>
       <use xlink:href="#m0dd3390adf" x="101.586433" y="378" style="stroke: #000000; stroke-width: 0.6"/>
      </g>
     </g>
    </g>
    <g id="xtick_7">
     <g id="line2d_11">
      <g>
       <use xlink:href="#m0dd3390adf" x="163.80064" y="378" style="stroke: #000000; stroke-width: 0.6"/>
      </g>
     </g>
    </g>
    <g id="xtick_8">
     <g id="line2d_12">
      <g>
       <use xlink:href="#m0dd3390adf" x="195.391682" y="378" style="stroke: #000000; stroke-width: 0.6"/>
      </g>
     </g>
    </g>
    <g id="xtick_9">
     <g id="line2d_13">
      <g>
       <use xlink:href="#m0dd3390adf" x="217.805884" y="378" style="stroke: #000000; stroke-width: 0.6"/>
      </g>
     </g>
    </g>
    <g id="xtick_10">
     <g id="line2d_14">
      <g>
       <use xlink:href="#m0dd3390adf" x="235.191689" y="378" style="stroke: #000000; stroke-width: 0.6"/>
      </g>
     </g>
    </g>
    <g id="xtick_11">
     <g id="line2d_15">
      <g>
       <use xlink:href="#m0dd3390adf" x="249.396926" y="378" style="stroke: #000000; stroke-width: 0.6"/>
      </g>
     </g>
    </g>
    <g id="xtick_12">
     <g id="line2d_16">
      <g>
       <use xlink:href="#m0dd3390adf" x="261.407282" y="378" style="stroke: #000000; stroke-width: 0.6"/>
      </g>
     </g>
    </g>
    <g id="xtick_13">
     <g id="line2d_17">
      <g>
       <use xlink:href="#m0dd3390adf" x="271.811127" y="378" style="stroke: #000000; stroke-width: 0.6"/>
      </g>
     </g>
    </g>
    <g id="xtick_14">
     <g id="line2d_18">
      <g>
       <use xlink:href="#m0dd3390adf" x="280.987968" y="378" style="stroke: #000000; stroke-width: 0.6"/>
      </g>
     </g>
    </g>
    <g id="xtick_15">
     <g id="line2d_19">
      <g>
       <use xlink:href="#m0dd3390adf" x="343.202175" y="378" style="stroke: #000000; stroke-width: 0.6"/>
      </g>
     </g>
    </g>
    <g id="xtick_16">
     <g id="line2d_20">
      <g>
       <use xlink:href="#m0dd3390adf" x="374.793217" y="378" style="stroke: #000000; stroke-width: 0.6"/>
      </g>
     </g>
    </g>
    <g id="xtick_17">
     <g id="line2d_21">
      <g>
       <use xlink:href="#m0dd3390adf" x="397.207418" y="378" style="stroke: #000000; stroke-width: 0.6"/>
      </g>
     </g>
    </g>
    <g id="xtick_18">
     <g id="line2d_22">
      <g>
       <use xlink:href="#m0dd3390adf" x="414.593223" y="378" style="stroke: #000000; stroke-width: 0.6"/>
      </g>
     </g>
    </g>
    <g id="xtick_19">
     <g id="line2d_23">
      <g>
       <use xlink:href="#m0dd3390adf" x="428.79846" y="378" style="stroke: #000000; stroke-width: 0.6"/>
      </g>
     </g>
    </g>
    <g id="xtick_20">
     <g id="line2d_24">
      <g>
       <use xlink:href="#m0dd3390adf" x="440.808817" y="378" style="stroke: #000000; stroke-width: 0.6"/>
      </g>
     </g>
    </g>
    <g id="xtick_21">
     <g id="line2d_25">
      <g>
       <use xlink:href="#m0dd3390adf" x="451.212661" y="378" style="stroke: #000000; stroke-width: 0.6"/>
      </g>
     </g>
    </g>
    <g id="xtick_22">
     <g id="line2d_26">
      <g>
       <use xlink:href="#m0dd3390adf" x="460.389502" y="378" style="stroke: #000000; stroke-width: 0.6"/>
      </g>
     </g>
    </g>
    <g id="xtick_23">
     <g id="line2d_27">
      <g>
       <use xlink:href="#m0dd3390adf" x="522.603709" y="378" style="stroke: #000000; stroke-width: 0.6"/>
      </g>
     </g>
    </g>
    <g id="xtick_24">
     <g id="line2d_28">
      <g>
       <use xlink:href="#m0dd3390adf" x="554.194751" y="378" style="stroke: #000000; stroke-width: 0.6"/>
      </g>
     </g>
    </g>
    <g id="xtick_25">
     <g id="line2d_29">
      <g>
       <use xlink:href="#m0dd3390adf" x="576.608952" y="378" style="stroke: #000000; stroke-width: 0.6"/>
      </g>
     </g>
    </g>
    <g id="xtick_26">
     <g id="line2d_30">
      <g>
       <use xlink:href="#m0dd3390adf" x="593.994757" y="378" style="stroke: #000000; stroke-width: 0.6"/>
      </g>
     </g>
    </g>
    <g id="xtick_27">
     <g id="line2d_31">
      <g>
       <use xlink:href="#m0dd3390adf" x="608.199994" y="378" style="stroke: #000000; stroke-width: 0.6"/>
      </g>
     </g>
    </g>
    <g id="xtick_28">
     <g id="line2d_32">
      <g>
       <use xlink:href="#m0dd3390adf" x="620.210351" y="378" style="stroke: #000000; stroke-width: 0.6"/>
      </g>
     </g>
    </g>
    <g id="xtick_29">
     <g id="line2d_33">
      <g>
       <use xlink:href="#m0dd3390adf" x="630.614195" y="378" style="stroke: #000000; stroke-width: 0.6"/>
      </g>
     </g>
    </g>
    <g id="xtick_30">
     <g id="line2d_34">
      <g>
       <use xlink:href="#m0dd3390adf" x="639.791036" y="378" style="stroke: #000000; stroke-width: 0.6"/>
      </g>
     </g>
    </g>
    <g id="text_5">
     <!-- Price Paid -->
     <g transform="translate(344.796094 406.276563)scale(0.1 -0.1)">
      <defs>
       <path id="DejaVuSans-50" d="M 1259 4147 
L 1259 2394 
L 2053 2394 
Q 2494 2394 2734 2622 
Q 2975 2850 2975 3272 
Q 2975 3691 2734 3919 
Q 2494 4147 2053 4147 
L 1259 4147 
z
M 628 4666 
L 2053 4666 
Q 2838 4666 3239 4311 
Q 3641 3956 3641 3272 
Q 3641 2581 3239 2228 
Q 2838 1875 2053 1875 
L 1259 1875 
L 1259 0 
L 628 0 
L 628 4666 
z
" transform="scale(0.015625)"/>
       <path id="DejaVuSans-72" d="M 2631 2963 
Q 2534 3019 2420 3045 
Q 2306 3072 2169 3072 
Q 1681 3072 1420 2755 
Q 1159 2438 1159 1844 
L 1159 0 
L 581 0 
L 581 3500 
L 1159 3500 
L 1159 2956 
Q 1341 3275 1631 3429 
Q 1922 3584 2338 3584 
Q 2397 3584 2469 3576 
Q 2541 3569 2628 3553 
L 2631 2963 
z
" transform="scale(0.015625)"/>
       <path id="DejaVuSans-69" d="M 603 3500 
L 1178 3500 
L 1178 0 
L 603 0 
L 603 3500 
z
M 603 4863 
L 1178 4863 
L 1178 4134 
L 603 4134 
L 603 4863 
z
" transform="scale(0.015625)"/>
       <path id="DejaVuSans-63" d="M 3122 3366 
L 3122 2828 
Q 2878 2963 2633 3030 
Q 2388 3097 2138 3097 
Q 1578 3097 1268 2742 
Q 959 2388 959 1747 
Q 959 1106 1268 751 
Q 1578 397 2138 397 
Q 2388 397 2633 464 
Q 2878 531 3122 666 
L 3122 134 
Q 2881 22 2623 -34 
Q 2366 -91 2075 -91 
Q 1284 -91 818 406 
Q 353 903 353 1747 
Q 353 2603 823 3093 
Q 1294 3584 2113 3584 
Q 2378 3584 2631 3529 
Q 2884 3475 3122 3366 
z
" transform="scale(0.015625)"/>
       <path id="DejaVuSans-65" d="M 3597 1894 
L 3597 1613 
L 953 1613 
Q 991 1019 1311 708 
Q 1631 397 2203 397 
Q 2534 397 2845 478 
Q 3156 559 3463 722 
L 3463 178 
Q 3153 47 2828 -22 
Q 2503 -91 2169 -91 
Q 1331 -91 842 396 
Q 353 884 353 1716 
Q 353 2575 817 3079 
Q 1281 3584 2069 3584 
Q 2775 3584 3186 3129 
Q 3597 2675 3597 1894 
z
M 3022 2063 
Q 3016 2534 2758 2815 
Q 2500 3097 2075 3097 
Q 1594 3097 1305 2825 
Q 1016 2553 972 2059 
L 3022 2063 
z
" transform="scale(0.015625)"/>
       <path id="DejaVuSans-20" transform="scale(0.015625)"/>
       <path id="DejaVuSans-61" d="M 2194 1759 
Q 1497 1759 1228 1600 
Q 959 1441 959 1056 
Q 959 750 1161 570 
Q 1363 391 1709 391 
Q 2188 391 2477 730 
Q 2766 1069 2766 1631 
L 2766 1759 
L 2194 1759 
z
M 3341 1997 
L 3341 0 
L 2766 0 
L 2766 531 
Q 2569 213 2275 61 
Q 1981 -91 1556 -91 
Q 1019 -91 701 211 
Q 384 513 384 1019 
Q 384 1609 779 1909 
Q 1175 2209 1959 2209 
L 2766 2209 
L 2766 2266 
Q 2766 2663 2505 2880 
Q 2244 3097 1772 3097 
Q 1472 3097 1187 3025 
Q 903 2953 641 2809 
L 641 3341 
Q 956 3463 1253 3523 
Q 1550 3584 1831 3584 
Q 2591 3584 2966 3190 
Q 3341 2797 3341 1997 
z
" transform="scale(0.015625)"/>
       <path id="DejaVuSans-64" d="M 2906 2969 
L 2906 4863 
L 3481 4863 
L 3481 0 
L 2906 0 
L 2906 525 
Q 2725 213 2448 61 
Q 2172 -91 1784 -91 
Q 1150 -91 751 415 
Q 353 922 353 1747 
Q 353 2572 751 3078 
Q 1150 3584 1784 3584 
Q 2172 3584 2448 3432 
Q 2725 3281 2906 2969 
z
M 947 1747 
Q 947 1113 1208 752 
Q 1469 391 1925 391 
Q 2381 391 2643 752 
Q 2906 1113 2906 1747 
Q 2906 2381 2643 2742 
Q 2381 3103 1925 3103 
Q 1469 3103 1208 2742 
Q 947 2381 947 1747 
z
" transform="scale(0.015625)"/>
      </defs>
      <use xlink:href="#DejaVuSans-50"/>
      <use xlink:href="#DejaVuSans-72" x="58.552734"/>
      <use xlink:href="#DejaVuSans-69" x="99.666016"/>
      <use xlink:href="#DejaVuSans-63" x="127.449219"/>
      <use xlink:href="#DejaVuSans-65" x="182.429688"/>
      <use xlink:href="#DejaVuSans-20" x="243.953125"/>
      <use xlink:href="#DejaVuSans-50" x="275.740234"/>
      <use xlink:href="#DejaVuSans-61" x="331.542969"/>
      <use xlink:href="#DejaVuSans-69" x="392.822266"/>
      <use xlink:href="#DejaVuSans-64" x="420.605469"/>
     </g>
    </g>
   </g>
   <g id="matplotlib.axis_2">
    <g id="ytick_1">
     <g id="line2d_35">
      <path d="M 90 378 
L 648 378 
" clip-path="url(#pcca3a7db7e)" style="fill: none; stroke: #b0b0b0; stroke-width: 0.8; stroke-linecap: square"/>
     </g>
     <g id="line2d_36">
      <defs>
       <path id="mc8808d4436" d="M 0 0 
L -3.5 0 
" style="stroke: #000000; stroke-width: 0.8"/>
      </defs>
      <g>
       <use xlink:href="#mc8808d4436" x="90" y="378" style="stroke: #000000; stroke-width: 0.8"/>
      </g>
     </g>
     <g id="text_6">
      <!-- $\mathdefault{10^{-1}}$ -->
      <g transform="translate(59.5 381.799219)scale(0.1 -0.1)">
       <defs>
        <path id="DejaVuSans-2212" d="M 678 2272 
L 4684 2272 
L 4684 1741 
L 678 1741 
L 678 2272 
z
" transform="scale(0.015625)"/>
       </defs>
       <use xlink:href="#DejaVuSans-31" transform="translate(0 0.684375)"/>
       <use xlink:href="#DejaVuSans-30" transform="translate(63.623047 0.684375)"/>
       <use xlink:href="#DejaVuSans-2212" transform="translate(128.203125 38.965625)scale(0.7)"/>
       <use xlink:href="#DejaVuSans-31" transform="translate(186.855469 38.965625)scale(0.7)"/>
      </g>
     </g>
    </g>
    <g id="ytick_2">
     <g id="line2d_37">
      <path d="M 90 279.194476 
L 648 279.194476 
" clip-path="url(#pcca3a7db7e)" style="fill: none; stroke: #b0b0b0; stroke-width: 0.8; stroke-linecap: square"/>
     </g>
     <g id="line2d_38">
      <g>
       <use xlink:href="#mc8808d4436" x="90" y="279.194476" style="stroke: #000000; stroke-width: 0.8"/>
      </g>
     </g>
     <g id="text_7">
      <!-- $\mathdefault{10^{0}}$ -->
      <g transform="translate(65.4 282.993694)scale(0.1 -0.1)">
       <use xlink:href="#DejaVuSans-31" transform="translate(0 0.765625)"/>
       <use xlink:href="#DejaVuSans-30" transform="translate(63.623047 0.765625)"/>
       <use xlink:href="#DejaVuSans-30" transform="translate(128.203125 39.046875)scale(0.7)"/>
      </g>
     </g>
    </g>
    <g id="ytick_3">
     <g id="line2d_39">
      <path d="M 90 180.388951 
L 648 180.388951 
" clip-path="url(#pcca3a7db7e)" style="fill: none; stroke: #b0b0b0; stroke-width: 0.8; stroke-linecap: square"/>
     </g>
     <g id="line2d_40">
      <g>
       <use xlink:href="#mc8808d4436" x="90" y="180.388951" style="stroke: #000000; stroke-width: 0.8"/>
      </g>
     </g>
     <g id="text_8">
      <!-- $\mathdefault{10^{1}}$ -->
      <g transform="translate(65.4 184.18817)scale(0.1 -0.1)">
       <use xlink:href="#DejaVuSans-31" transform="translate(0 0.684375)"/>
       <use xlink:href="#DejaVuSans-30" transform="translate(63.623047 0.684375)"/>
       <use xlink:href="#DejaVuSans-31" transform="translate(128.203125 38.965625)scale(0.7)"/>
      </g>
     </g>
    </g>
    <g id="ytick_4">
     <g id="line2d_41">
      <path d="M 90 81.583427 
L 648 81.583427 
" clip-path="url(#pcca3a7db7e)" style="fill: none; stroke: #b0b0b0; stroke-width: 0.8; stroke-linecap: square"/>
     </g>
     <g id="line2d_42">
      <g>
       <use xlink:href="#mc8808d4436" x="90" y="81.583427" style="stroke: #000000; stroke-width: 0.8"/>
      </g>
     </g>
     <g id="text_9">
      <!-- $\mathdefault{10^{2}}$ -->
      <g transform="translate(65.4 85.382645)scale(0.1 -0.1)">
       <use xlink:href="#DejaVuSans-31" transform="translate(0 0.765625)"/>
       <use xlink:href="#DejaVuSans-30" transform="translate(63.623047 0.765625)"/>
       <use xlink:href="#DejaVuSans-32" transform="translate(128.203125 39.046875)scale(0.7)"/>
      </g>
     </g>
    </g>
    <g id="ytick_5">
     <g id="line2d_43">
      <defs>
       <path id="m53f2b65db0" d="M 0 0 
L -2 0 
" style="stroke: #000000; stroke-width: 0.6"/>
      </defs>
      <g>
       <use xlink:href="#m53f2b65db0" x="90" y="348.256573" style="stroke: #000000; stroke-width: 0.6"/>
      </g>
     </g>
    </g>
    <g id="ytick_6">
     <g id="line2d_44">
      <g>
       <use xlink:href="#m53f2b65db0" x="90" y="330.857784" style="stroke: #000000; stroke-width: 0.6"/>
      </g>
     </g>
    </g>
    <g id="ytick_7">
     <g id="line2d_45">
      <g>
       <use xlink:href="#m53f2b65db0" x="90" y="318.513147" style="stroke: #000000; stroke-width: 0.6"/>
      </g>
     </g>
    </g>
    <g id="ytick_8">
     <g id="line2d_46">
      <g>
       <use xlink:href="#m53f2b65db0" x="90" y="308.937902" style="stroke: #000000; stroke-width: 0.6"/>
      </g>
     </g>
    </g>
    <g id="ytick_9">
     <g id="line2d_47">
      <g>
       <use xlink:href="#m53f2b65db0" x="90" y="301.114358" style="stroke: #000000; stroke-width: 0.6"/>
      </g>
     </g>
    </g>
    <g id="ytick_10">
     <g id="line2d_48">
      <g>
       <use xlink:href="#m53f2b65db0" x="90" y="294.499645" style="stroke: #000000; stroke-width: 0.6"/>
      </g>
     </g>
    </g>
    <g id="ytick_11">
     <g id="line2d_49">
      <g>
       <use xlink:href="#m53f2b65db0" x="90" y="288.76972" style="stroke: #000000; stroke-width: 0.6"/>
      </g>
     </g>
    </g>
    <g id="ytick_12">
     <g id="line2d_50">
      <g>
       <use xlink:href="#m53f2b65db0" x="90" y="283.715568" style="stroke: #000000; stroke-width: 0.6"/>
      </g>
     </g>
    </g>
    <g id="ytick_13">
     <g id="line2d_51">
      <g>
       <use xlink:href="#m53f2b65db0" x="90" y="249.451049" style="stroke: #000000; stroke-width: 0.6"/>
      </g>
     </g>
    </g>
    <g id="ytick_14">
     <g id="line2d_52">
      <g>
       <use xlink:href="#m53f2b65db0" x="90" y="232.05226" style="stroke: #000000; stroke-width: 0.6"/>
      </g>
     </g>
    </g>
    <g id="ytick_15">
     <g id="line2d_53">
      <g>
       <use xlink:href="#m53f2b65db0" x="90" y="219.707622" style="stroke: #000000; stroke-width: 0.6"/>
      </g>
     </g>
    </g>
    <g id="ytick_16">
     <g id="line2d_54">
      <g>
       <use xlink:href="#m53f2b65db0" x="90" y="210.132378" style="stroke: #000000; stroke-width: 0.6"/>
      </g>
     </g>
    </g>
    <g id="ytick_17">
     <g id="line2d_55">
      <g>
       <use xlink:href="#m53f2b65db0" x="90" y="202.308833" style="stroke: #000000; stroke-width: 0.6"/>
      </g>
     </g>
    </g>
    <g id="ytick_18">
     <g id="line2d_56">
      <g>
       <use xlink:href="#m53f2b65db0" x="90" y="195.69412" style="stroke: #000000; stroke-width: 0.6"/>
      </g>
     </g>
    </g>
    <g id="ytick_19">
     <g id="line2d_57">
      <g>
       <use xlink:href="#m53f2b65db0" x="90" y="189.964196" style="stroke: #000000; stroke-width: 0.6"/>
      </g>
     </g>
    </g>
    <g id="ytick_20">
     <g id="line2d_58">
      <g>
       <use xlink:href="#m53f2b65db0" x="90" y="184.910044" style="stroke: #000000; stroke-width: 0.6"/>
      </g>
     </g>
    </g>
    <g id="ytick_21">
     <g id="line2d_59">
      <g>
       <use xlink:href="#m53f2b65db0" x="90" y="150.645524" style="stroke: #000000; stroke-width: 0.6"/>
      </g>
     </g>
    </g>
    <g id="ytick_22">
     <g id="line2d_60">
      <g>
       <use xlink:href="#m53f2b65db0" x="90" y="133.246735" style="stroke: #000000; stroke-width: 0.6"/>
      </g>
     </g>
    </g>
    <g id="ytick_23">
     <g id="line2d_61">
      <g>
       <use xlink:href="#m53f2b65db0" x="90" y="120.902098" style="stroke: #000000; stroke-width: 0.6"/>
      </g>
     </g>
    </g>
    <g id="ytick_24">
     <g id="line2d_62">
      <g>
       <use xlink:href="#m53f2b65db0" x="90" y="111.326853" style="stroke: #000000; stroke-width: 0.6"/>
      </g>
     </g>
    </g>
    <g id="ytick_25">
     <g id="line2d_63">
      <g>
       <use xlink:href="#m53f2b65db0" x="90" y="103.503309" style="stroke: #000000; stroke-width: 0.6"/>
      </g>
     </g>
    </g>
    <g id="ytick_26">
     <g id="line2d_64">
      <g>
       <use xlink:href="#m53f2b65db0" x="90" y="96.888596" style="stroke: #000000; stroke-width: 0.6"/>
      </g>
     </g>
    </g>
    <g id="ytick_27">
     <g id="line2d_65">
      <g>
       <use xlink:href="#m53f2b65db0" x="90" y="91.158671" style="stroke: #000000; stroke-width: 0.6"/>
      </g>
     </g>
    </g>
    <g id="ytick_28">
     <g id="line2d_66">
      <g>
       <use xlink:href="#m53f2b65db0" x="90" y="86.104519" style="stroke: #000000; stroke-width: 0.6"/>
      </g>
     </g>
    </g>
    <g id="ytick_29">
     <g id="line2d_67">
      <g>
       <use xlink:href="#m53f2b65db0" x="90" y="51.84" style="stroke: #000000; stroke-width: 0.6"/>
      </g>
     </g>
    </g>
    <g id="text_10">
     <!-- Average Pellet Count -->
     <g transform="translate(53.420312 267.204375)rotate(-90)scale(0.1 -0.1)">
      <defs>
       <path id="DejaVuSans-41" d="M 2188 4044 
L 1331 1722 
L 3047 1722 
L 2188 4044 
z
M 1831 4666 
L 2547 4666 
L 4325 0 
L 3669 0 
L 3244 1197 
L 1141 1197 
L 716 0 
L 50 0 
L 1831 4666 
z
" transform="scale(0.015625)"/>
       <path id="DejaVuSans-76" d="M 191 3500 
L 800 3500 
L 1894 563 
L 2988 3500 
L 3597 3500 
L 2284 0 
L 1503 0 
L 191 3500 
z
" transform="scale(0.015625)"/>
       <path id="DejaVuSans-67" d="M 2906 1791 
Q 2906 2416 2648 2759 
Q 2391 3103 1925 3103 
Q 1463 3103 1205 2759 
Q 947 2416 947 1791 
Q 947 1169 1205 825 
Q 1463 481 1925 481 
Q 2391 481 2648 825 
Q 2906 1169 2906 1791 
z
M 3481 434 
Q 3481 -459 3084 -895 
Q 2688 -1331 1869 -1331 
Q 1566 -1331 1297 -1286 
Q 1028 -1241 775 -1147 
L 775 -588 
Q 1028 -725 1275 -790 
Q 1522 -856 1778 -856 
Q 2344 -856 2625 -561 
Q 2906 -266 2906 331 
L 2906 616 
Q 2728 306 2450 153 
Q 2172 0 1784 0 
Q 1141 0 747 490 
Q 353 981 353 1791 
Q 353 2603 747 3093 
Q 1141 3584 1784 3584 
Q 2172 3584 2450 3431 
Q 2728 3278 2906 2969 
L 2906 3500 
L 3481 3500 
L 3481 434 
z
" transform="scale(0.015625)"/>
       <path id="DejaVuSans-6c" d="M 603 4863 
L 1178 4863 
L 1178 0 
L 603 0 
L 603 4863 
z
" transform="scale(0.015625)"/>
       <path id="DejaVuSans-74" d="M 1172 4494 
L 1172 3500 
L 2356 3500 
L 2356 3053 
L 1172 3053 
L 1172 1153 
Q 1172 725 1289 603 
Q 1406 481 1766 481 
L 2356 481 
L 2356 0 
L 1766 0 
Q 1100 0 847 248 
Q 594 497 594 1153 
L 594 3053 
L 172 3053 
L 172 3500 
L 594 3500 
L 594 4494 
L 1172 4494 
z
" transform="scale(0.015625)"/>
       <path id="DejaVuSans-43" d="M 4122 4306 
L 4122 3641 
Q 3803 3938 3442 4084 
Q 3081 4231 2675 4231 
Q 1875 4231 1450 3742 
Q 1025 3253 1025 2328 
Q 1025 1406 1450 917 
Q 1875 428 2675 428 
Q 3081 428 3442 575 
Q 3803 722 4122 1019 
L 4122 359 
Q 3791 134 3420 21 
Q 3050 -91 2638 -91 
Q 1578 -91 968 557 
Q 359 1206 359 2328 
Q 359 3453 968 4101 
Q 1578 4750 2638 4750 
Q 3056 4750 3426 4639 
Q 3797 4528 4122 4306 
z
" transform="scale(0.015625)"/>
       <path id="DejaVuSans-6f" d="M 1959 3097 
Q 1497 3097 1228 2736 
Q 959 2375 959 1747 
Q 959 1119 1226 758 
Q 1494 397 1959 397 
Q 2419 397 2687 759 
Q 2956 1122 2956 1747 
Q 2956 2369 2687 2733 
Q 2419 3097 1959 3097 
z
M 1959 3584 
Q 2709 3584 3137 3096 
Q 3566 2609 3566 1747 
Q 3566 888 3137 398 
Q 2709 -91 1959 -91 
Q 1206 -91 779 398 
Q 353 888 353 1747 
Q 353 2609 779 3096 
Q 1206 3584 1959 3584 
z
" transform="scale(0.015625)"/>
       <path id="DejaVuSans-75" d="M 544 1381 
L 544 3500 
L 1119 3500 
L 1119 1403 
Q 1119 906 1312 657 
Q 1506 409 1894 409 
Q 2359 409 2629 706 
Q 2900 1003 2900 1516 
L 2900 3500 
L 3475 3500 
L 3475 0 
L 2900 0 
L 2900 538 
Q 2691 219 2414 64 
Q 2138 -91 1772 -91 
Q 1169 -91 856 284 
Q 544 659 544 1381 
z
M 1991 3584 
L 1991 3584 
z
" transform="scale(0.015625)"/>
       <path id="DejaVuSans-6e" d="M 3513 2113 
L 3513 0 
L 2938 0 
L 2938 2094 
Q 2938 2591 2744 2837 
Q 2550 3084 2163 3084 
Q 1697 3084 1428 2787 
Q 1159 2491 1159 1978 
L 1159 0 
L 581 0 
L 581 3500 
L 1159 3500 
L 1159 2956 
Q 1366 3272 1645 3428 
Q 1925 3584 2291 3584 
Q 2894 3584 3203 3211 
Q 3513 2838 3513 2113 
z
" transform="scale(0.015625)"/>
      </defs>
      <use xlink:href="#DejaVuSans-41"/>
      <use xlink:href="#DejaVuSans-76" x="62.533203"/>
      <use xlink:href="#DejaVuSans-65" x="121.712891"/>
      <use xlink:href="#DejaVuSans-72" x="183.236328"/>
      <use xlink:href="#DejaVuSans-61" x="224.349609"/>
      <use xlink:href="#DejaVuSans-67" x="285.628906"/>
      <use xlink:href="#DejaVuSans-65" x="349.105469"/>
      <use xlink:href="#DejaVuSans-20" x="410.628906"/>
      <use xlink:href="#DejaVuSans-50" x="442.416016"/>
      <use xlink:href="#DejaVuSans-65" x="499.09375"/>
      <use xlink:href="#DejaVuSans-6c" x="560.617188"/>
      <use xlink:href="#DejaVuSans-6c" x="588.400391"/>
      <use xlink:href="#DejaVuSans-65" x="616.183594"/>
      <use xlink:href="#DejaVuSans-74" x="677.707031"/>
      <use xlink:href="#DejaVuSans-20" x="716.916016"/>
      <use xlink:href="#DejaVuSans-43" x="748.703125"/>
      <use xlink:href="#DejaVuSans-6f" x="818.527344"/>
      <use xlink:href="#DejaVuSans-75" x="879.708984"/>
      <use xlink:href="#DejaVuSans-6e" x="943.087891"/>
      <use xlink:href="#DejaVuSans-74" x="1006.466797"/>
     </g>
    </g>
   </g>
   <g id="line2d_68">
    <path d="M 109.795397 180.388951 
L 163.80064 180.388951 
L 195.391682 210.132378 
L 217.805884 210.132378 
L 235.191689 219.707622 
L 249.396926 232.05226 
L 261.407282 232.05226 
L 280.987968 249.451049 
L 289.196932 249.451049 
L 303.402169 279.194476 
L 309.638544 279.194476 
" clip-path="url(#pcca3a7db7e)" style="fill: none; stroke: #0000ff; stroke-opacity: 0.3; stroke-linecap: square"/>
   </g>
   <g id="line2d_69">
    <path d="M 309.638544 279.194476 
L 320.787974 279.194476 
L 330.539822 279.194476 
L 343.202175 279.194476 
L 350.628086 279.194476 
L 360.58798 279.194476 
L 369.417768 279.194476 
L 379.821613 279.194476 
L 388.998454 279.194476 
L 397.207418 279.194476 
L 406.384259 279.194476 
L 414.593223 279.194476 
L 423.423012 279.194476 
L 431.353216 279.194476 
L 439.687745 279.194476 
L 448.234728 279.194476 
L 456.847387 279.194476 
L 464.602046 279.194476 
L 473.138377 279.194476 
" clip-path="url(#pcca3a7db7e)" style="fill: none; stroke: #0000ff; stroke-opacity: 0.3; stroke-linecap: square"/>
   </g>
   <g id="line2d_70">
    <path d="M 109.795397 249.451049 
L 163.80064 249.451049 
L 195.391682 279.194476 
L 217.805884 279.194476 
L 235.191689 279.194476 
L 249.396926 279.194476 
L 261.407282 279.194476 
L 280.987968 279.194476 
L 289.196932 279.194476 
L 303.402169 249.451049 
L 309.638544 279.194476 
L 320.787974 279.194476 
L 330.539822 279.194476 
L 343.202175 279.194476 
L 350.628086 279.194476 
L 360.58798 279.194476 
L 369.417768 279.194476 
L 379.821613 279.194476 
L 388.998454 279.194476 
L 397.207418 279.194476 
L 406.384259 279.194476 
L 414.593223 279.194476 
" clip-path="url(#pcca3a7db7e)" style="fill: none; stroke: #0000ff; stroke-opacity: 0.3; stroke-linecap: square"/>
   </g>
   <g id="line2d_71">
    <path d="M 109.795397 202.308833 
L 163.80064 202.308833 
L 195.391682 232.05226 
L 217.805884 232.05226 
L 235.191689 232.05226 
L 249.396926 232.05226 
L 261.407282 232.05226 
L 280.987968 232.05226 
L 289.196932 249.451049 
L 303.402169 249.451049 
L 309.638544 249.451049 
L 320.787974 249.451049 
L 330.539822 249.451049 
L 343.202175 249.451049 
L 350.628086 249.451049 
L 360.58798 279.194476 
L 369.417768 279.194476 
L 379.821613 279.194476 
L 388.998454 279.194476 
L 397.207418 279.194476 
" clip-path="url(#pcca3a7db7e)" style="fill: none; stroke: #0000ff; stroke-opacity: 0.3; stroke-linecap: square"/>
   </g>
   <g id="line2d_72">
    <path d="M 109.795397 219.707622 
L 163.80064 219.707622 
L 195.391682 249.451049 
L 217.805884 249.451049 
L 235.191689 249.451049 
L 249.396926 249.451049 
L 261.407282 279.194476 
L 280.987968 279.194476 
L 289.196932 279.194476 
L 303.402169 279.194476 
L 309.638544 279.194476 
L 320.787974 279.194476 
L 330.539822 279.194476 
L 343.202175 279.194476 
L 350.628086 279.194476 
L 360.58798 279.194476 
L 369.417768 279.194476 
L 379.821613 279.194476 
L 388.998454 279.194476 
L 397.207418 279.194476 
L 406.384259 279.194476 
L 414.593223 279.194476 
L 423.423012 279.194476 
L 431.353216 279.194476 
" clip-path="url(#pcca3a7db7e)" style="fill: none; stroke: #0000ff; stroke-opacity: 0.3; stroke-linecap: square"/>
   </g>
   <g id="line2d_73">
    <path d="M 109.795397 189.964196 
L 163.80064 189.964196 
L 195.391682 219.707622 
L 217.805884 219.707622 
L 235.191689 249.451049 
L 249.396926 249.451049 
L 261.407282 249.451049 
L 280.987968 249.451049 
L 289.196932 249.451049 
L 303.402169 249.451049 
L 309.638544 249.451049 
L 320.787974 279.194476 
L 330.539822 279.194476 
L 343.202175 279.194476 
L 350.628086 279.194476 
L 360.58798 279.194476 
L 369.417768 279.194476 
L 379.821613 279.194476 
L 388.998454 279.194476 
L 397.207418 279.194476 
L 406.384259 279.194476 
L 414.593223 279.194476 
" clip-path="url(#pcca3a7db7e)" style="fill: none; stroke: #0000ff; stroke-opacity: 0.3; stroke-linecap: square"/>
   </g>
   <g id="line2d_74">
    <path d="M 109.795397 219.707622 
L 163.80064 219.707622 
L 195.391682 249.451049 
L 217.805884 249.451049 
L 235.191689 249.451049 
L 249.396926 249.451049 
L 261.407282 279.194476 
L 280.987968 279.194476 
L 289.196932 279.194476 
L 303.402169 279.194476 
L 309.638544 279.194476 
L 320.787974 279.194476 
L 330.539822 279.194476 
L 343.202175 279.194476 
L 350.628086 279.194476 
L 360.58798 279.194476 
L 369.417768 279.194476 
L 379.821613 279.194476 
L 388.998454 279.194476 
L 397.207418 279.194476 
L 406.384259 279.194476 
L 414.593223 279.194476 
L 423.423012 279.194476 
L 431.353216 279.194476 
L 439.687745 279.194476 
L 448.234728 279.194476 
" clip-path="url(#pcca3a7db7e)" style="fill: none; stroke: #0000ff; stroke-opacity: 0.3; stroke-linecap: square"/>
   </g>
   <g id="line2d_75">
    <path d="M 109.795397 219.707622 
L 163.80064 219.707622 
L 195.391682 249.451049 
L 217.805884 249.451049 
L 235.191689 249.451049 
L 249.396926 279.194476 
L 261.407282 279.194476 
L 280.987968 279.194476 
L 289.196932 279.194476 
L 303.402169 279.194476 
L 309.638544 279.194476 
L 320.787974 279.194476 
L 330.539822 279.194476 
L 343.202175 279.194476 
L 350.628086 279.194476 
L 360.58798 279.194476 
L 369.417768 279.194476 
L 379.821613 279.194476 
L 388.998454 279.194476 
L 397.207418 279.194476 
L 406.384259 279.194476 
L 414.593223 279.194476 
L 423.423012 279.194476 
L 431.353216 279.194476 
L 439.687745 279.194476 
L 448.234728 279.194476 
" clip-path="url(#pcca3a7db7e)" style="fill: none; stroke: #0000ff; stroke-opacity: 0.3; stroke-linecap: square"/>
   </g>
   <g id="line2d_76">
    <path d="M 109.795397 219.707622 
L 163.80064 219.707622 
L 195.391682 249.451049 
L 217.805884 249.451049 
L 235.191689 249.451049 
L 249.396926 249.451049 
L 261.407282 249.451049 
L 280.987968 249.451049 
L 289.196932 249.451049 
L 303.402169 249.451049 
L 309.638544 249.451049 
L 320.787974 249.451049 
L 330.539822 249.451049 
L 343.202175 249.451049 
L 350.628086 249.451049 
L 360.58798 249.451049 
L 369.417768 279.194476 
L 379.821613 279.194476 
L 388.998454 279.194476 
L 397.207418 279.194476 
L 406.384259 279.194476 
L 414.593223 279.194476 
L 423.423012 279.194476 
L 431.353216 279.194476 
L 439.687745 279.194476 
L 448.234728 279.194476 
L 456.847387 279.194476 
L 464.602046 279.194476 
L 473.138377 279.194476 
" clip-path="url(#pcca3a7db7e)" style="fill: none; stroke: #0000ff; stroke-opacity: 0.3; stroke-linecap: square"/>
   </g>
   <g id="line2d_77">
    <path d="M 109.795397 219.707622 
L 163.80064 219.707622 
L 195.391682 249.451049 
L 217.805884 249.451049 
L 235.191689 249.451049 
L 249.396926 249.451049 
L 261.407282 249.451049 
L 280.987968 249.451049 
L 289.196932 249.451049 
L 303.402169 249.451049 
L 309.638544 249.451049 
L 320.787974 249.451049 
L 330.539822 249.451049 
L 343.202175 279.194476 
L 350.628086 279.194476 
L 360.58798 279.194476 
L 369.417768 279.194476 
L 379.821613 279.194476 
L 388.998454 279.194476 
L 397.207418 279.194476 
L 406.384259 279.194476 
L 414.593223 279.194476 
" clip-path="url(#pcca3a7db7e)" style="fill: none; stroke: #0000ff; stroke-opacity: 0.3; stroke-linecap: square"/>
   </g>
   <g id="line2d_78">
    <path d="M 109.795397 184.910044 
L 163.80064 189.964196 
L 195.391682 219.707622 
L 217.805884 219.707622 
L 235.191689 219.707622 
L 249.396926 219.707622 
L 261.407282 219.707622 
L 280.987968 249.451049 
L 289.196932 249.451049 
L 303.402169 279.194476 
L 309.638544 279.194476 
L 320.787974 279.194476 
L 330.539822 279.194476 
L 343.202175 279.194476 
L 350.628086 279.194476 
L 360.58798 279.194476 
L 369.417768 279.194476 
L 379.821613 279.194476 
L 388.998454 279.194476 
L 397.207418 279.194476 
L 406.384259 279.194476 
" clip-path="url(#pcca3a7db7e)" style="fill: none; stroke: #0000ff; stroke-opacity: 0.3; stroke-linecap: square"/>
   </g>
   <g id="line2d_79">
    <path d="M 280.987968 279.194476 
L 289.196932 279.194476 
L 303.402169 279.194476 
L 309.638544 279.194476 
L 320.787974 279.194476 
L 330.539822 279.194476 
L 343.202175 279.194476 
L 350.628086 279.194476 
L 360.58798 279.194476 
L 369.417768 279.194476 
L 379.821613 279.194476 
L 388.998454 279.194476 
L 397.207418 279.194476 
L 406.384259 279.194476 
L 414.593223 279.194476 
L 423.423012 279.194476 
L 431.353216 279.194476 
L 439.687745 279.194476 
L 448.234728 279.194476 
L 456.847387 279.194476 
L 464.602046 279.194476 
L 473.138377 279.194476 
" clip-path="url(#pcca3a7db7e)" style="fill: none; stroke: #0000ff; stroke-opacity: 0.3; stroke-linecap: square"/>
   </g>
   <g id="line2d_80">
    <path d="M 109.795397 249.451049 
L 163.80064 249.451049 
L 195.391682 279.194476 
L 217.805884 279.194476 
L 235.191689 279.194476 
L 249.396926 279.194476 
L 261.407282 279.194476 
L 280.987968 279.194476 
L 289.196932 279.194476 
L 303.402169 279.194476 
L 309.638544 279.194476 
L 320.787974 279.194476 
L 330.539822 279.194476 
L 343.202175 279.194476 
L 350.628086 279.194476 
L 360.58798 279.194476 
L 369.417768 279.194476 
L 379.821613 279.194476 
L 388.998454 279.194476 
L 397.207418 279.194476 
L 406.384259 279.194476 
L 414.593223 279.194476 
L 423.423012 279.194476 
L 431.353216 279.194476 
L 439.687745 279.194476 
L 448.234728 279.194476 
L 456.847387 279.194476 
L 464.602046 279.194476 
" clip-path="url(#pcca3a7db7e)" style="fill: none; stroke: #0000ff; stroke-opacity: 0.3; stroke-linecap: square"/>
   </g>
   <g id="line2d_81">
    <path d="M 360.58798 279.194476 
L 369.417768 279.194476 
L 379.821613 279.194476 
L 388.998454 279.194476 
L 397.207418 279.194476 
L 406.384259 279.194476 
L 414.593223 279.194476 
L 423.423012 279.194476 
L 431.353216 279.194476 
L 439.687745 279.194476 
L 448.234728 279.194476 
L 456.847387 279.194476 
L 464.602046 279.194476 
L 473.138377 279.194476 
L 481.494208 279.194476 
L 489.637116 279.194476 
L 497.548133 279.194476 
L 505.703345 279.194476 
" clip-path="url(#pcca3a7db7e)" style="fill: none; stroke: #0000ff; stroke-opacity: 0.3; stroke-linecap: square"/>
   </g>
   <g id="line2d_82">
    <path d="M 109.795397 180.388951 
L 163.80064 180.388951 
L 195.391682 210.132378 
L 217.805884 210.132378 
L 235.191689 210.132378 
L 249.396926 219.707622 
L 261.407282 232.05226 
L 280.987968 232.05226 
L 289.196932 232.05226 
L 303.402169 232.05226 
L 309.638544 249.451049 
L 320.787974 279.194476 
" clip-path="url(#pcca3a7db7e)" style="fill: none; stroke: #0000ff; stroke-opacity: 0.3; stroke-linecap: square"/>
   </g>
   <g id="line2d_83">
    <path d="M 109.795397 189.964196 
L 163.80064 189.964196 
L 195.391682 219.707622 
L 217.805884 219.707622 
L 235.191689 219.707622 
L 249.396926 219.707622 
L 261.407282 219.707622 
L 280.987968 219.707622 
L 289.196932 219.707622 
L 303.402169 219.707622 
L 309.638544 219.707622 
L 320.787974 232.05226 
L 330.539822 232.05226 
L 343.202175 232.05226 
L 350.628086 232.05226 
L 360.58798 232.05226 
L 369.417768 249.451049 
L 379.821613 249.451049 
L 388.998454 279.194476 
L 397.207418 279.194476 
L 406.384259 279.194476 
L 414.593223 279.194476 
L 423.423012 279.194476 
L 431.353216 279.194476 
L 439.687745 279.194476 
L 448.234728 279.194476 
L 456.847387 279.194476 
L 464.602046 279.194476 
" clip-path="url(#pcca3a7db7e)" style="fill: none; stroke: #0000ff; stroke-opacity: 0.3; stroke-linecap: square"/>
   </g>
   <g id="line2d_84">
    <path d="M 109.795397 180.388951 
L 163.80064 180.388951 
L 195.391682 210.132378 
L 217.805884 210.132378 
L 235.191689 210.132378 
L 249.396926 219.707622 
L 261.407282 219.707622 
L 280.987968 249.451049 
L 289.196932 249.451049 
L 303.402169 249.451049 
L 309.638544 279.194476 
L 320.787974 279.194476 
L 330.539822 279.194476 
L 343.202175 279.194476 
L 350.628086 279.194476 
L 360.58798 279.194476 
L 369.417768 279.194476 
L 379.821613 279.194476 
L 388.998454 279.194476 
L 397.207418 279.194476 
" clip-path="url(#pcca3a7db7e)" style="fill: none; stroke: #0000ff; stroke-opacity: 0.3; stroke-linecap: square"/>
   </g>
   <g id="line2d_85">
    <path d="M 109.795397 165.950694 
L 163.80064 165.950694 
L 195.391682 195.69412 
L 217.805884 195.69412 
L 235.191689 202.308833 
L 249.396926 219.707622 
L 261.407282 232.05226 
L 280.987968 279.194476 
L 289.196932 279.194476 
L 303.402169 279.194476 
L 309.638544 279.194476 
L 320.787974 279.194476 
L 330.539822 279.194476 
L 343.202175 279.194476 
L 350.628086 279.194476 
L 360.58798 279.194476 
" clip-path="url(#pcca3a7db7e)" style="fill: none; stroke: #0000ff; stroke-opacity: 0.3; stroke-linecap: square"/>
   </g>
   <g id="LineCollection_1">
    <path d="M 109.795397 213.106036 
L 109.795397 199.979101 
" clip-path="url(#pcca3a7db7e)" style="fill: none; stroke: #000000; stroke-width: 1.5"/>
    <path d="M 163.80064 213.534157 
L 163.80064 200.420289 
" clip-path="url(#pcca3a7db7e)" style="fill: none; stroke: #000000; stroke-width: 1.5"/>
    <path d="M 195.391682 243.277584 
L 195.391682 230.163715 
" clip-path="url(#pcca3a7db7e)" style="fill: none; stroke: #000000; stroke-width: 1.5"/>
    <path d="M 217.805884 243.277584 
L 217.805884 230.163715 
" clip-path="url(#pcca3a7db7e)" style="fill: none; stroke: #000000; stroke-width: 1.5"/>
    <path d="M 235.191689 246.694708 
L 235.191689 233.993371 
" clip-path="url(#pcca3a7db7e)" style="fill: none; stroke: #000000; stroke-width: 1.5"/>
    <path d="M 249.396926 251.928955 
L 249.396926 240.820669 
" clip-path="url(#pcca3a7db7e)" style="fill: none; stroke: #000000; stroke-width: 1.5"/>
    <path d="M 261.407282 257.254135 
L 261.407282 244.945306 
" clip-path="url(#pcca3a7db7e)" style="fill: none; stroke: #000000; stroke-width: 1.5"/>
    <path d="M 280.987968 264.864122 
L 280.987968 253.362906 
" clip-path="url(#pcca3a7db7e)" style="fill: none; stroke: #000000; stroke-width: 1.5"/>
    <path d="M 289.196932 266.198946 
L 289.196932 254.999932 
" clip-path="url(#pcca3a7db7e)" style="fill: none; stroke: #000000; stroke-width: 1.5"/>
    <path d="M 303.402169 268.128721 
L 303.402169 256.27824 
" clip-path="url(#pcca3a7db7e)" style="fill: none; stroke: #000000; stroke-width: 1.5"/>
    <path d="M 309.638544 271.357687 
L 309.638544 259.636528 
" clip-path="url(#pcca3a7db7e)" style="fill: none; stroke: #000000; stroke-width: 1.5"/>
    <path d="M 320.787974 278.145152 
L 320.787974 267.654021 
" clip-path="url(#pcca3a7db7e)" style="fill: none; stroke: #000000; stroke-width: 1.5"/>
    <path d="M 330.539822 280.695145 
L 330.539822 269.39361 
" clip-path="url(#pcca3a7db7e)" style="fill: none; stroke: #000000; stroke-width: 1.5"/>
    <path d="M 343.202175 282.976341 
L 343.202175 271.53314 
" clip-path="url(#pcca3a7db7e)" style="fill: none; stroke: #000000; stroke-width: 1.5"/>
    <path d="M 350.628086 282.976341 
L 350.628086 271.53314 
" clip-path="url(#pcca3a7db7e)" style="fill: none; stroke: #000000; stroke-width: 1.5"/>
    <path d="M 360.58798 282.430714 
L 360.58798 271.95579 
" clip-path="url(#pcca3a7db7e)" style="fill: none; stroke: #000000; stroke-width: 1.5"/>
    <path d="M 369.417768 287.291934 
L 369.417768 281.406938 
" clip-path="url(#pcca3a7db7e)" style="fill: none; stroke: #000000; stroke-width: 1.5"/>
    <path d="M 379.821613 287.291934 
L 379.821613 281.406938 
" clip-path="url(#pcca3a7db7e)" style="fill: none; stroke: #000000; stroke-width: 1.5"/>
    <path d="M 388.998454 287.01802 
L 388.998454 287.01802 
" clip-path="url(#pcca3a7db7e)" style="fill: none; stroke: #000000; stroke-width: 1.5"/>
    <path d="M 397.207418 287.01802 
L 397.207418 287.01802 
" clip-path="url(#pcca3a7db7e)" style="fill: none; stroke: #000000; stroke-width: 1.5"/>
    <path d="M 406.384259 293.158577 
L 406.384259 293.158577 
" clip-path="url(#pcca3a7db7e)" style="fill: none; stroke: #000000; stroke-width: 1.5"/>
    <path d="M 414.593223 296.593265 
L 414.593223 296.593265 
" clip-path="url(#pcca3a7db7e)" style="fill: none; stroke: #000000; stroke-width: 1.5"/>
    <path d="M 423.423012 308.937902 
L 423.423012 308.937902 
" clip-path="url(#pcca3a7db7e)" style="fill: none; stroke: #000000; stroke-width: 1.5"/>
    <path d="M 431.353216 308.937902 
L 431.353216 308.937902 
" clip-path="url(#pcca3a7db7e)" style="fill: none; stroke: #000000; stroke-width: 1.5"/>
    <path d="M 439.687745 313.992054 
L 439.687745 313.992054 
" clip-path="url(#pcca3a7db7e)" style="fill: none; stroke: #000000; stroke-width: 1.5"/>
    <path d="M 448.234728 313.992054 
L 448.234728 313.992054 
" clip-path="url(#pcca3a7db7e)" style="fill: none; stroke: #000000; stroke-width: 1.5"/>
    <path d="M 456.847387 326.336691 
L 456.847387 326.336691 
" clip-path="url(#pcca3a7db7e)" style="fill: none; stroke: #000000; stroke-width: 1.5"/>
    <path d="M 464.602046 326.336691 
L 464.602046 326.336691 
" clip-path="url(#pcca3a7db7e)" style="fill: none; stroke: #000000; stroke-width: 1.5"/>
    <path d="M 473.138377 343.735481 
L 473.138377 343.735481 
" clip-path="url(#pcca3a7db7e)" style="fill: none; stroke: #000000; stroke-width: 1.5"/>
    <path clip-path="url(#pcca3a7db7e)" style="fill: none; stroke: #000000; stroke-width: 1.5"/>
    <path clip-path="url(#pcca3a7db7e)" style="fill: none; stroke: #000000; stroke-width: 1.5"/>
    <path clip-path="url(#pcca3a7db7e)" style="fill: none; stroke: #000000; stroke-width: 1.5"/>
    <path clip-path="url(#pcca3a7db7e)" style="fill: none; stroke: #000000; stroke-width: 1.5"/>
   </g>
   <g id="line2d_86">
    <defs>
     <path id="m0fedf60904" d="M 3 0 
L -3 -0 
" style="stroke: #000000"/>
    </defs>
    <g clip-path="url(#pcca3a7db7e)">
     <use xlink:href="#m0fedf60904" x="109.795397" y="213.106036" style="stroke: #000000"/>
     <use xlink:href="#m0fedf60904" x="163.80064" y="213.534157" style="stroke: #000000"/>
     <use xlink:href="#m0fedf60904" x="195.391682" y="243.277584" style="stroke: #000000"/>
     <use xlink:href="#m0fedf60904" x="217.805884" y="243.277584" style="stroke: #000000"/>
     <use xlink:href="#m0fedf60904" x="235.191689" y="246.694708" style="stroke: #000000"/>
     <use xlink:href="#m0fedf60904" x="249.396926" y="251.928955" style="stroke: #000000"/>
     <use xlink:href="#m0fedf60904" x="261.407282" y="257.254135" style="stroke: #000000"/>
     <use xlink:href="#m0fedf60904" x="280.987968" y="264.864122" style="stroke: #000000"/>
     <use xlink:href="#m0fedf60904" x="289.196932" y="266.198946" style="stroke: #000000"/>
     <use xlink:href="#m0fedf60904" x="303.402169" y="268.128721" style="stroke: #000000"/>
     <use xlink:href="#m0fedf60904" x="309.638544" y="271.357687" style="stroke: #000000"/>
     <use xlink:href="#m0fedf60904" x="320.787974" y="278.145152" style="stroke: #000000"/>
     <use xlink:href="#m0fedf60904" x="330.539822" y="280.695145" style="stroke: #000000"/>
     <use xlink:href="#m0fedf60904" x="343.202175" y="282.976341" style="stroke: #000000"/>
     <use xlink:href="#m0fedf60904" x="350.628086" y="282.976341" style="stroke: #000000"/>
     <use xlink:href="#m0fedf60904" x="360.58798" y="282.430714" style="stroke: #000000"/>
     <use xlink:href="#m0fedf60904" x="369.417768" y="287.291934" style="stroke: #000000"/>
     <use xlink:href="#m0fedf60904" x="379.821613" y="287.291934" style="stroke: #000000"/>
     <use xlink:href="#m0fedf60904" x="388.998454" y="287.01802" style="stroke: #000000"/>
     <use xlink:href="#m0fedf60904" x="397.207418" y="287.01802" style="stroke: #000000"/>
     <use xlink:href="#m0fedf60904" x="406.384259" y="293.158577" style="stroke: #000000"/>
     <use xlink:href="#m0fedf60904" x="414.593223" y="296.593265" style="stroke: #000000"/>
     <use xlink:href="#m0fedf60904" x="423.423012" y="308.937902" style="stroke: #000000"/>
     <use xlink:href="#m0fedf60904" x="431.353216" y="308.937902" style="stroke: #000000"/>
     <use xlink:href="#m0fedf60904" x="439.687745" y="313.992054" style="stroke: #000000"/>
     <use xlink:href="#m0fedf60904" x="448.234728" y="313.992054" style="stroke: #000000"/>
     <use xlink:href="#m0fedf60904" x="456.847387" y="326.336691" style="stroke: #000000"/>
     <use xlink:href="#m0fedf60904" x="464.602046" y="326.336691" style="stroke: #000000"/>
     <use xlink:href="#m0fedf60904" x="473.138377" y="343.735481" style="stroke: #000000"/>
    </g>
   </g>
   <g id="line2d_87">
    <g clip-path="url(#pcca3a7db7e)">
     <use xlink:href="#m0fedf60904" x="109.795397" y="199.979101" style="stroke: #000000"/>
     <use xlink:href="#m0fedf60904" x="163.80064" y="200.420289" style="stroke: #000000"/>
     <use xlink:href="#m0fedf60904" x="195.391682" y="230.163715" style="stroke: #000000"/>
     <use xlink:href="#m0fedf60904" x="217.805884" y="230.163715" style="stroke: #000000"/>
     <use xlink:href="#m0fedf60904" x="235.191689" y="233.993371" style="stroke: #000000"/>
     <use xlink:href="#m0fedf60904" x="249.396926" y="240.820669" style="stroke: #000000"/>
     <use xlink:href="#m0fedf60904" x="261.407282" y="244.945306" style="stroke: #000000"/>
     <use xlink:href="#m0fedf60904" x="280.987968" y="253.362906" style="stroke: #000000"/>
     <use xlink:href="#m0fedf60904" x="289.196932" y="254.999932" style="stroke: #000000"/>
     <use xlink:href="#m0fedf60904" x="303.402169" y="256.27824" style="stroke: #000000"/>
     <use xlink:href="#m0fedf60904" x="309.638544" y="259.636528" style="stroke: #000000"/>
     <use xlink:href="#m0fedf60904" x="320.787974" y="267.654021" style="stroke: #000000"/>
     <use xlink:href="#m0fedf60904" x="330.539822" y="269.39361" style="stroke: #000000"/>
     <use xlink:href="#m0fedf60904" x="343.202175" y="271.53314" style="stroke: #000000"/>
     <use xlink:href="#m0fedf60904" x="350.628086" y="271.53314" style="stroke: #000000"/>
     <use xlink:href="#m0fedf60904" x="360.58798" y="271.95579" style="stroke: #000000"/>
     <use xlink:href="#m0fedf60904" x="369.417768" y="281.406938" style="stroke: #000000"/>
     <use xlink:href="#m0fedf60904" x="379.821613" y="281.406938" style="stroke: #000000"/>
     <use xlink:href="#m0fedf60904" x="388.998454" y="287.01802" style="stroke: #000000"/>
     <use xlink:href="#m0fedf60904" x="397.207418" y="287.01802" style="stroke: #000000"/>
     <use xlink:href="#m0fedf60904" x="406.384259" y="293.158577" style="stroke: #000000"/>
     <use xlink:href="#m0fedf60904" x="414.593223" y="296.593265" style="stroke: #000000"/>
     <use xlink:href="#m0fedf60904" x="423.423012" y="308.937902" style="stroke: #000000"/>
     <use xlink:href="#m0fedf60904" x="431.353216" y="308.937902" style="stroke: #000000"/>
     <use xlink:href="#m0fedf60904" x="439.687745" y="313.992054" style="stroke: #000000"/>
     <use xlink:href="#m0fedf60904" x="448.234728" y="313.992054" style="stroke: #000000"/>
     <use xlink:href="#m0fedf60904" x="456.847387" y="326.336691" style="stroke: #000000"/>
     <use xlink:href="#m0fedf60904" x="464.602046" y="326.336691" style="stroke: #000000"/>
     <use xlink:href="#m0fedf60904" x="473.138377" y="343.735481" style="stroke: #000000"/>
    </g>
   </g>
   <g id="line2d_88">
    <path d="M 109.795397 206.042552 
L 143.189468 200.365552 
L 166.489773 208.046678 
L 184.402444 224.060785 
L 198.956956 238.734966 
L 211.21584 238.606372 
L 221.80556 235.766556 
L 231.126666 238.017266 
L 239.450849 241.833202 
L 246.970904 245.044383 
L 265.961942 252.569993 
L 276.4579 257.121094 
L 281.21925 258.797543 
L 285.70631 259.80907 
L 289.948969 260.294455 
L 297.79838 260.719803 
L 301.445168 261.249585 
L 304.928871 262.401124 
L 308.263452 264.209462 
L 311.461155 266.348812 
L 317.487882 270.633768 
L 320.334989 272.351995 
L 323.081715 273.493503 
L 325.734896 274.124283 
L 335.527012 275.464928 
L 342.139617 276.729023 
L 344.224722 276.981217 
L 346.255476 277.092141 
L 348.234642 277.070237 
L 352.048248 276.679562 
L 355.683867 276.196716 
L 357.439977 276.159005 
L 359.157376 276.389323 
L 360.837735 276.993176 
L 362.482616 278.02311 
L 364.093489 279.369592 
L 368.735423 283.753605 
L 370.223246 284.710484 
L 371.68319 285.220163 
L 373.11628 285.366127 
L 374.523485 285.24879 
L 379.911135 284.247032 
L 381.201784 284.343567 
L 382.471402 284.626453 
L 384.950206 285.535099 
L 387.352573 286.527822 
L 388.526538 286.906754 
L 389.683076 287.127587 
L 391.945889 287.144588 
L 395.221465 286.85817 
L 396.28342 286.880996 
L 397.331094 287.04688 
L 398.364868 287.388497 
L 399.385105 287.885119 
L 401.386354 289.223211 
L 406.175516 293.026096 
L 408.011686 293.976585 
L 409.805577 294.567604 
L 412.42127 295.360268 
L 413.274011 295.740161 
L 414.11752 296.240045 
L 414.951994 296.899631 
L 415.777626 297.731577 
L 417.403097 299.819523 
L 418.995348 302.292255 
L 422.085435 307.291469 
L 422.83918 308.294102 
L 423.585703 309.092226 
L 424.325142 309.652877 
L 425.057628 309.995955 
L 425.783292 310.152207 
L 426.50226 310.155625 
L 427.920593 309.848387 
L 430.682075 308.995271 
L 431.357419 308.937916 
L 432.02696 309.003266 
L 433.349023 309.460996 
L 434.649026 310.248266 
L 436.559244 311.763601 
L 438.423748 313.255051 
L 439.642414 313.972259 
L 440.842312 314.310562 
L 442.024011 314.328287 
L 443.76362 314.012339 
L 446.024279 313.577722 
L 447.130477 313.617208 
L 448.22119 313.984853 
L 449.296844 314.773489 
L 450.35785 315.940703 
L 451.404601 317.408389 
L 452.948823 319.988472 
L 455.948374 325.182145 
L 456.9231 326.416566 
L 457.885783 327.179386 
L 458.836715 327.517839 
L 459.776181 327.526707 
L 460.704454 327.310169 
L 463.868988 326.304543 
L 464.750024 326.368641 
L 465.62121 326.743163 
L 466.482761 327.423197 
L 467.33489 328.397268 
L 468.1778 329.658638 
L 469.011689 331.204738 
L 470.246022 334.061522 
L 471.461105 337.582386 
L 472.657529 341.806028 
L 473.835859 346.790805 
L 474.996633 352.598745 
L 476.140367 359.28842 
L 477.639688 369.665135 
L 479.110701 381.683523 
L 482.322319 409.601528 
L 483.018384 413.757827 
L 483.708286 416.543581 
L 484.050959 417.396858 
L 484.392132 417.89708 
L 484.731818 418.061832 
L 485.070029 417.917303 
L 485.406778 417.496362 
L 486.075941 415.976923 
L 487.069031 412.595058 
L 489.338171 404.105944 
L 490.290787 401.62506 
L 490.919454 400.481224 
L 491.54309 399.678734 
L 492.161773 399.172681 
L 492.775582 398.926458 
L 493.384594 398.909299 
L 493.988882 399.094487 
L 494.886616 399.699578 
L 495.774123 400.631016 
L 496.941957 402.25299 
L 498.944469 405.593707 
L 500.343965 407.785769 
L 501.171753 408.758314 
L 501.718766 409.181898 
L 502.261965 409.37975 
L 502.801403 409.315177 
L 503.337132 408.956081 
L 503.869202 408.277013 
L 504.397664 407.260933 
L 505.183695 405.091453 
L 505.703345 403.222334 
L 505.703345 403.222334 
" clip-path="url(#pcca3a7db7e)" style="fill: none; stroke-dasharray: 7.4,3.2; stroke-dashoffset: 0; stroke: #008000; stroke-width: 2"/>
   </g>
   <g id="line2d_89">
    <path d="M 109.795397 246.635383 
L 166.489773 247.047646 
L 211.21584 247.673564 
L 239.450849 248.308747 
L 265.961942 249.170553 
L 285.70631 250.050022 
L 301.445168 250.947895 
L 317.487882 252.097318 
L 330.784687 253.27838 
L 342.139617 254.492871 
L 352.048248 255.742739 
L 362.482616 257.292281 
L 371.68319 258.899882 
L 379.911135 260.570062 
L 387.352573 262.307891 
L 394.144835 264.119081 
L 400.392155 266.0101 
L 406.175516 267.988311 
L 411.559093 270.062146 
L 416.5946 272.241319 
L 421.324327 274.537108 
L 425.783292 276.962702 
L 430.000826 279.533666 
L 434.001736 282.268539 
L 437.185716 284.688783 
L 440.244673 287.253736 
L 443.188055 289.981808 
L 446.024279 292.895166 
L 448.760873 296.020823 
L 451.404601 299.392169 
L 453.961559 303.05115 
L 456.437262 307.051461 
L 458.3627 310.543976 
L 460.2417 314.346136 
L 462.076451 318.518235 
L 463.868988 323.1401 
L 465.62121 328.320549 
L 467.33489 334.213406 
L 468.59586 339.233416 
L 469.836746 344.919485 
L 471.058179 351.475793 
L 472.260759 359.217704 
L 473.445059 368.67079 
L 474.224708 376.372521 
L 474.996633 385.765693 
L 475.760984 397.808581 
L 476.517911 414.610165 
L 477.046342 433 
L 477.046342 433 
" clip-path="url(#pcca3a7db7e)" style="fill: none; stroke-dasharray: 7.4,3.2; stroke-dashoffset: 0; stroke: #008000; stroke-width: 2"/>
   </g>
   <g id="line2d_90">
    <defs>
     <path id="m06051cd547" d="M 0 3 
C 0.795609 3 1.55874 2.683901 2.12132 2.12132 
C 2.683901 1.55874 3 0.795609 3 0 
C 3 -0.795609 2.683901 -1.55874 2.12132 -2.12132 
C 1.55874 -2.683901 0.795609 -3 0 -3 
C -0.795609 -3 -1.55874 -2.683901 -2.12132 -2.12132 
C -2.683901 -1.55874 -3 -0.795609 -3 0 
C -3 0.795609 -2.683901 1.55874 -2.12132 2.12132 
C -1.55874 2.683901 -0.795609 3 0 3 
z
" style="stroke: #0000ff"/>
    </defs>
    <g clip-path="url(#pcca3a7db7e)">
     <use xlink:href="#m06051cd547" x="109.795397" y="206.042552" style="fill: #0000ff; stroke: #0000ff"/>
     <use xlink:href="#m06051cd547" x="163.80064" y="206.478197" style="fill: #0000ff; stroke: #0000ff"/>
     <use xlink:href="#m06051cd547" x="195.391682" y="236.221624" style="fill: #0000ff; stroke: #0000ff"/>
     <use xlink:href="#m06051cd547" x="217.805884" y="236.221624" style="fill: #0000ff; stroke: #0000ff"/>
     <use xlink:href="#m06051cd547" x="235.191689" y="239.875804" style="fill: #0000ff; stroke: #0000ff"/>
     <use xlink:href="#m06051cd547" x="249.396926" y="246.016361" style="fill: #0000ff; stroke: #0000ff"/>
     <use xlink:href="#m06051cd547" x="261.407282" y="250.659881" style="fill: #0000ff; stroke: #0000ff"/>
     <use xlink:href="#m06051cd547" x="280.987968" y="258.729333" style="fill: #0000ff; stroke: #0000ff"/>
     <use xlink:href="#m06051cd547" x="289.196932" y="260.235125" style="fill: #0000ff; stroke: #0000ff"/>
     <use xlink:href="#m06051cd547" x="303.402169" y="261.795686" style="fill: #0000ff; stroke: #0000ff"/>
     <use xlink:href="#m06051cd547" x="309.638544" y="265.098138" style="fill: #0000ff; stroke: #0000ff"/>
     <use xlink:href="#m06051cd547" x="320.787974" y="272.579763" style="fill: #0000ff; stroke: #0000ff"/>
     <use xlink:href="#m06051cd547" x="330.539822" y="274.673383" style="fill: #0000ff; stroke: #0000ff"/>
     <use xlink:href="#m06051cd547" x="343.202175" y="276.874414" style="fill: #0000ff; stroke: #0000ff"/>
     <use xlink:href="#m06051cd547" x="350.628086" y="276.874414" style="fill: #0000ff; stroke: #0000ff"/>
     <use xlink:href="#m06051cd547" x="360.58798" y="276.874414" style="fill: #0000ff; stroke: #0000ff"/>
     <use xlink:href="#m06051cd547" x="369.417768" y="284.248627" style="fill: #0000ff; stroke: #0000ff"/>
     <use xlink:href="#m06051cd547" x="379.821613" y="284.248627" style="fill: #0000ff; stroke: #0000ff"/>
     <use xlink:href="#m06051cd547" x="388.998454" y="287.01802" style="fill: #0000ff; stroke: #0000ff"/>
     <use xlink:href="#m06051cd547" x="397.207418" y="287.01802" style="fill: #0000ff; stroke: #0000ff"/>
     <use xlink:href="#m06051cd547" x="406.384259" y="293.158577" style="fill: #0000ff; stroke: #0000ff"/>
     <use xlink:href="#m06051cd547" x="414.593223" y="296.593265" style="fill: #0000ff; stroke: #0000ff"/>
     <use xlink:href="#m06051cd547" x="423.423012" y="308.937902" style="fill: #0000ff; stroke: #0000ff"/>
     <use xlink:href="#m06051cd547" x="431.353216" y="308.937902" style="fill: #0000ff; stroke: #0000ff"/>
     <use xlink:href="#m06051cd547" x="439.687745" y="313.992054" style="fill: #0000ff; stroke: #0000ff"/>
     <use xlink:href="#m06051cd547" x="448.234728" y="313.992054" style="fill: #0000ff; stroke: #0000ff"/>
     <use xlink:href="#m06051cd547" x="456.847387" y="326.336691" style="fill: #0000ff; stroke: #0000ff"/>
     <use xlink:href="#m06051cd547" x="464.602046" y="326.336691" style="fill: #0000ff; stroke: #0000ff"/>
     <use xlink:href="#m06051cd547" x="473.138377" y="343.735481" style="fill: #0000ff; stroke: #0000ff"/>
     <use xlink:href="#m06051cd547" x="481.494208" y="403.222334" style="fill: #0000ff; stroke: #0000ff"/>
     <use xlink:href="#m06051cd547" x="489.637116" y="403.222334" style="fill: #0000ff; stroke: #0000ff"/>
     <use xlink:href="#m06051cd547" x="497.548133" y="403.222334" style="fill: #0000ff; stroke: #0000ff"/>
     <use xlink:href="#m06051cd547" x="505.703345" y="403.222334" style="fill: #0000ff; stroke: #0000ff"/>
    </g>
   </g>
   <g id="patch_3">
    <path d="M 90 378 
L 90 51.84 
" style="fill: none; stroke: #000000; stroke-width: 0.8; stroke-linejoin: miter; stroke-linecap: square"/>
   </g>
   <g id="patch_4">
    <path d="M 648 378 
L 648 51.84 
" style="fill: none; stroke: #000000; stroke-width: 0.8; stroke-linejoin: miter; stroke-linecap: square"/>
   </g>
   <g id="patch_5">
    <path d="M 90 378 
L 648 378 
" style="fill: none; stroke: #000000; stroke-width: 0.8; stroke-linejoin: miter; stroke-linecap: square"/>
   </g>
   <g id="patch_6">
    <path d="M 90 51.84 
L 648 51.84 
" style="fill: none; stroke: #000000; stroke-width: 0.8; stroke-linejoin: miter; stroke-linecap: square"/>
   </g>
   <g id="text_11">
    <!-- Average Pellet Count vs Price Paid by Subject -->
    <g transform="translate(233.11875 45.84)scale(0.12 -0.12)">
     <defs>
      <path id="DejaVuSans-73" d="M 2834 3397 
L 2834 2853 
Q 2591 2978 2328 3040 
Q 2066 3103 1784 3103 
Q 1356 3103 1142 2972 
Q 928 2841 928 2578 
Q 928 2378 1081 2264 
Q 1234 2150 1697 2047 
L 1894 2003 
Q 2506 1872 2764 1633 
Q 3022 1394 3022 966 
Q 3022 478 2636 193 
Q 2250 -91 1575 -91 
Q 1294 -91 989 -36 
Q 684 19 347 128 
L 347 722 
Q 666 556 975 473 
Q 1284 391 1588 391 
Q 1994 391 2212 530 
Q 2431 669 2431 922 
Q 2431 1156 2273 1281 
Q 2116 1406 1581 1522 
L 1381 1569 
Q 847 1681 609 1914 
Q 372 2147 372 2553 
Q 372 3047 722 3315 
Q 1072 3584 1716 3584 
Q 2034 3584 2315 3537 
Q 2597 3491 2834 3397 
z
" transform="scale(0.015625)"/>
      <path id="DejaVuSans-62" d="M 3116 1747 
Q 3116 2381 2855 2742 
Q 2594 3103 2138 3103 
Q 1681 3103 1420 2742 
Q 1159 2381 1159 1747 
Q 1159 1113 1420 752 
Q 1681 391 2138 391 
Q 2594 391 2855 752 
Q 3116 1113 3116 1747 
z
M 1159 2969 
Q 1341 3281 1617 3432 
Q 1894 3584 2278 3584 
Q 2916 3584 3314 3078 
Q 3713 2572 3713 1747 
Q 3713 922 3314 415 
Q 2916 -91 2278 -91 
Q 1894 -91 1617 61 
Q 1341 213 1159 525 
L 1159 0 
L 581 0 
L 581 4863 
L 1159 4863 
L 1159 2969 
z
" transform="scale(0.015625)"/>
      <path id="DejaVuSans-79" d="M 2059 -325 
Q 1816 -950 1584 -1140 
Q 1353 -1331 966 -1331 
L 506 -1331 
L 506 -850 
L 844 -850 
Q 1081 -850 1212 -737 
Q 1344 -625 1503 -206 
L 1606 56 
L 191 3500 
L 800 3500 
L 1894 763 
L 2988 3500 
L 3597 3500 
L 2059 -325 
z
" transform="scale(0.015625)"/>
      <path id="DejaVuSans-53" d="M 3425 4513 
L 3425 3897 
Q 3066 4069 2747 4153 
Q 2428 4238 2131 4238 
Q 1616 4238 1336 4038 
Q 1056 3838 1056 3469 
Q 1056 3159 1242 3001 
Q 1428 2844 1947 2747 
L 2328 2669 
Q 3034 2534 3370 2195 
Q 3706 1856 3706 1288 
Q 3706 609 3251 259 
Q 2797 -91 1919 -91 
Q 1588 -91 1214 -16 
Q 841 59 441 206 
L 441 856 
Q 825 641 1194 531 
Q 1563 422 1919 422 
Q 2459 422 2753 634 
Q 3047 847 3047 1241 
Q 3047 1584 2836 1778 
Q 2625 1972 2144 2069 
L 1759 2144 
Q 1053 2284 737 2584 
Q 422 2884 422 3419 
Q 422 4038 858 4394 
Q 1294 4750 2059 4750 
Q 2388 4750 2728 4690 
Q 3069 4631 3425 4513 
z
" transform="scale(0.015625)"/>
      <path id="DejaVuSans-6a" d="M 603 3500 
L 1178 3500 
L 1178 -63 
Q 1178 -731 923 -1031 
Q 669 -1331 103 -1331 
L -116 -1331 
L -116 -844 
L 38 -844 
Q 366 -844 484 -692 
Q 603 -541 603 -63 
L 603 3500 
z
M 603 4863 
L 1178 4863 
L 1178 4134 
L 603 4134 
L 603 4863 
z
" transform="scale(0.015625)"/>
     </defs>
     <use xlink:href="#DejaVuSans-41"/>
     <use xlink:href="#DejaVuSans-76" x="62.533203"/>
     <use xlink:href="#DejaVuSans-65" x="121.712891"/>
     <use xlink:href="#DejaVuSans-72" x="183.236328"/>
     <use xlink:href="#DejaVuSans-61" x="224.349609"/>
     <use xlink:href="#DejaVuSans-67" x="285.628906"/>
     <use xlink:href="#DejaVuSans-65" x="349.105469"/>
     <use xlink:href="#DejaVuSans-20" x="410.628906"/>
     <use xlink:href="#DejaVuSans-50" x="442.416016"/>
     <use xlink:href="#DejaVuSans-65" x="499.09375"/>
     <use xlink:href="#DejaVuSans-6c" x="560.617188"/>
     <use xlink:href="#DejaVuSans-6c" x="588.400391"/>
     <use xlink:href="#DejaVuSans-65" x="616.183594"/>
     <use xlink:href="#DejaVuSans-74" x="677.707031"/>
     <use xlink:href="#DejaVuSans-20" x="716.916016"/>
     <use xlink:href="#DejaVuSans-43" x="748.703125"/>
     <use xlink:href="#DejaVuSans-6f" x="818.527344"/>
     <use xlink:href="#DejaVuSans-75" x="879.708984"/>
     <use xlink:href="#DejaVuSans-6e" x="943.087891"/>
     <use xlink:href="#DejaVuSans-74" x="1006.466797"/>
     <use xlink:href="#DejaVuSans-20" x="1045.675781"/>
     <use xlink:href="#DejaVuSans-76" x="1077.462891"/>
     <use xlink:href="#DejaVuSans-73" x="1136.642578"/>
     <use xlink:href="#DejaVuSans-20" x="1188.742188"/>
     <use xlink:href="#DejaVuSans-50" x="1220.529297"/>
     <use xlink:href="#DejaVuSans-72" x="1279.082031"/>
     <use xlink:href="#DejaVuSans-69" x="1320.195312"/>
     <use xlink:href="#DejaVuSans-63" x="1347.978516"/>
     <use xlink:href="#DejaVuSans-65" x="1402.958984"/>
     <use xlink:href="#DejaVuSans-20" x="1464.482422"/>
     <use xlink:href="#DejaVuSans-50" x="1496.269531"/>
     <use xlink:href="#DejaVuSans-61" x="1552.072266"/>
     <use xlink:href="#DejaVuSans-69" x="1613.351562"/>
     <use xlink:href="#DejaVuSans-64" x="1641.134766"/>
     <use xlink:href="#DejaVuSans-20" x="1704.611328"/>
     <use xlink:href="#DejaVuSans-62" x="1736.398438"/>
     <use xlink:href="#DejaVuSans-79" x="1799.875"/>
     <use xlink:href="#DejaVuSans-20" x="1859.054688"/>
     <use xlink:href="#DejaVuSans-53" x="1890.841797"/>
     <use xlink:href="#DejaVuSans-75" x="1954.318359"/>
     <use xlink:href="#DejaVuSans-62" x="2017.697266"/>
     <use xlink:href="#DejaVuSans-6a" x="2081.173828"/>
     <use xlink:href="#DejaVuSans-65" x="2108.957031"/>
     <use xlink:href="#DejaVuSans-63" x="2170.480469"/>
     <use xlink:href="#DejaVuSans-74" x="2225.460938"/>
    </g>
   </g>
  </g>
 </g>
 <defs>
  <clipPath id="pcca3a7db7e">
   <rect x="90" y="51.84" width="558" height="326.16"/>
  </clipPath>
 </defs>
</svg>
