<?xml version="1.0" encoding="utf-8" standalone="no"?>
<!DOCTYPE svg PUBLIC "-//W3C//DTD SVG 1.1//EN"
  "http://www.w3.org/Graphics/SVG/1.1/DTD/svg11.dtd">
<svg xmlns:xlink="http://www.w3.org/1999/xlink" width="720pt" height="432pt" viewBox="0 0 720 432" xmlns="http://www.w3.org/2000/svg" version="1.1">
 <metadata>
  <rdf:RDF xmlns:dc="http://purl.org/dc/elements/1.1/" xmlns:cc="http://creativecommons.org/ns#" xmlns:rdf="http://www.w3.org/1999/02/22-rdf-syntax-ns#">
   <cc:Work>
    <dc:type rdf:resource="http://purl.org/dc/dcmitype/StillImage"/>
    <dc:date>2025-01-25T16:06:48.673259</dc:date>
    <dc:format>image/svg+xml</dc:format>
    <dc:creator>
     <cc:Agent>
      <dc:title>Matplotlib v3.5.1, https://matplotlib.org/</dc:title>
     </cc:Agent>
    </dc:creator>
   </cc:Work>
  </rdf:RDF>
 </metadata>
 <defs>
  <style type="text/css">*{stroke-linejoin: round; stroke-linecap: butt}</style>
 </defs>
 <g id="figure_1">
  <g id="patch_1">
   <path d="M 0 432 
L 720 432 
L 720 0 
L 0 0 
z
" style="fill: #ffffff"/>
  </g>
  <g id="axes_1">
   <g id="patch_2">
    <path d="M 90 378 
L 648 378 
L 648 51.84 
L 90 51.84 
z
" style="fill: #ffffff"/>
   </g>
   <g id="matplotlib.axis_1">
    <g id="xtick_1">
     <g id="line2d_1">
      <path d="M 90 378 
L 90 51.84 
" clip-path="url(#p0f446b6713)" style="fill: none; stroke: #b0b0b0; stroke-width: 0.8; stroke-linecap: square"/>
     </g>
     <g id="line2d_2">
      <defs>
       <path id="mc9d9d535da" d="M 0 0 
L 0 3.5 
" style="stroke: #000000; stroke-width: 0.8"/>
      </defs>
      <g>
       <use xlink:href="#mc9d9d535da" x="90" y="378" style="stroke: #000000; stroke-width: 0.8"/>
      </g>
     </g>
     <g id="text_1">
      <!-- 0 -->
      <g transform="translate(86.81875 392.598437)scale(0.1 -0.1)">
       <defs>
        <path id="DejaVuSans-30" d="M 2034 4250 
Q 1547 4250 1301 3770 
Q 1056 3291 1056 2328 
Q 1056 1369 1301 889 
Q 1547 409 2034 409 
Q 2525 409 2770 889 
Q 3016 1369 3016 2328 
Q 3016 3291 2770 3770 
Q 2525 4250 2034 4250 
z
M 2034 4750 
Q 2819 4750 3233 4129 
Q 3647 3509 3647 2328 
Q 3647 1150 3233 529 
Q 2819 -91 2034 -91 
Q 1250 -91 836 529 
Q 422 1150 422 2328 
Q 422 3509 836 4129 
Q 1250 4750 2034 4750 
z
" transform="scale(0.015625)"/>
       </defs>
       <use xlink:href="#DejaVuSans-30"/>
      </g>
     </g>
    </g>
    <g id="xtick_2">
     <g id="line2d_3">
      <path d="M 159.75 378 
L 159.75 51.84 
" clip-path="url(#p0f446b6713)" style="fill: none; stroke: #b0b0b0; stroke-width: 0.8; stroke-linecap: square"/>
     </g>
     <g id="line2d_4">
      <g>
       <use xlink:href="#mc9d9d535da" x="159.75" y="378" style="stroke: #000000; stroke-width: 0.8"/>
      </g>
     </g>
     <g id="text_2">
      <!-- 5 -->
      <g transform="translate(156.56875 392.598437)scale(0.1 -0.1)">
       <defs>
        <path id="DejaVuSans-35" d="M 691 4666 
L 3169 4666 
L 3169 4134 
L 1269 4134 
L 1269 2991 
Q 1406 3038 1543 3061 
Q 1681 3084 1819 3084 
Q 2600 3084 3056 2656 
Q 3513 2228 3513 1497 
Q 3513 744 3044 326 
Q 2575 -91 1722 -91 
Q 1428 -91 1123 -41 
Q 819 9 494 109 
L 494 744 
Q 775 591 1075 516 
Q 1375 441 1709 441 
Q 2250 441 2565 725 
Q 2881 1009 2881 1497 
Q 2881 1984 2565 2268 
Q 2250 2553 1709 2553 
Q 1456 2553 1204 2497 
Q 953 2441 691 2322 
L 691 4666 
z
" transform="scale(0.015625)"/>
       </defs>
       <use xlink:href="#DejaVuSans-35"/>
      </g>
     </g>
    </g>
    <g id="xtick_3">
     <g id="line2d_5">
      <path d="M 229.5 378 
L 229.5 51.84 
" clip-path="url(#p0f446b6713)" style="fill: none; stroke: #b0b0b0; stroke-width: 0.8; stroke-linecap: square"/>
     </g>
     <g id="line2d_6">
      <g>
       <use xlink:href="#mc9d9d535da" x="229.5" y="378" style="stroke: #000000; stroke-width: 0.8"/>
      </g>
     </g>
     <g id="text_3">
      <!-- 10 -->
      <g transform="translate(223.1375 392.598437)scale(0.1 -0.1)">
       <defs>
        <path id="DejaVuSans-31" d="M 794 531 
L 1825 531 
L 1825 4091 
L 703 3866 
L 703 4441 
L 1819 4666 
L 2450 4666 
L 2450 531 
L 3481 531 
L 3481 0 
L 794 0 
L 794 531 
z
" transform="scale(0.015625)"/>
       </defs>
       <use xlink:href="#DejaVuSans-31"/>
       <use xlink:href="#DejaVuSans-30" x="63.623047"/>
      </g>
     </g>
    </g>
    <g id="xtick_4">
     <g id="line2d_7">
      <path d="M 299.25 378 
L 299.25 51.84 
" clip-path="url(#p0f446b6713)" style="fill: none; stroke: #b0b0b0; stroke-width: 0.8; stroke-linecap: square"/>
     </g>
     <g id="line2d_8">
      <g>
       <use xlink:href="#mc9d9d535da" x="299.25" y="378" style="stroke: #000000; stroke-width: 0.8"/>
      </g>
     </g>
     <g id="text_4">
      <!-- 15 -->
      <g transform="translate(292.8875 392.598437)scale(0.1 -0.1)">
       <use xlink:href="#DejaVuSans-31"/>
       <use xlink:href="#DejaVuSans-35" x="63.623047"/>
      </g>
     </g>
    </g>
    <g id="xtick_5">
     <g id="line2d_9">
      <path d="M 369 378 
L 369 51.84 
" clip-path="url(#p0f446b6713)" style="fill: none; stroke: #b0b0b0; stroke-width: 0.8; stroke-linecap: square"/>
     </g>
     <g id="line2d_10">
      <g>
       <use xlink:href="#mc9d9d535da" x="369" y="378" style="stroke: #000000; stroke-width: 0.8"/>
      </g>
     </g>
     <g id="text_5">
      <!-- 20 -->
      <g transform="translate(362.6375 392.598437)scale(0.1 -0.1)">
       <defs>
        <path id="DejaVuSans-32" d="M 1228 531 
L 3431 531 
L 3431 0 
L 469 0 
L 469 531 
Q 828 903 1448 1529 
Q 2069 2156 2228 2338 
Q 2531 2678 2651 2914 
Q 2772 3150 2772 3378 
Q 2772 3750 2511 3984 
Q 2250 4219 1831 4219 
Q 1534 4219 1204 4116 
Q 875 4013 500 3803 
L 500 4441 
Q 881 4594 1212 4672 
Q 1544 4750 1819 4750 
Q 2544 4750 2975 4387 
Q 3406 4025 3406 3419 
Q 3406 3131 3298 2873 
Q 3191 2616 2906 2266 
Q 2828 2175 2409 1742 
Q 1991 1309 1228 531 
z
" transform="scale(0.015625)"/>
       </defs>
       <use xlink:href="#DejaVuSans-32"/>
       <use xlink:href="#DejaVuSans-30" x="63.623047"/>
      </g>
     </g>
    </g>
    <g id="xtick_6">
     <g id="line2d_11">
      <path d="M 438.75 378 
L 438.75 51.84 
" clip-path="url(#p0f446b6713)" style="fill: none; stroke: #b0b0b0; stroke-width: 0.8; stroke-linecap: square"/>
     </g>
     <g id="line2d_12">
      <g>
       <use xlink:href="#mc9d9d535da" x="438.75" y="378" style="stroke: #000000; stroke-width: 0.8"/>
      </g>
     </g>
     <g id="text_6">
      <!-- 25 -->
      <g transform="translate(432.3875 392.598437)scale(0.1 -0.1)">
       <use xlink:href="#DejaVuSans-32"/>
       <use xlink:href="#DejaVuSans-35" x="63.623047"/>
      </g>
     </g>
    </g>
    <g id="xtick_7">
     <g id="line2d_13">
      <path d="M 508.5 378 
L 508.5 51.84 
" clip-path="url(#p0f446b6713)" style="fill: none; stroke: #b0b0b0; stroke-width: 0.8; stroke-linecap: square"/>
     </g>
     <g id="line2d_14">
      <g>
       <use xlink:href="#mc9d9d535da" x="508.5" y="378" style="stroke: #000000; stroke-width: 0.8"/>
      </g>
     </g>
     <g id="text_7">
      <!-- 30 -->
      <g transform="translate(502.1375 392.598437)scale(0.1 -0.1)">
       <defs>
        <path id="DejaVuSans-33" d="M 2597 2516 
Q 3050 2419 3304 2112 
Q 3559 1806 3559 1356 
Q 3559 666 3084 287 
Q 2609 -91 1734 -91 
Q 1441 -91 1130 -33 
Q 819 25 488 141 
L 488 750 
Q 750 597 1062 519 
Q 1375 441 1716 441 
Q 2309 441 2620 675 
Q 2931 909 2931 1356 
Q 2931 1769 2642 2001 
Q 2353 2234 1838 2234 
L 1294 2234 
L 1294 2753 
L 1863 2753 
Q 2328 2753 2575 2939 
Q 2822 3125 2822 3475 
Q 2822 3834 2567 4026 
Q 2313 4219 1838 4219 
Q 1578 4219 1281 4162 
Q 984 4106 628 3988 
L 628 4550 
Q 988 4650 1302 4700 
Q 1616 4750 1894 4750 
Q 2613 4750 3031 4423 
Q 3450 4097 3450 3541 
Q 3450 3153 3228 2886 
Q 3006 2619 2597 2516 
z
" transform="scale(0.015625)"/>
       </defs>
       <use xlink:href="#DejaVuSans-33"/>
       <use xlink:href="#DejaVuSans-30" x="63.623047"/>
      </g>
     </g>
    </g>
    <g id="xtick_8">
     <g id="line2d_15">
      <path d="M 578.25 378 
L 578.25 51.84 
" clip-path="url(#p0f446b6713)" style="fill: none; stroke: #b0b0b0; stroke-width: 0.8; stroke-linecap: square"/>
     </g>
     <g id="line2d_16">
      <g>
       <use xlink:href="#mc9d9d535da" x="578.25" y="378" style="stroke: #000000; stroke-width: 0.8"/>
      </g>
     </g>
     <g id="text_8">
      <!-- 35 -->
      <g transform="translate(571.8875 392.598437)scale(0.1 -0.1)">
       <use xlink:href="#DejaVuSans-33"/>
       <use xlink:href="#DejaVuSans-35" x="63.623047"/>
      </g>
     </g>
    </g>
    <g id="xtick_9">
     <g id="line2d_17">
      <path d="M 648 378 
L 648 51.84 
" clip-path="url(#p0f446b6713)" style="fill: none; stroke: #b0b0b0; stroke-width: 0.8; stroke-linecap: square"/>
     </g>
     <g id="line2d_18">
      <g>
       <use xlink:href="#mc9d9d535da" x="648" y="378" style="stroke: #000000; stroke-width: 0.8"/>
      </g>
     </g>
     <g id="text_9">
      <!-- 40 -->
      <g transform="translate(641.6375 392.598437)scale(0.1 -0.1)">
       <defs>
        <path id="DejaVuSans-34" d="M 2419 4116 
L 825 1625 
L 2419 1625 
L 2419 4116 
z
M 2253 4666 
L 3047 4666 
L 3047 1625 
L 3713 1625 
L 3713 1100 
L 3047 1100 
L 3047 0 
L 2419 0 
L 2419 1100 
L 313 1100 
L 313 1709 
L 2253 4666 
z
" transform="scale(0.015625)"/>
       </defs>
       <use xlink:href="#DejaVuSans-34"/>
       <use xlink:href="#DejaVuSans-30" x="63.623047"/>
      </g>
     </g>
    </g>
    <g id="text_10">
     <!-- Price Paid -->
     <g transform="translate(344.796094 406.276563)scale(0.1 -0.1)">
      <defs>
       <path id="DejaVuSans-50" d="M 1259 4147 
L 1259 2394 
L 2053 2394 
Q 2494 2394 2734 2622 
Q 2975 2850 2975 3272 
Q 2975 3691 2734 3919 
Q 2494 4147 2053 4147 
L 1259 4147 
z
M 628 4666 
L 2053 4666 
Q 2838 4666 3239 4311 
Q 3641 3956 3641 3272 
Q 3641 2581 3239 2228 
Q 2838 1875 2053 1875 
L 1259 1875 
L 1259 0 
L 628 0 
L 628 4666 
z
" transform="scale(0.015625)"/>
       <path id="DejaVuSans-72" d="M 2631 2963 
Q 2534 3019 2420 3045 
Q 2306 3072 2169 3072 
Q 1681 3072 1420 2755 
Q 1159 2438 1159 1844 
L 1159 0 
L 581 0 
L 581 3500 
L 1159 3500 
L 1159 2956 
Q 1341 3275 1631 3429 
Q 1922 3584 2338 3584 
Q 2397 3584 2469 3576 
Q 2541 3569 2628 3553 
L 2631 2963 
z
" transform="scale(0.015625)"/>
       <path id="DejaVuSans-69" d="M 603 3500 
L 1178 3500 
L 1178 0 
L 603 0 
L 603 3500 
z
M 603 4863 
L 1178 4863 
L 1178 4134 
L 603 4134 
L 603 4863 
z
" transform="scale(0.015625)"/>
       <path id="DejaVuSans-63" d="M 3122 3366 
L 3122 2828 
Q 2878 2963 2633 3030 
Q 2388 3097 2138 3097 
Q 1578 3097 1268 2742 
Q 959 2388 959 1747 
Q 959 1106 1268 751 
Q 1578 397 2138 397 
Q 2388 397 2633 464 
Q 2878 531 3122 666 
L 3122 134 
Q 2881 22 2623 -34 
Q 2366 -91 2075 -91 
Q 1284 -91 818 406 
Q 353 903 353 1747 
Q 353 2603 823 3093 
Q 1294 3584 2113 3584 
Q 2378 3584 2631 3529 
Q 2884 3475 3122 3366 
z
" transform="scale(0.015625)"/>
       <path id="DejaVuSans-65" d="M 3597 1894 
L 3597 1613 
L 953 1613 
Q 991 1019 1311 708 
Q 1631 397 2203 397 
Q 2534 397 2845 478 
Q 3156 559 3463 722 
L 3463 178 
Q 3153 47 2828 -22 
Q 2503 -91 2169 -91 
Q 1331 -91 842 396 
Q 353 884 353 1716 
Q 353 2575 817 3079 
Q 1281 3584 2069 3584 
Q 2775 3584 3186 3129 
Q 3597 2675 3597 1894 
z
M 3022 2063 
Q 3016 2534 2758 2815 
Q 2500 3097 2075 3097 
Q 1594 3097 1305 2825 
Q 1016 2553 972 2059 
L 3022 2063 
z
" transform="scale(0.015625)"/>
       <path id="DejaVuSans-20" transform="scale(0.015625)"/>
       <path id="DejaVuSans-61" d="M 2194 1759 
Q 1497 1759 1228 1600 
Q 959 1441 959 1056 
Q 959 750 1161 570 
Q 1363 391 1709 391 
Q 2188 391 2477 730 
Q 2766 1069 2766 1631 
L 2766 1759 
L 2194 1759 
z
M 3341 1997 
L 3341 0 
L 2766 0 
L 2766 531 
Q 2569 213 2275 61 
Q 1981 -91 1556 -91 
Q 1019 -91 701 211 
Q 384 513 384 1019 
Q 384 1609 779 1909 
Q 1175 2209 1959 2209 
L 2766 2209 
L 2766 2266 
Q 2766 2663 2505 2880 
Q 2244 3097 1772 3097 
Q 1472 3097 1187 3025 
Q 903 2953 641 2809 
L 641 3341 
Q 956 3463 1253 3523 
Q 1550 3584 1831 3584 
Q 2591 3584 2966 3190 
Q 3341 2797 3341 1997 
z
" transform="scale(0.015625)"/>
       <path id="DejaVuSans-64" d="M 2906 2969 
L 2906 4863 
L 3481 4863 
L 3481 0 
L 2906 0 
L 2906 525 
Q 2725 213 2448 61 
Q 2172 -91 1784 -91 
Q 1150 -91 751 415 
Q 353 922 353 1747 
Q 353 2572 751 3078 
Q 1150 3584 1784 3584 
Q 2172 3584 2448 3432 
Q 2725 3281 2906 2969 
z
M 947 1747 
Q 947 1113 1208 752 
Q 1469 391 1925 391 
Q 2381 391 2643 752 
Q 2906 1113 2906 1747 
Q 2906 2381 2643 2742 
Q 2381 3103 1925 3103 
Q 1469 3103 1208 2742 
Q 947 2381 947 1747 
z
" transform="scale(0.015625)"/>
      </defs>
      <use xlink:href="#DejaVuSans-50"/>
      <use xlink:href="#DejaVuSans-72" x="58.552734"/>
      <use xlink:href="#DejaVuSans-69" x="99.666016"/>
      <use xlink:href="#DejaVuSans-63" x="127.449219"/>
      <use xlink:href="#DejaVuSans-65" x="182.429688"/>
      <use xlink:href="#DejaVuSans-20" x="243.953125"/>
      <use xlink:href="#DejaVuSans-50" x="275.740234"/>
      <use xlink:href="#DejaVuSans-61" x="331.542969"/>
      <use xlink:href="#DejaVuSans-69" x="392.822266"/>
      <use xlink:href="#DejaVuSans-64" x="420.605469"/>
     </g>
    </g>
   </g>
   <g id="matplotlib.axis_2">
    <g id="ytick_1">
     <g id="line2d_19">
      <path d="M 90 378 
L 648 378 
" clip-path="url(#p0f446b6713)" style="fill: none; stroke: #b0b0b0; stroke-width: 0.8; stroke-linecap: square"/>
     </g>
     <g id="line2d_20">
      <defs>
       <path id="mf1be56fceb" d="M 0 0 
L -3.5 0 
" style="stroke: #000000; stroke-width: 0.8"/>
      </defs>
      <g>
       <use xlink:href="#mf1be56fceb" x="90" y="378" style="stroke: #000000; stroke-width: 0.8"/>
      </g>
     </g>
     <g id="text_11">
      <!-- $\mathdefault{10^{-1}}$ -->
      <g transform="translate(59.5 381.799219)scale(0.1 -0.1)">
       <defs>
        <path id="DejaVuSans-2212" d="M 678 2272 
L 4684 2272 
L 4684 1741 
L 678 1741 
L 678 2272 
z
" transform="scale(0.015625)"/>
       </defs>
       <use xlink:href="#DejaVuSans-31" transform="translate(0 0.684375)"/>
       <use xlink:href="#DejaVuSans-30" transform="translate(63.623047 0.684375)"/>
       <use xlink:href="#DejaVuSans-2212" transform="translate(128.203125 38.965625)scale(0.7)"/>
       <use xlink:href="#DejaVuSans-31" transform="translate(186.855469 38.965625)scale(0.7)"/>
      </g>
     </g>
    </g>
    <g id="ytick_2">
     <g id="line2d_21">
      <path d="M 90 279.194476 
L 648 279.194476 
" clip-path="url(#p0f446b6713)" style="fill: none; stroke: #b0b0b0; stroke-width: 0.8; stroke-linecap: square"/>
     </g>
     <g id="line2d_22">
      <g>
       <use xlink:href="#mf1be56fceb" x="90" y="279.194476" style="stroke: #000000; stroke-width: 0.8"/>
      </g>
     </g>
     <g id="text_12">
      <!-- $\mathdefault{10^{0}}$ -->
      <g transform="translate(65.4 282.993694)scale(0.1 -0.1)">
       <use xlink:href="#DejaVuSans-31" transform="translate(0 0.765625)"/>
       <use xlink:href="#DejaVuSans-30" transform="translate(63.623047 0.765625)"/>
       <use xlink:href="#DejaVuSans-30" transform="translate(128.203125 39.046875)scale(0.7)"/>
      </g>
     </g>
    </g>
    <g id="ytick_3">
     <g id="line2d_23">
      <path d="M 90 180.388951 
L 648 180.388951 
" clip-path="url(#p0f446b6713)" style="fill: none; stroke: #b0b0b0; stroke-width: 0.8; stroke-linecap: square"/>
     </g>
     <g id="line2d_24">
      <g>
       <use xlink:href="#mf1be56fceb" x="90" y="180.388951" style="stroke: #000000; stroke-width: 0.8"/>
      </g>
     </g>
     <g id="text_13">
      <!-- $\mathdefault{10^{1}}$ -->
      <g transform="translate(65.4 184.18817)scale(0.1 -0.1)">
       <use xlink:href="#DejaVuSans-31" transform="translate(0 0.684375)"/>
       <use xlink:href="#DejaVuSans-30" transform="translate(63.623047 0.684375)"/>
       <use xlink:href="#DejaVuSans-31" transform="translate(128.203125 38.965625)scale(0.7)"/>
      </g>
     </g>
    </g>
    <g id="ytick_4">
     <g id="line2d_25">
      <path d="M 90 81.583427 
L 648 81.583427 
" clip-path="url(#p0f446b6713)" style="fill: none; stroke: #b0b0b0; stroke-width: 0.8; stroke-linecap: square"/>
     </g>
     <g id="line2d_26">
      <g>
       <use xlink:href="#mf1be56fceb" x="90" y="81.583427" style="stroke: #000000; stroke-width: 0.8"/>
      </g>
     </g>
     <g id="text_14">
      <!-- $\mathdefault{10^{2}}$ -->
      <g transform="translate(65.4 85.382645)scale(0.1 -0.1)">
       <use xlink:href="#DejaVuSans-31" transform="translate(0 0.765625)"/>
       <use xlink:href="#DejaVuSans-30" transform="translate(63.623047 0.765625)"/>
       <use xlink:href="#DejaVuSans-32" transform="translate(128.203125 39.046875)scale(0.7)"/>
      </g>
     </g>
    </g>
    <g id="ytick_5">
     <g id="line2d_27">
      <defs>
       <path id="m5b95e89fc9" d="M 0 0 
L -2 0 
" style="stroke: #000000; stroke-width: 0.6"/>
      </defs>
      <g>
       <use xlink:href="#m5b95e89fc9" x="90" y="348.256573" style="stroke: #000000; stroke-width: 0.6"/>
      </g>
     </g>
    </g>
    <g id="ytick_6">
     <g id="line2d_28">
      <g>
       <use xlink:href="#m5b95e89fc9" x="90" y="330.857784" style="stroke: #000000; stroke-width: 0.6"/>
      </g>
     </g>
    </g>
    <g id="ytick_7">
     <g id="line2d_29">
      <g>
       <use xlink:href="#m5b95e89fc9" x="90" y="318.513147" style="stroke: #000000; stroke-width: 0.6"/>
      </g>
     </g>
    </g>
    <g id="ytick_8">
     <g id="line2d_30">
      <g>
       <use xlink:href="#m5b95e89fc9" x="90" y="308.937902" style="stroke: #000000; stroke-width: 0.6"/>
      </g>
     </g>
    </g>
    <g id="ytick_9">
     <g id="line2d_31">
      <g>
       <use xlink:href="#m5b95e89fc9" x="90" y="301.114358" style="stroke: #000000; stroke-width: 0.6"/>
      </g>
     </g>
    </g>
    <g id="ytick_10">
     <g id="line2d_32">
      <g>
       <use xlink:href="#m5b95e89fc9" x="90" y="294.499645" style="stroke: #000000; stroke-width: 0.6"/>
      </g>
     </g>
    </g>
    <g id="ytick_11">
     <g id="line2d_33">
      <g>
       <use xlink:href="#m5b95e89fc9" x="90" y="288.76972" style="stroke: #000000; stroke-width: 0.6"/>
      </g>
     </g>
    </g>
    <g id="ytick_12">
     <g id="line2d_34">
      <g>
       <use xlink:href="#m5b95e89fc9" x="90" y="283.715568" style="stroke: #000000; stroke-width: 0.6"/>
      </g>
     </g>
    </g>
    <g id="ytick_13">
     <g id="line2d_35">
      <g>
       <use xlink:href="#m5b95e89fc9" x="90" y="249.451049" style="stroke: #000000; stroke-width: 0.6"/>
      </g>
     </g>
    </g>
    <g id="ytick_14">
     <g id="line2d_36">
      <g>
       <use xlink:href="#m5b95e89fc9" x="90" y="232.05226" style="stroke: #000000; stroke-width: 0.6"/>
      </g>
     </g>
    </g>
    <g id="ytick_15">
     <g id="line2d_37">
      <g>
       <use xlink:href="#m5b95e89fc9" x="90" y="219.707622" style="stroke: #000000; stroke-width: 0.6"/>
      </g>
     </g>
    </g>
    <g id="ytick_16">
     <g id="line2d_38">
      <g>
       <use xlink:href="#m5b95e89fc9" x="90" y="210.132378" style="stroke: #000000; stroke-width: 0.6"/>
      </g>
     </g>
    </g>
    <g id="ytick_17">
     <g id="line2d_39">
      <g>
       <use xlink:href="#m5b95e89fc9" x="90" y="202.308833" style="stroke: #000000; stroke-width: 0.6"/>
      </g>
     </g>
    </g>
    <g id="ytick_18">
     <g id="line2d_40">
      <g>
       <use xlink:href="#m5b95e89fc9" x="90" y="195.69412" style="stroke: #000000; stroke-width: 0.6"/>
      </g>
     </g>
    </g>
    <g id="ytick_19">
     <g id="line2d_41">
      <g>
       <use xlink:href="#m5b95e89fc9" x="90" y="189.964196" style="stroke: #000000; stroke-width: 0.6"/>
      </g>
     </g>
    </g>
    <g id="ytick_20">
     <g id="line2d_42">
      <g>
       <use xlink:href="#m5b95e89fc9" x="90" y="184.910044" style="stroke: #000000; stroke-width: 0.6"/>
      </g>
     </g>
    </g>
    <g id="ytick_21">
     <g id="line2d_43">
      <g>
       <use xlink:href="#m5b95e89fc9" x="90" y="150.645524" style="stroke: #000000; stroke-width: 0.6"/>
      </g>
     </g>
    </g>
    <g id="ytick_22">
     <g id="line2d_44">
      <g>
       <use xlink:href="#m5b95e89fc9" x="90" y="133.246735" style="stroke: #000000; stroke-width: 0.6"/>
      </g>
     </g>
    </g>
    <g id="ytick_23">
     <g id="line2d_45">
      <g>
       <use xlink:href="#m5b95e89fc9" x="90" y="120.902098" style="stroke: #000000; stroke-width: 0.6"/>
      </g>
     </g>
    </g>
    <g id="ytick_24">
     <g id="line2d_46">
      <g>
       <use xlink:href="#m5b95e89fc9" x="90" y="111.326853" style="stroke: #000000; stroke-width: 0.6"/>
      </g>
     </g>
    </g>
    <g id="ytick_25">
     <g id="line2d_47">
      <g>
       <use xlink:href="#m5b95e89fc9" x="90" y="103.503309" style="stroke: #000000; stroke-width: 0.6"/>
      </g>
     </g>
    </g>
    <g id="ytick_26">
     <g id="line2d_48">
      <g>
       <use xlink:href="#m5b95e89fc9" x="90" y="96.888596" style="stroke: #000000; stroke-width: 0.6"/>
      </g>
     </g>
    </g>
    <g id="ytick_27">
     <g id="line2d_49">
      <g>
       <use xlink:href="#m5b95e89fc9" x="90" y="91.158671" style="stroke: #000000; stroke-width: 0.6"/>
      </g>
     </g>
    </g>
    <g id="ytick_28">
     <g id="line2d_50">
      <g>
       <use xlink:href="#m5b95e89fc9" x="90" y="86.104519" style="stroke: #000000; stroke-width: 0.6"/>
      </g>
     </g>
    </g>
    <g id="ytick_29">
     <g id="line2d_51">
      <g>
       <use xlink:href="#m5b95e89fc9" x="90" y="51.84" style="stroke: #000000; stroke-width: 0.6"/>
      </g>
     </g>
    </g>
    <g id="text_15">
     <!-- Average Pellet Count -->
     <g transform="translate(53.420312 267.204375)rotate(-90)scale(0.1 -0.1)">
      <defs>
       <path id="DejaVuSans-41" d="M 2188 4044 
L 1331 1722 
L 3047 1722 
L 2188 4044 
z
M 1831 4666 
L 2547 4666 
L 4325 0 
L 3669 0 
L 3244 1197 
L 1141 1197 
L 716 0 
L 50 0 
L 1831 4666 
z
" transform="scale(0.015625)"/>
       <path id="DejaVuSans-76" d="M 191 3500 
L 800 3500 
L 1894 563 
L 2988 3500 
L 3597 3500 
L 2284 0 
L 1503 0 
L 191 3500 
z
" transform="scale(0.015625)"/>
       <path id="DejaVuSans-67" d="M 2906 1791 
Q 2906 2416 2648 2759 
Q 2391 3103 1925 3103 
Q 1463 3103 1205 2759 
Q 947 2416 947 1791 
Q 947 1169 1205 825 
Q 1463 481 1925 481 
Q 2391 481 2648 825 
Q 2906 1169 2906 1791 
z
M 3481 434 
Q 3481 -459 3084 -895 
Q 2688 -1331 1869 -1331 
Q 1566 -1331 1297 -1286 
Q 1028 -1241 775 -1147 
L 775 -588 
Q 1028 -725 1275 -790 
Q 1522 -856 1778 -856 
Q 2344 -856 2625 -561 
Q 2906 -266 2906 331 
L 2906 616 
Q 2728 306 2450 153 
Q 2172 0 1784 0 
Q 1141 0 747 490 
Q 353 981 353 1791 
Q 353 2603 747 3093 
Q 1141 3584 1784 3584 
Q 2172 3584 2450 3431 
Q 2728 3278 2906 2969 
L 2906 3500 
L 3481 3500 
L 3481 434 
z
" transform="scale(0.015625)"/>
       <path id="DejaVuSans-6c" d="M 603 4863 
L 1178 4863 
L 1178 0 
L 603 0 
L 603 4863 
z
" transform="scale(0.015625)"/>
       <path id="DejaVuSans-74" d="M 1172 4494 
L 1172 3500 
L 2356 3500 
L 2356 3053 
L 1172 3053 
L 1172 1153 
Q 1172 725 1289 603 
Q 1406 481 1766 481 
L 2356 481 
L 2356 0 
L 1766 0 
Q 1100 0 847 248 
Q 594 497 594 1153 
L 594 3053 
L 172 3053 
L 172 3500 
L 594 3500 
L 594 4494 
L 1172 4494 
z
" transform="scale(0.015625)"/>
       <path id="DejaVuSans-43" d="M 4122 4306 
L 4122 3641 
Q 3803 3938 3442 4084 
Q 3081 4231 2675 4231 
Q 1875 4231 1450 3742 
Q 1025 3253 1025 2328 
Q 1025 1406 1450 917 
Q 1875 428 2675 428 
Q 3081 428 3442 575 
Q 3803 722 4122 1019 
L 4122 359 
Q 3791 134 3420 21 
Q 3050 -91 2638 -91 
Q 1578 -91 968 557 
Q 359 1206 359 2328 
Q 359 3453 968 4101 
Q 1578 4750 2638 4750 
Q 3056 4750 3426 4639 
Q 3797 4528 4122 4306 
z
" transform="scale(0.015625)"/>
       <path id="DejaVuSans-6f" d="M 1959 3097 
Q 1497 3097 1228 2736 
Q 959 2375 959 1747 
Q 959 1119 1226 758 
Q 1494 397 1959 397 
Q 2419 397 2687 759 
Q 2956 1122 2956 1747 
Q 2956 2369 2687 2733 
Q 2419 3097 1959 3097 
z
M 1959 3584 
Q 2709 3584 3137 3096 
Q 3566 2609 3566 1747 
Q 3566 888 3137 398 
Q 2709 -91 1959 -91 
Q 1206 -91 779 398 
Q 353 888 353 1747 
Q 353 2609 779 3096 
Q 1206 3584 1959 3584 
z
" transform="scale(0.015625)"/>
       <path id="DejaVuSans-75" d="M 544 1381 
L 544 3500 
L 1119 3500 
L 1119 1403 
Q 1119 906 1312 657 
Q 1506 409 1894 409 
Q 2359 409 2629 706 
Q 2900 1003 2900 1516 
L 2900 3500 
L 3475 3500 
L 3475 0 
L 2900 0 
L 2900 538 
Q 2691 219 2414 64 
Q 2138 -91 1772 -91 
Q 1169 -91 856 284 
Q 544 659 544 1381 
z
M 1991 3584 
L 1991 3584 
z
" transform="scale(0.015625)"/>
       <path id="DejaVuSans-6e" d="M 3513 2113 
L 3513 0 
L 2938 0 
L 2938 2094 
Q 2938 2591 2744 2837 
Q 2550 3084 2163 3084 
Q 1697 3084 1428 2787 
Q 1159 2491 1159 1978 
L 1159 0 
L 581 0 
L 581 3500 
L 1159 3500 
L 1159 2956 
Q 1366 3272 1645 3428 
Q 1925 3584 2291 3584 
Q 2894 3584 3203 3211 
Q 3513 2838 3513 2113 
z
" transform="scale(0.015625)"/>
      </defs>
      <use xlink:href="#DejaVuSans-41"/>
      <use xlink:href="#DejaVuSans-76" x="62.533203"/>
      <use xlink:href="#DejaVuSans-65" x="121.712891"/>
      <use xlink:href="#DejaVuSans-72" x="183.236328"/>
      <use xlink:href="#DejaVuSans-61" x="224.349609"/>
      <use xlink:href="#DejaVuSans-67" x="285.628906"/>
      <use xlink:href="#DejaVuSans-65" x="349.105469"/>
      <use xlink:href="#DejaVuSans-20" x="410.628906"/>
      <use xlink:href="#DejaVuSans-50" x="442.416016"/>
      <use xlink:href="#DejaVuSans-65" x="499.09375"/>
      <use xlink:href="#DejaVuSans-6c" x="560.617188"/>
      <use xlink:href="#DejaVuSans-6c" x="588.400391"/>
      <use xlink:href="#DejaVuSans-65" x="616.183594"/>
      <use xlink:href="#DejaVuSans-74" x="677.707031"/>
      <use xlink:href="#DejaVuSans-20" x="716.916016"/>
      <use xlink:href="#DejaVuSans-43" x="748.703125"/>
      <use xlink:href="#DejaVuSans-6f" x="818.527344"/>
      <use xlink:href="#DejaVuSans-75" x="879.708984"/>
      <use xlink:href="#DejaVuSans-6e" x="943.087891"/>
      <use xlink:href="#DejaVuSans-74" x="1006.466797"/>
     </g>
    </g>
   </g>
   <g id="line2d_52">
    <path d="M 103.95 180.388951 
L 117.9 180.388951 
L 131.85 210.132378 
L 145.8 210.132378 
L 159.75 219.707622 
L 173.7 232.05226 
L 187.65 232.05226 
L 201.6 249.451049 
L 215.55 249.451049 
L 229.5 279.194476 
L 243.45 279.194476 
" clip-path="url(#p0f446b6713)" style="fill: none; stroke: #0000ff; stroke-opacity: 0.3; stroke-linecap: square"/>
   </g>
   <g id="line2d_53">
    <path d="M 243.45 279.194476 
L 257.4 279.194476 
L 271.35 279.194476 
L 285.3 279.194476 
L 299.25 279.194476 
L 313.2 279.194476 
L 327.15 279.194476 
L 341.1 279.194476 
L 355.05 279.194476 
L 369 279.194476 
L 382.95 279.194476 
L 396.9 279.194476 
L 410.85 279.194476 
L 424.8 279.194476 
L 438.75 279.194476 
L 452.7 279.194476 
L 466.65 279.194476 
L 480.6 279.194476 
L 494.55 279.194476 
" clip-path="url(#p0f446b6713)" style="fill: none; stroke: #0000ff; stroke-opacity: 0.3; stroke-linecap: square"/>
   </g>
   <g id="line2d_54">
    <path d="M 103.95 249.451049 
L 117.9 249.451049 
L 131.85 279.194476 
L 145.8 279.194476 
L 159.75 279.194476 
L 173.7 279.194476 
L 187.65 279.194476 
L 201.6 279.194476 
L 215.55 279.194476 
L 229.5 249.451049 
L 243.45 279.194476 
L 257.4 279.194476 
L 271.35 279.194476 
L 285.3 279.194476 
L 299.25 279.194476 
L 313.2 279.194476 
L 327.15 279.194476 
L 341.1 279.194476 
L 355.05 279.194476 
L 369 279.194476 
L 382.95 279.194476 
L 396.9 279.194476 
" clip-path="url(#p0f446b6713)" style="fill: none; stroke: #0000ff; stroke-opacity: 0.3; stroke-linecap: square"/>
   </g>
   <g id="line2d_55">
    <path d="M 103.95 202.308833 
L 117.9 202.308833 
L 131.85 232.05226 
L 145.8 232.05226 
L 159.75 232.05226 
L 173.7 232.05226 
L 187.65 232.05226 
L 201.6 232.05226 
L 215.55 249.451049 
L 229.5 249.451049 
L 243.45 249.451049 
L 257.4 249.451049 
L 271.35 249.451049 
L 285.3 249.451049 
L 299.25 249.451049 
L 313.2 279.194476 
L 327.15 279.194476 
L 341.1 279.194476 
L 355.05 279.194476 
L 369 279.194476 
" clip-path="url(#p0f446b6713)" style="fill: none; stroke: #0000ff; stroke-opacity: 0.3; stroke-linecap: square"/>
   </g>
   <g id="line2d_56">
    <path d="M 103.95 219.707622 
L 117.9 219.707622 
L 131.85 249.451049 
L 145.8 249.451049 
L 159.75 249.451049 
L 173.7 249.451049 
L 187.65 279.194476 
L 201.6 279.194476 
L 215.55 279.194476 
L 229.5 279.194476 
L 243.45 279.194476 
L 257.4 279.194476 
L 271.35 279.194476 
L 285.3 279.194476 
L 299.25 279.194476 
L 313.2 279.194476 
L 327.15 279.194476 
L 341.1 279.194476 
L 355.05 279.194476 
L 369 279.194476 
L 382.95 279.194476 
L 396.9 279.194476 
L 410.85 279.194476 
L 424.8 279.194476 
" clip-path="url(#p0f446b6713)" style="fill: none; stroke: #0000ff; stroke-opacity: 0.3; stroke-linecap: square"/>
   </g>
   <g id="line2d_57">
    <path d="M 103.95 189.964196 
L 117.9 189.964196 
L 131.85 219.707622 
L 145.8 219.707622 
L 159.75 249.451049 
L 173.7 249.451049 
L 187.65 249.451049 
L 201.6 249.451049 
L 215.55 249.451049 
L 229.5 249.451049 
L 243.45 249.451049 
L 257.4 279.194476 
L 271.35 279.194476 
L 285.3 279.194476 
L 299.25 279.194476 
L 313.2 279.194476 
L 327.15 279.194476 
L 341.1 279.194476 
L 355.05 279.194476 
L 369 279.194476 
L 382.95 279.194476 
L 396.9 279.194476 
" clip-path="url(#p0f446b6713)" style="fill: none; stroke: #0000ff; stroke-opacity: 0.3; stroke-linecap: square"/>
   </g>
   <g id="line2d_58">
    <path d="M 103.95 219.707622 
L 117.9 219.707622 
L 131.85 249.451049 
L 145.8 249.451049 
L 159.75 249.451049 
L 173.7 249.451049 
L 187.65 279.194476 
L 201.6 279.194476 
L 215.55 279.194476 
L 229.5 279.194476 
L 243.45 279.194476 
L 257.4 279.194476 
L 271.35 279.194476 
L 285.3 279.194476 
L 299.25 279.194476 
L 313.2 279.194476 
L 327.15 279.194476 
L 341.1 279.194476 
L 355.05 279.194476 
L 369 279.194476 
L 382.95 279.194476 
L 396.9 279.194476 
L 410.85 279.194476 
L 424.8 279.194476 
L 438.75 279.194476 
L 452.7 279.194476 
" clip-path="url(#p0f446b6713)" style="fill: none; stroke: #0000ff; stroke-opacity: 0.3; stroke-linecap: square"/>
   </g>
   <g id="line2d_59">
    <path d="M 103.95 219.707622 
L 117.9 219.707622 
L 131.85 249.451049 
L 145.8 249.451049 
L 159.75 249.451049 
L 173.7 279.194476 
L 187.65 279.194476 
L 201.6 279.194476 
L 215.55 279.194476 
L 229.5 279.194476 
L 243.45 279.194476 
L 257.4 279.194476 
L 271.35 279.194476 
L 285.3 279.194476 
L 299.25 279.194476 
L 313.2 279.194476 
L 327.15 279.194476 
L 341.1 279.194476 
L 355.05 279.194476 
L 369 279.194476 
L 382.95 279.194476 
L 396.9 279.194476 
L 410.85 279.194476 
L 424.8 279.194476 
L 438.75 279.194476 
L 452.7 279.194476 
" clip-path="url(#p0f446b6713)" style="fill: none; stroke: #0000ff; stroke-opacity: 0.3; stroke-linecap: square"/>
   </g>
   <g id="line2d_60">
    <path d="M 103.95 219.707622 
L 117.9 219.707622 
L 131.85 249.451049 
L 145.8 249.451049 
L 159.75 249.451049 
L 173.7 249.451049 
L 187.65 249.451049 
L 201.6 249.451049 
L 215.55 249.451049 
L 229.5 249.451049 
L 243.45 249.451049 
L 257.4 249.451049 
L 271.35 249.451049 
L 285.3 249.451049 
L 299.25 249.451049 
L 313.2 249.451049 
L 327.15 279.194476 
L 341.1 279.194476 
L 355.05 279.194476 
L 369 279.194476 
L 382.95 279.194476 
L 396.9 279.194476 
L 410.85 279.194476 
L 424.8 279.194476 
L 438.75 279.194476 
L 452.7 279.194476 
L 466.65 279.194476 
L 480.6 279.194476 
L 494.55 279.194476 
" clip-path="url(#p0f446b6713)" style="fill: none; stroke: #0000ff; stroke-opacity: 0.3; stroke-linecap: square"/>
   </g>
   <g id="line2d_61">
    <path d="M 103.95 219.707622 
L 117.9 219.707622 
L 131.85 249.451049 
L 145.8 249.451049 
L 159.75 249.451049 
L 173.7 249.451049 
L 187.65 249.451049 
L 201.6 249.451049 
L 215.55 249.451049 
L 229.5 249.451049 
L 243.45 249.451049 
L 257.4 249.451049 
L 271.35 249.451049 
L 285.3 279.194476 
L 299.25 279.194476 
L 313.2 279.194476 
L 327.15 279.194476 
L 341.1 279.194476 
L 355.05 279.194476 
L 369 279.194476 
L 382.95 279.194476 
L 396.9 279.194476 
" clip-path="url(#p0f446b6713)" style="fill: none; stroke: #0000ff; stroke-opacity: 0.3; stroke-linecap: square"/>
   </g>
   <g id="line2d_62">
    <path d="M 103.95 184.910044 
L 117.9 189.964196 
L 131.85 219.707622 
L 145.8 219.707622 
L 159.75 219.707622 
L 173.7 219.707622 
L 187.65 219.707622 
L 201.6 249.451049 
L 215.55 249.451049 
L 229.5 279.194476 
L 243.45 279.194476 
L 257.4 279.194476 
L 271.35 279.194476 
L 285.3 279.194476 
L 299.25 279.194476 
L 313.2 279.194476 
L 327.15 279.194476 
L 341.1 279.194476 
L 355.05 279.194476 
L 369 279.194476 
L 382.95 279.194476 
" clip-path="url(#p0f446b6713)" style="fill: none; stroke: #0000ff; stroke-opacity: 0.3; stroke-linecap: square"/>
   </g>
   <g id="line2d_63">
    <path d="M 201.6 279.194476 
L 215.55 279.194476 
L 229.5 279.194476 
L 243.45 279.194476 
L 257.4 279.194476 
L 271.35 279.194476 
L 285.3 279.194476 
L 299.25 279.194476 
L 313.2 279.194476 
L 327.15 279.194476 
L 341.1 279.194476 
L 355.05 279.194476 
L 369 279.194476 
L 382.95 279.194476 
L 396.9 279.194476 
L 410.85 279.194476 
L 424.8 279.194476 
L 438.75 279.194476 
L 452.7 279.194476 
L 466.65 279.194476 
L 480.6 279.194476 
L 494.55 279.194476 
" clip-path="url(#p0f446b6713)" style="fill: none; stroke: #0000ff; stroke-opacity: 0.3; stroke-linecap: square"/>
   </g>
   <g id="line2d_64">
    <path d="M 103.95 249.451049 
L 117.9 249.451049 
L 131.85 279.194476 
L 145.8 279.194476 
L 159.75 279.194476 
L 173.7 279.194476 
L 187.65 279.194476 
L 201.6 279.194476 
L 215.55 279.194476 
L 229.5 279.194476 
L 243.45 279.194476 
L 257.4 279.194476 
L 271.35 279.194476 
L 285.3 279.194476 
L 299.25 279.194476 
L 313.2 279.194476 
L 327.15 279.194476 
L 341.1 279.194476 
L 355.05 279.194476 
L 369 279.194476 
L 382.95 279.194476 
L 396.9 279.194476 
L 410.85 279.194476 
L 424.8 279.194476 
L 438.75 279.194476 
L 452.7 279.194476 
L 466.65 279.194476 
L 480.6 279.194476 
" clip-path="url(#p0f446b6713)" style="fill: none; stroke: #0000ff; stroke-opacity: 0.3; stroke-linecap: square"/>
   </g>
   <g id="line2d_65">
    <path d="M 313.2 279.194476 
L 327.15 279.194476 
L 341.1 279.194476 
L 355.05 279.194476 
L 369 279.194476 
L 382.95 279.194476 
L 396.9 279.194476 
L 410.85 279.194476 
L 424.8 279.194476 
L 438.75 279.194476 
L 452.7 279.194476 
L 466.65 279.194476 
L 480.6 279.194476 
L 494.55 279.194476 
L 508.5 279.194476 
L 522.45 279.194476 
L 536.4 279.194476 
L 550.35 279.194476 
" clip-path="url(#p0f446b6713)" style="fill: none; stroke: #0000ff; stroke-opacity: 0.3; stroke-linecap: square"/>
   </g>
   <g id="line2d_66">
    <path d="M 103.95 180.388951 
L 117.9 180.388951 
L 131.85 210.132378 
L 145.8 210.132378 
L 159.75 210.132378 
L 173.7 219.707622 
L 187.65 232.05226 
L 201.6 232.05226 
L 215.55 232.05226 
L 229.5 232.05226 
L 243.45 249.451049 
L 257.4 279.194476 
" clip-path="url(#p0f446b6713)" style="fill: none; stroke: #0000ff; stroke-opacity: 0.3; stroke-linecap: square"/>
   </g>
   <g id="line2d_67">
    <path d="M 103.95 189.964196 
L 117.9 189.964196 
L 131.85 219.707622 
L 145.8 219.707622 
L 159.75 219.707622 
L 173.7 219.707622 
L 187.65 219.707622 
L 201.6 219.707622 
L 215.55 219.707622 
L 229.5 219.707622 
L 243.45 219.707622 
L 257.4 232.05226 
L 271.35 232.05226 
L 285.3 232.05226 
L 299.25 232.05226 
L 313.2 232.05226 
L 327.15 249.451049 
L 341.1 249.451049 
L 355.05 279.194476 
L 369 279.194476 
L 382.95 279.194476 
L 396.9 279.194476 
L 410.85 279.194476 
L 424.8 279.194476 
L 438.75 279.194476 
L 452.7 279.194476 
L 466.65 279.194476 
L 480.6 279.194476 
" clip-path="url(#p0f446b6713)" style="fill: none; stroke: #0000ff; stroke-opacity: 0.3; stroke-linecap: square"/>
   </g>
   <g id="line2d_68">
    <path d="M 103.95 180.388951 
L 117.9 180.388951 
L 131.85 210.132378 
L 145.8 210.132378 
L 159.75 210.132378 
L 173.7 219.707622 
L 187.65 219.707622 
L 201.6 249.451049 
L 215.55 249.451049 
L 229.5 249.451049 
L 243.45 279.194476 
L 257.4 279.194476 
L 271.35 279.194476 
L 285.3 279.194476 
L 299.25 279.194476 
L 313.2 279.194476 
L 327.15 279.194476 
L 341.1 279.194476 
L 355.05 279.194476 
L 369 279.194476 
" clip-path="url(#p0f446b6713)" style="fill: none; stroke: #0000ff; stroke-opacity: 0.3; stroke-linecap: square"/>
   </g>
   <g id="line2d_69">
    <path d="M 103.95 165.950694 
L 117.9 165.950694 
L 131.85 195.69412 
L 145.8 195.69412 
L 159.75 202.308833 
L 173.7 219.707622 
L 187.65 232.05226 
L 201.6 279.194476 
L 215.55 279.194476 
L 229.5 279.194476 
L 243.45 279.194476 
L 257.4 279.194476 
L 271.35 279.194476 
L 285.3 279.194476 
L 299.25 279.194476 
L 313.2 279.194476 
" clip-path="url(#p0f446b6713)" style="fill: none; stroke: #0000ff; stroke-opacity: 0.3; stroke-linecap: square"/>
   </g>
   <g id="LineCollection_1">
    <path d="M 103.95 213.106036 
L 103.95 199.979101 
" clip-path="url(#p0f446b6713)" style="fill: none; stroke: #000000; stroke-width: 1.5"/>
    <path d="M 117.9 213.534157 
L 117.9 200.420289 
" clip-path="url(#p0f446b6713)" style="fill: none; stroke: #000000; stroke-width: 1.5"/>
    <path d="M 131.85 243.277584 
L 131.85 230.163715 
" clip-path="url(#p0f446b6713)" style="fill: none; stroke: #000000; stroke-width: 1.5"/>
    <path d="M 145.8 243.277584 
L 145.8 230.163715 
" clip-path="url(#p0f446b6713)" style="fill: none; stroke: #000000; stroke-width: 1.5"/>
    <path d="M 159.75 246.694708 
L 159.75 233.993371 
" clip-path="url(#p0f446b6713)" style="fill: none; stroke: #000000; stroke-width: 1.5"/>
    <path d="M 173.7 251.928955 
L 173.7 240.820669 
" clip-path="url(#p0f446b6713)" style="fill: none; stroke: #000000; stroke-width: 1.5"/>
    <path d="M 187.65 257.254135 
L 187.65 244.945306 
" clip-path="url(#p0f446b6713)" style="fill: none; stroke: #000000; stroke-width: 1.5"/>
    <path d="M 201.6 264.864122 
L 201.6 253.362906 
" clip-path="url(#p0f446b6713)" style="fill: none; stroke: #000000; stroke-width: 1.5"/>
    <path d="M 215.55 266.198946 
L 215.55 254.999932 
" clip-path="url(#p0f446b6713)" style="fill: none; stroke: #000000; stroke-width: 1.5"/>
    <path d="M 229.5 268.128721 
L 229.5 256.27824 
" clip-path="url(#p0f446b6713)" style="fill: none; stroke: #000000; stroke-width: 1.5"/>
    <path d="M 243.45 271.357687 
L 243.45 259.636528 
" clip-path="url(#p0f446b6713)" style="fill: none; stroke: #000000; stroke-width: 1.5"/>
    <path d="M 257.4 278.145152 
L 257.4 267.654021 
" clip-path="url(#p0f446b6713)" style="fill: none; stroke: #000000; stroke-width: 1.5"/>
    <path d="M 271.35 280.695145 
L 271.35 269.39361 
" clip-path="url(#p0f446b6713)" style="fill: none; stroke: #000000; stroke-width: 1.5"/>
    <path d="M 285.3 282.976341 
L 285.3 271.53314 
" clip-path="url(#p0f446b6713)" style="fill: none; stroke: #000000; stroke-width: 1.5"/>
    <path d="M 299.25 282.976341 
L 299.25 271.53314 
" clip-path="url(#p0f446b6713)" style="fill: none; stroke: #000000; stroke-width: 1.5"/>
    <path d="M 313.2 282.430714 
L 313.2 271.95579 
" clip-path="url(#p0f446b6713)" style="fill: none; stroke: #000000; stroke-width: 1.5"/>
    <path d="M 327.15 287.291934 
L 327.15 281.406938 
" clip-path="url(#p0f446b6713)" style="fill: none; stroke: #000000; stroke-width: 1.5"/>
    <path d="M 341.1 287.291934 
L 341.1 281.406938 
" clip-path="url(#p0f446b6713)" style="fill: none; stroke: #000000; stroke-width: 1.5"/>
    <path d="M 355.05 287.01802 
L 355.05 287.01802 
" clip-path="url(#p0f446b6713)" style="fill: none; stroke: #000000; stroke-width: 1.5"/>
    <path d="M 369 287.01802 
L 369 287.01802 
" clip-path="url(#p0f446b6713)" style="fill: none; stroke: #000000; stroke-width: 1.5"/>
    <path d="M 382.95 293.158577 
L 382.95 293.158577 
" clip-path="url(#p0f446b6713)" style="fill: none; stroke: #000000; stroke-width: 1.5"/>
    <path d="M 396.9 296.593265 
L 396.9 296.593265 
" clip-path="url(#p0f446b6713)" style="fill: none; stroke: #000000; stroke-width: 1.5"/>
    <path d="M 410.85 308.937902 
L 410.85 308.937902 
" clip-path="url(#p0f446b6713)" style="fill: none; stroke: #000000; stroke-width: 1.5"/>
    <path d="M 424.8 308.937902 
L 424.8 308.937902 
" clip-path="url(#p0f446b6713)" style="fill: none; stroke: #000000; stroke-width: 1.5"/>
    <path d="M 438.75 313.992054 
L 438.75 313.992054 
" clip-path="url(#p0f446b6713)" style="fill: none; stroke: #000000; stroke-width: 1.5"/>
    <path d="M 452.7 313.992054 
L 452.7 313.992054 
" clip-path="url(#p0f446b6713)" style="fill: none; stroke: #000000; stroke-width: 1.5"/>
    <path d="M 466.65 326.336691 
L 466.65 326.336691 
" clip-path="url(#p0f446b6713)" style="fill: none; stroke: #000000; stroke-width: 1.5"/>
    <path d="M 480.6 326.336691 
L 480.6 326.336691 
" clip-path="url(#p0f446b6713)" style="fill: none; stroke: #000000; stroke-width: 1.5"/>
    <path d="M 494.55 343.735481 
L 494.55 343.735481 
" clip-path="url(#p0f446b6713)" style="fill: none; stroke: #000000; stroke-width: 1.5"/>
    <path clip-path="url(#p0f446b6713)" style="fill: none; stroke: #000000; stroke-width: 1.5"/>
    <path clip-path="url(#p0f446b6713)" style="fill: none; stroke: #000000; stroke-width: 1.5"/>
    <path clip-path="url(#p0f446b6713)" style="fill: none; stroke: #000000; stroke-width: 1.5"/>
    <path clip-path="url(#p0f446b6713)" style="fill: none; stroke: #000000; stroke-width: 1.5"/>
   </g>
   <g id="line2d_70">
    <defs>
     <path id="m55f94fdd12" d="M 3 0 
L -3 -0 
" style="stroke: #000000"/>
    </defs>
    <g clip-path="url(#p0f446b6713)">
     <use xlink:href="#m55f94fdd12" x="103.95" y="213.106036" style="stroke: #000000"/>
     <use xlink:href="#m55f94fdd12" x="117.9" y="213.534157" style="stroke: #000000"/>
     <use xlink:href="#m55f94fdd12" x="131.85" y="243.277584" style="stroke: #000000"/>
     <use xlink:href="#m55f94fdd12" x="145.8" y="243.277584" style="stroke: #000000"/>
     <use xlink:href="#m55f94fdd12" x="159.75" y="246.694708" style="stroke: #000000"/>
     <use xlink:href="#m55f94fdd12" x="173.7" y="251.928955" style="stroke: #000000"/>
     <use xlink:href="#m55f94fdd12" x="187.65" y="257.254135" style="stroke: #000000"/>
     <use xlink:href="#m55f94fdd12" x="201.6" y="264.864122" style="stroke: #000000"/>
     <use xlink:href="#m55f94fdd12" x="215.55" y="266.198946" style="stroke: #000000"/>
     <use xlink:href="#m55f94fdd12" x="229.5" y="268.128721" style="stroke: #000000"/>
     <use xlink:href="#m55f94fdd12" x="243.45" y="271.357687" style="stroke: #000000"/>
     <use xlink:href="#m55f94fdd12" x="257.4" y="278.145152" style="stroke: #000000"/>
     <use xlink:href="#m55f94fdd12" x="271.35" y="280.695145" style="stroke: #000000"/>
     <use xlink:href="#m55f94fdd12" x="285.3" y="282.976341" style="stroke: #000000"/>
     <use xlink:href="#m55f94fdd12" x="299.25" y="282.976341" style="stroke: #000000"/>
     <use xlink:href="#m55f94fdd12" x="313.2" y="282.430714" style="stroke: #000000"/>
     <use xlink:href="#m55f94fdd12" x="327.15" y="287.291934" style="stroke: #000000"/>
     <use xlink:href="#m55f94fdd12" x="341.1" y="287.291934" style="stroke: #000000"/>
     <use xlink:href="#m55f94fdd12" x="355.05" y="287.01802" style="stroke: #000000"/>
     <use xlink:href="#m55f94fdd12" x="369" y="287.01802" style="stroke: #000000"/>
     <use xlink:href="#m55f94fdd12" x="382.95" y="293.158577" style="stroke: #000000"/>
     <use xlink:href="#m55f94fdd12" x="396.9" y="296.593265" style="stroke: #000000"/>
     <use xlink:href="#m55f94fdd12" x="410.85" y="308.937902" style="stroke: #000000"/>
     <use xlink:href="#m55f94fdd12" x="424.8" y="308.937902" style="stroke: #000000"/>
     <use xlink:href="#m55f94fdd12" x="438.75" y="313.992054" style="stroke: #000000"/>
     <use xlink:href="#m55f94fdd12" x="452.7" y="313.992054" style="stroke: #000000"/>
     <use xlink:href="#m55f94fdd12" x="466.65" y="326.336691" style="stroke: #000000"/>
     <use xlink:href="#m55f94fdd12" x="480.6" y="326.336691" style="stroke: #000000"/>
     <use xlink:href="#m55f94fdd12" x="494.55" y="343.735481" style="stroke: #000000"/>
    </g>
   </g>
   <g id="line2d_71">
    <g clip-path="url(#p0f446b6713)">
     <use xlink:href="#m55f94fdd12" x="103.95" y="199.979101" style="stroke: #000000"/>
     <use xlink:href="#m55f94fdd12" x="117.9" y="200.420289" style="stroke: #000000"/>
     <use xlink:href="#m55f94fdd12" x="131.85" y="230.163715" style="stroke: #000000"/>
     <use xlink:href="#m55f94fdd12" x="145.8" y="230.163715" style="stroke: #000000"/>
     <use xlink:href="#m55f94fdd12" x="159.75" y="233.993371" style="stroke: #000000"/>
     <use xlink:href="#m55f94fdd12" x="173.7" y="240.820669" style="stroke: #000000"/>
     <use xlink:href="#m55f94fdd12" x="187.65" y="244.945306" style="stroke: #000000"/>
     <use xlink:href="#m55f94fdd12" x="201.6" y="253.362906" style="stroke: #000000"/>
     <use xlink:href="#m55f94fdd12" x="215.55" y="254.999932" style="stroke: #000000"/>
     <use xlink:href="#m55f94fdd12" x="229.5" y="256.27824" style="stroke: #000000"/>
     <use xlink:href="#m55f94fdd12" x="243.45" y="259.636528" style="stroke: #000000"/>
     <use xlink:href="#m55f94fdd12" x="257.4" y="267.654021" style="stroke: #000000"/>
     <use xlink:href="#m55f94fdd12" x="271.35" y="269.39361" style="stroke: #000000"/>
     <use xlink:href="#m55f94fdd12" x="285.3" y="271.53314" style="stroke: #000000"/>
     <use xlink:href="#m55f94fdd12" x="299.25" y="271.53314" style="stroke: #000000"/>
     <use xlink:href="#m55f94fdd12" x="313.2" y="271.95579" style="stroke: #000000"/>
     <use xlink:href="#m55f94fdd12" x="327.15" y="281.406938" style="stroke: #000000"/>
     <use xlink:href="#m55f94fdd12" x="341.1" y="281.406938" style="stroke: #000000"/>
     <use xlink:href="#m55f94fdd12" x="355.05" y="287.01802" style="stroke: #000000"/>
     <use xlink:href="#m55f94fdd12" x="369" y="287.01802" style="stroke: #000000"/>
     <use xlink:href="#m55f94fdd12" x="382.95" y="293.158577" style="stroke: #000000"/>
     <use xlink:href="#m55f94fdd12" x="396.9" y="296.593265" style="stroke: #000000"/>
     <use xlink:href="#m55f94fdd12" x="410.85" y="308.937902" style="stroke: #000000"/>
     <use xlink:href="#m55f94fdd12" x="424.8" y="308.937902" style="stroke: #000000"/>
     <use xlink:href="#m55f94fdd12" x="438.75" y="313.992054" style="stroke: #000000"/>
     <use xlink:href="#m55f94fdd12" x="452.7" y="313.992054" style="stroke: #000000"/>
     <use xlink:href="#m55f94fdd12" x="466.65" y="326.336691" style="stroke: #000000"/>
     <use xlink:href="#m55f94fdd12" x="480.6" y="326.336691" style="stroke: #000000"/>
     <use xlink:href="#m55f94fdd12" x="494.55" y="343.735481" style="stroke: #000000"/>
    </g>
   </g>
   <g id="line2d_72">
    <path d="M 103.95 206.042552 
L 105.442977 203.338513 
L 106.935953 201.565877 
L 108.42893 200.551944 
L 109.921906 200.179499 
L 111.414883 200.366259 
L 112.90786 201.052851 
L 114.400836 202.195255 
L 115.893813 203.759618 
L 117.386789 205.718317 
L 118.879766 208.046516 
L 120.372742 210.7187 
L 121.865719 213.704695 
L 124.851672 220.442945 
L 129.330602 231.208704 
L 130.823579 234.375154 
L 132.316555 236.94387 
L 133.809532 238.736513 
L 135.302508 239.774052 
L 136.795485 240.144277 
L 138.288462 239.973909 
L 139.781438 239.411547 
L 145.753344 236.237741 
L 147.246321 235.864613 
L 148.739298 235.75846 
L 150.232274 235.881305 
L 151.725251 236.198859 
L 153.218227 236.678814 
L 156.204181 237.998558 
L 165.16204 242.59284 
L 169.64097 244.536207 
L 174.1199 246.152872 
L 186.063712 249.946041 
L 189.049666 251.378595 
L 192.035619 253.133327 
L 199.500502 257.740663 
L 200.993478 258.471037 
L 202.486455 259.061649 
L 203.979431 259.506603 
L 206.965385 260.031908 
L 209.951338 260.210288 
L 217.416221 260.311539 
L 221.895151 260.715904 
L 227.867057 261.548196 
L 235.33194 262.742229 
L 238.317893 263.394658 
L 241.303846 264.273297 
L 244.289799 265.473916 
L 247.275753 267.016376 
L 256.233612 272.07618 
L 257.726589 272.706702 
L 260.712542 273.595021 
L 263.698495 274.091163 
L 268.177425 274.44181 
L 272.656355 274.817206 
L 277.135284 275.508589 
L 284.600167 276.783156 
L 287.58612 277.108214 
L 290.572074 277.267789 
L 293.558027 277.269831 
L 298.036957 276.99968 
L 306.994816 276.09125 
L 309.980769 276.19942 
L 311.473746 276.426912 
L 312.966722 276.801065 
L 314.459699 277.341627 
L 317.445652 278.837387 
L 324.910535 283.304938 
L 326.403512 283.979279 
L 327.896488 284.465674 
L 329.389465 284.753658 
L 330.882441 284.875703 
L 333.868395 284.770733 
L 339.840301 284.238985 
L 341.333278 284.259918 
L 344.319231 284.644178 
L 347.305184 285.332683 
L 351.784114 286.478453 
L 354.770067 286.990728 
L 357.75602 287.086369 
L 366.71388 286.708977 
L 368.206856 286.872753 
L 369.699833 287.18393 
L 371.192809 287.646554 
L 374.178763 288.917523 
L 381.643645 292.661696 
L 383.136622 293.220696 
L 386.122575 293.948018 
L 393.587458 295.223768 
L 395.080435 295.723557 
L 396.573411 296.41226 
L 398.066388 297.335548 
L 399.559365 298.480968 
L 402.545318 301.263763 
L 407.024247 305.870398 
L 408.517224 307.251075 
L 410.010201 308.414447 
L 411.503177 309.267744 
L 412.996154 309.780216 
L 414.48913 310.002356 
L 415.982107 309.99683 
L 418.96806 309.572271 
L 421.954013 309.048273 
L 423.44699 308.913737 
L 424.939967 308.950361 
L 426.432943 309.199847 
L 427.92592 309.632059 
L 430.911873 310.871091 
L 435.390803 312.971683 
L 436.883779 313.530955 
L 438.376756 313.925842 
L 439.869732 314.106304 
L 441.362709 314.093891 
L 444.348662 313.731839 
L 447.334615 313.324868 
L 448.827592 313.252836 
L 450.320569 313.346788 
L 451.813545 313.667616 
L 453.306522 314.279656 
L 454.799498 315.200146 
L 456.292475 316.380423 
L 459.278428 319.297368 
L 463.757358 324.038611 
L 465.250334 325.366799 
L 466.743311 326.389438 
L 468.236288 327.024194 
L 469.729264 327.311085 
L 471.222241 327.325034 
L 474.208194 326.861588 
L 477.194147 326.294005 
L 478.687124 326.17161 
L 480.1801 326.261892 
L 481.673077 326.640783 
L 483.166054 327.332035 
L 484.65903 328.333023 
L 486.152007 329.646801 
L 487.644983 331.282629 
L 489.13796 333.256576 
L 490.630936 335.592659 
L 492.123913 338.3247 
L 493.61689 341.49924 
L 495.109866 345.17949 
L 496.602843 349.422155 
L 498.095819 354.257286 
L 499.588796 359.714543 
L 501.081773 365.819095 
L 502.574749 372.578209 
L 505.560702 387.818401 
L 508.546656 403.443311 
L 510.039632 409.679678 
L 511.532609 413.993501 
L 513.025585 416.148318 
L 514.518562 416.266966 
L 516.011538 414.786404 
L 517.504515 412.290916 
L 520.490468 406.428617 
L 521.983445 403.890886 
L 523.476421 401.996613 
L 524.969398 400.745768 
L 526.462375 400.022419 
L 527.955351 399.736347 
L 529.448328 399.814486 
L 530.941304 400.193892 
L 532.434281 400.816765 
L 533.927258 401.626683 
L 536.913211 403.571633 
L 539.899164 405.507823 
L 541.39214 406.28355 
L 542.885117 406.819573 
L 544.378094 407.030505 
L 545.87107 406.835699 
L 547.364047 406.165969 
L 548.857023 404.970481 
L 550.35 403.222334 
L 550.35 403.222334 
" clip-path="url(#p0f446b6713)" style="fill: none; stroke-dasharray: 7.4,3.2; stroke-dashoffset: 0; stroke: #008000; stroke-width: 2"/>
   </g>
   <g id="line2d_73">
    <path d="M 103.95 230.586049 
L 130.823579 233.729927 
L 156.204181 236.926804 
L 178.598829 239.960034 
L 199.500502 242.998594 
L 218.909197 246.026792 
L 238.317893 249.285025 
L 256.233612 252.529369 
L 272.656355 255.735513 
L 287.58612 258.873857 
L 301.02291 261.909078 
L 314.459699 265.175444 
L 326.403512 268.303539 
L 338.347324 271.677721 
L 348.798161 274.86479 
L 359.248997 278.307699 
L 368.206856 281.495945 
L 377.164716 284.940227 
L 384.629599 288.03797 
L 392.094482 291.376862 
L 399.559365 294.997641 
L 405.531271 298.131698 
L 411.503177 301.51282 
L 417.475084 305.183318 
L 421.954013 308.158133 
L 426.432943 311.354644 
L 430.911873 314.808575 
L 435.390803 318.565045 
L 439.869732 322.68219 
L 442.855686 325.664198 
L 445.841639 328.869017 
L 448.827592 332.332649 
L 451.813545 336.1006 
L 454.799498 340.231541 
L 457.785452 344.802939 
L 460.771405 349.920055 
L 463.757358 355.73107 
L 466.743311 362.454142 
L 468.236288 366.25696 
L 469.729264 370.429851 
L 471.222241 375.052687 
L 472.715217 380.234359 
L 474.208194 386.128796 
L 475.701171 392.963844 
L 477.194147 401.097771 
L 478.687124 411.142841 
L 480.1801 424.282135 
L 480.863919 433 
L 480.863919 433 
" clip-path="url(#p0f446b6713)" style="fill: none; stroke-dasharray: 7.4,3.2; stroke-dashoffset: 0; stroke: #008000; stroke-width: 2"/>
   </g>
   <g id="line2d_74">
    <defs>
     <path id="mcdfd139626" d="M 0 3 
C 0.795609 3 1.55874 2.683901 2.12132 2.12132 
C 2.683901 1.55874 3 0.795609 3 0 
C 3 -0.795609 2.683901 -1.55874 2.12132 -2.12132 
C 1.55874 -2.683901 0.795609 -3 0 -3 
C -0.795609 -3 -1.55874 -2.683901 -2.12132 -2.12132 
C -2.683901 -1.55874 -3 -0.795609 -3 0 
C -3 0.795609 -2.683901 1.55874 -2.12132 2.12132 
C -1.55874 2.683901 -0.795609 3 0 3 
z
" style="stroke: #0000ff"/>
    </defs>
    <g clip-path="url(#p0f446b6713)">
     <use xlink:href="#mcdfd139626" x="103.95" y="206.042552" style="fill: #0000ff; stroke: #0000ff"/>
     <use xlink:href="#mcdfd139626" x="117.9" y="206.478197" style="fill: #0000ff; stroke: #0000ff"/>
     <use xlink:href="#mcdfd139626" x="131.85" y="236.221624" style="fill: #0000ff; stroke: #0000ff"/>
     <use xlink:href="#mcdfd139626" x="145.8" y="236.221624" style="fill: #0000ff; stroke: #0000ff"/>
     <use xlink:href="#mcdfd139626" x="159.75" y="239.875804" style="fill: #0000ff; stroke: #0000ff"/>
     <use xlink:href="#mcdfd139626" x="173.7" y="246.016361" style="fill: #0000ff; stroke: #0000ff"/>
     <use xlink:href="#mcdfd139626" x="187.65" y="250.659881" style="fill: #0000ff; stroke: #0000ff"/>
     <use xlink:href="#mcdfd139626" x="201.6" y="258.729333" style="fill: #0000ff; stroke: #0000ff"/>
     <use xlink:href="#mcdfd139626" x="215.55" y="260.235125" style="fill: #0000ff; stroke: #0000ff"/>
     <use xlink:href="#mcdfd139626" x="229.5" y="261.795686" style="fill: #0000ff; stroke: #0000ff"/>
     <use xlink:href="#mcdfd139626" x="243.45" y="265.098138" style="fill: #0000ff; stroke: #0000ff"/>
     <use xlink:href="#mcdfd139626" x="257.4" y="272.579763" style="fill: #0000ff; stroke: #0000ff"/>
     <use xlink:href="#mcdfd139626" x="271.35" y="274.673383" style="fill: #0000ff; stroke: #0000ff"/>
     <use xlink:href="#mcdfd139626" x="285.3" y="276.874414" style="fill: #0000ff; stroke: #0000ff"/>
     <use xlink:href="#mcdfd139626" x="299.25" y="276.874414" style="fill: #0000ff; stroke: #0000ff"/>
     <use xlink:href="#mcdfd139626" x="313.2" y="276.874414" style="fill: #0000ff; stroke: #0000ff"/>
     <use xlink:href="#mcdfd139626" x="327.15" y="284.248627" style="fill: #0000ff; stroke: #0000ff"/>
     <use xlink:href="#mcdfd139626" x="341.1" y="284.248627" style="fill: #0000ff; stroke: #0000ff"/>
     <use xlink:href="#mcdfd139626" x="355.05" y="287.01802" style="fill: #0000ff; stroke: #0000ff"/>
     <use xlink:href="#mcdfd139626" x="369" y="287.01802" style="fill: #0000ff; stroke: #0000ff"/>
     <use xlink:href="#mcdfd139626" x="382.95" y="293.158577" style="fill: #0000ff; stroke: #0000ff"/>
     <use xlink:href="#mcdfd139626" x="396.9" y="296.593265" style="fill: #0000ff; stroke: #0000ff"/>
     <use xlink:href="#mcdfd139626" x="410.85" y="308.937902" style="fill: #0000ff; stroke: #0000ff"/>
     <use xlink:href="#mcdfd139626" x="424.8" y="308.937902" style="fill: #0000ff; stroke: #0000ff"/>
     <use xlink:href="#mcdfd139626" x="438.75" y="313.992054" style="fill: #0000ff; stroke: #0000ff"/>
     <use xlink:href="#mcdfd139626" x="452.7" y="313.992054" style="fill: #0000ff; stroke: #0000ff"/>
     <use xlink:href="#mcdfd139626" x="466.65" y="326.336691" style="fill: #0000ff; stroke: #0000ff"/>
     <use xlink:href="#mcdfd139626" x="480.6" y="326.336691" style="fill: #0000ff; stroke: #0000ff"/>
     <use xlink:href="#mcdfd139626" x="494.55" y="343.735481" style="fill: #0000ff; stroke: #0000ff"/>
     <use xlink:href="#mcdfd139626" x="508.5" y="403.222334" style="fill: #0000ff; stroke: #0000ff"/>
     <use xlink:href="#mcdfd139626" x="522.45" y="403.222334" style="fill: #0000ff; stroke: #0000ff"/>
     <use xlink:href="#mcdfd139626" x="536.4" y="403.222334" style="fill: #0000ff; stroke: #0000ff"/>
     <use xlink:href="#mcdfd139626" x="550.35" y="403.222334" style="fill: #0000ff; stroke: #0000ff"/>
    </g>
   </g>
   <g id="patch_3">
    <path d="M 90 378 
L 90 51.84 
" style="fill: none; stroke: #000000; stroke-width: 0.8; stroke-linejoin: miter; stroke-linecap: square"/>
   </g>
   <g id="patch_4">
    <path d="M 648 378 
L 648 51.84 
" style="fill: none; stroke: #000000; stroke-width: 0.8; stroke-linejoin: miter; stroke-linecap: square"/>
   </g>
   <g id="patch_5">
    <path d="M 90 378 
L 648 378 
" style="fill: none; stroke: #000000; stroke-width: 0.8; stroke-linejoin: miter; stroke-linecap: square"/>
   </g>
   <g id="patch_6">
    <path d="M 90 51.84 
L 648 51.84 
" style="fill: none; stroke: #000000; stroke-width: 0.8; stroke-linejoin: miter; stroke-linecap: square"/>
   </g>
   <g id="text_16">
    <!-- Average Pellet Count vs Price Paid by Subject -->
    <g transform="translate(233.11875 45.84)scale(0.12 -0.12)">
     <defs>
      <path id="DejaVuSans-73" d="M 2834 3397 
L 2834 2853 
Q 2591 2978 2328 3040 
Q 2066 3103 1784 3103 
Q 1356 3103 1142 2972 
Q 928 2841 928 2578 
Q 928 2378 1081 2264 
Q 1234 2150 1697 2047 
L 1894 2003 
Q 2506 1872 2764 1633 
Q 3022 1394 3022 966 
Q 3022 478 2636 193 
Q 2250 -91 1575 -91 
Q 1294 -91 989 -36 
Q 684 19 347 128 
L 347 722 
Q 666 556 975 473 
Q 1284 391 1588 391 
Q 1994 391 2212 530 
Q 2431 669 2431 922 
Q 2431 1156 2273 1281 
Q 2116 1406 1581 1522 
L 1381 1569 
Q 847 1681 609 1914 
Q 372 2147 372 2553 
Q 372 3047 722 3315 
Q 1072 3584 1716 3584 
Q 2034 3584 2315 3537 
Q 2597 3491 2834 3397 
z
" transform="scale(0.015625)"/>
      <path id="DejaVuSans-62" d="M 3116 1747 
Q 3116 2381 2855 2742 
Q 2594 3103 2138 3103 
Q 1681 3103 1420 2742 
Q 1159 2381 1159 1747 
Q 1159 1113 1420 752 
Q 1681 391 2138 391 
Q 2594 391 2855 752 
Q 3116 1113 3116 1747 
z
M 1159 2969 
Q 1341 3281 1617 3432 
Q 1894 3584 2278 3584 
Q 2916 3584 3314 3078 
Q 3713 2572 3713 1747 
Q 3713 922 3314 415 
Q 2916 -91 2278 -91 
Q 1894 -91 1617 61 
Q 1341 213 1159 525 
L 1159 0 
L 581 0 
L 581 4863 
L 1159 4863 
L 1159 2969 
z
" transform="scale(0.015625)"/>
      <path id="DejaVuSans-79" d="M 2059 -325 
Q 1816 -950 1584 -1140 
Q 1353 -1331 966 -1331 
L 506 -1331 
L 506 -850 
L 844 -850 
Q 1081 -850 1212 -737 
Q 1344 -625 1503 -206 
L 1606 56 
L 191 3500 
L 800 3500 
L 1894 763 
L 2988 3500 
L 3597 3500 
L 2059 -325 
z
" transform="scale(0.015625)"/>
      <path id="DejaVuSans-53" d="M 3425 4513 
L 3425 3897 
Q 3066 4069 2747 4153 
Q 2428 4238 2131 4238 
Q 1616 4238 1336 4038 
Q 1056 3838 1056 3469 
Q 1056 3159 1242 3001 
Q 1428 2844 1947 2747 
L 2328 2669 
Q 3034 2534 3370 2195 
Q 3706 1856 3706 1288 
Q 3706 609 3251 259 
Q 2797 -91 1919 -91 
Q 1588 -91 1214 -16 
Q 841 59 441 206 
L 441 856 
Q 825 641 1194 531 
Q 1563 422 1919 422 
Q 2459 422 2753 634 
Q 3047 847 3047 1241 
Q 3047 1584 2836 1778 
Q 2625 1972 2144 2069 
L 1759 2144 
Q 1053 2284 737 2584 
Q 422 2884 422 3419 
Q 422 4038 858 4394 
Q 1294 4750 2059 4750 
Q 2388 4750 2728 4690 
Q 3069 4631 3425 4513 
z
" transform="scale(0.015625)"/>
      <path id="DejaVuSans-6a" d="M 603 3500 
L 1178 3500 
L 1178 -63 
Q 1178 -731 923 -1031 
Q 669 -1331 103 -1331 
L -116 -1331 
L -116 -844 
L 38 -844 
Q 366 -844 484 -692 
Q 603 -541 603 -63 
L 603 3500 
z
M 603 4863 
L 1178 4863 
L 1178 4134 
L 603 4134 
L 603 4863 
z
" transform="scale(0.015625)"/>
     </defs>
     <use xlink:href="#DejaVuSans-41"/>
     <use xlink:href="#DejaVuSans-76" x="62.533203"/>
     <use xlink:href="#DejaVuSans-65" x="121.712891"/>
     <use xlink:href="#DejaVuSans-72" x="183.236328"/>
     <use xlink:href="#DejaVuSans-61" x="224.349609"/>
     <use xlink:href="#DejaVuSans-67" x="285.628906"/>
     <use xlink:href="#DejaVuSans-65" x="349.105469"/>
     <use xlink:href="#DejaVuSans-20" x="410.628906"/>
     <use xlink:href="#DejaVuSans-50" x="442.416016"/>
     <use xlink:href="#DejaVuSans-65" x="499.09375"/>
     <use xlink:href="#DejaVuSans-6c" x="560.617188"/>
     <use xlink:href="#DejaVuSans-6c" x="588.400391"/>
     <use xlink:href="#DejaVuSans-65" x="616.183594"/>
     <use xlink:href="#DejaVuSans-74" x="677.707031"/>
     <use xlink:href="#DejaVuSans-20" x="716.916016"/>
     <use xlink:href="#DejaVuSans-43" x="748.703125"/>
     <use xlink:href="#DejaVuSans-6f" x="818.527344"/>
     <use xlink:href="#DejaVuSans-75" x="879.708984"/>
     <use xlink:href="#DejaVuSans-6e" x="943.087891"/>
     <use xlink:href="#DejaVuSans-74" x="1006.466797"/>
     <use xlink:href="#DejaVuSans-20" x="1045.675781"/>
     <use xlink:href="#DejaVuSans-76" x="1077.462891"/>
     <use xlink:href="#DejaVuSans-73" x="1136.642578"/>
     <use xlink:href="#DejaVuSans-20" x="1188.742188"/>
     <use xlink:href="#DejaVuSans-50" x="1220.529297"/>
     <use xlink:href="#DejaVuSans-72" x="1279.082031"/>
     <use xlink:href="#DejaVuSans-69" x="1320.195312"/>
     <use xlink:href="#DejaVuSans-63" x="1347.978516"/>
     <use xlink:href="#DejaVuSans-65" x="1402.958984"/>
     <use xlink:href="#DejaVuSans-20" x="1464.482422"/>
     <use xlink:href="#DejaVuSans-50" x="1496.269531"/>
     <use xlink:href="#DejaVuSans-61" x="1552.072266"/>
     <use xlink:href="#DejaVuSans-69" x="1613.351562"/>
     <use xlink:href="#DejaVuSans-64" x="1641.134766"/>
     <use xlink:href="#DejaVuSans-20" x="1704.611328"/>
     <use xlink:href="#DejaVuSans-62" x="1736.398438"/>
     <use xlink:href="#DejaVuSans-79" x="1799.875"/>
     <use xlink:href="#DejaVuSans-20" x="1859.054688"/>
     <use xlink:href="#DejaVuSans-53" x="1890.841797"/>
     <use xlink:href="#DejaVuSans-75" x="1954.318359"/>
     <use xlink:href="#DejaVuSans-62" x="2017.697266"/>
     <use xlink:href="#DejaVuSans-6a" x="2081.173828"/>
     <use xlink:href="#DejaVuSans-65" x="2108.957031"/>
     <use xlink:href="#DejaVuSans-63" x="2170.480469"/>
     <use xlink:href="#DejaVuSans-74" x="2225.460938"/>
    </g>
   </g>
  </g>
 </g>
 <defs>
  <clipPath id="p0f446b6713">
   <rect x="90" y="51.84" width="558" height="326.16"/>
  </clipPath>
 </defs>
</svg>
