<?xml version="1.0" encoding="utf-8" standalone="no"?>
<!DOCTYPE svg PUBLIC "-//W3C//DTD SVG 1.1//EN"
  "http://www.w3.org/Graphics/SVG/1.1/DTD/svg11.dtd">
<svg xmlns:xlink="http://www.w3.org/1999/xlink" width="864pt" height="504pt" viewBox="0 0 864 504" xmlns="http://www.w3.org/2000/svg" version="1.1">
 <metadata>
  <rdf:RDF xmlns:dc="http://purl.org/dc/elements/1.1/" xmlns:cc="http://creativecommons.org/ns#" xmlns:rdf="http://www.w3.org/1999/02/22-rdf-syntax-ns#">
   <cc:Work>
    <dc:type rdf:resource="http://purl.org/dc/dcmitype/StillImage"/>
    <dc:date>2025-01-25T15:24:13.103353</dc:date>
    <dc:format>image/svg+xml</dc:format>
    <dc:creator>
     <cc:Agent>
      <dc:title>Matplotlib v3.5.1, https://matplotlib.org/</dc:title>
     </cc:Agent>
    </dc:creator>
   </cc:Work>
  </rdf:RDF>
 </metadata>
 <defs>
  <style type="text/css">*{stroke-linejoin: round; stroke-linecap: butt}</style>
 </defs>
 <g id="figure_1">
  <g id="patch_1">
   <path d="M 0 504 
L 864 504 
L 864 0 
L 0 0 
z
" style="fill: #ffffff"/>
  </g>
  <g id="axes_1">
   <g id="patch_2">
    <path d="M 108 441 
L 777.6 441 
L 777.6 60.48 
L 108 60.48 
z
" style="fill: #ffffff"/>
   </g>
   <g id="patch_3">
    <path d="M 219.375229 441 
L 225.927275 441 
L 225.927275 290.528213 
L 219.375229 290.528213 
z
" clip-path="url(#p57d70c3c05)" style="fill: #1f77b4; opacity: 0.5; stroke: #000000; stroke-linejoin: miter"/>
   </g>
   <g id="patch_4">
    <path d="M 232.479321 441 
L 239.031367 441 
L 239.031367 441 
L 232.479321 441 
z
" clip-path="url(#p57d70c3c05)" style="fill: #1f77b4; opacity: 0.5; stroke: #000000; stroke-linejoin: miter"/>
   </g>
   <g id="patch_5">
    <path d="M 245.583413 441 
L 252.135459 441 
L 252.135459 441 
L 245.583413 441 
z
" clip-path="url(#p57d70c3c05)" style="fill: #1f77b4; opacity: 0.5; stroke: #000000; stroke-linejoin: miter"/>
   </g>
   <g id="patch_6">
    <path d="M 258.687505 441 
L 265.239551 441 
L 265.239551 441 
L 258.687505 441 
z
" clip-path="url(#p57d70c3c05)" style="fill: #1f77b4; opacity: 0.5; stroke: #000000; stroke-linejoin: miter"/>
   </g>
   <g id="patch_7">
    <path d="M 271.791597 441 
L 278.343643 441 
L 278.343643 441 
L 271.791597 441 
z
" clip-path="url(#p57d70c3c05)" style="fill: #1f77b4; opacity: 0.5; stroke: #000000; stroke-linejoin: miter"/>
   </g>
   <g id="patch_8">
    <path d="M 284.895689 441 
L 291.447736 441 
L 291.447736 252.910266 
L 284.895689 252.910266 
z
" clip-path="url(#p57d70c3c05)" style="fill: #1f77b4; opacity: 0.5; stroke: #000000; stroke-linejoin: miter"/>
   </g>
   <g id="patch_9">
    <path d="M 297.999782 441 
L 304.551828 441 
L 304.551828 296.315589 
L 297.999782 296.315589 
z
" clip-path="url(#p57d70c3c05)" style="fill: #1f77b4; opacity: 0.5; stroke: #000000; stroke-linejoin: miter"/>
   </g>
   <g id="patch_10">
    <path d="M 311.103874 441 
L 317.65592 441 
L 317.65592 195.036502 
L 311.103874 195.036502 
z
" clip-path="url(#p57d70c3c05)" style="fill: #1f77b4; opacity: 0.5; stroke: #000000; stroke-linejoin: miter"/>
   </g>
   <g id="patch_11">
    <path d="M 324.207966 441 
L 330.760012 441 
L 330.760012 276.059772 
L 324.207966 276.059772 
z
" clip-path="url(#p57d70c3c05)" style="fill: #1f77b4; opacity: 0.5; stroke: #000000; stroke-linejoin: miter"/>
   </g>
   <g id="patch_12">
    <path d="M 337.312058 441 
L 343.864104 441 
L 343.864104 354.189354 
L 337.312058 354.189354 
z
" clip-path="url(#p57d70c3c05)" style="fill: #1f77b4; opacity: 0.5; stroke: #000000; stroke-linejoin: miter"/>
   </g>
   <g id="patch_13">
    <path d="M 350.41615 441 
L 356.968196 441 
L 356.968196 362.870418 
L 350.41615 362.870418 
z
" clip-path="url(#p57d70c3c05)" style="fill: #1f77b4; opacity: 0.5; stroke: #000000; stroke-linejoin: miter"/>
   </g>
   <g id="patch_14">
    <path d="M 363.520242 441 
L 370.072289 441 
L 370.072289 281.847148 
L 363.520242 281.847148 
z
" clip-path="url(#p57d70c3c05)" style="fill: #1f77b4; opacity: 0.5; stroke: #000000; stroke-linejoin: miter"/>
   </g>
   <g id="patch_15">
    <path d="M 376.624335 441 
L 383.176381 441 
L 383.176381 310.78403 
L 376.624335 310.78403 
z
" clip-path="url(#p57d70c3c05)" style="fill: #1f77b4; opacity: 0.5; stroke: #000000; stroke-linejoin: miter"/>
   </g>
   <g id="patch_16">
    <path d="M 389.728427 441 
L 396.280473 441 
L 396.280473 397.594677 
L 389.728427 397.594677 
z
" clip-path="url(#p57d70c3c05)" style="fill: #1f77b4; opacity: 0.5; stroke: #000000; stroke-linejoin: miter"/>
   </g>
   <g id="patch_17">
    <path d="M 402.832519 441 
L 409.384565 441 
L 409.384565 348.401977 
L 402.832519 348.401977 
z
" clip-path="url(#p57d70c3c05)" style="fill: #1f77b4; opacity: 0.5; stroke: #000000; stroke-linejoin: miter"/>
   </g>
   <g id="patch_18">
    <path d="M 415.936611 441 
L 422.488657 441 
L 422.488657 441 
L 415.936611 441 
z
" clip-path="url(#p57d70c3c05)" style="fill: #1f77b4; opacity: 0.5; stroke: #000000; stroke-linejoin: miter"/>
   </g>
   <g id="patch_19">
    <path d="M 429.040703 441 
L 435.592749 441 
L 435.592749 354.189354 
L 429.040703 354.189354 
z
" clip-path="url(#p57d70c3c05)" style="fill: #1f77b4; opacity: 0.5; stroke: #000000; stroke-linejoin: miter"/>
   </g>
   <g id="patch_20">
    <path d="M 442.144795 441 
L 448.696841 441 
L 448.696841 281.847148 
L 442.144795 281.847148 
z
" clip-path="url(#p57d70c3c05)" style="fill: #1f77b4; opacity: 0.5; stroke: #000000; stroke-linejoin: miter"/>
   </g>
   <g id="patch_21">
    <path d="M 455.248888 441 
L 461.800934 441 
L 461.800934 441 
L 455.248888 441 
z
" clip-path="url(#p57d70c3c05)" style="fill: #1f77b4; opacity: 0.5; stroke: #000000; stroke-linejoin: miter"/>
   </g>
   <g id="patch_22">
    <path d="M 468.35298 441 
L 474.905026 441 
L 474.905026 397.594677 
L 468.35298 397.594677 
z
" clip-path="url(#p57d70c3c05)" style="fill: #1f77b4; opacity: 0.5; stroke: #000000; stroke-linejoin: miter"/>
   </g>
   <g id="patch_23">
    <path d="M 481.457072 441 
L 488.009118 441 
L 488.009118 441 
L 481.457072 441 
z
" clip-path="url(#p57d70c3c05)" style="fill: #1f77b4; opacity: 0.5; stroke: #000000; stroke-linejoin: miter"/>
   </g>
   <g id="patch_24">
    <path d="M 494.561164 441 
L 501.11321 441 
L 501.11321 325.252471 
L 494.561164 325.252471 
z
" clip-path="url(#p57d70c3c05)" style="fill: #1f77b4; opacity: 0.5; stroke: #000000; stroke-linejoin: miter"/>
   </g>
   <g id="patch_25">
    <path d="M 507.665256 441 
L 514.217302 441 
L 514.217302 406.275741 
L 507.665256 406.275741 
z
" clip-path="url(#p57d70c3c05)" style="fill: #1f77b4; opacity: 0.5; stroke: #000000; stroke-linejoin: miter"/>
   </g>
   <g id="patch_26">
    <path d="M 520.769348 441 
L 527.321394 441 
L 527.321394 238.441825 
L 520.769348 238.441825 
z
" clip-path="url(#p57d70c3c05)" style="fill: #1f77b4; opacity: 0.5; stroke: #000000; stroke-linejoin: miter"/>
   </g>
   <g id="patch_27">
    <path d="M 533.87344 441 
L 540.425487 441 
L 540.425487 441 
L 533.87344 441 
z
" clip-path="url(#p57d70c3c05)" style="fill: #1f77b4; opacity: 0.5; stroke: #000000; stroke-linejoin: miter"/>
   </g>
   <g id="patch_28">
    <path d="M 546.977533 441 
L 553.529579 441 
L 553.529579 441 
L 546.977533 441 
z
" clip-path="url(#p57d70c3c05)" style="fill: #1f77b4; opacity: 0.5; stroke: #000000; stroke-linejoin: miter"/>
   </g>
   <g id="patch_29">
    <path d="M 560.081625 441 
L 566.633671 441 
L 566.633671 441 
L 560.081625 441 
z
" clip-path="url(#p57d70c3c05)" style="fill: #1f77b4; opacity: 0.5; stroke: #000000; stroke-linejoin: miter"/>
   </g>
   <g id="patch_30">
    <path d="M 573.185717 441 
L 579.737763 441 
L 579.737763 354.189354 
L 573.185717 354.189354 
z
" clip-path="url(#p57d70c3c05)" style="fill: #1f77b4; opacity: 0.5; stroke: #000000; stroke-linejoin: miter"/>
   </g>
   <g id="patch_31">
    <path d="M 586.289809 441 
L 592.841855 441 
L 592.841855 180.568061 
L 586.289809 180.568061 
z
" clip-path="url(#p57d70c3c05)" style="fill: #1f77b4; opacity: 0.5; stroke: #000000; stroke-linejoin: miter"/>
   </g>
   <g id="patch_32">
    <path d="M 599.393901 441 
L 605.945947 441 
L 605.945947 223.973384 
L 599.393901 223.973384 
z
" clip-path="url(#p57d70c3c05)" style="fill: #1f77b4; opacity: 0.5; stroke: #000000; stroke-linejoin: miter"/>
   </g>
   <g id="patch_33">
    <path d="M 612.497993 441 
L 619.05004 441 
L 619.05004 180.568061 
L 612.497993 180.568061 
z
" clip-path="url(#p57d70c3c05)" style="fill: #1f77b4; opacity: 0.5; stroke: #000000; stroke-linejoin: miter"/>
   </g>
   <g id="patch_34">
    <path d="M 625.602086 441 
L 632.154132 441 
L 632.154132 441 
L 625.602086 441 
z
" clip-path="url(#p57d70c3c05)" style="fill: #1f77b4; opacity: 0.5; stroke: #000000; stroke-linejoin: miter"/>
   </g>
   <g id="patch_35">
    <path d="M 638.706178 441 
L 645.258224 441 
L 645.258224 441 
L 638.706178 441 
z
" clip-path="url(#p57d70c3c05)" style="fill: #1f77b4; opacity: 0.5; stroke: #000000; stroke-linejoin: miter"/>
   </g>
   <g id="patch_36">
    <path d="M 651.81027 441 
L 658.362316 441 
L 658.362316 441 
L 651.81027 441 
z
" clip-path="url(#p57d70c3c05)" style="fill: #1f77b4; opacity: 0.5; stroke: #000000; stroke-linejoin: miter"/>
   </g>
   <g id="patch_37">
    <path d="M 664.914362 441 
L 671.466408 441 
L 671.466408 267.378707 
L 664.914362 267.378707 
z
" clip-path="url(#p57d70c3c05)" style="fill: #1f77b4; opacity: 0.5; stroke: #000000; stroke-linejoin: miter"/>
   </g>
   <g id="patch_38">
    <path d="M 219.375229 441 
L 225.927275 441 
L 225.927275 78.6 
L 219.375229 78.6 
z
" clip-path="url(#p57d70c3c05)" style="fill: #ff7f0e; opacity: 0.5; stroke: #000000; stroke-linejoin: miter"/>
   </g>
   <g id="patch_39">
    <path d="M 232.479321 441 
L 239.031367 441 
L 239.031367 441 
L 232.479321 441 
z
" clip-path="url(#p57d70c3c05)" style="fill: #ff7f0e; opacity: 0.5; stroke: #000000; stroke-linejoin: miter"/>
   </g>
   <g id="patch_40">
    <path d="M 245.583413 441 
L 252.135459 441 
L 252.135459 343.854753 
L 245.583413 343.854753 
z
" clip-path="url(#p57d70c3c05)" style="fill: #ff7f0e; opacity: 0.5; stroke: #000000; stroke-linejoin: miter"/>
   </g>
   <g id="patch_41">
    <path d="M 258.687505 441 
L 265.239551 441 
L 265.239551 281.847148 
L 258.687505 281.847148 
z
" clip-path="url(#p57d70c3c05)" style="fill: #ff7f0e; opacity: 0.5; stroke: #000000; stroke-linejoin: miter"/>
   </g>
   <g id="patch_42">
    <path d="M 271.791597 441 
L 278.343643 441 
L 278.343643 238.441825 
L 271.791597 238.441825 
z
" clip-path="url(#p57d70c3c05)" style="fill: #ff7f0e; opacity: 0.5; stroke: #000000; stroke-linejoin: miter"/>
   </g>
   <g id="patch_43">
    <path d="M 284.895689 441 
L 291.447736 441 
L 291.447736 223.973384 
L 284.895689 223.973384 
z
" clip-path="url(#p57d70c3c05)" style="fill: #ff7f0e; opacity: 0.5; stroke: #000000; stroke-linejoin: miter"/>
   </g>
   <g id="patch_44">
    <path d="M 297.999782 441 
L 304.551828 441 
L 304.551828 387.260076 
L 297.999782 387.260076 
z
" clip-path="url(#p57d70c3c05)" style="fill: #ff7f0e; opacity: 0.5; stroke: #000000; stroke-linejoin: miter"/>
   </g>
   <g id="patch_45">
    <path d="M 311.103874 441 
L 317.65592 441 
L 317.65592 199.170342 
L 311.103874 199.170342 
z
" clip-path="url(#p57d70c3c05)" style="fill: #ff7f0e; opacity: 0.5; stroke: #000000; stroke-linejoin: miter"/>
   </g>
   <g id="patch_46">
    <path d="M 324.207966 441 
L 330.760012 441 
L 330.760012 241.886692 
L 324.207966 241.886692 
z
" clip-path="url(#p57d70c3c05)" style="fill: #ff7f0e; opacity: 0.5; stroke: #000000; stroke-linejoin: miter"/>
   </g>
   <g id="patch_47">
    <path d="M 337.312058 441 
L 343.864104 441 
L 343.864104 296.315589 
L 337.312058 296.315589 
z
" clip-path="url(#p57d70c3c05)" style="fill: #ff7f0e; opacity: 0.5; stroke: #000000; stroke-linejoin: miter"/>
   </g>
   <g id="patch_48">
    <path d="M 350.41615 441 
L 356.968196 441 
L 356.968196 291.492776 
L 350.41615 291.492776 
z
" clip-path="url(#p57d70c3c05)" style="fill: #ff7f0e; opacity: 0.5; stroke: #000000; stroke-linejoin: miter"/>
   </g>
   <g id="patch_49">
    <path d="M 363.520242 441 
L 370.072289 441 
L 370.072289 108.225856 
L 363.520242 108.225856 
z
" clip-path="url(#p57d70c3c05)" style="fill: #ff7f0e; opacity: 0.5; stroke: #000000; stroke-linejoin: miter"/>
   </g>
   <g id="patch_50">
    <path d="M 376.624335 441 
L 383.176381 441 
L 383.176381 416.196958 
L 376.624335 416.196958 
z
" clip-path="url(#p57d70c3c05)" style="fill: #ff7f0e; opacity: 0.5; stroke: #000000; stroke-linejoin: miter"/>
   </g>
   <g id="patch_51">
    <path d="M 389.728427 441 
L 396.280473 441 
L 396.280473 354.189354 
L 389.728427 354.189354 
z
" clip-path="url(#p57d70c3c05)" style="fill: #ff7f0e; opacity: 0.5; stroke: #000000; stroke-linejoin: miter"/>
   </g>
   <g id="patch_52">
    <path d="M 402.832519 441 
L 409.384565 441 
L 409.384565 397.594677 
L 402.832519 397.594677 
z
" clip-path="url(#p57d70c3c05)" style="fill: #ff7f0e; opacity: 0.5; stroke: #000000; stroke-linejoin: miter"/>
   </g>
   <g id="patch_53">
    <path d="M 415.936611 441 
L 422.488657 441 
L 422.488657 354.189354 
L 415.936611 354.189354 
z
" clip-path="url(#p57d70c3c05)" style="fill: #ff7f0e; opacity: 0.5; stroke: #000000; stroke-linejoin: miter"/>
   </g>
   <g id="patch_54">
    <path d="M 429.040703 441 
L 435.592749 441 
L 435.592749 339.720913 
L 429.040703 339.720913 
z
" clip-path="url(#p57d70c3c05)" style="fill: #ff7f0e; opacity: 0.5; stroke: #000000; stroke-linejoin: miter"/>
   </g>
   <g id="patch_55">
    <path d="M 442.144795 441 
L 448.696841 441 
L 448.696841 209.504943 
L 442.144795 209.504943 
z
" clip-path="url(#p57d70c3c05)" style="fill: #ff7f0e; opacity: 0.5; stroke: #000000; stroke-linejoin: miter"/>
   </g>
   <g id="patch_56">
    <path d="M 455.248888 441 
L 461.800934 441 
L 461.800934 441 
L 455.248888 441 
z
" clip-path="url(#p57d70c3c05)" style="fill: #ff7f0e; opacity: 0.5; stroke: #000000; stroke-linejoin: miter"/>
   </g>
   <g id="patch_57">
    <path d="M 468.35298 441 
L 474.905026 441 
L 474.905026 310.78403 
L 468.35298 310.78403 
z
" clip-path="url(#p57d70c3c05)" style="fill: #ff7f0e; opacity: 0.5; stroke: #000000; stroke-linejoin: miter"/>
   </g>
   <g id="patch_58">
    <path d="M 481.457072 441 
L 488.009118 441 
L 488.009118 267.378707 
L 481.457072 267.378707 
z
" clip-path="url(#p57d70c3c05)" style="fill: #ff7f0e; opacity: 0.5; stroke: #000000; stroke-linejoin: miter"/>
   </g>
   <g id="patch_59">
    <path d="M 494.561164 441 
L 501.11321 441 
L 501.11321 441 
L 494.561164 441 
z
" clip-path="url(#p57d70c3c05)" style="fill: #ff7f0e; opacity: 0.5; stroke: #000000; stroke-linejoin: miter"/>
   </g>
   <g id="patch_60">
    <path d="M 507.665256 441 
L 514.217302 441 
L 514.217302 441 
L 507.665256 441 
z
" clip-path="url(#p57d70c3c05)" style="fill: #ff7f0e; opacity: 0.5; stroke: #000000; stroke-linejoin: miter"/>
   </g>
   <g id="patch_61">
    <path d="M 520.769348 441 
L 527.321394 441 
L 527.321394 354.189354 
L 520.769348 354.189354 
z
" clip-path="url(#p57d70c3c05)" style="fill: #ff7f0e; opacity: 0.5; stroke: #000000; stroke-linejoin: miter"/>
   </g>
   <g id="matplotlib.axis_1">
    <g id="xtick_1">
     <g id="line2d_1">
      <path d="M 206.926341 441 
L 206.926341 60.48 
" clip-path="url(#p57d70c3c05)" style="fill: none; stroke: #b0b0b0; stroke-width: 0.8; stroke-linecap: square"/>
     </g>
     <g id="line2d_2">
      <defs>
       <path id="mff2ae22863" d="M 0 0 
L 0 3.5 
" style="stroke: #000000; stroke-width: 0.8"/>
      </defs>
      <g>
       <use xlink:href="#mff2ae22863" x="206.926341" y="441" style="stroke: #000000; stroke-width: 0.8"/>
      </g>
     </g>
     <g id="text_1">
      <!-- 0 -->
      <g transform="translate(203.745091 455.598437)scale(0.1 -0.1)">
       <defs>
        <path id="DejaVuSans-30" d="M 2034 4250 
Q 1547 4250 1301 3770 
Q 1056 3291 1056 2328 
Q 1056 1369 1301 889 
Q 1547 409 2034 409 
Q 2525 409 2770 889 
Q 3016 1369 3016 2328 
Q 3016 3291 2770 3770 
Q 2525 4250 2034 4250 
z
M 2034 4750 
Q 2819 4750 3233 4129 
Q 3647 3509 3647 2328 
Q 3647 1150 3233 529 
Q 2819 -91 2034 -91 
Q 1250 -91 836 529 
Q 422 1150 422 2328 
Q 422 3509 836 4129 
Q 1250 4750 2034 4750 
z
" transform="scale(0.015625)"/>
       </defs>
       <use xlink:href="#DejaVuSans-30"/>
      </g>
     </g>
    </g>
    <g id="xtick_2">
     <g id="line2d_3">
      <path d="M 337.967263 441 
L 337.967263 60.48 
" clip-path="url(#p57d70c3c05)" style="fill: none; stroke: #b0b0b0; stroke-width: 0.8; stroke-linecap: square"/>
     </g>
     <g id="line2d_4">
      <g>
       <use xlink:href="#mff2ae22863" x="337.967263" y="441" style="stroke: #000000; stroke-width: 0.8"/>
      </g>
     </g>
     <g id="text_2">
      <!-- 10 -->
      <g transform="translate(331.604763 455.598437)scale(0.1 -0.1)">
       <defs>
        <path id="DejaVuSans-31" d="M 794 531 
L 1825 531 
L 1825 4091 
L 703 3866 
L 703 4441 
L 1819 4666 
L 2450 4666 
L 2450 531 
L 3481 531 
L 3481 0 
L 794 0 
L 794 531 
z
" transform="scale(0.015625)"/>
       </defs>
       <use xlink:href="#DejaVuSans-31"/>
       <use xlink:href="#DejaVuSans-30" x="63.623047"/>
      </g>
     </g>
    </g>
    <g id="xtick_3">
     <g id="line2d_5">
      <path d="M 469.008184 441 
L 469.008184 60.48 
" clip-path="url(#p57d70c3c05)" style="fill: none; stroke: #b0b0b0; stroke-width: 0.8; stroke-linecap: square"/>
     </g>
     <g id="line2d_6">
      <g>
       <use xlink:href="#mff2ae22863" x="469.008184" y="441" style="stroke: #000000; stroke-width: 0.8"/>
      </g>
     </g>
     <g id="text_3">
      <!-- 20 -->
      <g transform="translate(462.645684 455.598437)scale(0.1 -0.1)">
       <defs>
        <path id="DejaVuSans-32" d="M 1228 531 
L 3431 531 
L 3431 0 
L 469 0 
L 469 531 
Q 828 903 1448 1529 
Q 2069 2156 2228 2338 
Q 2531 2678 2651 2914 
Q 2772 3150 2772 3378 
Q 2772 3750 2511 3984 
Q 2250 4219 1831 4219 
Q 1534 4219 1204 4116 
Q 875 4013 500 3803 
L 500 4441 
Q 881 4594 1212 4672 
Q 1544 4750 1819 4750 
Q 2544 4750 2975 4387 
Q 3406 4025 3406 3419 
Q 3406 3131 3298 2873 
Q 3191 2616 2906 2266 
Q 2828 2175 2409 1742 
Q 1991 1309 1228 531 
z
" transform="scale(0.015625)"/>
       </defs>
       <use xlink:href="#DejaVuSans-32"/>
       <use xlink:href="#DejaVuSans-30" x="63.623047"/>
      </g>
     </g>
    </g>
    <g id="xtick_4">
     <g id="line2d_7">
      <path d="M 600.049106 441 
L 600.049106 60.48 
" clip-path="url(#p57d70c3c05)" style="fill: none; stroke: #b0b0b0; stroke-width: 0.8; stroke-linecap: square"/>
     </g>
     <g id="line2d_8">
      <g>
       <use xlink:href="#mff2ae22863" x="600.049106" y="441" style="stroke: #000000; stroke-width: 0.8"/>
      </g>
     </g>
     <g id="text_4">
      <!-- 30 -->
      <g transform="translate(593.686606 455.598437)scale(0.1 -0.1)">
       <defs>
        <path id="DejaVuSans-33" d="M 2597 2516 
Q 3050 2419 3304 2112 
Q 3559 1806 3559 1356 
Q 3559 666 3084 287 
Q 2609 -91 1734 -91 
Q 1441 -91 1130 -33 
Q 819 25 488 141 
L 488 750 
Q 750 597 1062 519 
Q 1375 441 1716 441 
Q 2309 441 2620 675 
Q 2931 909 2931 1356 
Q 2931 1769 2642 2001 
Q 2353 2234 1838 2234 
L 1294 2234 
L 1294 2753 
L 1863 2753 
Q 2328 2753 2575 2939 
Q 2822 3125 2822 3475 
Q 2822 3834 2567 4026 
Q 2313 4219 1838 4219 
Q 1578 4219 1281 4162 
Q 984 4106 628 3988 
L 628 4550 
Q 988 4650 1302 4700 
Q 1616 4750 1894 4750 
Q 2613 4750 3031 4423 
Q 3450 4097 3450 3541 
Q 3450 3153 3228 2886 
Q 3006 2619 2597 2516 
z
" transform="scale(0.015625)"/>
       </defs>
       <use xlink:href="#DejaVuSans-33"/>
       <use xlink:href="#DejaVuSans-30" x="63.623047"/>
      </g>
     </g>
    </g>
    <g id="xtick_5">
     <g id="line2d_9">
      <path d="M 731.090027 441 
L 731.090027 60.48 
" clip-path="url(#p57d70c3c05)" style="fill: none; stroke: #b0b0b0; stroke-width: 0.8; stroke-linecap: square"/>
     </g>
     <g id="line2d_10">
      <g>
       <use xlink:href="#mff2ae22863" x="731.090027" y="441" style="stroke: #000000; stroke-width: 0.8"/>
      </g>
     </g>
     <g id="text_5">
      <!-- 40 -->
      <g transform="translate(724.727527 455.598437)scale(0.1 -0.1)">
       <defs>
        <path id="DejaVuSans-34" d="M 2419 4116 
L 825 1625 
L 2419 1625 
L 2419 4116 
z
M 2253 4666 
L 3047 4666 
L 3047 1625 
L 3713 1625 
L 3713 1100 
L 3047 1100 
L 3047 0 
L 2419 0 
L 2419 1100 
L 313 1100 
L 313 1709 
L 2253 4666 
z
" transform="scale(0.015625)"/>
       </defs>
       <use xlink:href="#DejaVuSans-34"/>
       <use xlink:href="#DejaVuSans-30" x="63.623047"/>
      </g>
     </g>
    </g>
    <g id="text_6">
     <!-- Block_Pellet_Count -->
     <g transform="translate(395.703125 469.276563)scale(0.1 -0.1)">
      <defs>
       <path id="DejaVuSans-42" d="M 1259 2228 
L 1259 519 
L 2272 519 
Q 2781 519 3026 730 
Q 3272 941 3272 1375 
Q 3272 1813 3026 2020 
Q 2781 2228 2272 2228 
L 1259 2228 
z
M 1259 4147 
L 1259 2741 
L 2194 2741 
Q 2656 2741 2882 2914 
Q 3109 3088 3109 3444 
Q 3109 3797 2882 3972 
Q 2656 4147 2194 4147 
L 1259 4147 
z
M 628 4666 
L 2241 4666 
Q 2963 4666 3353 4366 
Q 3744 4066 3744 3513 
Q 3744 3084 3544 2831 
Q 3344 2578 2956 2516 
Q 3422 2416 3680 2098 
Q 3938 1781 3938 1306 
Q 3938 681 3513 340 
Q 3088 0 2303 0 
L 628 0 
L 628 4666 
z
" transform="scale(0.015625)"/>
       <path id="DejaVuSans-6c" d="M 603 4863 
L 1178 4863 
L 1178 0 
L 603 0 
L 603 4863 
z
" transform="scale(0.015625)"/>
       <path id="DejaVuSans-6f" d="M 1959 3097 
Q 1497 3097 1228 2736 
Q 959 2375 959 1747 
Q 959 1119 1226 758 
Q 1494 397 1959 397 
Q 2419 397 2687 759 
Q 2956 1122 2956 1747 
Q 2956 2369 2687 2733 
Q 2419 3097 1959 3097 
z
M 1959 3584 
Q 2709 3584 3137 3096 
Q 3566 2609 3566 1747 
Q 3566 888 3137 398 
Q 2709 -91 1959 -91 
Q 1206 -91 779 398 
Q 353 888 353 1747 
Q 353 2609 779 3096 
Q 1206 3584 1959 3584 
z
" transform="scale(0.015625)"/>
       <path id="DejaVuSans-63" d="M 3122 3366 
L 3122 2828 
Q 2878 2963 2633 3030 
Q 2388 3097 2138 3097 
Q 1578 3097 1268 2742 
Q 959 2388 959 1747 
Q 959 1106 1268 751 
Q 1578 397 2138 397 
Q 2388 397 2633 464 
Q 2878 531 3122 666 
L 3122 134 
Q 2881 22 2623 -34 
Q 2366 -91 2075 -91 
Q 1284 -91 818 406 
Q 353 903 353 1747 
Q 353 2603 823 3093 
Q 1294 3584 2113 3584 
Q 2378 3584 2631 3529 
Q 2884 3475 3122 3366 
z
" transform="scale(0.015625)"/>
       <path id="DejaVuSans-6b" d="M 581 4863 
L 1159 4863 
L 1159 1991 
L 2875 3500 
L 3609 3500 
L 1753 1863 
L 3688 0 
L 2938 0 
L 1159 1709 
L 1159 0 
L 581 0 
L 581 4863 
z
" transform="scale(0.015625)"/>
       <path id="DejaVuSans-5f" d="M 3263 -1063 
L 3263 -1509 
L -63 -1509 
L -63 -1063 
L 3263 -1063 
z
" transform="scale(0.015625)"/>
       <path id="DejaVuSans-50" d="M 1259 4147 
L 1259 2394 
L 2053 2394 
Q 2494 2394 2734 2622 
Q 2975 2850 2975 3272 
Q 2975 3691 2734 3919 
Q 2494 4147 2053 4147 
L 1259 4147 
z
M 628 4666 
L 2053 4666 
Q 2838 4666 3239 4311 
Q 3641 3956 3641 3272 
Q 3641 2581 3239 2228 
Q 2838 1875 2053 1875 
L 1259 1875 
L 1259 0 
L 628 0 
L 628 4666 
z
" transform="scale(0.015625)"/>
       <path id="DejaVuSans-65" d="M 3597 1894 
L 3597 1613 
L 953 1613 
Q 991 1019 1311 708 
Q 1631 397 2203 397 
Q 2534 397 2845 478 
Q 3156 559 3463 722 
L 3463 178 
Q 3153 47 2828 -22 
Q 2503 -91 2169 -91 
Q 1331 -91 842 396 
Q 353 884 353 1716 
Q 353 2575 817 3079 
Q 1281 3584 2069 3584 
Q 2775 3584 3186 3129 
Q 3597 2675 3597 1894 
z
M 3022 2063 
Q 3016 2534 2758 2815 
Q 2500 3097 2075 3097 
Q 1594 3097 1305 2825 
Q 1016 2553 972 2059 
L 3022 2063 
z
" transform="scale(0.015625)"/>
       <path id="DejaVuSans-74" d="M 1172 4494 
L 1172 3500 
L 2356 3500 
L 2356 3053 
L 1172 3053 
L 1172 1153 
Q 1172 725 1289 603 
Q 1406 481 1766 481 
L 2356 481 
L 2356 0 
L 1766 0 
Q 1100 0 847 248 
Q 594 497 594 1153 
L 594 3053 
L 172 3053 
L 172 3500 
L 594 3500 
L 594 4494 
L 1172 4494 
z
" transform="scale(0.015625)"/>
       <path id="DejaVuSans-43" d="M 4122 4306 
L 4122 3641 
Q 3803 3938 3442 4084 
Q 3081 4231 2675 4231 
Q 1875 4231 1450 3742 
Q 1025 3253 1025 2328 
Q 1025 1406 1450 917 
Q 1875 428 2675 428 
Q 3081 428 3442 575 
Q 3803 722 4122 1019 
L 4122 359 
Q 3791 134 3420 21 
Q 3050 -91 2638 -91 
Q 1578 -91 968 557 
Q 359 1206 359 2328 
Q 359 3453 968 4101 
Q 1578 4750 2638 4750 
Q 3056 4750 3426 4639 
Q 3797 4528 4122 4306 
z
" transform="scale(0.015625)"/>
       <path id="DejaVuSans-75" d="M 544 1381 
L 544 3500 
L 1119 3500 
L 1119 1403 
Q 1119 906 1312 657 
Q 1506 409 1894 409 
Q 2359 409 2629 706 
Q 2900 1003 2900 1516 
L 2900 3500 
L 3475 3500 
L 3475 0 
L 2900 0 
L 2900 538 
Q 2691 219 2414 64 
Q 2138 -91 1772 -91 
Q 1169 -91 856 284 
Q 544 659 544 1381 
z
M 1991 3584 
L 1991 3584 
z
" transform="scale(0.015625)"/>
       <path id="DejaVuSans-6e" d="M 3513 2113 
L 3513 0 
L 2938 0 
L 2938 2094 
Q 2938 2591 2744 2837 
Q 2550 3084 2163 3084 
Q 1697 3084 1428 2787 
Q 1159 2491 1159 1978 
L 1159 0 
L 581 0 
L 581 3500 
L 1159 3500 
L 1159 2956 
Q 1366 3272 1645 3428 
Q 1925 3584 2291 3584 
Q 2894 3584 3203 3211 
Q 3513 2838 3513 2113 
z
" transform="scale(0.015625)"/>
      </defs>
      <use xlink:href="#DejaVuSans-42"/>
      <use xlink:href="#DejaVuSans-6c" x="68.603516"/>
      <use xlink:href="#DejaVuSans-6f" x="96.386719"/>
      <use xlink:href="#DejaVuSans-63" x="157.568359"/>
      <use xlink:href="#DejaVuSans-6b" x="212.548828"/>
      <use xlink:href="#DejaVuSans-5f" x="270.458984"/>
      <use xlink:href="#DejaVuSans-50" x="320.458984"/>
      <use xlink:href="#DejaVuSans-65" x="377.136719"/>
      <use xlink:href="#DejaVuSans-6c" x="438.660156"/>
      <use xlink:href="#DejaVuSans-6c" x="466.443359"/>
      <use xlink:href="#DejaVuSans-65" x="494.226562"/>
      <use xlink:href="#DejaVuSans-74" x="555.75"/>
      <use xlink:href="#DejaVuSans-5f" x="594.958984"/>
      <use xlink:href="#DejaVuSans-43" x="644.958984"/>
      <use xlink:href="#DejaVuSans-6f" x="714.783203"/>
      <use xlink:href="#DejaVuSans-75" x="775.964844"/>
      <use xlink:href="#DejaVuSans-6e" x="839.34375"/>
      <use xlink:href="#DejaVuSans-74" x="902.722656"/>
     </g>
    </g>
   </g>
   <g id="matplotlib.axis_2">
    <g id="ytick_1">
     <g id="line2d_11">
      <path d="M 108 441 
L 777.6 441 
" clip-path="url(#p57d70c3c05)" style="fill: none; stroke: #b0b0b0; stroke-width: 0.8; stroke-linecap: square"/>
     </g>
     <g id="line2d_12">
      <defs>
       <path id="m54fe96ebc9" d="M 0 0 
L -3.5 0 
" style="stroke: #000000; stroke-width: 0.8"/>
      </defs>
      <g>
       <use xlink:href="#m54fe96ebc9" x="108" y="441" style="stroke: #000000; stroke-width: 0.8"/>
      </g>
     </g>
     <g id="text_7">
      <!-- 0.00 -->
      <g transform="translate(78.734375 444.799219)scale(0.1 -0.1)">
       <defs>
        <path id="DejaVuSans-2e" d="M 684 794 
L 1344 794 
L 1344 0 
L 684 0 
L 684 794 
z
" transform="scale(0.015625)"/>
       </defs>
       <use xlink:href="#DejaVuSans-30"/>
       <use xlink:href="#DejaVuSans-2e" x="63.623047"/>
       <use xlink:href="#DejaVuSans-30" x="95.410156"/>
       <use xlink:href="#DejaVuSans-30" x="159.033203"/>
      </g>
     </g>
    </g>
    <g id="ytick_2">
     <g id="line2d_13">
      <path d="M 108 378.496335 
L 777.6 378.496335 
" clip-path="url(#p57d70c3c05)" style="fill: none; stroke: #b0b0b0; stroke-width: 0.8; stroke-linecap: square"/>
     </g>
     <g id="line2d_14">
      <g>
       <use xlink:href="#m54fe96ebc9" x="108" y="378.496335" style="stroke: #000000; stroke-width: 0.8"/>
      </g>
     </g>
     <g id="text_8">
      <!-- 0.02 -->
      <g transform="translate(78.734375 382.295553)scale(0.1 -0.1)">
       <use xlink:href="#DejaVuSans-30"/>
       <use xlink:href="#DejaVuSans-2e" x="63.623047"/>
       <use xlink:href="#DejaVuSans-30" x="95.410156"/>
       <use xlink:href="#DejaVuSans-32" x="159.033203"/>
      </g>
     </g>
    </g>
    <g id="ytick_3">
     <g id="line2d_15">
      <path d="M 108 315.992669 
L 777.6 315.992669 
" clip-path="url(#p57d70c3c05)" style="fill: none; stroke: #b0b0b0; stroke-width: 0.8; stroke-linecap: square"/>
     </g>
     <g id="line2d_16">
      <g>
       <use xlink:href="#m54fe96ebc9" x="108" y="315.992669" style="stroke: #000000; stroke-width: 0.8"/>
      </g>
     </g>
     <g id="text_9">
      <!-- 0.04 -->
      <g transform="translate(78.734375 319.791888)scale(0.1 -0.1)">
       <use xlink:href="#DejaVuSans-30"/>
       <use xlink:href="#DejaVuSans-2e" x="63.623047"/>
       <use xlink:href="#DejaVuSans-30" x="95.410156"/>
       <use xlink:href="#DejaVuSans-34" x="159.033203"/>
      </g>
     </g>
    </g>
    <g id="ytick_4">
     <g id="line2d_17">
      <path d="M 108 253.489004 
L 777.6 253.489004 
" clip-path="url(#p57d70c3c05)" style="fill: none; stroke: #b0b0b0; stroke-width: 0.8; stroke-linecap: square"/>
     </g>
     <g id="line2d_18">
      <g>
       <use xlink:href="#m54fe96ebc9" x="108" y="253.489004" style="stroke: #000000; stroke-width: 0.8"/>
      </g>
     </g>
     <g id="text_10">
      <!-- 0.06 -->
      <g transform="translate(78.734375 257.288223)scale(0.1 -0.1)">
       <defs>
        <path id="DejaVuSans-36" d="M 2113 2584 
Q 1688 2584 1439 2293 
Q 1191 2003 1191 1497 
Q 1191 994 1439 701 
Q 1688 409 2113 409 
Q 2538 409 2786 701 
Q 3034 994 3034 1497 
Q 3034 2003 2786 2293 
Q 2538 2584 2113 2584 
z
M 3366 4563 
L 3366 3988 
Q 3128 4100 2886 4159 
Q 2644 4219 2406 4219 
Q 1781 4219 1451 3797 
Q 1122 3375 1075 2522 
Q 1259 2794 1537 2939 
Q 1816 3084 2150 3084 
Q 2853 3084 3261 2657 
Q 3669 2231 3669 1497 
Q 3669 778 3244 343 
Q 2819 -91 2113 -91 
Q 1303 -91 875 529 
Q 447 1150 447 2328 
Q 447 3434 972 4092 
Q 1497 4750 2381 4750 
Q 2619 4750 2861 4703 
Q 3103 4656 3366 4563 
z
" transform="scale(0.015625)"/>
       </defs>
       <use xlink:href="#DejaVuSans-30"/>
       <use xlink:href="#DejaVuSans-2e" x="63.623047"/>
       <use xlink:href="#DejaVuSans-30" x="95.410156"/>
       <use xlink:href="#DejaVuSans-36" x="159.033203"/>
      </g>
     </g>
    </g>
    <g id="ytick_5">
     <g id="line2d_19">
      <path d="M 108 190.985338 
L 777.6 190.985338 
" clip-path="url(#p57d70c3c05)" style="fill: none; stroke: #b0b0b0; stroke-width: 0.8; stroke-linecap: square"/>
     </g>
     <g id="line2d_20">
      <g>
       <use xlink:href="#m54fe96ebc9" x="108" y="190.985338" style="stroke: #000000; stroke-width: 0.8"/>
      </g>
     </g>
     <g id="text_11">
      <!-- 0.08 -->
      <g transform="translate(78.734375 194.784557)scale(0.1 -0.1)">
       <defs>
        <path id="DejaVuSans-38" d="M 2034 2216 
Q 1584 2216 1326 1975 
Q 1069 1734 1069 1313 
Q 1069 891 1326 650 
Q 1584 409 2034 409 
Q 2484 409 2743 651 
Q 3003 894 3003 1313 
Q 3003 1734 2745 1975 
Q 2488 2216 2034 2216 
z
M 1403 2484 
Q 997 2584 770 2862 
Q 544 3141 544 3541 
Q 544 4100 942 4425 
Q 1341 4750 2034 4750 
Q 2731 4750 3128 4425 
Q 3525 4100 3525 3541 
Q 3525 3141 3298 2862 
Q 3072 2584 2669 2484 
Q 3125 2378 3379 2068 
Q 3634 1759 3634 1313 
Q 3634 634 3220 271 
Q 2806 -91 2034 -91 
Q 1263 -91 848 271 
Q 434 634 434 1313 
Q 434 1759 690 2068 
Q 947 2378 1403 2484 
z
M 1172 3481 
Q 1172 3119 1398 2916 
Q 1625 2713 2034 2713 
Q 2441 2713 2670 2916 
Q 2900 3119 2900 3481 
Q 2900 3844 2670 4047 
Q 2441 4250 2034 4250 
Q 1625 4250 1398 4047 
Q 1172 3844 1172 3481 
z
" transform="scale(0.015625)"/>
       </defs>
       <use xlink:href="#DejaVuSans-30"/>
       <use xlink:href="#DejaVuSans-2e" x="63.623047"/>
       <use xlink:href="#DejaVuSans-30" x="95.410156"/>
       <use xlink:href="#DejaVuSans-38" x="159.033203"/>
      </g>
     </g>
    </g>
    <g id="ytick_6">
     <g id="line2d_21">
      <path d="M 108 128.481673 
L 777.6 128.481673 
" clip-path="url(#p57d70c3c05)" style="fill: none; stroke: #b0b0b0; stroke-width: 0.8; stroke-linecap: square"/>
     </g>
     <g id="line2d_22">
      <g>
       <use xlink:href="#m54fe96ebc9" x="108" y="128.481673" style="stroke: #000000; stroke-width: 0.8"/>
      </g>
     </g>
     <g id="text_12">
      <!-- 0.10 -->
      <g transform="translate(78.734375 132.280892)scale(0.1 -0.1)">
       <use xlink:href="#DejaVuSans-30"/>
       <use xlink:href="#DejaVuSans-2e" x="63.623047"/>
       <use xlink:href="#DejaVuSans-31" x="95.410156"/>
       <use xlink:href="#DejaVuSans-30" x="159.033203"/>
      </g>
     </g>
    </g>
    <g id="ytick_7">
     <g id="line2d_23">
      <path d="M 108 65.978008 
L 777.6 65.978008 
" clip-path="url(#p57d70c3c05)" style="fill: none; stroke: #b0b0b0; stroke-width: 0.8; stroke-linecap: square"/>
     </g>
     <g id="line2d_24">
      <g>
       <use xlink:href="#m54fe96ebc9" x="108" y="65.978008" style="stroke: #000000; stroke-width: 0.8"/>
      </g>
     </g>
     <g id="text_13">
      <!-- 0.12 -->
      <g transform="translate(78.734375 69.777226)scale(0.1 -0.1)">
       <use xlink:href="#DejaVuSans-30"/>
       <use xlink:href="#DejaVuSans-2e" x="63.623047"/>
       <use xlink:href="#DejaVuSans-31" x="95.410156"/>
       <use xlink:href="#DejaVuSans-32" x="159.033203"/>
      </g>
     </g>
    </g>
    <g id="text_14">
     <!-- Average Frequency -->
     <g transform="translate(72.654687 298.691563)rotate(-90)scale(0.1 -0.1)">
      <defs>
       <path id="DejaVuSans-41" d="M 2188 4044 
L 1331 1722 
L 3047 1722 
L 2188 4044 
z
M 1831 4666 
L 2547 4666 
L 4325 0 
L 3669 0 
L 3244 1197 
L 1141 1197 
L 716 0 
L 50 0 
L 1831 4666 
z
" transform="scale(0.015625)"/>
       <path id="DejaVuSans-76" d="M 191 3500 
L 800 3500 
L 1894 563 
L 2988 3500 
L 3597 3500 
L 2284 0 
L 1503 0 
L 191 3500 
z
" transform="scale(0.015625)"/>
       <path id="DejaVuSans-72" d="M 2631 2963 
Q 2534 3019 2420 3045 
Q 2306 3072 2169 3072 
Q 1681 3072 1420 2755 
Q 1159 2438 1159 1844 
L 1159 0 
L 581 0 
L 581 3500 
L 1159 3500 
L 1159 2956 
Q 1341 3275 1631 3429 
Q 1922 3584 2338 3584 
Q 2397 3584 2469 3576 
Q 2541 3569 2628 3553 
L 2631 2963 
z
" transform="scale(0.015625)"/>
       <path id="DejaVuSans-61" d="M 2194 1759 
Q 1497 1759 1228 1600 
Q 959 1441 959 1056 
Q 959 750 1161 570 
Q 1363 391 1709 391 
Q 2188 391 2477 730 
Q 2766 1069 2766 1631 
L 2766 1759 
L 2194 1759 
z
M 3341 1997 
L 3341 0 
L 2766 0 
L 2766 531 
Q 2569 213 2275 61 
Q 1981 -91 1556 -91 
Q 1019 -91 701 211 
Q 384 513 384 1019 
Q 384 1609 779 1909 
Q 1175 2209 1959 2209 
L 2766 2209 
L 2766 2266 
Q 2766 2663 2505 2880 
Q 2244 3097 1772 3097 
Q 1472 3097 1187 3025 
Q 903 2953 641 2809 
L 641 3341 
Q 956 3463 1253 3523 
Q 1550 3584 1831 3584 
Q 2591 3584 2966 3190 
Q 3341 2797 3341 1997 
z
" transform="scale(0.015625)"/>
       <path id="DejaVuSans-67" d="M 2906 1791 
Q 2906 2416 2648 2759 
Q 2391 3103 1925 3103 
Q 1463 3103 1205 2759 
Q 947 2416 947 1791 
Q 947 1169 1205 825 
Q 1463 481 1925 481 
Q 2391 481 2648 825 
Q 2906 1169 2906 1791 
z
M 3481 434 
Q 3481 -459 3084 -895 
Q 2688 -1331 1869 -1331 
Q 1566 -1331 1297 -1286 
Q 1028 -1241 775 -1147 
L 775 -588 
Q 1028 -725 1275 -790 
Q 1522 -856 1778 -856 
Q 2344 -856 2625 -561 
Q 2906 -266 2906 331 
L 2906 616 
Q 2728 306 2450 153 
Q 2172 0 1784 0 
Q 1141 0 747 490 
Q 353 981 353 1791 
Q 353 2603 747 3093 
Q 1141 3584 1784 3584 
Q 2172 3584 2450 3431 
Q 2728 3278 2906 2969 
L 2906 3500 
L 3481 3500 
L 3481 434 
z
" transform="scale(0.015625)"/>
       <path id="DejaVuSans-20" transform="scale(0.015625)"/>
       <path id="DejaVuSans-46" d="M 628 4666 
L 3309 4666 
L 3309 4134 
L 1259 4134 
L 1259 2759 
L 3109 2759 
L 3109 2228 
L 1259 2228 
L 1259 0 
L 628 0 
L 628 4666 
z
" transform="scale(0.015625)"/>
       <path id="DejaVuSans-71" d="M 947 1747 
Q 947 1113 1208 752 
Q 1469 391 1925 391 
Q 2381 391 2643 752 
Q 2906 1113 2906 1747 
Q 2906 2381 2643 2742 
Q 2381 3103 1925 3103 
Q 1469 3103 1208 2742 
Q 947 2381 947 1747 
z
M 2906 525 
Q 2725 213 2448 61 
Q 2172 -91 1784 -91 
Q 1150 -91 751 415 
Q 353 922 353 1747 
Q 353 2572 751 3078 
Q 1150 3584 1784 3584 
Q 2172 3584 2448 3432 
Q 2725 3281 2906 2969 
L 2906 3500 
L 3481 3500 
L 3481 -1331 
L 2906 -1331 
L 2906 525 
z
" transform="scale(0.015625)"/>
       <path id="DejaVuSans-79" d="M 2059 -325 
Q 1816 -950 1584 -1140 
Q 1353 -1331 966 -1331 
L 506 -1331 
L 506 -850 
L 844 -850 
Q 1081 -850 1212 -737 
Q 1344 -625 1503 -206 
L 1606 56 
L 191 3500 
L 800 3500 
L 1894 763 
L 2988 3500 
L 3597 3500 
L 2059 -325 
z
" transform="scale(0.015625)"/>
      </defs>
      <use xlink:href="#DejaVuSans-41"/>
      <use xlink:href="#DejaVuSans-76" x="62.533203"/>
      <use xlink:href="#DejaVuSans-65" x="121.712891"/>
      <use xlink:href="#DejaVuSans-72" x="183.236328"/>
      <use xlink:href="#DejaVuSans-61" x="224.349609"/>
      <use xlink:href="#DejaVuSans-67" x="285.628906"/>
      <use xlink:href="#DejaVuSans-65" x="349.105469"/>
      <use xlink:href="#DejaVuSans-20" x="410.628906"/>
      <use xlink:href="#DejaVuSans-46" x="442.416016"/>
      <use xlink:href="#DejaVuSans-72" x="492.685547"/>
      <use xlink:href="#DejaVuSans-65" x="531.548828"/>
      <use xlink:href="#DejaVuSans-71" x="593.072266"/>
      <use xlink:href="#DejaVuSans-75" x="656.548828"/>
      <use xlink:href="#DejaVuSans-65" x="719.927734"/>
      <use xlink:href="#DejaVuSans-6e" x="781.451172"/>
      <use xlink:href="#DejaVuSans-63" x="844.830078"/>
      <use xlink:href="#DejaVuSans-79" x="899.810547"/>
     </g>
    </g>
   </g>
   <g id="line2d_25">
    <path d="M 138.436364 440.476595 
L 144.554226 439.997852 
L 150.672088 439.175845 
L 153.731019 438.585139 
L 156.78995 437.843291 
L 159.848881 436.925347 
L 162.907812 435.806468 
L 165.966743 434.463368 
L 169.025674 432.876028 
L 172.084605 431.029629 
L 175.143536 428.916583 
L 178.202467 426.538507 
L 181.261398 423.907965 
L 184.320329 421.049758 
L 190.438191 414.813819 
L 199.614984 405.075675 
L 202.673915 402.024884 
L 205.732846 399.200401 
L 208.791777 396.670083 
L 211.850708 394.48809 
L 214.909639 392.689896 
L 217.96857 391.288086 
L 221.027501 390.269339 
L 224.086432 389.592908 
L 227.145363 389.190805 
L 236.322156 388.595594 
L 239.381087 388.170584 
L 242.440018 387.396854 
L 245.498949 386.136568 
L 248.55788 384.264858 
L 251.616811 381.676872 
L 254.675742 378.293809 
L 257.734673 374.067619 
L 260.793604 368.984107 
L 263.852535 363.064315 
L 266.911466 356.364149 
L 269.970397 348.972335 
L 273.029328 341.006867 
L 279.14719 323.943401 
L 285.265053 306.49805 
L 288.323984 298.075409 
L 291.382915 290.081096 
L 294.441846 282.670254 
L 297.500777 275.978612 
L 300.559708 270.11807 
L 303.618639 265.173331 
L 306.67757 261.199715 
L 309.736501 258.222209 
L 312.795432 256.235804 
L 315.854363 255.207105 
L 318.913294 255.077163 
L 321.972225 255.765414 
L 325.031156 257.174537 
L 328.090087 259.196012 
L 331.149018 261.716044 
L 334.207949 264.621553 
L 337.26688 267.805819 
L 343.384742 274.644357 
L 355.620466 288.604213 
L 367.85619 302.389428 
L 373.974052 309.598513 
L 380.091914 317.181045 
L 398.4455 340.583709 
L 401.504431 344.13839 
L 404.563362 347.4732 
L 407.622293 350.556181 
L 410.681224 353.366712 
L 413.740155 355.896769 
L 416.799086 358.151141 
L 419.858017 360.146617 
L 422.916948 361.910162 
L 425.975879 363.476281 
L 432.093741 366.172014 
L 438.211603 368.530686 
L 447.388397 371.832471 
L 453.506259 373.862256 
L 456.56519 374.759592 
L 459.624121 375.533035 
L 462.683052 376.146343 
L 465.741983 376.566225 
L 468.800914 376.766131 
L 471.859845 376.729633 
L 474.918776 376.453118 
L 477.977707 375.947567 
L 481.036638 375.239272 
L 487.1545 373.392606 
L 493.272362 371.386834 
L 496.331293 370.506545 
L 499.390224 369.807926 
L 502.449155 369.359609 
L 505.508086 369.219707 
L 508.567017 369.43175 
L 511.625948 370.021321 
L 514.684879 370.993657 
L 517.74381 372.332372 
L 520.802741 373.999418 
L 523.861672 375.93634 
L 529.979534 380.300061 
L 536.097396 384.669117 
L 539.156327 386.596186 
L 542.215258 388.219971 
L 545.274189 389.455548 
L 548.33312 390.234888 
L 551.392051 390.510759 
L 554.450982 390.259539 
L 557.509913 389.482794 
L 560.568844 388.207551 
L 563.627775 386.485262 
L 566.686706 384.389535 
L 569.745637 382.012782 
L 581.981361 371.94685 
L 585.040292 369.881125 
L 588.099223 368.213136 
L 591.158154 367.028567 
L 594.217085 366.393654 
L 597.276016 366.352616 
L 600.334947 366.926172 
L 603.393878 368.111216 
L 606.45281 369.881643 
L 609.511741 372.190284 
L 612.570672 374.971824 
L 615.629603 378.146538 
L 618.688534 381.624633 
L 624.806396 389.109644 
L 630.924258 396.68488 
L 633.983189 400.305166 
L 637.04212 403.731299 
L 640.101051 406.920295 
L 643.159982 409.845148 
L 646.218913 412.494336 
L 649.277844 414.870423 
L 652.336775 416.987934 
L 655.395706 418.870699 
L 658.454637 420.548905 
L 661.513568 422.056096 
L 667.63143 424.691766 
L 673.749292 427.015711 
L 682.926085 430.237207 
L 692.102878 433.241873 
L 698.22074 435.052615 
L 704.338602 436.632747 
L 710.456464 437.936392 
L 716.574326 438.950545 
L 722.692188 439.69403 
L 728.81005 440.207855 
L 737.986843 440.65918 
L 747.163636 440.869017 
L 747.163636 440.869017 
" clip-path="url(#p57d70c3c05)" style="fill: none; stroke-dasharray: 5.55,2.4; stroke-dashoffset: 0; stroke: #0000ff; stroke-width: 1.5"/>
   </g>
   <g id="line2d_26">
    <path d="M 168.521907 439.211904 
L 170.554124 438.467014 
L 172.586341 437.461615 
L 174.618558 436.125715 
L 176.650775 434.378539 
L 178.682992 432.129701 
L 180.715209 429.281564 
L 182.747426 425.732973 
L 184.779643 421.384442 
L 186.81186 416.144765 
L 188.844077 409.938829 
L 190.876293 402.716221 
L 192.90851 394.460015 
L 194.940727 385.194965 
L 196.972944 374.994177 
L 199.005161 363.983352 
L 203.069595 340.298886 
L 207.134029 316.131938 
L 209.166246 304.631794 
L 211.198463 293.944711 
L 213.23068 284.366117 
L 215.262897 276.149878 
L 217.295114 269.490848 
L 219.327331 264.511106 
L 221.359548 261.251275 
L 223.391765 259.667851 
L 225.423982 259.636868 
L 227.456198 260.963605 
L 229.488415 263.397421 
L 231.520632 266.650314 
L 235.585066 274.397797 
L 237.617283 278.313119 
L 239.6495 281.923751 
L 241.681717 285.040162 
L 243.713934 287.529673 
L 245.746151 289.318302 
L 247.778368 290.388137 
L 249.810585 290.771015 
L 251.842802 290.539513 
L 253.875019 289.796357 
L 255.907236 288.663298 
L 259.97167 285.746284 
L 264.036104 282.765781 
L 266.06832 281.496031 
L 268.100537 280.461081 
L 270.132754 279.696528 
L 272.164971 279.213399 
L 274.197188 278.999093 
L 276.229405 279.01919 
L 280.293839 279.531885 
L 284.358273 280.153966 
L 286.39049 280.282676 
L 288.422707 280.169784 
L 290.454924 279.734159 
L 292.487141 278.908301 
L 294.519358 277.643284 
L 296.551575 275.912888 
L 298.583792 273.716565 
L 300.616009 271.080933 
L 302.648225 268.059591 
L 306.712659 261.195529 
L 310.777093 253.9764 
L 312.80931 250.546559 
L 314.841527 247.402178 
L 316.873744 244.653964 
L 318.905961 242.394011 
L 320.938178 240.690746 
L 322.970395 239.585571 
L 325.002612 239.09146 
L 327.034829 239.193603 
L 329.067046 239.852074 
L 331.099263 241.006293 
L 333.13148 242.580956 
L 335.163697 244.492949 
L 337.195914 246.658695 
L 341.260347 251.457102 
L 347.356998 259.156049 
L 351.421432 264.599178 
L 353.453649 267.524526 
L 355.485866 270.662625 
L 357.518083 274.072988 
L 359.5503 277.807971 
L 361.582517 281.906181 
L 363.614734 286.387157 
L 365.646951 291.247791 
L 369.711385 301.975484 
L 375.808035 319.534778 
L 379.872469 331.099771 
L 381.904686 336.534176 
L 383.936903 341.616039 
L 385.96912 346.270915 
L 388.001337 350.439383 
L 390.033554 354.077438 
L 392.065771 357.155815 
L 394.097988 359.658521 
L 396.130205 361.580942 
L 398.162422 362.927831 
L 400.194639 363.711484 
L 402.226856 363.950319 
L 404.259073 363.667982 
L 406.29129 362.893041 
L 408.323507 361.659221 
L 410.355724 360.006076 
L 412.387941 357.979947 
L 414.420157 355.63499 
L 416.452374 353.034055 
L 420.516808 347.361515 
L 424.581242 341.64134 
L 426.613459 339.003671 
L 428.645676 336.646306 
L 430.677893 334.663493 
L 432.71011 333.13979 
L 434.742327 332.145022 
L 436.774544 331.72963 
L 438.806761 331.92092 
L 440.838978 332.720655 
L 442.871195 334.104381 
L 444.903412 336.022699 
L 446.935629 338.404503 
L 448.967846 341.162009 
L 453.032279 347.408955 
L 459.12893 357.199856 
L 463.193364 363.237235 
L 467.257798 368.703001 
L 479.4511 384.261121 
L 483.515534 390.118105 
L 495.708835 408.446889 
L 497.741052 411.091816 
L 499.773269 413.494109 
L 501.805486 415.628333 
L 503.837703 417.483458 
L 505.86992 419.063151 
L 507.902137 420.384889 
L 509.934354 421.478036 
L 511.966571 422.381099 
L 516.031005 423.796797 
L 524.159872 426.275637 
L 528.224306 427.810695 
L 532.28874 429.624463 
L 544.482042 435.522257 
L 548.546476 437.135573 
L 552.61091 438.419085 
L 556.675344 439.369059 
L 560.739778 440.02513 
L 564.804211 440.448911 
L 570.900862 440.789085 
L 572.933079 440.851092 
L 572.933079 440.851092 
" clip-path="url(#p57d70c3c05)" style="fill: none; stroke-dasharray: 5.55,2.4; stroke-dashoffset: 0; stroke: #ff0000; stroke-width: 1.5"/>
   </g>
   <g id="patch_62">
    <path d="M 108 441 
L 108 60.48 
" style="fill: none; stroke: #000000; stroke-width: 0.8; stroke-linejoin: miter; stroke-linecap: square"/>
   </g>
   <g id="patch_63">
    <path d="M 777.6 441 
L 777.6 60.48 
" style="fill: none; stroke: #000000; stroke-width: 0.8; stroke-linejoin: miter; stroke-linecap: square"/>
   </g>
   <g id="patch_64">
    <path d="M 108 441 
L 777.6 441 
" style="fill: none; stroke: #000000; stroke-width: 0.8; stroke-linejoin: miter; stroke-linecap: square"/>
   </g>
   <g id="patch_65">
    <path d="M 108 60.48 
L 777.6 60.48 
" style="fill: none; stroke: #000000; stroke-width: 0.8; stroke-linejoin: miter; stroke-linecap: square"/>
   </g>
   <g id="text_15">
    <!-- Average Normalized Histograms and KDE of Block_Pellet_Counts -->
    <g transform="translate(249.3825 54.48)scale(0.12 -0.12)">
     <defs>
      <path id="DejaVuSans-4e" d="M 628 4666 
L 1478 4666 
L 3547 763 
L 3547 4666 
L 4159 4666 
L 4159 0 
L 3309 0 
L 1241 3903 
L 1241 0 
L 628 0 
L 628 4666 
z
" transform="scale(0.015625)"/>
      <path id="DejaVuSans-6d" d="M 3328 2828 
Q 3544 3216 3844 3400 
Q 4144 3584 4550 3584 
Q 5097 3584 5394 3201 
Q 5691 2819 5691 2113 
L 5691 0 
L 5113 0 
L 5113 2094 
Q 5113 2597 4934 2840 
Q 4756 3084 4391 3084 
Q 3944 3084 3684 2787 
Q 3425 2491 3425 1978 
L 3425 0 
L 2847 0 
L 2847 2094 
Q 2847 2600 2669 2842 
Q 2491 3084 2119 3084 
Q 1678 3084 1418 2786 
Q 1159 2488 1159 1978 
L 1159 0 
L 581 0 
L 581 3500 
L 1159 3500 
L 1159 2956 
Q 1356 3278 1631 3431 
Q 1906 3584 2284 3584 
Q 2666 3584 2933 3390 
Q 3200 3197 3328 2828 
z
" transform="scale(0.015625)"/>
      <path id="DejaVuSans-69" d="M 603 3500 
L 1178 3500 
L 1178 0 
L 603 0 
L 603 3500 
z
M 603 4863 
L 1178 4863 
L 1178 4134 
L 603 4134 
L 603 4863 
z
" transform="scale(0.015625)"/>
      <path id="DejaVuSans-7a" d="M 353 3500 
L 3084 3500 
L 3084 2975 
L 922 459 
L 3084 459 
L 3084 0 
L 275 0 
L 275 525 
L 2438 3041 
L 353 3041 
L 353 3500 
z
" transform="scale(0.015625)"/>
      <path id="DejaVuSans-64" d="M 2906 2969 
L 2906 4863 
L 3481 4863 
L 3481 0 
L 2906 0 
L 2906 525 
Q 2725 213 2448 61 
Q 2172 -91 1784 -91 
Q 1150 -91 751 415 
Q 353 922 353 1747 
Q 353 2572 751 3078 
Q 1150 3584 1784 3584 
Q 2172 3584 2448 3432 
Q 2725 3281 2906 2969 
z
M 947 1747 
Q 947 1113 1208 752 
Q 1469 391 1925 391 
Q 2381 391 2643 752 
Q 2906 1113 2906 1747 
Q 2906 2381 2643 2742 
Q 2381 3103 1925 3103 
Q 1469 3103 1208 2742 
Q 947 2381 947 1747 
z
" transform="scale(0.015625)"/>
      <path id="DejaVuSans-48" d="M 628 4666 
L 1259 4666 
L 1259 2753 
L 3553 2753 
L 3553 4666 
L 4184 4666 
L 4184 0 
L 3553 0 
L 3553 2222 
L 1259 2222 
L 1259 0 
L 628 0 
L 628 4666 
z
" transform="scale(0.015625)"/>
      <path id="DejaVuSans-73" d="M 2834 3397 
L 2834 2853 
Q 2591 2978 2328 3040 
Q 2066 3103 1784 3103 
Q 1356 3103 1142 2972 
Q 928 2841 928 2578 
Q 928 2378 1081 2264 
Q 1234 2150 1697 2047 
L 1894 2003 
Q 2506 1872 2764 1633 
Q 3022 1394 3022 966 
Q 3022 478 2636 193 
Q 2250 -91 1575 -91 
Q 1294 -91 989 -36 
Q 684 19 347 128 
L 347 722 
Q 666 556 975 473 
Q 1284 391 1588 391 
Q 1994 391 2212 530 
Q 2431 669 2431 922 
Q 2431 1156 2273 1281 
Q 2116 1406 1581 1522 
L 1381 1569 
Q 847 1681 609 1914 
Q 372 2147 372 2553 
Q 372 3047 722 3315 
Q 1072 3584 1716 3584 
Q 2034 3584 2315 3537 
Q 2597 3491 2834 3397 
z
" transform="scale(0.015625)"/>
      <path id="DejaVuSans-4b" d="M 628 4666 
L 1259 4666 
L 1259 2694 
L 3353 4666 
L 4166 4666 
L 1850 2491 
L 4331 0 
L 3500 0 
L 1259 2247 
L 1259 0 
L 628 0 
L 628 4666 
z
" transform="scale(0.015625)"/>
      <path id="DejaVuSans-44" d="M 1259 4147 
L 1259 519 
L 2022 519 
Q 2988 519 3436 956 
Q 3884 1394 3884 2338 
Q 3884 3275 3436 3711 
Q 2988 4147 2022 4147 
L 1259 4147 
z
M 628 4666 
L 1925 4666 
Q 3281 4666 3915 4102 
Q 4550 3538 4550 2338 
Q 4550 1131 3912 565 
Q 3275 0 1925 0 
L 628 0 
L 628 4666 
z
" transform="scale(0.015625)"/>
      <path id="DejaVuSans-45" d="M 628 4666 
L 3578 4666 
L 3578 4134 
L 1259 4134 
L 1259 2753 
L 3481 2753 
L 3481 2222 
L 1259 2222 
L 1259 531 
L 3634 531 
L 3634 0 
L 628 0 
L 628 4666 
z
" transform="scale(0.015625)"/>
      <path id="DejaVuSans-66" d="M 2375 4863 
L 2375 4384 
L 1825 4384 
Q 1516 4384 1395 4259 
Q 1275 4134 1275 3809 
L 1275 3500 
L 2222 3500 
L 2222 3053 
L 1275 3053 
L 1275 0 
L 697 0 
L 697 3053 
L 147 3053 
L 147 3500 
L 697 3500 
L 697 3744 
Q 697 4328 969 4595 
Q 1241 4863 1831 4863 
L 2375 4863 
z
" transform="scale(0.015625)"/>
     </defs>
     <use xlink:href="#DejaVuSans-41"/>
     <use xlink:href="#DejaVuSans-76" x="62.533203"/>
     <use xlink:href="#DejaVuSans-65" x="121.712891"/>
     <use xlink:href="#DejaVuSans-72" x="183.236328"/>
     <use xlink:href="#DejaVuSans-61" x="224.349609"/>
     <use xlink:href="#DejaVuSans-67" x="285.628906"/>
     <use xlink:href="#DejaVuSans-65" x="349.105469"/>
     <use xlink:href="#DejaVuSans-20" x="410.628906"/>
     <use xlink:href="#DejaVuSans-4e" x="442.416016"/>
     <use xlink:href="#DejaVuSans-6f" x="517.220703"/>
     <use xlink:href="#DejaVuSans-72" x="578.402344"/>
     <use xlink:href="#DejaVuSans-6d" x="617.765625"/>
     <use xlink:href="#DejaVuSans-61" x="715.177734"/>
     <use xlink:href="#DejaVuSans-6c" x="776.457031"/>
     <use xlink:href="#DejaVuSans-69" x="804.240234"/>
     <use xlink:href="#DejaVuSans-7a" x="832.023438"/>
     <use xlink:href="#DejaVuSans-65" x="884.513672"/>
     <use xlink:href="#DejaVuSans-64" x="946.037109"/>
     <use xlink:href="#DejaVuSans-20" x="1009.513672"/>
     <use xlink:href="#DejaVuSans-48" x="1041.300781"/>
     <use xlink:href="#DejaVuSans-69" x="1116.496094"/>
     <use xlink:href="#DejaVuSans-73" x="1144.279297"/>
     <use xlink:href="#DejaVuSans-74" x="1196.378906"/>
     <use xlink:href="#DejaVuSans-6f" x="1235.587891"/>
     <use xlink:href="#DejaVuSans-67" x="1296.769531"/>
     <use xlink:href="#DejaVuSans-72" x="1360.246094"/>
     <use xlink:href="#DejaVuSans-61" x="1401.359375"/>
     <use xlink:href="#DejaVuSans-6d" x="1462.638672"/>
     <use xlink:href="#DejaVuSans-73" x="1560.050781"/>
     <use xlink:href="#DejaVuSans-20" x="1612.150391"/>
     <use xlink:href="#DejaVuSans-61" x="1643.9375"/>
     <use xlink:href="#DejaVuSans-6e" x="1705.216797"/>
     <use xlink:href="#DejaVuSans-64" x="1768.595703"/>
     <use xlink:href="#DejaVuSans-20" x="1832.072266"/>
     <use xlink:href="#DejaVuSans-4b" x="1863.859375"/>
     <use xlink:href="#DejaVuSans-44" x="1929.435547"/>
     <use xlink:href="#DejaVuSans-45" x="2006.4375"/>
     <use xlink:href="#DejaVuSans-20" x="2069.621094"/>
     <use xlink:href="#DejaVuSans-6f" x="2101.408203"/>
     <use xlink:href="#DejaVuSans-66" x="2162.589844"/>
     <use xlink:href="#DejaVuSans-20" x="2197.794922"/>
     <use xlink:href="#DejaVuSans-42" x="2229.582031"/>
     <use xlink:href="#DejaVuSans-6c" x="2298.185547"/>
     <use xlink:href="#DejaVuSans-6f" x="2325.96875"/>
     <use xlink:href="#DejaVuSans-63" x="2387.150391"/>
     <use xlink:href="#DejaVuSans-6b" x="2442.130859"/>
     <use xlink:href="#DejaVuSans-5f" x="2500.041016"/>
     <use xlink:href="#DejaVuSans-50" x="2550.041016"/>
     <use xlink:href="#DejaVuSans-65" x="2606.71875"/>
     <use xlink:href="#DejaVuSans-6c" x="2668.242188"/>
     <use xlink:href="#DejaVuSans-6c" x="2696.025391"/>
     <use xlink:href="#DejaVuSans-65" x="2723.808594"/>
     <use xlink:href="#DejaVuSans-74" x="2785.332031"/>
     <use xlink:href="#DejaVuSans-5f" x="2824.541016"/>
     <use xlink:href="#DejaVuSans-43" x="2874.541016"/>
     <use xlink:href="#DejaVuSans-6f" x="2944.365234"/>
     <use xlink:href="#DejaVuSans-75" x="3005.546875"/>
     <use xlink:href="#DejaVuSans-6e" x="3068.925781"/>
     <use xlink:href="#DejaVuSans-74" x="3132.304688"/>
     <use xlink:href="#DejaVuSans-73" x="3171.513672"/>
    </g>
   </g>
   <g id="legend_1">
    <g id="patch_66">
     <path d="M 627.765625 127.74875 
L 770.6 127.74875 
Q 772.6 127.74875 772.6 125.74875 
L 772.6 67.48 
Q 772.6 65.48 770.6 65.48 
L 627.765625 65.48 
Q 625.765625 65.48 625.765625 67.48 
L 625.765625 125.74875 
Q 625.765625 127.74875 627.765625 127.74875 
z
" style="fill: #ffffff; opacity: 0.8; stroke: #cccccc; stroke-linejoin: miter"/>
    </g>
    <g id="line2d_27">
     <path d="M 629.765625 73.578438 
L 639.765625 73.578438 
L 649.765625 73.578438 
" style="fill: none; stroke-dasharray: 5.55,2.4; stroke-dashoffset: 0; stroke: #0000ff; stroke-width: 1.5"/>
    </g>
    <g id="text_16">
     <!-- KDE for result_df1 -->
     <g transform="translate(657.765625 77.078438)scale(0.1 -0.1)">
      <use xlink:href="#DejaVuSans-4b"/>
      <use xlink:href="#DejaVuSans-44" x="65.576172"/>
      <use xlink:href="#DejaVuSans-45" x="142.578125"/>
      <use xlink:href="#DejaVuSans-20" x="205.761719"/>
      <use xlink:href="#DejaVuSans-66" x="237.548828"/>
      <use xlink:href="#DejaVuSans-6f" x="272.753906"/>
      <use xlink:href="#DejaVuSans-72" x="333.935547"/>
      <use xlink:href="#DejaVuSans-20" x="375.048828"/>
      <use xlink:href="#DejaVuSans-72" x="406.835938"/>
      <use xlink:href="#DejaVuSans-65" x="445.699219"/>
      <use xlink:href="#DejaVuSans-73" x="507.222656"/>
      <use xlink:href="#DejaVuSans-75" x="559.322266"/>
      <use xlink:href="#DejaVuSans-6c" x="622.701172"/>
      <use xlink:href="#DejaVuSans-74" x="650.484375"/>
      <use xlink:href="#DejaVuSans-5f" x="689.693359"/>
      <use xlink:href="#DejaVuSans-64" x="739.693359"/>
      <use xlink:href="#DejaVuSans-66" x="803.169922"/>
      <use xlink:href="#DejaVuSans-31" x="838.375"/>
     </g>
    </g>
    <g id="line2d_28">
     <path d="M 629.765625 88.534688 
L 639.765625 88.534688 
L 649.765625 88.534688 
" style="fill: none; stroke-dasharray: 5.55,2.4; stroke-dashoffset: 0; stroke: #ff0000; stroke-width: 1.5"/>
    </g>
    <g id="text_17">
     <!-- KDE for result_df2 -->
     <g transform="translate(657.765625 92.034688)scale(0.1 -0.1)">
      <use xlink:href="#DejaVuSans-4b"/>
      <use xlink:href="#DejaVuSans-44" x="65.576172"/>
      <use xlink:href="#DejaVuSans-45" x="142.578125"/>
      <use xlink:href="#DejaVuSans-20" x="205.761719"/>
      <use xlink:href="#DejaVuSans-66" x="237.548828"/>
      <use xlink:href="#DejaVuSans-6f" x="272.753906"/>
      <use xlink:href="#DejaVuSans-72" x="333.935547"/>
      <use xlink:href="#DejaVuSans-20" x="375.048828"/>
      <use xlink:href="#DejaVuSans-72" x="406.835938"/>
      <use xlink:href="#DejaVuSans-65" x="445.699219"/>
      <use xlink:href="#DejaVuSans-73" x="507.222656"/>
      <use xlink:href="#DejaVuSans-75" x="559.322266"/>
      <use xlink:href="#DejaVuSans-6c" x="622.701172"/>
      <use xlink:href="#DejaVuSans-74" x="650.484375"/>
      <use xlink:href="#DejaVuSans-5f" x="689.693359"/>
      <use xlink:href="#DejaVuSans-64" x="739.693359"/>
      <use xlink:href="#DejaVuSans-66" x="803.169922"/>
      <use xlink:href="#DejaVuSans-32" x="838.375"/>
     </g>
    </g>
    <g id="patch_67">
     <path d="M 629.765625 106.990938 
L 649.765625 106.990938 
L 649.765625 99.990938 
L 629.765625 99.990938 
z
" style="fill: #1f77b4; opacity: 0.5; stroke: #000000; stroke-linejoin: miter"/>
    </g>
    <g id="text_18">
     <!-- Histogram from SHAM -->
     <g transform="translate(657.765625 106.990938)scale(0.1 -0.1)">
      <defs>
       <path id="DejaVuSans-53" d="M 3425 4513 
L 3425 3897 
Q 3066 4069 2747 4153 
Q 2428 4238 2131 4238 
Q 1616 4238 1336 4038 
Q 1056 3838 1056 3469 
Q 1056 3159 1242 3001 
Q 1428 2844 1947 2747 
L 2328 2669 
Q 3034 2534 3370 2195 
Q 3706 1856 3706 1288 
Q 3706 609 3251 259 
Q 2797 -91 1919 -91 
Q 1588 -91 1214 -16 
Q 841 59 441 206 
L 441 856 
Q 825 641 1194 531 
Q 1563 422 1919 422 
Q 2459 422 2753 634 
Q 3047 847 3047 1241 
Q 3047 1584 2836 1778 
Q 2625 1972 2144 2069 
L 1759 2144 
Q 1053 2284 737 2584 
Q 422 2884 422 3419 
Q 422 4038 858 4394 
Q 1294 4750 2059 4750 
Q 2388 4750 2728 4690 
Q 3069 4631 3425 4513 
z
" transform="scale(0.015625)"/>
       <path id="DejaVuSans-4d" d="M 628 4666 
L 1569 4666 
L 2759 1491 
L 3956 4666 
L 4897 4666 
L 4897 0 
L 4281 0 
L 4281 4097 
L 3078 897 
L 2444 897 
L 1241 4097 
L 1241 0 
L 628 0 
L 628 4666 
z
" transform="scale(0.015625)"/>
      </defs>
      <use xlink:href="#DejaVuSans-48"/>
      <use xlink:href="#DejaVuSans-69" x="75.195312"/>
      <use xlink:href="#DejaVuSans-73" x="102.978516"/>
      <use xlink:href="#DejaVuSans-74" x="155.078125"/>
      <use xlink:href="#DejaVuSans-6f" x="194.287109"/>
      <use xlink:href="#DejaVuSans-67" x="255.46875"/>
      <use xlink:href="#DejaVuSans-72" x="318.945312"/>
      <use xlink:href="#DejaVuSans-61" x="360.058594"/>
      <use xlink:href="#DejaVuSans-6d" x="421.337891"/>
      <use xlink:href="#DejaVuSans-20" x="518.75"/>
      <use xlink:href="#DejaVuSans-66" x="550.537109"/>
      <use xlink:href="#DejaVuSans-72" x="585.742188"/>
      <use xlink:href="#DejaVuSans-6f" x="624.605469"/>
      <use xlink:href="#DejaVuSans-6d" x="685.787109"/>
      <use xlink:href="#DejaVuSans-20" x="783.199219"/>
      <use xlink:href="#DejaVuSans-53" x="814.986328"/>
      <use xlink:href="#DejaVuSans-48" x="878.462891"/>
      <use xlink:href="#DejaVuSans-41" x="953.658203"/>
      <use xlink:href="#DejaVuSans-4d" x="1022.066406"/>
     </g>
    </g>
    <g id="patch_68">
     <path d="M 629.765625 121.669062 
L 649.765625 121.669062 
L 649.765625 114.669062 
L 629.765625 114.669062 
z
" style="fill: #ff7f0e; opacity: 0.5; stroke: #000000; stroke-linejoin: miter"/>
    </g>
    <g id="text_19">
     <!-- Histogram from SNI -->
     <g transform="translate(657.765625 121.669062)scale(0.1 -0.1)">
      <defs>
       <path id="DejaVuSans-49" d="M 628 4666 
L 1259 4666 
L 1259 0 
L 628 0 
L 628 4666 
z
" transform="scale(0.015625)"/>
      </defs>
      <use xlink:href="#DejaVuSans-48"/>
      <use xlink:href="#DejaVuSans-69" x="75.195312"/>
      <use xlink:href="#DejaVuSans-73" x="102.978516"/>
      <use xlink:href="#DejaVuSans-74" x="155.078125"/>
      <use xlink:href="#DejaVuSans-6f" x="194.287109"/>
      <use xlink:href="#DejaVuSans-67" x="255.46875"/>
      <use xlink:href="#DejaVuSans-72" x="318.945312"/>
      <use xlink:href="#DejaVuSans-61" x="360.058594"/>
      <use xlink:href="#DejaVuSans-6d" x="421.337891"/>
      <use xlink:href="#DejaVuSans-20" x="518.75"/>
      <use xlink:href="#DejaVuSans-66" x="550.537109"/>
      <use xlink:href="#DejaVuSans-72" x="585.742188"/>
      <use xlink:href="#DejaVuSans-6f" x="624.605469"/>
      <use xlink:href="#DejaVuSans-6d" x="685.787109"/>
      <use xlink:href="#DejaVuSans-20" x="783.199219"/>
      <use xlink:href="#DejaVuSans-53" x="814.986328"/>
      <use xlink:href="#DejaVuSans-4e" x="878.462891"/>
      <use xlink:href="#DejaVuSans-49" x="953.267578"/>
     </g>
    </g>
   </g>
  </g>
 </g>
 <defs>
  <clipPath id="p57d70c3c05">
   <rect x="108" y="60.48" width="669.6" height="380.52"/>
  </clipPath>
 </defs>
</svg>
