<?xml version="1.0" encoding="utf-8" standalone="no"?>
<!DOCTYPE svg PUBLIC "-//W3C//DTD SVG 1.1//EN"
  "http://www.w3.org/Graphics/SVG/1.1/DTD/svg11.dtd">
<svg xmlns:xlink="http://www.w3.org/1999/xlink" width="720pt" height="432pt" viewBox="0 0 720 432" xmlns="http://www.w3.org/2000/svg" version="1.1">
 <metadata>
  <rdf:RDF xmlns:dc="http://purl.org/dc/elements/1.1/" xmlns:cc="http://creativecommons.org/ns#" xmlns:rdf="http://www.w3.org/1999/02/22-rdf-syntax-ns#">
   <cc:Work>
    <dc:type rdf:resource="http://purl.org/dc/dcmitype/StillImage"/>
    <dc:date>2025-08-05T15:04:01.050121</dc:date>
    <dc:format>image/svg+xml</dc:format>
    <dc:creator>
     <cc:Agent>
      <dc:title>Matplotlib v3.5.1, https://matplotlib.org/</dc:title>
     </cc:Agent>
    </dc:creator>
   </cc:Work>
  </rdf:RDF>
 </metadata>
 <defs>
  <style type="text/css">*{stroke-linejoin: round; stroke-linecap: butt}</style>
 </defs>
 <g id="figure_1">
  <g id="patch_1">
   <path d="M 0 432 
L 720 432 
L 720 0 
L 0 0 
z
" style="fill: #ffffff"/>
  </g>
  <g id="axes_1">
   <g id="patch_2">
    <path d="M 47.8 390.2 
L 709.2 390.2 
L 709.2 26.8 
L 47.8 26.8 
z
" style="fill: #ffffff"/>
   </g>
   <g id="PolyCollection_1">
    <defs>
     <path id="mcae515eaf9" d="M 77.863636 -205.201973 
L 77.863636 -81.723493 
L 83.999072 -113.790329 
L 90.134508 -156.107328 
L 96.269944 -201.689848 
L 102.40538 -219.220769 
L 108.540816 -254.749379 
L 114.676252 -275.013062 
L 120.811688 -281.737771 
L 126.947124 -292.519559 
L 133.08256 -304.937747 
L 139.217996 -306.058532 
L 145.353432 -310.541672 
L 151.488868 -320.71829 
L 157.624304 -325.806599 
L 163.75974 -327.963625 
L 169.895176 -327.963625 
L 176.030612 -327.963625 
L 182.166048 -331.619108 
L 188.301484 -331.619108 
L 194.43692 -335.274591 
L 200.572356 -340.656028 
L 206.707792 -340.656028 
L 212.843228 -340.656028 
L 218.978664 -340.656028 
L 225.1141 -340.656028 
L 231.249536 -340.656028 
L 237.384972 -340.656028 
L 243.520408 -340.656028 
L 249.655844 -340.656028 
L 255.79128 -344.311512 
L 261.926716 -344.311512 
L 268.062152 -344.311512 
L 274.197588 -346.037466 
L 280.333024 -346.037466 
L 286.46846 -347.76342 
L 292.603896 -347.76342 
L 298.739332 -353.144858 
L 304.874768 -353.144858 
L 311.010204 -353.144858 
L 317.14564 -353.144858 
L 323.281076 -353.144858 
L 329.416512 -353.144858 
L 335.551948 -353.144858 
L 341.687384 -353.144858 
L 347.82282 -353.144858 
L 353.958256 -353.144858 
L 360.093692 -353.144858 
L 366.229128 -355.956768 
L 372.364564 -355.956768 
L 378.5 -355.956768 
L 384.635436 -357.682723 
L 390.770872 -358.526296 
L 396.906308 -358.526296 
L 403.041744 -358.526296 
L 409.17718 -358.526296 
L 415.312616 -358.526296 
L 421.448052 -358.526296 
L 427.583488 -360.494633 
L 433.718924 -360.494633 
L 439.85436 -360.494633 
L 445.989796 -360.494633 
L 452.125232 -361.900588 
L 458.260668 -361.900588 
L 464.396104 -365.352497 
L 470.53154 -365.352497 
L 476.666976 -367.078451 
L 482.802412 -368.804406 
L 488.937848 -368.804406 
L 495.073284 -368.804406 
L 501.20872 -368.804406 
L 507.344156 -371.936315 
L 513.479592 -371.936315 
L 519.615028 -371.936315 
L 525.750464 -371.936315 
L 531.8859 -371.936315 
L 538.021336 -371.936315 
L 544.156772 -371.936315 
L 550.292208 -371.936315 
L 556.427644 -373.66227 
L 562.56308 -375.068225 
L 568.698516 -376.630775 
L 574.833952 -378.639282 
L 580.969388 -378.639282 
L 587.104824 -378.639282 
L 593.24026 -378.639282 
L 599.375696 -378.639282 
L 605.511132 -378.639282 
L 611.646568 -378.639282 
L 617.782004 -382.656297 
L 623.91744 -384.604923 
L 630.052876 -384.604923 
L 636.188312 -385.132156 
L 642.323748 -385.843281 
L 648.459184 -386.531622 
L 654.59462 -386.531622 
L 660.730056 -388.007439 
L 666.865492 -388.007439 
L 673.000928 -388.007439 
L 679.136364 -388.681818 
L 679.136364 -388.681818 
L 679.136364 -388.681818 
L 673.000928 -388.681818 
L 666.865492 -388.681818 
L 660.730056 -388.681818 
L 654.59462 -388.681818 
L 648.459184 -388.681818 
L 642.323748 -388.681818 
L 636.188312 -388.681818 
L 630.052876 -388.681818 
L 623.91744 -388.681818 
L 617.782004 -388.681818 
L 611.646568 -388.681818 
L 605.511132 -388.681818 
L 599.375696 -388.681818 
L 593.24026 -388.681818 
L 587.104824 -388.681818 
L 580.969388 -388.681818 
L 574.833952 -388.681818 
L 568.698516 -388.681818 
L 562.56308 -388.681818 
L 556.427644 -388.681818 
L 550.292208 -388.681818 
L 544.156772 -388.681818 
L 538.021336 -388.681818 
L 531.8859 -388.681818 
L 525.750464 -388.681818 
L 519.615028 -388.681818 
L 513.479592 -388.681818 
L 507.344156 -388.681818 
L 501.20872 -388.681818 
L 495.073284 -388.681818 
L 488.937848 -388.681818 
L 482.802412 -388.681818 
L 476.666976 -388.681818 
L 470.53154 -388.681818 
L 464.396104 -388.681818 
L 458.260668 -388.681818 
L 452.125232 -388.681818 
L 445.989796 -388.681818 
L 439.85436 -388.681818 
L 433.718924 -388.681818 
L 427.583488 -388.681818 
L 421.448052 -388.681818 
L 415.312616 -388.681818 
L 409.17718 -388.681818 
L 403.041744 -388.681818 
L 396.906308 -388.681818 
L 390.770872 -388.681818 
L 384.635436 -388.681818 
L 378.5 -388.681818 
L 372.364564 -388.681818 
L 366.229128 -388.681818 
L 360.093692 -388.681818 
L 353.958256 -388.681818 
L 347.82282 -388.681818 
L 341.687384 -388.681818 
L 335.551948 -388.681818 
L 329.416512 -388.681818 
L 323.281076 -388.681818 
L 317.14564 -388.681818 
L 311.010204 -388.681818 
L 304.874768 -388.681818 
L 298.739332 -388.681818 
L 292.603896 -388.681818 
L 286.46846 -388.681818 
L 280.333024 -388.681818 
L 274.197588 -388.681818 
L 268.062152 -388.681818 
L 261.926716 -388.681818 
L 255.79128 -388.681818 
L 249.655844 -388.681818 
L 243.520408 -388.681818 
L 237.384972 -388.681818 
L 231.249536 -388.681818 
L 225.1141 -388.681818 
L 218.978664 -388.681818 
L 212.843228 -388.681818 
L 206.707792 -388.681818 
L 200.572356 -388.681818 
L 194.43692 -388.681818 
L 188.301484 -388.681818 
L 182.166048 -388.681818 
L 176.030612 -387.267494 
L 169.895176 -387.267494 
L 163.75974 -387.267494 
L 157.624304 -385.853171 
L 151.488868 -383.626363 
L 145.353432 -383.024523 
L 139.217996 -383.024523 
L 133.08256 -380.195875 
L 126.947124 -378.819776 
L 120.811688 -375.991129 
L 114.676252 -368.957735 
L 108.540816 -357.681369 
L 102.40538 -346.366779 
L 96.269944 -336.466512 
L 90.134508 -295.451122 
L 83.999072 -256.079405 
L 77.863636 -205.201973 
z
" style="stroke: #0000ff; stroke-opacity: 0.2"/>
    </defs>
    <g clip-path="url(#p26f060ebc2)">
     <use xlink:href="#mcae515eaf9" x="0" y="432" style="fill: #0000ff; fill-opacity: 0.2; stroke: #0000ff; stroke-opacity: 0.2"/>
    </g>
   </g>
   <g id="PolyCollection_2">
    <defs>
     <path id="m77869620c0" d="M 77.863636 -205.473264 
L 77.863636 -70.249214 
L 83.999072 -93.196592 
L 90.134508 -141.121646 
L 96.269944 -186.870668 
L 102.40538 -208.243169 
L 108.540816 -240.410211 
L 114.676252 -269.932284 
L 120.811688 -281.188737 
L 126.947124 -293.156264 
L 133.08256 -308.129572 
L 139.217996 -313.392057 
L 145.353432 -319.129932 
L 151.488868 -324.402808 
L 157.624304 -325.780236 
L 163.75974 -328.737894 
L 169.895176 -334.827945 
L 176.030612 -337.173183 
L 182.166048 -339.408602 
L 188.301484 -339.408602 
L 194.43692 -344.883403 
L 200.572356 -344.883403 
L 206.707792 -347.620804 
L 212.843228 -352.964881 
L 218.978664 -354.530228 
L 225.1141 -355.222958 
L 231.249536 -357.162602 
L 237.384972 -357.162602 
L 243.520408 -357.162602 
L 249.655844 -357.162602 
L 255.79128 -360.027985 
L 261.926716 -361.923546 
L 268.062152 -362.893368 
L 274.197588 -364.78893 
L 280.333024 -364.78893 
L 286.46846 -366.911203 
L 292.603896 -367.654313 
L 298.739332 -367.654313 
L 304.874768 -369.486899 
L 311.010204 -369.486899 
L 317.14564 -369.486899 
L 323.281076 -369.486899 
L 329.416512 -369.486899 
L 335.551948 -369.486899 
L 341.687384 -371.646957 
L 347.82282 -371.646957 
L 353.958256 -371.646957 
L 360.093692 -373.30854 
L 366.229128 -373.30854 
L 372.364564 -373.30854 
L 378.5 -373.30854 
L 384.635436 -373.30854 
L 390.770872 -373.724178 
L 396.906308 -373.724178 
L 403.041744 -373.724178 
L 409.17718 -374.555454 
L 415.312616 -374.555454 
L 421.448052 -374.555454 
L 427.583488 -374.971092 
L 433.718924 -374.971092 
L 439.85436 -375.38673 
L 445.989796 -375.38673 
L 452.125232 -375.38673 
L 458.260668 -375.38673 
L 464.396104 -375.38673 
L 470.53154 -375.38673 
L 476.666976 -375.885205 
L 482.802412 -375.885205 
L 488.937848 -375.885205 
L 495.073284 -378.045263 
L 501.20872 -378.460901 
L 507.344156 -378.460901 
L 513.479592 -378.460901 
L 519.615028 -378.460901 
L 525.750464 -378.87654 
L 531.8859 -378.87654 
L 538.021336 -381.036598 
L 544.156772 -381.452236 
L 550.292208 -381.452236 
L 556.427644 -381.452236 
L 562.56308 -381.867874 
L 568.698516 -382.933108 
L 574.833952 -382.933108 
L 580.969388 -382.933108 
L 587.104824 -382.933108 
L 593.24026 -382.933108 
L 599.375696 -382.933108 
L 605.511132 -382.933108 
L 611.646568 -382.933108 
L 617.782004 -382.933108 
L 623.91744 -382.933108 
L 630.052876 -383.348746 
L 636.188312 -383.348746 
L 642.323748 -384.377403 
L 648.459184 -384.377403 
L 654.59462 -386.317047 
L 660.730056 -387.286869 
L 666.865492 -387.286869 
L 673.000928 -387.286869 
L 679.136364 -388.681818 
L 679.136364 -388.681818 
L 679.136364 -388.681818 
L 673.000928 -388.681818 
L 666.865492 -388.681818 
L 660.730056 -388.681818 
L 654.59462 -388.681818 
L 648.459184 -388.681818 
L 642.323748 -388.681818 
L 636.188312 -388.681818 
L 630.052876 -388.681818 
L 623.91744 -388.681818 
L 617.782004 -388.681818 
L 611.646568 -388.681818 
L 605.511132 -388.681818 
L 599.375696 -388.681818 
L 593.24026 -388.681818 
L 587.104824 -388.681818 
L 580.969388 -388.681818 
L 574.833952 -388.681818 
L 568.698516 -388.681818 
L 562.56308 -388.681818 
L 556.427644 -388.681818 
L 550.292208 -388.681818 
L 544.156772 -388.681818 
L 538.021336 -388.681818 
L 531.8859 -388.681818 
L 525.750464 -388.681818 
L 519.615028 -388.681818 
L 513.479592 -388.681818 
L 507.344156 -388.681818 
L 501.20872 -388.681818 
L 495.073284 -388.681818 
L 488.937848 -388.681818 
L 482.802412 -388.681818 
L 476.666976 -388.681818 
L 470.53154 -388.681818 
L 464.396104 -388.681818 
L 458.260668 -388.681818 
L 452.125232 -388.681818 
L 445.989796 -388.681818 
L 439.85436 -388.681818 
L 433.718924 -388.681818 
L 427.583488 -388.681818 
L 421.448052 -388.681818 
L 415.312616 -388.681818 
L 409.17718 -388.681818 
L 403.041744 -388.681818 
L 396.906308 -388.681818 
L 390.770872 -388.681818 
L 384.635436 -388.681818 
L 378.5 -388.681818 
L 372.364564 -388.681818 
L 366.229128 -388.681818 
L 360.093692 -388.681818 
L 353.958256 -388.681818 
L 347.82282 -388.681818 
L 341.687384 -388.681818 
L 335.551948 -388.681818 
L 329.416512 -388.681818 
L 323.281076 -388.681818 
L 317.14564 -388.681818 
L 311.010204 -388.681818 
L 304.874768 -388.681818 
L 298.739332 -388.681818 
L 292.603896 -388.681818 
L 286.46846 -388.681818 
L 280.333024 -388.681818 
L 274.197588 -388.681818 
L 268.062152 -388.681818 
L 261.926716 -387.719849 
L 255.79128 -387.719849 
L 249.655844 -387.719849 
L 243.520408 -387.719849 
L 237.384972 -387.719849 
L 231.249536 -387.719849 
L 225.1141 -386.75788 
L 218.978664 -386.668205 
L 212.843228 -386.668205 
L 206.707792 -386.668205 
L 200.572356 -386.668205 
L 194.43692 -386.668205 
L 188.301484 -386.668205 
L 182.166048 -386.668205 
L 176.030612 -384.692441 
L 169.895176 -383.314705 
L 163.75974 -383.314705 
L 157.624304 -383.314705 
L 151.488868 -379.840086 
L 145.353432 -379.840086 
L 139.217996 -375.933979 
L 133.08256 -373.920365 
L 126.947124 -371.906752 
L 120.811688 -367.213367 
L 114.676252 -365.199753 
L 108.540816 -347.077231 
L 102.40538 -332.315779 
L 96.269944 -324.261324 
L 90.134508 -284.662781 
L 83.999072 -260.506988 
L 77.863636 -205.473264 
z
" style="stroke: #1e90ff; stroke-opacity: 0.2"/>
    </defs>
    <g clip-path="url(#p26f060ebc2)">
     <use xlink:href="#m77869620c0" x="0" y="432" style="fill: #1e90ff; fill-opacity: 0.2; stroke: #1e90ff; stroke-opacity: 0.2"/>
    </g>
   </g>
   <g id="PolyCollection_3">
    <defs>
     <path id="m8415f5716b" d="M 77.863636 -133.16065 
L 77.863636 -59.47634 
L 83.999072 -74.900536 
L 90.134508 -100.556968 
L 96.269944 -151.718147 
L 102.40538 -192.14062 
L 108.540816 -221.39376 
L 114.676252 -248.359944 
L 120.811688 -271.285459 
L 126.947124 -289.478602 
L 133.08256 -302.960326 
L 139.217996 -327.609969 
L 145.353432 -329.495734 
L 151.488868 -336.715521 
L 157.624304 -338.601286 
L 163.75974 -345.821072 
L 169.895176 -347.706837 
L 176.030612 -349.592602 
L 182.166048 -351.478367 
L 188.301484 -351.478367 
L 194.43692 -353.364132 
L 200.572356 -357.916908 
L 206.707792 -357.916908 
L 212.843228 -363.250929 
L 218.978664 -368.4293 
L 225.1141 -370.470715 
L 231.249536 -370.470715 
L 237.384972 -370.470715 
L 243.520408 -372.356481 
L 249.655844 -372.391188 
L 255.79128 -372.391188 
L 261.926716 -372.391188 
L 268.062152 -373.328286 
L 274.197588 -373.328286 
L 280.333024 -375.995296 
L 286.46846 -376.909256 
L 292.603896 -376.909256 
L 298.739332 -376.909256 
L 304.874768 -376.909256 
L 311.010204 -376.909256 
L 317.14564 -376.909256 
L 323.281076 -376.909256 
L 329.416512 -376.909256 
L 335.551948 -376.909256 
L 341.687384 -376.909256 
L 347.82282 -376.909256 
L 353.958256 -376.909256 
L 360.093692 -376.909256 
L 366.229128 -376.909256 
L 372.364564 -376.909256 
L 378.5 -376.909256 
L 384.635436 -376.909256 
L 390.770872 -376.909256 
L 396.906308 -376.909256 
L 403.041744 -376.909256 
L 409.17718 -376.909256 
L 415.312616 -376.909256 
L 421.448052 -376.909256 
L 427.583488 -376.909256 
L 433.718924 -378.588362 
L 439.85436 -378.588362 
L 445.989796 -381.255373 
L 452.125232 -381.255373 
L 458.260668 -381.255373 
L 464.396104 -381.255373 
L 470.53154 -383.922383 
L 476.666976 -383.922383 
L 482.802412 -383.922383 
L 488.937848 -383.922383 
L 495.073284 -383.922383 
L 501.20872 -383.922383 
L 507.344156 -383.922383 
L 513.479592 -383.922383 
L 519.615028 -383.922383 
L 525.750464 -383.922383 
L 531.8859 -383.922383 
L 538.021336 -383.922383 
L 544.156772 -383.922383 
L 550.292208 -383.922383 
L 556.427644 -383.922383 
L 562.56308 -383.922383 
L 568.698516 -383.922383 
L 574.833952 -383.922383 
L 580.969388 -383.922383 
L 587.104824 -383.922383 
L 593.24026 -383.922383 
L 599.375696 -383.922383 
L 605.511132 -383.922383 
L 611.646568 -383.922383 
L 617.782004 -383.922383 
L 623.91744 -383.922383 
L 630.052876 -384.992952 
L 636.188312 -384.992952 
L 642.323748 -385.503488 
L 648.459184 -385.503488 
L 654.59462 -385.503488 
L 660.730056 -387.922913 
L 666.865492 -387.922913 
L 673.000928 -387.922913 
L 679.136364 -388.681818 
L 679.136364 -388.681818 
L 679.136364 -388.681818 
L 673.000928 -388.681818 
L 666.865492 -388.681818 
L 660.730056 -388.681818 
L 654.59462 -388.681818 
L 648.459184 -388.681818 
L 642.323748 -388.681818 
L 636.188312 -388.681818 
L 630.052876 -388.681818 
L 623.91744 -388.681818 
L 617.782004 -388.681818 
L 611.646568 -388.681818 
L 605.511132 -388.681818 
L 599.375696 -388.681818 
L 593.24026 -388.681818 
L 587.104824 -388.681818 
L 580.969388 -388.681818 
L 574.833952 -388.681818 
L 568.698516 -388.681818 
L 562.56308 -388.681818 
L 556.427644 -388.681818 
L 550.292208 -388.681818 
L 544.156772 -388.681818 
L 538.021336 -388.681818 
L 531.8859 -388.681818 
L 525.750464 -388.681818 
L 519.615028 -388.681818 
L 513.479592 -388.681818 
L 507.344156 -388.681818 
L 501.20872 -388.681818 
L 495.073284 -388.681818 
L 488.937848 -388.681818 
L 482.802412 -388.681818 
L 476.666976 -388.681818 
L 470.53154 -388.681818 
L 464.396104 -388.681818 
L 458.260668 -388.681818 
L 452.125232 -388.681818 
L 445.989796 -388.681818 
L 439.85436 -388.681818 
L 433.718924 -388.681818 
L 427.583488 -388.681818 
L 421.448052 -388.681818 
L 415.312616 -388.681818 
L 409.17718 -388.681818 
L 403.041744 -388.681818 
L 396.906308 -388.681818 
L 390.770872 -388.681818 
L 384.635436 -388.681818 
L 378.5 -388.681818 
L 372.364564 -388.681818 
L 366.229128 -388.681818 
L 360.093692 -388.681818 
L 353.958256 -388.681818 
L 347.82282 -388.681818 
L 341.687384 -388.681818 
L 335.551948 -388.681818 
L 329.416512 -388.681818 
L 323.281076 -387.154253 
L 317.14564 -387.154253 
L 311.010204 -387.154253 
L 304.874768 -387.154253 
L 298.739332 -387.154253 
L 292.603896 -387.154253 
L 286.46846 -387.154253 
L 280.333024 -387.154253 
L 274.197588 -387.154253 
L 268.062152 -387.154253 
L 261.926716 -387.154253 
L 255.79128 -387.154253 
L 249.655844 -387.154253 
L 243.520408 -387.154253 
L 237.384972 -387.154253 
L 231.249536 -387.154253 
L 225.1141 -387.154253 
L 218.978664 -387.154253 
L 212.843228 -387.154253 
L 206.707792 -386.541591 
L 200.572356 -386.001849 
L 194.43692 -386.001849 
L 188.301484 -386.001849 
L 182.166048 -385.005576 
L 176.030612 -384.871716 
L 169.895176 -384.871716 
L 163.75974 -384.401365 
L 157.624304 -384.401365 
L 151.488868 -381.911873 
L 145.353432 -377.120982 
L 139.217996 -374.725536 
L 133.08256 -366.428026 
L 126.947124 -361.982876 
L 120.811688 -357.558893 
L 114.676252 -345.917142 
L 108.540816 -314.779151 
L 102.40538 -293.979616 
L 96.269944 -265.13201 
L 90.134508 -218.397232 
L 83.999072 -169.933069 
L 77.863636 -133.16065 
z
" style="stroke: #ff0000; stroke-opacity: 0.2"/>
    </defs>
    <g clip-path="url(#p26f060ebc2)">
     <use xlink:href="#m8415f5716b" x="0" y="432" style="fill: #ff0000; fill-opacity: 0.2; stroke: #ff0000; stroke-opacity: 0.2"/>
    </g>
   </g>
   <g id="PolyCollection_4">
    <defs>
     <path id="m3548ee3499" d="M 77.863636 -126.021469 
L 77.863636 -58.318182 
L 83.999072 -61.342874 
L 90.134508 -96.128783 
L 96.269944 -125.303019 
L 102.40538 -146.14176 
L 108.540816 -175.373191 
L 114.676252 -221.218419 
L 120.811688 -241.999965 
L 126.947124 -255.313881 
L 133.08256 -269.659626 
L 139.217996 -292.011417 
L 145.353432 -293.653858 
L 151.488868 -296.938739 
L 157.624304 -305.20204 
L 163.75974 -310.976131 
L 169.895176 -317.596991 
L 176.030612 -325.860292 
L 182.166048 -334.123593 
L 188.301484 -339.102013 
L 194.43692 -348.212083 
L 200.572356 -348.212083 
L 206.707792 -352.314535 
L 212.843228 -353.986174 
L 218.978664 -358.117824 
L 225.1141 -359.760265 
L 231.249536 -363.404316 
L 237.384972 -365.97007 
L 243.520408 -367.090568 
L 249.655844 -367.090568 
L 255.79128 -368.801444 
L 261.926716 -370.68911 
L 268.062152 -370.68911 
L 274.197588 -372.244189 
L 280.333024 -372.244189 
L 286.46846 -373.360927 
L 292.603896 -374.287652 
L 298.739332 -374.54223 
L 304.874768 -374.54223 
L 311.010204 -374.54223 
L 317.14564 -375.616494 
L 323.281076 -375.616494 
L 329.416512 -375.616494 
L 335.551948 -375.616494 
L 341.687384 -375.616494 
L 347.82282 -377.599857 
L 353.958256 -377.841688 
L 360.093692 -377.841688 
L 366.229128 -377.841688 
L 372.364564 -377.841688 
L 378.5 -377.841688 
L 384.635436 -377.841688 
L 390.770872 -377.841688 
L 396.906308 -378.778786 
L 403.041744 -378.778786 
L 409.17718 -378.778786 
L 415.312616 -378.778786 
L 421.448052 -378.778786 
L 427.583488 -378.778786 
L 433.718924 -378.778786 
L 439.85436 -378.778786 
L 445.989796 -378.778786 
L 452.125232 -378.778786 
L 458.260668 -378.778786 
L 464.396104 -378.778786 
L 470.53154 -378.778786 
L 476.666976 -378.778786 
L 482.802412 -380.743374 
L 488.937848 -380.743374 
L 495.073284 -381.767431 
L 501.20872 -381.767431 
L 507.344156 -381.767431 
L 513.479592 -381.767431 
L 519.615028 -381.767431 
L 525.750464 -381.767431 
L 531.8859 -381.767431 
L 538.021336 -381.767431 
L 544.156772 -381.767431 
L 550.292208 -381.767431 
L 556.427644 -381.767431 
L 562.56308 -381.767431 
L 568.698516 -382.859121 
L 574.833952 -382.859121 
L 580.969388 -383.890579 
L 587.104824 -383.890579 
L 593.24026 -384.712596 
L 599.375696 -384.712596 
L 605.511132 -384.712596 
L 611.646568 -384.712596 
L 617.782004 -384.712596 
L 623.91744 -384.987831 
L 630.052876 -384.987831 
L 636.188312 -386.761111 
L 642.323748 -387.734149 
L 648.459184 -387.734149 
L 654.59462 -387.734149 
L 660.730056 -387.734149 
L 666.865492 -387.734149 
L 673.000928 -388.681818 
L 679.136364 -388.681818 
L 679.136364 -388.681818 
L 679.136364 -388.681818 
L 673.000928 -388.681818 
L 666.865492 -388.681818 
L 660.730056 -388.681818 
L 654.59462 -388.681818 
L 648.459184 -388.681818 
L 642.323748 -388.681818 
L 636.188312 -388.681818 
L 630.052876 -388.681818 
L 623.91744 -388.681818 
L 617.782004 -388.681818 
L 611.646568 -388.681818 
L 605.511132 -388.681818 
L 599.375696 -388.681818 
L 593.24026 -388.681818 
L 587.104824 -388.681818 
L 580.969388 -388.681818 
L 574.833952 -388.681818 
L 568.698516 -388.681818 
L 562.56308 -388.681818 
L 556.427644 -388.681818 
L 550.292208 -388.681818 
L 544.156772 -388.681818 
L 538.021336 -388.681818 
L 531.8859 -388.681818 
L 525.750464 -388.681818 
L 519.615028 -388.681818 
L 513.479592 -388.681818 
L 507.344156 -388.681818 
L 501.20872 -388.681818 
L 495.073284 -388.681818 
L 488.937848 -388.681818 
L 482.802412 -388.681818 
L 476.666976 -388.681818 
L 470.53154 -388.681818 
L 464.396104 -388.681818 
L 458.260668 -388.681818 
L 452.125232 -388.681818 
L 445.989796 -388.681818 
L 439.85436 -388.681818 
L 433.718924 -388.681818 
L 427.583488 -388.681818 
L 421.448052 -388.681818 
L 415.312616 -388.681818 
L 409.17718 -388.681818 
L 403.041744 -388.681818 
L 396.906308 -388.681818 
L 390.770872 -388.681818 
L 384.635436 -388.681818 
L 378.5 -388.681818 
L 372.364564 -388.681818 
L 366.229128 -388.681818 
L 360.093692 -388.681818 
L 353.958256 -388.681818 
L 347.82282 -388.681818 
L 341.687384 -388.681818 
L 335.551948 -388.681818 
L 329.416512 -388.681818 
L 323.281076 -388.681818 
L 317.14564 -388.681818 
L 311.010204 -388.681818 
L 304.874768 -388.681818 
L 298.739332 -388.681818 
L 292.603896 -388.681818 
L 286.46846 -388.681818 
L 280.333024 -388.681818 
L 274.197588 -388.681818 
L 268.062152 -388.681818 
L 261.926716 -388.681818 
L 255.79128 -388.681818 
L 249.655844 -388.681818 
L 243.520408 -388.681818 
L 237.384972 -387.469541 
L 231.249536 -385.948121 
L 225.1141 -385.63922 
L 218.978664 -385.63922 
L 212.843228 -385.63922 
L 206.707792 -385.63922 
L 200.572356 -384.329346 
L 194.43692 -384.329346 
L 188.301484 -384.329346 
L 182.166048 -383.077322 
L 176.030612 -381.883262 
L 169.895176 -381.1761 
L 163.75974 -381.1761 
L 157.624304 -379.761776 
L 151.488868 -379.761776 
L 145.353432 -377.206191 
L 139.217996 -376.499029 
L 133.08256 -370.246597 
L 126.947124 -366.276689 
L 120.811688 -360.235549 
L 114.676252 -352.364184 
L 108.540816 -331.78928 
L 102.40538 -315.568876 
L 96.269944 -279.431222 
L 90.134508 -223.125077 
L 83.999072 -168.661724 
L 77.863636 -126.021469 
z
" style="stroke: #8b0000; stroke-opacity: 0.2"/>
    </defs>
    <g clip-path="url(#p26f060ebc2)">
     <use xlink:href="#m3548ee3499" x="0" y="432" style="fill: #8b0000; fill-opacity: 0.2; stroke: #8b0000; stroke-opacity: 0.2"/>
    </g>
   </g>
   <g id="matplotlib.axis_1">
    <g id="xtick_1">
     <g id="line2d_1">
      <path d="M 71.7282 390.2 
L 71.7282 26.8 
" clip-path="url(#p26f060ebc2)" style="fill: none; stroke: #b0b0b0; stroke-width: 0.8; stroke-linecap: square"/>
     </g>
     <g id="line2d_2">
      <defs>
       <path id="ma266782563" d="M 0 0 
L 0 3.5 
" style="stroke: #000000; stroke-width: 0.8"/>
      </defs>
      <g>
       <use xlink:href="#ma266782563" x="71.7282" y="390.2" style="stroke: #000000; stroke-width: 0.8"/>
      </g>
     </g>
     <g id="text_1">
      <!-- 0 -->
      <g transform="translate(68.54695 404.798438)scale(0.1 -0.1)">
       <defs>
        <path id="DejaVuSans-30" d="M 2034 4250 
Q 1547 4250 1301 3770 
Q 1056 3291 1056 2328 
Q 1056 1369 1301 889 
Q 1547 409 2034 409 
Q 2525 409 2770 889 
Q 3016 1369 3016 2328 
Q 3016 3291 2770 3770 
Q 2525 4250 2034 4250 
z
M 2034 4750 
Q 2819 4750 3233 4129 
Q 3647 3509 3647 2328 
Q 3647 1150 3233 529 
Q 2819 -91 2034 -91 
Q 1250 -91 836 529 
Q 422 1150 422 2328 
Q 422 3509 836 4129 
Q 1250 4750 2034 4750 
z
" transform="scale(0.015625)"/>
       </defs>
       <use xlink:href="#DejaVuSans-30"/>
      </g>
     </g>
    </g>
    <g id="xtick_2">
     <g id="line2d_3">
      <path d="M 147.654221 390.2 
L 147.654221 26.8 
" clip-path="url(#p26f060ebc2)" style="fill: none; stroke: #b0b0b0; stroke-width: 0.8; stroke-linecap: square"/>
     </g>
     <g id="line2d_4">
      <g>
       <use xlink:href="#ma266782563" x="147.654221" y="390.2" style="stroke: #000000; stroke-width: 0.8"/>
      </g>
     </g>
     <g id="text_2">
      <!-- 1 -->
      <g transform="translate(144.472971 404.798438)scale(0.1 -0.1)">
       <defs>
        <path id="DejaVuSans-31" d="M 794 531 
L 1825 531 
L 1825 4091 
L 703 3866 
L 703 4441 
L 1819 4666 
L 2450 4666 
L 2450 531 
L 3481 531 
L 3481 0 
L 794 0 
L 794 531 
z
" transform="scale(0.015625)"/>
       </defs>
       <use xlink:href="#DejaVuSans-31"/>
      </g>
     </g>
    </g>
    <g id="xtick_3">
     <g id="line2d_5">
      <path d="M 223.580241 390.2 
L 223.580241 26.8 
" clip-path="url(#p26f060ebc2)" style="fill: none; stroke: #b0b0b0; stroke-width: 0.8; stroke-linecap: square"/>
     </g>
     <g id="line2d_6">
      <g>
       <use xlink:href="#ma266782563" x="223.580241" y="390.2" style="stroke: #000000; stroke-width: 0.8"/>
      </g>
     </g>
     <g id="text_3">
      <!-- 2 -->
      <g transform="translate(220.398991 404.798438)scale(0.1 -0.1)">
       <defs>
        <path id="DejaVuSans-32" d="M 1228 531 
L 3431 531 
L 3431 0 
L 469 0 
L 469 531 
Q 828 903 1448 1529 
Q 2069 2156 2228 2338 
Q 2531 2678 2651 2914 
Q 2772 3150 2772 3378 
Q 2772 3750 2511 3984 
Q 2250 4219 1831 4219 
Q 1534 4219 1204 4116 
Q 875 4013 500 3803 
L 500 4441 
Q 881 4594 1212 4672 
Q 1544 4750 1819 4750 
Q 2544 4750 2975 4387 
Q 3406 4025 3406 3419 
Q 3406 3131 3298 2873 
Q 3191 2616 2906 2266 
Q 2828 2175 2409 1742 
Q 1991 1309 1228 531 
z
" transform="scale(0.015625)"/>
       </defs>
       <use xlink:href="#DejaVuSans-32"/>
      </g>
     </g>
    </g>
    <g id="xtick_4">
     <g id="line2d_7">
      <path d="M 299.506262 390.2 
L 299.506262 26.8 
" clip-path="url(#p26f060ebc2)" style="fill: none; stroke: #b0b0b0; stroke-width: 0.8; stroke-linecap: square"/>
     </g>
     <g id="line2d_8">
      <g>
       <use xlink:href="#ma266782563" x="299.506262" y="390.2" style="stroke: #000000; stroke-width: 0.8"/>
      </g>
     </g>
     <g id="text_4">
      <!-- 3 -->
      <g transform="translate(296.325012 404.798438)scale(0.1 -0.1)">
       <defs>
        <path id="DejaVuSans-33" d="M 2597 2516 
Q 3050 2419 3304 2112 
Q 3559 1806 3559 1356 
Q 3559 666 3084 287 
Q 2609 -91 1734 -91 
Q 1441 -91 1130 -33 
Q 819 25 488 141 
L 488 750 
Q 750 597 1062 519 
Q 1375 441 1716 441 
Q 2309 441 2620 675 
Q 2931 909 2931 1356 
Q 2931 1769 2642 2001 
Q 2353 2234 1838 2234 
L 1294 2234 
L 1294 2753 
L 1863 2753 
Q 2328 2753 2575 2939 
Q 2822 3125 2822 3475 
Q 2822 3834 2567 4026 
Q 2313 4219 1838 4219 
Q 1578 4219 1281 4162 
Q 984 4106 628 3988 
L 628 4550 
Q 988 4650 1302 4700 
Q 1616 4750 1894 4750 
Q 2613 4750 3031 4423 
Q 3450 4097 3450 3541 
Q 3450 3153 3228 2886 
Q 3006 2619 2597 2516 
z
" transform="scale(0.015625)"/>
       </defs>
       <use xlink:href="#DejaVuSans-33"/>
      </g>
     </g>
    </g>
    <g id="xtick_5">
     <g id="line2d_9">
      <path d="M 375.432282 390.2 
L 375.432282 26.8 
" clip-path="url(#p26f060ebc2)" style="fill: none; stroke: #b0b0b0; stroke-width: 0.8; stroke-linecap: square"/>
     </g>
     <g id="line2d_10">
      <g>
       <use xlink:href="#ma266782563" x="375.432282" y="390.2" style="stroke: #000000; stroke-width: 0.8"/>
      </g>
     </g>
     <g id="text_5">
      <!-- 4 -->
      <g transform="translate(372.251032 404.798438)scale(0.1 -0.1)">
       <defs>
        <path id="DejaVuSans-34" d="M 2419 4116 
L 825 1625 
L 2419 1625 
L 2419 4116 
z
M 2253 4666 
L 3047 4666 
L 3047 1625 
L 3713 1625 
L 3713 1100 
L 3047 1100 
L 3047 0 
L 2419 0 
L 2419 1100 
L 313 1100 
L 313 1709 
L 2253 4666 
z
" transform="scale(0.015625)"/>
       </defs>
       <use xlink:href="#DejaVuSans-34"/>
      </g>
     </g>
    </g>
    <g id="xtick_6">
     <g id="line2d_11">
      <path d="M 451.358302 390.2 
L 451.358302 26.8 
" clip-path="url(#p26f060ebc2)" style="fill: none; stroke: #b0b0b0; stroke-width: 0.8; stroke-linecap: square"/>
     </g>
     <g id="line2d_12">
      <g>
       <use xlink:href="#ma266782563" x="451.358302" y="390.2" style="stroke: #000000; stroke-width: 0.8"/>
      </g>
     </g>
     <g id="text_6">
      <!-- 5 -->
      <g transform="translate(448.177052 404.798438)scale(0.1 -0.1)">
       <defs>
        <path id="DejaVuSans-35" d="M 691 4666 
L 3169 4666 
L 3169 4134 
L 1269 4134 
L 1269 2991 
Q 1406 3038 1543 3061 
Q 1681 3084 1819 3084 
Q 2600 3084 3056 2656 
Q 3513 2228 3513 1497 
Q 3513 744 3044 326 
Q 2575 -91 1722 -91 
Q 1428 -91 1123 -41 
Q 819 9 494 109 
L 494 744 
Q 775 591 1075 516 
Q 1375 441 1709 441 
Q 2250 441 2565 725 
Q 2881 1009 2881 1497 
Q 2881 1984 2565 2268 
Q 2250 2553 1709 2553 
Q 1456 2553 1204 2497 
Q 953 2441 691 2322 
L 691 4666 
z
" transform="scale(0.015625)"/>
       </defs>
       <use xlink:href="#DejaVuSans-35"/>
      </g>
     </g>
    </g>
    <g id="xtick_7">
     <g id="line2d_13">
      <path d="M 527.284323 390.2 
L 527.284323 26.8 
" clip-path="url(#p26f060ebc2)" style="fill: none; stroke: #b0b0b0; stroke-width: 0.8; stroke-linecap: square"/>
     </g>
     <g id="line2d_14">
      <g>
       <use xlink:href="#ma266782563" x="527.284323" y="390.2" style="stroke: #000000; stroke-width: 0.8"/>
      </g>
     </g>
     <g id="text_7">
      <!-- 6 -->
      <g transform="translate(524.103073 404.798438)scale(0.1 -0.1)">
       <defs>
        <path id="DejaVuSans-36" d="M 2113 2584 
Q 1688 2584 1439 2293 
Q 1191 2003 1191 1497 
Q 1191 994 1439 701 
Q 1688 409 2113 409 
Q 2538 409 2786 701 
Q 3034 994 3034 1497 
Q 3034 2003 2786 2293 
Q 2538 2584 2113 2584 
z
M 3366 4563 
L 3366 3988 
Q 3128 4100 2886 4159 
Q 2644 4219 2406 4219 
Q 1781 4219 1451 3797 
Q 1122 3375 1075 2522 
Q 1259 2794 1537 2939 
Q 1816 3084 2150 3084 
Q 2853 3084 3261 2657 
Q 3669 2231 3669 1497 
Q 3669 778 3244 343 
Q 2819 -91 2113 -91 
Q 1303 -91 875 529 
Q 447 1150 447 2328 
Q 447 3434 972 4092 
Q 1497 4750 2381 4750 
Q 2619 4750 2861 4703 
Q 3103 4656 3366 4563 
z
" transform="scale(0.015625)"/>
       </defs>
       <use xlink:href="#DejaVuSans-36"/>
      </g>
     </g>
    </g>
    <g id="xtick_8">
     <g id="line2d_15">
      <path d="M 603.210343 390.2 
L 603.210343 26.8 
" clip-path="url(#p26f060ebc2)" style="fill: none; stroke: #b0b0b0; stroke-width: 0.8; stroke-linecap: square"/>
     </g>
     <g id="line2d_16">
      <g>
       <use xlink:href="#ma266782563" x="603.210343" y="390.2" style="stroke: #000000; stroke-width: 0.8"/>
      </g>
     </g>
     <g id="text_8">
      <!-- 7 -->
      <g transform="translate(600.029093 404.798438)scale(0.1 -0.1)">
       <defs>
        <path id="DejaVuSans-37" d="M 525 4666 
L 3525 4666 
L 3525 4397 
L 1831 0 
L 1172 0 
L 2766 4134 
L 525 4134 
L 525 4666 
z
" transform="scale(0.015625)"/>
       </defs>
       <use xlink:href="#DejaVuSans-37"/>
      </g>
     </g>
    </g>
    <g id="xtick_9">
     <g id="line2d_17">
      <path d="M 679.136364 390.2 
L 679.136364 26.8 
" clip-path="url(#p26f060ebc2)" style="fill: none; stroke: #b0b0b0; stroke-width: 0.8; stroke-linecap: square"/>
     </g>
     <g id="line2d_18">
      <g>
       <use xlink:href="#ma266782563" x="679.136364" y="390.2" style="stroke: #000000; stroke-width: 0.8"/>
      </g>
     </g>
     <g id="text_9">
      <!-- 8 -->
      <g transform="translate(675.955114 404.798438)scale(0.1 -0.1)">
       <defs>
        <path id="DejaVuSans-38" d="M 2034 2216 
Q 1584 2216 1326 1975 
Q 1069 1734 1069 1313 
Q 1069 891 1326 650 
Q 1584 409 2034 409 
Q 2484 409 2743 651 
Q 3003 894 3003 1313 
Q 3003 1734 2745 1975 
Q 2488 2216 2034 2216 
z
M 1403 2484 
Q 997 2584 770 2862 
Q 544 3141 544 3541 
Q 544 4100 942 4425 
Q 1341 4750 2034 4750 
Q 2731 4750 3128 4425 
Q 3525 4100 3525 3541 
Q 3525 3141 3298 2862 
Q 3072 2584 2669 2484 
Q 3125 2378 3379 2068 
Q 3634 1759 3634 1313 
Q 3634 634 3220 271 
Q 2806 -91 2034 -91 
Q 1263 -91 848 271 
Q 434 634 434 1313 
Q 434 1759 690 2068 
Q 947 2378 1403 2484 
z
M 1172 3481 
Q 1172 3119 1398 2916 
Q 1625 2713 2034 2713 
Q 2441 2713 2670 2916 
Q 2900 3119 2900 3481 
Q 2900 3844 2670 4047 
Q 2441 4250 2034 4250 
Q 1625 4250 1398 4047 
Q 1172 3844 1172 3481 
z
" transform="scale(0.015625)"/>
       </defs>
       <use xlink:href="#DejaVuSans-38"/>
      </g>
     </g>
    </g>
    <g id="text_10">
     <!-- Retrieval Time (s) -->
     <g transform="translate(334.3625 418.476562)scale(0.1 -0.1)">
      <defs>
       <path id="DejaVuSans-52" d="M 2841 2188 
Q 3044 2119 3236 1894 
Q 3428 1669 3622 1275 
L 4263 0 
L 3584 0 
L 2988 1197 
Q 2756 1666 2539 1819 
Q 2322 1972 1947 1972 
L 1259 1972 
L 1259 0 
L 628 0 
L 628 4666 
L 2053 4666 
Q 2853 4666 3247 4331 
Q 3641 3997 3641 3322 
Q 3641 2881 3436 2590 
Q 3231 2300 2841 2188 
z
M 1259 4147 
L 1259 2491 
L 2053 2491 
Q 2509 2491 2742 2702 
Q 2975 2913 2975 3322 
Q 2975 3731 2742 3939 
Q 2509 4147 2053 4147 
L 1259 4147 
z
" transform="scale(0.015625)"/>
       <path id="DejaVuSans-65" d="M 3597 1894 
L 3597 1613 
L 953 1613 
Q 991 1019 1311 708 
Q 1631 397 2203 397 
Q 2534 397 2845 478 
Q 3156 559 3463 722 
L 3463 178 
Q 3153 47 2828 -22 
Q 2503 -91 2169 -91 
Q 1331 -91 842 396 
Q 353 884 353 1716 
Q 353 2575 817 3079 
Q 1281 3584 2069 3584 
Q 2775 3584 3186 3129 
Q 3597 2675 3597 1894 
z
M 3022 2063 
Q 3016 2534 2758 2815 
Q 2500 3097 2075 3097 
Q 1594 3097 1305 2825 
Q 1016 2553 972 2059 
L 3022 2063 
z
" transform="scale(0.015625)"/>
       <path id="DejaVuSans-74" d="M 1172 4494 
L 1172 3500 
L 2356 3500 
L 2356 3053 
L 1172 3053 
L 1172 1153 
Q 1172 725 1289 603 
Q 1406 481 1766 481 
L 2356 481 
L 2356 0 
L 1766 0 
Q 1100 0 847 248 
Q 594 497 594 1153 
L 594 3053 
L 172 3053 
L 172 3500 
L 594 3500 
L 594 4494 
L 1172 4494 
z
" transform="scale(0.015625)"/>
       <path id="DejaVuSans-72" d="M 2631 2963 
Q 2534 3019 2420 3045 
Q 2306 3072 2169 3072 
Q 1681 3072 1420 2755 
Q 1159 2438 1159 1844 
L 1159 0 
L 581 0 
L 581 3500 
L 1159 3500 
L 1159 2956 
Q 1341 3275 1631 3429 
Q 1922 3584 2338 3584 
Q 2397 3584 2469 3576 
Q 2541 3569 2628 3553 
L 2631 2963 
z
" transform="scale(0.015625)"/>
       <path id="DejaVuSans-69" d="M 603 3500 
L 1178 3500 
L 1178 0 
L 603 0 
L 603 3500 
z
M 603 4863 
L 1178 4863 
L 1178 4134 
L 603 4134 
L 603 4863 
z
" transform="scale(0.015625)"/>
       <path id="DejaVuSans-76" d="M 191 3500 
L 800 3500 
L 1894 563 
L 2988 3500 
L 3597 3500 
L 2284 0 
L 1503 0 
L 191 3500 
z
" transform="scale(0.015625)"/>
       <path id="DejaVuSans-61" d="M 2194 1759 
Q 1497 1759 1228 1600 
Q 959 1441 959 1056 
Q 959 750 1161 570 
Q 1363 391 1709 391 
Q 2188 391 2477 730 
Q 2766 1069 2766 1631 
L 2766 1759 
L 2194 1759 
z
M 3341 1997 
L 3341 0 
L 2766 0 
L 2766 531 
Q 2569 213 2275 61 
Q 1981 -91 1556 -91 
Q 1019 -91 701 211 
Q 384 513 384 1019 
Q 384 1609 779 1909 
Q 1175 2209 1959 2209 
L 2766 2209 
L 2766 2266 
Q 2766 2663 2505 2880 
Q 2244 3097 1772 3097 
Q 1472 3097 1187 3025 
Q 903 2953 641 2809 
L 641 3341 
Q 956 3463 1253 3523 
Q 1550 3584 1831 3584 
Q 2591 3584 2966 3190 
Q 3341 2797 3341 1997 
z
" transform="scale(0.015625)"/>
       <path id="DejaVuSans-6c" d="M 603 4863 
L 1178 4863 
L 1178 0 
L 603 0 
L 603 4863 
z
" transform="scale(0.015625)"/>
       <path id="DejaVuSans-20" transform="scale(0.015625)"/>
       <path id="DejaVuSans-54" d="M -19 4666 
L 3928 4666 
L 3928 4134 
L 2272 4134 
L 2272 0 
L 1638 0 
L 1638 4134 
L -19 4134 
L -19 4666 
z
" transform="scale(0.015625)"/>
       <path id="DejaVuSans-6d" d="M 3328 2828 
Q 3544 3216 3844 3400 
Q 4144 3584 4550 3584 
Q 5097 3584 5394 3201 
Q 5691 2819 5691 2113 
L 5691 0 
L 5113 0 
L 5113 2094 
Q 5113 2597 4934 2840 
Q 4756 3084 4391 3084 
Q 3944 3084 3684 2787 
Q 3425 2491 3425 1978 
L 3425 0 
L 2847 0 
L 2847 2094 
Q 2847 2600 2669 2842 
Q 2491 3084 2119 3084 
Q 1678 3084 1418 2786 
Q 1159 2488 1159 1978 
L 1159 0 
L 581 0 
L 581 3500 
L 1159 3500 
L 1159 2956 
Q 1356 3278 1631 3431 
Q 1906 3584 2284 3584 
Q 2666 3584 2933 3390 
Q 3200 3197 3328 2828 
z
" transform="scale(0.015625)"/>
       <path id="DejaVuSans-28" d="M 1984 4856 
Q 1566 4138 1362 3434 
Q 1159 2731 1159 2009 
Q 1159 1288 1364 580 
Q 1569 -128 1984 -844 
L 1484 -844 
Q 1016 -109 783 600 
Q 550 1309 550 2009 
Q 550 2706 781 3412 
Q 1013 4119 1484 4856 
L 1984 4856 
z
" transform="scale(0.015625)"/>
       <path id="DejaVuSans-73" d="M 2834 3397 
L 2834 2853 
Q 2591 2978 2328 3040 
Q 2066 3103 1784 3103 
Q 1356 3103 1142 2972 
Q 928 2841 928 2578 
Q 928 2378 1081 2264 
Q 1234 2150 1697 2047 
L 1894 2003 
Q 2506 1872 2764 1633 
Q 3022 1394 3022 966 
Q 3022 478 2636 193 
Q 2250 -91 1575 -91 
Q 1294 -91 989 -36 
Q 684 19 347 128 
L 347 722 
Q 666 556 975 473 
Q 1284 391 1588 391 
Q 1994 391 2212 530 
Q 2431 669 2431 922 
Q 2431 1156 2273 1281 
Q 2116 1406 1581 1522 
L 1381 1569 
Q 847 1681 609 1914 
Q 372 2147 372 2553 
Q 372 3047 722 3315 
Q 1072 3584 1716 3584 
Q 2034 3584 2315 3537 
Q 2597 3491 2834 3397 
z
" transform="scale(0.015625)"/>
       <path id="DejaVuSans-29" d="M 513 4856 
L 1013 4856 
Q 1481 4119 1714 3412 
Q 1947 2706 1947 2009 
Q 1947 1309 1714 600 
Q 1481 -109 1013 -844 
L 513 -844 
Q 928 -128 1133 580 
Q 1338 1288 1338 2009 
Q 1338 2731 1133 3434 
Q 928 4138 513 4856 
z
" transform="scale(0.015625)"/>
      </defs>
      <use xlink:href="#DejaVuSans-52"/>
      <use xlink:href="#DejaVuSans-65" x="64.982422"/>
      <use xlink:href="#DejaVuSans-74" x="126.505859"/>
      <use xlink:href="#DejaVuSans-72" x="165.714844"/>
      <use xlink:href="#DejaVuSans-69" x="206.828125"/>
      <use xlink:href="#DejaVuSans-65" x="234.611328"/>
      <use xlink:href="#DejaVuSans-76" x="296.134766"/>
      <use xlink:href="#DejaVuSans-61" x="355.314453"/>
      <use xlink:href="#DejaVuSans-6c" x="416.59375"/>
      <use xlink:href="#DejaVuSans-20" x="444.376953"/>
      <use xlink:href="#DejaVuSans-54" x="476.164062"/>
      <use xlink:href="#DejaVuSans-69" x="534.123047"/>
      <use xlink:href="#DejaVuSans-6d" x="561.90625"/>
      <use xlink:href="#DejaVuSans-65" x="659.318359"/>
      <use xlink:href="#DejaVuSans-20" x="720.841797"/>
      <use xlink:href="#DejaVuSans-28" x="752.628906"/>
      <use xlink:href="#DejaVuSans-73" x="791.642578"/>
      <use xlink:href="#DejaVuSans-29" x="843.742188"/>
     </g>
    </g>
   </g>
   <g id="matplotlib.axis_2">
    <g id="ytick_1">
     <g id="line2d_19">
      <path d="M 47.8 382.755896 
L 709.2 382.755896 
" clip-path="url(#p26f060ebc2)" style="fill: none; stroke: #b0b0b0; stroke-width: 0.8; stroke-linecap: square"/>
     </g>
     <g id="line2d_20">
      <defs>
       <path id="m19414a8946" d="M 0 0 
L -3.5 0 
" style="stroke: #000000; stroke-width: 0.8"/>
      </defs>
      <g>
       <use xlink:href="#m19414a8946" x="47.8" y="382.755896" style="stroke: #000000; stroke-width: 0.8"/>
      </g>
     </g>
     <g id="text_11">
      <!-- 0.0 -->
      <g transform="translate(24.896875 386.555114)scale(0.1 -0.1)">
       <defs>
        <path id="DejaVuSans-2e" d="M 684 794 
L 1344 794 
L 1344 0 
L 684 0 
L 684 794 
z
" transform="scale(0.015625)"/>
       </defs>
       <use xlink:href="#DejaVuSans-30"/>
       <use xlink:href="#DejaVuSans-2e" x="63.623047"/>
       <use xlink:href="#DejaVuSans-30" x="95.410156"/>
      </g>
     </g>
    </g>
    <g id="ytick_2">
     <g id="line2d_21">
      <path d="M 47.8 314.868353 
L 709.2 314.868353 
" clip-path="url(#p26f060ebc2)" style="fill: none; stroke: #b0b0b0; stroke-width: 0.8; stroke-linecap: square"/>
     </g>
     <g id="line2d_22">
      <g>
       <use xlink:href="#m19414a8946" x="47.8" y="314.868353" style="stroke: #000000; stroke-width: 0.8"/>
      </g>
     </g>
     <g id="text_12">
      <!-- 0.2 -->
      <g transform="translate(24.896875 318.667572)scale(0.1 -0.1)">
       <use xlink:href="#DejaVuSans-30"/>
       <use xlink:href="#DejaVuSans-2e" x="63.623047"/>
       <use xlink:href="#DejaVuSans-32" x="95.410156"/>
      </g>
     </g>
    </g>
    <g id="ytick_3">
     <g id="line2d_23">
      <path d="M 47.8 246.98081 
L 709.2 246.98081 
" clip-path="url(#p26f060ebc2)" style="fill: none; stroke: #b0b0b0; stroke-width: 0.8; stroke-linecap: square"/>
     </g>
     <g id="line2d_24">
      <g>
       <use xlink:href="#m19414a8946" x="47.8" y="246.98081" style="stroke: #000000; stroke-width: 0.8"/>
      </g>
     </g>
     <g id="text_13">
      <!-- 0.4 -->
      <g transform="translate(24.896875 250.780029)scale(0.1 -0.1)">
       <use xlink:href="#DejaVuSans-30"/>
       <use xlink:href="#DejaVuSans-2e" x="63.623047"/>
       <use xlink:href="#DejaVuSans-34" x="95.410156"/>
      </g>
     </g>
    </g>
    <g id="ytick_4">
     <g id="line2d_25">
      <path d="M 47.8 179.093267 
L 709.2 179.093267 
" clip-path="url(#p26f060ebc2)" style="fill: none; stroke: #b0b0b0; stroke-width: 0.8; stroke-linecap: square"/>
     </g>
     <g id="line2d_26">
      <g>
       <use xlink:href="#m19414a8946" x="47.8" y="179.093267" style="stroke: #000000; stroke-width: 0.8"/>
      </g>
     </g>
     <g id="text_14">
      <!-- 0.6 -->
      <g transform="translate(24.896875 182.892486)scale(0.1 -0.1)">
       <use xlink:href="#DejaVuSans-30"/>
       <use xlink:href="#DejaVuSans-2e" x="63.623047"/>
       <use xlink:href="#DejaVuSans-36" x="95.410156"/>
      </g>
     </g>
    </g>
    <g id="ytick_5">
     <g id="line2d_27">
      <path d="M 47.8 111.205725 
L 709.2 111.205725 
" clip-path="url(#p26f060ebc2)" style="fill: none; stroke: #b0b0b0; stroke-width: 0.8; stroke-linecap: square"/>
     </g>
     <g id="line2d_28">
      <g>
       <use xlink:href="#m19414a8946" x="47.8" y="111.205725" style="stroke: #000000; stroke-width: 0.8"/>
      </g>
     </g>
     <g id="text_15">
      <!-- 0.8 -->
      <g transform="translate(24.896875 115.004943)scale(0.1 -0.1)">
       <use xlink:href="#DejaVuSans-30"/>
       <use xlink:href="#DejaVuSans-2e" x="63.623047"/>
       <use xlink:href="#DejaVuSans-38" x="95.410156"/>
      </g>
     </g>
    </g>
    <g id="ytick_6">
     <g id="line2d_29">
      <path d="M 47.8 43.318182 
L 709.2 43.318182 
" clip-path="url(#p26f060ebc2)" style="fill: none; stroke: #b0b0b0; stroke-width: 0.8; stroke-linecap: square"/>
     </g>
     <g id="line2d_30">
      <g>
       <use xlink:href="#m19414a8946" x="47.8" y="43.318182" style="stroke: #000000; stroke-width: 0.8"/>
      </g>
     </g>
     <g id="text_16">
      <!-- 1.0 -->
      <g transform="translate(24.896875 47.117401)scale(0.1 -0.1)">
       <use xlink:href="#DejaVuSans-31"/>
       <use xlink:href="#DejaVuSans-2e" x="63.623047"/>
       <use xlink:href="#DejaVuSans-30" x="95.410156"/>
      </g>
     </g>
    </g>
    <g id="text_17">
     <!-- Cumulative Mean Frequency -->
     <g transform="translate(18.817187 279.66875)rotate(-90)scale(0.1 -0.1)">
      <defs>
       <path id="DejaVuSans-43" d="M 4122 4306 
L 4122 3641 
Q 3803 3938 3442 4084 
Q 3081 4231 2675 4231 
Q 1875 4231 1450 3742 
Q 1025 3253 1025 2328 
Q 1025 1406 1450 917 
Q 1875 428 2675 428 
Q 3081 428 3442 575 
Q 3803 722 4122 1019 
L 4122 359 
Q 3791 134 3420 21 
Q 3050 -91 2638 -91 
Q 1578 -91 968 557 
Q 359 1206 359 2328 
Q 359 3453 968 4101 
Q 1578 4750 2638 4750 
Q 3056 4750 3426 4639 
Q 3797 4528 4122 4306 
z
" transform="scale(0.015625)"/>
       <path id="DejaVuSans-75" d="M 544 1381 
L 544 3500 
L 1119 3500 
L 1119 1403 
Q 1119 906 1312 657 
Q 1506 409 1894 409 
Q 2359 409 2629 706 
Q 2900 1003 2900 1516 
L 2900 3500 
L 3475 3500 
L 3475 0 
L 2900 0 
L 2900 538 
Q 2691 219 2414 64 
Q 2138 -91 1772 -91 
Q 1169 -91 856 284 
Q 544 659 544 1381 
z
M 1991 3584 
L 1991 3584 
z
" transform="scale(0.015625)"/>
       <path id="DejaVuSans-4d" d="M 628 4666 
L 1569 4666 
L 2759 1491 
L 3956 4666 
L 4897 4666 
L 4897 0 
L 4281 0 
L 4281 4097 
L 3078 897 
L 2444 897 
L 1241 4097 
L 1241 0 
L 628 0 
L 628 4666 
z
" transform="scale(0.015625)"/>
       <path id="DejaVuSans-6e" d="M 3513 2113 
L 3513 0 
L 2938 0 
L 2938 2094 
Q 2938 2591 2744 2837 
Q 2550 3084 2163 3084 
Q 1697 3084 1428 2787 
Q 1159 2491 1159 1978 
L 1159 0 
L 581 0 
L 581 3500 
L 1159 3500 
L 1159 2956 
Q 1366 3272 1645 3428 
Q 1925 3584 2291 3584 
Q 2894 3584 3203 3211 
Q 3513 2838 3513 2113 
z
" transform="scale(0.015625)"/>
       <path id="DejaVuSans-46" d="M 628 4666 
L 3309 4666 
L 3309 4134 
L 1259 4134 
L 1259 2759 
L 3109 2759 
L 3109 2228 
L 1259 2228 
L 1259 0 
L 628 0 
L 628 4666 
z
" transform="scale(0.015625)"/>
       <path id="DejaVuSans-71" d="M 947 1747 
Q 947 1113 1208 752 
Q 1469 391 1925 391 
Q 2381 391 2643 752 
Q 2906 1113 2906 1747 
Q 2906 2381 2643 2742 
Q 2381 3103 1925 3103 
Q 1469 3103 1208 2742 
Q 947 2381 947 1747 
z
M 2906 525 
Q 2725 213 2448 61 
Q 2172 -91 1784 -91 
Q 1150 -91 751 415 
Q 353 922 353 1747 
Q 353 2572 751 3078 
Q 1150 3584 1784 3584 
Q 2172 3584 2448 3432 
Q 2725 3281 2906 2969 
L 2906 3500 
L 3481 3500 
L 3481 -1331 
L 2906 -1331 
L 2906 525 
z
" transform="scale(0.015625)"/>
       <path id="DejaVuSans-63" d="M 3122 3366 
L 3122 2828 
Q 2878 2963 2633 3030 
Q 2388 3097 2138 3097 
Q 1578 3097 1268 2742 
Q 959 2388 959 1747 
Q 959 1106 1268 751 
Q 1578 397 2138 397 
Q 2388 397 2633 464 
Q 2878 531 3122 666 
L 3122 134 
Q 2881 22 2623 -34 
Q 2366 -91 2075 -91 
Q 1284 -91 818 406 
Q 353 903 353 1747 
Q 353 2603 823 3093 
Q 1294 3584 2113 3584 
Q 2378 3584 2631 3529 
Q 2884 3475 3122 3366 
z
" transform="scale(0.015625)"/>
       <path id="DejaVuSans-79" d="M 2059 -325 
Q 1816 -950 1584 -1140 
Q 1353 -1331 966 -1331 
L 506 -1331 
L 506 -850 
L 844 -850 
Q 1081 -850 1212 -737 
Q 1344 -625 1503 -206 
L 1606 56 
L 191 3500 
L 800 3500 
L 1894 763 
L 2988 3500 
L 3597 3500 
L 2059 -325 
z
" transform="scale(0.015625)"/>
      </defs>
      <use xlink:href="#DejaVuSans-43"/>
      <use xlink:href="#DejaVuSans-75" x="69.824219"/>
      <use xlink:href="#DejaVuSans-6d" x="133.203125"/>
      <use xlink:href="#DejaVuSans-75" x="230.615234"/>
      <use xlink:href="#DejaVuSans-6c" x="293.994141"/>
      <use xlink:href="#DejaVuSans-61" x="321.777344"/>
      <use xlink:href="#DejaVuSans-74" x="383.056641"/>
      <use xlink:href="#DejaVuSans-69" x="422.265625"/>
      <use xlink:href="#DejaVuSans-76" x="450.048828"/>
      <use xlink:href="#DejaVuSans-65" x="509.228516"/>
      <use xlink:href="#DejaVuSans-20" x="570.751953"/>
      <use xlink:href="#DejaVuSans-4d" x="602.539062"/>
      <use xlink:href="#DejaVuSans-65" x="688.818359"/>
      <use xlink:href="#DejaVuSans-61" x="750.341797"/>
      <use xlink:href="#DejaVuSans-6e" x="811.621094"/>
      <use xlink:href="#DejaVuSans-20" x="875"/>
      <use xlink:href="#DejaVuSans-46" x="906.787109"/>
      <use xlink:href="#DejaVuSans-72" x="957.056641"/>
      <use xlink:href="#DejaVuSans-65" x="995.919922"/>
      <use xlink:href="#DejaVuSans-71" x="1057.443359"/>
      <use xlink:href="#DejaVuSans-75" x="1120.919922"/>
      <use xlink:href="#DejaVuSans-65" x="1184.298828"/>
      <use xlink:href="#DejaVuSans-6e" x="1245.822266"/>
      <use xlink:href="#DejaVuSans-63" x="1309.201172"/>
      <use xlink:href="#DejaVuSans-79" x="1364.181641"/>
     </g>
    </g>
   </g>
   <g id="line2d_31">
    <path d="M 77.863636 311.703251 
L 83.999072 273.332194 
L 90.134508 223.37111 
L 96.269944 176.168039 
L 102.40538 153.4868 
L 108.540816 133.872152 
L 114.676252 111.796977 
L 120.811688 104.528758 
L 126.947124 97.022854 
L 133.08256 90.898796 
L 139.217996 84.833933 
L 145.353432 81.619103 
L 151.488868 77.512739 
L 157.624304 75.279142 
L 163.75974 72.217617 
L 169.895176 70.703925 
L 176.030612 69.942672 
L 182.166048 68.493934 
L 188.301484 66.991835 
L 194.43692 65.801267 
L 200.572356 64.69664 
L 206.707792 63.889507 
L 212.843228 63.541188 
L 218.978664 63.440165 
L 225.1141 62.654065 
L 231.249536 62.28524 
L 237.384972 62.178499 
L 243.520408 62.012108 
L 249.655844 60.885732 
L 255.79128 60.069345 
L 261.926716 59.787359 
L 268.062152 59.541202 
L 274.197588 58.581068 
L 280.333024 58.581068 
L 286.46846 57.949349 
L 292.603896 57.949349 
L 298.739332 57.0678 
L 304.874768 56.854317 
L 311.010204 56.687926 
L 317.14564 56.586903 
L 323.281076 56.336018 
L 329.416512 56.336018 
L 335.551948 56.336018 
L 341.687384 56.336018 
L 347.82282 56.336018 
L 353.958256 56.229276 
L 360.093692 56.229276 
L 366.229128 55.780112 
L 372.364564 55.780112 
L 378.5 55.780112 
L 384.635436 55.289825 
L 390.770872 54.915283 
L 396.906308 54.808541 
L 403.041744 54.7018 
L 409.17718 54.600777 
L 415.312616 54.600777 
L 421.448052 54.393012 
L 427.583488 53.77707 
L 433.718924 53.77707 
L 439.85436 53.676047 
L 445.989796 53.676047 
L 452.125232 52.898376 
L 458.260668 52.797353 
L 464.396104 51.865086 
L 470.53154 51.724532 
L 476.666976 51.093691 
L 482.802412 50.362004 
L 488.937848 50.362004 
L 495.073284 50.362004 
L 501.20872 49.949533 
L 507.344156 49.298186 
L 513.479592 49.298186 
L 519.615028 49.156754 
L 525.750464 49.156754 
L 531.8859 49.156754 
L 538.021336 49.156754 
L 544.156772 49.156754 
L 550.292208 49.156754 
L 556.427644 48.666467 
L 562.56308 47.560951 
L 568.698516 47.035973 
L 574.833952 46.384627 
L 580.969388 46.384627 
L 587.104824 46.244073 
L 593.24026 46.078896 
L 599.375696 46.078896 
L 605.511132 46.078896 
L 611.646568 45.972155 
L 617.782004 44.911575 
L 623.91744 44.643774 
L 630.052876 44.502342 
L 636.188312 43.96674 
L 642.323748 43.749152 
L 648.459184 43.608598 
L 654.59462 43.608598 
L 660.730056 43.468044 
L 666.865492 43.468044 
L 673.000928 43.468044 
L 679.136364 43.318182 
" clip-path="url(#p26f060ebc2)" style="fill: none; stroke: #0000ff; stroke-width: 1.5; stroke-linecap: square"/>
   </g>
   <g id="line2d_32">
    <path d="M 77.863636 317.754938 
L 83.999072 278.17088 
L 90.134508 226.555479 
L 96.269944 186.125063 
L 102.40538 166.669944 
L 108.540816 143.570948 
L 114.676252 119.86906 
L 120.811688 112.960768 
L 126.947124 105.767762 
L 133.08256 98.444193 
L 139.217996 91.765129 
L 145.353432 88.894916 
L 151.488868 85.846893 
L 157.624304 82.959337 
L 163.75974 80.193157 
L 169.895176 77.447174 
L 176.030612 75.540324 
L 182.166048 73.239219 
L 188.301484 70.40676 
L 194.43692 68.977722 
L 200.572356 67.402301 
L 206.707792 65.069579 
L 212.843228 63.848944 
L 218.978664 63.256089 
L 225.1141 62.26163 
L 231.249536 60.96438 
L 237.384972 60.125087 
L 243.520408 59.460528 
L 249.655844 57.691083 
L 255.79128 57.300635 
L 261.926716 56.337992 
L 268.062152 55.918352 
L 274.197588 54.831385 
L 280.333024 54.240289 
L 286.46846 53.942205 
L 292.603896 53.849841 
L 298.739332 53.521882 
L 304.874768 53.040104 
L 311.010204 52.281566 
L 317.14564 52.281566 
L 323.281076 51.622694 
L 329.416512 51.622694 
L 335.551948 51.341586 
L 341.687384 51.135866 
L 347.82282 50.859808 
L 353.958256 50.565923 
L 360.093692 50.224699 
L 366.229128 50.084145 
L 372.364564 50.084145 
L 378.5 49.943591 
L 384.635436 49.943591 
L 390.770872 49.741907 
L 396.906308 49.741907 
L 403.041744 49.37692 
L 409.17718 48.757753 
L 415.312616 48.757753 
L 421.448052 48.648433 
L 427.583488 48.556069 
L 433.718924 48.556069 
L 439.85436 47.989399 
L 445.989796 47.989399 
L 452.125232 47.989399 
L 458.260668 47.853895 
L 464.396104 47.853895 
L 470.53154 47.853895 
L 476.666976 46.983542 
L 482.802412 46.983542 
L 488.937848 46.983542 
L 495.073284 46.777822 
L 501.20872 46.685458 
L 507.344156 46.685458 
L 513.479592 46.685458 
L 519.615028 46.685458 
L 525.750464 46.593094 
L 531.8859 46.228107 
L 538.021336 46.022387 
L 544.156772 45.930023 
L 550.292208 45.930023 
L 556.427644 45.295969 
L 562.56308 45.203605 
L 568.698516 44.997885 
L 574.833952 44.997885 
L 580.969388 44.888565 
L 587.104824 44.888565 
L 593.24026 44.182355 
L 599.375696 44.182355 
L 605.511132 44.182355 
L 611.646568 44.182355 
L 617.782004 44.182355 
L 623.91744 44.182355 
L 630.052876 44.089991 
L 636.188312 44.089991 
L 642.323748 43.905263 
L 648.459184 43.905263 
L 654.59462 43.720535 
L 660.730056 43.628171 
L 666.865492 43.628171 
L 673.000928 43.628171 
L 679.136364 43.318182 
" clip-path="url(#p26f060ebc2)" style="fill: none; stroke: #1e90ff; stroke-width: 1.5; stroke-linecap: square"/>
   </g>
   <g id="line2d_33">
    <path d="M 77.863636 339.641466 
L 83.999072 307.111626 
L 90.134508 266.809096 
L 96.269944 206.575666 
L 102.40538 173.157575 
L 108.540816 148.676186 
L 114.676252 121.853391 
L 120.811688 109.693466 
L 126.947124 97.691402 
L 133.08256 88.232877 
L 139.217996 75.776101 
L 145.353432 72.193433 
L 151.488868 68.048734 
L 157.624304 65.045563 
L 163.75974 62.237255 
L 169.895176 60.477936 
L 176.030612 59.352772 
L 182.166048 58.26266 
L 188.301484 57.931815 
L 194.43692 56.7601 
L 200.572356 55.85613 
L 206.707792 55.319699 
L 212.843228 54.229935 
L 218.978664 52.870694 
L 225.1141 52.088397 
L 231.249536 52.088397 
L 237.384972 51.590536 
L 243.520408 51.171477 
L 249.655844 50.500983 
L 255.79128 50.500983 
L 261.926716 50.500983 
L 268.062152 50.137745 
L 274.197588 50.137745 
L 280.333024 49.652834 
L 286.46846 49.44459 
L 292.603896 49.44459 
L 298.739332 49.168624 
L 304.874768 48.805386 
L 311.010204 48.805386 
L 317.14564 48.805386 
L 323.281076 48.650391 
L 329.416512 48.337586 
L 335.551948 48.337586 
L 341.687384 48.337586 
L 347.82282 48.337586 
L 353.958256 48.129342 
L 360.093692 48.129342 
L 366.229128 48.129342 
L 372.364564 48.129342 
L 378.5 48.129342 
L 384.635436 48.129342 
L 390.770872 47.877907 
L 396.906308 47.877907 
L 403.041744 47.877907 
L 409.17718 47.877907 
L 415.312616 47.877907 
L 421.448052 47.739924 
L 427.583488 47.739924 
L 433.718924 47.320865 
L 439.85436 47.320865 
L 445.989796 46.835954 
L 452.125232 46.835954 
L 458.260668 46.62771 
L 464.396104 46.62771 
L 470.53154 46.142799 
L 476.666976 46.142799 
L 482.802412 46.142799 
L 488.937848 46.142799 
L 495.073284 46.142799 
L 501.20872 46.142799 
L 507.344156 46.142799 
L 513.479592 46.142799 
L 519.615028 46.142799 
L 525.750464 45.799933 
L 531.8859 45.42278 
L 538.021336 45.42278 
L 544.156772 45.42278 
L 550.292208 45.42278 
L 556.427644 45.42278 
L 562.56308 45.42278 
L 568.698516 45.42278 
L 574.833952 45.42278 
L 580.969388 45.42278 
L 587.104824 45.42278 
L 593.24026 44.795477 
L 599.375696 44.795477 
L 605.511132 44.795477 
L 611.646568 44.795477 
L 617.782004 44.795477 
L 623.91744 44.795477 
L 630.052876 44.172583 
L 636.188312 44.172583 
L 642.323748 43.921148 
L 648.459184 43.921148 
L 654.59462 43.921148 
L 660.730056 43.456165 
L 666.865492 43.456165 
L 673.000928 43.456165 
L 679.136364 43.318182 
" clip-path="url(#p26f060ebc2)" style="fill: none; stroke: #ff0000; stroke-width: 1.5; stroke-linecap: square"/>
   </g>
   <g id="line2d_34">
    <path d="M 77.863636 343.897303 
L 83.999072 311.445711 
L 90.134508 269.205466 
L 96.269944 210.951788 
L 102.40538 182.371049 
L 108.540816 159.06407 
L 114.676252 132.247471 
L 120.811688 119.272678 
L 126.947124 110.707839 
L 133.08256 101.387915 
L 139.217996 90.564985 
L 145.353432 88.548369 
L 151.488868 84.095628 
L 157.624304 81.272771 
L 163.75974 77.164723 
L 169.895176 74.681508 
L 176.030612 71.685133 
L 182.166048 68.872872 
L 188.301484 67.512687 
L 194.43692 64.754972 
L 200.572356 64.313274 
L 206.707792 61.902095 
L 212.843228 60.344906 
L 218.978664 58.519325 
L 225.1141 57.977548 
L 231.249536 56.890582 
L 237.384972 55.268791 
L 243.520408 53.831033 
L 249.655844 53.458025 
L 255.79128 52.935891 
L 261.926716 52.58231 
L 268.062152 52.58231 
L 274.197588 51.790781 
L 280.333024 51.790781 
L 286.46846 51.240982 
L 292.603896 50.907045 
L 298.739332 50.364863 
L 304.874768 50.364863 
L 311.010204 50.011282 
L 317.14564 49.558698 
L 323.281076 49.401551 
L 329.416512 49.401551 
L 335.551948 49.401551 
L 341.687384 49.224761 
L 347.82282 48.859774 
L 353.958256 48.494787 
L 360.093692 48.494787 
L 366.229128 48.042204 
L 372.364564 48.042204 
L 378.5 48.042204 
L 384.635436 47.885057 
L 390.770872 47.885057 
L 396.906308 47.676813 
L 403.041744 47.311826 
L 409.17718 47.311826 
L 415.312616 47.311826 
L 421.448052 47.135035 
L 427.583488 47.135035 
L 433.718924 46.962732 
L 439.85436 46.962732 
L 445.989796 46.790428 
L 452.125232 46.790428 
L 458.260668 46.790428 
L 464.396104 46.790428 
L 470.53154 46.790428 
L 476.666976 46.790428 
L 482.802412 46.41742 
L 488.937848 46.41742 
L 495.073284 46.209176 
L 501.20872 46.209176 
L 507.344156 46.209176 
L 513.479592 46.209176 
L 519.615028 46.209176 
L 525.750464 46.209176 
L 531.8859 46.209176 
L 538.021336 46.209176 
L 544.156772 45.756592 
L 550.292208 45.756592 
L 556.427644 45.756592 
L 562.56308 45.756592 
L 568.698516 45.383584 
L 574.833952 45.383584 
L 580.969388 45.17534 
L 587.104824 45.17534 
L 593.24026 44.998549 
L 599.375696 44.998549 
L 605.511132 44.644968 
L 611.646568 44.644968 
L 617.782004 44.644968 
L 623.91744 44.436724 
L 630.052876 44.436724 
L 636.188312 43.698729 
L 642.323748 43.490485 
L 648.459184 43.490485 
L 654.59462 43.490485 
L 660.730056 43.490485 
L 666.865492 43.490485 
L 673.000928 43.318182 
L 679.136364 43.318182 
" clip-path="url(#p26f060ebc2)" style="fill: none; stroke: #8b0000; stroke-width: 1.5; stroke-linecap: square"/>
   </g>
   <g id="patch_3">
    <path d="M 47.8 390.2 
L 47.8 26.8 
" style="fill: none; stroke: #000000; stroke-width: 0.8; stroke-linejoin: miter; stroke-linecap: square"/>
   </g>
   <g id="patch_4">
    <path d="M 709.2 390.2 
L 709.2 26.8 
" style="fill: none; stroke: #000000; stroke-width: 0.8; stroke-linejoin: miter; stroke-linecap: square"/>
   </g>
   <g id="patch_5">
    <path d="M 47.8 390.2 
L 709.2 390.2 
" style="fill: none; stroke: #000000; stroke-width: 0.8; stroke-linejoin: miter; stroke-linecap: square"/>
   </g>
   <g id="patch_6">
    <path d="M 47.8 26.8 
L 709.2 26.8 
" style="fill: none; stroke: #000000; stroke-width: 0.8; stroke-linejoin: miter; stroke-linecap: square"/>
   </g>
   <g id="text_18">
    <!-- CMFD of Pellet Retrieval Times (7 PM–Midnight) -->
    <g transform="translate(236.518437 20.8)scale(0.12 -0.12)">
     <defs>
      <path id="DejaVuSans-44" d="M 1259 4147 
L 1259 519 
L 2022 519 
Q 2988 519 3436 956 
Q 3884 1394 3884 2338 
Q 3884 3275 3436 3711 
Q 2988 4147 2022 4147 
L 1259 4147 
z
M 628 4666 
L 1925 4666 
Q 3281 4666 3915 4102 
Q 4550 3538 4550 2338 
Q 4550 1131 3912 565 
Q 3275 0 1925 0 
L 628 0 
L 628 4666 
z
" transform="scale(0.015625)"/>
      <path id="DejaVuSans-6f" d="M 1959 3097 
Q 1497 3097 1228 2736 
Q 959 2375 959 1747 
Q 959 1119 1226 758 
Q 1494 397 1959 397 
Q 2419 397 2687 759 
Q 2956 1122 2956 1747 
Q 2956 2369 2687 2733 
Q 2419 3097 1959 3097 
z
M 1959 3584 
Q 2709 3584 3137 3096 
Q 3566 2609 3566 1747 
Q 3566 888 3137 398 
Q 2709 -91 1959 -91 
Q 1206 -91 779 398 
Q 353 888 353 1747 
Q 353 2609 779 3096 
Q 1206 3584 1959 3584 
z
" transform="scale(0.015625)"/>
      <path id="DejaVuSans-66" d="M 2375 4863 
L 2375 4384 
L 1825 4384 
Q 1516 4384 1395 4259 
Q 1275 4134 1275 3809 
L 1275 3500 
L 2222 3500 
L 2222 3053 
L 1275 3053 
L 1275 0 
L 697 0 
L 697 3053 
L 147 3053 
L 147 3500 
L 697 3500 
L 697 3744 
Q 697 4328 969 4595 
Q 1241 4863 1831 4863 
L 2375 4863 
z
" transform="scale(0.015625)"/>
      <path id="DejaVuSans-50" d="M 1259 4147 
L 1259 2394 
L 2053 2394 
Q 2494 2394 2734 2622 
Q 2975 2850 2975 3272 
Q 2975 3691 2734 3919 
Q 2494 4147 2053 4147 
L 1259 4147 
z
M 628 4666 
L 2053 4666 
Q 2838 4666 3239 4311 
Q 3641 3956 3641 3272 
Q 3641 2581 3239 2228 
Q 2838 1875 2053 1875 
L 1259 1875 
L 1259 0 
L 628 0 
L 628 4666 
z
" transform="scale(0.015625)"/>
      <path id="DejaVuSans-2013" d="M 313 1978 
L 2888 1978 
L 2888 1528 
L 313 1528 
L 313 1978 
z
" transform="scale(0.015625)"/>
      <path id="DejaVuSans-64" d="M 2906 2969 
L 2906 4863 
L 3481 4863 
L 3481 0 
L 2906 0 
L 2906 525 
Q 2725 213 2448 61 
Q 2172 -91 1784 -91 
Q 1150 -91 751 415 
Q 353 922 353 1747 
Q 353 2572 751 3078 
Q 1150 3584 1784 3584 
Q 2172 3584 2448 3432 
Q 2725 3281 2906 2969 
z
M 947 1747 
Q 947 1113 1208 752 
Q 1469 391 1925 391 
Q 2381 391 2643 752 
Q 2906 1113 2906 1747 
Q 2906 2381 2643 2742 
Q 2381 3103 1925 3103 
Q 1469 3103 1208 2742 
Q 947 2381 947 1747 
z
" transform="scale(0.015625)"/>
      <path id="DejaVuSans-67" d="M 2906 1791 
Q 2906 2416 2648 2759 
Q 2391 3103 1925 3103 
Q 1463 3103 1205 2759 
Q 947 2416 947 1791 
Q 947 1169 1205 825 
Q 1463 481 1925 481 
Q 2391 481 2648 825 
Q 2906 1169 2906 1791 
z
M 3481 434 
Q 3481 -459 3084 -895 
Q 2688 -1331 1869 -1331 
Q 1566 -1331 1297 -1286 
Q 1028 -1241 775 -1147 
L 775 -588 
Q 1028 -725 1275 -790 
Q 1522 -856 1778 -856 
Q 2344 -856 2625 -561 
Q 2906 -266 2906 331 
L 2906 616 
Q 2728 306 2450 153 
Q 2172 0 1784 0 
Q 1141 0 747 490 
Q 353 981 353 1791 
Q 353 2603 747 3093 
Q 1141 3584 1784 3584 
Q 2172 3584 2450 3431 
Q 2728 3278 2906 2969 
L 2906 3500 
L 3481 3500 
L 3481 434 
z
" transform="scale(0.015625)"/>
      <path id="DejaVuSans-68" d="M 3513 2113 
L 3513 0 
L 2938 0 
L 2938 2094 
Q 2938 2591 2744 2837 
Q 2550 3084 2163 3084 
Q 1697 3084 1428 2787 
Q 1159 2491 1159 1978 
L 1159 0 
L 581 0 
L 581 4863 
L 1159 4863 
L 1159 2956 
Q 1366 3272 1645 3428 
Q 1925 3584 2291 3584 
Q 2894 3584 3203 3211 
Q 3513 2838 3513 2113 
z
" transform="scale(0.015625)"/>
     </defs>
     <use xlink:href="#DejaVuSans-43"/>
     <use xlink:href="#DejaVuSans-4d" x="69.824219"/>
     <use xlink:href="#DejaVuSans-46" x="156.103516"/>
     <use xlink:href="#DejaVuSans-44" x="213.623047"/>
     <use xlink:href="#DejaVuSans-20" x="290.625"/>
     <use xlink:href="#DejaVuSans-6f" x="322.412109"/>
     <use xlink:href="#DejaVuSans-66" x="383.59375"/>
     <use xlink:href="#DejaVuSans-20" x="418.798828"/>
     <use xlink:href="#DejaVuSans-50" x="450.585938"/>
     <use xlink:href="#DejaVuSans-65" x="507.263672"/>
     <use xlink:href="#DejaVuSans-6c" x="568.787109"/>
     <use xlink:href="#DejaVuSans-6c" x="596.570312"/>
     <use xlink:href="#DejaVuSans-65" x="624.353516"/>
     <use xlink:href="#DejaVuSans-74" x="685.876953"/>
     <use xlink:href="#DejaVuSans-20" x="725.085938"/>
     <use xlink:href="#DejaVuSans-52" x="756.873047"/>
     <use xlink:href="#DejaVuSans-65" x="821.855469"/>
     <use xlink:href="#DejaVuSans-74" x="883.378906"/>
     <use xlink:href="#DejaVuSans-72" x="922.587891"/>
     <use xlink:href="#DejaVuSans-69" x="963.701172"/>
     <use xlink:href="#DejaVuSans-65" x="991.484375"/>
     <use xlink:href="#DejaVuSans-76" x="1053.007812"/>
     <use xlink:href="#DejaVuSans-61" x="1112.1875"/>
     <use xlink:href="#DejaVuSans-6c" x="1173.466797"/>
     <use xlink:href="#DejaVuSans-20" x="1201.25"/>
     <use xlink:href="#DejaVuSans-54" x="1233.037109"/>
     <use xlink:href="#DejaVuSans-69" x="1290.996094"/>
     <use xlink:href="#DejaVuSans-6d" x="1318.779297"/>
     <use xlink:href="#DejaVuSans-65" x="1416.191406"/>
     <use xlink:href="#DejaVuSans-73" x="1477.714844"/>
     <use xlink:href="#DejaVuSans-20" x="1529.814453"/>
     <use xlink:href="#DejaVuSans-28" x="1561.601562"/>
     <use xlink:href="#DejaVuSans-37" x="1600.615234"/>
     <use xlink:href="#DejaVuSans-20" x="1664.238281"/>
     <use xlink:href="#DejaVuSans-50" x="1696.025391"/>
     <use xlink:href="#DejaVuSans-4d" x="1756.328125"/>
     <use xlink:href="#DejaVuSans-2013" x="1842.607422"/>
     <use xlink:href="#DejaVuSans-4d" x="1892.607422"/>
     <use xlink:href="#DejaVuSans-69" x="1978.886719"/>
     <use xlink:href="#DejaVuSans-64" x="2006.669922"/>
     <use xlink:href="#DejaVuSans-6e" x="2070.146484"/>
     <use xlink:href="#DejaVuSans-69" x="2133.525391"/>
     <use xlink:href="#DejaVuSans-67" x="2161.308594"/>
     <use xlink:href="#DejaVuSans-68" x="2224.785156"/>
     <use xlink:href="#DejaVuSans-74" x="2288.164062"/>
     <use xlink:href="#DejaVuSans-29" x="2327.373047"/>
    </g>
   </g>
   <g id="legend_1">
    <g id="patch_7">
     <path d="M 615.882812 385.2 
L 702.2 385.2 
Q 704.2 385.2 704.2 383.2 
L 704.2 325.4875 
Q 704.2 323.4875 702.2 323.4875 
L 615.882812 323.4875 
Q 613.882812 323.4875 613.882812 325.4875 
L 613.882812 383.2 
Q 613.882812 385.2 615.882812 385.2 
z
" style="fill: #ffffff; opacity: 0.8; stroke: #cccccc; stroke-linejoin: miter"/>
    </g>
    <g id="line2d_35">
     <path d="M 617.882812 331.585938 
L 627.882812 331.585938 
L 637.882812 331.585938 
" style="fill: none; stroke: #0000ff; stroke-width: 1.5; stroke-linecap: square"/>
    </g>
    <g id="text_19">
     <!-- SHAM low -->
     <g transform="translate(645.882812 335.085938)scale(0.1 -0.1)">
      <defs>
       <path id="DejaVuSans-53" d="M 3425 4513 
L 3425 3897 
Q 3066 4069 2747 4153 
Q 2428 4238 2131 4238 
Q 1616 4238 1336 4038 
Q 1056 3838 1056 3469 
Q 1056 3159 1242 3001 
Q 1428 2844 1947 2747 
L 2328 2669 
Q 3034 2534 3370 2195 
Q 3706 1856 3706 1288 
Q 3706 609 3251 259 
Q 2797 -91 1919 -91 
Q 1588 -91 1214 -16 
Q 841 59 441 206 
L 441 856 
Q 825 641 1194 531 
Q 1563 422 1919 422 
Q 2459 422 2753 634 
Q 3047 847 3047 1241 
Q 3047 1584 2836 1778 
Q 2625 1972 2144 2069 
L 1759 2144 
Q 1053 2284 737 2584 
Q 422 2884 422 3419 
Q 422 4038 858 4394 
Q 1294 4750 2059 4750 
Q 2388 4750 2728 4690 
Q 3069 4631 3425 4513 
z
" transform="scale(0.015625)"/>
       <path id="DejaVuSans-48" d="M 628 4666 
L 1259 4666 
L 1259 2753 
L 3553 2753 
L 3553 4666 
L 4184 4666 
L 4184 0 
L 3553 0 
L 3553 2222 
L 1259 2222 
L 1259 0 
L 628 0 
L 628 4666 
z
" transform="scale(0.015625)"/>
       <path id="DejaVuSans-41" d="M 2188 4044 
L 1331 1722 
L 3047 1722 
L 2188 4044 
z
M 1831 4666 
L 2547 4666 
L 4325 0 
L 3669 0 
L 3244 1197 
L 1141 1197 
L 716 0 
L 50 0 
L 1831 4666 
z
" transform="scale(0.015625)"/>
       <path id="DejaVuSans-77" d="M 269 3500 
L 844 3500 
L 1563 769 
L 2278 3500 
L 2956 3500 
L 3675 769 
L 4391 3500 
L 4966 3500 
L 4050 0 
L 3372 0 
L 2619 2869 
L 1863 0 
L 1184 0 
L 269 3500 
z
" transform="scale(0.015625)"/>
      </defs>
      <use xlink:href="#DejaVuSans-53"/>
      <use xlink:href="#DejaVuSans-48" x="63.476562"/>
      <use xlink:href="#DejaVuSans-41" x="138.671875"/>
      <use xlink:href="#DejaVuSans-4d" x="207.080078"/>
      <use xlink:href="#DejaVuSans-20" x="293.359375"/>
      <use xlink:href="#DejaVuSans-6c" x="325.146484"/>
      <use xlink:href="#DejaVuSans-6f" x="352.929688"/>
      <use xlink:href="#DejaVuSans-77" x="414.111328"/>
     </g>
    </g>
    <g id="line2d_36">
     <path d="M 617.882812 346.264063 
L 627.882812 346.264063 
L 637.882812 346.264063 
" style="fill: none; stroke: #1e90ff; stroke-width: 1.5; stroke-linecap: square"/>
    </g>
    <g id="text_20">
     <!-- SHAM high -->
     <g transform="translate(645.882812 349.764063)scale(0.1 -0.1)">
      <use xlink:href="#DejaVuSans-53"/>
      <use xlink:href="#DejaVuSans-48" x="63.476562"/>
      <use xlink:href="#DejaVuSans-41" x="138.671875"/>
      <use xlink:href="#DejaVuSans-4d" x="207.080078"/>
      <use xlink:href="#DejaVuSans-20" x="293.359375"/>
      <use xlink:href="#DejaVuSans-68" x="325.146484"/>
      <use xlink:href="#DejaVuSans-69" x="388.525391"/>
      <use xlink:href="#DejaVuSans-67" x="416.308594"/>
      <use xlink:href="#DejaVuSans-68" x="479.785156"/>
     </g>
    </g>
    <g id="line2d_37">
     <path d="M 617.882812 360.942188 
L 627.882812 360.942188 
L 637.882812 360.942188 
" style="fill: none; stroke: #ff0000; stroke-width: 1.5; stroke-linecap: square"/>
    </g>
    <g id="text_21">
     <!-- SNI low -->
     <g transform="translate(645.882812 364.442188)scale(0.1 -0.1)">
      <defs>
       <path id="DejaVuSans-4e" d="M 628 4666 
L 1478 4666 
L 3547 763 
L 3547 4666 
L 4159 4666 
L 4159 0 
L 3309 0 
L 1241 3903 
L 1241 0 
L 628 0 
L 628 4666 
z
" transform="scale(0.015625)"/>
       <path id="DejaVuSans-49" d="M 628 4666 
L 1259 4666 
L 1259 0 
L 628 0 
L 628 4666 
z
" transform="scale(0.015625)"/>
      </defs>
      <use xlink:href="#DejaVuSans-53"/>
      <use xlink:href="#DejaVuSans-4e" x="63.476562"/>
      <use xlink:href="#DejaVuSans-49" x="138.28125"/>
      <use xlink:href="#DejaVuSans-20" x="167.773438"/>
      <use xlink:href="#DejaVuSans-6c" x="199.560547"/>
      <use xlink:href="#DejaVuSans-6f" x="227.34375"/>
      <use xlink:href="#DejaVuSans-77" x="288.525391"/>
     </g>
    </g>
    <g id="line2d_38">
     <path d="M 617.882812 375.620313 
L 627.882812 375.620313 
L 637.882812 375.620313 
" style="fill: none; stroke: #8b0000; stroke-width: 1.5; stroke-linecap: square"/>
    </g>
    <g id="text_22">
     <!-- SNI high -->
     <g transform="translate(645.882812 379.120313)scale(0.1 -0.1)">
      <use xlink:href="#DejaVuSans-53"/>
      <use xlink:href="#DejaVuSans-4e" x="63.476562"/>
      <use xlink:href="#DejaVuSans-49" x="138.28125"/>
      <use xlink:href="#DejaVuSans-20" x="167.773438"/>
      <use xlink:href="#DejaVuSans-68" x="199.560547"/>
      <use xlink:href="#DejaVuSans-69" x="262.939453"/>
      <use xlink:href="#DejaVuSans-67" x="290.722656"/>
      <use xlink:href="#DejaVuSans-68" x="354.199219"/>
     </g>
    </g>
   </g>
  </g>
 </g>
 <defs>
  <clipPath id="p26f060ebc2">
   <rect x="47.8" y="26.8" width="661.4" height="363.4"/>
  </clipPath>
 </defs>
</svg>
