<?xml version="1.0" encoding="utf-8" standalone="no"?>
<!DOCTYPE svg PUBLIC "-//W3C//DTD SVG 1.1//EN"
  "http://www.w3.org/Graphics/SVG/1.1/DTD/svg11.dtd">
<svg xmlns:xlink="http://www.w3.org/1999/xlink" width="1008pt" height="288pt" viewBox="0 0 1008 288" xmlns="http://www.w3.org/2000/svg" version="1.1">
 <metadata>
  <rdf:RDF xmlns:dc="http://purl.org/dc/elements/1.1/" xmlns:cc="http://creativecommons.org/ns#" xmlns:rdf="http://www.w3.org/1999/02/22-rdf-syntax-ns#">
   <cc:Work>
    <dc:type rdf:resource="http://purl.org/dc/dcmitype/StillImage"/>
    <dc:date>2025-08-05T22:59:08.489549</dc:date>
    <dc:format>image/svg+xml</dc:format>
    <dc:creator>
     <cc:Agent>
      <dc:title>Matplotlib v3.5.1, https://matplotlib.org/</dc:title>
     </cc:Agent>
    </dc:creator>
   </cc:Work>
  </rdf:RDF>
 </metadata>
 <defs>
  <style type="text/css">*{stroke-linejoin: round; stroke-linecap: butt}</style>
 </defs>
 <g id="figure_1">
  <g id="patch_1">
   <path d="M 0 288 
L 1008 288 
L 1008 0 
L 0 0 
z
" style="fill: #ffffff"/>
  </g>
  <g id="axes_1">
   <g id="patch_2">
    <path d="M 45.3 246.2 
L 997.2 246.2 
L 997.2 41.8 
L 45.3 41.8 
z
" style="fill: #ffffff"/>
   </g>
   <g id="matplotlib.axis_1">
    <g id="xtick_1">
     <g id="line2d_1">
      <defs>
       <path id="m301b3d65aa" d="M 0 0 
L 0 3.5 
" style="stroke: #000000; stroke-width: 0.8"/>
      </defs>
      <g>
       <use xlink:href="#m301b3d65aa" x="126.603364" y="246.2" style="stroke: #000000; stroke-width: 0.8"/>
      </g>
     </g>
     <g id="text_1">
      <!-- 10-12 20 -->
      <g transform="translate(104.122895 260.798437)scale(0.1 -0.1)">
       <defs>
        <path id="DejaVuSans-31" d="M 794 531 
L 1825 531 
L 1825 4091 
L 703 3866 
L 703 4441 
L 1819 4666 
L 2450 4666 
L 2450 531 
L 3481 531 
L 3481 0 
L 794 0 
L 794 531 
z
" transform="scale(0.015625)"/>
        <path id="DejaVuSans-30" d="M 2034 4250 
Q 1547 4250 1301 3770 
Q 1056 3291 1056 2328 
Q 1056 1369 1301 889 
Q 1547 409 2034 409 
Q 2525 409 2770 889 
Q 3016 1369 3016 2328 
Q 3016 3291 2770 3770 
Q 2525 4250 2034 4250 
z
M 2034 4750 
Q 2819 4750 3233 4129 
Q 3647 3509 3647 2328 
Q 3647 1150 3233 529 
Q 2819 -91 2034 -91 
Q 1250 -91 836 529 
Q 422 1150 422 2328 
Q 422 3509 836 4129 
Q 1250 4750 2034 4750 
z
" transform="scale(0.015625)"/>
        <path id="DejaVuSans-2d" d="M 313 2009 
L 1997 2009 
L 1997 1497 
L 313 1497 
L 313 2009 
z
" transform="scale(0.015625)"/>
        <path id="DejaVuSans-32" d="M 1228 531 
L 3431 531 
L 3431 0 
L 469 0 
L 469 531 
Q 828 903 1448 1529 
Q 2069 2156 2228 2338 
Q 2531 2678 2651 2914 
Q 2772 3150 2772 3378 
Q 2772 3750 2511 3984 
Q 2250 4219 1831 4219 
Q 1534 4219 1204 4116 
Q 875 4013 500 3803 
L 500 4441 
Q 881 4594 1212 4672 
Q 1544 4750 1819 4750 
Q 2544 4750 2975 4387 
Q 3406 4025 3406 3419 
Q 3406 3131 3298 2873 
Q 3191 2616 2906 2266 
Q 2828 2175 2409 1742 
Q 1991 1309 1228 531 
z
" transform="scale(0.015625)"/>
        <path id="DejaVuSans-20" transform="scale(0.015625)"/>
       </defs>
       <use xlink:href="#DejaVuSans-31"/>
       <use xlink:href="#DejaVuSans-30" x="63.623047"/>
       <use xlink:href="#DejaVuSans-2d" x="127.246094"/>
       <use xlink:href="#DejaVuSans-31" x="163.330078"/>
       <use xlink:href="#DejaVuSans-32" x="226.953125"/>
       <use xlink:href="#DejaVuSans-20" x="290.576172"/>
       <use xlink:href="#DejaVuSans-32" x="322.363281"/>
       <use xlink:href="#DejaVuSans-30" x="385.986328"/>
      </g>
     </g>
    </g>
    <g id="xtick_2">
     <g id="line2d_2">
      <g>
       <use xlink:href="#m301b3d65aa" x="278.40675" y="246.2" style="stroke: #000000; stroke-width: 0.8"/>
      </g>
     </g>
     <g id="text_2">
      <!-- 10-12 22 -->
      <g transform="translate(255.926281 260.798437)scale(0.1 -0.1)">
       <use xlink:href="#DejaVuSans-31"/>
       <use xlink:href="#DejaVuSans-30" x="63.623047"/>
       <use xlink:href="#DejaVuSans-2d" x="127.246094"/>
       <use xlink:href="#DejaVuSans-31" x="163.330078"/>
       <use xlink:href="#DejaVuSans-32" x="226.953125"/>
       <use xlink:href="#DejaVuSans-20" x="290.576172"/>
       <use xlink:href="#DejaVuSans-32" x="322.363281"/>
       <use xlink:href="#DejaVuSans-32" x="385.986328"/>
      </g>
     </g>
    </g>
    <g id="xtick_3">
     <g id="line2d_3">
      <g>
       <use xlink:href="#m301b3d65aa" x="430.210136" y="246.2" style="stroke: #000000; stroke-width: 0.8"/>
      </g>
     </g>
     <g id="text_3">
      <!-- 10-13 00 -->
      <g transform="translate(407.729667 260.798437)scale(0.1 -0.1)">
       <defs>
        <path id="DejaVuSans-33" d="M 2597 2516 
Q 3050 2419 3304 2112 
Q 3559 1806 3559 1356 
Q 3559 666 3084 287 
Q 2609 -91 1734 -91 
Q 1441 -91 1130 -33 
Q 819 25 488 141 
L 488 750 
Q 750 597 1062 519 
Q 1375 441 1716 441 
Q 2309 441 2620 675 
Q 2931 909 2931 1356 
Q 2931 1769 2642 2001 
Q 2353 2234 1838 2234 
L 1294 2234 
L 1294 2753 
L 1863 2753 
Q 2328 2753 2575 2939 
Q 2822 3125 2822 3475 
Q 2822 3834 2567 4026 
Q 2313 4219 1838 4219 
Q 1578 4219 1281 4162 
Q 984 4106 628 3988 
L 628 4550 
Q 988 4650 1302 4700 
Q 1616 4750 1894 4750 
Q 2613 4750 3031 4423 
Q 3450 4097 3450 3541 
Q 3450 3153 3228 2886 
Q 3006 2619 2597 2516 
z
" transform="scale(0.015625)"/>
       </defs>
       <use xlink:href="#DejaVuSans-31"/>
       <use xlink:href="#DejaVuSans-30" x="63.623047"/>
       <use xlink:href="#DejaVuSans-2d" x="127.246094"/>
       <use xlink:href="#DejaVuSans-31" x="163.330078"/>
       <use xlink:href="#DejaVuSans-33" x="226.953125"/>
       <use xlink:href="#DejaVuSans-20" x="290.576172"/>
       <use xlink:href="#DejaVuSans-30" x="322.363281"/>
       <use xlink:href="#DejaVuSans-30" x="385.986328"/>
      </g>
     </g>
    </g>
    <g id="xtick_4">
     <g id="line2d_4">
      <g>
       <use xlink:href="#m301b3d65aa" x="582.013522" y="246.2" style="stroke: #000000; stroke-width: 0.8"/>
      </g>
     </g>
     <g id="text_4">
      <!-- 10-13 02 -->
      <g transform="translate(559.533053 260.798437)scale(0.1 -0.1)">
       <use xlink:href="#DejaVuSans-31"/>
       <use xlink:href="#DejaVuSans-30" x="63.623047"/>
       <use xlink:href="#DejaVuSans-2d" x="127.246094"/>
       <use xlink:href="#DejaVuSans-31" x="163.330078"/>
       <use xlink:href="#DejaVuSans-33" x="226.953125"/>
       <use xlink:href="#DejaVuSans-20" x="290.576172"/>
       <use xlink:href="#DejaVuSans-30" x="322.363281"/>
       <use xlink:href="#DejaVuSans-32" x="385.986328"/>
      </g>
     </g>
    </g>
    <g id="xtick_5">
     <g id="line2d_5">
      <g>
       <use xlink:href="#m301b3d65aa" x="733.816908" y="246.2" style="stroke: #000000; stroke-width: 0.8"/>
      </g>
     </g>
     <g id="text_5">
      <!-- 10-13 04 -->
      <g transform="translate(711.336439 260.798437)scale(0.1 -0.1)">
       <defs>
        <path id="DejaVuSans-34" d="M 2419 4116 
L 825 1625 
L 2419 1625 
L 2419 4116 
z
M 2253 4666 
L 3047 4666 
L 3047 1625 
L 3713 1625 
L 3713 1100 
L 3047 1100 
L 3047 0 
L 2419 0 
L 2419 1100 
L 313 1100 
L 313 1709 
L 2253 4666 
z
" transform="scale(0.015625)"/>
       </defs>
       <use xlink:href="#DejaVuSans-31"/>
       <use xlink:href="#DejaVuSans-30" x="63.623047"/>
       <use xlink:href="#DejaVuSans-2d" x="127.246094"/>
       <use xlink:href="#DejaVuSans-31" x="163.330078"/>
       <use xlink:href="#DejaVuSans-33" x="226.953125"/>
       <use xlink:href="#DejaVuSans-20" x="290.576172"/>
       <use xlink:href="#DejaVuSans-30" x="322.363281"/>
       <use xlink:href="#DejaVuSans-34" x="385.986328"/>
      </g>
     </g>
    </g>
    <g id="xtick_6">
     <g id="line2d_6">
      <g>
       <use xlink:href="#m301b3d65aa" x="885.620294" y="246.2" style="stroke: #000000; stroke-width: 0.8"/>
      </g>
     </g>
     <g id="text_6">
      <!-- 10-13 06 -->
      <g transform="translate(863.139826 260.798437)scale(0.1 -0.1)">
       <defs>
        <path id="DejaVuSans-36" d="M 2113 2584 
Q 1688 2584 1439 2293 
Q 1191 2003 1191 1497 
Q 1191 994 1439 701 
Q 1688 409 2113 409 
Q 2538 409 2786 701 
Q 3034 994 3034 1497 
Q 3034 2003 2786 2293 
Q 2538 2584 2113 2584 
z
M 3366 4563 
L 3366 3988 
Q 3128 4100 2886 4159 
Q 2644 4219 2406 4219 
Q 1781 4219 1451 3797 
Q 1122 3375 1075 2522 
Q 1259 2794 1537 2939 
Q 1816 3084 2150 3084 
Q 2853 3084 3261 2657 
Q 3669 2231 3669 1497 
Q 3669 778 3244 343 
Q 2819 -91 2113 -91 
Q 1303 -91 875 529 
Q 447 1150 447 2328 
Q 447 3434 972 4092 
Q 1497 4750 2381 4750 
Q 2619 4750 2861 4703 
Q 3103 4656 3366 4563 
z
" transform="scale(0.015625)"/>
       </defs>
       <use xlink:href="#DejaVuSans-31"/>
       <use xlink:href="#DejaVuSans-30" x="63.623047"/>
       <use xlink:href="#DejaVuSans-2d" x="127.246094"/>
       <use xlink:href="#DejaVuSans-31" x="163.330078"/>
       <use xlink:href="#DejaVuSans-33" x="226.953125"/>
       <use xlink:href="#DejaVuSans-20" x="290.576172"/>
       <use xlink:href="#DejaVuSans-30" x="322.363281"/>
       <use xlink:href="#DejaVuSans-36" x="385.986328"/>
      </g>
     </g>
    </g>
    <g id="text_7">
     <!-- Time -->
     <g transform="translate(509.016406 274.476562)scale(0.1 -0.1)">
      <defs>
       <path id="DejaVuSans-54" d="M -19 4666 
L 3928 4666 
L 3928 4134 
L 2272 4134 
L 2272 0 
L 1638 0 
L 1638 4134 
L -19 4134 
L -19 4666 
z
" transform="scale(0.015625)"/>
       <path id="DejaVuSans-69" d="M 603 3500 
L 1178 3500 
L 1178 0 
L 603 0 
L 603 3500 
z
M 603 4863 
L 1178 4863 
L 1178 4134 
L 603 4134 
L 603 4863 
z
" transform="scale(0.015625)"/>
       <path id="DejaVuSans-6d" d="M 3328 2828 
Q 3544 3216 3844 3400 
Q 4144 3584 4550 3584 
Q 5097 3584 5394 3201 
Q 5691 2819 5691 2113 
L 5691 0 
L 5113 0 
L 5113 2094 
Q 5113 2597 4934 2840 
Q 4756 3084 4391 3084 
Q 3944 3084 3684 2787 
Q 3425 2491 3425 1978 
L 3425 0 
L 2847 0 
L 2847 2094 
Q 2847 2600 2669 2842 
Q 2491 3084 2119 3084 
Q 1678 3084 1418 2786 
Q 1159 2488 1159 1978 
L 1159 0 
L 581 0 
L 581 3500 
L 1159 3500 
L 1159 2956 
Q 1356 3278 1631 3431 
Q 1906 3584 2284 3584 
Q 2666 3584 2933 3390 
Q 3200 3197 3328 2828 
z
" transform="scale(0.015625)"/>
       <path id="DejaVuSans-65" d="M 3597 1894 
L 3597 1613 
L 953 1613 
Q 991 1019 1311 708 
Q 1631 397 2203 397 
Q 2534 397 2845 478 
Q 3156 559 3463 722 
L 3463 178 
Q 3153 47 2828 -22 
Q 2503 -91 2169 -91 
Q 1331 -91 842 396 
Q 353 884 353 1716 
Q 353 2575 817 3079 
Q 1281 3584 2069 3584 
Q 2775 3584 3186 3129 
Q 3597 2675 3597 1894 
z
M 3022 2063 
Q 3016 2534 2758 2815 
Q 2500 3097 2075 3097 
Q 1594 3097 1305 2825 
Q 1016 2553 972 2059 
L 3022 2063 
z
" transform="scale(0.015625)"/>
      </defs>
      <use xlink:href="#DejaVuSans-54"/>
      <use xlink:href="#DejaVuSans-69" x="57.958984"/>
      <use xlink:href="#DejaVuSans-6d" x="85.742188"/>
      <use xlink:href="#DejaVuSans-65" x="183.154297"/>
     </g>
    </g>
   </g>
   <g id="matplotlib.axis_2">
    <g id="ytick_1">
     <g id="line2d_7">
      <defs>
       <path id="mc8b83ad081" d="M 0 0 
L -3.5 0 
" style="stroke: #000000; stroke-width: 0.8"/>
      </defs>
      <g>
       <use xlink:href="#mc8b83ad081" x="45.3" y="202.068182" style="stroke: #000000; stroke-width: 0.8"/>
      </g>
     </g>
     <g id="text_8">
      <!-- Right -->
      <g transform="translate(11.967188 205.867401)scale(0.1 -0.1)">
       <defs>
        <path id="DejaVuSans-52" d="M 2841 2188 
Q 3044 2119 3236 1894 
Q 3428 1669 3622 1275 
L 4263 0 
L 3584 0 
L 2988 1197 
Q 2756 1666 2539 1819 
Q 2322 1972 1947 1972 
L 1259 1972 
L 1259 0 
L 628 0 
L 628 4666 
L 2053 4666 
Q 2853 4666 3247 4331 
Q 3641 3997 3641 3322 
Q 3641 2881 3436 2590 
Q 3231 2300 2841 2188 
z
M 1259 4147 
L 1259 2491 
L 2053 2491 
Q 2509 2491 2742 2702 
Q 2975 2913 2975 3322 
Q 2975 3731 2742 3939 
Q 2509 4147 2053 4147 
L 1259 4147 
z
" transform="scale(0.015625)"/>
        <path id="DejaVuSans-67" d="M 2906 1791 
Q 2906 2416 2648 2759 
Q 2391 3103 1925 3103 
Q 1463 3103 1205 2759 
Q 947 2416 947 1791 
Q 947 1169 1205 825 
Q 1463 481 1925 481 
Q 2391 481 2648 825 
Q 2906 1169 2906 1791 
z
M 3481 434 
Q 3481 -459 3084 -895 
Q 2688 -1331 1869 -1331 
Q 1566 -1331 1297 -1286 
Q 1028 -1241 775 -1147 
L 775 -588 
Q 1028 -725 1275 -790 
Q 1522 -856 1778 -856 
Q 2344 -856 2625 -561 
Q 2906 -266 2906 331 
L 2906 616 
Q 2728 306 2450 153 
Q 2172 0 1784 0 
Q 1141 0 747 490 
Q 353 981 353 1791 
Q 353 2603 747 3093 
Q 1141 3584 1784 3584 
Q 2172 3584 2450 3431 
Q 2728 3278 2906 2969 
L 2906 3500 
L 3481 3500 
L 3481 434 
z
" transform="scale(0.015625)"/>
        <path id="DejaVuSans-68" d="M 3513 2113 
L 3513 0 
L 2938 0 
L 2938 2094 
Q 2938 2591 2744 2837 
Q 2550 3084 2163 3084 
Q 1697 3084 1428 2787 
Q 1159 2491 1159 1978 
L 1159 0 
L 581 0 
L 581 4863 
L 1159 4863 
L 1159 2956 
Q 1366 3272 1645 3428 
Q 1925 3584 2291 3584 
Q 2894 3584 3203 3211 
Q 3513 2838 3513 2113 
z
" transform="scale(0.015625)"/>
        <path id="DejaVuSans-74" d="M 1172 4494 
L 1172 3500 
L 2356 3500 
L 2356 3053 
L 1172 3053 
L 1172 1153 
Q 1172 725 1289 603 
Q 1406 481 1766 481 
L 2356 481 
L 2356 0 
L 1766 0 
Q 1100 0 847 248 
Q 594 497 594 1153 
L 594 3053 
L 172 3053 
L 172 3500 
L 594 3500 
L 594 4494 
L 1172 4494 
z
" transform="scale(0.015625)"/>
       </defs>
       <use xlink:href="#DejaVuSans-52"/>
       <use xlink:href="#DejaVuSans-69" x="69.482422"/>
       <use xlink:href="#DejaVuSans-67" x="97.265625"/>
       <use xlink:href="#DejaVuSans-68" x="160.742188"/>
       <use xlink:href="#DejaVuSans-74" x="224.121094"/>
      </g>
     </g>
    </g>
    <g id="ytick_2">
     <g id="line2d_8">
      <g>
       <use xlink:href="#mc8b83ad081" x="45.3" y="144" style="stroke: #000000; stroke-width: 0.8"/>
      </g>
     </g>
     <g id="text_9">
      <!-- Left -->
      <g transform="translate(19.484375 147.799219)scale(0.1 -0.1)">
       <defs>
        <path id="DejaVuSans-4c" d="M 628 4666 
L 1259 4666 
L 1259 531 
L 3531 531 
L 3531 0 
L 628 0 
L 628 4666 
z
" transform="scale(0.015625)"/>
        <path id="DejaVuSans-66" d="M 2375 4863 
L 2375 4384 
L 1825 4384 
Q 1516 4384 1395 4259 
Q 1275 4134 1275 3809 
L 1275 3500 
L 2222 3500 
L 2222 3053 
L 1275 3053 
L 1275 0 
L 697 0 
L 697 3053 
L 147 3053 
L 147 3500 
L 697 3500 
L 697 3744 
Q 697 4328 969 4595 
Q 1241 4863 1831 4863 
L 2375 4863 
z
" transform="scale(0.015625)"/>
       </defs>
       <use xlink:href="#DejaVuSans-4c"/>
       <use xlink:href="#DejaVuSans-65" x="53.962891"/>
       <use xlink:href="#DejaVuSans-66" x="115.486328"/>
       <use xlink:href="#DejaVuSans-74" x="148.941406"/>
      </g>
     </g>
    </g>
    <g id="ytick_3">
     <g id="line2d_9">
      <g>
       <use xlink:href="#mc8b83ad081" x="45.3" y="85.931818" style="stroke: #000000; stroke-width: 0.8"/>
      </g>
     </g>
     <g id="text_10">
      <!-- Pellet -->
      <g transform="translate(10.85 89.731037)scale(0.1 -0.1)">
       <defs>
        <path id="DejaVuSans-50" d="M 1259 4147 
L 1259 2394 
L 2053 2394 
Q 2494 2394 2734 2622 
Q 2975 2850 2975 3272 
Q 2975 3691 2734 3919 
Q 2494 4147 2053 4147 
L 1259 4147 
z
M 628 4666 
L 2053 4666 
Q 2838 4666 3239 4311 
Q 3641 3956 3641 3272 
Q 3641 2581 3239 2228 
Q 2838 1875 2053 1875 
L 1259 1875 
L 1259 0 
L 628 0 
L 628 4666 
z
" transform="scale(0.015625)"/>
        <path id="DejaVuSans-6c" d="M 603 4863 
L 1178 4863 
L 1178 0 
L 603 0 
L 603 4863 
z
" transform="scale(0.015625)"/>
       </defs>
       <use xlink:href="#DejaVuSans-50"/>
       <use xlink:href="#DejaVuSans-65" x="56.677734"/>
       <use xlink:href="#DejaVuSans-6c" x="118.201172"/>
       <use xlink:href="#DejaVuSans-6c" x="145.984375"/>
       <use xlink:href="#DejaVuSans-65" x="173.767578"/>
       <use xlink:href="#DejaVuSans-74" x="235.291016"/>
      </g>
     </g>
    </g>
   </g>
   <g id="EventCollection_1">
    <path d="M 190.192115 68.511364 
L 190.192115 103.352273 
" clip-path="url(#p162d09a80c)" style="fill: none; stroke: #000000"/>
    <path d="M 203.601414 68.511364 
L 203.601414 103.352273 
" clip-path="url(#p162d09a80c)" style="fill: none; stroke: #000000"/>
    <path d="M 210.854243 68.511364 
L 210.854243 103.352273 
" clip-path="url(#p162d09a80c)" style="fill: none; stroke: #000000"/>
    <path d="M 251.482732 68.511364 
L 251.482732 103.352273 
" clip-path="url(#p162d09a80c)" style="fill: none; stroke: #000000"/>
    <path d="M 252.157414 68.511364 
L 252.157414 103.352273 
" clip-path="url(#p162d09a80c)" style="fill: none; stroke: #000000"/>
    <path d="M 281.000058 68.511364 
L 281.000058 103.352273 
" clip-path="url(#p162d09a80c)" style="fill: none; stroke: #000000"/>
    <path d="M 282.518091 68.511364 
L 282.518091 103.352273 
" clip-path="url(#p162d09a80c)" style="fill: none; stroke: #000000"/>
    <path d="M 283.403611 68.511364 
L 283.403611 103.352273 
" clip-path="url(#p162d09a80c)" style="fill: none; stroke: #000000"/>
    <path d="M 284.162628 68.511364 
L 284.162628 103.352273 
" clip-path="url(#p162d09a80c)" style="fill: none; stroke: #000000"/>
    <path d="M 285.195735 68.511364 
L 285.195735 103.352273 
" clip-path="url(#p162d09a80c)" style="fill: none; stroke: #000000"/>
    <path d="M 301.050755 68.511364 
L 301.050755 103.352273 
" clip-path="url(#p162d09a80c)" style="fill: none; stroke: #000000"/>
    <path d="M 301.641101 68.511364 
L 301.641101 103.352273 
" clip-path="url(#p162d09a80c)" style="fill: none; stroke: #000000"/>
    <path d="M 324.095352 68.511364 
L 324.095352 103.352273 
" clip-path="url(#p162d09a80c)" style="fill: none; stroke: #000000"/>
    <path d="M 329.218716 68.511364 
L 329.218716 103.352273 
" clip-path="url(#p162d09a80c)" style="fill: none; stroke: #000000"/>
    <path d="M 330.315074 68.511364 
L 330.315074 103.352273 
" clip-path="url(#p162d09a80c)" style="fill: none; stroke: #000000"/>
    <path d="M 336.38721 68.511364 
L 336.38721 103.352273 
" clip-path="url(#p162d09a80c)" style="fill: none; stroke: #000000"/>
    <path d="M 345.81167 68.511364 
L 345.81167 103.352273 
" clip-path="url(#p162d09a80c)" style="fill: none; stroke: #000000"/>
    <path d="M 346.317681 68.511364 
L 346.317681 103.352273 
" clip-path="url(#p162d09a80c)" style="fill: none; stroke: #000000"/>
    <path d="M 357.281259 68.511364 
L 357.281259 103.352273 
" clip-path="url(#p162d09a80c)" style="fill: none; stroke: #000000"/>
    <path d="M 357.766187 68.511364 
L 357.766187 103.352273 
" clip-path="url(#p162d09a80c)" style="fill: none; stroke: #000000"/>
    <path d="M 358.23003 68.511364 
L 358.23003 103.352273 
" clip-path="url(#p162d09a80c)" style="fill: none; stroke: #000000"/>
    <path d="M 358.693874 68.511364 
L 358.693874 103.352273 
" clip-path="url(#p162d09a80c)" style="fill: none; stroke: #000000"/>
    <path d="M 361.561271 68.511364 
L 361.561271 103.352273 
" clip-path="url(#p162d09a80c)" style="fill: none; stroke: #000000"/>
    <path d="M 367.085228 68.511364 
L 367.085228 103.352273 
" clip-path="url(#p162d09a80c)" style="fill: none; stroke: #000000"/>
    <path d="M 371.027899 68.511364 
L 371.027899 103.352273 
" clip-path="url(#p162d09a80c)" style="fill: none; stroke: #000000"/>
    <path d="M 383.910103 68.511364 
L 383.910103 103.352273 
" clip-path="url(#p162d09a80c)" style="fill: none; stroke: #000000"/>
    <path d="M 399.385615 68.511364 
L 399.385615 103.352273 
" clip-path="url(#p162d09a80c)" style="fill: none; stroke: #000000"/>
    <path d="M 399.765123 68.511364 
L 399.765123 103.352273 
" clip-path="url(#p162d09a80c)" style="fill: none; stroke: #000000"/>
    <path d="M 406.9547 68.511364 
L 406.9547 103.352273 
" clip-path="url(#p162d09a80c)" style="fill: none; stroke: #000000"/>
    <path d="M 417.159261 68.511364 
L 417.159261 103.352273 
" clip-path="url(#p162d09a80c)" style="fill: none; stroke: #000000"/>
    <path d="M 427.616828 68.511364 
L 427.616828 103.352273 
" clip-path="url(#p162d09a80c)" style="fill: none; stroke: #000000"/>
    <path d="M 428.143923 68.511364 
L 428.143923 103.352273 
" clip-path="url(#p162d09a80c)" style="fill: none; stroke: #000000"/>
    <path d="M 430.336639 68.511364 
L 430.336639 103.352273 
" clip-path="url(#p162d09a80c)" style="fill: none; stroke: #000000"/>
    <path d="M 430.926985 68.511364 
L 430.926985 103.352273 
" clip-path="url(#p162d09a80c)" style="fill: none; stroke: #000000"/>
    <path d="M 435.396752 68.511364 
L 435.396752 103.352273 
" clip-path="url(#p162d09a80c)" style="fill: none; stroke: #000000"/>
    <path d="M 439.929769 68.511364 
L 439.929769 103.352273 
" clip-path="url(#p162d09a80c)" style="fill: none; stroke: #000000"/>
    <path d="M 440.794205 68.511364 
L 440.794205 103.352273 
" clip-path="url(#p162d09a80c)" style="fill: none; stroke: #000000"/>
    <path d="M 448.278956 68.511364 
L 448.278956 103.352273 
" clip-path="url(#p162d09a80c)" style="fill: none; stroke: #000000"/>
    <path d="M 462.700277 68.511364 
L 462.700277 103.352273 
" clip-path="url(#p162d09a80c)" style="fill: none; stroke: #000000"/>
    <path d="M 495.569927 68.511364 
L 495.569927 103.352273 
" clip-path="url(#p162d09a80c)" style="fill: none; stroke: #000000"/>
    <path d="M 501.410141 68.511364 
L 501.410141 103.352273 
" clip-path="url(#p162d09a80c)" style="fill: none; stroke: #000000"/>
    <path d="M 537.632115 68.511364 
L 537.632115 103.352273 
" clip-path="url(#p162d09a80c)" style="fill: none; stroke: #000000"/>
    <path d="M 541.174194 68.511364 
L 541.174194 103.352273 
" clip-path="url(#p162d09a80c)" style="fill: none; stroke: #000000"/>
    <path d="M 542.186217 68.511364 
L 542.186217 103.352273 
" clip-path="url(#p162d09a80c)" style="fill: none; stroke: #000000"/>
    <path d="M 554.541326 68.511364 
L 554.541326 103.352273 
" clip-path="url(#p162d09a80c)" style="fill: none; stroke: #000000"/>
    <path d="M 561.857406 68.511364 
L 561.857406 103.352273 
" clip-path="url(#p162d09a80c)" style="fill: none; stroke: #000000"/>
    <path d="M 587.073635 68.511364 
L 587.073635 103.352273 
" clip-path="url(#p162d09a80c)" style="fill: none; stroke: #000000"/>
    <path d="M 595.549324 68.511364 
L 595.549324 103.352273 
" clip-path="url(#p162d09a80c)" style="fill: none; stroke: #000000"/>
    <path d="M 597.278196 68.511364 
L 597.278196 103.352273 
" clip-path="url(#p162d09a80c)" style="fill: none; stroke: #000000"/>
    <path d="M 618.298748 68.511364 
L 618.298748 103.352273 
" clip-path="url(#p162d09a80c)" style="fill: none; stroke: #000000"/>
    <path d="M 618.762592 68.511364 
L 618.762592 103.352273 
" clip-path="url(#p162d09a80c)" style="fill: none; stroke: #000000"/>
    <path d="M 645.011927 68.511364 
L 645.011927 103.352273 
" clip-path="url(#p162d09a80c)" style="fill: none; stroke: #000000"/>
    <path d="M 646.234788 68.511364 
L 646.234788 103.352273 
" clip-path="url(#p162d09a80c)" style="fill: none; stroke: #000000"/>
    <path d="M 730.063991 68.511364 
L 730.063991 103.352273 
" clip-path="url(#p162d09a80c)" style="fill: none; stroke: #000000"/>
    <path d="M 764.746848 68.511364 
L 764.746848 103.352273 
" clip-path="url(#p162d09a80c)" style="fill: none; stroke: #000000"/>
    <path d="M 775.773677 68.511364 
L 775.773677 103.352273 
" clip-path="url(#p162d09a80c)" style="fill: none; stroke: #000000"/>
    <path d="M 776.764616 68.511364 
L 776.764616 103.352273 
" clip-path="url(#p162d09a80c)" style="fill: none; stroke: #000000"/>
    <path d="M 798.523102 68.511364 
L 798.523102 103.352273 
" clip-path="url(#p162d09a80c)" style="fill: none; stroke: #000000"/>
    <path d="M 799.998968 68.511364 
L 799.998968 103.352273 
" clip-path="url(#p162d09a80c)" style="fill: none; stroke: #000000"/>
    <path d="M 816.338916 68.511364 
L 816.338916 103.352273 
" clip-path="url(#p162d09a80c)" style="fill: none; stroke: #000000"/>
    <path d="M 818.91114 68.511364 
L 818.91114 103.352273 
" clip-path="url(#p162d09a80c)" style="fill: none; stroke: #000000"/>
    <path d="M 823.338738 68.511364 
L 823.338738 103.352273 
" clip-path="url(#p162d09a80c)" style="fill: none; stroke: #000000"/>
    <path d="M 841.702731 68.511364 
L 841.702731 103.352273 
" clip-path="url(#p162d09a80c)" style="fill: none; stroke: #000000"/>
    <path d="M 857.705338 68.511364 
L 857.705338 103.352273 
" clip-path="url(#p162d09a80c)" style="fill: none; stroke: #000000"/>
    <path d="M 882.942651 68.511364 
L 882.942651 103.352273 
" clip-path="url(#p162d09a80c)" style="fill: none; stroke: #000000"/>
    <path d="M 883.596249 68.511364 
L 883.596249 103.352273 
" clip-path="url(#p162d09a80c)" style="fill: none; stroke: #000000"/>
    <path d="M 884.313099 68.511364 
L 884.313099 103.352273 
" clip-path="url(#p162d09a80c)" style="fill: none; stroke: #000000"/>
    <path d="M 886.92749 68.511364 
L 886.92749 103.352273 
" clip-path="url(#p162d09a80c)" style="fill: none; stroke: #000000"/>
    <path d="M 897.659146 68.511364 
L 897.659146 103.352273 
" clip-path="url(#p162d09a80c)" style="fill: none; stroke: #000000"/>
    <path d="M 898.165158 68.511364 
L 898.165158 103.352273 
" clip-path="url(#p162d09a80c)" style="fill: none; stroke: #000000"/>
    <path d="M 903.415025 68.511364 
L 903.415025 103.352273 
" clip-path="url(#p162d09a80c)" style="fill: none; stroke: #000000"/>
    <path d="M 904.300544 68.511364 
L 904.300544 103.352273 
" clip-path="url(#p162d09a80c)" style="fill: none; stroke: #000000"/>
    <path d="M 908.222132 68.511364 
L 908.222132 103.352273 
" clip-path="url(#p162d09a80c)" style="fill: none; stroke: #000000"/>
    <path d="M 909.592579 68.511364 
L 909.592579 103.352273 
" clip-path="url(#p162d09a80c)" style="fill: none; stroke: #000000"/>
    <path d="M 912.987072 68.511364 
L 912.987072 103.352273 
" clip-path="url(#p162d09a80c)" style="fill: none; stroke: #000000"/>
    <path d="M 913.493083 68.511364 
L 913.493083 103.352273 
" clip-path="url(#p162d09a80c)" style="fill: none; stroke: #000000"/>
    <path d="M 913.872591 68.511364 
L 913.872591 103.352273 
" clip-path="url(#p162d09a80c)" style="fill: none; stroke: #000000"/>
    <path d="M 921.041085 68.511364 
L 921.041085 103.352273 
" clip-path="url(#p162d09a80c)" style="fill: none; stroke: #000000"/>
    <path d="M 921.441677 68.511364 
L 921.441677 103.352273 
" clip-path="url(#p162d09a80c)" style="fill: none; stroke: #000000"/>
    <path d="M 922.032023 68.511364 
L 922.032023 103.352273 
" clip-path="url(#p162d09a80c)" style="fill: none; stroke: #000000"/>
    <path d="M 922.559118 68.511364 
L 922.559118 103.352273 
" clip-path="url(#p162d09a80c)" style="fill: none; stroke: #000000"/>
    <path d="M 937.781625 68.511364 
L 937.781625 103.352273 
" clip-path="url(#p162d09a80c)" style="fill: none; stroke: #000000"/>
    <path d="M 938.245468 68.511364 
L 938.245468 103.352273 
" clip-path="url(#p162d09a80c)" style="fill: none; stroke: #000000"/>
    <path d="M 953.046298 68.511364 
L 953.046298 103.352273 
" clip-path="url(#p162d09a80c)" style="fill: none; stroke: #000000"/>
    <path d="M 953.467975 68.511364 
L 953.467975 103.352273 
" clip-path="url(#p162d09a80c)" style="fill: none; stroke: #000000"/>
    <path d="M 953.931818 68.511364 
L 953.931818 103.352273 
" clip-path="url(#p162d09a80c)" style="fill: none; stroke: #000000"/>
   </g>
   <g id="EventCollection_2">
    <path d="M 88.568182 126.579545 
L 88.568182 161.420455 
" clip-path="url(#p162d09a80c)" style="fill: none; stroke: #008000"/>
    <path d="M 96.432441 126.579545 
L 96.432441 161.420455 
" clip-path="url(#p162d09a80c)" style="fill: none; stroke: #008000"/>
    <path d="M 122.808279 126.579545 
L 122.808279 161.420455 
" clip-path="url(#p162d09a80c)" style="fill: none; stroke: #008000"/>
    <path d="M 150.36481 126.579545 
L 150.36481 161.420455 
" clip-path="url(#p162d09a80c)" style="fill: none; stroke: #008000"/>
    <path d="M 167.168602 126.579545 
L 167.168602 161.420455 
" clip-path="url(#p162d09a80c)" style="fill: none; stroke: #008000"/>
    <path d="M 180.830907 126.579545 
L 180.830907 161.420455 
" clip-path="url(#p162d09a80c)" style="fill: none; stroke: #008000"/>
    <path d="M 181.800761 126.579545 
L 181.800761 161.420455 
" clip-path="url(#p162d09a80c)" style="fill: none; stroke: #008000"/>
    <path d="M 182.854952 126.579545 
L 182.854952 161.420455 
" clip-path="url(#p162d09a80c)" style="fill: none; stroke: #008000"/>
    <path d="M 183.592885 126.579545 
L 183.592885 161.420455 
" clip-path="url(#p162d09a80c)" style="fill: none; stroke: #008000"/>
    <path d="M 183.888058 126.579545 
L 183.888058 161.420455 
" clip-path="url(#p162d09a80c)" style="fill: none; stroke: #008000"/>
    <path d="M 185.026583 126.579545 
L 185.026583 161.420455 
" clip-path="url(#p162d09a80c)" style="fill: none; stroke: #008000"/>
    <path d="M 187.198215 126.579545 
L 187.198215 161.420455 
" clip-path="url(#p162d09a80c)" style="fill: none; stroke: #008000"/>
    <path d="M 187.872897 126.579545 
L 187.872897 161.420455 
" clip-path="url(#p162d09a80c)" style="fill: none; stroke: #008000"/>
    <path d="M 188.210238 126.579545 
L 188.210238 161.420455 
" clip-path="url(#p162d09a80c)" style="fill: none; stroke: #008000"/>
    <path d="M 188.526495 126.579545 
L 188.526495 161.420455 
" clip-path="url(#p162d09a80c)" style="fill: none; stroke: #008000"/>
    <path d="M 188.7795 126.579545 
L 188.7795 161.420455 
" clip-path="url(#p162d09a80c)" style="fill: none; stroke: #008000"/>
    <path d="M 189.285512 126.579545 
L 189.285512 161.420455 
" clip-path="url(#p162d09a80c)" style="fill: none; stroke: #008000"/>
    <path d="M 189.538517 126.579545 
L 189.538517 161.420455 
" clip-path="url(#p162d09a80c)" style="fill: none; stroke: #008000"/>
    <path d="M 191.098719 126.579545 
L 191.098719 161.420455 
" clip-path="url(#p162d09a80c)" style="fill: none; stroke: #008000"/>
    <path d="M 191.857736 126.579545 
L 191.857736 161.420455 
" clip-path="url(#p162d09a80c)" style="fill: none; stroke: #008000"/>
    <path d="M 204.191761 126.579545 
L 204.191761 161.420455 
" clip-path="url(#p162d09a80c)" style="fill: none; stroke: #008000"/>
    <path d="M 207.227829 126.579545 
L 207.227829 161.420455 
" clip-path="url(#p162d09a80c)" style="fill: none; stroke: #008000"/>
    <path d="M 208.071181 126.579545 
L 208.071181 161.420455 
" clip-path="url(#p162d09a80c)" style="fill: none; stroke: #008000"/>
    <path d="M 209.947639 126.579545 
L 209.947639 161.420455 
" clip-path="url(#p162d09a80c)" style="fill: none; stroke: #008000"/>
    <path d="M 241.025166 126.579545 
L 241.025166 161.420455 
" clip-path="url(#p162d09a80c)" style="fill: none; stroke: #008000"/>
    <path d="M 241.299255 126.579545 
L 241.299255 161.420455 
" clip-path="url(#p162d09a80c)" style="fill: none; stroke: #008000"/>
    <path d="M 250.091201 126.579545 
L 250.091201 161.420455 
" clip-path="url(#p162d09a80c)" style="fill: none; stroke: #008000"/>
    <path d="M 250.63938 126.579545 
L 250.63938 161.420455 
" clip-path="url(#p162d09a80c)" style="fill: none; stroke: #008000"/>
    <path d="M 253.949538 126.579545 
L 253.949538 161.420455 
" clip-path="url(#p162d09a80c)" style="fill: none; stroke: #008000"/>
    <path d="M 254.223627 126.579545 
L 254.223627 161.420455 
" clip-path="url(#p162d09a80c)" style="fill: none; stroke: #008000"/>
    <path d="M 277.795319 126.579545 
L 277.795319 161.420455 
" clip-path="url(#p162d09a80c)" style="fill: none; stroke: #008000"/>
    <path d="M 279.882616 126.579545 
L 279.882616 161.420455 
" clip-path="url(#p162d09a80c)" style="fill: none; stroke: #008000"/>
    <path d="M 280.34646 126.579545 
L 280.34646 161.420455 
" clip-path="url(#p162d09a80c)" style="fill: none; stroke: #008000"/>
    <path d="M 280.978974 126.579545 
L 280.978974 161.420455 
" clip-path="url(#p162d09a80c)" style="fill: none; stroke: #008000"/>
    <path d="M 281.484985 126.579545 
L 281.484985 161.420455 
" clip-path="url(#p162d09a80c)" style="fill: none; stroke: #008000"/>
    <path d="M 281.822326 126.579545 
L 281.822326 161.420455 
" clip-path="url(#p162d09a80c)" style="fill: none; stroke: #008000"/>
    <path d="M 282.138583 126.579545 
L 282.138583 161.420455 
" clip-path="url(#p162d09a80c)" style="fill: none; stroke: #008000"/>
    <path d="M 285.153567 126.579545 
L 285.153567 161.420455 
" clip-path="url(#p162d09a80c)" style="fill: none; stroke: #008000"/>
    <path d="M 300.987503 126.579545 
L 300.987503 161.420455 
" clip-path="url(#p162d09a80c)" style="fill: none; stroke: #008000"/>
    <path d="M 301.598934 126.579545 
L 301.598934 161.420455 
" clip-path="url(#p162d09a80c)" style="fill: none; stroke: #008000"/>
    <path d="M 324.053185 126.579545 
L 324.053185 161.420455 
" clip-path="url(#p162d09a80c)" style="fill: none; stroke: #008000"/>
    <path d="M 324.896537 126.579545 
L 324.896537 161.420455 
" clip-path="url(#p162d09a80c)" style="fill: none; stroke: #008000"/>
    <path d="M 329.176549 126.579545 
L 329.176549 161.420455 
" clip-path="url(#p162d09a80c)" style="fill: none; stroke: #008000"/>
    <path d="M 334.89026 126.579545 
L 334.89026 161.420455 
" clip-path="url(#p162d09a80c)" style="fill: none; stroke: #008000"/>
    <path d="M 335.965534 126.579545 
L 335.965534 161.420455 
" clip-path="url(#p162d09a80c)" style="fill: none; stroke: #008000"/>
    <path d="M 340.161211 126.579545 
L 340.161211 161.420455 
" clip-path="url(#p162d09a80c)" style="fill: none; stroke: #008000"/>
    <path d="M 345.748419 126.579545 
L 345.748419 161.420455 
" clip-path="url(#p162d09a80c)" style="fill: none; stroke: #008000"/>
    <path d="M 346.275514 126.579545 
L 346.275514 161.420455 
" clip-path="url(#p162d09a80c)" style="fill: none; stroke: #008000"/>
    <path d="M 357.218008 126.579545 
L 357.218008 161.420455 
" clip-path="url(#p162d09a80c)" style="fill: none; stroke: #008000"/>
    <path d="M 357.724019 126.579545 
L 357.724019 161.420455 
" clip-path="url(#p162d09a80c)" style="fill: none; stroke: #008000"/>
    <path d="M 358.187863 126.579545 
L 358.187863 161.420455 
" clip-path="url(#p162d09a80c)" style="fill: none; stroke: #008000"/>
    <path d="M 358.630623 126.579545 
L 358.630623 161.420455 
" clip-path="url(#p162d09a80c)" style="fill: none; stroke: #008000"/>
    <path d="M 361.455852 126.579545 
L 361.455852 161.420455 
" clip-path="url(#p162d09a80c)" style="fill: none; stroke: #008000"/>
    <path d="M 364.344333 126.579545 
L 364.344333 161.420455 
" clip-path="url(#p162d09a80c)" style="fill: none; stroke: #008000"/>
    <path d="M 368.308088 126.579545 
L 368.308088 161.420455 
" clip-path="url(#p162d09a80c)" style="fill: none; stroke: #008000"/>
    <path d="M 383.298673 126.579545 
L 383.298673 161.420455 
" clip-path="url(#p162d09a80c)" style="fill: none; stroke: #008000"/>
    <path d="M 383.867936 126.579545 
L 383.867936 161.420455 
" clip-path="url(#p162d09a80c)" style="fill: none; stroke: #008000"/>
    <path d="M 384.205276 126.579545 
L 384.205276 161.420455 
" clip-path="url(#p162d09a80c)" style="fill: none; stroke: #008000"/>
    <path d="M 384.753455 126.579545 
L 384.753455 161.420455 
" clip-path="url(#p162d09a80c)" style="fill: none; stroke: #008000"/>
    <path d="M 399.343447 126.579545 
L 399.343447 161.420455 
" clip-path="url(#p162d09a80c)" style="fill: none; stroke: #008000"/>
    <path d="M 406.448689 126.579545 
L 406.448689 161.420455 
" clip-path="url(#p162d09a80c)" style="fill: none; stroke: #008000"/>
    <path d="M 406.828198 126.579545 
L 406.828198 161.420455 
" clip-path="url(#p162d09a80c)" style="fill: none; stroke: #008000"/>
    <path d="M 416.463496 126.579545 
L 416.463496 161.420455 
" clip-path="url(#p162d09a80c)" style="fill: none; stroke: #008000"/>
    <path d="M 416.779753 126.579545 
L 416.779753 161.420455 
" clip-path="url(#p162d09a80c)" style="fill: none; stroke: #008000"/>
    <path d="M 417.053842 126.579545 
L 417.053842 161.420455 
" clip-path="url(#p162d09a80c)" style="fill: none; stroke: #008000"/>
    <path d="M 417.559854 126.579545 
L 417.559854 161.420455 
" clip-path="url(#p162d09a80c)" style="fill: none; stroke: #008000"/>
    <path d="M 427.553577 126.579545 
L 427.553577 161.420455 
" clip-path="url(#p162d09a80c)" style="fill: none; stroke: #008000"/>
    <path d="M 429.936046 126.579545 
L 429.936046 161.420455 
" clip-path="url(#p162d09a80c)" style="fill: none; stroke: #008000"/>
    <path d="M 430.23122 126.579545 
L 430.23122 161.420455 
" clip-path="url(#p162d09a80c)" style="fill: none; stroke: #008000"/>
    <path d="M 430.863734 126.579545 
L 430.863734 161.420455 
" clip-path="url(#p162d09a80c)" style="fill: none; stroke: #008000"/>
    <path d="M 431.475164 126.579545 
L 431.475164 161.420455 
" clip-path="url(#p162d09a80c)" style="fill: none; stroke: #008000"/>
    <path d="M 439.023166 126.579545 
L 439.023166 161.420455 
" clip-path="url(#p162d09a80c)" style="fill: none; stroke: #008000"/>
    <path d="M 479.693823 126.579545 
L 479.693823 161.420455 
" clip-path="url(#p162d09a80c)" style="fill: none; stroke: #008000"/>
    <path d="M 484.016003 126.579545 
L 484.016003 161.420455 
" clip-path="url(#p162d09a80c)" style="fill: none; stroke: #008000"/>
    <path d="M 485.259947 126.579545 
L 485.259947 161.420455 
" clip-path="url(#p162d09a80c)" style="fill: none; stroke: #008000"/>
    <path d="M 491.353166 126.579545 
L 491.353166 161.420455 
" clip-path="url(#p162d09a80c)" style="fill: none; stroke: #008000"/>
    <path d="M 491.606172 126.579545 
L 491.606172 161.420455 
" clip-path="url(#p162d09a80c)" style="fill: none; stroke: #008000"/>
    <path d="M 507.018433 126.579545 
L 507.018433 161.420455 
" clip-path="url(#p162d09a80c)" style="fill: none; stroke: #008000"/>
    <path d="M 519.626547 126.579545 
L 519.626547 161.420455 
" clip-path="url(#p162d09a80c)" style="fill: none; stroke: #008000"/>
    <path d="M 523.63247 126.579545 
L 523.63247 161.420455 
" clip-path="url(#p162d09a80c)" style="fill: none; stroke: #008000"/>
    <path d="M 528.144404 126.579545 
L 528.144404 161.420455 
" clip-path="url(#p162d09a80c)" style="fill: none; stroke: #008000"/>
    <path d="M 536.641177 126.579545 
L 536.641177 161.420455 
" clip-path="url(#p162d09a80c)" style="fill: none; stroke: #008000"/>
    <path d="M 537.231523 126.579545 
L 537.231523 161.420455 
" clip-path="url(#p162d09a80c)" style="fill: none; stroke: #008000"/>
    <path d="M 538.644138 126.579545 
L 538.644138 161.420455 
" clip-path="url(#p162d09a80c)" style="fill: none; stroke: #008000"/>
    <path d="M 547.056576 126.579545 
L 547.056576 161.420455 
" clip-path="url(#p162d09a80c)" style="fill: none; stroke: #008000"/>
    <path d="M 560.339372 126.579545 
L 560.339372 161.420455 
" clip-path="url(#p162d09a80c)" style="fill: none; stroke: #008000"/>
    <path d="M 561.203808 126.579545 
L 561.203808 161.420455 
" clip-path="url(#p162d09a80c)" style="fill: none; stroke: #008000"/>
    <path d="M 561.520065 126.579545 
L 561.520065 161.420455 
" clip-path="url(#p162d09a80c)" style="fill: none; stroke: #008000"/>
    <path d="M 564.640468 126.579545 
L 564.640468 161.420455 
" clip-path="url(#p162d09a80c)" style="fill: none; stroke: #008000"/>
    <path d="M 584.459243 126.579545 
L 584.459243 161.420455 
" clip-path="url(#p162d09a80c)" style="fill: none; stroke: #008000"/>
    <path d="M 590.320541 126.579545 
L 590.320541 161.420455 
" clip-path="url(#p162d09a80c)" style="fill: none; stroke: #008000"/>
    <path d="M 591.880742 126.579545 
L 591.880742 161.420455 
" clip-path="url(#p162d09a80c)" style="fill: none; stroke: #008000"/>
    <path d="M 592.302418 126.579545 
L 592.302418 161.420455 
" clip-path="url(#p162d09a80c)" style="fill: none; stroke: #008000"/>
    <path d="M 596.645682 126.579545 
L 596.645682 161.420455 
" clip-path="url(#p162d09a80c)" style="fill: none; stroke: #008000"/>
    <path d="M 608.83212 126.579545 
L 608.83212 161.420455 
" clip-path="url(#p162d09a80c)" style="fill: none; stroke: #008000"/>
    <path d="M 609.780891 126.579545 
L 609.780891 161.420455 
" clip-path="url(#p162d09a80c)" style="fill: none; stroke: #008000"/>
    <path d="M 610.076065 126.579545 
L 610.076065 161.420455 
" clip-path="url(#p162d09a80c)" style="fill: none; stroke: #008000"/>
    <path d="M 623.654034 126.579545 
L 623.654034 161.420455 
" clip-path="url(#p162d09a80c)" style="fill: none; stroke: #008000"/>
    <path d="M 636.430819 126.579545 
L 636.430819 161.420455 
" clip-path="url(#p162d09a80c)" style="fill: none; stroke: #008000"/>
    <path d="M 640.605412 126.579545 
L 640.605412 161.420455 
" clip-path="url(#p162d09a80c)" style="fill: none; stroke: #008000"/>
    <path d="M 647.057056 126.579545 
L 647.057056 161.420455 
" clip-path="url(#p162d09a80c)" style="fill: none; stroke: #008000"/>
    <path d="M 729.979656 126.579545 
L 729.979656 161.420455 
" clip-path="url(#p162d09a80c)" style="fill: none; stroke: #008000"/>
    <path d="M 764.683597 126.579545 
L 764.683597 161.420455 
" clip-path="url(#p162d09a80c)" style="fill: none; stroke: #008000"/>
    <path d="M 765.252859 126.579545 
L 765.252859 161.420455 
" clip-path="url(#p162d09a80c)" style="fill: none; stroke: #008000"/>
    <path d="M 765.674536 126.579545 
L 765.674536 161.420455 
" clip-path="url(#p162d09a80c)" style="fill: none; stroke: #008000"/>
    <path d="M 775.710426 126.579545 
L 775.710426 161.420455 
" clip-path="url(#p162d09a80c)" style="fill: none; stroke: #008000"/>
    <path d="M 776.364024 126.579545 
L 776.364024 161.420455 
" clip-path="url(#p162d09a80c)" style="fill: none; stroke: #008000"/>
    <path d="M 776.743532 126.579545 
L 776.743532 161.420455 
" clip-path="url(#p162d09a80c)" style="fill: none; stroke: #008000"/>
    <path d="M 777.439298 126.579545 
L 777.439298 161.420455 
" clip-path="url(#p162d09a80c)" style="fill: none; stroke: #008000"/>
    <path d="M 778.198315 126.579545 
L 778.198315 161.420455 
" clip-path="url(#p162d09a80c)" style="fill: none; stroke: #008000"/>
    <path d="M 798.438766 126.579545 
L 798.438766 161.420455 
" clip-path="url(#p162d09a80c)" style="fill: none; stroke: #008000"/>
    <path d="M 799.935716 126.579545 
L 799.935716 161.420455 
" clip-path="url(#p162d09a80c)" style="fill: none; stroke: #008000"/>
    <path d="M 816.296748 126.579545 
L 816.296748 161.420455 
" clip-path="url(#p162d09a80c)" style="fill: none; stroke: #008000"/>
    <path d="M 816.950346 126.579545 
L 816.950346 161.420455 
" clip-path="url(#p162d09a80c)" style="fill: none; stroke: #008000"/>
    <path d="M 818.868972 126.579545 
L 818.868972 161.420455 
" clip-path="url(#p162d09a80c)" style="fill: none; stroke: #008000"/>
    <path d="M 820.091833 126.579545 
L 820.091833 161.420455 
" clip-path="url(#p162d09a80c)" style="fill: none; stroke: #008000"/>
    <path d="M 823.296571 126.579545 
L 823.296571 161.420455 
" clip-path="url(#p162d09a80c)" style="fill: none; stroke: #008000"/>
    <path d="M 823.950169 126.579545 
L 823.950169 161.420455 
" clip-path="url(#p162d09a80c)" style="fill: none; stroke: #008000"/>
    <path d="M 834.007143 126.579545 
L 834.007143 161.420455 
" clip-path="url(#p162d09a80c)" style="fill: none; stroke: #008000"/>
    <path d="M 841.597312 126.579545 
L 841.597312 161.420455 
" clip-path="url(#p162d09a80c)" style="fill: none; stroke: #008000"/>
    <path d="M 842.229827 126.579545 
L 842.229827 161.420455 
" clip-path="url(#p162d09a80c)" style="fill: none; stroke: #008000"/>
    <path d="M 857.621003 126.579545 
L 857.621003 161.420455 
" clip-path="url(#p162d09a80c)" style="fill: none; stroke: #008000"/>
    <path d="M 858.337853 126.579545 
L 858.337853 161.420455 
" clip-path="url(#p162d09a80c)" style="fill: none; stroke: #008000"/>
    <path d="M 881.298115 126.579545 
L 881.298115 161.420455 
" clip-path="url(#p162d09a80c)" style="fill: none; stroke: #008000"/>
    <path d="M 882.900484 126.579545 
L 882.900484 161.420455 
" clip-path="url(#p162d09a80c)" style="fill: none; stroke: #008000"/>
    <path d="M 883.554082 126.579545 
L 883.554082 161.420455 
" clip-path="url(#p162d09a80c)" style="fill: none; stroke: #008000"/>
    <path d="M 884.270931 126.579545 
L 884.270931 161.420455 
" clip-path="url(#p162d09a80c)" style="fill: none; stroke: #008000"/>
    <path d="M 886.885323 126.579545 
L 886.885323 161.420455 
" clip-path="url(#p162d09a80c)" style="fill: none; stroke: #008000"/>
    <path d="M 887.328083 126.579545 
L 887.328083 161.420455 
" clip-path="url(#p162d09a80c)" style="fill: none; stroke: #008000"/>
    <path d="M 896.604956 126.579545 
L 896.604956 161.420455 
" clip-path="url(#p162d09a80c)" style="fill: none; stroke: #008000"/>
    <path d="M 897.616979 126.579545 
L 897.616979 161.420455 
" clip-path="url(#p162d09a80c)" style="fill: none; stroke: #008000"/>
    <path d="M 898.12299 126.579545 
L 898.12299 161.420455 
" clip-path="url(#p162d09a80c)" style="fill: none; stroke: #008000"/>
    <path d="M 898.544666 126.579545 
L 898.544666 161.420455 
" clip-path="url(#p162d09a80c)" style="fill: none; stroke: #008000"/>
    <path d="M 903.330689 126.579545 
L 903.330689 161.420455 
" clip-path="url(#p162d09a80c)" style="fill: none; stroke: #008000"/>
    <path d="M 904.258377 126.579545 
L 904.258377 161.420455 
" clip-path="url(#p162d09a80c)" style="fill: none; stroke: #008000"/>
    <path d="M 909.550412 126.579545 
L 909.550412 161.420455 
" clip-path="url(#p162d09a80c)" style="fill: none; stroke: #008000"/>
    <path d="M 909.993171 126.579545 
L 909.993171 161.420455 
" clip-path="url(#p162d09a80c)" style="fill: none; stroke: #008000"/>
    <path d="M 912.628647 126.579545 
L 912.628647 161.420455 
" clip-path="url(#p162d09a80c)" style="fill: none; stroke: #008000"/>
    <path d="M 912.92382 126.579545 
L 912.92382 161.420455 
" clip-path="url(#p162d09a80c)" style="fill: none; stroke: #008000"/>
    <path d="M 913.450915 126.579545 
L 913.450915 161.420455 
" clip-path="url(#p162d09a80c)" style="fill: none; stroke: #008000"/>
    <path d="M 913.830424 126.579545 
L 913.830424 161.420455 
" clip-path="url(#p162d09a80c)" style="fill: none; stroke: #008000"/>
    <path d="M 914.294267 126.579545 
L 914.294267 161.420455 
" clip-path="url(#p162d09a80c)" style="fill: none; stroke: #008000"/>
    <path d="M 920.450738 126.579545 
L 920.450738 161.420455 
" clip-path="url(#p162d09a80c)" style="fill: none; stroke: #008000"/>
    <path d="M 920.977833 126.579545 
L 920.977833 161.420455 
" clip-path="url(#p162d09a80c)" style="fill: none; stroke: #008000"/>
    <path d="M 921.399509 126.579545 
L 921.399509 161.420455 
" clip-path="url(#p162d09a80c)" style="fill: none; stroke: #008000"/>
    <path d="M 921.989856 126.579545 
L 921.989856 161.420455 
" clip-path="url(#p162d09a80c)" style="fill: none; stroke: #008000"/>
    <path d="M 922.516951 126.579545 
L 922.516951 161.420455 
" clip-path="url(#p162d09a80c)" style="fill: none; stroke: #008000"/>
    <path d="M 935.019646 126.579545 
L 935.019646 161.420455 
" clip-path="url(#p162d09a80c)" style="fill: none; stroke: #008000"/>
    <path d="M 935.462406 126.579545 
L 935.462406 161.420455 
" clip-path="url(#p162d09a80c)" style="fill: none; stroke: #008000"/>
    <path d="M 937.739457 126.579545 
L 937.739457 161.420455 
" clip-path="url(#p162d09a80c)" style="fill: none; stroke: #008000"/>
    <path d="M 938.203301 126.579545 
L 938.203301 161.420455 
" clip-path="url(#p162d09a80c)" style="fill: none; stroke: #008000"/>
    <path d="M 939.36291 126.579545 
L 939.36291 161.420455 
" clip-path="url(#p162d09a80c)" style="fill: none; stroke: #008000"/>
    <path d="M 953.004131 126.579545 
L 953.004131 161.420455 
" clip-path="url(#p162d09a80c)" style="fill: none; stroke: #008000"/>
    <path d="M 953.425807 126.579545 
L 953.425807 161.420455 
" clip-path="url(#p162d09a80c)" style="fill: none; stroke: #008000"/>
    <path d="M 953.868567 126.579545 
L 953.868567 161.420455 
" clip-path="url(#p162d09a80c)" style="fill: none; stroke: #008000"/>
   </g>
   <g id="EventCollection_3">
    <path d="M 181.168247 184.647727 
L 181.168247 219.488636 
" clip-path="url(#p162d09a80c)" style="fill: none; stroke: #800080"/>
    <path d="M 182.222438 184.647727 
L 182.222438 219.488636 
" clip-path="url(#p162d09a80c)" style="fill: none; stroke: #800080"/>
    <path d="M 185.743433 184.647727 
L 185.743433 219.488636 
" clip-path="url(#p162d09a80c)" style="fill: none; stroke: #800080"/>
    <path d="M 190.149948 184.647727 
L 190.149948 219.488636 
" clip-path="url(#p162d09a80c)" style="fill: none; stroke: #800080"/>
    <path d="M 190.592708 184.647727 
L 190.592708 219.488636 
" clip-path="url(#p162d09a80c)" style="fill: none; stroke: #800080"/>
    <path d="M 203.221906 184.647727 
L 203.221906 219.488636 
" clip-path="url(#p162d09a80c)" style="fill: none; stroke: #800080"/>
    <path d="M 203.517079 184.647727 
L 203.517079 219.488636 
" clip-path="url(#p162d09a80c)" style="fill: none; stroke: #800080"/>
    <path d="M 209.23079 184.647727 
L 209.23079 219.488636 
" clip-path="url(#p162d09a80c)" style="fill: none; stroke: #800080"/>
    <path d="M 209.694634 184.647727 
L 209.694634 219.488636 
" clip-path="url(#p162d09a80c)" style="fill: none; stroke: #800080"/>
    <path d="M 210.812075 184.647727 
L 210.812075 219.488636 
" clip-path="url(#p162d09a80c)" style="fill: none; stroke: #800080"/>
    <path d="M 211.33917 184.647727 
L 211.33917 219.488636 
" clip-path="url(#p162d09a80c)" style="fill: none; stroke: #800080"/>
    <path d="M 251.187559 184.647727 
L 251.187559 219.488636 
" clip-path="url(#p162d09a80c)" style="fill: none; stroke: #800080"/>
    <path d="M 251.440565 184.647727 
L 251.440565 219.488636 
" clip-path="url(#p162d09a80c)" style="fill: none; stroke: #800080"/>
    <path d="M 252.073079 184.647727 
L 252.073079 219.488636 
" clip-path="url(#p162d09a80c)" style="fill: none; stroke: #800080"/>
    <path d="M 252.979683 184.647727 
L 252.979683 219.488636 
" clip-path="url(#p162d09a80c)" style="fill: none; stroke: #800080"/>
    <path d="M 280.725968 184.647727 
L 280.725968 219.488636 
" clip-path="url(#p162d09a80c)" style="fill: none; stroke: #800080"/>
    <path d="M 282.45484 184.647727 
L 282.45484 219.488636 
" clip-path="url(#p162d09a80c)" style="fill: none; stroke: #800080"/>
    <path d="M 283.361444 184.647727 
L 283.361444 219.488636 
" clip-path="url(#p162d09a80c)" style="fill: none; stroke: #800080"/>
    <path d="M 284.078293 184.647727 
L 284.078293 219.488636 
" clip-path="url(#p162d09a80c)" style="fill: none; stroke: #800080"/>
    <path d="M 286.207757 184.647727 
L 286.207757 219.488636 
" clip-path="url(#p162d09a80c)" style="fill: none; stroke: #800080"/>
    <path d="M 330.272907 184.647727 
L 330.272907 219.488636 
" clip-path="url(#p162d09a80c)" style="fill: none; stroke: #800080"/>
    <path d="M 342.670183 184.647727 
L 342.670183 219.488636 
" clip-path="url(#p162d09a80c)" style="fill: none; stroke: #800080"/>
    <path d="M 351.6308 184.647727 
L 351.6308 219.488636 
" clip-path="url(#p162d09a80c)" style="fill: none; stroke: #800080"/>
    <path d="M 366.979809 184.647727 
L 366.979809 219.488636 
" clip-path="url(#p162d09a80c)" style="fill: none; stroke: #800080"/>
    <path d="M 367.549071 184.647727 
L 367.549071 219.488636 
" clip-path="url(#p162d09a80c)" style="fill: none; stroke: #800080"/>
    <path d="M 370.964648 184.647727 
L 370.964648 219.488636 
" clip-path="url(#p162d09a80c)" style="fill: none; stroke: #800080"/>
    <path d="M 382.476404 184.647727 
L 382.476404 219.488636 
" clip-path="url(#p162d09a80c)" style="fill: none; stroke: #800080"/>
    <path d="M 399.722956 184.647727 
L 399.722956 219.488636 
" clip-path="url(#p162d09a80c)" style="fill: none; stroke: #800080"/>
    <path d="M 412.014813 184.647727 
L 412.014813 219.488636 
" clip-path="url(#p162d09a80c)" style="fill: none; stroke: #800080"/>
    <path d="M 428.080672 184.647727 
L 428.080672 219.488636 
" clip-path="url(#p162d09a80c)" style="fill: none; stroke: #800080"/>
    <path d="M 428.881856 184.647727 
L 428.881856 219.488636 
" clip-path="url(#p162d09a80c)" style="fill: none; stroke: #800080"/>
    <path d="M 429.261365 184.647727 
L 429.261365 219.488636 
" clip-path="url(#p162d09a80c)" style="fill: none; stroke: #800080"/>
    <path d="M 432.297432 184.647727 
L 432.297432 219.488636 
" clip-path="url(#p162d09a80c)" style="fill: none; stroke: #800080"/>
    <path d="M 434.743154 184.647727 
L 434.743154 219.488636 
" clip-path="url(#p162d09a80c)" style="fill: none; stroke: #800080"/>
    <path d="M 435.354584 184.647727 
L 435.354584 219.488636 
" clip-path="url(#p162d09a80c)" style="fill: none; stroke: #800080"/>
    <path d="M 439.866518 184.647727 
L 439.866518 219.488636 
" clip-path="url(#p162d09a80c)" style="fill: none; stroke: #800080"/>
    <path d="M 440.730954 184.647727 
L 440.730954 219.488636 
" clip-path="url(#p162d09a80c)" style="fill: none; stroke: #800080"/>
    <path d="M 444.273033 184.647727 
L 444.273033 219.488636 
" clip-path="url(#p162d09a80c)" style="fill: none; stroke: #800080"/>
    <path d="M 448.215704 184.647727 
L 448.215704 219.488636 
" clip-path="url(#p162d09a80c)" style="fill: none; stroke: #800080"/>
    <path d="M 450.155414 184.647727 
L 450.155414 219.488636 
" clip-path="url(#p162d09a80c)" style="fill: none; stroke: #800080"/>
    <path d="M 478.51313 184.647727 
L 478.51313 219.488636 
" clip-path="url(#p162d09a80c)" style="fill: none; stroke: #800080"/>
    <path d="M 485.618372 184.647727 
L 485.618372 219.488636 
" clip-path="url(#p162d09a80c)" style="fill: none; stroke: #800080"/>
    <path d="M 493.566966 184.647727 
L 493.566966 219.488636 
" clip-path="url(#p162d09a80c)" style="fill: none; stroke: #800080"/>
    <path d="M 493.967558 184.647727 
L 493.967558 219.488636 
" clip-path="url(#p162d09a80c)" style="fill: none; stroke: #800080"/>
    <path d="M 494.452486 184.647727 
L 494.452486 219.488636 
" clip-path="url(#p162d09a80c)" style="fill: none; stroke: #800080"/>
    <path d="M 495.190419 184.647727 
L 495.190419 219.488636 
" clip-path="url(#p162d09a80c)" style="fill: none; stroke: #800080"/>
    <path d="M 497.530721 184.647727 
L 497.530721 219.488636 
" clip-path="url(#p162d09a80c)" style="fill: none; stroke: #800080"/>
    <path d="M 501.367973 184.647727 
L 501.367973 219.488636 
" clip-path="url(#p162d09a80c)" style="fill: none; stroke: #800080"/>
    <path d="M 536.282752 184.647727 
L 536.282752 219.488636 
" clip-path="url(#p162d09a80c)" style="fill: none; stroke: #800080"/>
    <path d="M 537.589948 184.647727 
L 537.589948 219.488636 
" clip-path="url(#p162d09a80c)" style="fill: none; stroke: #800080"/>
    <path d="M 538.222462 184.647727 
L 538.222462 219.488636 
" clip-path="url(#p162d09a80c)" style="fill: none; stroke: #800080"/>
    <path d="M 540.81577 184.647727 
L 540.81577 219.488636 
" clip-path="url(#p162d09a80c)" style="fill: none; stroke: #800080"/>
    <path d="M 541.132027 184.647727 
L 541.132027 219.488636 
" clip-path="url(#p162d09a80c)" style="fill: none; stroke: #800080"/>
    <path d="M 541.469368 184.647727 
L 541.469368 219.488636 
" clip-path="url(#p162d09a80c)" style="fill: none; stroke: #800080"/>
    <path d="M 541.891044 184.647727 
L 541.891044 219.488636 
" clip-path="url(#p162d09a80c)" style="fill: none; stroke: #800080"/>
    <path d="M 542.586809 184.647727 
L 542.586809 219.488636 
" clip-path="url(#p162d09a80c)" style="fill: none; stroke: #800080"/>
    <path d="M 546.381894 184.647727 
L 546.381894 219.488636 
" clip-path="url(#p162d09a80c)" style="fill: none; stroke: #800080"/>
    <path d="M 554.478075 184.647727 
L 554.478075 219.488636 
" clip-path="url(#p162d09a80c)" style="fill: none; stroke: #800080"/>
    <path d="M 561.815238 184.647727 
L 561.815238 219.488636 
" clip-path="url(#p162d09a80c)" style="fill: none; stroke: #800080"/>
    <path d="M 583.72131 184.647727 
L 583.72131 219.488636 
" clip-path="url(#p162d09a80c)" style="fill: none; stroke: #800080"/>
    <path d="M 587.031467 184.647727 
L 587.031467 219.488636 
" clip-path="url(#p162d09a80c)" style="fill: none; stroke: #800080"/>
    <path d="M 589.582608 184.647727 
L 589.582608 219.488636 
" clip-path="url(#p162d09a80c)" style="fill: none; stroke: #800080"/>
    <path d="M 590.046451 184.647727 
L 590.046451 219.488636 
" clip-path="url(#p162d09a80c)" style="fill: none; stroke: #800080"/>
    <path d="M 592.639759 184.647727 
L 592.639759 219.488636 
" clip-path="url(#p162d09a80c)" style="fill: none; stroke: #800080"/>
    <path d="M 592.9771 184.647727 
L 592.9771 219.488636 
" clip-path="url(#p162d09a80c)" style="fill: none; stroke: #800080"/>
    <path d="M 595.507156 184.647727 
L 595.507156 219.488636 
" clip-path="url(#p162d09a80c)" style="fill: none; stroke: #800080"/>
    <path d="M 597.236028 184.647727 
L 597.236028 219.488636 
" clip-path="url(#p162d09a80c)" style="fill: none; stroke: #800080"/>
    <path d="M 597.952878 184.647727 
L 597.952878 219.488636 
" clip-path="url(#p162d09a80c)" style="fill: none; stroke: #800080"/>
    <path d="M 618.256581 184.647727 
L 618.256581 219.488636 
" clip-path="url(#p162d09a80c)" style="fill: none; stroke: #800080"/>
    <path d="M 618.678257 184.647727 
L 618.678257 219.488636 
" clip-path="url(#p162d09a80c)" style="fill: none; stroke: #800080"/>
    <path d="M 635.798305 184.647727 
L 635.798305 219.488636 
" clip-path="url(#p162d09a80c)" style="fill: none; stroke: #800080"/>
    <path d="M 643.219804 184.647727 
L 643.219804 219.488636 
" clip-path="url(#p162d09a80c)" style="fill: none; stroke: #800080"/>
    <path d="M 643.620396 184.647727 
L 643.620396 219.488636 
" clip-path="url(#p162d09a80c)" style="fill: none; stroke: #800080"/>
    <path d="M 644.147491 184.647727 
L 644.147491 219.488636 
" clip-path="url(#p162d09a80c)" style="fill: none; stroke: #800080"/>
    <path d="M 644.96976 184.647727 
L 644.96976 219.488636 
" clip-path="url(#p162d09a80c)" style="fill: none; stroke: #800080"/>
    <path d="M 646.19262 184.647727 
L 646.19262 219.488636 
" clip-path="url(#p162d09a80c)" style="fill: none; stroke: #800080"/>
    <path d="M 885.810049 184.647727 
L 885.810049 219.488636 
" clip-path="url(#p162d09a80c)" style="fill: none; stroke: #800080"/>
    <path d="M 886.252809 184.647727 
L 886.252809 219.488636 
" clip-path="url(#p162d09a80c)" style="fill: none; stroke: #800080"/>
    <path d="M 902.086745 184.647727 
L 902.086745 219.488636 
" clip-path="url(#p162d09a80c)" style="fill: none; stroke: #800080"/>
    <path d="M 903.836701 184.647727 
L 903.836701 219.488636 
" clip-path="url(#p162d09a80c)" style="fill: none; stroke: #800080"/>
    <path d="M 905.544489 184.647727 
L 905.544489 219.488636 
" clip-path="url(#p162d09a80c)" style="fill: none; stroke: #800080"/>
    <path d="M 908.179964 184.647727 
L 908.179964 219.488636 
" clip-path="url(#p162d09a80c)" style="fill: none; stroke: #800080"/>
    <path d="M 908.643808 184.647727 
L 908.643808 219.488636 
" clip-path="url(#p162d09a80c)" style="fill: none; stroke: #800080"/>
   </g>
   <g id="line2d_10">
    <path d="M 88.568182 246.2 
L 88.568182 41.8 
" clip-path="url(#p162d09a80c)" style="fill: none; stroke-dasharray: 3.7,1.6; stroke-dashoffset: 0; stroke: #808080"/>
   </g>
   <g id="line2d_11">
    <path d="M 284.078293 246.2 
L 284.078293 41.8 
" clip-path="url(#p162d09a80c)" style="fill: none; stroke-dasharray: 3.7,1.6; stroke-dashoffset: 0; stroke: #808080"/>
   </g>
   <g id="line2d_12">
    <path d="M 364.344333 246.2 
L 364.344333 41.8 
" clip-path="url(#p162d09a80c)" style="fill: none; stroke-dasharray: 3.7,1.6; stroke-dashoffset: 0; stroke: #808080"/>
   </g>
   <g id="line2d_13">
    <path d="M 450.155414 246.2 
L 450.155414 41.8 
" clip-path="url(#p162d09a80c)" style="fill: none; stroke-dasharray: 3.7,1.6; stroke-dashoffset: 0; stroke: #808080"/>
   </g>
   <g id="line2d_14">
    <path d="M 647.057056 246.2 
L 647.057056 41.8 
" clip-path="url(#p162d09a80c)" style="fill: none; stroke-dasharray: 3.7,1.6; stroke-dashoffset: 0; stroke: #808080"/>
   </g>
   <g id="line2d_15">
    <path d="M 887.328083 246.2 
L 887.328083 41.8 
" clip-path="url(#p162d09a80c)" style="fill: none; stroke-dasharray: 3.7,1.6; stroke-dashoffset: 0; stroke: #808080"/>
   </g>
   <g id="line2d_16">
    <path d="M 939.36291 246.2 
L 939.36291 41.8 
" clip-path="url(#p162d09a80c)" style="fill: none; stroke-dasharray: 3.7,1.6; stroke-dashoffset: 0; stroke: #808080"/>
   </g>
   <g id="patch_3">
    <path d="M 45.3 246.2 
L 45.3 41.8 
" style="fill: none; stroke: #000000; stroke-width: 0.8; stroke-linejoin: miter; stroke-linecap: square"/>
   </g>
   <g id="patch_4">
    <path d="M 997.2 246.2 
L 997.2 41.8 
" style="fill: none; stroke: #000000; stroke-width: 0.8; stroke-linejoin: miter; stroke-linecap: square"/>
   </g>
   <g id="patch_5">
    <path d="M 45.3 246.2 
L 997.2 246.2 
" style="fill: none; stroke: #000000; stroke-width: 0.8; stroke-linejoin: miter; stroke-linecap: square"/>
   </g>
   <g id="patch_6">
    <path d="M 45.3 41.8 
L 997.2 41.8 
" style="fill: none; stroke: #000000; stroke-width: 0.8; stroke-linejoin: miter; stroke-linecap: square"/>
   </g>
   <g id="text_11">
    <!-- 10:40 -->
    <g style="fill: #808080" transform="translate(90.775682 80.125)rotate(-90)scale(0.08 -0.08)">
     <defs>
      <path id="DejaVuSans-3a" d="M 750 794 
L 1409 794 
L 1409 0 
L 750 0 
L 750 794 
z
M 750 3309 
L 1409 3309 
L 1409 2516 
L 750 2516 
L 750 3309 
z
" transform="scale(0.015625)"/>
     </defs>
     <use xlink:href="#DejaVuSans-31"/>
     <use xlink:href="#DejaVuSans-30" x="63.623047"/>
     <use xlink:href="#DejaVuSans-3a" x="127.246094"/>
     <use xlink:href="#DejaVuSans-34" x="160.9375"/>
     <use xlink:href="#DejaVuSans-30" x="224.560547"/>
    </g>
   </g>
   <g id="text_12">
    <!-- 90:60 -->
    <g style="fill: #808080" transform="translate(286.285793 80.125)rotate(-90)scale(0.08 -0.08)">
     <defs>
      <path id="DejaVuSans-39" d="M 703 97 
L 703 672 
Q 941 559 1184 500 
Q 1428 441 1663 441 
Q 2288 441 2617 861 
Q 2947 1281 2994 2138 
Q 2813 1869 2534 1725 
Q 2256 1581 1919 1581 
Q 1219 1581 811 2004 
Q 403 2428 403 3163 
Q 403 3881 828 4315 
Q 1253 4750 1959 4750 
Q 2769 4750 3195 4129 
Q 3622 3509 3622 2328 
Q 3622 1225 3098 567 
Q 2575 -91 1691 -91 
Q 1453 -91 1209 -44 
Q 966 3 703 97 
z
M 1959 2075 
Q 2384 2075 2632 2365 
Q 2881 2656 2881 3163 
Q 2881 3666 2632 3958 
Q 2384 4250 1959 4250 
Q 1534 4250 1286 3958 
Q 1038 3666 1038 3163 
Q 1038 2656 1286 2365 
Q 1534 2075 1959 2075 
z
" transform="scale(0.015625)"/>
     </defs>
     <use xlink:href="#DejaVuSans-39"/>
     <use xlink:href="#DejaVuSans-30" x="63.623047"/>
     <use xlink:href="#DejaVuSans-3a" x="127.246094"/>
     <use xlink:href="#DejaVuSans-36" x="160.9375"/>
     <use xlink:href="#DejaVuSans-30" x="224.560547"/>
    </g>
   </g>
   <g id="text_13">
    <!-- 35:65 -->
    <g style="fill: #808080" transform="translate(366.551833 80.125)rotate(-90)scale(0.08 -0.08)">
     <defs>
      <path id="DejaVuSans-35" d="M 691 4666 
L 3169 4666 
L 3169 4134 
L 1269 4134 
L 1269 2991 
Q 1406 3038 1543 3061 
Q 1681 3084 1819 3084 
Q 2600 3084 3056 2656 
Q 3513 2228 3513 1497 
Q 3513 744 3044 326 
Q 2575 -91 1722 -91 
Q 1428 -91 1123 -41 
Q 819 9 494 109 
L 494 744 
Q 775 591 1075 516 
Q 1375 441 1709 441 
Q 2250 441 2565 725 
Q 2881 1009 2881 1497 
Q 2881 1984 2565 2268 
Q 2250 2553 1709 2553 
Q 1456 2553 1204 2497 
Q 953 2441 691 2322 
L 691 4666 
z
" transform="scale(0.015625)"/>
     </defs>
     <use xlink:href="#DejaVuSans-33"/>
     <use xlink:href="#DejaVuSans-35" x="63.623047"/>
     <use xlink:href="#DejaVuSans-3a" x="127.246094"/>
     <use xlink:href="#DejaVuSans-36" x="160.9375"/>
     <use xlink:href="#DejaVuSans-35" x="224.560547"/>
    </g>
   </g>
   <g id="text_14">
    <!-- 10:40 -->
    <g style="fill: #808080" transform="translate(452.362914 80.125)rotate(-90)scale(0.08 -0.08)">
     <use xlink:href="#DejaVuSans-31"/>
     <use xlink:href="#DejaVuSans-30" x="63.623047"/>
     <use xlink:href="#DejaVuSans-3a" x="127.246094"/>
     <use xlink:href="#DejaVuSans-34" x="160.9375"/>
     <use xlink:href="#DejaVuSans-30" x="224.560547"/>
    </g>
   </g>
   <g id="text_15">
    <!-- 40:10 -->
    <g style="fill: #808080" transform="translate(649.264556 80.125)rotate(-90)scale(0.08 -0.08)">
     <use xlink:href="#DejaVuSans-34"/>
     <use xlink:href="#DejaVuSans-30" x="63.623047"/>
     <use xlink:href="#DejaVuSans-3a" x="127.246094"/>
     <use xlink:href="#DejaVuSans-31" x="160.9375"/>
     <use xlink:href="#DejaVuSans-30" x="224.560547"/>
    </g>
   </g>
   <g id="text_16">
    <!-- 65:35 -->
    <g style="fill: #808080" transform="translate(889.535583 80.125)rotate(-90)scale(0.08 -0.08)">
     <use xlink:href="#DejaVuSans-36"/>
     <use xlink:href="#DejaVuSans-35" x="63.623047"/>
     <use xlink:href="#DejaVuSans-3a" x="127.246094"/>
     <use xlink:href="#DejaVuSans-33" x="160.9375"/>
     <use xlink:href="#DejaVuSans-35" x="224.560547"/>
    </g>
   </g>
   <g id="text_17">
    <!-- 90:60 -->
    <g style="fill: #808080" transform="translate(941.57041 80.125)rotate(-90)scale(0.08 -0.08)">
     <use xlink:href="#DejaVuSans-39"/>
     <use xlink:href="#DejaVuSans-30" x="63.623047"/>
     <use xlink:href="#DejaVuSans-3a" x="127.246094"/>
     <use xlink:href="#DejaVuSans-36" x="160.9375"/>
     <use xlink:href="#DejaVuSans-30" x="224.560547"/>
    </g>
   </g>
   <g id="text_18">
    <!-- Bandit Task Events Over 12 Hours -->
    <g transform="translate(419.379375 22.362625)scale(0.12 -0.12)">
     <defs>
      <path id="DejaVuSans-42" d="M 1259 2228 
L 1259 519 
L 2272 519 
Q 2781 519 3026 730 
Q 3272 941 3272 1375 
Q 3272 1813 3026 2020 
Q 2781 2228 2272 2228 
L 1259 2228 
z
M 1259 4147 
L 1259 2741 
L 2194 2741 
Q 2656 2741 2882 2914 
Q 3109 3088 3109 3444 
Q 3109 3797 2882 3972 
Q 2656 4147 2194 4147 
L 1259 4147 
z
M 628 4666 
L 2241 4666 
Q 2963 4666 3353 4366 
Q 3744 4066 3744 3513 
Q 3744 3084 3544 2831 
Q 3344 2578 2956 2516 
Q 3422 2416 3680 2098 
Q 3938 1781 3938 1306 
Q 3938 681 3513 340 
Q 3088 0 2303 0 
L 628 0 
L 628 4666 
z
" transform="scale(0.015625)"/>
      <path id="DejaVuSans-61" d="M 2194 1759 
Q 1497 1759 1228 1600 
Q 959 1441 959 1056 
Q 959 750 1161 570 
Q 1363 391 1709 391 
Q 2188 391 2477 730 
Q 2766 1069 2766 1631 
L 2766 1759 
L 2194 1759 
z
M 3341 1997 
L 3341 0 
L 2766 0 
L 2766 531 
Q 2569 213 2275 61 
Q 1981 -91 1556 -91 
Q 1019 -91 701 211 
Q 384 513 384 1019 
Q 384 1609 779 1909 
Q 1175 2209 1959 2209 
L 2766 2209 
L 2766 2266 
Q 2766 2663 2505 2880 
Q 2244 3097 1772 3097 
Q 1472 3097 1187 3025 
Q 903 2953 641 2809 
L 641 3341 
Q 956 3463 1253 3523 
Q 1550 3584 1831 3584 
Q 2591 3584 2966 3190 
Q 3341 2797 3341 1997 
z
" transform="scale(0.015625)"/>
      <path id="DejaVuSans-6e" d="M 3513 2113 
L 3513 0 
L 2938 0 
L 2938 2094 
Q 2938 2591 2744 2837 
Q 2550 3084 2163 3084 
Q 1697 3084 1428 2787 
Q 1159 2491 1159 1978 
L 1159 0 
L 581 0 
L 581 3500 
L 1159 3500 
L 1159 2956 
Q 1366 3272 1645 3428 
Q 1925 3584 2291 3584 
Q 2894 3584 3203 3211 
Q 3513 2838 3513 2113 
z
" transform="scale(0.015625)"/>
      <path id="DejaVuSans-64" d="M 2906 2969 
L 2906 4863 
L 3481 4863 
L 3481 0 
L 2906 0 
L 2906 525 
Q 2725 213 2448 61 
Q 2172 -91 1784 -91 
Q 1150 -91 751 415 
Q 353 922 353 1747 
Q 353 2572 751 3078 
Q 1150 3584 1784 3584 
Q 2172 3584 2448 3432 
Q 2725 3281 2906 2969 
z
M 947 1747 
Q 947 1113 1208 752 
Q 1469 391 1925 391 
Q 2381 391 2643 752 
Q 2906 1113 2906 1747 
Q 2906 2381 2643 2742 
Q 2381 3103 1925 3103 
Q 1469 3103 1208 2742 
Q 947 2381 947 1747 
z
" transform="scale(0.015625)"/>
      <path id="DejaVuSans-73" d="M 2834 3397 
L 2834 2853 
Q 2591 2978 2328 3040 
Q 2066 3103 1784 3103 
Q 1356 3103 1142 2972 
Q 928 2841 928 2578 
Q 928 2378 1081 2264 
Q 1234 2150 1697 2047 
L 1894 2003 
Q 2506 1872 2764 1633 
Q 3022 1394 3022 966 
Q 3022 478 2636 193 
Q 2250 -91 1575 -91 
Q 1294 -91 989 -36 
Q 684 19 347 128 
L 347 722 
Q 666 556 975 473 
Q 1284 391 1588 391 
Q 1994 391 2212 530 
Q 2431 669 2431 922 
Q 2431 1156 2273 1281 
Q 2116 1406 1581 1522 
L 1381 1569 
Q 847 1681 609 1914 
Q 372 2147 372 2553 
Q 372 3047 722 3315 
Q 1072 3584 1716 3584 
Q 2034 3584 2315 3537 
Q 2597 3491 2834 3397 
z
" transform="scale(0.015625)"/>
      <path id="DejaVuSans-6b" d="M 581 4863 
L 1159 4863 
L 1159 1991 
L 2875 3500 
L 3609 3500 
L 1753 1863 
L 3688 0 
L 2938 0 
L 1159 1709 
L 1159 0 
L 581 0 
L 581 4863 
z
" transform="scale(0.015625)"/>
      <path id="DejaVuSans-45" d="M 628 4666 
L 3578 4666 
L 3578 4134 
L 1259 4134 
L 1259 2753 
L 3481 2753 
L 3481 2222 
L 1259 2222 
L 1259 531 
L 3634 531 
L 3634 0 
L 628 0 
L 628 4666 
z
" transform="scale(0.015625)"/>
      <path id="DejaVuSans-76" d="M 191 3500 
L 800 3500 
L 1894 563 
L 2988 3500 
L 3597 3500 
L 2284 0 
L 1503 0 
L 191 3500 
z
" transform="scale(0.015625)"/>
      <path id="DejaVuSans-4f" d="M 2522 4238 
Q 1834 4238 1429 3725 
Q 1025 3213 1025 2328 
Q 1025 1447 1429 934 
Q 1834 422 2522 422 
Q 3209 422 3611 934 
Q 4013 1447 4013 2328 
Q 4013 3213 3611 3725 
Q 3209 4238 2522 4238 
z
M 2522 4750 
Q 3503 4750 4090 4092 
Q 4678 3434 4678 2328 
Q 4678 1225 4090 567 
Q 3503 -91 2522 -91 
Q 1538 -91 948 565 
Q 359 1222 359 2328 
Q 359 3434 948 4092 
Q 1538 4750 2522 4750 
z
" transform="scale(0.015625)"/>
      <path id="DejaVuSans-72" d="M 2631 2963 
Q 2534 3019 2420 3045 
Q 2306 3072 2169 3072 
Q 1681 3072 1420 2755 
Q 1159 2438 1159 1844 
L 1159 0 
L 581 0 
L 581 3500 
L 1159 3500 
L 1159 2956 
Q 1341 3275 1631 3429 
Q 1922 3584 2338 3584 
Q 2397 3584 2469 3576 
Q 2541 3569 2628 3553 
L 2631 2963 
z
" transform="scale(0.015625)"/>
      <path id="DejaVuSans-48" d="M 628 4666 
L 1259 4666 
L 1259 2753 
L 3553 2753 
L 3553 4666 
L 4184 4666 
L 4184 0 
L 3553 0 
L 3553 2222 
L 1259 2222 
L 1259 0 
L 628 0 
L 628 4666 
z
" transform="scale(0.015625)"/>
      <path id="DejaVuSans-6f" d="M 1959 3097 
Q 1497 3097 1228 2736 
Q 959 2375 959 1747 
Q 959 1119 1226 758 
Q 1494 397 1959 397 
Q 2419 397 2687 759 
Q 2956 1122 2956 1747 
Q 2956 2369 2687 2733 
Q 2419 3097 1959 3097 
z
M 1959 3584 
Q 2709 3584 3137 3096 
Q 3566 2609 3566 1747 
Q 3566 888 3137 398 
Q 2709 -91 1959 -91 
Q 1206 -91 779 398 
Q 353 888 353 1747 
Q 353 2609 779 3096 
Q 1206 3584 1959 3584 
z
" transform="scale(0.015625)"/>
      <path id="DejaVuSans-75" d="M 544 1381 
L 544 3500 
L 1119 3500 
L 1119 1403 
Q 1119 906 1312 657 
Q 1506 409 1894 409 
Q 2359 409 2629 706 
Q 2900 1003 2900 1516 
L 2900 3500 
L 3475 3500 
L 3475 0 
L 2900 0 
L 2900 538 
Q 2691 219 2414 64 
Q 2138 -91 1772 -91 
Q 1169 -91 856 284 
Q 544 659 544 1381 
z
M 1991 3584 
L 1991 3584 
z
" transform="scale(0.015625)"/>
     </defs>
     <use xlink:href="#DejaVuSans-42"/>
     <use xlink:href="#DejaVuSans-61" x="68.603516"/>
     <use xlink:href="#DejaVuSans-6e" x="129.882812"/>
     <use xlink:href="#DejaVuSans-64" x="193.261719"/>
     <use xlink:href="#DejaVuSans-69" x="256.738281"/>
     <use xlink:href="#DejaVuSans-74" x="284.521484"/>
     <use xlink:href="#DejaVuSans-20" x="323.730469"/>
     <use xlink:href="#DejaVuSans-54" x="355.517578"/>
     <use xlink:href="#DejaVuSans-61" x="400.101562"/>
     <use xlink:href="#DejaVuSans-73" x="461.380859"/>
     <use xlink:href="#DejaVuSans-6b" x="513.480469"/>
     <use xlink:href="#DejaVuSans-20" x="571.390625"/>
     <use xlink:href="#DejaVuSans-45" x="603.177734"/>
     <use xlink:href="#DejaVuSans-76" x="666.361328"/>
     <use xlink:href="#DejaVuSans-65" x="725.541016"/>
     <use xlink:href="#DejaVuSans-6e" x="787.064453"/>
     <use xlink:href="#DejaVuSans-74" x="850.443359"/>
     <use xlink:href="#DejaVuSans-73" x="889.652344"/>
     <use xlink:href="#DejaVuSans-20" x="941.751953"/>
     <use xlink:href="#DejaVuSans-4f" x="973.539062"/>
     <use xlink:href="#DejaVuSans-76" x="1052.25"/>
     <use xlink:href="#DejaVuSans-65" x="1111.429688"/>
     <use xlink:href="#DejaVuSans-72" x="1172.953125"/>
     <use xlink:href="#DejaVuSans-20" x="1214.066406"/>
     <use xlink:href="#DejaVuSans-31" x="1245.853516"/>
     <use xlink:href="#DejaVuSans-32" x="1309.476562"/>
     <use xlink:href="#DejaVuSans-20" x="1373.099609"/>
     <use xlink:href="#DejaVuSans-48" x="1404.886719"/>
     <use xlink:href="#DejaVuSans-6f" x="1480.082031"/>
     <use xlink:href="#DejaVuSans-75" x="1541.263672"/>
     <use xlink:href="#DejaVuSans-72" x="1604.642578"/>
     <use xlink:href="#DejaVuSans-73" x="1645.755859"/>
    </g>
    <!-- (With Block Switch Markers) -->
    <g transform="translate(437.3025 35.8)scale(0.12 -0.12)">
     <defs>
      <path id="DejaVuSans-28" d="M 1984 4856 
Q 1566 4138 1362 3434 
Q 1159 2731 1159 2009 
Q 1159 1288 1364 580 
Q 1569 -128 1984 -844 
L 1484 -844 
Q 1016 -109 783 600 
Q 550 1309 550 2009 
Q 550 2706 781 3412 
Q 1013 4119 1484 4856 
L 1984 4856 
z
" transform="scale(0.015625)"/>
      <path id="DejaVuSans-57" d="M 213 4666 
L 850 4666 
L 1831 722 
L 2809 4666 
L 3519 4666 
L 4500 722 
L 5478 4666 
L 6119 4666 
L 4947 0 
L 4153 0 
L 3169 4050 
L 2175 0 
L 1381 0 
L 213 4666 
z
" transform="scale(0.015625)"/>
      <path id="DejaVuSans-63" d="M 3122 3366 
L 3122 2828 
Q 2878 2963 2633 3030 
Q 2388 3097 2138 3097 
Q 1578 3097 1268 2742 
Q 959 2388 959 1747 
Q 959 1106 1268 751 
Q 1578 397 2138 397 
Q 2388 397 2633 464 
Q 2878 531 3122 666 
L 3122 134 
Q 2881 22 2623 -34 
Q 2366 -91 2075 -91 
Q 1284 -91 818 406 
Q 353 903 353 1747 
Q 353 2603 823 3093 
Q 1294 3584 2113 3584 
Q 2378 3584 2631 3529 
Q 2884 3475 3122 3366 
z
" transform="scale(0.015625)"/>
      <path id="DejaVuSans-53" d="M 3425 4513 
L 3425 3897 
Q 3066 4069 2747 4153 
Q 2428 4238 2131 4238 
Q 1616 4238 1336 4038 
Q 1056 3838 1056 3469 
Q 1056 3159 1242 3001 
Q 1428 2844 1947 2747 
L 2328 2669 
Q 3034 2534 3370 2195 
Q 3706 1856 3706 1288 
Q 3706 609 3251 259 
Q 2797 -91 1919 -91 
Q 1588 -91 1214 -16 
Q 841 59 441 206 
L 441 856 
Q 825 641 1194 531 
Q 1563 422 1919 422 
Q 2459 422 2753 634 
Q 3047 847 3047 1241 
Q 3047 1584 2836 1778 
Q 2625 1972 2144 2069 
L 1759 2144 
Q 1053 2284 737 2584 
Q 422 2884 422 3419 
Q 422 4038 858 4394 
Q 1294 4750 2059 4750 
Q 2388 4750 2728 4690 
Q 3069 4631 3425 4513 
z
" transform="scale(0.015625)"/>
      <path id="DejaVuSans-77" d="M 269 3500 
L 844 3500 
L 1563 769 
L 2278 3500 
L 2956 3500 
L 3675 769 
L 4391 3500 
L 4966 3500 
L 4050 0 
L 3372 0 
L 2619 2869 
L 1863 0 
L 1184 0 
L 269 3500 
z
" transform="scale(0.015625)"/>
      <path id="DejaVuSans-4d" d="M 628 4666 
L 1569 4666 
L 2759 1491 
L 3956 4666 
L 4897 4666 
L 4897 0 
L 4281 0 
L 4281 4097 
L 3078 897 
L 2444 897 
L 1241 4097 
L 1241 0 
L 628 0 
L 628 4666 
z
" transform="scale(0.015625)"/>
      <path id="DejaVuSans-29" d="M 513 4856 
L 1013 4856 
Q 1481 4119 1714 3412 
Q 1947 2706 1947 2009 
Q 1947 1309 1714 600 
Q 1481 -109 1013 -844 
L 513 -844 
Q 928 -128 1133 580 
Q 1338 1288 1338 2009 
Q 1338 2731 1133 3434 
Q 928 4138 513 4856 
z
" transform="scale(0.015625)"/>
     </defs>
     <use xlink:href="#DejaVuSans-28"/>
     <use xlink:href="#DejaVuSans-57" x="39.013672"/>
     <use xlink:href="#DejaVuSans-69" x="135.640625"/>
     <use xlink:href="#DejaVuSans-74" x="163.423828"/>
     <use xlink:href="#DejaVuSans-68" x="202.632812"/>
     <use xlink:href="#DejaVuSans-20" x="266.011719"/>
     <use xlink:href="#DejaVuSans-42" x="297.798828"/>
     <use xlink:href="#DejaVuSans-6c" x="366.402344"/>
     <use xlink:href="#DejaVuSans-6f" x="394.185547"/>
     <use xlink:href="#DejaVuSans-63" x="455.367188"/>
     <use xlink:href="#DejaVuSans-6b" x="510.347656"/>
     <use xlink:href="#DejaVuSans-20" x="568.257812"/>
     <use xlink:href="#DejaVuSans-53" x="600.044922"/>
     <use xlink:href="#DejaVuSans-77" x="663.521484"/>
     <use xlink:href="#DejaVuSans-69" x="745.308594"/>
     <use xlink:href="#DejaVuSans-74" x="773.091797"/>
     <use xlink:href="#DejaVuSans-63" x="812.300781"/>
     <use xlink:href="#DejaVuSans-68" x="867.28125"/>
     <use xlink:href="#DejaVuSans-20" x="930.660156"/>
     <use xlink:href="#DejaVuSans-4d" x="962.447266"/>
     <use xlink:href="#DejaVuSans-61" x="1048.726562"/>
     <use xlink:href="#DejaVuSans-72" x="1110.005859"/>
     <use xlink:href="#DejaVuSans-6b" x="1151.119141"/>
     <use xlink:href="#DejaVuSans-65" x="1205.404297"/>
     <use xlink:href="#DejaVuSans-72" x="1266.927734"/>
     <use xlink:href="#DejaVuSans-73" x="1308.041016"/>
     <use xlink:href="#DejaVuSans-29" x="1360.140625"/>
    </g>
   </g>
  </g>
 </g>
 <defs>
  <clipPath id="p162d09a80c">
   <rect x="45.3" y="41.8" width="951.9" height="204.4"/>
  </clipPath>
 </defs>
</svg>
