<?xml version="1.0" encoding="utf-8" standalone="no"?>
<!DOCTYPE svg PUBLIC "-//W3C//DTD SVG 1.1//EN"
  "http://www.w3.org/Graphics/SVG/1.1/DTD/svg11.dtd">
<svg xmlns:xlink="http://www.w3.org/1999/xlink" width="1008pt" height="288pt" viewBox="0 0 1008 288" xmlns="http://www.w3.org/2000/svg" version="1.1">
 <metadata>
  <rdf:RDF xmlns:dc="http://purl.org/dc/elements/1.1/" xmlns:cc="http://creativecommons.org/ns#" xmlns:rdf="http://www.w3.org/1999/02/22-rdf-syntax-ns#">
   <cc:Work>
    <dc:type rdf:resource="http://purl.org/dc/dcmitype/StillImage"/>
    <dc:date>2025-08-05T22:51:30.524593</dc:date>
    <dc:format>image/svg+xml</dc:format>
    <dc:creator>
     <cc:Agent>
      <dc:title>Matplotlib v3.5.1, https://matplotlib.org/</dc:title>
     </cc:Agent>
    </dc:creator>
   </cc:Work>
  </rdf:RDF>
 </metadata>
 <defs>
  <style type="text/css">*{stroke-linejoin: round; stroke-linecap: butt}</style>
 </defs>
 <g id="figure_1">
  <g id="patch_1">
   <path d="M 0 288 
L 1008 288 
L 1008 0 
L 0 0 
z
" style="fill: #ffffff"/>
  </g>
  <g id="axes_1">
   <g id="patch_2">
    <path d="M 45.3 246.2 
L 997.2 246.2 
L 997.2 41.8 
L 45.3 41.8 
z
" style="fill: #ffffff"/>
   </g>
   <g id="matplotlib.axis_1">
    <g id="xtick_1">
     <g id="line2d_1">
      <defs>
       <path id="m54a9459465" d="M 0 0 
L 0 3.5 
" style="stroke: #000000; stroke-width: 0.8"/>
      </defs>
      <g>
       <use xlink:href="#m54a9459465" x="159.049741" y="246.2" style="stroke: #000000; stroke-width: 0.8"/>
      </g>
     </g>
     <g id="text_1">
      <!-- 10-12 20 -->
      <g transform="translate(136.569272 260.798437)scale(0.1 -0.1)">
       <defs>
        <path id="DejaVuSans-31" d="M 794 531 
L 1825 531 
L 1825 4091 
L 703 3866 
L 703 4441 
L 1819 4666 
L 2450 4666 
L 2450 531 
L 3481 531 
L 3481 0 
L 794 0 
L 794 531 
z
" transform="scale(0.015625)"/>
        <path id="DejaVuSans-30" d="M 2034 4250 
Q 1547 4250 1301 3770 
Q 1056 3291 1056 2328 
Q 1056 1369 1301 889 
Q 1547 409 2034 409 
Q 2525 409 2770 889 
Q 3016 1369 3016 2328 
Q 3016 3291 2770 3770 
Q 2525 4250 2034 4250 
z
M 2034 4750 
Q 2819 4750 3233 4129 
Q 3647 3509 3647 2328 
Q 3647 1150 3233 529 
Q 2819 -91 2034 -91 
Q 1250 -91 836 529 
Q 422 1150 422 2328 
Q 422 3509 836 4129 
Q 1250 4750 2034 4750 
z
" transform="scale(0.015625)"/>
        <path id="DejaVuSans-2d" d="M 313 2009 
L 1997 2009 
L 1997 1497 
L 313 1497 
L 313 2009 
z
" transform="scale(0.015625)"/>
        <path id="DejaVuSans-32" d="M 1228 531 
L 3431 531 
L 3431 0 
L 469 0 
L 469 531 
Q 828 903 1448 1529 
Q 2069 2156 2228 2338 
Q 2531 2678 2651 2914 
Q 2772 3150 2772 3378 
Q 2772 3750 2511 3984 
Q 2250 4219 1831 4219 
Q 1534 4219 1204 4116 
Q 875 4013 500 3803 
L 500 4441 
Q 881 4594 1212 4672 
Q 1544 4750 1819 4750 
Q 2544 4750 2975 4387 
Q 3406 4025 3406 3419 
Q 3406 3131 3298 2873 
Q 3191 2616 2906 2266 
Q 2828 2175 2409 1742 
Q 1991 1309 1228 531 
z
" transform="scale(0.015625)"/>
        <path id="DejaVuSans-20" transform="scale(0.015625)"/>
       </defs>
       <use xlink:href="#DejaVuSans-31"/>
       <use xlink:href="#DejaVuSans-30" x="63.623047"/>
       <use xlink:href="#DejaVuSans-2d" x="127.246094"/>
       <use xlink:href="#DejaVuSans-31" x="163.330078"/>
       <use xlink:href="#DejaVuSans-32" x="226.953125"/>
       <use xlink:href="#DejaVuSans-20" x="290.576172"/>
       <use xlink:href="#DejaVuSans-32" x="322.363281"/>
       <use xlink:href="#DejaVuSans-30" x="385.986328"/>
      </g>
     </g>
    </g>
    <g id="xtick_2">
     <g id="line2d_2">
      <g>
       <use xlink:href="#m54a9459465" x="304.123276" y="246.2" style="stroke: #000000; stroke-width: 0.8"/>
      </g>
     </g>
     <g id="text_2">
      <!-- 10-12 22 -->
      <g transform="translate(281.642807 260.798437)scale(0.1 -0.1)">
       <use xlink:href="#DejaVuSans-31"/>
       <use xlink:href="#DejaVuSans-30" x="63.623047"/>
       <use xlink:href="#DejaVuSans-2d" x="127.246094"/>
       <use xlink:href="#DejaVuSans-31" x="163.330078"/>
       <use xlink:href="#DejaVuSans-32" x="226.953125"/>
       <use xlink:href="#DejaVuSans-20" x="290.576172"/>
       <use xlink:href="#DejaVuSans-32" x="322.363281"/>
       <use xlink:href="#DejaVuSans-32" x="385.986328"/>
      </g>
     </g>
    </g>
    <g id="xtick_3">
     <g id="line2d_3">
      <g>
       <use xlink:href="#m54a9459465" x="449.196811" y="246.2" style="stroke: #000000; stroke-width: 0.8"/>
      </g>
     </g>
     <g id="text_3">
      <!-- 10-13 00 -->
      <g transform="translate(426.716342 260.798437)scale(0.1 -0.1)">
       <defs>
        <path id="DejaVuSans-33" d="M 2597 2516 
Q 3050 2419 3304 2112 
Q 3559 1806 3559 1356 
Q 3559 666 3084 287 
Q 2609 -91 1734 -91 
Q 1441 -91 1130 -33 
Q 819 25 488 141 
L 488 750 
Q 750 597 1062 519 
Q 1375 441 1716 441 
Q 2309 441 2620 675 
Q 2931 909 2931 1356 
Q 2931 1769 2642 2001 
Q 2353 2234 1838 2234 
L 1294 2234 
L 1294 2753 
L 1863 2753 
Q 2328 2753 2575 2939 
Q 2822 3125 2822 3475 
Q 2822 3834 2567 4026 
Q 2313 4219 1838 4219 
Q 1578 4219 1281 4162 
Q 984 4106 628 3988 
L 628 4550 
Q 988 4650 1302 4700 
Q 1616 4750 1894 4750 
Q 2613 4750 3031 4423 
Q 3450 4097 3450 3541 
Q 3450 3153 3228 2886 
Q 3006 2619 2597 2516 
z
" transform="scale(0.015625)"/>
       </defs>
       <use xlink:href="#DejaVuSans-31"/>
       <use xlink:href="#DejaVuSans-30" x="63.623047"/>
       <use xlink:href="#DejaVuSans-2d" x="127.246094"/>
       <use xlink:href="#DejaVuSans-31" x="163.330078"/>
       <use xlink:href="#DejaVuSans-33" x="226.953125"/>
       <use xlink:href="#DejaVuSans-20" x="290.576172"/>
       <use xlink:href="#DejaVuSans-30" x="322.363281"/>
       <use xlink:href="#DejaVuSans-30" x="385.986328"/>
      </g>
     </g>
    </g>
    <g id="xtick_4">
     <g id="line2d_4">
      <g>
       <use xlink:href="#m54a9459465" x="594.270346" y="246.2" style="stroke: #000000; stroke-width: 0.8"/>
      </g>
     </g>
     <g id="text_4">
      <!-- 10-13 02 -->
      <g transform="translate(571.789877 260.798437)scale(0.1 -0.1)">
       <use xlink:href="#DejaVuSans-31"/>
       <use xlink:href="#DejaVuSans-30" x="63.623047"/>
       <use xlink:href="#DejaVuSans-2d" x="127.246094"/>
       <use xlink:href="#DejaVuSans-31" x="163.330078"/>
       <use xlink:href="#DejaVuSans-33" x="226.953125"/>
       <use xlink:href="#DejaVuSans-20" x="290.576172"/>
       <use xlink:href="#DejaVuSans-30" x="322.363281"/>
       <use xlink:href="#DejaVuSans-32" x="385.986328"/>
      </g>
     </g>
    </g>
    <g id="xtick_5">
     <g id="line2d_5">
      <g>
       <use xlink:href="#m54a9459465" x="739.343881" y="246.2" style="stroke: #000000; stroke-width: 0.8"/>
      </g>
     </g>
     <g id="text_5">
      <!-- 10-13 04 -->
      <g transform="translate(716.863412 260.798437)scale(0.1 -0.1)">
       <defs>
        <path id="DejaVuSans-34" d="M 2419 4116 
L 825 1625 
L 2419 1625 
L 2419 4116 
z
M 2253 4666 
L 3047 4666 
L 3047 1625 
L 3713 1625 
L 3713 1100 
L 3047 1100 
L 3047 0 
L 2419 0 
L 2419 1100 
L 313 1100 
L 313 1709 
L 2253 4666 
z
" transform="scale(0.015625)"/>
       </defs>
       <use xlink:href="#DejaVuSans-31"/>
       <use xlink:href="#DejaVuSans-30" x="63.623047"/>
       <use xlink:href="#DejaVuSans-2d" x="127.246094"/>
       <use xlink:href="#DejaVuSans-31" x="163.330078"/>
       <use xlink:href="#DejaVuSans-33" x="226.953125"/>
       <use xlink:href="#DejaVuSans-20" x="290.576172"/>
       <use xlink:href="#DejaVuSans-30" x="322.363281"/>
       <use xlink:href="#DejaVuSans-34" x="385.986328"/>
      </g>
     </g>
    </g>
    <g id="xtick_6">
     <g id="line2d_6">
      <g>
       <use xlink:href="#m54a9459465" x="884.417416" y="246.2" style="stroke: #000000; stroke-width: 0.8"/>
      </g>
     </g>
     <g id="text_6">
      <!-- 10-13 06 -->
      <g transform="translate(861.936947 260.798437)scale(0.1 -0.1)">
       <defs>
        <path id="DejaVuSans-36" d="M 2113 2584 
Q 1688 2584 1439 2293 
Q 1191 2003 1191 1497 
Q 1191 994 1439 701 
Q 1688 409 2113 409 
Q 2538 409 2786 701 
Q 3034 994 3034 1497 
Q 3034 2003 2786 2293 
Q 2538 2584 2113 2584 
z
M 3366 4563 
L 3366 3988 
Q 3128 4100 2886 4159 
Q 2644 4219 2406 4219 
Q 1781 4219 1451 3797 
Q 1122 3375 1075 2522 
Q 1259 2794 1537 2939 
Q 1816 3084 2150 3084 
Q 2853 3084 3261 2657 
Q 3669 2231 3669 1497 
Q 3669 778 3244 343 
Q 2819 -91 2113 -91 
Q 1303 -91 875 529 
Q 447 1150 447 2328 
Q 447 3434 972 4092 
Q 1497 4750 2381 4750 
Q 2619 4750 2861 4703 
Q 3103 4656 3366 4563 
z
" transform="scale(0.015625)"/>
       </defs>
       <use xlink:href="#DejaVuSans-31"/>
       <use xlink:href="#DejaVuSans-30" x="63.623047"/>
       <use xlink:href="#DejaVuSans-2d" x="127.246094"/>
       <use xlink:href="#DejaVuSans-31" x="163.330078"/>
       <use xlink:href="#DejaVuSans-33" x="226.953125"/>
       <use xlink:href="#DejaVuSans-20" x="290.576172"/>
       <use xlink:href="#DejaVuSans-30" x="322.363281"/>
       <use xlink:href="#DejaVuSans-36" x="385.986328"/>
      </g>
     </g>
    </g>
    <g id="text_7">
     <!-- Time -->
     <g transform="translate(509.016406 274.476562)scale(0.1 -0.1)">
      <defs>
       <path id="DejaVuSans-54" d="M -19 4666 
L 3928 4666 
L 3928 4134 
L 2272 4134 
L 2272 0 
L 1638 0 
L 1638 4134 
L -19 4134 
L -19 4666 
z
" transform="scale(0.015625)"/>
       <path id="DejaVuSans-69" d="M 603 3500 
L 1178 3500 
L 1178 0 
L 603 0 
L 603 3500 
z
M 603 4863 
L 1178 4863 
L 1178 4134 
L 603 4134 
L 603 4863 
z
" transform="scale(0.015625)"/>
       <path id="DejaVuSans-6d" d="M 3328 2828 
Q 3544 3216 3844 3400 
Q 4144 3584 4550 3584 
Q 5097 3584 5394 3201 
Q 5691 2819 5691 2113 
L 5691 0 
L 5113 0 
L 5113 2094 
Q 5113 2597 4934 2840 
Q 4756 3084 4391 3084 
Q 3944 3084 3684 2787 
Q 3425 2491 3425 1978 
L 3425 0 
L 2847 0 
L 2847 2094 
Q 2847 2600 2669 2842 
Q 2491 3084 2119 3084 
Q 1678 3084 1418 2786 
Q 1159 2488 1159 1978 
L 1159 0 
L 581 0 
L 581 3500 
L 1159 3500 
L 1159 2956 
Q 1356 3278 1631 3431 
Q 1906 3584 2284 3584 
Q 2666 3584 2933 3390 
Q 3200 3197 3328 2828 
z
" transform="scale(0.015625)"/>
       <path id="DejaVuSans-65" d="M 3597 1894 
L 3597 1613 
L 953 1613 
Q 991 1019 1311 708 
Q 1631 397 2203 397 
Q 2534 397 2845 478 
Q 3156 559 3463 722 
L 3463 178 
Q 3153 47 2828 -22 
Q 2503 -91 2169 -91 
Q 1331 -91 842 396 
Q 353 884 353 1716 
Q 353 2575 817 3079 
Q 1281 3584 2069 3584 
Q 2775 3584 3186 3129 
Q 3597 2675 3597 1894 
z
M 3022 2063 
Q 3016 2534 2758 2815 
Q 2500 3097 2075 3097 
Q 1594 3097 1305 2825 
Q 1016 2553 972 2059 
L 3022 2063 
z
" transform="scale(0.015625)"/>
      </defs>
      <use xlink:href="#DejaVuSans-54"/>
      <use xlink:href="#DejaVuSans-69" x="57.958984"/>
      <use xlink:href="#DejaVuSans-6d" x="85.742188"/>
      <use xlink:href="#DejaVuSans-65" x="183.154297"/>
     </g>
    </g>
   </g>
   <g id="matplotlib.axis_2">
    <g id="ytick_1">
     <g id="line2d_7">
      <defs>
       <path id="m1d29ce8dde" d="M 0 0 
L -3.5 0 
" style="stroke: #000000; stroke-width: 0.8"/>
      </defs>
      <g>
       <use xlink:href="#m1d29ce8dde" x="45.3" y="202.068182" style="stroke: #000000; stroke-width: 0.8"/>
      </g>
     </g>
     <g id="text_8">
      <!-- Right -->
      <g transform="translate(11.967188 205.867401)scale(0.1 -0.1)">
       <defs>
        <path id="DejaVuSans-52" d="M 2841 2188 
Q 3044 2119 3236 1894 
Q 3428 1669 3622 1275 
L 4263 0 
L 3584 0 
L 2988 1197 
Q 2756 1666 2539 1819 
Q 2322 1972 1947 1972 
L 1259 1972 
L 1259 0 
L 628 0 
L 628 4666 
L 2053 4666 
Q 2853 4666 3247 4331 
Q 3641 3997 3641 3322 
Q 3641 2881 3436 2590 
Q 3231 2300 2841 2188 
z
M 1259 4147 
L 1259 2491 
L 2053 2491 
Q 2509 2491 2742 2702 
Q 2975 2913 2975 3322 
Q 2975 3731 2742 3939 
Q 2509 4147 2053 4147 
L 1259 4147 
z
" transform="scale(0.015625)"/>
        <path id="DejaVuSans-67" d="M 2906 1791 
Q 2906 2416 2648 2759 
Q 2391 3103 1925 3103 
Q 1463 3103 1205 2759 
Q 947 2416 947 1791 
Q 947 1169 1205 825 
Q 1463 481 1925 481 
Q 2391 481 2648 825 
Q 2906 1169 2906 1791 
z
M 3481 434 
Q 3481 -459 3084 -895 
Q 2688 -1331 1869 -1331 
Q 1566 -1331 1297 -1286 
Q 1028 -1241 775 -1147 
L 775 -588 
Q 1028 -725 1275 -790 
Q 1522 -856 1778 -856 
Q 2344 -856 2625 -561 
Q 2906 -266 2906 331 
L 2906 616 
Q 2728 306 2450 153 
Q 2172 0 1784 0 
Q 1141 0 747 490 
Q 353 981 353 1791 
Q 353 2603 747 3093 
Q 1141 3584 1784 3584 
Q 2172 3584 2450 3431 
Q 2728 3278 2906 2969 
L 2906 3500 
L 3481 3500 
L 3481 434 
z
" transform="scale(0.015625)"/>
        <path id="DejaVuSans-68" d="M 3513 2113 
L 3513 0 
L 2938 0 
L 2938 2094 
Q 2938 2591 2744 2837 
Q 2550 3084 2163 3084 
Q 1697 3084 1428 2787 
Q 1159 2491 1159 1978 
L 1159 0 
L 581 0 
L 581 4863 
L 1159 4863 
L 1159 2956 
Q 1366 3272 1645 3428 
Q 1925 3584 2291 3584 
Q 2894 3584 3203 3211 
Q 3513 2838 3513 2113 
z
" transform="scale(0.015625)"/>
        <path id="DejaVuSans-74" d="M 1172 4494 
L 1172 3500 
L 2356 3500 
L 2356 3053 
L 1172 3053 
L 1172 1153 
Q 1172 725 1289 603 
Q 1406 481 1766 481 
L 2356 481 
L 2356 0 
L 1766 0 
Q 1100 0 847 248 
Q 594 497 594 1153 
L 594 3053 
L 172 3053 
L 172 3500 
L 594 3500 
L 594 4494 
L 1172 4494 
z
" transform="scale(0.015625)"/>
       </defs>
       <use xlink:href="#DejaVuSans-52"/>
       <use xlink:href="#DejaVuSans-69" x="69.482422"/>
       <use xlink:href="#DejaVuSans-67" x="97.265625"/>
       <use xlink:href="#DejaVuSans-68" x="160.742188"/>
       <use xlink:href="#DejaVuSans-74" x="224.121094"/>
      </g>
     </g>
    </g>
    <g id="ytick_2">
     <g id="line2d_8">
      <g>
       <use xlink:href="#m1d29ce8dde" x="45.3" y="144" style="stroke: #000000; stroke-width: 0.8"/>
      </g>
     </g>
     <g id="text_9">
      <!-- Left -->
      <g transform="translate(19.484375 147.799219)scale(0.1 -0.1)">
       <defs>
        <path id="DejaVuSans-4c" d="M 628 4666 
L 1259 4666 
L 1259 531 
L 3531 531 
L 3531 0 
L 628 0 
L 628 4666 
z
" transform="scale(0.015625)"/>
        <path id="DejaVuSans-66" d="M 2375 4863 
L 2375 4384 
L 1825 4384 
Q 1516 4384 1395 4259 
Q 1275 4134 1275 3809 
L 1275 3500 
L 2222 3500 
L 2222 3053 
L 1275 3053 
L 1275 0 
L 697 0 
L 697 3053 
L 147 3053 
L 147 3500 
L 697 3500 
L 697 3744 
Q 697 4328 969 4595 
Q 1241 4863 1831 4863 
L 2375 4863 
z
" transform="scale(0.015625)"/>
       </defs>
       <use xlink:href="#DejaVuSans-4c"/>
       <use xlink:href="#DejaVuSans-65" x="53.962891"/>
       <use xlink:href="#DejaVuSans-66" x="115.486328"/>
       <use xlink:href="#DejaVuSans-74" x="148.941406"/>
      </g>
     </g>
    </g>
    <g id="ytick_3">
     <g id="line2d_9">
      <g>
       <use xlink:href="#m1d29ce8dde" x="45.3" y="85.931818" style="stroke: #000000; stroke-width: 0.8"/>
      </g>
     </g>
     <g id="text_10">
      <!-- Pellet -->
      <g transform="translate(10.85 89.731037)scale(0.1 -0.1)">
       <defs>
        <path id="DejaVuSans-50" d="M 1259 4147 
L 1259 2394 
L 2053 2394 
Q 2494 2394 2734 2622 
Q 2975 2850 2975 3272 
Q 2975 3691 2734 3919 
Q 2494 4147 2053 4147 
L 1259 4147 
z
M 628 4666 
L 2053 4666 
Q 2838 4666 3239 4311 
Q 3641 3956 3641 3272 
Q 3641 2581 3239 2228 
Q 2838 1875 2053 1875 
L 1259 1875 
L 1259 0 
L 628 0 
L 628 4666 
z
" transform="scale(0.015625)"/>
        <path id="DejaVuSans-6c" d="M 603 4863 
L 1178 4863 
L 1178 0 
L 603 0 
L 603 4863 
z
" transform="scale(0.015625)"/>
       </defs>
       <use xlink:href="#DejaVuSans-50"/>
       <use xlink:href="#DejaVuSans-65" x="56.677734"/>
       <use xlink:href="#DejaVuSans-6c" x="118.201172"/>
       <use xlink:href="#DejaVuSans-6c" x="145.984375"/>
       <use xlink:href="#DejaVuSans-65" x="173.767578"/>
       <use xlink:href="#DejaVuSans-74" x="235.291016"/>
      </g>
     </g>
    </g>
   </g>
   <g id="EventCollection_1">
    <path d="M 88.668927 68.511364 
L 88.668927 103.352273 
" clip-path="url(#pb0abc1fd58)" style="fill: none; stroke: #000000"/>
    <path d="M 100.234512 68.511364 
L 100.234512 103.352273 
" clip-path="url(#pb0abc1fd58)" style="fill: none; stroke: #000000"/>
    <path d="M 100.778538 68.511364 
L 100.778538 103.352273 
" clip-path="url(#pb0abc1fd58)" style="fill: none; stroke: #000000"/>
    <path d="M 102.773299 68.511364 
L 102.773299 103.352273 
" clip-path="url(#pb0abc1fd58)" style="fill: none; stroke: #000000"/>
    <path d="M 112.968744 68.511364 
L 112.968744 103.352273 
" clip-path="url(#pb0abc1fd58)" style="fill: none; stroke: #000000"/>
    <path d="M 124.574627 68.511364 
L 124.574627 103.352273 
" clip-path="url(#pb0abc1fd58)" style="fill: none; stroke: #000000"/>
    <path d="M 126.367897 68.511364 
L 126.367897 103.352273 
" clip-path="url(#pb0abc1fd58)" style="fill: none; stroke: #000000"/>
    <path d="M 141.399127 68.511364 
L 141.399127 103.352273 
" clip-path="url(#pb0abc1fd58)" style="fill: none; stroke: #000000"/>
    <path d="M 142.346135 68.511364 
L 142.346135 103.352273 
" clip-path="url(#pb0abc1fd58)" style="fill: none; stroke: #000000"/>
    <path d="M 202.954634 68.511364 
L 202.954634 103.352273 
" clip-path="url(#pb0abc1fd58)" style="fill: none; stroke: #000000"/>
    <path d="M 212.162774 68.511364 
L 212.162774 103.352273 
" clip-path="url(#pb0abc1fd58)" style="fill: none; stroke: #000000"/>
    <path d="M 214.097088 68.511364 
L 214.097088 103.352273 
" clip-path="url(#pb0abc1fd58)" style="fill: none; stroke: #000000"/>
    <path d="M 247.725939 68.511364 
L 247.725939 103.352273 
" clip-path="url(#pb0abc1fd58)" style="fill: none; stroke: #000000"/>
    <path d="M 248.128921 68.511364 
L 248.128921 103.352273 
" clip-path="url(#pb0abc1fd58)" style="fill: none; stroke: #000000"/>
    <path d="M 248.83414 68.511364 
L 248.83414 103.352273 
" clip-path="url(#pb0abc1fd58)" style="fill: none; stroke: #000000"/>
    <path d="M 249.156525 68.511364 
L 249.156525 103.352273 
" clip-path="url(#pb0abc1fd58)" style="fill: none; stroke: #000000"/>
    <path d="M 251.393076 68.511364 
L 251.393076 103.352273 
" clip-path="url(#pb0abc1fd58)" style="fill: none; stroke: #000000"/>
    <path d="M 262.29374 68.511364 
L 262.29374 103.352273 
" clip-path="url(#pb0abc1fd58)" style="fill: none; stroke: #000000"/>
    <path d="M 295.862144 68.511364 
L 295.862144 103.352273 
" clip-path="url(#pb0abc1fd58)" style="fill: none; stroke: #000000"/>
    <path d="M 298.078545 68.511364 
L 298.078545 103.352273 
" clip-path="url(#pb0abc1fd58)" style="fill: none; stroke: #000000"/>
    <path d="M 299.247193 68.511364 
L 299.247193 103.352273 
" clip-path="url(#pb0abc1fd58)" style="fill: none; stroke: #000000"/>
    <path d="M 333.984245 68.511364 
L 333.984245 103.352273 
" clip-path="url(#pb0abc1fd58)" style="fill: none; stroke: #000000"/>
    <path d="M 341.640904 68.511364 
L 341.640904 103.352273 
" clip-path="url(#pb0abc1fd58)" style="fill: none; stroke: #000000"/>
    <path d="M 342.043886 68.511364 
L 342.043886 103.352273 
" clip-path="url(#pb0abc1fd58)" style="fill: none; stroke: #000000"/>
    <path d="M 342.608061 68.511364 
L 342.608061 103.352273 
" clip-path="url(#pb0abc1fd58)" style="fill: none; stroke: #000000"/>
    <path d="M 351.735604 68.511364 
L 351.735604 103.352273 
" clip-path="url(#pb0abc1fd58)" style="fill: none; stroke: #000000"/>
    <path d="M 352.078139 68.511364 
L 352.078139 103.352273 
" clip-path="url(#pb0abc1fd58)" style="fill: none; stroke: #000000"/>
    <path d="M 352.319928 68.511364 
L 352.319928 103.352273 
" clip-path="url(#pb0abc1fd58)" style="fill: none; stroke: #000000"/>
    <path d="M 353.18634 68.511364 
L 353.18634 103.352273 
" clip-path="url(#pb0abc1fd58)" style="fill: none; stroke: #000000"/>
    <path d="M 353.931856 68.511364 
L 353.931856 103.352273 
" clip-path="url(#pb0abc1fd58)" style="fill: none; stroke: #000000"/>
    <path d="M 362.59597 68.511364 
L 362.59597 103.352273 
" clip-path="url(#pb0abc1fd58)" style="fill: none; stroke: #000000"/>
    <path d="M 363.321338 68.511364 
L 363.321338 103.352273 
" clip-path="url(#pb0abc1fd58)" style="fill: none; stroke: #000000"/>
    <path d="M 366.887729 68.511364 
L 366.887729 103.352273 
" clip-path="url(#pb0abc1fd58)" style="fill: none; stroke: #000000"/>
    <path d="M 368.318315 68.511364 
L 368.318315 103.352273 
" clip-path="url(#pb0abc1fd58)" style="fill: none; stroke: #000000"/>
    <path d="M 369.527261 68.511364 
L 369.527261 103.352273 
" clip-path="url(#pb0abc1fd58)" style="fill: none; stroke: #000000"/>
    <path d="M 378.271972 68.511364 
L 378.271972 103.352273 
" clip-path="url(#pb0abc1fd58)" style="fill: none; stroke: #000000"/>
    <path d="M 388.689057 68.511364 
L 388.689057 103.352273 
" clip-path="url(#pb0abc1fd58)" style="fill: none; stroke: #000000"/>
    <path d="M 389.696512 68.511364 
L 389.696512 103.352273 
" clip-path="url(#pb0abc1fd58)" style="fill: none; stroke: #000000"/>
    <path d="M 390.341284 68.511364 
L 390.341284 103.352273 
" clip-path="url(#pb0abc1fd58)" style="fill: none; stroke: #000000"/>
    <path d="M 391.368888 68.511364 
L 391.368888 103.352273 
" clip-path="url(#pb0abc1fd58)" style="fill: none; stroke: #000000"/>
    <path d="M 391.852466 68.511364 
L 391.852466 103.352273 
" clip-path="url(#pb0abc1fd58)" style="fill: none; stroke: #000000"/>
    <path d="M 392.43679 68.511364 
L 392.43679 103.352273 
" clip-path="url(#pb0abc1fd58)" style="fill: none; stroke: #000000"/>
    <path d="M 393.081562 68.511364 
L 393.081562 103.352273 
" clip-path="url(#pb0abc1fd58)" style="fill: none; stroke: #000000"/>
    <path d="M 404.405357 68.511364 
L 404.405357 103.352273 
" clip-path="url(#pb0abc1fd58)" style="fill: none; stroke: #000000"/>
    <path d="M 416.958248 68.511364 
L 416.958248 103.352273 
" clip-path="url(#pb0abc1fd58)" style="fill: none; stroke: #000000"/>
    <path d="M 418.167194 68.511364 
L 418.167194 103.352273 
" clip-path="url(#pb0abc1fd58)" style="fill: none; stroke: #000000"/>
    <path d="M 426.186536 68.511364 
L 426.186536 103.352273 
" clip-path="url(#pb0abc1fd58)" style="fill: none; stroke: #000000"/>
    <path d="M 428.362639 68.511364 
L 428.362639 103.352273 
" clip-path="url(#pb0abc1fd58)" style="fill: none; stroke: #000000"/>
    <path d="M 431.385005 68.511364 
L 431.385005 103.352273 
" clip-path="url(#pb0abc1fd58)" style="fill: none; stroke: #000000"/>
    <path d="M 447.826672 68.511364 
L 447.826672 103.352273 
" clip-path="url(#pb0abc1fd58)" style="fill: none; stroke: #000000"/>
    <path d="M 448.612487 68.511364 
L 448.612487 103.352273 
" clip-path="url(#pb0abc1fd58)" style="fill: none; stroke: #000000"/>
    <path d="M 449.176662 68.511364 
L 449.176662 103.352273 
" clip-path="url(#pb0abc1fd58)" style="fill: none; stroke: #000000"/>
    <path d="M 449.599793 68.511364 
L 449.599793 103.352273 
" clip-path="url(#pb0abc1fd58)" style="fill: none; stroke: #000000"/>
    <path d="M 467.975774 68.511364 
L 467.975774 103.352273 
" clip-path="url(#pb0abc1fd58)" style="fill: none; stroke: #000000"/>
    <path d="M 468.902633 68.511364 
L 468.902633 103.352273 
" clip-path="url(#pb0abc1fd58)" style="fill: none; stroke: #000000"/>
    <path d="M 484.296547 68.511364 
L 484.296547 103.352273 
" clip-path="url(#pb0abc1fd58)" style="fill: none; stroke: #000000"/>
    <path d="M 485.646537 68.511364 
L 485.646537 103.352273 
" clip-path="url(#pb0abc1fd58)" style="fill: none; stroke: #000000"/>
    <path d="M 513.915727 68.511364 
L 513.915727 103.352273 
" clip-path="url(#pb0abc1fd58)" style="fill: none; stroke: #000000"/>
    <path d="M 528.523826 68.511364 
L 528.523826 103.352273 
" clip-path="url(#pb0abc1fd58)" style="fill: none; stroke: #000000"/>
    <path d="M 529.632026 68.511364 
L 529.632026 103.352273 
" clip-path="url(#pb0abc1fd58)" style="fill: none; stroke: #000000"/>
    <path d="M 530.45814 68.511364 
L 530.45814 103.352273 
" clip-path="url(#pb0abc1fd58)" style="fill: none; stroke: #000000"/>
    <path d="M 531.264104 68.511364 
L 531.264104 103.352273 
" clip-path="url(#pb0abc1fd58)" style="fill: none; stroke: #000000"/>
    <path d="M 550.486347 68.511364 
L 550.486347 103.352273 
" clip-path="url(#pb0abc1fd58)" style="fill: none; stroke: #000000"/>
    <path d="M 550.909478 68.511364 
L 550.909478 103.352273 
" clip-path="url(#pb0abc1fd58)" style="fill: none; stroke: #000000"/>
    <path d="M 551.433355 68.511364 
L 551.433355 103.352273 
" clip-path="url(#pb0abc1fd58)" style="fill: none; stroke: #000000"/>
    <path d="M 551.77589 68.511364 
L 551.77589 103.352273 
" clip-path="url(#pb0abc1fd58)" style="fill: none; stroke: #000000"/>
    <path d="M 556.954209 68.511364 
L 556.954209 103.352273 
" clip-path="url(#pb0abc1fd58)" style="fill: none; stroke: #000000"/>
    <path d="M 559.875829 68.511364 
L 559.875829 103.352273 
" clip-path="url(#pb0abc1fd58)" style="fill: none; stroke: #000000"/>
    <path d="M 561.87059 68.511364 
L 561.87059 103.352273 
" clip-path="url(#pb0abc1fd58)" style="fill: none; stroke: #000000"/>
    <path d="M 593.101698 68.511364 
L 593.101698 103.352273 
" clip-path="url(#pb0abc1fd58)" style="fill: none; stroke: #000000"/>
    <path d="M 594.491986 68.511364 
L 594.491986 103.352273 
" clip-path="url(#pb0abc1fd58)" style="fill: none; stroke: #000000"/>
    <path d="M 595.277801 68.511364 
L 595.277801 103.352273 
" clip-path="url(#pb0abc1fd58)" style="fill: none; stroke: #000000"/>
    <path d="M 610.752311 68.511364 
L 610.752311 103.352273 
" clip-path="url(#pb0abc1fd58)" style="fill: none; stroke: #000000"/>
    <path d="M 622.922369 68.511364 
L 622.922369 103.352273 
" clip-path="url(#pb0abc1fd58)" style="fill: none; stroke: #000000"/>
    <path d="M 623.305202 68.511364 
L 623.305202 103.352273 
" clip-path="url(#pb0abc1fd58)" style="fill: none; stroke: #000000"/>
    <path d="M 624.171613 68.511364 
L 624.171613 103.352273 
" clip-path="url(#pb0abc1fd58)" style="fill: none; stroke: #000000"/>
    <path d="M 624.514148 68.511364 
L 624.514148 103.352273 
" clip-path="url(#pb0abc1fd58)" style="fill: none; stroke: #000000"/>
    <path d="M 634.024524 68.511364 
L 634.024524 103.352273 
" clip-path="url(#pb0abc1fd58)" style="fill: none; stroke: #000000"/>
    <path d="M 661.346707 68.511364 
L 661.346707 103.352273 
" clip-path="url(#pb0abc1fd58)" style="fill: none; stroke: #000000"/>
    <path d="M 661.648943 68.511364 
L 661.648943 103.352273 
" clip-path="url(#pb0abc1fd58)" style="fill: none; stroke: #000000"/>
    <path d="M 662.031776 68.511364 
L 662.031776 103.352273 
" clip-path="url(#pb0abc1fd58)" style="fill: none; stroke: #000000"/>
    <path d="M 662.736995 68.511364 
L 662.736995 103.352273 
" clip-path="url(#pb0abc1fd58)" style="fill: none; stroke: #000000"/>
    <path d="M 673.436168 68.511364 
L 673.436168 103.352273 
" clip-path="url(#pb0abc1fd58)" style="fill: none; stroke: #000000"/>
    <path d="M 673.939896 68.511364 
L 673.939896 103.352273 
" clip-path="url(#pb0abc1fd58)" style="fill: none; stroke: #000000"/>
    <path d="M 674.383176 68.511364 
L 674.383176 103.352273 
" clip-path="url(#pb0abc1fd58)" style="fill: none; stroke: #000000"/>
    <path d="M 674.846605 68.511364 
L 674.846605 103.352273 
" clip-path="url(#pb0abc1fd58)" style="fill: none; stroke: #000000"/>
    <path d="M 675.350333 68.511364 
L 675.350333 103.352273 
" clip-path="url(#pb0abc1fd58)" style="fill: none; stroke: #000000"/>
    <path d="M 676.458533 68.511364 
L 676.458533 103.352273 
" clip-path="url(#pb0abc1fd58)" style="fill: none; stroke: #000000"/>
    <path d="M 682.604009 68.511364 
L 682.604009 103.352273 
" clip-path="url(#pb0abc1fd58)" style="fill: none; stroke: #000000"/>
    <path d="M 715.930624 68.511364 
L 715.930624 103.352273 
" clip-path="url(#pb0abc1fd58)" style="fill: none; stroke: #000000"/>
    <path d="M 720.363427 68.511364 
L 720.363427 103.352273 
" clip-path="url(#pb0abc1fd58)" style="fill: none; stroke: #000000"/>
    <path d="M 721.612671 68.511364 
L 721.612671 103.352273 
" clip-path="url(#pb0abc1fd58)" style="fill: none; stroke: #000000"/>
    <path d="M 722.257442 68.511364 
L 722.257442 103.352273 
" clip-path="url(#pb0abc1fd58)" style="fill: none; stroke: #000000"/>
    <path d="M 724.695484 68.511364 
L 724.695484 103.352273 
" clip-path="url(#pb0abc1fd58)" style="fill: none; stroke: #000000"/>
    <path d="M 750.869167 68.511364 
L 750.869167 103.352273 
" clip-path="url(#pb0abc1fd58)" style="fill: none; stroke: #000000"/>
    <path d="M 756.107934 68.511364 
L 756.107934 103.352273 
" clip-path="url(#pb0abc1fd58)" style="fill: none; stroke: #000000"/>
    <path d="M 762.595945 68.511364 
L 762.595945 103.352273 
" clip-path="url(#pb0abc1fd58)" style="fill: none; stroke: #000000"/>
    <path d="M 763.281014 68.511364 
L 763.281014 103.352273 
" clip-path="url(#pb0abc1fd58)" style="fill: none; stroke: #000000"/>
    <path d="M 802.914298 68.511364 
L 802.914298 103.352273 
" clip-path="url(#pb0abc1fd58)" style="fill: none; stroke: #000000"/>
    <path d="M 803.31728 68.511364 
L 803.31728 103.352273 
" clip-path="url(#pb0abc1fd58)" style="fill: none; stroke: #000000"/>
    <path d="M 811.276175 68.511364 
L 811.276175 103.352273 
" clip-path="url(#pb0abc1fd58)" style="fill: none; stroke: #000000"/>
    <path d="M 820.202228 68.511364 
L 820.202228 103.352273 
" clip-path="url(#pb0abc1fd58)" style="fill: none; stroke: #000000"/>
    <path d="M 824.332794 68.511364 
L 824.332794 103.352273 
" clip-path="url(#pb0abc1fd58)" style="fill: none; stroke: #000000"/>
    <path d="M 824.997714 68.511364 
L 824.997714 103.352273 
" clip-path="url(#pb0abc1fd58)" style="fill: none; stroke: #000000"/>
    <path d="M 826.87158 68.511364 
L 826.87158 103.352273 
" clip-path="url(#pb0abc1fd58)" style="fill: none; stroke: #000000"/>
    <path d="M 828.543956 68.511364 
L 828.543956 103.352273 
" clip-path="url(#pb0abc1fd58)" style="fill: none; stroke: #000000"/>
    <path d="M 829.813349 68.511364 
L 829.813349 103.352273 
" clip-path="url(#pb0abc1fd58)" style="fill: none; stroke: #000000"/>
    <path d="M 830.337226 68.511364 
L 830.337226 103.352273 
" clip-path="url(#pb0abc1fd58)" style="fill: none; stroke: #000000"/>
    <path d="M 830.740208 68.511364 
L 830.740208 103.352273 
" clip-path="url(#pb0abc1fd58)" style="fill: none; stroke: #000000"/>
    <path d="M 836.220764 68.511364 
L 836.220764 103.352273 
" clip-path="url(#pb0abc1fd58)" style="fill: none; stroke: #000000"/>
    <path d="M 837.087175 68.511364 
L 837.087175 103.352273 
" clip-path="url(#pb0abc1fd58)" style="fill: none; stroke: #000000"/>
    <path d="M 837.832692 68.511364 
L 837.832692 103.352273 
" clip-path="url(#pb0abc1fd58)" style="fill: none; stroke: #000000"/>
    <path d="M 862.837728 68.511364 
L 862.837728 103.352273 
" clip-path="url(#pb0abc1fd58)" style="fill: none; stroke: #000000"/>
    <path d="M 864.671296 68.511364 
L 864.671296 103.352273 
" clip-path="url(#pb0abc1fd58)" style="fill: none; stroke: #000000"/>
    <path d="M 865.195173 68.511364 
L 865.195173 103.352273 
" clip-path="url(#pb0abc1fd58)" style="fill: none; stroke: #000000"/>
    <path d="M 881.898778 68.511364 
L 881.898778 103.352273 
" clip-path="url(#pb0abc1fd58)" style="fill: none; stroke: #000000"/>
    <path d="M 883.329364 68.511364 
L 883.329364 103.352273 
" clip-path="url(#pb0abc1fd58)" style="fill: none; stroke: #000000"/>
    <path d="M 883.953987 68.511364 
L 883.953987 103.352273 
" clip-path="url(#pb0abc1fd58)" style="fill: none; stroke: #000000"/>
    <path d="M 884.840547 68.511364 
L 884.840547 103.352273 
" clip-path="url(#pb0abc1fd58)" style="fill: none; stroke: #000000"/>
    <path d="M 905.956806 68.511364 
L 905.956806 103.352273 
" clip-path="url(#pb0abc1fd58)" style="fill: none; stroke: #000000"/>
    <path d="M 912.666457 68.511364 
L 912.666457 103.352273 
" clip-path="url(#pb0abc1fd58)" style="fill: none; stroke: #000000"/>
    <path d="M 914.076894 68.511364 
L 914.076894 103.352273 
" clip-path="url(#pb0abc1fd58)" style="fill: none; stroke: #000000"/>
    <path d="M 914.560473 68.511364 
L 914.560473 103.352273 
" clip-path="url(#pb0abc1fd58)" style="fill: none; stroke: #000000"/>
    <path d="M 950.446024 68.511364 
L 950.446024 103.352273 
" clip-path="url(#pb0abc1fd58)" style="fill: none; stroke: #000000"/>
    <path d="M 953.085556 68.511364 
L 953.085556 103.352273 
" clip-path="url(#pb0abc1fd58)" style="fill: none; stroke: #000000"/>
    <path d="M 953.931818 68.511364 
L 953.931818 103.352273 
" clip-path="url(#pb0abc1fd58)" style="fill: none; stroke: #000000"/>
   </g>
   <g id="EventCollection_2">
    <path d="M 100.738239 126.579545 
L 100.738239 161.420455 
" clip-path="url(#pb0abc1fd58)" style="fill: none; stroke: #008000"/>
    <path d="M 112.928446 126.579545 
L 112.928446 161.420455 
" clip-path="url(#pb0abc1fd58)" style="fill: none; stroke: #008000"/>
    <path d="M 124.534329 126.579545 
L 124.534329 161.420455 
" clip-path="url(#pb0abc1fd58)" style="fill: none; stroke: #008000"/>
    <path d="M 126.30745 126.579545 
L 126.30745 161.420455 
" clip-path="url(#pb0abc1fd58)" style="fill: none; stroke: #008000"/>
    <path d="M 141.358829 126.579545 
L 141.358829 161.420455 
" clip-path="url(#pb0abc1fd58)" style="fill: none; stroke: #008000"/>
    <path d="M 142.305837 126.579545 
L 142.305837 161.420455 
" clip-path="url(#pb0abc1fd58)" style="fill: none; stroke: #008000"/>
    <path d="M 142.829714 126.579545 
L 142.829714 161.420455 
" clip-path="url(#pb0abc1fd58)" style="fill: none; stroke: #008000"/>
    <path d="M 143.212547 126.579545 
L 143.212547 161.420455 
" clip-path="url(#pb0abc1fd58)" style="fill: none; stroke: #008000"/>
    <path d="M 202.914336 126.579545 
L 202.914336 161.420455 
" clip-path="url(#pb0abc1fd58)" style="fill: none; stroke: #008000"/>
    <path d="M 211.376959 126.579545 
L 211.376959 161.420455 
" clip-path="url(#pb0abc1fd58)" style="fill: none; stroke: #008000"/>
    <path d="M 212.122476 126.579545 
L 212.122476 161.420455 
" clip-path="url(#pb0abc1fd58)" style="fill: none; stroke: #008000"/>
    <path d="M 214.05679 126.579545 
L 214.05679 161.420455 
" clip-path="url(#pb0abc1fd58)" style="fill: none; stroke: #008000"/>
    <path d="M 214.822455 126.579545 
L 214.822455 161.420455 
" clip-path="url(#pb0abc1fd58)" style="fill: none; stroke: #008000"/>
    <path d="M 247.685641 126.579545 
L 247.685641 161.420455 
" clip-path="url(#pb0abc1fd58)" style="fill: none; stroke: #008000"/>
    <path d="M 248.088623 126.579545 
L 248.088623 161.420455 
" clip-path="url(#pb0abc1fd58)" style="fill: none; stroke: #008000"/>
    <path d="M 248.793842 126.579545 
L 248.793842 161.420455 
" clip-path="url(#pb0abc1fd58)" style="fill: none; stroke: #008000"/>
    <path d="M 249.05578 126.579545 
L 249.05578 161.420455 
" clip-path="url(#pb0abc1fd58)" style="fill: none; stroke: #008000"/>
    <path d="M 249.519209 126.579545 
L 249.519209 161.420455 
" clip-path="url(#pb0abc1fd58)" style="fill: none; stroke: #008000"/>
    <path d="M 250.163981 126.579545 
L 250.163981 161.420455 
" clip-path="url(#pb0abc1fd58)" style="fill: none; stroke: #008000"/>
    <path d="M 251.07069 126.579545 
L 251.07069 161.420455 
" clip-path="url(#pb0abc1fd58)" style="fill: none; stroke: #008000"/>
    <path d="M 262.253442 126.579545 
L 262.253442 161.420455 
" clip-path="url(#pb0abc1fd58)" style="fill: none; stroke: #008000"/>
    <path d="M 285.424909 126.579545 
L 285.424909 161.420455 
" clip-path="url(#pb0abc1fd58)" style="fill: none; stroke: #008000"/>
    <path d="M 289.67637 126.579545 
L 289.67637 161.420455 
" clip-path="url(#pb0abc1fd58)" style="fill: none; stroke: #008000"/>
    <path d="M 296.224828 126.579545 
L 296.224828 161.420455 
" clip-path="url(#pb0abc1fd58)" style="fill: none; stroke: #008000"/>
    <path d="M 296.990494 126.579545 
L 296.990494 161.420455 
" clip-path="url(#pb0abc1fd58)" style="fill: none; stroke: #008000"/>
    <path d="M 298.038247 126.579545 
L 298.038247 161.420455 
" clip-path="url(#pb0abc1fd58)" style="fill: none; stroke: #008000"/>
    <path d="M 299.206895 126.579545 
L 299.206895 161.420455 
" clip-path="url(#pb0abc1fd58)" style="fill: none; stroke: #008000"/>
    <path d="M 300.053157 126.579545 
L 300.053157 161.420455 
" clip-path="url(#pb0abc1fd58)" style="fill: none; stroke: #008000"/>
    <path d="M 312.062022 126.579545 
L 312.062022 161.420455 
" clip-path="url(#pb0abc1fd58)" style="fill: none; stroke: #008000"/>
    <path d="M 320.444049 126.579545 
L 320.444049 161.420455 
" clip-path="url(#pb0abc1fd58)" style="fill: none; stroke: #008000"/>
    <path d="M 328.584286 126.579545 
L 328.584286 161.420455 
" clip-path="url(#pb0abc1fd58)" style="fill: none; stroke: #008000"/>
    <path d="M 333.943947 126.579545 
L 333.943947 161.420455 
" clip-path="url(#pb0abc1fd58)" style="fill: none; stroke: #008000"/>
    <path d="M 334.286482 126.579545 
L 334.286482 161.420455 
" clip-path="url(#pb0abc1fd58)" style="fill: none; stroke: #008000"/>
    <path d="M 341.600606 126.579545 
L 341.600606 161.420455 
" clip-path="url(#pb0abc1fd58)" style="fill: none; stroke: #008000"/>
    <path d="M 342.003588 126.579545 
L 342.003588 161.420455 
" clip-path="url(#pb0abc1fd58)" style="fill: none; stroke: #008000"/>
    <path d="M 342.567763 126.579545 
L 342.567763 161.420455 
" clip-path="url(#pb0abc1fd58)" style="fill: none; stroke: #008000"/>
    <path d="M 343.091639 126.579545 
L 343.091639 161.420455 
" clip-path="url(#pb0abc1fd58)" style="fill: none; stroke: #008000"/>
    <path d="M 343.877454 126.579545 
L 343.877454 161.420455 
" clip-path="url(#pb0abc1fd58)" style="fill: none; stroke: #008000"/>
    <path d="M 344.19984 126.579545 
L 344.19984 161.420455 
" clip-path="url(#pb0abc1fd58)" style="fill: none; stroke: #008000"/>
    <path d="M 351.655008 126.579545 
L 351.655008 161.420455 
" clip-path="url(#pb0abc1fd58)" style="fill: none; stroke: #008000"/>
    <path d="M 352.017692 126.579545 
L 352.017692 161.420455 
" clip-path="url(#pb0abc1fd58)" style="fill: none; stroke: #008000"/>
    <path d="M 352.27963 126.579545 
L 352.27963 161.420455 
" clip-path="url(#pb0abc1fd58)" style="fill: none; stroke: #008000"/>
    <path d="M 353.146041 126.579545 
L 353.146041 161.420455 
" clip-path="url(#pb0abc1fd58)" style="fill: none; stroke: #008000"/>
    <path d="M 353.891558 126.579545 
L 353.891558 161.420455 
" clip-path="url(#pb0abc1fd58)" style="fill: none; stroke: #008000"/>
    <path d="M 362.555672 126.579545 
L 362.555672 161.420455 
" clip-path="url(#pb0abc1fd58)" style="fill: none; stroke: #008000"/>
    <path d="M 366.323554 126.579545 
L 366.323554 161.420455 
" clip-path="url(#pb0abc1fd58)" style="fill: none; stroke: #008000"/>
    <path d="M 368.278017 126.579545 
L 368.278017 161.420455 
" clip-path="url(#pb0abc1fd58)" style="fill: none; stroke: #008000"/>
    <path d="M 369.10413 126.579545 
L 369.10413 161.420455 
" clip-path="url(#pb0abc1fd58)" style="fill: none; stroke: #008000"/>
    <path d="M 369.486963 126.579545 
L 369.486963 161.420455 
" clip-path="url(#pb0abc1fd58)" style="fill: none; stroke: #008000"/>
    <path d="M 374.685431 126.579545 
L 374.685431 161.420455 
" clip-path="url(#pb0abc1fd58)" style="fill: none; stroke: #008000"/>
    <path d="M 388.62861 126.579545 
L 388.62861 161.420455 
" clip-path="url(#pb0abc1fd58)" style="fill: none; stroke: #008000"/>
    <path d="M 389.656214 126.579545 
L 389.656214 161.420455 
" clip-path="url(#pb0abc1fd58)" style="fill: none; stroke: #008000"/>
    <path d="M 392.396492 126.579545 
L 392.396492 161.420455 
" clip-path="url(#pb0abc1fd58)" style="fill: none; stroke: #008000"/>
    <path d="M 392.819623 126.579545 
L 392.819623 161.420455 
" clip-path="url(#pb0abc1fd58)" style="fill: none; stroke: #008000"/>
    <path d="M 394.371104 126.579545 
L 394.371104 161.420455 
" clip-path="url(#pb0abc1fd58)" style="fill: none; stroke: #008000"/>
    <path d="M 413.694093 126.579545 
L 413.694093 161.420455 
" clip-path="url(#pb0abc1fd58)" style="fill: none; stroke: #008000"/>
    <path d="M 417.36123 126.579545 
L 417.36123 161.420455 
" clip-path="url(#pb0abc1fd58)" style="fill: none; stroke: #008000"/>
    <path d="M 418.126896 126.579545 
L 418.126896 161.420455 
" clip-path="url(#pb0abc1fd58)" style="fill: none; stroke: #008000"/>
    <path d="M 418.590325 126.579545 
L 418.590325 161.420455 
" clip-path="url(#pb0abc1fd58)" style="fill: none; stroke: #008000"/>
    <path d="M 428.322341 126.579545 
L 428.322341 161.420455 
" clip-path="url(#pb0abc1fd58)" style="fill: none; stroke: #008000"/>
    <path d="M 432.110372 126.579545 
L 432.110372 161.420455 
" clip-path="url(#pb0abc1fd58)" style="fill: none; stroke: #008000"/>
    <path d="M 446.29534 126.579545 
L 446.29534 161.420455 
" clip-path="url(#pb0abc1fd58)" style="fill: none; stroke: #008000"/>
    <path d="M 447.786374 126.579545 
L 447.786374 161.420455 
" clip-path="url(#pb0abc1fd58)" style="fill: none; stroke: #008000"/>
    <path d="M 448.572189 126.579545 
L 448.572189 161.420455 
" clip-path="url(#pb0abc1fd58)" style="fill: none; stroke: #008000"/>
    <path d="M 449.136364 126.579545 
L 449.136364 161.420455 
" clip-path="url(#pb0abc1fd58)" style="fill: none; stroke: #008000"/>
    <path d="M 449.559495 126.579545 
L 449.559495 161.420455 
" clip-path="url(#pb0abc1fd58)" style="fill: none; stroke: #008000"/>
    <path d="M 450.607248 126.579545 
L 450.607248 161.420455 
" clip-path="url(#pb0abc1fd58)" style="fill: none; stroke: #008000"/>
    <path d="M 468.560098 126.579545 
L 468.560098 161.420455 
" clip-path="url(#pb0abc1fd58)" style="fill: none; stroke: #008000"/>
    <path d="M 469.950386 126.579545 
L 469.950386 161.420455 
" clip-path="url(#pb0abc1fd58)" style="fill: none; stroke: #008000"/>
    <path d="M 482.624171 126.579545 
L 482.624171 161.420455 
" clip-path="url(#pb0abc1fd58)" style="fill: none; stroke: #008000"/>
    <path d="M 490.562918 126.579545 
L 490.562918 161.420455 
" clip-path="url(#pb0abc1fd58)" style="fill: none; stroke: #008000"/>
    <path d="M 491.429329 126.579545 
L 491.429329 161.420455 
" clip-path="url(#pb0abc1fd58)" style="fill: none; stroke: #008000"/>
    <path d="M 492.799468 126.579545 
L 492.799468 161.420455 
" clip-path="url(#pb0abc1fd58)" style="fill: none; stroke: #008000"/>
    <path d="M 503.659834 126.579545 
L 503.659834 161.420455 
" clip-path="url(#pb0abc1fd58)" style="fill: none; stroke: #008000"/>
    <path d="M 508.032189 126.579545 
L 508.032189 161.420455 
" clip-path="url(#pb0abc1fd58)" style="fill: none; stroke: #008000"/>
    <path d="M 513.875429 126.579545 
L 513.875429 161.420455 
" clip-path="url(#pb0abc1fd58)" style="fill: none; stroke: #008000"/>
    <path d="M 514.459753 126.579545 
L 514.459753 161.420455 
" clip-path="url(#pb0abc1fd58)" style="fill: none; stroke: #008000"/>
    <path d="M 515.326164 126.579545 
L 515.326164 161.420455 
" clip-path="url(#pb0abc1fd58)" style="fill: none; stroke: #008000"/>
    <path d="M 515.850041 126.579545 
L 515.850041 161.420455 
" clip-path="url(#pb0abc1fd58)" style="fill: none; stroke: #008000"/>
    <path d="M 516.333619 126.579545 
L 516.333619 161.420455 
" clip-path="url(#pb0abc1fd58)" style="fill: none; stroke: #008000"/>
    <path d="M 517.280627 126.579545 
L 517.280627 161.420455 
" clip-path="url(#pb0abc1fd58)" style="fill: none; stroke: #008000"/>
    <path d="M 523.909681 126.579545 
L 523.909681 161.420455 
" clip-path="url(#pb0abc1fd58)" style="fill: none; stroke: #008000"/>
    <path d="M 528.140993 126.579545 
L 528.140993 161.420455 
" clip-path="url(#pb0abc1fd58)" style="fill: none; stroke: #008000"/>
    <path d="M 529.349939 126.579545 
L 529.349939 161.420455 
" clip-path="url(#pb0abc1fd58)" style="fill: none; stroke: #008000"/>
    <path d="M 531.808129 126.579545 
L 531.808129 161.420455 
" clip-path="url(#pb0abc1fd58)" style="fill: none; stroke: #008000"/>
    <path d="M 536.039441 126.579545 
L 536.039441 161.420455 
" clip-path="url(#pb0abc1fd58)" style="fill: none; stroke: #008000"/>
    <path d="M 550.163961 126.579545 
L 550.163961 161.420455 
" clip-path="url(#pb0abc1fd58)" style="fill: none; stroke: #008000"/>
    <path d="M 556.228841 126.579545 
L 556.228841 161.420455 
" clip-path="url(#pb0abc1fd58)" style="fill: none; stroke: #008000"/>
    <path d="M 565.880261 126.579545 
L 565.880261 161.420455 
" clip-path="url(#pb0abc1fd58)" style="fill: none; stroke: #008000"/>
    <path d="M 571.864544 126.579545 
L 571.864544 161.420455 
" clip-path="url(#pb0abc1fd58)" style="fill: none; stroke: #008000"/>
    <path d="M 575.571979 126.579545 
L 575.571979 161.420455 
" clip-path="url(#pb0abc1fd58)" style="fill: none; stroke: #008000"/>
    <path d="M 578.91673 126.579545 
L 578.91673 161.420455 
" clip-path="url(#pb0abc1fd58)" style="fill: none; stroke: #008000"/>
    <path d="M 589.535307 126.579545 
L 589.535307 161.420455 
" clip-path="url(#pb0abc1fd58)" style="fill: none; stroke: #008000"/>
    <path d="M 593.0614 126.579545 
L 593.0614 161.420455 
" clip-path="url(#pb0abc1fd58)" style="fill: none; stroke: #008000"/>
    <path d="M 593.565127 126.579545 
L 593.565127 161.420455 
" clip-path="url(#pb0abc1fd58)" style="fill: none; stroke: #008000"/>
    <path d="M 594.008408 126.579545 
L 594.008408 161.420455 
" clip-path="url(#pb0abc1fd58)" style="fill: none; stroke: #008000"/>
    <path d="M 595.237503 126.579545 
L 595.237503 161.420455 
" clip-path="url(#pb0abc1fd58)" style="fill: none; stroke: #008000"/>
    <path d="M 595.98302 126.579545 
L 595.98302 161.420455 
" clip-path="url(#pb0abc1fd58)" style="fill: none; stroke: #008000"/>
    <path d="M 600.818804 126.579545 
L 600.818804 161.420455 
" clip-path="url(#pb0abc1fd58)" style="fill: none; stroke: #008000"/>
    <path d="M 635.173023 126.579545 
L 635.173023 161.420455 
" clip-path="url(#pb0abc1fd58)" style="fill: none; stroke: #008000"/>
    <path d="M 642.043867 126.579545 
L 642.043867 161.420455 
" clip-path="url(#pb0abc1fd58)" style="fill: none; stroke: #008000"/>
    <path d="M 655.060187 126.579545 
L 655.060187 161.420455 
" clip-path="url(#pb0abc1fd58)" style="fill: none; stroke: #008000"/>
    <path d="M 660.419848 126.579545 
L 660.419848 161.420455 
" clip-path="url(#pb0abc1fd58)" style="fill: none; stroke: #008000"/>
    <path d="M 660.722085 126.579545 
L 660.722085 161.420455 
" clip-path="url(#pb0abc1fd58)" style="fill: none; stroke: #008000"/>
    <path d="M 662.696697 126.579545 
L 662.696697 161.420455 
" clip-path="url(#pb0abc1fd58)" style="fill: none; stroke: #008000"/>
    <path d="M 665.134738 126.579545 
L 665.134738 161.420455 
" clip-path="url(#pb0abc1fd58)" style="fill: none; stroke: #008000"/>
    <path d="M 670.836934 126.579545 
L 670.836934 161.420455 
" clip-path="url(#pb0abc1fd58)" style="fill: none; stroke: #008000"/>
    <path d="M 671.360811 126.579545 
L 671.360811 161.420455 
" clip-path="url(#pb0abc1fd58)" style="fill: none; stroke: #008000"/>
    <path d="M 673.899597 126.579545 
L 673.899597 161.420455 
" clip-path="url(#pb0abc1fd58)" style="fill: none; stroke: #008000"/>
    <path d="M 674.342878 126.579545 
L 674.342878 161.420455 
" clip-path="url(#pb0abc1fd58)" style="fill: none; stroke: #008000"/>
    <path d="M 674.806307 126.579545 
L 674.806307 161.420455 
" clip-path="url(#pb0abc1fd58)" style="fill: none; stroke: #008000"/>
    <path d="M 675.289885 126.579545 
L 675.289885 161.420455 
" clip-path="url(#pb0abc1fd58)" style="fill: none; stroke: #008000"/>
    <path d="M 676.418235 126.579545 
L 676.418235 161.420455 
" clip-path="url(#pb0abc1fd58)" style="fill: none; stroke: #008000"/>
    <path d="M 720.323129 126.579545 
L 720.323129 161.420455 
" clip-path="url(#pb0abc1fd58)" style="fill: none; stroke: #008000"/>
    <path d="M 756.007188 126.579545 
L 756.007188 161.420455 
" clip-path="url(#pb0abc1fd58)" style="fill: none; stroke: #008000"/>
    <path d="M 763.240716 126.579545 
L 763.240716 161.420455 
" clip-path="url(#pb0abc1fd58)" style="fill: none; stroke: #008000"/>
    <path d="M 764.469811 126.579545 
L 764.469811 161.420455 
" clip-path="url(#pb0abc1fd58)" style="fill: none; stroke: #008000"/>
    <path d="M 778.574183 126.579545 
L 778.574183 161.420455 
" clip-path="url(#pb0abc1fd58)" style="fill: none; stroke: #008000"/>
    <path d="M 802.853851 126.579545 
L 802.853851 161.420455 
" clip-path="url(#pb0abc1fd58)" style="fill: none; stroke: #008000"/>
    <path d="M 803.276982 126.579545 
L 803.276982 161.420455 
" clip-path="url(#pb0abc1fd58)" style="fill: none; stroke: #008000"/>
    <path d="M 819.517158 126.579545 
L 819.517158 161.420455 
" clip-path="url(#pb0abc1fd58)" style="fill: none; stroke: #008000"/>
    <path d="M 824.292495 126.579545 
L 824.292495 161.420455 
" clip-path="url(#pb0abc1fd58)" style="fill: none; stroke: #008000"/>
    <path d="M 824.957416 126.579545 
L 824.957416 161.420455 
" clip-path="url(#pb0abc1fd58)" style="fill: none; stroke: #008000"/>
    <path d="M 826.831282 126.579545 
L 826.831282 161.420455 
" clip-path="url(#pb0abc1fd58)" style="fill: none; stroke: #008000"/>
    <path d="M 827.677545 126.579545 
L 827.677545 161.420455 
" clip-path="url(#pb0abc1fd58)" style="fill: none; stroke: #008000"/>
    <path d="M 828.503658 126.579545 
L 828.503658 161.420455 
" clip-path="url(#pb0abc1fd58)" style="fill: none; stroke: #008000"/>
    <path d="M 830.69991 126.579545 
L 830.69991 161.420455 
" clip-path="url(#pb0abc1fd58)" style="fill: none; stroke: #008000"/>
    <path d="M 836.180466 126.579545 
L 836.180466 161.420455 
" clip-path="url(#pb0abc1fd58)" style="fill: none; stroke: #008000"/>
    <path d="M 837.046877 126.579545 
L 837.046877 161.420455 
" clip-path="url(#pb0abc1fd58)" style="fill: none; stroke: #008000"/>
    <path d="M 837.792394 126.579545 
L 837.792394 161.420455 
" clip-path="url(#pb0abc1fd58)" style="fill: none; stroke: #008000"/>
    <path d="M 838.275972 126.579545 
L 838.275972 161.420455 
" clip-path="url(#pb0abc1fd58)" style="fill: none; stroke: #008000"/>
    <path d="M 859.593722 126.579545 
L 859.593722 161.420455 
" clip-path="url(#pb0abc1fd58)" style="fill: none; stroke: #008000"/>
    <path d="M 862.797429 126.579545 
L 862.797429 161.420455 
" clip-path="url(#pb0abc1fd58)" style="fill: none; stroke: #008000"/>
    <path d="M 863.281008 126.579545 
L 863.281008 161.420455 
" clip-path="url(#pb0abc1fd58)" style="fill: none; stroke: #008000"/>
    <path d="M 864.610849 126.579545 
L 864.610849 161.420455 
" clip-path="url(#pb0abc1fd58)" style="fill: none; stroke: #008000"/>
    <path d="M 881.85848 126.579545 
L 881.85848 161.420455 
" clip-path="url(#pb0abc1fd58)" style="fill: none; stroke: #008000"/>
    <path d="M 883.289066 126.579545 
L 883.289066 161.420455 
" clip-path="url(#pb0abc1fd58)" style="fill: none; stroke: #008000"/>
    <path d="M 883.87339 126.579545 
L 883.87339 161.420455 
" clip-path="url(#pb0abc1fd58)" style="fill: none; stroke: #008000"/>
    <path d="M 884.800249 126.579545 
L 884.800249 161.420455 
" clip-path="url(#pb0abc1fd58)" style="fill: none; stroke: #008000"/>
    <path d="M 905.916508 126.579545 
L 905.916508 161.420455 
" clip-path="url(#pb0abc1fd58)" style="fill: none; stroke: #008000"/>
    <path d="M 912.626159 126.579545 
L 912.626159 161.420455 
" clip-path="url(#pb0abc1fd58)" style="fill: none; stroke: #008000"/>
    <path d="M 914.520174 126.579545 
L 914.520174 161.420455 
" clip-path="url(#pb0abc1fd58)" style="fill: none; stroke: #008000"/>
    <path d="M 953.045258 126.579545 
L 953.045258 161.420455 
" clip-path="url(#pb0abc1fd58)" style="fill: none; stroke: #008000"/>
    <path d="M 953.851222 126.579545 
L 953.851222 161.420455 
" clip-path="url(#pb0abc1fd58)" style="fill: none; stroke: #008000"/>
   </g>
   <g id="EventCollection_3">
    <path d="M 88.568182 184.647727 
L 88.568182 219.488636 
" clip-path="url(#pb0abc1fd58)" style="fill: none; stroke: #800080"/>
    <path d="M 94.23008 184.647727 
L 94.23008 219.488636 
" clip-path="url(#pb0abc1fd58)" style="fill: none; stroke: #800080"/>
    <path d="M 100.194214 184.647727 
L 100.194214 219.488636 
" clip-path="url(#pb0abc1fd58)" style="fill: none; stroke: #800080"/>
    <path d="M 102.692702 184.647727 
L 102.692702 219.488636 
" clip-path="url(#pb0abc1fd58)" style="fill: none; stroke: #800080"/>
    <path d="M 111.135176 184.647727 
L 111.135176 219.488636 
" clip-path="url(#pb0abc1fd58)" style="fill: none; stroke: #800080"/>
    <path d="M 144.240151 184.647727 
L 144.240151 219.488636 
" clip-path="url(#pb0abc1fd58)" style="fill: none; stroke: #800080"/>
    <path d="M 212.988887 184.647727 
L 212.988887 219.488636 
" clip-path="url(#pb0abc1fd58)" style="fill: none; stroke: #800080"/>
    <path d="M 213.673957 184.647727 
L 213.673957 219.488636 
" clip-path="url(#pb0abc1fd58)" style="fill: none; stroke: #800080"/>
    <path d="M 215.567972 184.647727 
L 215.567972 219.488636 
" clip-path="url(#pb0abc1fd58)" style="fill: none; stroke: #800080"/>
    <path d="M 225.924611 184.647727 
L 225.924611 219.488636 
" clip-path="url(#pb0abc1fd58)" style="fill: none; stroke: #800080"/>
    <path d="M 240.290921 184.647727 
L 240.290921 219.488636 
" clip-path="url(#pb0abc1fd58)" style="fill: none; stroke: #800080"/>
    <path d="M 249.902042 184.647727 
L 249.902042 219.488636 
" clip-path="url(#pb0abc1fd58)" style="fill: none; stroke: #800080"/>
    <path d="M 261.62882 184.647727 
L 261.62882 219.488636 
" clip-path="url(#pb0abc1fd58)" style="fill: none; stroke: #800080"/>
    <path d="M 263.20045 184.647727 
L 263.20045 219.488636 
" clip-path="url(#pb0abc1fd58)" style="fill: none; stroke: #800080"/>
    <path d="M 267.129524 184.647727 
L 267.129524 219.488636 
" clip-path="url(#pb0abc1fd58)" style="fill: none; stroke: #800080"/>
    <path d="M 274.080965 184.647727 
L 274.080965 219.488636 
" clip-path="url(#pb0abc1fd58)" style="fill: none; stroke: #800080"/>
    <path d="M 276.136173 184.647727 
L 276.136173 219.488636 
" clip-path="url(#pb0abc1fd58)" style="fill: none; stroke: #800080"/>
    <path d="M 277.244374 184.647727 
L 277.244374 219.488636 
" clip-path="url(#pb0abc1fd58)" style="fill: none; stroke: #800080"/>
    <path d="M 285.686848 184.647727 
L 285.686848 219.488636 
" clip-path="url(#pb0abc1fd58)" style="fill: none; stroke: #800080"/>
    <path d="M 294.089023 184.647727 
L 294.089023 219.488636 
" clip-path="url(#pb0abc1fd58)" style="fill: none; stroke: #800080"/>
    <path d="M 295.801697 184.647727 
L 295.801697 219.488636 
" clip-path="url(#pb0abc1fd58)" style="fill: none; stroke: #800080"/>
    <path d="M 296.486766 184.647727 
L 296.486766 219.488636 
" clip-path="url(#pb0abc1fd58)" style="fill: none; stroke: #800080"/>
    <path d="M 297.373327 184.647727 
L 297.373327 219.488636 
" clip-path="url(#pb0abc1fd58)" style="fill: none; stroke: #800080"/>
    <path d="M 298.743466 184.647727 
L 298.743466 219.488636 
" clip-path="url(#pb0abc1fd58)" style="fill: none; stroke: #800080"/>
    <path d="M 299.750921 184.647727 
L 299.750921 219.488636 
" clip-path="url(#pb0abc1fd58)" style="fill: none; stroke: #800080"/>
    <path d="M 312.78739 184.647727 
L 312.78739 219.488636 
" clip-path="url(#pb0abc1fd58)" style="fill: none; stroke: #800080"/>
    <path d="M 327.979813 184.647727 
L 327.979813 219.488636 
" clip-path="url(#pb0abc1fd58)" style="fill: none; stroke: #800080"/>
    <path d="M 334.830508 184.647727 
L 334.830508 219.488636 
" clip-path="url(#pb0abc1fd58)" style="fill: none; stroke: #800080"/>
    <path d="M 335.999155 184.647727 
L 335.999155 219.488636 
" clip-path="url(#pb0abc1fd58)" style="fill: none; stroke: #800080"/>
    <path d="M 343.474472 184.647727 
L 343.474472 219.488636 
" clip-path="url(#pb0abc1fd58)" style="fill: none; stroke: #800080"/>
    <path d="M 363.28104 184.647727 
L 363.28104 219.488636 
" clip-path="url(#pb0abc1fd58)" style="fill: none; stroke: #800080"/>
    <path d="M 365.195204 184.647727 
L 365.195204 219.488636 
" clip-path="url(#pb0abc1fd58)" style="fill: none; stroke: #800080"/>
    <path d="M 366.726536 184.647727 
L 366.726536 219.488636 
" clip-path="url(#pb0abc1fd58)" style="fill: none; stroke: #800080"/>
    <path d="M 371.179488 184.647727 
L 371.179488 219.488636 
" clip-path="url(#pb0abc1fd58)" style="fill: none; stroke: #800080"/>
    <path d="M 374.04066 184.647727 
L 374.04066 219.488636 
" clip-path="url(#pb0abc1fd58)" style="fill: none; stroke: #800080"/>
    <path d="M 390.300986 184.647727 
L 390.300986 219.488636 
" clip-path="url(#pb0abc1fd58)" style="fill: none; stroke: #800080"/>
    <path d="M 391.32859 184.647727 
L 391.32859 219.488636 
" clip-path="url(#pb0abc1fd58)" style="fill: none; stroke: #800080"/>
    <path d="M 391.812168 184.647727 
L 391.812168 219.488636 
" clip-path="url(#pb0abc1fd58)" style="fill: none; stroke: #800080"/>
    <path d="M 404.365059 184.647727 
L 404.365059 219.488636 
" clip-path="url(#pb0abc1fd58)" style="fill: none; stroke: #800080"/>
    <path d="M 411.96127 184.647727 
L 411.96127 219.488636 
" clip-path="url(#pb0abc1fd58)" style="fill: none; stroke: #800080"/>
    <path d="M 416.8978 184.647727 
L 416.8978 219.488636 
" clip-path="url(#pb0abc1fd58)" style="fill: none; stroke: #800080"/>
    <path d="M 426.126089 184.647727 
L 426.126089 219.488636 
" clip-path="url(#pb0abc1fd58)" style="fill: none; stroke: #800080"/>
    <path d="M 431.324557 184.647727 
L 431.324557 219.488636 
" clip-path="url(#pb0abc1fd58)" style="fill: none; stroke: #800080"/>
    <path d="M 454.012446 184.647727 
L 454.012446 219.488636 
" clip-path="url(#pb0abc1fd58)" style="fill: none; stroke: #800080"/>
    <path d="M 467.915327 184.647727 
L 467.915327 219.488636 
" clip-path="url(#pb0abc1fd58)" style="fill: none; stroke: #800080"/>
    <path d="M 468.862335 184.647727 
L 468.862335 219.488636 
" clip-path="url(#pb0abc1fd58)" style="fill: none; stroke: #800080"/>
    <path d="M 482.160742 184.647727 
L 482.160742 219.488636 
" clip-path="url(#pb0abc1fd58)" style="fill: none; stroke: #800080"/>
    <path d="M 484.256249 184.647727 
L 484.256249 219.488636 
" clip-path="url(#pb0abc1fd58)" style="fill: none; stroke: #800080"/>
    <path d="M 485.606238 184.647727 
L 485.606238 219.488636 
" clip-path="url(#pb0abc1fd58)" style="fill: none; stroke: #800080"/>
    <path d="M 486.895781 184.647727 
L 486.895781 219.488636 
" clip-path="url(#pb0abc1fd58)" style="fill: none; stroke: #800080"/>
    <path d="M 499.912101 184.647727 
L 499.912101 219.488636 
" clip-path="url(#pb0abc1fd58)" style="fill: none; stroke: #800080"/>
    <path d="M 507.185927 184.647727 
L 507.185927 219.488636 
" clip-path="url(#pb0abc1fd58)" style="fill: none; stroke: #800080"/>
    <path d="M 528.483528 184.647727 
L 528.483528 219.488636 
" clip-path="url(#pb0abc1fd58)" style="fill: none; stroke: #800080"/>
    <path d="M 529.591728 184.647727 
L 529.591728 219.488636 
" clip-path="url(#pb0abc1fd58)" style="fill: none; stroke: #800080"/>
    <path d="M 529.974561 184.647727 
L 529.974561 219.488636 
" clip-path="url(#pb0abc1fd58)" style="fill: none; stroke: #800080"/>
    <path d="M 530.417841 184.647727 
L 530.417841 219.488636 
" clip-path="url(#pb0abc1fd58)" style="fill: none; stroke: #800080"/>
    <path d="M 530.800674 184.647727 
L 530.800674 219.488636 
" clip-path="url(#pb0abc1fd58)" style="fill: none; stroke: #800080"/>
    <path d="M 531.223806 184.647727 
L 531.223806 219.488636 
" clip-path="url(#pb0abc1fd58)" style="fill: none; stroke: #800080"/>
    <path d="M 550.446049 184.647727 
L 550.446049 219.488636 
" clip-path="url(#pb0abc1fd58)" style="fill: none; stroke: #800080"/>
    <path d="M 550.86918 184.647727 
L 550.86918 219.488636 
" clip-path="url(#pb0abc1fd58)" style="fill: none; stroke: #800080"/>
    <path d="M 551.372908 184.647727 
L 551.372908 219.488636 
" clip-path="url(#pb0abc1fd58)" style="fill: none; stroke: #800080"/>
    <path d="M 551.715442 184.647727 
L 551.715442 219.488636 
" clip-path="url(#pb0abc1fd58)" style="fill: none; stroke: #800080"/>
    <path d="M 552.078126 184.647727 
L 552.078126 219.488636 
" clip-path="url(#pb0abc1fd58)" style="fill: none; stroke: #800080"/>
    <path d="M 556.913911 184.647727 
L 556.913911 219.488636 
" clip-path="url(#pb0abc1fd58)" style="fill: none; stroke: #800080"/>
    <path d="M 559.795232 184.647727 
L 559.795232 219.488636 
" clip-path="url(#pb0abc1fd58)" style="fill: none; stroke: #800080"/>
    <path d="M 561.447459 184.647727 
L 561.447459 219.488636 
" clip-path="url(#pb0abc1fd58)" style="fill: none; stroke: #800080"/>
    <path d="M 561.810142 184.647727 
L 561.810142 219.488636 
" clip-path="url(#pb0abc1fd58)" style="fill: none; stroke: #800080"/>
    <path d="M 589.071878 184.647727 
L 589.071878 219.488636 
" clip-path="url(#pb0abc1fd58)" style="fill: none; stroke: #800080"/>
    <path d="M 594.431539 184.647727 
L 594.431539 219.488636 
" clip-path="url(#pb0abc1fd58)" style="fill: none; stroke: #800080"/>
    <path d="M 610.712013 184.647727 
L 610.712013 219.488636 
" clip-path="url(#pb0abc1fd58)" style="fill: none; stroke: #800080"/>
    <path d="M 622.116405 184.647727 
L 622.116405 219.488636 
" clip-path="url(#pb0abc1fd58)" style="fill: none; stroke: #800080"/>
    <path d="M 622.861922 184.647727 
L 622.861922 219.488636 
" clip-path="url(#pb0abc1fd58)" style="fill: none; stroke: #800080"/>
    <path d="M 623.204457 184.647727 
L 623.204457 219.488636 
" clip-path="url(#pb0abc1fd58)" style="fill: none; stroke: #800080"/>
    <path d="M 624.131315 184.647727 
L 624.131315 219.488636 
" clip-path="url(#pb0abc1fd58)" style="fill: none; stroke: #800080"/>
    <path d="M 624.47385 184.647727 
L 624.47385 219.488636 
" clip-path="url(#pb0abc1fd58)" style="fill: none; stroke: #800080"/>
    <path d="M 633.984226 184.647727 
L 633.984226 219.488636 
" clip-path="url(#pb0abc1fd58)" style="fill: none; stroke: #800080"/>
    <path d="M 635.616303 184.647727 
L 635.616303 219.488636 
" clip-path="url(#pb0abc1fd58)" style="fill: none; stroke: #800080"/>
    <path d="M 651.453498 184.647727 
L 651.453498 219.488636 
" clip-path="url(#pb0abc1fd58)" style="fill: none; stroke: #800080"/>
    <path d="M 653.166171 184.647727 
L 653.166171 219.488636 
" clip-path="url(#pb0abc1fd58)" style="fill: none; stroke: #800080"/>
    <path d="M 654.072881 184.647727 
L 654.072881 219.488636 
" clip-path="url(#pb0abc1fd58)" style="fill: none; stroke: #800080"/>
    <path d="M 661.306409 184.647727 
L 661.306409 219.488636 
" clip-path="url(#pb0abc1fd58)" style="fill: none; stroke: #800080"/>
    <path d="M 661.588496 184.647727 
L 661.588496 219.488636 
" clip-path="url(#pb0abc1fd58)" style="fill: none; stroke: #800080"/>
    <path d="M 661.95118 184.647727 
L 661.95118 219.488636 
" clip-path="url(#pb0abc1fd58)" style="fill: none; stroke: #800080"/>
    <path d="M 663.180275 184.647727 
L 663.180275 219.488636 
" clip-path="url(#pb0abc1fd58)" style="fill: none; stroke: #800080"/>
    <path d="M 671.985433 184.647727 
L 671.985433 219.488636 
" clip-path="url(#pb0abc1fd58)" style="fill: none; stroke: #800080"/>
    <path d="M 672.247371 184.647727 
L 672.247371 219.488636 
" clip-path="url(#pb0abc1fd58)" style="fill: none; stroke: #800080"/>
    <path d="M 672.751099 184.647727 
L 672.751099 219.488636 
" clip-path="url(#pb0abc1fd58)" style="fill: none; stroke: #800080"/>
    <path d="M 673.355572 184.647727 
L 673.355572 219.488636 
" clip-path="url(#pb0abc1fd58)" style="fill: none; stroke: #800080"/>
    <path d="M 682.503264 184.647727 
L 682.503264 219.488636 
" clip-path="url(#pb0abc1fd58)" style="fill: none; stroke: #800080"/>
    <path d="M 715.890326 184.647727 
L 715.890326 219.488636 
" clip-path="url(#pb0abc1fd58)" style="fill: none; stroke: #800080"/>
    <path d="M 721.552224 184.647727 
L 721.552224 219.488636 
" clip-path="url(#pb0abc1fd58)" style="fill: none; stroke: #800080"/>
    <path d="M 722.217144 184.647727 
L 722.217144 219.488636 
" clip-path="url(#pb0abc1fd58)" style="fill: none; stroke: #800080"/>
    <path d="M 724.635036 184.647727 
L 724.635036 219.488636 
" clip-path="url(#pb0abc1fd58)" style="fill: none; stroke: #800080"/>
    <path d="M 731.425284 184.647727 
L 731.425284 219.488636 
" clip-path="url(#pb0abc1fd58)" style="fill: none; stroke: #800080"/>
    <path d="M 750.828869 184.647727 
L 750.828869 219.488636 
" clip-path="url(#pb0abc1fd58)" style="fill: none; stroke: #800080"/>
    <path d="M 762.555647 184.647727 
L 762.555647 219.488636 
" clip-path="url(#pb0abc1fd58)" style="fill: none; stroke: #800080"/>
    <path d="M 763.885487 184.647727 
L 763.885487 219.488636 
" clip-path="url(#pb0abc1fd58)" style="fill: none; stroke: #800080"/>
    <path d="M 776.740614 184.647727 
L 776.740614 219.488636 
" clip-path="url(#pb0abc1fd58)" style="fill: none; stroke: #800080"/>
    <path d="M 778.231648 184.647727 
L 778.231648 219.488636 
" clip-path="url(#pb0abc1fd58)" style="fill: none; stroke: #800080"/>
    <path d="M 801.564308 184.647727 
L 801.564308 219.488636 
" clip-path="url(#pb0abc1fd58)" style="fill: none; stroke: #800080"/>
    <path d="M 811.235877 184.647727 
L 811.235877 219.488636 
" clip-path="url(#pb0abc1fd58)" style="fill: none; stroke: #800080"/>
    <path d="M 811.759754 184.647727 
L 811.759754 219.488636 
" clip-path="url(#pb0abc1fd58)" style="fill: none; stroke: #800080"/>
    <path d="M 820.484315 184.647727 
L 820.484315 219.488636 
" clip-path="url(#pb0abc1fd58)" style="fill: none; stroke: #800080"/>
    <path d="M 824.695477 184.647727 
L 824.695477 219.488636 
" clip-path="url(#pb0abc1fd58)" style="fill: none; stroke: #800080"/>
    <path d="M 825.360398 184.647727 
L 825.360398 219.488636 
" clip-path="url(#pb0abc1fd58)" style="fill: none; stroke: #800080"/>
    <path d="M 829.773051 184.647727 
L 829.773051 219.488636 
" clip-path="url(#pb0abc1fd58)" style="fill: none; stroke: #800080"/>
    <path d="M 830.296928 184.647727 
L 830.296928 219.488636 
" clip-path="url(#pb0abc1fd58)" style="fill: none; stroke: #800080"/>
    <path d="M 831.969303 184.647727 
L 831.969303 219.488636 
" clip-path="url(#pb0abc1fd58)" style="fill: none; stroke: #800080"/>
    <path d="M 865.154874 184.647727 
L 865.154874 219.488636 
" clip-path="url(#pb0abc1fd58)" style="fill: none; stroke: #800080"/>
    <path d="M 885.424871 184.647727 
L 885.424871 219.488636 
" clip-path="url(#pb0abc1fd58)" style="fill: none; stroke: #800080"/>
    <path d="M 914.016447 184.647727 
L 914.016447 219.488636 
" clip-path="url(#pb0abc1fd58)" style="fill: none; stroke: #800080"/>
    <path d="M 950.405725 184.647727 
L 950.405725 219.488636 
" clip-path="url(#pb0abc1fd58)" style="fill: none; stroke: #800080"/>
    <path d="M 951.87661 184.647727 
L 951.87661 219.488636 
" clip-path="url(#pb0abc1fd58)" style="fill: none; stroke: #800080"/>
   </g>
   <g id="line2d_10">
    <path d="M 88.568182 246.2 
L 88.568182 41.8 
" clip-path="url(#pb0abc1fd58)" style="fill: none; stroke-dasharray: 3.7,1.6; stroke-dashoffset: 0; stroke: #808080"/>
   </g>
   <g id="line2d_11">
    <path d="M 142.305837 246.2 
L 142.305837 41.8 
" clip-path="url(#pb0abc1fd58)" style="fill: none; stroke-dasharray: 3.7,1.6; stroke-dashoffset: 0; stroke: #808080"/>
   </g>
   <g id="line2d_12">
    <path d="M 342.003588 246.2 
L 342.003588 41.8 
" clip-path="url(#pb0abc1fd58)" style="fill: none; stroke-dasharray: 3.7,1.6; stroke-dashoffset: 0; stroke: #808080"/>
   </g>
   <g id="line2d_13">
    <path d="M 390.300986 246.2 
L 390.300986 41.8 
" clip-path="url(#pb0abc1fd58)" style="fill: none; stroke-dasharray: 3.7,1.6; stroke-dashoffset: 0; stroke: #808080"/>
   </g>
   <g id="line2d_14">
    <path d="M 450.607248 246.2 
L 450.607248 41.8 
" clip-path="url(#pb0abc1fd58)" style="fill: none; stroke-dasharray: 3.7,1.6; stroke-dashoffset: 0; stroke: #808080"/>
   </g>
   <g id="line2d_15">
    <path d="M 561.447459 246.2 
L 561.447459 41.8 
" clip-path="url(#pb0abc1fd58)" style="fill: none; stroke-dasharray: 3.7,1.6; stroke-dashoffset: 0; stroke: #808080"/>
   </g>
   <g id="line2d_16">
    <path d="M 673.899597 246.2 
L 673.899597 41.8 
" clip-path="url(#pb0abc1fd58)" style="fill: none; stroke-dasharray: 3.7,1.6; stroke-dashoffset: 0; stroke: #808080"/>
   </g>
   <g id="line2d_17">
    <path d="M 763.885487 246.2 
L 763.885487 41.8 
" clip-path="url(#pb0abc1fd58)" style="fill: none; stroke-dasharray: 3.7,1.6; stroke-dashoffset: 0; stroke: #808080"/>
   </g>
   <g id="line2d_18">
    <path d="M 863.281008 246.2 
L 863.281008 41.8 
" clip-path="url(#pb0abc1fd58)" style="fill: none; stroke-dasharray: 3.7,1.6; stroke-dashoffset: 0; stroke: #808080"/>
   </g>
   <g id="patch_3">
    <path d="M 45.3 246.2 
L 45.3 41.8 
" style="fill: none; stroke: #000000; stroke-width: 0.8; stroke-linejoin: miter; stroke-linecap: square"/>
   </g>
   <g id="patch_4">
    <path d="M 997.2 246.2 
L 997.2 41.8 
" style="fill: none; stroke: #000000; stroke-width: 0.8; stroke-linejoin: miter; stroke-linecap: square"/>
   </g>
   <g id="patch_5">
    <path d="M 45.3 246.2 
L 997.2 246.2 
" style="fill: none; stroke: #000000; stroke-width: 0.8; stroke-linejoin: miter; stroke-linecap: square"/>
   </g>
   <g id="patch_6">
    <path d="M 45.3 41.8 
L 997.2 41.8 
" style="fill: none; stroke: #000000; stroke-width: 0.8; stroke-linejoin: miter; stroke-linecap: square"/>
   </g>
   <g id="text_11">
    <!-- 65:35 -->
    <g style="fill: #808080" transform="translate(90.775682 80.125)rotate(-90)scale(0.08 -0.08)">
     <defs>
      <path id="DejaVuSans-35" d="M 691 4666 
L 3169 4666 
L 3169 4134 
L 1269 4134 
L 1269 2991 
Q 1406 3038 1543 3061 
Q 1681 3084 1819 3084 
Q 2600 3084 3056 2656 
Q 3513 2228 3513 1497 
Q 3513 744 3044 326 
Q 2575 -91 1722 -91 
Q 1428 -91 1123 -41 
Q 819 9 494 109 
L 494 744 
Q 775 591 1075 516 
Q 1375 441 1709 441 
Q 2250 441 2565 725 
Q 2881 1009 2881 1497 
Q 2881 1984 2565 2268 
Q 2250 2553 1709 2553 
Q 1456 2553 1204 2497 
Q 953 2441 691 2322 
L 691 4666 
z
" transform="scale(0.015625)"/>
      <path id="DejaVuSans-3a" d="M 750 794 
L 1409 794 
L 1409 0 
L 750 0 
L 750 794 
z
M 750 3309 
L 1409 3309 
L 1409 2516 
L 750 2516 
L 750 3309 
z
" transform="scale(0.015625)"/>
     </defs>
     <use xlink:href="#DejaVuSans-36"/>
     <use xlink:href="#DejaVuSans-35" x="63.623047"/>
     <use xlink:href="#DejaVuSans-3a" x="127.246094"/>
     <use xlink:href="#DejaVuSans-33" x="160.9375"/>
     <use xlink:href="#DejaVuSans-35" x="224.560547"/>
    </g>
   </g>
   <g id="text_12">
    <!-- 40:10 -->
    <g style="fill: #808080" transform="translate(144.513337 80.125)rotate(-90)scale(0.08 -0.08)">
     <use xlink:href="#DejaVuSans-34"/>
     <use xlink:href="#DejaVuSans-30" x="63.623047"/>
     <use xlink:href="#DejaVuSans-3a" x="127.246094"/>
     <use xlink:href="#DejaVuSans-31" x="160.9375"/>
     <use xlink:href="#DejaVuSans-30" x="224.560547"/>
    </g>
   </g>
   <g id="text_13">
    <!-- 65:35 -->
    <g style="fill: #808080" transform="translate(344.211088 80.125)rotate(-90)scale(0.08 -0.08)">
     <use xlink:href="#DejaVuSans-36"/>
     <use xlink:href="#DejaVuSans-35" x="63.623047"/>
     <use xlink:href="#DejaVuSans-3a" x="127.246094"/>
     <use xlink:href="#DejaVuSans-33" x="160.9375"/>
     <use xlink:href="#DejaVuSans-35" x="224.560547"/>
    </g>
   </g>
   <g id="text_14">
    <!-- 60:90 -->
    <g style="fill: #808080" transform="translate(392.508486 80.125)rotate(-90)scale(0.08 -0.08)">
     <defs>
      <path id="DejaVuSans-39" d="M 703 97 
L 703 672 
Q 941 559 1184 500 
Q 1428 441 1663 441 
Q 2288 441 2617 861 
Q 2947 1281 2994 2138 
Q 2813 1869 2534 1725 
Q 2256 1581 1919 1581 
Q 1219 1581 811 2004 
Q 403 2428 403 3163 
Q 403 3881 828 4315 
Q 1253 4750 1959 4750 
Q 2769 4750 3195 4129 
Q 3622 3509 3622 2328 
Q 3622 1225 3098 567 
Q 2575 -91 1691 -91 
Q 1453 -91 1209 -44 
Q 966 3 703 97 
z
M 1959 2075 
Q 2384 2075 2632 2365 
Q 2881 2656 2881 3163 
Q 2881 3666 2632 3958 
Q 2384 4250 1959 4250 
Q 1534 4250 1286 3958 
Q 1038 3666 1038 3163 
Q 1038 2656 1286 2365 
Q 1534 2075 1959 2075 
z
" transform="scale(0.015625)"/>
     </defs>
     <use xlink:href="#DejaVuSans-36"/>
     <use xlink:href="#DejaVuSans-30" x="63.623047"/>
     <use xlink:href="#DejaVuSans-3a" x="127.246094"/>
     <use xlink:href="#DejaVuSans-39" x="160.9375"/>
     <use xlink:href="#DejaVuSans-30" x="224.560547"/>
    </g>
   </g>
   <g id="text_15">
    <!-- 10:40 -->
    <g style="fill: #808080" transform="translate(452.814748 80.125)rotate(-90)scale(0.08 -0.08)">
     <use xlink:href="#DejaVuSans-31"/>
     <use xlink:href="#DejaVuSans-30" x="63.623047"/>
     <use xlink:href="#DejaVuSans-3a" x="127.246094"/>
     <use xlink:href="#DejaVuSans-34" x="160.9375"/>
     <use xlink:href="#DejaVuSans-30" x="224.560547"/>
    </g>
   </g>
   <g id="text_16">
    <!-- 35:65 -->
    <g style="fill: #808080" transform="translate(563.654959 80.125)rotate(-90)scale(0.08 -0.08)">
     <use xlink:href="#DejaVuSans-33"/>
     <use xlink:href="#DejaVuSans-35" x="63.623047"/>
     <use xlink:href="#DejaVuSans-3a" x="127.246094"/>
     <use xlink:href="#DejaVuSans-36" x="160.9375"/>
     <use xlink:href="#DejaVuSans-35" x="224.560547"/>
    </g>
   </g>
   <g id="text_17">
    <!-- 90:60 -->
    <g style="fill: #808080" transform="translate(676.107097 80.125)rotate(-90)scale(0.08 -0.08)">
     <use xlink:href="#DejaVuSans-39"/>
     <use xlink:href="#DejaVuSans-30" x="63.623047"/>
     <use xlink:href="#DejaVuSans-3a" x="127.246094"/>
     <use xlink:href="#DejaVuSans-36" x="160.9375"/>
     <use xlink:href="#DejaVuSans-30" x="224.560547"/>
    </g>
   </g>
   <g id="text_18">
    <!-- 65:35 -->
    <g style="fill: #808080" transform="translate(766.092987 80.125)rotate(-90)scale(0.08 -0.08)">
     <use xlink:href="#DejaVuSans-36"/>
     <use xlink:href="#DejaVuSans-35" x="63.623047"/>
     <use xlink:href="#DejaVuSans-3a" x="127.246094"/>
     <use xlink:href="#DejaVuSans-33" x="160.9375"/>
     <use xlink:href="#DejaVuSans-35" x="224.560547"/>
    </g>
   </g>
   <g id="text_19">
    <!-- 90:60 -->
    <g style="fill: #808080" transform="translate(865.488508 80.125)rotate(-90)scale(0.08 -0.08)">
     <use xlink:href="#DejaVuSans-39"/>
     <use xlink:href="#DejaVuSans-30" x="63.623047"/>
     <use xlink:href="#DejaVuSans-3a" x="127.246094"/>
     <use xlink:href="#DejaVuSans-36" x="160.9375"/>
     <use xlink:href="#DejaVuSans-30" x="224.560547"/>
    </g>
   </g>
   <g id="text_20">
    <!-- Bandit Task Events Over 12 Hours -->
    <g transform="translate(419.379375 22.362625)scale(0.12 -0.12)">
     <defs>
      <path id="DejaVuSans-42" d="M 1259 2228 
L 1259 519 
L 2272 519 
Q 2781 519 3026 730 
Q 3272 941 3272 1375 
Q 3272 1813 3026 2020 
Q 2781 2228 2272 2228 
L 1259 2228 
z
M 1259 4147 
L 1259 2741 
L 2194 2741 
Q 2656 2741 2882 2914 
Q 3109 3088 3109 3444 
Q 3109 3797 2882 3972 
Q 2656 4147 2194 4147 
L 1259 4147 
z
M 628 4666 
L 2241 4666 
Q 2963 4666 3353 4366 
Q 3744 4066 3744 3513 
Q 3744 3084 3544 2831 
Q 3344 2578 2956 2516 
Q 3422 2416 3680 2098 
Q 3938 1781 3938 1306 
Q 3938 681 3513 340 
Q 3088 0 2303 0 
L 628 0 
L 628 4666 
z
" transform="scale(0.015625)"/>
      <path id="DejaVuSans-61" d="M 2194 1759 
Q 1497 1759 1228 1600 
Q 959 1441 959 1056 
Q 959 750 1161 570 
Q 1363 391 1709 391 
Q 2188 391 2477 730 
Q 2766 1069 2766 1631 
L 2766 1759 
L 2194 1759 
z
M 3341 1997 
L 3341 0 
L 2766 0 
L 2766 531 
Q 2569 213 2275 61 
Q 1981 -91 1556 -91 
Q 1019 -91 701 211 
Q 384 513 384 1019 
Q 384 1609 779 1909 
Q 1175 2209 1959 2209 
L 2766 2209 
L 2766 2266 
Q 2766 2663 2505 2880 
Q 2244 3097 1772 3097 
Q 1472 3097 1187 3025 
Q 903 2953 641 2809 
L 641 3341 
Q 956 3463 1253 3523 
Q 1550 3584 1831 3584 
Q 2591 3584 2966 3190 
Q 3341 2797 3341 1997 
z
" transform="scale(0.015625)"/>
      <path id="DejaVuSans-6e" d="M 3513 2113 
L 3513 0 
L 2938 0 
L 2938 2094 
Q 2938 2591 2744 2837 
Q 2550 3084 2163 3084 
Q 1697 3084 1428 2787 
Q 1159 2491 1159 1978 
L 1159 0 
L 581 0 
L 581 3500 
L 1159 3500 
L 1159 2956 
Q 1366 3272 1645 3428 
Q 1925 3584 2291 3584 
Q 2894 3584 3203 3211 
Q 3513 2838 3513 2113 
z
" transform="scale(0.015625)"/>
      <path id="DejaVuSans-64" d="M 2906 2969 
L 2906 4863 
L 3481 4863 
L 3481 0 
L 2906 0 
L 2906 525 
Q 2725 213 2448 61 
Q 2172 -91 1784 -91 
Q 1150 -91 751 415 
Q 353 922 353 1747 
Q 353 2572 751 3078 
Q 1150 3584 1784 3584 
Q 2172 3584 2448 3432 
Q 2725 3281 2906 2969 
z
M 947 1747 
Q 947 1113 1208 752 
Q 1469 391 1925 391 
Q 2381 391 2643 752 
Q 2906 1113 2906 1747 
Q 2906 2381 2643 2742 
Q 2381 3103 1925 3103 
Q 1469 3103 1208 2742 
Q 947 2381 947 1747 
z
" transform="scale(0.015625)"/>
      <path id="DejaVuSans-73" d="M 2834 3397 
L 2834 2853 
Q 2591 2978 2328 3040 
Q 2066 3103 1784 3103 
Q 1356 3103 1142 2972 
Q 928 2841 928 2578 
Q 928 2378 1081 2264 
Q 1234 2150 1697 2047 
L 1894 2003 
Q 2506 1872 2764 1633 
Q 3022 1394 3022 966 
Q 3022 478 2636 193 
Q 2250 -91 1575 -91 
Q 1294 -91 989 -36 
Q 684 19 347 128 
L 347 722 
Q 666 556 975 473 
Q 1284 391 1588 391 
Q 1994 391 2212 530 
Q 2431 669 2431 922 
Q 2431 1156 2273 1281 
Q 2116 1406 1581 1522 
L 1381 1569 
Q 847 1681 609 1914 
Q 372 2147 372 2553 
Q 372 3047 722 3315 
Q 1072 3584 1716 3584 
Q 2034 3584 2315 3537 
Q 2597 3491 2834 3397 
z
" transform="scale(0.015625)"/>
      <path id="DejaVuSans-6b" d="M 581 4863 
L 1159 4863 
L 1159 1991 
L 2875 3500 
L 3609 3500 
L 1753 1863 
L 3688 0 
L 2938 0 
L 1159 1709 
L 1159 0 
L 581 0 
L 581 4863 
z
" transform="scale(0.015625)"/>
      <path id="DejaVuSans-45" d="M 628 4666 
L 3578 4666 
L 3578 4134 
L 1259 4134 
L 1259 2753 
L 3481 2753 
L 3481 2222 
L 1259 2222 
L 1259 531 
L 3634 531 
L 3634 0 
L 628 0 
L 628 4666 
z
" transform="scale(0.015625)"/>
      <path id="DejaVuSans-76" d="M 191 3500 
L 800 3500 
L 1894 563 
L 2988 3500 
L 3597 3500 
L 2284 0 
L 1503 0 
L 191 3500 
z
" transform="scale(0.015625)"/>
      <path id="DejaVuSans-4f" d="M 2522 4238 
Q 1834 4238 1429 3725 
Q 1025 3213 1025 2328 
Q 1025 1447 1429 934 
Q 1834 422 2522 422 
Q 3209 422 3611 934 
Q 4013 1447 4013 2328 
Q 4013 3213 3611 3725 
Q 3209 4238 2522 4238 
z
M 2522 4750 
Q 3503 4750 4090 4092 
Q 4678 3434 4678 2328 
Q 4678 1225 4090 567 
Q 3503 -91 2522 -91 
Q 1538 -91 948 565 
Q 359 1222 359 2328 
Q 359 3434 948 4092 
Q 1538 4750 2522 4750 
z
" transform="scale(0.015625)"/>
      <path id="DejaVuSans-72" d="M 2631 2963 
Q 2534 3019 2420 3045 
Q 2306 3072 2169 3072 
Q 1681 3072 1420 2755 
Q 1159 2438 1159 1844 
L 1159 0 
L 581 0 
L 581 3500 
L 1159 3500 
L 1159 2956 
Q 1341 3275 1631 3429 
Q 1922 3584 2338 3584 
Q 2397 3584 2469 3576 
Q 2541 3569 2628 3553 
L 2631 2963 
z
" transform="scale(0.015625)"/>
      <path id="DejaVuSans-48" d="M 628 4666 
L 1259 4666 
L 1259 2753 
L 3553 2753 
L 3553 4666 
L 4184 4666 
L 4184 0 
L 3553 0 
L 3553 2222 
L 1259 2222 
L 1259 0 
L 628 0 
L 628 4666 
z
" transform="scale(0.015625)"/>
      <path id="DejaVuSans-6f" d="M 1959 3097 
Q 1497 3097 1228 2736 
Q 959 2375 959 1747 
Q 959 1119 1226 758 
Q 1494 397 1959 397 
Q 2419 397 2687 759 
Q 2956 1122 2956 1747 
Q 2956 2369 2687 2733 
Q 2419 3097 1959 3097 
z
M 1959 3584 
Q 2709 3584 3137 3096 
Q 3566 2609 3566 1747 
Q 3566 888 3137 398 
Q 2709 -91 1959 -91 
Q 1206 -91 779 398 
Q 353 888 353 1747 
Q 353 2609 779 3096 
Q 1206 3584 1959 3584 
z
" transform="scale(0.015625)"/>
      <path id="DejaVuSans-75" d="M 544 1381 
L 544 3500 
L 1119 3500 
L 1119 1403 
Q 1119 906 1312 657 
Q 1506 409 1894 409 
Q 2359 409 2629 706 
Q 2900 1003 2900 1516 
L 2900 3500 
L 3475 3500 
L 3475 0 
L 2900 0 
L 2900 538 
Q 2691 219 2414 64 
Q 2138 -91 1772 -91 
Q 1169 -91 856 284 
Q 544 659 544 1381 
z
M 1991 3584 
L 1991 3584 
z
" transform="scale(0.015625)"/>
     </defs>
     <use xlink:href="#DejaVuSans-42"/>
     <use xlink:href="#DejaVuSans-61" x="68.603516"/>
     <use xlink:href="#DejaVuSans-6e" x="129.882812"/>
     <use xlink:href="#DejaVuSans-64" x="193.261719"/>
     <use xlink:href="#DejaVuSans-69" x="256.738281"/>
     <use xlink:href="#DejaVuSans-74" x="284.521484"/>
     <use xlink:href="#DejaVuSans-20" x="323.730469"/>
     <use xlink:href="#DejaVuSans-54" x="355.517578"/>
     <use xlink:href="#DejaVuSans-61" x="400.101562"/>
     <use xlink:href="#DejaVuSans-73" x="461.380859"/>
     <use xlink:href="#DejaVuSans-6b" x="513.480469"/>
     <use xlink:href="#DejaVuSans-20" x="571.390625"/>
     <use xlink:href="#DejaVuSans-45" x="603.177734"/>
     <use xlink:href="#DejaVuSans-76" x="666.361328"/>
     <use xlink:href="#DejaVuSans-65" x="725.541016"/>
     <use xlink:href="#DejaVuSans-6e" x="787.064453"/>
     <use xlink:href="#DejaVuSans-74" x="850.443359"/>
     <use xlink:href="#DejaVuSans-73" x="889.652344"/>
     <use xlink:href="#DejaVuSans-20" x="941.751953"/>
     <use xlink:href="#DejaVuSans-4f" x="973.539062"/>
     <use xlink:href="#DejaVuSans-76" x="1052.25"/>
     <use xlink:href="#DejaVuSans-65" x="1111.429688"/>
     <use xlink:href="#DejaVuSans-72" x="1172.953125"/>
     <use xlink:href="#DejaVuSans-20" x="1214.066406"/>
     <use xlink:href="#DejaVuSans-31" x="1245.853516"/>
     <use xlink:href="#DejaVuSans-32" x="1309.476562"/>
     <use xlink:href="#DejaVuSans-20" x="1373.099609"/>
     <use xlink:href="#DejaVuSans-48" x="1404.886719"/>
     <use xlink:href="#DejaVuSans-6f" x="1480.082031"/>
     <use xlink:href="#DejaVuSans-75" x="1541.263672"/>
     <use xlink:href="#DejaVuSans-72" x="1604.642578"/>
     <use xlink:href="#DejaVuSans-73" x="1645.755859"/>
    </g>
    <!-- (With Block Switch Markers) -->
    <g transform="translate(437.3025 35.8)scale(0.12 -0.12)">
     <defs>
      <path id="DejaVuSans-28" d="M 1984 4856 
Q 1566 4138 1362 3434 
Q 1159 2731 1159 2009 
Q 1159 1288 1364 580 
Q 1569 -128 1984 -844 
L 1484 -844 
Q 1016 -109 783 600 
Q 550 1309 550 2009 
Q 550 2706 781 3412 
Q 1013 4119 1484 4856 
L 1984 4856 
z
" transform="scale(0.015625)"/>
      <path id="DejaVuSans-57" d="M 213 4666 
L 850 4666 
L 1831 722 
L 2809 4666 
L 3519 4666 
L 4500 722 
L 5478 4666 
L 6119 4666 
L 4947 0 
L 4153 0 
L 3169 4050 
L 2175 0 
L 1381 0 
L 213 4666 
z
" transform="scale(0.015625)"/>
      <path id="DejaVuSans-63" d="M 3122 3366 
L 3122 2828 
Q 2878 2963 2633 3030 
Q 2388 3097 2138 3097 
Q 1578 3097 1268 2742 
Q 959 2388 959 1747 
Q 959 1106 1268 751 
Q 1578 397 2138 397 
Q 2388 397 2633 464 
Q 2878 531 3122 666 
L 3122 134 
Q 2881 22 2623 -34 
Q 2366 -91 2075 -91 
Q 1284 -91 818 406 
Q 353 903 353 1747 
Q 353 2603 823 3093 
Q 1294 3584 2113 3584 
Q 2378 3584 2631 3529 
Q 2884 3475 3122 3366 
z
" transform="scale(0.015625)"/>
      <path id="DejaVuSans-53" d="M 3425 4513 
L 3425 3897 
Q 3066 4069 2747 4153 
Q 2428 4238 2131 4238 
Q 1616 4238 1336 4038 
Q 1056 3838 1056 3469 
Q 1056 3159 1242 3001 
Q 1428 2844 1947 2747 
L 2328 2669 
Q 3034 2534 3370 2195 
Q 3706 1856 3706 1288 
Q 3706 609 3251 259 
Q 2797 -91 1919 -91 
Q 1588 -91 1214 -16 
Q 841 59 441 206 
L 441 856 
Q 825 641 1194 531 
Q 1563 422 1919 422 
Q 2459 422 2753 634 
Q 3047 847 3047 1241 
Q 3047 1584 2836 1778 
Q 2625 1972 2144 2069 
L 1759 2144 
Q 1053 2284 737 2584 
Q 422 2884 422 3419 
Q 422 4038 858 4394 
Q 1294 4750 2059 4750 
Q 2388 4750 2728 4690 
Q 3069 4631 3425 4513 
z
" transform="scale(0.015625)"/>
      <path id="DejaVuSans-77" d="M 269 3500 
L 844 3500 
L 1563 769 
L 2278 3500 
L 2956 3500 
L 3675 769 
L 4391 3500 
L 4966 3500 
L 4050 0 
L 3372 0 
L 2619 2869 
L 1863 0 
L 1184 0 
L 269 3500 
z
" transform="scale(0.015625)"/>
      <path id="DejaVuSans-4d" d="M 628 4666 
L 1569 4666 
L 2759 1491 
L 3956 4666 
L 4897 4666 
L 4897 0 
L 4281 0 
L 4281 4097 
L 3078 897 
L 2444 897 
L 1241 4097 
L 1241 0 
L 628 0 
L 628 4666 
z
" transform="scale(0.015625)"/>
      <path id="DejaVuSans-29" d="M 513 4856 
L 1013 4856 
Q 1481 4119 1714 3412 
Q 1947 2706 1947 2009 
Q 1947 1309 1714 600 
Q 1481 -109 1013 -844 
L 513 -844 
Q 928 -128 1133 580 
Q 1338 1288 1338 2009 
Q 1338 2731 1133 3434 
Q 928 4138 513 4856 
z
" transform="scale(0.015625)"/>
     </defs>
     <use xlink:href="#DejaVuSans-28"/>
     <use xlink:href="#DejaVuSans-57" x="39.013672"/>
     <use xlink:href="#DejaVuSans-69" x="135.640625"/>
     <use xlink:href="#DejaVuSans-74" x="163.423828"/>
     <use xlink:href="#DejaVuSans-68" x="202.632812"/>
     <use xlink:href="#DejaVuSans-20" x="266.011719"/>
     <use xlink:href="#DejaVuSans-42" x="297.798828"/>
     <use xlink:href="#DejaVuSans-6c" x="366.402344"/>
     <use xlink:href="#DejaVuSans-6f" x="394.185547"/>
     <use xlink:href="#DejaVuSans-63" x="455.367188"/>
     <use xlink:href="#DejaVuSans-6b" x="510.347656"/>
     <use xlink:href="#DejaVuSans-20" x="568.257812"/>
     <use xlink:href="#DejaVuSans-53" x="600.044922"/>
     <use xlink:href="#DejaVuSans-77" x="663.521484"/>
     <use xlink:href="#DejaVuSans-69" x="745.308594"/>
     <use xlink:href="#DejaVuSans-74" x="773.091797"/>
     <use xlink:href="#DejaVuSans-63" x="812.300781"/>
     <use xlink:href="#DejaVuSans-68" x="867.28125"/>
     <use xlink:href="#DejaVuSans-20" x="930.660156"/>
     <use xlink:href="#DejaVuSans-4d" x="962.447266"/>
     <use xlink:href="#DejaVuSans-61" x="1048.726562"/>
     <use xlink:href="#DejaVuSans-72" x="1110.005859"/>
     <use xlink:href="#DejaVuSans-6b" x="1151.119141"/>
     <use xlink:href="#DejaVuSans-65" x="1205.404297"/>
     <use xlink:href="#DejaVuSans-72" x="1266.927734"/>
     <use xlink:href="#DejaVuSans-73" x="1308.041016"/>
     <use xlink:href="#DejaVuSans-29" x="1360.140625"/>
    </g>
   </g>
  </g>
 </g>
 <defs>
  <clipPath id="pb0abc1fd58">
   <rect x="45.3" y="41.8" width="951.9" height="204.4"/>
  </clipPath>
 </defs>
</svg>
