<?xml version="1.0" encoding="utf-8" standalone="no"?>
<!DOCTYPE svg PUBLIC "-//W3C//DTD SVG 1.1//EN"
  "http://www.w3.org/Graphics/SVG/1.1/DTD/svg11.dtd">
<!-- Created with matplotlib (https://matplotlib.org/) -->
<svg height="432pt" version="1.1" viewBox="0 0 720 432" width="720pt" xmlns="http://www.w3.org/2000/svg" xmlns:xlink="http://www.w3.org/1999/xlink">
 <metadata>
  <rdf:RDF xmlns:cc="http://creativecommons.org/ns#" xmlns:dc="http://purl.org/dc/elements/1.1/" xmlns:rdf="http://www.w3.org/1999/02/22-rdf-syntax-ns#">
   <cc:Work>
    <dc:type rdf:resource="http://purl.org/dc/dcmitype/StillImage"/>
    <dc:date>2025-01-29T23:36:49.500437</dc:date>
    <dc:format>image/svg+xml</dc:format>
    <dc:creator>
     <cc:Agent>
      <dc:title>Matplotlib v3.3.4, https://matplotlib.org/</dc:title>
     </cc:Agent>
    </dc:creator>
   </cc:Work>
  </rdf:RDF>
 </metadata>
 <defs>
  <style type="text/css">*{stroke-linecap:butt;stroke-linejoin:round;}</style>
 </defs>
 <g id="figure_1">
  <g id="patch_1">
   <path d="M 0 432 
L 720 432 
L 720 0 
L 0 0 
z
" style="fill:#ffffff;"/>
  </g>
  <g id="axes_1">
   <g id="patch_2">
    <path d="M 90 378 
L 648 378 
L 648 51.84 
L 90 51.84 
z
" style="fill:#ffffff;"/>
   </g>
   <g id="matplotlib.axis_1">
    <g id="xtick_1">
     <g id="line2d_1">
      <path clip-path="url(#pd880c72a1c)" d="M 106.59277 378 
L 106.59277 51.84 
" style="fill:none;stroke:#b0b0b0;stroke-linecap:square;stroke-width:0.8;"/>
     </g>
     <g id="line2d_2">
      <defs>
       <path d="M 0 0 
L 0 3.5 
" id="m89f7dee0f0" style="stroke:#000000;stroke-width:0.8;"/>
      </defs>
      <g>
       <use style="stroke:#000000;stroke-width:0.8;" x="106.59277" xlink:href="#m89f7dee0f0" y="378"/>
      </g>
     </g>
     <g id="text_1">
      <!-- $\mathdefault{10^{0}}$ -->
      <g transform="translate(97.79277 392.598437)scale(0.1 -0.1)">
       <defs>
        <path d="M 12.40625 8.296875 
L 28.515625 8.296875 
L 28.515625 63.921875 
L 10.984375 60.40625 
L 10.984375 69.390625 
L 28.421875 72.90625 
L 38.28125 72.90625 
L 38.28125 8.296875 
L 54.390625 8.296875 
L 54.390625 0 
L 12.40625 0 
z
" id="DejaVuSans-49"/>
        <path d="M 31.78125 66.40625 
Q 24.171875 66.40625 20.328125 58.90625 
Q 16.5 51.421875 16.5 36.375 
Q 16.5 21.390625 20.328125 13.890625 
Q 24.171875 6.390625 31.78125 6.390625 
Q 39.453125 6.390625 43.28125 13.890625 
Q 47.125 21.390625 47.125 36.375 
Q 47.125 51.421875 43.28125 58.90625 
Q 39.453125 66.40625 31.78125 66.40625 
z
M 31.78125 74.21875 
Q 44.046875 74.21875 50.515625 64.515625 
Q 56.984375 54.828125 56.984375 36.375 
Q 56.984375 17.96875 50.515625 8.265625 
Q 44.046875 -1.421875 31.78125 -1.421875 
Q 19.53125 -1.421875 13.0625 8.265625 
Q 6.59375 17.96875 6.59375 36.375 
Q 6.59375 54.828125 13.0625 64.515625 
Q 19.53125 74.21875 31.78125 74.21875 
z
" id="DejaVuSans-48"/>
       </defs>
       <use transform="translate(0 0.765625)" xlink:href="#DejaVuSans-49"/>
       <use transform="translate(63.623047 0.765625)" xlink:href="#DejaVuSans-48"/>
       <use transform="translate(128.203125 39.046875)scale(0.7)" xlink:href="#DejaVuSans-48"/>
      </g>
     </g>
    </g>
    <g id="xtick_2">
     <g id="line2d_3">
      <path clip-path="url(#pd880c72a1c)" d="M 287.061847 378 
L 287.061847 51.84 
" style="fill:none;stroke:#b0b0b0;stroke-linecap:square;stroke-width:0.8;"/>
     </g>
     <g id="line2d_4">
      <g>
       <use style="stroke:#000000;stroke-width:0.8;" x="287.061847" xlink:href="#m89f7dee0f0" y="378"/>
      </g>
     </g>
     <g id="text_2">
      <!-- $\mathdefault{10^{1}}$ -->
      <g transform="translate(278.261847 392.598437)scale(0.1 -0.1)">
       <use transform="translate(0 0.684375)" xlink:href="#DejaVuSans-49"/>
       <use transform="translate(63.623047 0.684375)" xlink:href="#DejaVuSans-48"/>
       <use transform="translate(128.203125 38.965625)scale(0.7)" xlink:href="#DejaVuSans-49"/>
      </g>
     </g>
    </g>
    <g id="xtick_3">
     <g id="line2d_5">
      <path clip-path="url(#pd880c72a1c)" d="M 467.530923 378 
L 467.530923 51.84 
" style="fill:none;stroke:#b0b0b0;stroke-linecap:square;stroke-width:0.8;"/>
     </g>
     <g id="line2d_6">
      <g>
       <use style="stroke:#000000;stroke-width:0.8;" x="467.530923" xlink:href="#m89f7dee0f0" y="378"/>
      </g>
     </g>
     <g id="text_3">
      <!-- $\mathdefault{10^{2}}$ -->
      <g transform="translate(458.730923 392.598437)scale(0.1 -0.1)">
       <defs>
        <path d="M 19.1875 8.296875 
L 53.609375 8.296875 
L 53.609375 0 
L 7.328125 0 
L 7.328125 8.296875 
Q 12.9375 14.109375 22.625 23.890625 
Q 32.328125 33.6875 34.8125 36.53125 
Q 39.546875 41.84375 41.421875 45.53125 
Q 43.3125 49.21875 43.3125 52.78125 
Q 43.3125 58.59375 39.234375 62.25 
Q 35.15625 65.921875 28.609375 65.921875 
Q 23.96875 65.921875 18.8125 64.3125 
Q 13.671875 62.703125 7.8125 59.421875 
L 7.8125 69.390625 
Q 13.765625 71.78125 18.9375 73 
Q 24.125 74.21875 28.421875 74.21875 
Q 39.75 74.21875 46.484375 68.546875 
Q 53.21875 62.890625 53.21875 53.421875 
Q 53.21875 48.921875 51.53125 44.890625 
Q 49.859375 40.875 45.40625 35.40625 
Q 44.1875 33.984375 37.640625 27.21875 
Q 31.109375 20.453125 19.1875 8.296875 
z
" id="DejaVuSans-50"/>
       </defs>
       <use transform="translate(0 0.765625)" xlink:href="#DejaVuSans-49"/>
       <use transform="translate(63.623047 0.765625)" xlink:href="#DejaVuSans-48"/>
       <use transform="translate(128.203125 39.046875)scale(0.7)" xlink:href="#DejaVuSans-50"/>
      </g>
     </g>
    </g>
    <g id="xtick_4">
     <g id="line2d_7">
      <path clip-path="url(#pd880c72a1c)" d="M 648 378 
L 648 51.84 
" style="fill:none;stroke:#b0b0b0;stroke-linecap:square;stroke-width:0.8;"/>
     </g>
     <g id="line2d_8">
      <g>
       <use style="stroke:#000000;stroke-width:0.8;" x="648" xlink:href="#m89f7dee0f0" y="378"/>
      </g>
     </g>
     <g id="text_4">
      <!-- $\mathdefault{10^{3}}$ -->
      <g transform="translate(639.2 392.598437)scale(0.1 -0.1)">
       <defs>
        <path d="M 40.578125 39.3125 
Q 47.65625 37.796875 51.625 33 
Q 55.609375 28.21875 55.609375 21.1875 
Q 55.609375 10.40625 48.1875 4.484375 
Q 40.765625 -1.421875 27.09375 -1.421875 
Q 22.515625 -1.421875 17.65625 -0.515625 
Q 12.796875 0.390625 7.625 2.203125 
L 7.625 11.71875 
Q 11.71875 9.328125 16.59375 8.109375 
Q 21.484375 6.890625 26.8125 6.890625 
Q 36.078125 6.890625 40.9375 10.546875 
Q 45.796875 14.203125 45.796875 21.1875 
Q 45.796875 27.640625 41.28125 31.265625 
Q 36.765625 34.90625 28.71875 34.90625 
L 20.21875 34.90625 
L 20.21875 43.015625 
L 29.109375 43.015625 
Q 36.375 43.015625 40.234375 45.921875 
Q 44.09375 48.828125 44.09375 54.296875 
Q 44.09375 59.90625 40.109375 62.90625 
Q 36.140625 65.921875 28.71875 65.921875 
Q 24.65625 65.921875 20.015625 65.03125 
Q 15.375 64.15625 9.8125 62.3125 
L 9.8125 71.09375 
Q 15.4375 72.65625 20.34375 73.4375 
Q 25.25 74.21875 29.59375 74.21875 
Q 40.828125 74.21875 47.359375 69.109375 
Q 53.90625 64.015625 53.90625 55.328125 
Q 53.90625 49.265625 50.4375 45.09375 
Q 46.96875 40.921875 40.578125 39.3125 
z
" id="DejaVuSans-51"/>
       </defs>
       <use transform="translate(0 0.765625)" xlink:href="#DejaVuSans-49"/>
       <use transform="translate(63.623047 0.765625)" xlink:href="#DejaVuSans-48"/>
       <use transform="translate(128.203125 39.046875)scale(0.7)" xlink:href="#DejaVuSans-51"/>
      </g>
     </g>
    </g>
    <g id="xtick_5">
     <g id="line2d_9">
      <defs>
       <path d="M 0 0 
L 0 2 
" id="m99cc22187b" style="stroke:#000000;stroke-width:0.6;"/>
      </defs>
      <g>
       <use style="stroke:#000000;stroke-width:0.6;" x="98.334958" xlink:href="#m99cc22187b" y="378"/>
      </g>
     </g>
    </g>
    <g id="xtick_6">
     <g id="line2d_10">
      <g>
       <use style="stroke:#000000;stroke-width:0.6;" x="160.919375" xlink:href="#m99cc22187b" y="378"/>
      </g>
     </g>
    </g>
    <g id="xtick_7">
     <g id="line2d_11">
      <g>
       <use style="stroke:#000000;stroke-width:0.6;" x="192.698402" xlink:href="#m99cc22187b" y="378"/>
      </g>
     </g>
    </g>
    <g id="xtick_8">
     <g id="line2d_12">
      <g>
       <use style="stroke:#000000;stroke-width:0.6;" x="215.245981" xlink:href="#m99cc22187b" y="378"/>
      </g>
     </g>
    </g>
    <g id="xtick_9">
     <g id="line2d_13">
      <g>
       <use style="stroke:#000000;stroke-width:0.6;" x="232.735241" xlink:href="#m99cc22187b" y="378"/>
      </g>
     </g>
    </g>
    <g id="xtick_10">
     <g id="line2d_14">
      <g>
       <use style="stroke:#000000;stroke-width:0.6;" x="247.025008" xlink:href="#m99cc22187b" y="378"/>
      </g>
     </g>
    </g>
    <g id="xtick_11">
     <g id="line2d_15">
      <g>
       <use style="stroke:#000000;stroke-width:0.6;" x="259.106833" xlink:href="#m99cc22187b" y="378"/>
      </g>
     </g>
    </g>
    <g id="xtick_12">
     <g id="line2d_16">
      <g>
       <use style="stroke:#000000;stroke-width:0.6;" x="269.572586" xlink:href="#m99cc22187b" y="378"/>
      </g>
     </g>
    </g>
    <g id="xtick_13">
     <g id="line2d_17">
      <g>
       <use style="stroke:#000000;stroke-width:0.6;" x="278.804035" xlink:href="#m99cc22187b" y="378"/>
      </g>
     </g>
    </g>
    <g id="xtick_14">
     <g id="line2d_18">
      <g>
       <use style="stroke:#000000;stroke-width:0.6;" x="341.388452" xlink:href="#m99cc22187b" y="378"/>
      </g>
     </g>
    </g>
    <g id="xtick_15">
     <g id="line2d_19">
      <g>
       <use style="stroke:#000000;stroke-width:0.6;" x="373.167479" xlink:href="#m99cc22187b" y="378"/>
      </g>
     </g>
    </g>
    <g id="xtick_16">
     <g id="line2d_20">
      <g>
       <use style="stroke:#000000;stroke-width:0.6;" x="395.715057" xlink:href="#m99cc22187b" y="378"/>
      </g>
     </g>
    </g>
    <g id="xtick_17">
     <g id="line2d_21">
      <g>
       <use style="stroke:#000000;stroke-width:0.6;" x="413.204318" xlink:href="#m99cc22187b" y="378"/>
      </g>
     </g>
    </g>
    <g id="xtick_18">
     <g id="line2d_22">
      <g>
       <use style="stroke:#000000;stroke-width:0.6;" x="427.494084" xlink:href="#m99cc22187b" y="378"/>
      </g>
     </g>
    </g>
    <g id="xtick_19">
     <g id="line2d_23">
      <g>
       <use style="stroke:#000000;stroke-width:0.6;" x="439.57591" xlink:href="#m99cc22187b" y="378"/>
      </g>
     </g>
    </g>
    <g id="xtick_20">
     <g id="line2d_24">
      <g>
       <use style="stroke:#000000;stroke-width:0.6;" x="450.041663" xlink:href="#m99cc22187b" y="378"/>
      </g>
     </g>
    </g>
    <g id="xtick_21">
     <g id="line2d_25">
      <g>
       <use style="stroke:#000000;stroke-width:0.6;" x="459.273111" xlink:href="#m99cc22187b" y="378"/>
      </g>
     </g>
    </g>
    <g id="xtick_22">
     <g id="line2d_26">
      <g>
       <use style="stroke:#000000;stroke-width:0.6;" x="521.857529" xlink:href="#m99cc22187b" y="378"/>
      </g>
     </g>
    </g>
    <g id="xtick_23">
     <g id="line2d_27">
      <g>
       <use style="stroke:#000000;stroke-width:0.6;" x="553.636556" xlink:href="#m99cc22187b" y="378"/>
      </g>
     </g>
    </g>
    <g id="xtick_24">
     <g id="line2d_28">
      <g>
       <use style="stroke:#000000;stroke-width:0.6;" x="576.184134" xlink:href="#m99cc22187b" y="378"/>
      </g>
     </g>
    </g>
    <g id="xtick_25">
     <g id="line2d_29">
      <g>
       <use style="stroke:#000000;stroke-width:0.6;" x="593.673395" xlink:href="#m99cc22187b" y="378"/>
      </g>
     </g>
    </g>
    <g id="xtick_26">
     <g id="line2d_30">
      <g>
       <use style="stroke:#000000;stroke-width:0.6;" x="607.963161" xlink:href="#m99cc22187b" y="378"/>
      </g>
     </g>
    </g>
    <g id="xtick_27">
     <g id="line2d_31">
      <g>
       <use style="stroke:#000000;stroke-width:0.6;" x="620.044986" xlink:href="#m99cc22187b" y="378"/>
      </g>
     </g>
    </g>
    <g id="xtick_28">
     <g id="line2d_32">
      <g>
       <use style="stroke:#000000;stroke-width:0.6;" x="630.510739" xlink:href="#m99cc22187b" y="378"/>
      </g>
     </g>
    </g>
    <g id="xtick_29">
     <g id="line2d_33">
      <g>
       <use style="stroke:#000000;stroke-width:0.6;" x="639.742188" xlink:href="#m99cc22187b" y="378"/>
      </g>
     </g>
    </g>
    <g id="text_5">
     <!-- Price Paid -->
     <g transform="translate(344.796094 406.276563)scale(0.1 -0.1)">
      <defs>
       <path d="M 19.671875 64.796875 
L 19.671875 37.40625 
L 32.078125 37.40625 
Q 38.96875 37.40625 42.71875 40.96875 
Q 46.484375 44.53125 46.484375 51.125 
Q 46.484375 57.671875 42.71875 61.234375 
Q 38.96875 64.796875 32.078125 64.796875 
z
M 9.8125 72.90625 
L 32.078125 72.90625 
Q 44.34375 72.90625 50.609375 67.359375 
Q 56.890625 61.8125 56.890625 51.125 
Q 56.890625 40.328125 50.609375 34.8125 
Q 44.34375 29.296875 32.078125 29.296875 
L 19.671875 29.296875 
L 19.671875 0 
L 9.8125 0 
z
" id="DejaVuSans-80"/>
       <path d="M 41.109375 46.296875 
Q 39.59375 47.171875 37.8125 47.578125 
Q 36.03125 48 33.890625 48 
Q 26.265625 48 22.1875 43.046875 
Q 18.109375 38.09375 18.109375 28.8125 
L 18.109375 0 
L 9.078125 0 
L 9.078125 54.6875 
L 18.109375 54.6875 
L 18.109375 46.1875 
Q 20.953125 51.171875 25.484375 53.578125 
Q 30.03125 56 36.53125 56 
Q 37.453125 56 38.578125 55.875 
Q 39.703125 55.765625 41.0625 55.515625 
z
" id="DejaVuSans-114"/>
       <path d="M 9.421875 54.6875 
L 18.40625 54.6875 
L 18.40625 0 
L 9.421875 0 
z
M 9.421875 75.984375 
L 18.40625 75.984375 
L 18.40625 64.59375 
L 9.421875 64.59375 
z
" id="DejaVuSans-105"/>
       <path d="M 48.78125 52.59375 
L 48.78125 44.1875 
Q 44.96875 46.296875 41.140625 47.34375 
Q 37.3125 48.390625 33.40625 48.390625 
Q 24.65625 48.390625 19.8125 42.84375 
Q 14.984375 37.3125 14.984375 27.296875 
Q 14.984375 17.28125 19.8125 11.734375 
Q 24.65625 6.203125 33.40625 6.203125 
Q 37.3125 6.203125 41.140625 7.25 
Q 44.96875 8.296875 48.78125 10.40625 
L 48.78125 2.09375 
Q 45.015625 0.34375 40.984375 -0.53125 
Q 36.96875 -1.421875 32.421875 -1.421875 
Q 20.0625 -1.421875 12.78125 6.34375 
Q 5.515625 14.109375 5.515625 27.296875 
Q 5.515625 40.671875 12.859375 48.328125 
Q 20.21875 56 33.015625 56 
Q 37.15625 56 41.109375 55.140625 
Q 45.0625 54.296875 48.78125 52.59375 
z
" id="DejaVuSans-99"/>
       <path d="M 56.203125 29.59375 
L 56.203125 25.203125 
L 14.890625 25.203125 
Q 15.484375 15.921875 20.484375 11.0625 
Q 25.484375 6.203125 34.421875 6.203125 
Q 39.59375 6.203125 44.453125 7.46875 
Q 49.3125 8.734375 54.109375 11.28125 
L 54.109375 2.78125 
Q 49.265625 0.734375 44.1875 -0.34375 
Q 39.109375 -1.421875 33.890625 -1.421875 
Q 20.796875 -1.421875 13.15625 6.1875 
Q 5.515625 13.8125 5.515625 26.8125 
Q 5.515625 40.234375 12.765625 48.109375 
Q 20.015625 56 32.328125 56 
Q 43.359375 56 49.78125 48.890625 
Q 56.203125 41.796875 56.203125 29.59375 
z
M 47.21875 32.234375 
Q 47.125 39.59375 43.09375 43.984375 
Q 39.0625 48.390625 32.421875 48.390625 
Q 24.90625 48.390625 20.390625 44.140625 
Q 15.875 39.890625 15.1875 32.171875 
z
" id="DejaVuSans-101"/>
       <path id="DejaVuSans-32"/>
       <path d="M 34.28125 27.484375 
Q 23.390625 27.484375 19.1875 25 
Q 14.984375 22.515625 14.984375 16.5 
Q 14.984375 11.71875 18.140625 8.90625 
Q 21.296875 6.109375 26.703125 6.109375 
Q 34.1875 6.109375 38.703125 11.40625 
Q 43.21875 16.703125 43.21875 25.484375 
L 43.21875 27.484375 
z
M 52.203125 31.203125 
L 52.203125 0 
L 43.21875 0 
L 43.21875 8.296875 
Q 40.140625 3.328125 35.546875 0.953125 
Q 30.953125 -1.421875 24.3125 -1.421875 
Q 15.921875 -1.421875 10.953125 3.296875 
Q 6 8.015625 6 15.921875 
Q 6 25.140625 12.171875 29.828125 
Q 18.359375 34.515625 30.609375 34.515625 
L 43.21875 34.515625 
L 43.21875 35.40625 
Q 43.21875 41.609375 39.140625 45 
Q 35.0625 48.390625 27.6875 48.390625 
Q 23 48.390625 18.546875 47.265625 
Q 14.109375 46.140625 10.015625 43.890625 
L 10.015625 52.203125 
Q 14.9375 54.109375 19.578125 55.046875 
Q 24.21875 56 28.609375 56 
Q 40.484375 56 46.34375 49.84375 
Q 52.203125 43.703125 52.203125 31.203125 
z
" id="DejaVuSans-97"/>
       <path d="M 45.40625 46.390625 
L 45.40625 75.984375 
L 54.390625 75.984375 
L 54.390625 0 
L 45.40625 0 
L 45.40625 8.203125 
Q 42.578125 3.328125 38.25 0.953125 
Q 33.9375 -1.421875 27.875 -1.421875 
Q 17.96875 -1.421875 11.734375 6.484375 
Q 5.515625 14.40625 5.515625 27.296875 
Q 5.515625 40.1875 11.734375 48.09375 
Q 17.96875 56 27.875 56 
Q 33.9375 56 38.25 53.625 
Q 42.578125 51.265625 45.40625 46.390625 
z
M 14.796875 27.296875 
Q 14.796875 17.390625 18.875 11.75 
Q 22.953125 6.109375 30.078125 6.109375 
Q 37.203125 6.109375 41.296875 11.75 
Q 45.40625 17.390625 45.40625 27.296875 
Q 45.40625 37.203125 41.296875 42.84375 
Q 37.203125 48.484375 30.078125 48.484375 
Q 22.953125 48.484375 18.875 42.84375 
Q 14.796875 37.203125 14.796875 27.296875 
z
" id="DejaVuSans-100"/>
      </defs>
      <use xlink:href="#DejaVuSans-80"/>
      <use x="58.552734" xlink:href="#DejaVuSans-114"/>
      <use x="99.666016" xlink:href="#DejaVuSans-105"/>
      <use x="127.449219" xlink:href="#DejaVuSans-99"/>
      <use x="182.429688" xlink:href="#DejaVuSans-101"/>
      <use x="243.953125" xlink:href="#DejaVuSans-32"/>
      <use x="275.740234" xlink:href="#DejaVuSans-80"/>
      <use x="331.542969" xlink:href="#DejaVuSans-97"/>
      <use x="392.822266" xlink:href="#DejaVuSans-105"/>
      <use x="420.605469" xlink:href="#DejaVuSans-100"/>
     </g>
    </g>
   </g>
   <g id="matplotlib.axis_2">
    <g id="ytick_1">
     <g id="line2d_34">
      <path clip-path="url(#pd880c72a1c)" d="M 90 378 
L 648 378 
" style="fill:none;stroke:#b0b0b0;stroke-linecap:square;stroke-width:0.8;"/>
     </g>
     <g id="line2d_35">
      <defs>
       <path d="M 0 0 
L -3.5 0 
" id="mcc935bc57e" style="stroke:#000000;stroke-width:0.8;"/>
      </defs>
      <g>
       <use style="stroke:#000000;stroke-width:0.8;" x="90" xlink:href="#mcc935bc57e" y="378"/>
      </g>
     </g>
     <g id="text_6">
      <!-- $\mathdefault{10^{-1}}$ -->
      <g transform="translate(59.5 381.799219)scale(0.1 -0.1)">
       <defs>
        <path d="M 10.59375 35.5 
L 73.1875 35.5 
L 73.1875 27.203125 
L 10.59375 27.203125 
z
" id="DejaVuSans-8722"/>
       </defs>
       <use transform="translate(0 0.684375)" xlink:href="#DejaVuSans-49"/>
       <use transform="translate(63.623047 0.684375)" xlink:href="#DejaVuSans-48"/>
       <use transform="translate(128.203125 38.965625)scale(0.7)" xlink:href="#DejaVuSans-8722"/>
       <use transform="translate(186.855469 38.965625)scale(0.7)" xlink:href="#DejaVuSans-49"/>
      </g>
     </g>
    </g>
    <g id="ytick_2">
     <g id="line2d_36">
      <path clip-path="url(#pd880c72a1c)" d="M 90 279.194476 
L 648 279.194476 
" style="fill:none;stroke:#b0b0b0;stroke-linecap:square;stroke-width:0.8;"/>
     </g>
     <g id="line2d_37">
      <g>
       <use style="stroke:#000000;stroke-width:0.8;" x="90" xlink:href="#mcc935bc57e" y="279.194476"/>
      </g>
     </g>
     <g id="text_7">
      <!-- $\mathdefault{10^{0}}$ -->
      <g transform="translate(65.4 282.993694)scale(0.1 -0.1)">
       <use transform="translate(0 0.765625)" xlink:href="#DejaVuSans-49"/>
       <use transform="translate(63.623047 0.765625)" xlink:href="#DejaVuSans-48"/>
       <use transform="translate(128.203125 39.046875)scale(0.7)" xlink:href="#DejaVuSans-48"/>
      </g>
     </g>
    </g>
    <g id="ytick_3">
     <g id="line2d_38">
      <path clip-path="url(#pd880c72a1c)" d="M 90 180.388951 
L 648 180.388951 
" style="fill:none;stroke:#b0b0b0;stroke-linecap:square;stroke-width:0.8;"/>
     </g>
     <g id="line2d_39">
      <g>
       <use style="stroke:#000000;stroke-width:0.8;" x="90" xlink:href="#mcc935bc57e" y="180.388951"/>
      </g>
     </g>
     <g id="text_8">
      <!-- $\mathdefault{10^{1}}$ -->
      <g transform="translate(65.4 184.18817)scale(0.1 -0.1)">
       <use transform="translate(0 0.684375)" xlink:href="#DejaVuSans-49"/>
       <use transform="translate(63.623047 0.684375)" xlink:href="#DejaVuSans-48"/>
       <use transform="translate(128.203125 38.965625)scale(0.7)" xlink:href="#DejaVuSans-49"/>
      </g>
     </g>
    </g>
    <g id="ytick_4">
     <g id="line2d_40">
      <path clip-path="url(#pd880c72a1c)" d="M 90 81.583427 
L 648 81.583427 
" style="fill:none;stroke:#b0b0b0;stroke-linecap:square;stroke-width:0.8;"/>
     </g>
     <g id="line2d_41">
      <g>
       <use style="stroke:#000000;stroke-width:0.8;" x="90" xlink:href="#mcc935bc57e" y="81.583427"/>
      </g>
     </g>
     <g id="text_9">
      <!-- $\mathdefault{10^{2}}$ -->
      <g transform="translate(65.4 85.382645)scale(0.1 -0.1)">
       <use transform="translate(0 0.765625)" xlink:href="#DejaVuSans-49"/>
       <use transform="translate(63.623047 0.765625)" xlink:href="#DejaVuSans-48"/>
       <use transform="translate(128.203125 39.046875)scale(0.7)" xlink:href="#DejaVuSans-50"/>
      </g>
     </g>
    </g>
    <g id="ytick_5">
     <g id="line2d_42">
      <defs>
       <path d="M 0 0 
L -2 0 
" id="m6bf5c0ed78" style="stroke:#000000;stroke-width:0.6;"/>
      </defs>
      <g>
       <use style="stroke:#000000;stroke-width:0.6;" x="90" xlink:href="#m6bf5c0ed78" y="348.256573"/>
      </g>
     </g>
    </g>
    <g id="ytick_6">
     <g id="line2d_43">
      <g>
       <use style="stroke:#000000;stroke-width:0.6;" x="90" xlink:href="#m6bf5c0ed78" y="330.857784"/>
      </g>
     </g>
    </g>
    <g id="ytick_7">
     <g id="line2d_44">
      <g>
       <use style="stroke:#000000;stroke-width:0.6;" x="90" xlink:href="#m6bf5c0ed78" y="318.513147"/>
      </g>
     </g>
    </g>
    <g id="ytick_8">
     <g id="line2d_45">
      <g>
       <use style="stroke:#000000;stroke-width:0.6;" x="90" xlink:href="#m6bf5c0ed78" y="308.937902"/>
      </g>
     </g>
    </g>
    <g id="ytick_9">
     <g id="line2d_46">
      <g>
       <use style="stroke:#000000;stroke-width:0.6;" x="90" xlink:href="#m6bf5c0ed78" y="301.114358"/>
      </g>
     </g>
    </g>
    <g id="ytick_10">
     <g id="line2d_47">
      <g>
       <use style="stroke:#000000;stroke-width:0.6;" x="90" xlink:href="#m6bf5c0ed78" y="294.499645"/>
      </g>
     </g>
    </g>
    <g id="ytick_11">
     <g id="line2d_48">
      <g>
       <use style="stroke:#000000;stroke-width:0.6;" x="90" xlink:href="#m6bf5c0ed78" y="288.76972"/>
      </g>
     </g>
    </g>
    <g id="ytick_12">
     <g id="line2d_49">
      <g>
       <use style="stroke:#000000;stroke-width:0.6;" x="90" xlink:href="#m6bf5c0ed78" y="283.715568"/>
      </g>
     </g>
    </g>
    <g id="ytick_13">
     <g id="line2d_50">
      <g>
       <use style="stroke:#000000;stroke-width:0.6;" x="90" xlink:href="#m6bf5c0ed78" y="249.451049"/>
      </g>
     </g>
    </g>
    <g id="ytick_14">
     <g id="line2d_51">
      <g>
       <use style="stroke:#000000;stroke-width:0.6;" x="90" xlink:href="#m6bf5c0ed78" y="232.05226"/>
      </g>
     </g>
    </g>
    <g id="ytick_15">
     <g id="line2d_52">
      <g>
       <use style="stroke:#000000;stroke-width:0.6;" x="90" xlink:href="#m6bf5c0ed78" y="219.707622"/>
      </g>
     </g>
    </g>
    <g id="ytick_16">
     <g id="line2d_53">
      <g>
       <use style="stroke:#000000;stroke-width:0.6;" x="90" xlink:href="#m6bf5c0ed78" y="210.132378"/>
      </g>
     </g>
    </g>
    <g id="ytick_17">
     <g id="line2d_54">
      <g>
       <use style="stroke:#000000;stroke-width:0.6;" x="90" xlink:href="#m6bf5c0ed78" y="202.308833"/>
      </g>
     </g>
    </g>
    <g id="ytick_18">
     <g id="line2d_55">
      <g>
       <use style="stroke:#000000;stroke-width:0.6;" x="90" xlink:href="#m6bf5c0ed78" y="195.69412"/>
      </g>
     </g>
    </g>
    <g id="ytick_19">
     <g id="line2d_56">
      <g>
       <use style="stroke:#000000;stroke-width:0.6;" x="90" xlink:href="#m6bf5c0ed78" y="189.964196"/>
      </g>
     </g>
    </g>
    <g id="ytick_20">
     <g id="line2d_57">
      <g>
       <use style="stroke:#000000;stroke-width:0.6;" x="90" xlink:href="#m6bf5c0ed78" y="184.910044"/>
      </g>
     </g>
    </g>
    <g id="ytick_21">
     <g id="line2d_58">
      <g>
       <use style="stroke:#000000;stroke-width:0.6;" x="90" xlink:href="#m6bf5c0ed78" y="150.645524"/>
      </g>
     </g>
    </g>
    <g id="ytick_22">
     <g id="line2d_59">
      <g>
       <use style="stroke:#000000;stroke-width:0.6;" x="90" xlink:href="#m6bf5c0ed78" y="133.246735"/>
      </g>
     </g>
    </g>
    <g id="ytick_23">
     <g id="line2d_60">
      <g>
       <use style="stroke:#000000;stroke-width:0.6;" x="90" xlink:href="#m6bf5c0ed78" y="120.902098"/>
      </g>
     </g>
    </g>
    <g id="ytick_24">
     <g id="line2d_61">
      <g>
       <use style="stroke:#000000;stroke-width:0.6;" x="90" xlink:href="#m6bf5c0ed78" y="111.326853"/>
      </g>
     </g>
    </g>
    <g id="ytick_25">
     <g id="line2d_62">
      <g>
       <use style="stroke:#000000;stroke-width:0.6;" x="90" xlink:href="#m6bf5c0ed78" y="103.503309"/>
      </g>
     </g>
    </g>
    <g id="ytick_26">
     <g id="line2d_63">
      <g>
       <use style="stroke:#000000;stroke-width:0.6;" x="90" xlink:href="#m6bf5c0ed78" y="96.888596"/>
      </g>
     </g>
    </g>
    <g id="ytick_27">
     <g id="line2d_64">
      <g>
       <use style="stroke:#000000;stroke-width:0.6;" x="90" xlink:href="#m6bf5c0ed78" y="91.158671"/>
      </g>
     </g>
    </g>
    <g id="ytick_28">
     <g id="line2d_65">
      <g>
       <use style="stroke:#000000;stroke-width:0.6;" x="90" xlink:href="#m6bf5c0ed78" y="86.104519"/>
      </g>
     </g>
    </g>
    <g id="ytick_29">
     <g id="line2d_66">
      <g>
       <use style="stroke:#000000;stroke-width:0.6;" x="90" xlink:href="#m6bf5c0ed78" y="51.84"/>
      </g>
     </g>
    </g>
    <g id="text_10">
     <!-- Average Pellet Count -->
     <g transform="translate(53.420312 267.204375)rotate(-90)scale(0.1 -0.1)">
      <defs>
       <path d="M 34.1875 63.1875 
L 20.796875 26.90625 
L 47.609375 26.90625 
z
M 28.609375 72.90625 
L 39.796875 72.90625 
L 67.578125 0 
L 57.328125 0 
L 50.6875 18.703125 
L 17.828125 18.703125 
L 11.1875 0 
L 0.78125 0 
z
" id="DejaVuSans-65"/>
       <path d="M 2.984375 54.6875 
L 12.5 54.6875 
L 29.59375 8.796875 
L 46.6875 54.6875 
L 56.203125 54.6875 
L 35.6875 0 
L 23.484375 0 
z
" id="DejaVuSans-118"/>
       <path d="M 45.40625 27.984375 
Q 45.40625 37.75 41.375 43.109375 
Q 37.359375 48.484375 30.078125 48.484375 
Q 22.859375 48.484375 18.828125 43.109375 
Q 14.796875 37.75 14.796875 27.984375 
Q 14.796875 18.265625 18.828125 12.890625 
Q 22.859375 7.515625 30.078125 7.515625 
Q 37.359375 7.515625 41.375 12.890625 
Q 45.40625 18.265625 45.40625 27.984375 
z
M 54.390625 6.78125 
Q 54.390625 -7.171875 48.1875 -13.984375 
Q 42 -20.796875 29.203125 -20.796875 
Q 24.46875 -20.796875 20.265625 -20.09375 
Q 16.0625 -19.390625 12.109375 -17.921875 
L 12.109375 -9.1875 
Q 16.0625 -11.328125 19.921875 -12.34375 
Q 23.78125 -13.375 27.78125 -13.375 
Q 36.625 -13.375 41.015625 -8.765625 
Q 45.40625 -4.15625 45.40625 5.171875 
L 45.40625 9.625 
Q 42.625 4.78125 38.28125 2.390625 
Q 33.9375 0 27.875 0 
Q 17.828125 0 11.671875 7.65625 
Q 5.515625 15.328125 5.515625 27.984375 
Q 5.515625 40.671875 11.671875 48.328125 
Q 17.828125 56 27.875 56 
Q 33.9375 56 38.28125 53.609375 
Q 42.625 51.21875 45.40625 46.390625 
L 45.40625 54.6875 
L 54.390625 54.6875 
z
" id="DejaVuSans-103"/>
       <path d="M 9.421875 75.984375 
L 18.40625 75.984375 
L 18.40625 0 
L 9.421875 0 
z
" id="DejaVuSans-108"/>
       <path d="M 18.3125 70.21875 
L 18.3125 54.6875 
L 36.8125 54.6875 
L 36.8125 47.703125 
L 18.3125 47.703125 
L 18.3125 18.015625 
Q 18.3125 11.328125 20.140625 9.421875 
Q 21.96875 7.515625 27.59375 7.515625 
L 36.8125 7.515625 
L 36.8125 0 
L 27.59375 0 
Q 17.1875 0 13.234375 3.875 
Q 9.28125 7.765625 9.28125 18.015625 
L 9.28125 47.703125 
L 2.6875 47.703125 
L 2.6875 54.6875 
L 9.28125 54.6875 
L 9.28125 70.21875 
z
" id="DejaVuSans-116"/>
       <path d="M 64.40625 67.28125 
L 64.40625 56.890625 
Q 59.421875 61.53125 53.78125 63.8125 
Q 48.140625 66.109375 41.796875 66.109375 
Q 29.296875 66.109375 22.65625 58.46875 
Q 16.015625 50.828125 16.015625 36.375 
Q 16.015625 21.96875 22.65625 14.328125 
Q 29.296875 6.6875 41.796875 6.6875 
Q 48.140625 6.6875 53.78125 8.984375 
Q 59.421875 11.28125 64.40625 15.921875 
L 64.40625 5.609375 
Q 59.234375 2.09375 53.4375 0.328125 
Q 47.65625 -1.421875 41.21875 -1.421875 
Q 24.65625 -1.421875 15.125 8.703125 
Q 5.609375 18.84375 5.609375 36.375 
Q 5.609375 53.953125 15.125 64.078125 
Q 24.65625 74.21875 41.21875 74.21875 
Q 47.75 74.21875 53.53125 72.484375 
Q 59.328125 70.75 64.40625 67.28125 
z
" id="DejaVuSans-67"/>
       <path d="M 30.609375 48.390625 
Q 23.390625 48.390625 19.1875 42.75 
Q 14.984375 37.109375 14.984375 27.296875 
Q 14.984375 17.484375 19.15625 11.84375 
Q 23.34375 6.203125 30.609375 6.203125 
Q 37.796875 6.203125 41.984375 11.859375 
Q 46.1875 17.53125 46.1875 27.296875 
Q 46.1875 37.015625 41.984375 42.703125 
Q 37.796875 48.390625 30.609375 48.390625 
z
M 30.609375 56 
Q 42.328125 56 49.015625 48.375 
Q 55.71875 40.765625 55.71875 27.296875 
Q 55.71875 13.875 49.015625 6.21875 
Q 42.328125 -1.421875 30.609375 -1.421875 
Q 18.84375 -1.421875 12.171875 6.21875 
Q 5.515625 13.875 5.515625 27.296875 
Q 5.515625 40.765625 12.171875 48.375 
Q 18.84375 56 30.609375 56 
z
" id="DejaVuSans-111"/>
       <path d="M 8.5 21.578125 
L 8.5 54.6875 
L 17.484375 54.6875 
L 17.484375 21.921875 
Q 17.484375 14.15625 20.5 10.265625 
Q 23.53125 6.390625 29.59375 6.390625 
Q 36.859375 6.390625 41.078125 11.03125 
Q 45.3125 15.671875 45.3125 23.6875 
L 45.3125 54.6875 
L 54.296875 54.6875 
L 54.296875 0 
L 45.3125 0 
L 45.3125 8.40625 
Q 42.046875 3.421875 37.71875 1 
Q 33.40625 -1.421875 27.6875 -1.421875 
Q 18.265625 -1.421875 13.375 4.4375 
Q 8.5 10.296875 8.5 21.578125 
z
M 31.109375 56 
z
" id="DejaVuSans-117"/>
       <path d="M 54.890625 33.015625 
L 54.890625 0 
L 45.90625 0 
L 45.90625 32.71875 
Q 45.90625 40.484375 42.875 44.328125 
Q 39.84375 48.1875 33.796875 48.1875 
Q 26.515625 48.1875 22.3125 43.546875 
Q 18.109375 38.921875 18.109375 30.90625 
L 18.109375 0 
L 9.078125 0 
L 9.078125 54.6875 
L 18.109375 54.6875 
L 18.109375 46.1875 
Q 21.34375 51.125 25.703125 53.5625 
Q 30.078125 56 35.796875 56 
Q 45.21875 56 50.046875 50.171875 
Q 54.890625 44.34375 54.890625 33.015625 
z
" id="DejaVuSans-110"/>
      </defs>
      <use xlink:href="#DejaVuSans-65"/>
      <use x="62.533203" xlink:href="#DejaVuSans-118"/>
      <use x="121.712891" xlink:href="#DejaVuSans-101"/>
      <use x="183.236328" xlink:href="#DejaVuSans-114"/>
      <use x="224.349609" xlink:href="#DejaVuSans-97"/>
      <use x="285.628906" xlink:href="#DejaVuSans-103"/>
      <use x="349.105469" xlink:href="#DejaVuSans-101"/>
      <use x="410.628906" xlink:href="#DejaVuSans-32"/>
      <use x="442.416016" xlink:href="#DejaVuSans-80"/>
      <use x="499.09375" xlink:href="#DejaVuSans-101"/>
      <use x="560.617188" xlink:href="#DejaVuSans-108"/>
      <use x="588.400391" xlink:href="#DejaVuSans-108"/>
      <use x="616.183594" xlink:href="#DejaVuSans-101"/>
      <use x="677.707031" xlink:href="#DejaVuSans-116"/>
      <use x="716.916016" xlink:href="#DejaVuSans-32"/>
      <use x="748.703125" xlink:href="#DejaVuSans-67"/>
      <use x="818.527344" xlink:href="#DejaVuSans-111"/>
      <use x="879.708984" xlink:href="#DejaVuSans-117"/>
      <use x="943.087891" xlink:href="#DejaVuSans-110"/>
      <use x="1006.466797" xlink:href="#DejaVuSans-116"/>
     </g>
    </g>
   </g>
   <g id="LineCollection_1">
    <path clip-path="url(#pd880c72a1c)" d="M 106.59277 211.006812 
L 106.59277 199.629559 
" style="fill:none;stroke:#000000;stroke-width:1.5;"/>
    <path clip-path="url(#pd880c72a1c)" d="M 160.919375 211.45992 
L 160.919375 200.248087 
" style="fill:none;stroke:#000000;stroke-width:1.5;"/>
    <path clip-path="url(#pd880c72a1c)" d="M 192.698402 245.407267 
L 192.698402 232.843102 
" style="fill:none;stroke:#000000;stroke-width:1.5;"/>
    <path clip-path="url(#pd880c72a1c)" d="M 215.245981 246.222228 
L 215.245981 234.348203 
" style="fill:none;stroke:#000000;stroke-width:1.5;"/>
    <path clip-path="url(#pd880c72a1c)" d="M 232.735241 248.01603 
L 232.735241 237.435873 
" style="fill:none;stroke:#000000;stroke-width:1.5;"/>
    <path clip-path="url(#pd880c72a1c)" d="M 247.025008 253.347744 
L 247.025008 243.147516 
" style="fill:none;stroke:#000000;stroke-width:1.5;"/>
    <path clip-path="url(#pd880c72a1c)" d="M 259.106833 257.673006 
L 259.106833 248.119759 
" style="fill:none;stroke:#000000;stroke-width:1.5;"/>
    <path clip-path="url(#pd880c72a1c)" d="M 278.804035 263.721292 
L 278.804035 256.206277 
" style="fill:none;stroke:#000000;stroke-width:1.5;"/>
    <path clip-path="url(#pd880c72a1c)" d="M 287.061847 268.223757 
L 287.061847 259.952793 
" style="fill:none;stroke:#000000;stroke-width:1.5;"/>
    <path clip-path="url(#pd880c72a1c)" d="M 301.351613 281.370439 
L 301.351613 271.647089 
" style="fill:none;stroke:#000000;stroke-width:1.5;"/>
    <path clip-path="url(#pd880c72a1c)" d="M 307.625098 283.908207 
L 307.625098 274.947677 
" style="fill:none;stroke:#000000;stroke-width:1.5;"/>
    <path clip-path="url(#pd880c72a1c)" d="M 318.840874 283.908207 
L 318.840874 274.947677 
" style="fill:none;stroke:#000000;stroke-width:1.5;"/>
    <path clip-path="url(#pd880c72a1c)" d="M 328.650751 283.908207 
L 328.650751 274.947677 
" style="fill:none;stroke:#000000;stroke-width:1.5;"/>
    <path clip-path="url(#pd880c72a1c)" d="M 341.388452 283.908207 
L 341.388452 274.947677 
" style="fill:none;stroke:#000000;stroke-width:1.5;"/>
    <path clip-path="url(#pd880c72a1c)" d="M 348.858552 287.686134 
L 348.858552 277.648528 
" style="fill:none;stroke:#000000;stroke-width:1.5;"/>
    <path clip-path="url(#pd880c72a1c)" d="M 358.877713 294.426216 
L 358.877713 285.158979 
" style="fill:none;stroke:#000000;stroke-width:1.5;"/>
    <path clip-path="url(#pd880c72a1c)" d="M 367.760044 299.349022 
L 367.760044 288.589189 
" style="fill:none;stroke:#000000;stroke-width:1.5;"/>
    <path clip-path="url(#pd880c72a1c)" d="M 378.225797 304.975748 
L 378.225797 292.269148 
" style="fill:none;stroke:#000000;stroke-width:1.5;"/>
    <path clip-path="url(#pd880c72a1c)" d="M 387.457245 304.975748 
L 387.457245 292.269148 
" style="fill:none;stroke:#000000;stroke-width:1.5;"/>
    <path clip-path="url(#pd880c72a1c)" d="M 395.715057 308.937902 
L 395.715057 308.937902 
" style="fill:none;stroke:#000000;stroke-width:1.5;"/>
    <path clip-path="url(#pd880c72a1c)" d="M 404.946506 308.937902 
L 404.946506 308.937902 
" style="fill:none;stroke:#000000;stroke-width:1.5;"/>
    <path clip-path="url(#pd880c72a1c)" d="M 413.204318 315.552615 
L 413.204318 315.552615 
" style="fill:none;stroke:#000000;stroke-width:1.5;"/>
    <path clip-path="url(#pd880c72a1c)" d="M 422.086649 345.296041 
L 422.086649 345.296041 
" style="fill:none;stroke:#000000;stroke-width:1.5;"/>
    <path clip-path="url(#pd880c72a1c)" d="M 430.064043 362.694831 
L 430.064043 362.694831 
" style="fill:none;stroke:#000000;stroke-width:1.5;"/>
    <path clip-path="url(#pd880c72a1c)" d="M 438.448167 362.694831 
L 438.448167 362.694831 
" style="fill:none;stroke:#000000;stroke-width:1.5;"/>
   </g>
   <g id="line2d_67">
    <path clip-path="url(#pd880c72a1c)" d="M 106.59277 189.964196 
L 160.919375 189.964196 
L 192.698402 232.05226 
L 215.245981 232.05226 
L 232.735241 232.05226 
L 247.025008 232.05226 
L 259.106833 232.05226 
L 278.804035 249.451049 
L 287.061847 279.194476 
L 301.351613 279.194476 
L 307.625098 279.194476 
L 318.840874 279.194476 
L 328.650751 279.194476 
L 341.388452 279.194476 
" style="fill:none;stroke:#008000;stroke-linecap:square;stroke-opacity:0.3;"/>
   </g>
   <g id="line2d_68">
    <path clip-path="url(#pd880c72a1c)" d="M 106.59277 180.388951 
L 160.919375 180.388951 
L 192.698402 210.132378 
L 215.245981 219.707622 
L 232.735241 232.05226 
L 247.025008 232.05226 
L 259.106833 232.05226 
L 278.804035 249.451049 
L 287.061847 249.451049 
" style="fill:none;stroke:#008000;stroke-linecap:square;stroke-opacity:0.3;"/>
   </g>
   <g id="line2d_69">
    <path clip-path="url(#pd880c72a1c)" d="M 106.59277 219.707622 
L 160.919375 219.707622 
L 192.698402 249.451049 
L 215.245981 249.451049 
L 232.735241 249.451049 
L 247.025008 249.451049 
L 259.106833 249.451049 
L 278.804035 249.451049 
L 287.061847 249.451049 
L 301.351613 249.451049 
L 307.625098 279.194476 
L 318.840874 279.194476 
L 328.650751 279.194476 
L 341.388452 279.194476 
L 348.858552 279.194476 
L 358.877713 279.194476 
L 367.760044 279.194476 
L 378.225797 279.194476 
L 387.457245 279.194476 
L 395.715057 279.194476 
L 404.946506 279.194476 
L 413.204318 279.194476 
" style="fill:none;stroke:#008000;stroke-linecap:square;stroke-opacity:0.3;"/>
   </g>
   <g id="line2d_70">
    <path clip-path="url(#pd880c72a1c)" d="M 106.59277 202.308833 
L 160.919375 202.308833 
L 192.698402 232.05226 
L 215.245981 232.05226 
L 232.735241 232.05226 
L 247.025008 232.05226 
L 259.106833 249.451049 
L 278.804035 249.451049 
L 287.061847 249.451049 
L 301.351613 249.451049 
L 307.625098 249.451049 
L 318.840874 249.451049 
L 328.650751 249.451049 
L 341.388452 249.451049 
L 348.858552 249.451049 
L 358.877713 279.194476 
L 367.760044 279.194476 
L 378.225797 279.194476 
L 387.457245 279.194476 
" style="fill:none;stroke:#008000;stroke-linecap:square;stroke-opacity:0.3;"/>
   </g>
   <g id="line2d_71">
    <path clip-path="url(#pd880c72a1c)" d="M 106.59277 189.964196 
L 160.919375 189.964196 
L 192.698402 219.707622 
L 215.245981 219.707622 
L 232.735241 219.707622 
L 247.025008 232.05226 
L 259.106833 249.451049 
L 278.804035 249.451049 
L 287.061847 279.194476 
L 301.351613 279.194476 
L 307.625098 279.194476 
L 318.840874 279.194476 
L 328.650751 279.194476 
L 341.388452 279.194476 
L 348.858552 279.194476 
L 358.877713 279.194476 
" style="fill:none;stroke:#008000;stroke-linecap:square;stroke-opacity:0.3;"/>
   </g>
   <g id="line2d_72">
    <path clip-path="url(#pd880c72a1c)" d="M 106.59277 249.451049 
L 160.919375 249.451049 
L 192.698402 279.194476 
L 215.245981 279.194476 
L 232.735241 279.194476 
L 247.025008 279.194476 
L 259.106833 279.194476 
L 278.804035 279.194476 
L 287.061847 279.194476 
L 301.351613 249.451049 
L 307.625098 249.451049 
L 318.840874 249.451049 
L 328.650751 249.451049 
L 341.388452 249.451049 
L 348.858552 249.451049 
L 358.877713 249.451049 
L 367.760044 249.451049 
L 378.225797 249.451049 
L 387.457245 249.451049 
L 395.715057 279.194476 
L 404.946506 279.194476 
L 413.204318 279.194476 
" style="fill:none;stroke:#008000;stroke-linecap:square;stroke-opacity:0.3;"/>
   </g>
   <g id="line2d_73">
    <path clip-path="url(#pd880c72a1c)" d="M 192.698402 279.194476 
L 215.245981 279.194476 
L 232.735241 279.194476 
L 247.025008 279.194476 
L 259.106833 279.194476 
L 278.804035 279.194476 
L 287.061847 279.194476 
L 301.351613 279.194476 
L 307.625098 279.194476 
L 318.840874 279.194476 
L 328.650751 279.194476 
L 341.388452 279.194476 
L 348.858552 279.194476 
L 358.877713 279.194476 
L 367.760044 279.194476 
L 378.225797 279.194476 
L 387.457245 279.194476 
L 395.715057 279.194476 
L 404.946506 279.194476 
L 413.204318 279.194476 
L 422.086649 279.194476 
L 430.064043 279.194476 
L 438.448167 279.194476 
" style="fill:none;stroke:#008000;stroke-linecap:square;stroke-opacity:0.3;"/>
   </g>
   <g id="line2d_74">
    <path clip-path="url(#pd880c72a1c)" d="M 106.59277 202.308833 
L 160.919375 202.308833 
L 192.698402 249.451049 
L 215.245981 249.451049 
L 232.735241 249.451049 
L 247.025008 249.451049 
L 259.106833 249.451049 
L 278.804035 249.451049 
L 287.061847 249.451049 
L 301.351613 279.194476 
L 307.625098 279.194476 
L 318.840874 279.194476 
L 328.650751 279.194476 
L 341.388452 279.194476 
L 348.858552 279.194476 
L 358.877713 279.194476 
L 367.760044 279.194476 
" style="fill:none;stroke:#008000;stroke-linecap:square;stroke-opacity:0.3;"/>
   </g>
   <g id="line2d_75">
    <path clip-path="url(#pd880c72a1c)" d="M 106.59277 249.451049 
L 160.919375 249.451049 
L 192.698402 279.194476 
L 215.245981 279.194476 
L 232.735241 279.194476 
L 247.025008 279.194476 
L 259.106833 279.194476 
L 278.804035 279.194476 
L 287.061847 279.194476 
L 301.351613 279.194476 
L 307.625098 279.194476 
L 318.840874 279.194476 
L 328.650751 279.194476 
L 341.388452 279.194476 
L 348.858552 279.194476 
L 358.877713 279.194476 
L 367.760044 279.194476 
L 378.225797 279.194476 
L 387.457245 279.194476 
L 395.715057 279.194476 
L 404.946506 279.194476 
L 413.204318 279.194476 
L 422.086649 279.194476 
L 430.064043 279.194476 
L 438.448167 279.194476 
" style="fill:none;stroke:#008000;stroke-linecap:square;stroke-opacity:0.3;"/>
   </g>
   <g id="line2d_76">
    <path clip-path="url(#pd880c72a1c)" d="M 106.59277 184.910044 
L 160.919375 189.964196 
L 192.698402 232.05226 
L 215.245981 232.05226 
L 232.735241 232.05226 
L 247.025008 279.194476 
L 259.106833 279.194476 
L 278.804035 279.194476 
L 287.061847 279.194476 
" style="fill:none;stroke:#008000;stroke-linecap:square;stroke-opacity:0.3;"/>
   </g>
   <g id="line2d_77">
    <path clip-path="url(#pd880c72a1c)" d="M 106.59277 219.707622 
L 160.919375 219.707622 
L 192.698402 279.194476 
L 215.245981 279.194476 
L 232.735241 279.194476 
L 247.025008 279.194476 
L 259.106833 279.194476 
L 278.804035 279.194476 
L 287.061847 279.194476 
L 301.351613 279.194476 
L 307.625098 279.194476 
L 318.840874 279.194476 
L 328.650751 279.194476 
L 341.388452 279.194476 
L 348.858552 279.194476 
L 358.877713 279.194476 
L 367.760044 279.194476 
L 378.225797 279.194476 
L 387.457245 279.194476 
L 395.715057 279.194476 
L 404.946506 279.194476 
L 413.204318 279.194476 
" style="fill:none;stroke:#008000;stroke-linecap:square;stroke-opacity:0.3;"/>
   </g>
   <g id="line2d_78">
    <path clip-path="url(#pd880c72a1c)" d="M 106.59277 219.707622 
L 160.919375 219.707622 
L 192.698402 249.451049 
L 215.245981 249.451049 
L 232.735241 249.451049 
L 247.025008 249.451049 
L 259.106833 249.451049 
L 278.804035 249.451049 
L 287.061847 249.451049 
L 301.351613 279.194476 
L 307.625098 279.194476 
L 318.840874 279.194476 
L 328.650751 279.194476 
L 341.388452 279.194476 
L 348.858552 279.194476 
L 358.877713 279.194476 
L 367.760044 279.194476 
L 378.225797 279.194476 
L 387.457245 279.194476 
L 395.715057 279.194476 
L 404.946506 279.194476 
" style="fill:none;stroke:#008000;stroke-linecap:square;stroke-opacity:0.3;"/>
   </g>
   <g id="line2d_79">
    <path clip-path="url(#pd880c72a1c)" d="M 106.59277 180.388951 
L 160.919375 180.388951 
L 192.698402 210.132378 
L 215.245981 210.132378 
L 232.735241 219.707622 
L 247.025008 232.05226 
L 259.106833 249.451049 
L 278.804035 279.194476 
L 287.061847 279.194476 
L 301.351613 279.194476 
L 307.625098 279.194476 
L 318.840874 279.194476 
L 328.650751 279.194476 
L 341.388452 279.194476 
L 348.858552 279.194476 
" style="fill:none;stroke:#008000;stroke-linecap:square;stroke-opacity:0.3;"/>
   </g>
   <g id="line2d_80">
    <path clip-path="url(#pd880c72a1c)" d="M 106.59277 202.308833 
L 160.919375 202.308833 
L 192.698402 232.05226 
L 215.245981 232.05226 
L 232.735241 232.05226 
L 247.025008 232.05226 
L 259.106833 232.05226 
L 278.804035 249.451049 
L 287.061847 249.451049 
L 301.351613 279.194476 
L 307.625098 279.194476 
L 318.840874 279.194476 
L 328.650751 279.194476 
L 341.388452 279.194476 
L 348.858552 279.194476 
L 358.877713 279.194476 
L 367.760044 279.194476 
L 378.225797 279.194476 
L 387.457245 279.194476 
L 395.715057 279.194476 
L 404.946506 279.194476 
L 413.204318 279.194476 
L 422.086649 279.194476 
" style="fill:none;stroke:#008000;stroke-linecap:square;stroke-opacity:0.3;"/>
   </g>
   <g id="line2d_81">
    <defs>
     <path d="M 3 0 
L -3 -0 
" id="maf4e884ad0" style="stroke:#000000;"/>
    </defs>
    <g clip-path="url(#pd880c72a1c)">
     <use style="stroke:#000000;" x="106.59277" xlink:href="#maf4e884ad0" y="211.006812"/>
     <use style="stroke:#000000;" x="160.919375" xlink:href="#maf4e884ad0" y="211.45992"/>
     <use style="stroke:#000000;" x="192.698402" xlink:href="#maf4e884ad0" y="245.407267"/>
     <use style="stroke:#000000;" x="215.245981" xlink:href="#maf4e884ad0" y="246.222228"/>
     <use style="stroke:#000000;" x="232.735241" xlink:href="#maf4e884ad0" y="248.01603"/>
     <use style="stroke:#000000;" x="247.025008" xlink:href="#maf4e884ad0" y="253.347744"/>
     <use style="stroke:#000000;" x="259.106833" xlink:href="#maf4e884ad0" y="257.673006"/>
     <use style="stroke:#000000;" x="278.804035" xlink:href="#maf4e884ad0" y="263.721292"/>
     <use style="stroke:#000000;" x="287.061847" xlink:href="#maf4e884ad0" y="268.223757"/>
     <use style="stroke:#000000;" x="301.351613" xlink:href="#maf4e884ad0" y="281.370439"/>
     <use style="stroke:#000000;" x="307.625098" xlink:href="#maf4e884ad0" y="283.908207"/>
     <use style="stroke:#000000;" x="318.840874" xlink:href="#maf4e884ad0" y="283.908207"/>
     <use style="stroke:#000000;" x="328.650751" xlink:href="#maf4e884ad0" y="283.908207"/>
     <use style="stroke:#000000;" x="341.388452" xlink:href="#maf4e884ad0" y="283.908207"/>
     <use style="stroke:#000000;" x="348.858552" xlink:href="#maf4e884ad0" y="287.686134"/>
     <use style="stroke:#000000;" x="358.877713" xlink:href="#maf4e884ad0" y="294.426216"/>
     <use style="stroke:#000000;" x="367.760044" xlink:href="#maf4e884ad0" y="299.349022"/>
     <use style="stroke:#000000;" x="378.225797" xlink:href="#maf4e884ad0" y="304.975748"/>
     <use style="stroke:#000000;" x="387.457245" xlink:href="#maf4e884ad0" y="304.975748"/>
     <use style="stroke:#000000;" x="395.715057" xlink:href="#maf4e884ad0" y="308.937902"/>
     <use style="stroke:#000000;" x="404.946506" xlink:href="#maf4e884ad0" y="308.937902"/>
     <use style="stroke:#000000;" x="413.204318" xlink:href="#maf4e884ad0" y="315.552615"/>
     <use style="stroke:#000000;" x="422.086649" xlink:href="#maf4e884ad0" y="345.296041"/>
     <use style="stroke:#000000;" x="430.064043" xlink:href="#maf4e884ad0" y="362.694831"/>
     <use style="stroke:#000000;" x="438.448167" xlink:href="#maf4e884ad0" y="362.694831"/>
    </g>
   </g>
   <g id="line2d_82">
    <g clip-path="url(#pd880c72a1c)">
     <use style="stroke:#000000;" x="106.59277" xlink:href="#maf4e884ad0" y="199.629559"/>
     <use style="stroke:#000000;" x="160.919375" xlink:href="#maf4e884ad0" y="200.248087"/>
     <use style="stroke:#000000;" x="192.698402" xlink:href="#maf4e884ad0" y="232.843102"/>
     <use style="stroke:#000000;" x="215.245981" xlink:href="#maf4e884ad0" y="234.348203"/>
     <use style="stroke:#000000;" x="232.735241" xlink:href="#maf4e884ad0" y="237.435873"/>
     <use style="stroke:#000000;" x="247.025008" xlink:href="#maf4e884ad0" y="243.147516"/>
     <use style="stroke:#000000;" x="259.106833" xlink:href="#maf4e884ad0" y="248.119759"/>
     <use style="stroke:#000000;" x="278.804035" xlink:href="#maf4e884ad0" y="256.206277"/>
     <use style="stroke:#000000;" x="287.061847" xlink:href="#maf4e884ad0" y="259.952793"/>
     <use style="stroke:#000000;" x="301.351613" xlink:href="#maf4e884ad0" y="271.647089"/>
     <use style="stroke:#000000;" x="307.625098" xlink:href="#maf4e884ad0" y="274.947677"/>
     <use style="stroke:#000000;" x="318.840874" xlink:href="#maf4e884ad0" y="274.947677"/>
     <use style="stroke:#000000;" x="328.650751" xlink:href="#maf4e884ad0" y="274.947677"/>
     <use style="stroke:#000000;" x="341.388452" xlink:href="#maf4e884ad0" y="274.947677"/>
     <use style="stroke:#000000;" x="348.858552" xlink:href="#maf4e884ad0" y="277.648528"/>
     <use style="stroke:#000000;" x="358.877713" xlink:href="#maf4e884ad0" y="285.158979"/>
     <use style="stroke:#000000;" x="367.760044" xlink:href="#maf4e884ad0" y="288.589189"/>
     <use style="stroke:#000000;" x="378.225797" xlink:href="#maf4e884ad0" y="292.269148"/>
     <use style="stroke:#000000;" x="387.457245" xlink:href="#maf4e884ad0" y="292.269148"/>
     <use style="stroke:#000000;" x="395.715057" xlink:href="#maf4e884ad0" y="308.937902"/>
     <use style="stroke:#000000;" x="404.946506" xlink:href="#maf4e884ad0" y="308.937902"/>
     <use style="stroke:#000000;" x="413.204318" xlink:href="#maf4e884ad0" y="315.552615"/>
     <use style="stroke:#000000;" x="422.086649" xlink:href="#maf4e884ad0" y="345.296041"/>
     <use style="stroke:#000000;" x="430.064043" xlink:href="#maf4e884ad0" y="362.694831"/>
     <use style="stroke:#000000;" x="438.448167" xlink:href="#maf4e884ad0" y="362.694831"/>
    </g>
   </g>
   <g id="line2d_83">
    <path clip-path="url(#pd880c72a1c)" d="M 106.59277 238.883265 
L 147.360156 239.448505 
L 174.042767 240.02129 
L 199.554467 240.797094 
L 218.769843 241.587183 
L 237.613138 242.595702 
L 252.79277 243.628495 
L 265.504084 244.686761 
L 278.453747 245.992123 
L 289.56413 247.338444 
L 299.293317 248.728379 
L 307.947057 250.164846 
L 316.966251 251.903858 
L 325.053844 253.716333 
L 332.384398 255.608753 
L 339.087587 257.588498 
L 345.262379 259.664017 
L 350.986025 261.845051 
L 356.319985 264.142905 
L 361.313956 266.570805 
L 365.35499 268.767122 
L 369.197849 271.081948 
L 372.861063 273.528803 
L 376.360682 276.123666 
L 379.710694 278.8856 
L 382.92337 281.83761 
L 386.009526 285.007803 
L 388.978751 288.431023 
L 391.369972 291.508334 
L 393.690392 294.8235 
L 395.944086 298.416392 
L 398.134782 302.337834 
L 400.265908 306.654018 
L 402.340617 311.453402 
L 403.961728 315.72123 
L 405.549987 320.460889 
L 407.106699 325.789824 
L 408.633093 331.875646 
L 410.130327 338.969527 
L 411.234776 345.184032 
L 412.323879 352.453483 
L 413.398054 361.210776 
L 414.457707 372.225882 
L 415.156265 381.539285 
L 415.848652 393.45104 
L 416.534977 409.996948 
L 417.123261 433 
L 417.123261 433 
" style="fill:none;stroke:#000000;stroke-dasharray:7.4,3.2;stroke-dashoffset:0;stroke-width:2;"/>
   </g>
   <g id="line2d_84">
    <path clip-path="url(#pd880c72a1c)" d="M 106.59277 204.942217 
L 122.653593 200.067787 
L 135.976396 198.794873 
L 147.360156 200.126237 
L 157.29825 203.585912 
L 166.116826 208.912455 
L 174.042767 215.885309 
L 181.240287 224.125418 
L 187.832077 232.752238 
L 193.912225 239.876701 
L 199.554467 243.43529 
L 204.817666 243.694976 
L 209.749558 242.065299 
L 214.389396 240.152635 
L 218.769843 239.222899 
L 222.918374 239.362583 
L 226.858314 240.241985 
L 230.60964 241.554965 
L 244.041835 246.802683 
L 267.81645 255.801535 
L 278.453747 259.660497 
L 282.334858 261.309721 
L 286.032816 263.248675 
L 287.818359 264.396098 
L 289.56413 265.679049 
L 292.943174 268.550006 
L 300.803598 275.811485 
L 302.285326 276.890753 
L 303.739561 277.75486 
L 305.167304 278.422212 
L 306.569503 278.916453 
L 309.300816 279.492852 
L 311.940143 279.658864 
L 314.493479 279.559725 
L 320.535011 279.121202 
L 325.053844 279.151065 
L 329.326284 279.181847 
L 339.087587 278.899618 
L 340.902006 279.106508 
L 342.67537 279.503415 
L 344.409495 280.088688 
L 346.940798 281.263016 
L 349.3929 282.713436 
L 352.547412 284.916143 
L 358.499334 289.298802 
L 360.61972 290.553759 
L 363.360514 291.839024 
L 369.197849 294.314955 
L 375.788156 297.569596 
L 377.493337 298.05161 
L 378.609857 298.177609 
L 380.255369 298.084736 
L 384.99425 297.445025 
L 386.009526 297.572337 
L 387.011818 297.914756 
L 388.001455 298.528769 
L 388.978751 299.417023 
L 390.42222 301.158821 
L 392.3064 303.965574 
L 395.05037 308.1349 
L 395.944086 309.178727 
L 396.827726 309.926967 
L 397.701514 310.398602 
L 398.565668 310.628288 
L 399.420398 310.6561 
L 400.685267 310.414845 
L 402.340617 309.801683 
L 404.36182 309.062198 
L 405.549987 308.881696 
L 406.72041 308.9923 
L 407.873612 309.391471 
L 409.010091 310.079454 
L 410.130327 311.06225 
L 411.234776 312.352021 
L 412.323879 313.967953 
L 413.398054 315.937644 
L 414.457707 318.28217 
L 415.848652 321.968504 
L 417.215343 326.248566 
L 418.89086 332.313292 
L 421.499344 342.913246 
L 423.400269 350.256911 
L 424.642413 354.324592 
L 425.865178 357.600361 
L 426.769893 359.504158 
L 427.664284 360.934718 
L 428.548583 361.916378 
L 429.423017 362.493387 
L 430.287802 362.725966 
L 431.143149 362.685314 
L 432.269283 362.339809 
L 435.553738 361.05352 
L 436.353788 361.065242 
L 437.145753 361.3575 
L 437.669319 361.747955 
L 438.18941 362.326033 
L 438.448167 362.694831 
L 438.448167 362.694831 
" style="fill:none;stroke:#008000;stroke-dasharray:7.4,3.2;stroke-dashoffset:0;stroke-width:2;"/>
   </g>
   <g id="line2d_85">
    <path clip-path="url(#pd880c72a1c)" d="M 106.59277 205.682336 
L 160.919375 213.255156 
L 192.698402 222.291162 
L 215.245981 239.590727 
L 232.735241 243.312826 
L 247.025008 247.390952 
L 259.106833 251.298563 
L 278.804035 259.806158 
L 287.061847 264.249984 
L 301.351613 271.90643 
L 307.625098 273.822015 
L 318.840874 278.445033 
L 328.650751 279.301356 
L 341.388452 281.312482 
L 348.858552 283.728175 
L 358.877713 287.885472 
L 367.760044 291.957441 
L 378.225797 296.688595 
L 387.457245 301.028734 
L 395.715057 304.848161 
L 404.946506 311.526091 
L 413.204318 321.168386 
L 422.086649 334.192743 
L 430.064043 350.16582 
L 438.448167 381.534082 
" style="fill:none;stroke:#800080;stroke-dasharray:7.4,3.2;stroke-dashoffset:0;stroke-width:2;"/>
   </g>
   <g id="line2d_86">
    <defs>
     <path d="M 0 3 
C 0.795609 3 1.55874 2.683901 2.12132 2.12132 
C 2.683901 1.55874 3 0.795609 3 0 
C 3 -0.795609 2.683901 -1.55874 2.12132 -2.12132 
C 1.55874 -2.683901 0.795609 -3 0 -3 
C -0.795609 -3 -1.55874 -2.683901 -2.12132 -2.12132 
C -2.683901 -1.55874 -3 -0.795609 -3 0 
C -3 0.795609 -2.683901 1.55874 -2.12132 2.12132 
C -1.55874 2.683901 -0.795609 3 0 3 
z
" id="m4e8b0f124a" style="stroke:#000000;"/>
    </defs>
    <g clip-path="url(#pd880c72a1c)">
     <use style="stroke:#000000;" x="106.59277" xlink:href="#m4e8b0f124a" y="204.942217"/>
     <use style="stroke:#000000;" x="160.919375" xlink:href="#m4e8b0f124a" y="205.488858"/>
     <use style="stroke:#000000;" x="192.698402" xlink:href="#m4e8b0f124a" y="238.666972"/>
     <use style="stroke:#000000;" x="215.245981" xlink:href="#m4e8b0f124a" y="239.875804"/>
     <use style="stroke:#000000;" x="232.735241" xlink:href="#m4e8b0f124a" y="242.400691"/>
     <use style="stroke:#000000;" x="247.025008" xlink:href="#m4e8b0f124a" y="247.945256"/>
     <use style="stroke:#000000;" x="259.106833" xlink:href="#m4e8b0f124a" y="252.631073"/>
     <use style="stroke:#000000;" x="278.804035" xlink:href="#m4e8b0f124a" y="259.79948"/>
     <use style="stroke:#000000;" x="287.061847" xlink:href="#m4e8b0f124a" y="263.889306"/>
     <use style="stroke:#000000;" x="301.351613" xlink:href="#m4e8b0f124a" y="276.233944"/>
     <use style="stroke:#000000;" x="307.625098" xlink:href="#m4e8b0f124a" y="279.194476"/>
     <use style="stroke:#000000;" x="318.840874" xlink:href="#m4e8b0f124a" y="279.194476"/>
     <use style="stroke:#000000;" x="328.650751" xlink:href="#m4e8b0f124a" y="279.194476"/>
     <use style="stroke:#000000;" x="341.388452" xlink:href="#m4e8b0f124a" y="279.194476"/>
     <use style="stroke:#000000;" x="348.858552" xlink:href="#m4e8b0f124a" y="282.3745"/>
     <use style="stroke:#000000;" x="358.877713" xlink:href="#m4e8b0f124a" y="289.542907"/>
     <use style="stroke:#000000;" x="367.760044" xlink:href="#m4e8b0f124a" y="293.632733"/>
     <use style="stroke:#000000;" x="378.225797" xlink:href="#m4e8b0f124a" y="298.153826"/>
     <use style="stroke:#000000;" x="387.457245" xlink:href="#m4e8b0f124a" y="298.153826"/>
     <use style="stroke:#000000;" x="395.715057" xlink:href="#m4e8b0f124a" y="308.937902"/>
     <use style="stroke:#000000;" x="404.946506" xlink:href="#m4e8b0f124a" y="308.937902"/>
     <use style="stroke:#000000;" x="413.204318" xlink:href="#m4e8b0f124a" y="315.552615"/>
     <use style="stroke:#000000;" x="422.086649" xlink:href="#m4e8b0f124a" y="345.296041"/>
     <use style="stroke:#000000;" x="430.064043" xlink:href="#m4e8b0f124a" y="362.694831"/>
     <use style="stroke:#000000;" x="438.448167" xlink:href="#m4e8b0f124a" y="362.694831"/>
    </g>
   </g>
   <g id="patch_3">
    <path d="M 90 378 
L 90 51.84 
" style="fill:none;stroke:#000000;stroke-linecap:square;stroke-linejoin:miter;stroke-width:0.8;"/>
   </g>
   <g id="patch_4">
    <path d="M 648 378 
L 648 51.84 
" style="fill:none;stroke:#000000;stroke-linecap:square;stroke-linejoin:miter;stroke-width:0.8;"/>
   </g>
   <g id="patch_5">
    <path d="M 90 378 
L 648 378 
" style="fill:none;stroke:#000000;stroke-linecap:square;stroke-linejoin:miter;stroke-width:0.8;"/>
   </g>
   <g id="patch_6">
    <path d="M 90 51.84 
L 648 51.84 
" style="fill:none;stroke:#000000;stroke-linecap:square;stroke-linejoin:miter;stroke-width:0.8;"/>
   </g>
   <g id="text_11">
    <!-- Average Pellet Count vs Price Paid by Subject -->
    <g transform="translate(233.11875 45.84)scale(0.12 -0.12)">
     <defs>
      <path d="M 44.28125 53.078125 
L 44.28125 44.578125 
Q 40.484375 46.53125 36.375 47.5 
Q 32.28125 48.484375 27.875 48.484375 
Q 21.1875 48.484375 17.84375 46.4375 
Q 14.5 44.390625 14.5 40.28125 
Q 14.5 37.15625 16.890625 35.375 
Q 19.28125 33.59375 26.515625 31.984375 
L 29.59375 31.296875 
Q 39.15625 29.25 43.1875 25.515625 
Q 47.21875 21.78125 47.21875 15.09375 
Q 47.21875 7.46875 41.1875 3.015625 
Q 35.15625 -1.421875 24.609375 -1.421875 
Q 20.21875 -1.421875 15.453125 -0.5625 
Q 10.6875 0.296875 5.421875 2 
L 5.421875 11.28125 
Q 10.40625 8.6875 15.234375 7.390625 
Q 20.0625 6.109375 24.8125 6.109375 
Q 31.15625 6.109375 34.5625 8.28125 
Q 37.984375 10.453125 37.984375 14.40625 
Q 37.984375 18.0625 35.515625 20.015625 
Q 33.0625 21.96875 24.703125 23.78125 
L 21.578125 24.515625 
Q 13.234375 26.265625 9.515625 29.90625 
Q 5.8125 33.546875 5.8125 39.890625 
Q 5.8125 47.609375 11.28125 51.796875 
Q 16.75 56 26.8125 56 
Q 31.78125 56 36.171875 55.265625 
Q 40.578125 54.546875 44.28125 53.078125 
z
" id="DejaVuSans-115"/>
      <path d="M 48.6875 27.296875 
Q 48.6875 37.203125 44.609375 42.84375 
Q 40.53125 48.484375 33.40625 48.484375 
Q 26.265625 48.484375 22.1875 42.84375 
Q 18.109375 37.203125 18.109375 27.296875 
Q 18.109375 17.390625 22.1875 11.75 
Q 26.265625 6.109375 33.40625 6.109375 
Q 40.53125 6.109375 44.609375 11.75 
Q 48.6875 17.390625 48.6875 27.296875 
z
M 18.109375 46.390625 
Q 20.953125 51.265625 25.265625 53.625 
Q 29.59375 56 35.59375 56 
Q 45.5625 56 51.78125 48.09375 
Q 58.015625 40.1875 58.015625 27.296875 
Q 58.015625 14.40625 51.78125 6.484375 
Q 45.5625 -1.421875 35.59375 -1.421875 
Q 29.59375 -1.421875 25.265625 0.953125 
Q 20.953125 3.328125 18.109375 8.203125 
L 18.109375 0 
L 9.078125 0 
L 9.078125 75.984375 
L 18.109375 75.984375 
z
" id="DejaVuSans-98"/>
      <path d="M 32.171875 -5.078125 
Q 28.375 -14.84375 24.75 -17.8125 
Q 21.140625 -20.796875 15.09375 -20.796875 
L 7.90625 -20.796875 
L 7.90625 -13.28125 
L 13.1875 -13.28125 
Q 16.890625 -13.28125 18.9375 -11.515625 
Q 21 -9.765625 23.484375 -3.21875 
L 25.09375 0.875 
L 2.984375 54.6875 
L 12.5 54.6875 
L 29.59375 11.921875 
L 46.6875 54.6875 
L 56.203125 54.6875 
z
" id="DejaVuSans-121"/>
      <path d="M 53.515625 70.515625 
L 53.515625 60.890625 
Q 47.90625 63.578125 42.921875 64.890625 
Q 37.9375 66.21875 33.296875 66.21875 
Q 25.25 66.21875 20.875 63.09375 
Q 16.5 59.96875 16.5 54.203125 
Q 16.5 49.359375 19.40625 46.890625 
Q 22.3125 44.4375 30.421875 42.921875 
L 36.375 41.703125 
Q 47.40625 39.59375 52.65625 34.296875 
Q 57.90625 29 57.90625 20.125 
Q 57.90625 9.515625 50.796875 4.046875 
Q 43.703125 -1.421875 29.984375 -1.421875 
Q 24.8125 -1.421875 18.96875 -0.25 
Q 13.140625 0.921875 6.890625 3.21875 
L 6.890625 13.375 
Q 12.890625 10.015625 18.65625 8.296875 
Q 24.421875 6.59375 29.984375 6.59375 
Q 38.421875 6.59375 43.015625 9.90625 
Q 47.609375 13.234375 47.609375 19.390625 
Q 47.609375 24.75 44.3125 27.78125 
Q 41.015625 30.8125 33.5 32.328125 
L 27.484375 33.5 
Q 16.453125 35.6875 11.515625 40.375 
Q 6.59375 45.0625 6.59375 53.421875 
Q 6.59375 63.09375 13.40625 68.65625 
Q 20.21875 74.21875 32.171875 74.21875 
Q 37.3125 74.21875 42.625 73.28125 
Q 47.953125 72.359375 53.515625 70.515625 
z
" id="DejaVuSans-83"/>
      <path d="M 9.421875 54.6875 
L 18.40625 54.6875 
L 18.40625 -0.984375 
Q 18.40625 -11.421875 14.421875 -16.109375 
Q 10.453125 -20.796875 1.609375 -20.796875 
L -1.8125 -20.796875 
L -1.8125 -13.1875 
L 0.59375 -13.1875 
Q 5.71875 -13.1875 7.5625 -10.8125 
Q 9.421875 -8.453125 9.421875 -0.984375 
z
M 9.421875 75.984375 
L 18.40625 75.984375 
L 18.40625 64.59375 
L 9.421875 64.59375 
z
" id="DejaVuSans-106"/>
     </defs>
     <use xlink:href="#DejaVuSans-65"/>
     <use x="62.533203" xlink:href="#DejaVuSans-118"/>
     <use x="121.712891" xlink:href="#DejaVuSans-101"/>
     <use x="183.236328" xlink:href="#DejaVuSans-114"/>
     <use x="224.349609" xlink:href="#DejaVuSans-97"/>
     <use x="285.628906" xlink:href="#DejaVuSans-103"/>
     <use x="349.105469" xlink:href="#DejaVuSans-101"/>
     <use x="410.628906" xlink:href="#DejaVuSans-32"/>
     <use x="442.416016" xlink:href="#DejaVuSans-80"/>
     <use x="499.09375" xlink:href="#DejaVuSans-101"/>
     <use x="560.617188" xlink:href="#DejaVuSans-108"/>
     <use x="588.400391" xlink:href="#DejaVuSans-108"/>
     <use x="616.183594" xlink:href="#DejaVuSans-101"/>
     <use x="677.707031" xlink:href="#DejaVuSans-116"/>
     <use x="716.916016" xlink:href="#DejaVuSans-32"/>
     <use x="748.703125" xlink:href="#DejaVuSans-67"/>
     <use x="818.527344" xlink:href="#DejaVuSans-111"/>
     <use x="879.708984" xlink:href="#DejaVuSans-117"/>
     <use x="943.087891" xlink:href="#DejaVuSans-110"/>
     <use x="1006.466797" xlink:href="#DejaVuSans-116"/>
     <use x="1045.675781" xlink:href="#DejaVuSans-32"/>
     <use x="1077.462891" xlink:href="#DejaVuSans-118"/>
     <use x="1136.642578" xlink:href="#DejaVuSans-115"/>
     <use x="1188.742188" xlink:href="#DejaVuSans-32"/>
     <use x="1220.529297" xlink:href="#DejaVuSans-80"/>
     <use x="1279.082031" xlink:href="#DejaVuSans-114"/>
     <use x="1320.195312" xlink:href="#DejaVuSans-105"/>
     <use x="1347.978516" xlink:href="#DejaVuSans-99"/>
     <use x="1402.958984" xlink:href="#DejaVuSans-101"/>
     <use x="1464.482422" xlink:href="#DejaVuSans-32"/>
     <use x="1496.269531" xlink:href="#DejaVuSans-80"/>
     <use x="1552.072266" xlink:href="#DejaVuSans-97"/>
     <use x="1613.351562" xlink:href="#DejaVuSans-105"/>
     <use x="1641.134766" xlink:href="#DejaVuSans-100"/>
     <use x="1704.611328" xlink:href="#DejaVuSans-32"/>
     <use x="1736.398438" xlink:href="#DejaVuSans-98"/>
     <use x="1799.875" xlink:href="#DejaVuSans-121"/>
     <use x="1859.054688" xlink:href="#DejaVuSans-32"/>
     <use x="1890.841797" xlink:href="#DejaVuSans-83"/>
     <use x="1954.318359" xlink:href="#DejaVuSans-117"/>
     <use x="2017.697266" xlink:href="#DejaVuSans-98"/>
     <use x="2081.173828" xlink:href="#DejaVuSans-106"/>
     <use x="2108.957031" xlink:href="#DejaVuSans-101"/>
     <use x="2170.480469" xlink:href="#DejaVuSans-99"/>
     <use x="2225.460938" xlink:href="#DejaVuSans-116"/>
    </g>
   </g>
  </g>
 </g>
 <defs>
  <clipPath id="pd880c72a1c">
   <rect height="326.16" width="558" x="90" y="51.84"/>
  </clipPath>
 </defs>
</svg>
