<?xml version="1.0" encoding="utf-8" standalone="no"?>
<!DOCTYPE svg PUBLIC "-//W3C//DTD SVG 1.1//EN"
  "http://www.w3.org/Graphics/SVG/1.1/DTD/svg11.dtd">
<!-- Created with matplotlib (https://matplotlib.org/) -->
<svg height="504pt" version="1.1" viewBox="0 0 864 504" width="864pt" xmlns="http://www.w3.org/2000/svg" xmlns:xlink="http://www.w3.org/1999/xlink">
 <metadata>
  <rdf:RDF xmlns:cc="http://creativecommons.org/ns#" xmlns:dc="http://purl.org/dc/elements/1.1/" xmlns:rdf="http://www.w3.org/1999/02/22-rdf-syntax-ns#">
   <cc:Work>
    <dc:type rdf:resource="http://purl.org/dc/dcmitype/StillImage"/>
    <dc:date>2025-01-29T23:25:13.879973</dc:date>
    <dc:format>image/svg+xml</dc:format>
    <dc:creator>
     <cc:Agent>
      <dc:title>Matplotlib v3.3.4, https://matplotlib.org/</dc:title>
     </cc:Agent>
    </dc:creator>
   </cc:Work>
  </rdf:RDF>
 </metadata>
 <defs>
  <style type="text/css">*{stroke-linecap:butt;stroke-linejoin:round;}</style>
 </defs>
 <g id="figure_1">
  <g id="patch_1">
   <path d="M 0 504 
L 864 504 
L 864 0 
L 0 0 
z
" style="fill:#ffffff;"/>
  </g>
  <g id="axes_1">
   <g id="patch_2">
    <path d="M 108 441 
L 777.6 441 
L 777.6 60.48 
L 108 60.48 
z
" style="fill:#ffffff;"/>
   </g>
   <g id="patch_3">
    <path clip-path="url(#p4b8c66afe0)" d="M 115.3656 441 
L 122.0616 441 
L 122.0616 104.59611 
L 115.3656 104.59611 
z
" style="fill:#1f77b4;opacity:0.5;stroke:#000000;stroke-linejoin:miter;"/>
   </g>
   <g id="patch_4">
    <path clip-path="url(#p4b8c66afe0)" d="M 128.7576 441 
L 135.4536 441 
L 135.4536 109.969663 
L 128.7576 109.969663 
z
" style="fill:#1f77b4;opacity:0.5;stroke:#000000;stroke-linejoin:miter;"/>
   </g>
   <g id="patch_5">
    <path clip-path="url(#p4b8c66afe0)" d="M 142.1496 441 
L 148.8456 441 
L 148.8456 288.481653 
L 142.1496 288.481653 
z
" style="fill:#1f77b4;opacity:0.5;stroke:#000000;stroke-linejoin:miter;"/>
   </g>
   <g id="patch_6">
    <path clip-path="url(#p4b8c66afe0)" d="M 155.5416 441 
L 162.2376 441 
L 162.2376 292.319905 
L 155.5416 292.319905 
z
" style="fill:#1f77b4;opacity:0.5;stroke:#000000;stroke-linejoin:miter;"/>
   </g>
   <g id="patch_7">
    <path clip-path="url(#p4b8c66afe0)" d="M 168.9336 441 
L 175.6296 441 
L 175.6296 299.588084 
L 168.9336 299.588084 
z
" style="fill:#1f77b4;opacity:0.5;stroke:#000000;stroke-linejoin:miter;"/>
   </g>
   <g id="patch_8">
    <path clip-path="url(#p4b8c66afe0)" d="M 182.3256 441 
L 189.0216 441 
L 189.0216 317.514107 
L 182.3256 317.514107 
z
" style="fill:#1f77b4;opacity:0.5;stroke:#000000;stroke-linejoin:miter;"/>
   </g>
   <g id="patch_9">
    <path clip-path="url(#p4b8c66afe0)" d="M 195.7176 441 
L 202.4136 441 
L 202.4136 328.197516 
L 195.7176 328.197516 
z
" style="fill:#1f77b4;opacity:0.5;stroke:#000000;stroke-linejoin:miter;"/>
   </g>
   <g id="patch_10">
    <path clip-path="url(#p4b8c66afe0)" d="M 209.1096 441 
L 215.8056 441 
L 215.8056 343.181566 
L 209.1096 343.181566 
z
" style="fill:#1f77b4;opacity:0.5;stroke:#000000;stroke-linejoin:miter;"/>
   </g>
   <g id="patch_11">
    <path clip-path="url(#p4b8c66afe0)" d="M 222.5016 441 
L 229.1976 441 
L 229.1976 351.064058 
L 222.5016 351.064058 
z
" style="fill:#1f77b4;opacity:0.5;stroke:#000000;stroke-linejoin:miter;"/>
   </g>
   <g id="patch_12">
    <path clip-path="url(#p4b8c66afe0)" d="M 235.8936 441 
L 242.5896 441 
L 242.5896 372.437854 
L 235.8936 372.437854 
z
" style="fill:#1f77b4;opacity:0.5;stroke:#000000;stroke-linejoin:miter;"/>
   </g>
   <g id="patch_13">
    <path clip-path="url(#p4b8c66afe0)" d="M 249.2856 441 
L 255.9816 441 
L 255.9816 376.915814 
L 249.2856 376.915814 
z
" style="fill:#1f77b4;opacity:0.5;stroke:#000000;stroke-linejoin:miter;"/>
   </g>
   <g id="patch_14">
    <path clip-path="url(#p4b8c66afe0)" d="M 262.6776 441 
L 269.3736 441 
L 269.3736 376.915814 
L 262.6776 376.915814 
z
" style="fill:#1f77b4;opacity:0.5;stroke:#000000;stroke-linejoin:miter;"/>
   </g>
   <g id="patch_15">
    <path clip-path="url(#p4b8c66afe0)" d="M 276.0696 441 
L 282.7656 441 
L 282.7656 376.915814 
L 276.0696 376.915814 
z
" style="fill:#1f77b4;opacity:0.5;stroke:#000000;stroke-linejoin:miter;"/>
   </g>
   <g id="patch_16">
    <path clip-path="url(#p4b8c66afe0)" d="M 289.4616 441 
L 296.1576 441 
L 296.1576 376.915814 
L 289.4616 376.915814 
z
" style="fill:#1f77b4;opacity:0.5;stroke:#000000;stroke-linejoin:miter;"/>
   </g>
   <g id="patch_17">
    <path clip-path="url(#p4b8c66afe0)" d="M 302.8536 441 
L 309.5496 441 
L 309.5496 381.049317 
L 302.8536 381.049317 
z
" style="fill:#1f77b4;opacity:0.5;stroke:#000000;stroke-linejoin:miter;"/>
   </g>
   <g id="patch_18">
    <path clip-path="url(#p4b8c66afe0)" d="M 316.2456 441 
L 322.9416 441 
L 322.9416 387.983735 
L 316.2456 387.983735 
z
" style="fill:#1f77b4;opacity:0.5;stroke:#000000;stroke-linejoin:miter;"/>
   </g>
   <g id="patch_19">
    <path clip-path="url(#p4b8c66afe0)" d="M 329.6376 441 
L 336.3336 441 
L 336.3336 391.732725 
L 329.6376 391.732725 
z
" style="fill:#1f77b4;opacity:0.5;stroke:#000000;stroke-linejoin:miter;"/>
   </g>
   <g id="patch_20">
    <path clip-path="url(#p4b8c66afe0)" d="M 343.0296 441 
L 349.7256 441 
L 349.7256 396.474095 
L 343.0296 396.474095 
z
" style="fill:#1f77b4;opacity:0.5;stroke:#000000;stroke-linejoin:miter;"/>
   </g>
   <g id="patch_21">
    <path clip-path="url(#p4b8c66afe0)" d="M 356.4216 441 
L 363.1176 441 
L 363.1176 396.474095 
L 356.4216 396.474095 
z
" style="fill:#1f77b4;opacity:0.5;stroke:#000000;stroke-linejoin:miter;"/>
   </g>
   <g id="patch_22">
    <path clip-path="url(#p4b8c66afe0)" d="M 369.8136 441 
L 376.5096 441 
L 376.5096 404.719956 
L 369.8136 404.719956 
z
" style="fill:#1f77b4;opacity:0.5;stroke:#000000;stroke-linejoin:miter;"/>
   </g>
   <g id="patch_23">
    <path clip-path="url(#p4b8c66afe0)" d="M 383.2056 441 
L 389.9016 441 
L 389.9016 404.719956 
L 383.2056 404.719956 
z
" style="fill:#1f77b4;opacity:0.5;stroke:#000000;stroke-linejoin:miter;"/>
   </g>
   <g id="patch_24">
    <path clip-path="url(#p4b8c66afe0)" d="M 396.5976 441 
L 403.2936 441 
L 403.2936 409.461327 
L 396.5976 409.461327 
z
" style="fill:#1f77b4;opacity:0.5;stroke:#000000;stroke-linejoin:miter;"/>
   </g>
   <g id="patch_25">
    <path clip-path="url(#p4b8c66afe0)" d="M 409.9896 441 
L 416.6856 441 
L 416.6856 424.438035 
L 409.9896 424.438035 
z
" style="fill:#1f77b4;opacity:0.5;stroke:#000000;stroke-linejoin:miter;"/>
   </g>
   <g id="patch_26">
    <path clip-path="url(#p4b8c66afe0)" d="M 423.3816 441 
L 430.0776 441 
L 430.0776 428.020404 
L 423.3816 428.020404 
z
" style="fill:#1f77b4;opacity:0.5;stroke:#000000;stroke-linejoin:miter;"/>
   </g>
   <g id="patch_27">
    <path clip-path="url(#p4b8c66afe0)" d="M 436.7736 441 
L 443.4696 441 
L 443.4696 428.020404 
L 436.7736 428.020404 
z
" style="fill:#1f77b4;opacity:0.5;stroke:#000000;stroke-linejoin:miter;"/>
   </g>
   <g id="patch_28">
    <path clip-path="url(#p4b8c66afe0)" d="M 120.7224 441 
L 127.4184 441 
L 127.4184 78.6 
L 120.7224 78.6 
z
" style="fill:#ff7f0e;opacity:0.5;stroke:#000000;stroke-linejoin:miter;"/>
   </g>
   <g id="patch_29">
    <path clip-path="url(#p4b8c66afe0)" d="M 134.1144 441 
L 140.8104 441 
L 140.8104 99.696898 
L 134.1144 99.696898 
z
" style="fill:#ff7f0e;opacity:0.5;stroke:#000000;stroke-linejoin:miter;"/>
   </g>
   <g id="patch_30">
    <path clip-path="url(#p4b8c66afe0)" d="M 147.5064 441 
L 154.2024 441 
L 154.2024 277.676021 
L 147.5064 277.676021 
z
" style="fill:#ff7f0e;opacity:0.5;stroke:#000000;stroke-linejoin:miter;"/>
   </g>
   <g id="patch_31">
    <path clip-path="url(#p4b8c66afe0)" d="M 160.8984 441 
L 167.5944 441 
L 167.5944 286.38989 
L 160.8984 286.38989 
z
" style="fill:#ff7f0e;opacity:0.5;stroke:#000000;stroke-linejoin:miter;"/>
   </g>
   <g id="patch_32">
    <path clip-path="url(#p4b8c66afe0)" d="M 174.2904 441 
L 180.9864 441 
L 180.9864 295.631873 
L 174.2904 295.631873 
z
" style="fill:#ff7f0e;opacity:0.5;stroke:#000000;stroke-linejoin:miter;"/>
   </g>
   <g id="patch_33">
    <path clip-path="url(#p4b8c66afe0)" d="M 187.6824 441 
L 194.3784 441 
L 194.3784 315.882646 
L 187.6824 315.882646 
z
" style="fill:#ff7f0e;opacity:0.5;stroke:#000000;stroke-linejoin:miter;"/>
   </g>
   <g id="patch_34">
    <path clip-path="url(#p4b8c66afe0)" d="M 201.0744 441 
L 207.7704 441 
L 207.7704 339.166189 
L 201.0744 339.166189 
z
" style="fill:#ff7f0e;opacity:0.5;stroke:#000000;stroke-linejoin:miter;"/>
   </g>
   <g id="patch_35">
    <path clip-path="url(#p4b8c66afe0)" d="M 214.4664 441 
L 221.1624 441 
L 221.1624 353.013839 
L 214.4664 353.013839 
z
" style="fill:#ff7f0e;opacity:0.5;stroke:#000000;stroke-linejoin:miter;"/>
   </g>
   <g id="patch_36">
    <path clip-path="url(#p4b8c66afe0)" d="M 227.8584 441 
L 234.5544 441 
L 234.5544 361.302642 
L 227.8584 361.302642 
z
" style="fill:#ff7f0e;opacity:0.5;stroke:#000000;stroke-linejoin:miter;"/>
   </g>
   <g id="patch_37">
    <path clip-path="url(#p4b8c66afe0)" d="M 241.2504 441 
L 247.9464 441 
L 247.9464 364.592572 
L 241.2504 364.592572 
z
" style="fill:#ff7f0e;opacity:0.5;stroke:#000000;stroke-linejoin:miter;"/>
   </g>
   <g id="patch_38">
    <path clip-path="url(#p4b8c66afe0)" d="M 254.6424 441 
L 261.3384 441 
L 261.3384 373.409488 
L 254.6424 373.409488 
z
" style="fill:#ff7f0e;opacity:0.5;stroke:#000000;stroke-linejoin:miter;"/>
   </g>
   <g id="patch_39">
    <path clip-path="url(#p4b8c66afe0)" d="M 268.0344 441 
L 274.7304 441 
L 274.7304 373.409488 
L 268.0344 373.409488 
z
" style="fill:#ff7f0e;opacity:0.5;stroke:#000000;stroke-linejoin:miter;"/>
   </g>
   <g id="patch_40">
    <path clip-path="url(#p4b8c66afe0)" d="M 281.4264 441 
L 288.1224 441 
L 288.1224 373.409488 
L 281.4264 373.409488 
z
" style="fill:#ff7f0e;opacity:0.5;stroke:#000000;stroke-linejoin:miter;"/>
   </g>
   <g id="patch_41">
    <path clip-path="url(#p4b8c66afe0)" d="M 294.8184 441 
L 301.5144 441 
L 301.5144 376.913979 
L 294.8184 376.913979 
z
" style="fill:#ff7f0e;opacity:0.5;stroke:#000000;stroke-linejoin:miter;"/>
   </g>
   <g id="patch_42">
    <path clip-path="url(#p4b8c66afe0)" d="M 308.2104 441 
L 314.9064 441 
L 314.9064 384.693134 
L 308.2104 384.693134 
z
" style="fill:#ff7f0e;opacity:0.5;stroke:#000000;stroke-linejoin:miter;"/>
   </g>
   <g id="patch_43">
    <path clip-path="url(#p4b8c66afe0)" d="M 321.6024 441 
L 328.2984 441 
L 328.2984 388.625002 
L 321.6024 388.625002 
z
" style="fill:#ff7f0e;opacity:0.5;stroke:#000000;stroke-linejoin:miter;"/>
   </g>
   <g id="patch_44">
    <path clip-path="url(#p4b8c66afe0)" d="M 334.9944 441 
L 341.6904 441 
L 341.6904 395.803919 
L 334.9944 395.803919 
z
" style="fill:#ff7f0e;opacity:0.5;stroke:#000000;stroke-linejoin:miter;"/>
   </g>
   <g id="patch_45">
    <path clip-path="url(#p4b8c66afe0)" d="M 348.3864 441 
L 355.0824 441 
L 355.0824 399.735787 
L 348.3864 399.735787 
z
" style="fill:#ff7f0e;opacity:0.5;stroke:#000000;stroke-linejoin:miter;"/>
   </g>
   <g id="patch_46">
    <path clip-path="url(#p4b8c66afe0)" d="M 361.7784 441 
L 368.4744 441 
L 368.4744 405.294635 
L 361.7784 405.294635 
z
" style="fill:#ff7f0e;opacity:0.5;stroke:#000000;stroke-linejoin:miter;"/>
   </g>
   <g id="patch_47">
    <path clip-path="url(#p4b8c66afe0)" d="M 375.1704 441 
L 381.8664 441 
L 381.8664 408.724562 
L 375.1704 408.724562 
z
" style="fill:#ff7f0e;opacity:0.5;stroke:#000000;stroke-linejoin:miter;"/>
   </g>
   <g id="patch_48">
    <path clip-path="url(#p4b8c66afe0)" d="M 388.5624 441 
L 395.2584 441 
L 395.2584 408.724562 
L 388.5624 408.724562 
z
" style="fill:#ff7f0e;opacity:0.5;stroke:#000000;stroke-linejoin:miter;"/>
   </g>
   <g id="patch_49">
    <path clip-path="url(#p4b8c66afe0)" d="M 401.9544 441 
L 408.6504 441 
L 408.6504 419.761262 
L 401.9544 419.761262 
z
" style="fill:#ff7f0e;opacity:0.5;stroke:#000000;stroke-linejoin:miter;"/>
   </g>
   <g id="patch_50">
    <path clip-path="url(#p4b8c66afe0)" d="M 415.3464 441 
L 422.0424 441 
L 422.0424 423.791427 
L 415.3464 423.791427 
z
" style="fill:#ff7f0e;opacity:0.5;stroke:#000000;stroke-linejoin:miter;"/>
   </g>
   <g id="patch_51">
    <path clip-path="url(#p4b8c66afe0)" d="M 428.7384 441 
L 435.4344 441 
L 435.4344 428.829133 
L 428.7384 428.829133 
z
" style="fill:#ff7f0e;opacity:0.5;stroke:#000000;stroke-linejoin:miter;"/>
   </g>
   <g id="patch_52">
    <path clip-path="url(#p4b8c66afe0)" d="M 442.1304 441 
L 448.8264 441 
L 448.8264 435.029386 
L 442.1304 435.029386 
z
" style="fill:#ff7f0e;opacity:0.5;stroke:#000000;stroke-linejoin:miter;"/>
   </g>
   <g id="matplotlib.axis_1">
    <g id="xtick_1">
     <g id="line2d_1">
      <path clip-path="url(#p4b8c66afe0)" d="M 108 441 
L 108 60.48 
" style="fill:none;stroke:#b0b0b0;stroke-linecap:square;stroke-width:0.8;"/>
     </g>
     <g id="line2d_2">
      <defs>
       <path d="M 0 0 
L 0 3.5 
" id="m5308ed3dd7" style="stroke:#000000;stroke-width:0.8;"/>
      </defs>
      <g>
       <use style="stroke:#000000;stroke-width:0.8;" x="108" xlink:href="#m5308ed3dd7" y="441"/>
      </g>
     </g>
     <g id="text_1">
      <!-- 0 -->
      <g transform="translate(104.81875 455.598437)scale(0.1 -0.1)">
       <defs>
        <path d="M 31.78125 66.40625 
Q 24.171875 66.40625 20.328125 58.90625 
Q 16.5 51.421875 16.5 36.375 
Q 16.5 21.390625 20.328125 13.890625 
Q 24.171875 6.390625 31.78125 6.390625 
Q 39.453125 6.390625 43.28125 13.890625 
Q 47.125 21.390625 47.125 36.375 
Q 47.125 51.421875 43.28125 58.90625 
Q 39.453125 66.40625 31.78125 66.40625 
z
M 31.78125 74.21875 
Q 44.046875 74.21875 50.515625 64.515625 
Q 56.984375 54.828125 56.984375 36.375 
Q 56.984375 17.96875 50.515625 8.265625 
Q 44.046875 -1.421875 31.78125 -1.421875 
Q 19.53125 -1.421875 13.0625 8.265625 
Q 6.59375 17.96875 6.59375 36.375 
Q 6.59375 54.828125 13.0625 64.515625 
Q 19.53125 74.21875 31.78125 74.21875 
z
" id="DejaVuSans-48"/>
       </defs>
       <use xlink:href="#DejaVuSans-48"/>
      </g>
     </g>
    </g>
    <g id="xtick_2">
     <g id="line2d_3">
      <path clip-path="url(#p4b8c66afe0)" d="M 241.92 441 
L 241.92 60.48 
" style="fill:none;stroke:#b0b0b0;stroke-linecap:square;stroke-width:0.8;"/>
     </g>
     <g id="line2d_4">
      <g>
       <use style="stroke:#000000;stroke-width:0.8;" x="241.92" xlink:href="#m5308ed3dd7" y="441"/>
      </g>
     </g>
     <g id="text_2">
      <!-- 10 -->
      <g transform="translate(235.5575 455.598437)scale(0.1 -0.1)">
       <defs>
        <path d="M 12.40625 8.296875 
L 28.515625 8.296875 
L 28.515625 63.921875 
L 10.984375 60.40625 
L 10.984375 69.390625 
L 28.421875 72.90625 
L 38.28125 72.90625 
L 38.28125 8.296875 
L 54.390625 8.296875 
L 54.390625 0 
L 12.40625 0 
z
" id="DejaVuSans-49"/>
       </defs>
       <use xlink:href="#DejaVuSans-49"/>
       <use x="63.623047" xlink:href="#DejaVuSans-48"/>
      </g>
     </g>
    </g>
    <g id="xtick_3">
     <g id="line2d_5">
      <path clip-path="url(#p4b8c66afe0)" d="M 375.84 441 
L 375.84 60.48 
" style="fill:none;stroke:#b0b0b0;stroke-linecap:square;stroke-width:0.8;"/>
     </g>
     <g id="line2d_6">
      <g>
       <use style="stroke:#000000;stroke-width:0.8;" x="375.84" xlink:href="#m5308ed3dd7" y="441"/>
      </g>
     </g>
     <g id="text_3">
      <!-- 20 -->
      <g transform="translate(369.4775 455.598437)scale(0.1 -0.1)">
       <defs>
        <path d="M 19.1875 8.296875 
L 53.609375 8.296875 
L 53.609375 0 
L 7.328125 0 
L 7.328125 8.296875 
Q 12.9375 14.109375 22.625 23.890625 
Q 32.328125 33.6875 34.8125 36.53125 
Q 39.546875 41.84375 41.421875 45.53125 
Q 43.3125 49.21875 43.3125 52.78125 
Q 43.3125 58.59375 39.234375 62.25 
Q 35.15625 65.921875 28.609375 65.921875 
Q 23.96875 65.921875 18.8125 64.3125 
Q 13.671875 62.703125 7.8125 59.421875 
L 7.8125 69.390625 
Q 13.765625 71.78125 18.9375 73 
Q 24.125 74.21875 28.421875 74.21875 
Q 39.75 74.21875 46.484375 68.546875 
Q 53.21875 62.890625 53.21875 53.421875 
Q 53.21875 48.921875 51.53125 44.890625 
Q 49.859375 40.875 45.40625 35.40625 
Q 44.1875 33.984375 37.640625 27.21875 
Q 31.109375 20.453125 19.1875 8.296875 
z
" id="DejaVuSans-50"/>
       </defs>
       <use xlink:href="#DejaVuSans-50"/>
       <use x="63.623047" xlink:href="#DejaVuSans-48"/>
      </g>
     </g>
    </g>
    <g id="xtick_4">
     <g id="line2d_7">
      <path clip-path="url(#p4b8c66afe0)" d="M 509.76 441 
L 509.76 60.48 
" style="fill:none;stroke:#b0b0b0;stroke-linecap:square;stroke-width:0.8;"/>
     </g>
     <g id="line2d_8">
      <g>
       <use style="stroke:#000000;stroke-width:0.8;" x="509.76" xlink:href="#m5308ed3dd7" y="441"/>
      </g>
     </g>
     <g id="text_4">
      <!-- 30 -->
      <g transform="translate(503.3975 455.598437)scale(0.1 -0.1)">
       <defs>
        <path d="M 40.578125 39.3125 
Q 47.65625 37.796875 51.625 33 
Q 55.609375 28.21875 55.609375 21.1875 
Q 55.609375 10.40625 48.1875 4.484375 
Q 40.765625 -1.421875 27.09375 -1.421875 
Q 22.515625 -1.421875 17.65625 -0.515625 
Q 12.796875 0.390625 7.625 2.203125 
L 7.625 11.71875 
Q 11.71875 9.328125 16.59375 8.109375 
Q 21.484375 6.890625 26.8125 6.890625 
Q 36.078125 6.890625 40.9375 10.546875 
Q 45.796875 14.203125 45.796875 21.1875 
Q 45.796875 27.640625 41.28125 31.265625 
Q 36.765625 34.90625 28.71875 34.90625 
L 20.21875 34.90625 
L 20.21875 43.015625 
L 29.109375 43.015625 
Q 36.375 43.015625 40.234375 45.921875 
Q 44.09375 48.828125 44.09375 54.296875 
Q 44.09375 59.90625 40.109375 62.90625 
Q 36.140625 65.921875 28.71875 65.921875 
Q 24.65625 65.921875 20.015625 65.03125 
Q 15.375 64.15625 9.8125 62.3125 
L 9.8125 71.09375 
Q 15.4375 72.65625 20.34375 73.4375 
Q 25.25 74.21875 29.59375 74.21875 
Q 40.828125 74.21875 47.359375 69.109375 
Q 53.90625 64.015625 53.90625 55.328125 
Q 53.90625 49.265625 50.4375 45.09375 
Q 46.96875 40.921875 40.578125 39.3125 
z
" id="DejaVuSans-51"/>
       </defs>
       <use xlink:href="#DejaVuSans-51"/>
       <use x="63.623047" xlink:href="#DejaVuSans-48"/>
      </g>
     </g>
    </g>
    <g id="xtick_5">
     <g id="line2d_9">
      <path clip-path="url(#p4b8c66afe0)" d="M 643.68 441 
L 643.68 60.48 
" style="fill:none;stroke:#b0b0b0;stroke-linecap:square;stroke-width:0.8;"/>
     </g>
     <g id="line2d_10">
      <g>
       <use style="stroke:#000000;stroke-width:0.8;" x="643.68" xlink:href="#m5308ed3dd7" y="441"/>
      </g>
     </g>
     <g id="text_5">
      <!-- 40 -->
      <g transform="translate(637.3175 455.598437)scale(0.1 -0.1)">
       <defs>
        <path d="M 37.796875 64.3125 
L 12.890625 25.390625 
L 37.796875 25.390625 
z
M 35.203125 72.90625 
L 47.609375 72.90625 
L 47.609375 25.390625 
L 58.015625 25.390625 
L 58.015625 17.1875 
L 47.609375 17.1875 
L 47.609375 0 
L 37.796875 0 
L 37.796875 17.1875 
L 4.890625 17.1875 
L 4.890625 26.703125 
z
" id="DejaVuSans-52"/>
       </defs>
       <use xlink:href="#DejaVuSans-52"/>
       <use x="63.623047" xlink:href="#DejaVuSans-48"/>
      </g>
     </g>
    </g>
    <g id="xtick_6">
     <g id="line2d_11">
      <path clip-path="url(#p4b8c66afe0)" d="M 777.6 441 
L 777.6 60.48 
" style="fill:none;stroke:#b0b0b0;stroke-linecap:square;stroke-width:0.8;"/>
     </g>
     <g id="line2d_12">
      <g>
       <use style="stroke:#000000;stroke-width:0.8;" x="777.6" xlink:href="#m5308ed3dd7" y="441"/>
      </g>
     </g>
     <g id="text_6">
      <!-- 50 -->
      <g transform="translate(771.2375 455.598437)scale(0.1 -0.1)">
       <defs>
        <path d="M 10.796875 72.90625 
L 49.515625 72.90625 
L 49.515625 64.59375 
L 19.828125 64.59375 
L 19.828125 46.734375 
Q 21.96875 47.46875 24.109375 47.828125 
Q 26.265625 48.1875 28.421875 48.1875 
Q 40.625 48.1875 47.75 41.5 
Q 54.890625 34.8125 54.890625 23.390625 
Q 54.890625 11.625 47.5625 5.09375 
Q 40.234375 -1.421875 26.90625 -1.421875 
Q 22.3125 -1.421875 17.546875 -0.640625 
Q 12.796875 0.140625 7.71875 1.703125 
L 7.71875 11.625 
Q 12.109375 9.234375 16.796875 8.0625 
Q 21.484375 6.890625 26.703125 6.890625 
Q 35.15625 6.890625 40.078125 11.328125 
Q 45.015625 15.765625 45.015625 23.390625 
Q 45.015625 31 40.078125 35.4375 
Q 35.15625 39.890625 26.703125 39.890625 
Q 22.75 39.890625 18.8125 39.015625 
Q 14.890625 38.140625 10.796875 36.28125 
z
" id="DejaVuSans-53"/>
       </defs>
       <use xlink:href="#DejaVuSans-53"/>
       <use x="63.623047" xlink:href="#DejaVuSans-48"/>
      </g>
     </g>
    </g>
    <g id="text_7">
     <!-- Pellet Price -->
     <g transform="translate(415.288281 469.276563)scale(0.1 -0.1)">
      <defs>
       <path d="M 19.671875 64.796875 
L 19.671875 37.40625 
L 32.078125 37.40625 
Q 38.96875 37.40625 42.71875 40.96875 
Q 46.484375 44.53125 46.484375 51.125 
Q 46.484375 57.671875 42.71875 61.234375 
Q 38.96875 64.796875 32.078125 64.796875 
z
M 9.8125 72.90625 
L 32.078125 72.90625 
Q 44.34375 72.90625 50.609375 67.359375 
Q 56.890625 61.8125 56.890625 51.125 
Q 56.890625 40.328125 50.609375 34.8125 
Q 44.34375 29.296875 32.078125 29.296875 
L 19.671875 29.296875 
L 19.671875 0 
L 9.8125 0 
z
" id="DejaVuSans-80"/>
       <path d="M 56.203125 29.59375 
L 56.203125 25.203125 
L 14.890625 25.203125 
Q 15.484375 15.921875 20.484375 11.0625 
Q 25.484375 6.203125 34.421875 6.203125 
Q 39.59375 6.203125 44.453125 7.46875 
Q 49.3125 8.734375 54.109375 11.28125 
L 54.109375 2.78125 
Q 49.265625 0.734375 44.1875 -0.34375 
Q 39.109375 -1.421875 33.890625 -1.421875 
Q 20.796875 -1.421875 13.15625 6.1875 
Q 5.515625 13.8125 5.515625 26.8125 
Q 5.515625 40.234375 12.765625 48.109375 
Q 20.015625 56 32.328125 56 
Q 43.359375 56 49.78125 48.890625 
Q 56.203125 41.796875 56.203125 29.59375 
z
M 47.21875 32.234375 
Q 47.125 39.59375 43.09375 43.984375 
Q 39.0625 48.390625 32.421875 48.390625 
Q 24.90625 48.390625 20.390625 44.140625 
Q 15.875 39.890625 15.1875 32.171875 
z
" id="DejaVuSans-101"/>
       <path d="M 9.421875 75.984375 
L 18.40625 75.984375 
L 18.40625 0 
L 9.421875 0 
z
" id="DejaVuSans-108"/>
       <path d="M 18.3125 70.21875 
L 18.3125 54.6875 
L 36.8125 54.6875 
L 36.8125 47.703125 
L 18.3125 47.703125 
L 18.3125 18.015625 
Q 18.3125 11.328125 20.140625 9.421875 
Q 21.96875 7.515625 27.59375 7.515625 
L 36.8125 7.515625 
L 36.8125 0 
L 27.59375 0 
Q 17.1875 0 13.234375 3.875 
Q 9.28125 7.765625 9.28125 18.015625 
L 9.28125 47.703125 
L 2.6875 47.703125 
L 2.6875 54.6875 
L 9.28125 54.6875 
L 9.28125 70.21875 
z
" id="DejaVuSans-116"/>
       <path id="DejaVuSans-32"/>
       <path d="M 41.109375 46.296875 
Q 39.59375 47.171875 37.8125 47.578125 
Q 36.03125 48 33.890625 48 
Q 26.265625 48 22.1875 43.046875 
Q 18.109375 38.09375 18.109375 28.8125 
L 18.109375 0 
L 9.078125 0 
L 9.078125 54.6875 
L 18.109375 54.6875 
L 18.109375 46.1875 
Q 20.953125 51.171875 25.484375 53.578125 
Q 30.03125 56 36.53125 56 
Q 37.453125 56 38.578125 55.875 
Q 39.703125 55.765625 41.0625 55.515625 
z
" id="DejaVuSans-114"/>
       <path d="M 9.421875 54.6875 
L 18.40625 54.6875 
L 18.40625 0 
L 9.421875 0 
z
M 9.421875 75.984375 
L 18.40625 75.984375 
L 18.40625 64.59375 
L 9.421875 64.59375 
z
" id="DejaVuSans-105"/>
       <path d="M 48.78125 52.59375 
L 48.78125 44.1875 
Q 44.96875 46.296875 41.140625 47.34375 
Q 37.3125 48.390625 33.40625 48.390625 
Q 24.65625 48.390625 19.8125 42.84375 
Q 14.984375 37.3125 14.984375 27.296875 
Q 14.984375 17.28125 19.8125 11.734375 
Q 24.65625 6.203125 33.40625 6.203125 
Q 37.3125 6.203125 41.140625 7.25 
Q 44.96875 8.296875 48.78125 10.40625 
L 48.78125 2.09375 
Q 45.015625 0.34375 40.984375 -0.53125 
Q 36.96875 -1.421875 32.421875 -1.421875 
Q 20.0625 -1.421875 12.78125 6.34375 
Q 5.515625 14.109375 5.515625 27.296875 
Q 5.515625 40.671875 12.859375 48.328125 
Q 20.21875 56 33.015625 56 
Q 37.15625 56 41.109375 55.140625 
Q 45.0625 54.296875 48.78125 52.59375 
z
" id="DejaVuSans-99"/>
      </defs>
      <use xlink:href="#DejaVuSans-80"/>
      <use x="56.677734" xlink:href="#DejaVuSans-101"/>
      <use x="118.201172" xlink:href="#DejaVuSans-108"/>
      <use x="145.984375" xlink:href="#DejaVuSans-108"/>
      <use x="173.767578" xlink:href="#DejaVuSans-101"/>
      <use x="235.291016" xlink:href="#DejaVuSans-116"/>
      <use x="274.5" xlink:href="#DejaVuSans-32"/>
      <use x="306.287109" xlink:href="#DejaVuSans-80"/>
      <use x="364.839844" xlink:href="#DejaVuSans-114"/>
      <use x="405.953125" xlink:href="#DejaVuSans-105"/>
      <use x="433.736328" xlink:href="#DejaVuSans-99"/>
      <use x="488.716797" xlink:href="#DejaVuSans-101"/>
     </g>
    </g>
   </g>
   <g id="matplotlib.axis_2">
    <g id="ytick_1">
     <g id="line2d_13">
      <path clip-path="url(#p4b8c66afe0)" d="M 108 441 
L 777.6 441 
" style="fill:none;stroke:#b0b0b0;stroke-linecap:square;stroke-width:0.8;"/>
     </g>
     <g id="line2d_14">
      <defs>
       <path d="M 0 0 
L -3.5 0 
" id="m4e2121ba14" style="stroke:#000000;stroke-width:0.8;"/>
      </defs>
      <g>
       <use style="stroke:#000000;stroke-width:0.8;" x="108" xlink:href="#m4e2121ba14" y="441"/>
      </g>
     </g>
     <g id="text_8">
      <!-- 0.00 -->
      <g transform="translate(78.734375 444.799219)scale(0.1 -0.1)">
       <defs>
        <path d="M 10.6875 12.40625 
L 21 12.40625 
L 21 0 
L 10.6875 0 
z
" id="DejaVuSans-46"/>
       </defs>
       <use xlink:href="#DejaVuSans-48"/>
       <use x="63.623047" xlink:href="#DejaVuSans-46"/>
       <use x="95.410156" xlink:href="#DejaVuSans-48"/>
       <use x="159.033203" xlink:href="#DejaVuSans-48"/>
      </g>
     </g>
    </g>
    <g id="ytick_2">
     <g id="line2d_15">
      <path clip-path="url(#p4b8c66afe0)" d="M 108 395.862156 
L 777.6 395.862156 
" style="fill:none;stroke:#b0b0b0;stroke-linecap:square;stroke-width:0.8;"/>
     </g>
     <g id="line2d_16">
      <g>
       <use style="stroke:#000000;stroke-width:0.8;" x="108" xlink:href="#m4e2121ba14" y="395.862156"/>
      </g>
     </g>
     <g id="text_9">
      <!-- 0.02 -->
      <g transform="translate(78.734375 399.661375)scale(0.1 -0.1)">
       <use xlink:href="#DejaVuSans-48"/>
       <use x="63.623047" xlink:href="#DejaVuSans-46"/>
       <use x="95.410156" xlink:href="#DejaVuSans-48"/>
       <use x="159.033203" xlink:href="#DejaVuSans-50"/>
      </g>
     </g>
    </g>
    <g id="ytick_3">
     <g id="line2d_17">
      <path clip-path="url(#p4b8c66afe0)" d="M 108 350.724313 
L 777.6 350.724313 
" style="fill:none;stroke:#b0b0b0;stroke-linecap:square;stroke-width:0.8;"/>
     </g>
     <g id="line2d_18">
      <g>
       <use style="stroke:#000000;stroke-width:0.8;" x="108" xlink:href="#m4e2121ba14" y="350.724313"/>
      </g>
     </g>
     <g id="text_10">
      <!-- 0.04 -->
      <g transform="translate(78.734375 354.523532)scale(0.1 -0.1)">
       <use xlink:href="#DejaVuSans-48"/>
       <use x="63.623047" xlink:href="#DejaVuSans-46"/>
       <use x="95.410156" xlink:href="#DejaVuSans-48"/>
       <use x="159.033203" xlink:href="#DejaVuSans-52"/>
      </g>
     </g>
    </g>
    <g id="ytick_4">
     <g id="line2d_19">
      <path clip-path="url(#p4b8c66afe0)" d="M 108 305.586469 
L 777.6 305.586469 
" style="fill:none;stroke:#b0b0b0;stroke-linecap:square;stroke-width:0.8;"/>
     </g>
     <g id="line2d_20">
      <g>
       <use style="stroke:#000000;stroke-width:0.8;" x="108" xlink:href="#m4e2121ba14" y="305.586469"/>
      </g>
     </g>
     <g id="text_11">
      <!-- 0.06 -->
      <g transform="translate(78.734375 309.385688)scale(0.1 -0.1)">
       <defs>
        <path d="M 33.015625 40.375 
Q 26.375 40.375 22.484375 35.828125 
Q 18.609375 31.296875 18.609375 23.390625 
Q 18.609375 15.53125 22.484375 10.953125 
Q 26.375 6.390625 33.015625 6.390625 
Q 39.65625 6.390625 43.53125 10.953125 
Q 47.40625 15.53125 47.40625 23.390625 
Q 47.40625 31.296875 43.53125 35.828125 
Q 39.65625 40.375 33.015625 40.375 
z
M 52.59375 71.296875 
L 52.59375 62.3125 
Q 48.875 64.0625 45.09375 64.984375 
Q 41.3125 65.921875 37.59375 65.921875 
Q 27.828125 65.921875 22.671875 59.328125 
Q 17.53125 52.734375 16.796875 39.40625 
Q 19.671875 43.65625 24.015625 45.921875 
Q 28.375 48.1875 33.59375 48.1875 
Q 44.578125 48.1875 50.953125 41.515625 
Q 57.328125 34.859375 57.328125 23.390625 
Q 57.328125 12.15625 50.6875 5.359375 
Q 44.046875 -1.421875 33.015625 -1.421875 
Q 20.359375 -1.421875 13.671875 8.265625 
Q 6.984375 17.96875 6.984375 36.375 
Q 6.984375 53.65625 15.1875 63.9375 
Q 23.390625 74.21875 37.203125 74.21875 
Q 40.921875 74.21875 44.703125 73.484375 
Q 48.484375 72.75 52.59375 71.296875 
z
" id="DejaVuSans-54"/>
       </defs>
       <use xlink:href="#DejaVuSans-48"/>
       <use x="63.623047" xlink:href="#DejaVuSans-46"/>
       <use x="95.410156" xlink:href="#DejaVuSans-48"/>
       <use x="159.033203" xlink:href="#DejaVuSans-54"/>
      </g>
     </g>
    </g>
    <g id="ytick_5">
     <g id="line2d_21">
      <path clip-path="url(#p4b8c66afe0)" d="M 108 260.448626 
L 777.6 260.448626 
" style="fill:none;stroke:#b0b0b0;stroke-linecap:square;stroke-width:0.8;"/>
     </g>
     <g id="line2d_22">
      <g>
       <use style="stroke:#000000;stroke-width:0.8;" x="108" xlink:href="#m4e2121ba14" y="260.448626"/>
      </g>
     </g>
     <g id="text_12">
      <!-- 0.08 -->
      <g transform="translate(78.734375 264.247845)scale(0.1 -0.1)">
       <defs>
        <path d="M 31.78125 34.625 
Q 24.75 34.625 20.71875 30.859375 
Q 16.703125 27.09375 16.703125 20.515625 
Q 16.703125 13.921875 20.71875 10.15625 
Q 24.75 6.390625 31.78125 6.390625 
Q 38.8125 6.390625 42.859375 10.171875 
Q 46.921875 13.96875 46.921875 20.515625 
Q 46.921875 27.09375 42.890625 30.859375 
Q 38.875 34.625 31.78125 34.625 
z
M 21.921875 38.8125 
Q 15.578125 40.375 12.03125 44.71875 
Q 8.5 49.078125 8.5 55.328125 
Q 8.5 64.0625 14.71875 69.140625 
Q 20.953125 74.21875 31.78125 74.21875 
Q 42.671875 74.21875 48.875 69.140625 
Q 55.078125 64.0625 55.078125 55.328125 
Q 55.078125 49.078125 51.53125 44.71875 
Q 48 40.375 41.703125 38.8125 
Q 48.828125 37.15625 52.796875 32.3125 
Q 56.78125 27.484375 56.78125 20.515625 
Q 56.78125 9.90625 50.3125 4.234375 
Q 43.84375 -1.421875 31.78125 -1.421875 
Q 19.734375 -1.421875 13.25 4.234375 
Q 6.78125 9.90625 6.78125 20.515625 
Q 6.78125 27.484375 10.78125 32.3125 
Q 14.796875 37.15625 21.921875 38.8125 
z
M 18.3125 54.390625 
Q 18.3125 48.734375 21.84375 45.5625 
Q 25.390625 42.390625 31.78125 42.390625 
Q 38.140625 42.390625 41.71875 45.5625 
Q 45.3125 48.734375 45.3125 54.390625 
Q 45.3125 60.0625 41.71875 63.234375 
Q 38.140625 66.40625 31.78125 66.40625 
Q 25.390625 66.40625 21.84375 63.234375 
Q 18.3125 60.0625 18.3125 54.390625 
z
" id="DejaVuSans-56"/>
       </defs>
       <use xlink:href="#DejaVuSans-48"/>
       <use x="63.623047" xlink:href="#DejaVuSans-46"/>
       <use x="95.410156" xlink:href="#DejaVuSans-48"/>
       <use x="159.033203" xlink:href="#DejaVuSans-56"/>
      </g>
     </g>
    </g>
    <g id="ytick_6">
     <g id="line2d_23">
      <path clip-path="url(#p4b8c66afe0)" d="M 108 215.310782 
L 777.6 215.310782 
" style="fill:none;stroke:#b0b0b0;stroke-linecap:square;stroke-width:0.8;"/>
     </g>
     <g id="line2d_24">
      <g>
       <use style="stroke:#000000;stroke-width:0.8;" x="108" xlink:href="#m4e2121ba14" y="215.310782"/>
      </g>
     </g>
     <g id="text_13">
      <!-- 0.10 -->
      <g transform="translate(78.734375 219.110001)scale(0.1 -0.1)">
       <use xlink:href="#DejaVuSans-48"/>
       <use x="63.623047" xlink:href="#DejaVuSans-46"/>
       <use x="95.410156" xlink:href="#DejaVuSans-49"/>
       <use x="159.033203" xlink:href="#DejaVuSans-48"/>
      </g>
     </g>
    </g>
    <g id="ytick_7">
     <g id="line2d_25">
      <path clip-path="url(#p4b8c66afe0)" d="M 108 170.172939 
L 777.6 170.172939 
" style="fill:none;stroke:#b0b0b0;stroke-linecap:square;stroke-width:0.8;"/>
     </g>
     <g id="line2d_26">
      <g>
       <use style="stroke:#000000;stroke-width:0.8;" x="108" xlink:href="#m4e2121ba14" y="170.172939"/>
      </g>
     </g>
     <g id="text_14">
      <!-- 0.12 -->
      <g transform="translate(78.734375 173.972158)scale(0.1 -0.1)">
       <use xlink:href="#DejaVuSans-48"/>
       <use x="63.623047" xlink:href="#DejaVuSans-46"/>
       <use x="95.410156" xlink:href="#DejaVuSans-49"/>
       <use x="159.033203" xlink:href="#DejaVuSans-50"/>
      </g>
     </g>
    </g>
    <g id="ytick_8">
     <g id="line2d_27">
      <path clip-path="url(#p4b8c66afe0)" d="M 108 125.035095 
L 777.6 125.035095 
" style="fill:none;stroke:#b0b0b0;stroke-linecap:square;stroke-width:0.8;"/>
     </g>
     <g id="line2d_28">
      <g>
       <use style="stroke:#000000;stroke-width:0.8;" x="108" xlink:href="#m4e2121ba14" y="125.035095"/>
      </g>
     </g>
     <g id="text_15">
      <!-- 0.14 -->
      <g transform="translate(78.734375 128.834314)scale(0.1 -0.1)">
       <use xlink:href="#DejaVuSans-48"/>
       <use x="63.623047" xlink:href="#DejaVuSans-46"/>
       <use x="95.410156" xlink:href="#DejaVuSans-49"/>
       <use x="159.033203" xlink:href="#DejaVuSans-52"/>
      </g>
     </g>
    </g>
    <g id="ytick_9">
     <g id="line2d_29">
      <path clip-path="url(#p4b8c66afe0)" d="M 108 79.897252 
L 777.6 79.897252 
" style="fill:none;stroke:#b0b0b0;stroke-linecap:square;stroke-width:0.8;"/>
     </g>
     <g id="line2d_30">
      <g>
       <use style="stroke:#000000;stroke-width:0.8;" x="108" xlink:href="#m4e2121ba14" y="79.897252"/>
      </g>
     </g>
     <g id="text_16">
      <!-- 0.16 -->
      <g transform="translate(78.734375 83.696471)scale(0.1 -0.1)">
       <use xlink:href="#DejaVuSans-48"/>
       <use x="63.623047" xlink:href="#DejaVuSans-46"/>
       <use x="95.410156" xlink:href="#DejaVuSans-49"/>
       <use x="159.033203" xlink:href="#DejaVuSans-54"/>
      </g>
     </g>
    </g>
    <g id="text_17">
     <!-- Average Frequency -->
     <g transform="translate(72.654687 298.691563)rotate(-90)scale(0.1 -0.1)">
      <defs>
       <path d="M 34.1875 63.1875 
L 20.796875 26.90625 
L 47.609375 26.90625 
z
M 28.609375 72.90625 
L 39.796875 72.90625 
L 67.578125 0 
L 57.328125 0 
L 50.6875 18.703125 
L 17.828125 18.703125 
L 11.1875 0 
L 0.78125 0 
z
" id="DejaVuSans-65"/>
       <path d="M 2.984375 54.6875 
L 12.5 54.6875 
L 29.59375 8.796875 
L 46.6875 54.6875 
L 56.203125 54.6875 
L 35.6875 0 
L 23.484375 0 
z
" id="DejaVuSans-118"/>
       <path d="M 34.28125 27.484375 
Q 23.390625 27.484375 19.1875 25 
Q 14.984375 22.515625 14.984375 16.5 
Q 14.984375 11.71875 18.140625 8.90625 
Q 21.296875 6.109375 26.703125 6.109375 
Q 34.1875 6.109375 38.703125 11.40625 
Q 43.21875 16.703125 43.21875 25.484375 
L 43.21875 27.484375 
z
M 52.203125 31.203125 
L 52.203125 0 
L 43.21875 0 
L 43.21875 8.296875 
Q 40.140625 3.328125 35.546875 0.953125 
Q 30.953125 -1.421875 24.3125 -1.421875 
Q 15.921875 -1.421875 10.953125 3.296875 
Q 6 8.015625 6 15.921875 
Q 6 25.140625 12.171875 29.828125 
Q 18.359375 34.515625 30.609375 34.515625 
L 43.21875 34.515625 
L 43.21875 35.40625 
Q 43.21875 41.609375 39.140625 45 
Q 35.0625 48.390625 27.6875 48.390625 
Q 23 48.390625 18.546875 47.265625 
Q 14.109375 46.140625 10.015625 43.890625 
L 10.015625 52.203125 
Q 14.9375 54.109375 19.578125 55.046875 
Q 24.21875 56 28.609375 56 
Q 40.484375 56 46.34375 49.84375 
Q 52.203125 43.703125 52.203125 31.203125 
z
" id="DejaVuSans-97"/>
       <path d="M 45.40625 27.984375 
Q 45.40625 37.75 41.375 43.109375 
Q 37.359375 48.484375 30.078125 48.484375 
Q 22.859375 48.484375 18.828125 43.109375 
Q 14.796875 37.75 14.796875 27.984375 
Q 14.796875 18.265625 18.828125 12.890625 
Q 22.859375 7.515625 30.078125 7.515625 
Q 37.359375 7.515625 41.375 12.890625 
Q 45.40625 18.265625 45.40625 27.984375 
z
M 54.390625 6.78125 
Q 54.390625 -7.171875 48.1875 -13.984375 
Q 42 -20.796875 29.203125 -20.796875 
Q 24.46875 -20.796875 20.265625 -20.09375 
Q 16.0625 -19.390625 12.109375 -17.921875 
L 12.109375 -9.1875 
Q 16.0625 -11.328125 19.921875 -12.34375 
Q 23.78125 -13.375 27.78125 -13.375 
Q 36.625 -13.375 41.015625 -8.765625 
Q 45.40625 -4.15625 45.40625 5.171875 
L 45.40625 9.625 
Q 42.625 4.78125 38.28125 2.390625 
Q 33.9375 0 27.875 0 
Q 17.828125 0 11.671875 7.65625 
Q 5.515625 15.328125 5.515625 27.984375 
Q 5.515625 40.671875 11.671875 48.328125 
Q 17.828125 56 27.875 56 
Q 33.9375 56 38.28125 53.609375 
Q 42.625 51.21875 45.40625 46.390625 
L 45.40625 54.6875 
L 54.390625 54.6875 
z
" id="DejaVuSans-103"/>
       <path d="M 9.8125 72.90625 
L 51.703125 72.90625 
L 51.703125 64.59375 
L 19.671875 64.59375 
L 19.671875 43.109375 
L 48.578125 43.109375 
L 48.578125 34.8125 
L 19.671875 34.8125 
L 19.671875 0 
L 9.8125 0 
z
" id="DejaVuSans-70"/>
       <path d="M 14.796875 27.296875 
Q 14.796875 17.390625 18.875 11.75 
Q 22.953125 6.109375 30.078125 6.109375 
Q 37.203125 6.109375 41.296875 11.75 
Q 45.40625 17.390625 45.40625 27.296875 
Q 45.40625 37.203125 41.296875 42.84375 
Q 37.203125 48.484375 30.078125 48.484375 
Q 22.953125 48.484375 18.875 42.84375 
Q 14.796875 37.203125 14.796875 27.296875 
z
M 45.40625 8.203125 
Q 42.578125 3.328125 38.25 0.953125 
Q 33.9375 -1.421875 27.875 -1.421875 
Q 17.96875 -1.421875 11.734375 6.484375 
Q 5.515625 14.40625 5.515625 27.296875 
Q 5.515625 40.1875 11.734375 48.09375 
Q 17.96875 56 27.875 56 
Q 33.9375 56 38.25 53.625 
Q 42.578125 51.265625 45.40625 46.390625 
L 45.40625 54.6875 
L 54.390625 54.6875 
L 54.390625 -20.796875 
L 45.40625 -20.796875 
z
" id="DejaVuSans-113"/>
       <path d="M 8.5 21.578125 
L 8.5 54.6875 
L 17.484375 54.6875 
L 17.484375 21.921875 
Q 17.484375 14.15625 20.5 10.265625 
Q 23.53125 6.390625 29.59375 6.390625 
Q 36.859375 6.390625 41.078125 11.03125 
Q 45.3125 15.671875 45.3125 23.6875 
L 45.3125 54.6875 
L 54.296875 54.6875 
L 54.296875 0 
L 45.3125 0 
L 45.3125 8.40625 
Q 42.046875 3.421875 37.71875 1 
Q 33.40625 -1.421875 27.6875 -1.421875 
Q 18.265625 -1.421875 13.375 4.4375 
Q 8.5 10.296875 8.5 21.578125 
z
M 31.109375 56 
z
" id="DejaVuSans-117"/>
       <path d="M 54.890625 33.015625 
L 54.890625 0 
L 45.90625 0 
L 45.90625 32.71875 
Q 45.90625 40.484375 42.875 44.328125 
Q 39.84375 48.1875 33.796875 48.1875 
Q 26.515625 48.1875 22.3125 43.546875 
Q 18.109375 38.921875 18.109375 30.90625 
L 18.109375 0 
L 9.078125 0 
L 9.078125 54.6875 
L 18.109375 54.6875 
L 18.109375 46.1875 
Q 21.34375 51.125 25.703125 53.5625 
Q 30.078125 56 35.796875 56 
Q 45.21875 56 50.046875 50.171875 
Q 54.890625 44.34375 54.890625 33.015625 
z
" id="DejaVuSans-110"/>
       <path d="M 32.171875 -5.078125 
Q 28.375 -14.84375 24.75 -17.8125 
Q 21.140625 -20.796875 15.09375 -20.796875 
L 7.90625 -20.796875 
L 7.90625 -13.28125 
L 13.1875 -13.28125 
Q 16.890625 -13.28125 18.9375 -11.515625 
Q 21 -9.765625 23.484375 -3.21875 
L 25.09375 0.875 
L 2.984375 54.6875 
L 12.5 54.6875 
L 29.59375 11.921875 
L 46.6875 54.6875 
L 56.203125 54.6875 
z
" id="DejaVuSans-121"/>
      </defs>
      <use xlink:href="#DejaVuSans-65"/>
      <use x="62.533203" xlink:href="#DejaVuSans-118"/>
      <use x="121.712891" xlink:href="#DejaVuSans-101"/>
      <use x="183.236328" xlink:href="#DejaVuSans-114"/>
      <use x="224.349609" xlink:href="#DejaVuSans-97"/>
      <use x="285.628906" xlink:href="#DejaVuSans-103"/>
      <use x="349.105469" xlink:href="#DejaVuSans-101"/>
      <use x="410.628906" xlink:href="#DejaVuSans-32"/>
      <use x="442.416016" xlink:href="#DejaVuSans-70"/>
      <use x="492.685547" xlink:href="#DejaVuSans-114"/>
      <use x="531.548828" xlink:href="#DejaVuSans-101"/>
      <use x="593.072266" xlink:href="#DejaVuSans-113"/>
      <use x="656.548828" xlink:href="#DejaVuSans-117"/>
      <use x="719.927734" xlink:href="#DejaVuSans-101"/>
      <use x="781.451172" xlink:href="#DejaVuSans-110"/>
      <use x="844.830078" xlink:href="#DejaVuSans-99"/>
      <use x="899.810547" xlink:href="#DejaVuSans-121"/>
     </g>
    </g>
   </g>
   <g id="line2d_31">
    <path clip-path="url(#p4b8c66afe0)" d="M 86.18193 439.195294 
L 88.150916 438.046149 
L 90.119901 436.29605 
L 92.088887 433.710585 
L 94.057873 430.006016 
L 96.026858 424.858604 
L 97.995844 417.924097 
L 99.96483 408.868155 
L 101.933815 397.406449 
L 103.902801 383.350684 
L 105.871787 366.654369 
L 107.840772 347.450545 
L 109.809758 326.073562 
L 113.747729 279.116358 
L 117.6857 231.859235 
L 119.654686 210.326904 
L 121.623672 191.28757 
L 123.592657 175.398859 
L 125.561643 163.134676 
L 127.530628 154.764685 
L 129.499614 150.35243 
L 131.4686 149.768192 
L 133.437585 152.712117 
L 135.406571 158.743932 
L 137.375557 167.316952 
L 139.344542 177.815228 
L 143.282513 202.01482 
L 147.220485 226.528619 
L 149.18947 237.721736 
L 151.158456 247.800547 
L 153.127442 256.615342 
L 155.096427 264.129844 
L 157.065413 270.401757 
L 159.034398 275.557726 
L 161.003384 279.766709 
L 162.97237 283.215333 
L 164.941355 286.087766 
L 166.910341 288.551351 
L 170.848312 292.79096 
L 178.724255 300.74388 
L 184.631212 307.110957 
L 196.445125 320.409702 
L 210.228025 335.869843 
L 218.103967 344.243561 
L 227.948895 354.660615 
L 237.793823 365.284659 
L 241.731795 369.020137 
L 243.70078 370.663398 
L 245.669766 372.1332 
L 247.638752 373.421775 
L 249.607737 374.529302 
L 251.576723 375.462838 
L 253.545708 376.234782 
L 255.514694 376.861143 
L 259.452665 377.749629 
L 263.390637 378.273151 
L 267.328608 378.559746 
L 275.20455 378.796402 
L 283.080493 379.001491 
L 288.98745 379.394227 
L 292.925421 379.881856 
L 296.863392 380.61672 
L 300.801363 381.636694 
L 304.739335 382.95004 
L 308.677306 384.528911 
L 314.584263 387.245109 
L 324.429191 391.897704 
L 330.336148 394.352688 
L 336.243105 396.459363 
L 342.150062 398.233639 
L 348.057018 399.718501 
L 359.870932 402.537998 
L 365.777889 404.331429 
L 377.591803 408.167442 
L 383.49876 409.750493 
L 389.405717 411.322887 
L 393.343688 412.594157 
L 397.281659 414.181117 
L 401.21963 416.130288 
L 405.157602 418.400673 
L 416.971515 425.641142 
L 420.909487 427.630753 
L 424.847458 429.258164 
L 428.785429 430.560606 
L 434.692386 432.15034 
L 440.599343 433.716425 
L 446.5063 435.533352 
L 454.382242 438.064328 
L 458.320213 439.108859 
L 462.258185 439.893523 
L 466.196156 440.414966 
L 470.134127 440.721444 
L 476.041084 440.925191 
L 478.01007 440.954298 
L 478.01007 440.954298 
" style="fill:none;stroke:#0000ff;stroke-dasharray:5.55,2.4;stroke-dashoffset:0;stroke-width:1.5;"/>
   </g>
   <g id="line2d_32">
    <path clip-path="url(#p4b8c66afe0)" d="M 87.336813 439.055471 
L 89.294192 437.776442 
L 91.251571 435.809155 
L 93.208949 432.879432 
L 95.166328 428.65593 
L 97.123707 422.763228 
L 99.081086 414.808024 
L 101.038465 404.419067 
L 102.995843 391.298544 
L 104.953222 375.279197 
L 106.910601 356.378325 
L 108.86798 334.838077 
L 110.825358 311.141959 
L 118.654873 211.272029 
L 120.612252 189.896338 
L 122.569631 171.724036 
L 124.52701 157.341978 
L 126.484388 147.101431 
L 128.441767 141.115984 
L 130.399146 139.279828 
L 132.356525 141.298681 
L 134.313903 146.726506 
L 136.271282 155.003688 
L 138.228661 165.495139 
L 140.18604 177.528529 
L 148.015555 228.467819 
L 149.972934 239.434399 
L 151.930312 249.108023 
L 153.887691 257.414599 
L 155.84507 264.386665 
L 157.802449 270.138683 
L 159.759827 274.839179 
L 161.717206 278.683841 
L 163.674585 281.872802 
L 165.631964 284.593863 
L 169.546721 289.264267 
L 175.418857 295.975222 
L 179.333615 300.936744 
L 183.248373 306.438799 
L 187.16313 312.394802 
L 198.907403 330.79514 
L 202.82216 336.289437 
L 206.736918 341.185981 
L 210.651675 345.453949 
L 214.566433 349.135003 
L 218.48119 352.305251 
L 222.395948 355.045523 
L 226.310705 357.433066 
L 230.225463 359.548153 
L 236.097599 362.400767 
L 245.884493 366.82424 
L 249.79925 368.445309 
L 253.714008 369.854396 
L 257.628765 370.970469 
L 261.543523 371.771302 
L 265.458281 372.304592 
L 273.287796 372.989406 
L 279.159932 373.635075 
L 283.074689 374.312806 
L 286.989447 375.258056 
L 290.904204 376.489955 
L 294.818962 377.990008 
L 300.691098 380.614649 
L 335.923916 397.320379 
L 341.796052 399.801384 
L 347.668189 401.988016 
L 355.497704 404.603126 
L 363.327219 407.002915 
L 369.199355 408.623325 
L 382.901006 412.139221 
L 386.815764 413.505936 
L 390.730521 415.222732 
L 394.645279 417.262874 
L 406.389551 423.797921 
L 410.304309 425.644144 
L 414.219066 427.26567 
L 420.091203 429.398276 
L 429.878097 432.605944 
L 441.622369 436.256431 
L 447.494505 437.895904 
L 451.409263 438.832583 
L 455.32402 439.595819 
L 459.238778 440.164882 
L 463.153535 440.548108 
L 469.025672 440.851557 
L 476.855187 440.977044 
L 476.855187 440.977044 
" style="fill:none;stroke:#ff0000;stroke-dasharray:5.55,2.4;stroke-dashoffset:0;stroke-width:1.5;"/>
   </g>
   <g id="patch_53">
    <path d="M 108 441 
L 108 60.48 
" style="fill:none;stroke:#000000;stroke-linecap:square;stroke-linejoin:miter;stroke-width:0.8;"/>
   </g>
   <g id="patch_54">
    <path d="M 777.6 441 
L 777.6 60.48 
" style="fill:none;stroke:#000000;stroke-linecap:square;stroke-linejoin:miter;stroke-width:0.8;"/>
   </g>
   <g id="patch_55">
    <path d="M 108 441 
L 777.6 441 
" style="fill:none;stroke:#000000;stroke-linecap:square;stroke-linejoin:miter;stroke-width:0.8;"/>
   </g>
   <g id="patch_56">
    <path d="M 108 60.48 
L 777.6 60.48 
" style="fill:none;stroke:#000000;stroke-linecap:square;stroke-linejoin:miter;stroke-width:0.8;"/>
   </g>
   <g id="text_18">
    <!-- Average Normalized Histograms and KDE of Pellet Price -->
    <g transform="translate(276.010313 54.48)scale(0.12 -0.12)">
     <defs>
      <path d="M 9.8125 72.90625 
L 23.09375 72.90625 
L 55.421875 11.921875 
L 55.421875 72.90625 
L 64.984375 72.90625 
L 64.984375 0 
L 51.703125 0 
L 19.390625 60.984375 
L 19.390625 0 
L 9.8125 0 
z
" id="DejaVuSans-78"/>
      <path d="M 30.609375 48.390625 
Q 23.390625 48.390625 19.1875 42.75 
Q 14.984375 37.109375 14.984375 27.296875 
Q 14.984375 17.484375 19.15625 11.84375 
Q 23.34375 6.203125 30.609375 6.203125 
Q 37.796875 6.203125 41.984375 11.859375 
Q 46.1875 17.53125 46.1875 27.296875 
Q 46.1875 37.015625 41.984375 42.703125 
Q 37.796875 48.390625 30.609375 48.390625 
z
M 30.609375 56 
Q 42.328125 56 49.015625 48.375 
Q 55.71875 40.765625 55.71875 27.296875 
Q 55.71875 13.875 49.015625 6.21875 
Q 42.328125 -1.421875 30.609375 -1.421875 
Q 18.84375 -1.421875 12.171875 6.21875 
Q 5.515625 13.875 5.515625 27.296875 
Q 5.515625 40.765625 12.171875 48.375 
Q 18.84375 56 30.609375 56 
z
" id="DejaVuSans-111"/>
      <path d="M 52 44.1875 
Q 55.375 50.25 60.0625 53.125 
Q 64.75 56 71.09375 56 
Q 79.640625 56 84.28125 50.015625 
Q 88.921875 44.046875 88.921875 33.015625 
L 88.921875 0 
L 79.890625 0 
L 79.890625 32.71875 
Q 79.890625 40.578125 77.09375 44.375 
Q 74.3125 48.1875 68.609375 48.1875 
Q 61.625 48.1875 57.5625 43.546875 
Q 53.515625 38.921875 53.515625 30.90625 
L 53.515625 0 
L 44.484375 0 
L 44.484375 32.71875 
Q 44.484375 40.625 41.703125 44.40625 
Q 38.921875 48.1875 33.109375 48.1875 
Q 26.21875 48.1875 22.15625 43.53125 
Q 18.109375 38.875 18.109375 30.90625 
L 18.109375 0 
L 9.078125 0 
L 9.078125 54.6875 
L 18.109375 54.6875 
L 18.109375 46.1875 
Q 21.1875 51.21875 25.484375 53.609375 
Q 29.78125 56 35.6875 56 
Q 41.65625 56 45.828125 52.96875 
Q 50 49.953125 52 44.1875 
z
" id="DejaVuSans-109"/>
      <path d="M 5.515625 54.6875 
L 48.1875 54.6875 
L 48.1875 46.484375 
L 14.40625 7.171875 
L 48.1875 7.171875 
L 48.1875 0 
L 4.296875 0 
L 4.296875 8.203125 
L 38.09375 47.515625 
L 5.515625 47.515625 
z
" id="DejaVuSans-122"/>
      <path d="M 45.40625 46.390625 
L 45.40625 75.984375 
L 54.390625 75.984375 
L 54.390625 0 
L 45.40625 0 
L 45.40625 8.203125 
Q 42.578125 3.328125 38.25 0.953125 
Q 33.9375 -1.421875 27.875 -1.421875 
Q 17.96875 -1.421875 11.734375 6.484375 
Q 5.515625 14.40625 5.515625 27.296875 
Q 5.515625 40.1875 11.734375 48.09375 
Q 17.96875 56 27.875 56 
Q 33.9375 56 38.25 53.625 
Q 42.578125 51.265625 45.40625 46.390625 
z
M 14.796875 27.296875 
Q 14.796875 17.390625 18.875 11.75 
Q 22.953125 6.109375 30.078125 6.109375 
Q 37.203125 6.109375 41.296875 11.75 
Q 45.40625 17.390625 45.40625 27.296875 
Q 45.40625 37.203125 41.296875 42.84375 
Q 37.203125 48.484375 30.078125 48.484375 
Q 22.953125 48.484375 18.875 42.84375 
Q 14.796875 37.203125 14.796875 27.296875 
z
" id="DejaVuSans-100"/>
      <path d="M 9.8125 72.90625 
L 19.671875 72.90625 
L 19.671875 43.015625 
L 55.515625 43.015625 
L 55.515625 72.90625 
L 65.375 72.90625 
L 65.375 0 
L 55.515625 0 
L 55.515625 34.71875 
L 19.671875 34.71875 
L 19.671875 0 
L 9.8125 0 
z
" id="DejaVuSans-72"/>
      <path d="M 44.28125 53.078125 
L 44.28125 44.578125 
Q 40.484375 46.53125 36.375 47.5 
Q 32.28125 48.484375 27.875 48.484375 
Q 21.1875 48.484375 17.84375 46.4375 
Q 14.5 44.390625 14.5 40.28125 
Q 14.5 37.15625 16.890625 35.375 
Q 19.28125 33.59375 26.515625 31.984375 
L 29.59375 31.296875 
Q 39.15625 29.25 43.1875 25.515625 
Q 47.21875 21.78125 47.21875 15.09375 
Q 47.21875 7.46875 41.1875 3.015625 
Q 35.15625 -1.421875 24.609375 -1.421875 
Q 20.21875 -1.421875 15.453125 -0.5625 
Q 10.6875 0.296875 5.421875 2 
L 5.421875 11.28125 
Q 10.40625 8.6875 15.234375 7.390625 
Q 20.0625 6.109375 24.8125 6.109375 
Q 31.15625 6.109375 34.5625 8.28125 
Q 37.984375 10.453125 37.984375 14.40625 
Q 37.984375 18.0625 35.515625 20.015625 
Q 33.0625 21.96875 24.703125 23.78125 
L 21.578125 24.515625 
Q 13.234375 26.265625 9.515625 29.90625 
Q 5.8125 33.546875 5.8125 39.890625 
Q 5.8125 47.609375 11.28125 51.796875 
Q 16.75 56 26.8125 56 
Q 31.78125 56 36.171875 55.265625 
Q 40.578125 54.546875 44.28125 53.078125 
z
" id="DejaVuSans-115"/>
      <path d="M 9.8125 72.90625 
L 19.671875 72.90625 
L 19.671875 42.09375 
L 52.390625 72.90625 
L 65.09375 72.90625 
L 28.90625 38.921875 
L 67.671875 0 
L 54.6875 0 
L 19.671875 35.109375 
L 19.671875 0 
L 9.8125 0 
z
" id="DejaVuSans-75"/>
      <path d="M 19.671875 64.796875 
L 19.671875 8.109375 
L 31.59375 8.109375 
Q 46.6875 8.109375 53.6875 14.9375 
Q 60.6875 21.78125 60.6875 36.53125 
Q 60.6875 51.171875 53.6875 57.984375 
Q 46.6875 64.796875 31.59375 64.796875 
z
M 9.8125 72.90625 
L 30.078125 72.90625 
Q 51.265625 72.90625 61.171875 64.09375 
Q 71.09375 55.28125 71.09375 36.53125 
Q 71.09375 17.671875 61.125 8.828125 
Q 51.171875 0 30.078125 0 
L 9.8125 0 
z
" id="DejaVuSans-68"/>
      <path d="M 9.8125 72.90625 
L 55.90625 72.90625 
L 55.90625 64.59375 
L 19.671875 64.59375 
L 19.671875 43.015625 
L 54.390625 43.015625 
L 54.390625 34.71875 
L 19.671875 34.71875 
L 19.671875 8.296875 
L 56.78125 8.296875 
L 56.78125 0 
L 9.8125 0 
z
" id="DejaVuSans-69"/>
      <path d="M 37.109375 75.984375 
L 37.109375 68.5 
L 28.515625 68.5 
Q 23.6875 68.5 21.796875 66.546875 
Q 19.921875 64.59375 19.921875 59.515625 
L 19.921875 54.6875 
L 34.71875 54.6875 
L 34.71875 47.703125 
L 19.921875 47.703125 
L 19.921875 0 
L 10.890625 0 
L 10.890625 47.703125 
L 2.296875 47.703125 
L 2.296875 54.6875 
L 10.890625 54.6875 
L 10.890625 58.5 
Q 10.890625 67.625 15.140625 71.796875 
Q 19.390625 75.984375 28.609375 75.984375 
z
" id="DejaVuSans-102"/>
     </defs>
     <use xlink:href="#DejaVuSans-65"/>
     <use x="62.533203" xlink:href="#DejaVuSans-118"/>
     <use x="121.712891" xlink:href="#DejaVuSans-101"/>
     <use x="183.236328" xlink:href="#DejaVuSans-114"/>
     <use x="224.349609" xlink:href="#DejaVuSans-97"/>
     <use x="285.628906" xlink:href="#DejaVuSans-103"/>
     <use x="349.105469" xlink:href="#DejaVuSans-101"/>
     <use x="410.628906" xlink:href="#DejaVuSans-32"/>
     <use x="442.416016" xlink:href="#DejaVuSans-78"/>
     <use x="517.220703" xlink:href="#DejaVuSans-111"/>
     <use x="578.402344" xlink:href="#DejaVuSans-114"/>
     <use x="617.765625" xlink:href="#DejaVuSans-109"/>
     <use x="715.177734" xlink:href="#DejaVuSans-97"/>
     <use x="776.457031" xlink:href="#DejaVuSans-108"/>
     <use x="804.240234" xlink:href="#DejaVuSans-105"/>
     <use x="832.023438" xlink:href="#DejaVuSans-122"/>
     <use x="884.513672" xlink:href="#DejaVuSans-101"/>
     <use x="946.037109" xlink:href="#DejaVuSans-100"/>
     <use x="1009.513672" xlink:href="#DejaVuSans-32"/>
     <use x="1041.300781" xlink:href="#DejaVuSans-72"/>
     <use x="1116.496094" xlink:href="#DejaVuSans-105"/>
     <use x="1144.279297" xlink:href="#DejaVuSans-115"/>
     <use x="1196.378906" xlink:href="#DejaVuSans-116"/>
     <use x="1235.587891" xlink:href="#DejaVuSans-111"/>
     <use x="1296.769531" xlink:href="#DejaVuSans-103"/>
     <use x="1360.246094" xlink:href="#DejaVuSans-114"/>
     <use x="1401.359375" xlink:href="#DejaVuSans-97"/>
     <use x="1462.638672" xlink:href="#DejaVuSans-109"/>
     <use x="1560.050781" xlink:href="#DejaVuSans-115"/>
     <use x="1612.150391" xlink:href="#DejaVuSans-32"/>
     <use x="1643.9375" xlink:href="#DejaVuSans-97"/>
     <use x="1705.216797" xlink:href="#DejaVuSans-110"/>
     <use x="1768.595703" xlink:href="#DejaVuSans-100"/>
     <use x="1832.072266" xlink:href="#DejaVuSans-32"/>
     <use x="1863.859375" xlink:href="#DejaVuSans-75"/>
     <use x="1929.435547" xlink:href="#DejaVuSans-68"/>
     <use x="2006.4375" xlink:href="#DejaVuSans-69"/>
     <use x="2069.621094" xlink:href="#DejaVuSans-32"/>
     <use x="2101.408203" xlink:href="#DejaVuSans-111"/>
     <use x="2162.589844" xlink:href="#DejaVuSans-102"/>
     <use x="2197.794922" xlink:href="#DejaVuSans-32"/>
     <use x="2229.582031" xlink:href="#DejaVuSans-80"/>
     <use x="2286.259766" xlink:href="#DejaVuSans-101"/>
     <use x="2347.783203" xlink:href="#DejaVuSans-108"/>
     <use x="2375.566406" xlink:href="#DejaVuSans-108"/>
     <use x="2403.349609" xlink:href="#DejaVuSans-101"/>
     <use x="2464.873047" xlink:href="#DejaVuSans-116"/>
     <use x="2504.082031" xlink:href="#DejaVuSans-32"/>
     <use x="2535.869141" xlink:href="#DejaVuSans-80"/>
     <use x="2594.421875" xlink:href="#DejaVuSans-114"/>
     <use x="2635.535156" xlink:href="#DejaVuSans-105"/>
     <use x="2663.318359" xlink:href="#DejaVuSans-99"/>
     <use x="2718.298828" xlink:href="#DejaVuSans-101"/>
    </g>
   </g>
   <g id="legend_1">
    <g id="patch_57">
     <path d="M 607.5875 128.305 
L 770.6 128.305 
Q 772.6 128.305 772.6 126.305 
L 772.6 67.48 
Q 772.6 65.48 770.6 65.48 
L 607.5875 65.48 
Q 605.5875 65.48 605.5875 67.48 
L 605.5875 126.305 
Q 605.5875 128.305 607.5875 128.305 
z
" style="fill:#ffffff;opacity:0.8;stroke:#cccccc;stroke-linejoin:miter;"/>
    </g>
    <g id="line2d_33">
     <path d="M 609.5875 73.578438 
L 629.5875 73.578438 
" style="fill:none;stroke:#0000ff;stroke-dasharray:5.55,2.4;stroke-dashoffset:0;stroke-width:1.5;"/>
    </g>
    <g id="line2d_34"/>
    <g id="text_19">
     <!-- KDE for result_df -->
     <g transform="translate(637.5875 77.078438)scale(0.1 -0.1)">
      <defs>
       <path d="M 50.984375 -16.609375 
L 50.984375 -23.578125 
L -0.984375 -23.578125 
L -0.984375 -16.609375 
z
" id="DejaVuSans-95"/>
      </defs>
      <use xlink:href="#DejaVuSans-75"/>
      <use x="65.576172" xlink:href="#DejaVuSans-68"/>
      <use x="142.578125" xlink:href="#DejaVuSans-69"/>
      <use x="205.761719" xlink:href="#DejaVuSans-32"/>
      <use x="237.548828" xlink:href="#DejaVuSans-102"/>
      <use x="272.753906" xlink:href="#DejaVuSans-111"/>
      <use x="333.935547" xlink:href="#DejaVuSans-114"/>
      <use x="375.048828" xlink:href="#DejaVuSans-32"/>
      <use x="406.835938" xlink:href="#DejaVuSans-114"/>
      <use x="445.699219" xlink:href="#DejaVuSans-101"/>
      <use x="507.222656" xlink:href="#DejaVuSans-115"/>
      <use x="559.322266" xlink:href="#DejaVuSans-117"/>
      <use x="622.701172" xlink:href="#DejaVuSans-108"/>
      <use x="650.484375" xlink:href="#DejaVuSans-116"/>
      <use x="689.693359" xlink:href="#DejaVuSans-95"/>
      <use x="739.693359" xlink:href="#DejaVuSans-100"/>
      <use x="803.169922" xlink:href="#DejaVuSans-102"/>
     </g>
    </g>
    <g id="line2d_35">
     <path d="M 609.5875 88.534688 
L 629.5875 88.534688 
" style="fill:none;stroke:#ff0000;stroke-dasharray:5.55,2.4;stroke-dashoffset:0;stroke-width:1.5;"/>
    </g>
    <g id="line2d_36"/>
    <g id="text_20">
     <!-- KDE for result_df2 -->
     <g transform="translate(637.5875 92.034688)scale(0.1 -0.1)">
      <use xlink:href="#DejaVuSans-75"/>
      <use x="65.576172" xlink:href="#DejaVuSans-68"/>
      <use x="142.578125" xlink:href="#DejaVuSans-69"/>
      <use x="205.761719" xlink:href="#DejaVuSans-32"/>
      <use x="237.548828" xlink:href="#DejaVuSans-102"/>
      <use x="272.753906" xlink:href="#DejaVuSans-111"/>
      <use x="333.935547" xlink:href="#DejaVuSans-114"/>
      <use x="375.048828" xlink:href="#DejaVuSans-32"/>
      <use x="406.835938" xlink:href="#DejaVuSans-114"/>
      <use x="445.699219" xlink:href="#DejaVuSans-101"/>
      <use x="507.222656" xlink:href="#DejaVuSans-115"/>
      <use x="559.322266" xlink:href="#DejaVuSans-117"/>
      <use x="622.701172" xlink:href="#DejaVuSans-108"/>
      <use x="650.484375" xlink:href="#DejaVuSans-116"/>
      <use x="689.693359" xlink:href="#DejaVuSans-95"/>
      <use x="739.693359" xlink:href="#DejaVuSans-100"/>
      <use x="803.169922" xlink:href="#DejaVuSans-102"/>
      <use x="838.375" xlink:href="#DejaVuSans-50"/>
     </g>
    </g>
    <g id="patch_58">
     <path d="M 609.5875 106.990938 
L 629.5875 106.990938 
L 629.5875 99.990938 
L 609.5875 99.990938 
z
" style="fill:#1f77b4;opacity:0.5;stroke:#000000;stroke-linejoin:miter;"/>
    </g>
    <g id="text_21">
     <!-- Histogram from result_df -->
     <g transform="translate(637.5875 106.990938)scale(0.1 -0.1)">
      <use xlink:href="#DejaVuSans-72"/>
      <use x="75.195312" xlink:href="#DejaVuSans-105"/>
      <use x="102.978516" xlink:href="#DejaVuSans-115"/>
      <use x="155.078125" xlink:href="#DejaVuSans-116"/>
      <use x="194.287109" xlink:href="#DejaVuSans-111"/>
      <use x="255.46875" xlink:href="#DejaVuSans-103"/>
      <use x="318.945312" xlink:href="#DejaVuSans-114"/>
      <use x="360.058594" xlink:href="#DejaVuSans-97"/>
      <use x="421.337891" xlink:href="#DejaVuSans-109"/>
      <use x="518.75" xlink:href="#DejaVuSans-32"/>
      <use x="550.537109" xlink:href="#DejaVuSans-102"/>
      <use x="585.742188" xlink:href="#DejaVuSans-114"/>
      <use x="624.605469" xlink:href="#DejaVuSans-111"/>
      <use x="685.787109" xlink:href="#DejaVuSans-109"/>
      <use x="783.199219" xlink:href="#DejaVuSans-32"/>
      <use x="814.986328" xlink:href="#DejaVuSans-114"/>
      <use x="853.849609" xlink:href="#DejaVuSans-101"/>
      <use x="915.373047" xlink:href="#DejaVuSans-115"/>
      <use x="967.472656" xlink:href="#DejaVuSans-117"/>
      <use x="1030.851562" xlink:href="#DejaVuSans-108"/>
      <use x="1058.634766" xlink:href="#DejaVuSans-116"/>
      <use x="1097.84375" xlink:href="#DejaVuSans-95"/>
      <use x="1147.84375" xlink:href="#DejaVuSans-100"/>
      <use x="1211.320312" xlink:href="#DejaVuSans-102"/>
     </g>
    </g>
    <g id="patch_59">
     <path d="M 609.5875 121.947188 
L 629.5875 121.947188 
L 629.5875 114.947188 
L 609.5875 114.947188 
z
" style="fill:#ff7f0e;opacity:0.5;stroke:#000000;stroke-linejoin:miter;"/>
    </g>
    <g id="text_22">
     <!-- Histogram from result_df2 -->
     <g transform="translate(637.5875 121.947188)scale(0.1 -0.1)">
      <use xlink:href="#DejaVuSans-72"/>
      <use x="75.195312" xlink:href="#DejaVuSans-105"/>
      <use x="102.978516" xlink:href="#DejaVuSans-115"/>
      <use x="155.078125" xlink:href="#DejaVuSans-116"/>
      <use x="194.287109" xlink:href="#DejaVuSans-111"/>
      <use x="255.46875" xlink:href="#DejaVuSans-103"/>
      <use x="318.945312" xlink:href="#DejaVuSans-114"/>
      <use x="360.058594" xlink:href="#DejaVuSans-97"/>
      <use x="421.337891" xlink:href="#DejaVuSans-109"/>
      <use x="518.75" xlink:href="#DejaVuSans-32"/>
      <use x="550.537109" xlink:href="#DejaVuSans-102"/>
      <use x="585.742188" xlink:href="#DejaVuSans-114"/>
      <use x="624.605469" xlink:href="#DejaVuSans-111"/>
      <use x="685.787109" xlink:href="#DejaVuSans-109"/>
      <use x="783.199219" xlink:href="#DejaVuSans-32"/>
      <use x="814.986328" xlink:href="#DejaVuSans-114"/>
      <use x="853.849609" xlink:href="#DejaVuSans-101"/>
      <use x="915.373047" xlink:href="#DejaVuSans-115"/>
      <use x="967.472656" xlink:href="#DejaVuSans-117"/>
      <use x="1030.851562" xlink:href="#DejaVuSans-108"/>
      <use x="1058.634766" xlink:href="#DejaVuSans-116"/>
      <use x="1097.84375" xlink:href="#DejaVuSans-95"/>
      <use x="1147.84375" xlink:href="#DejaVuSans-100"/>
      <use x="1211.320312" xlink:href="#DejaVuSans-102"/>
      <use x="1246.525391" xlink:href="#DejaVuSans-50"/>
     </g>
    </g>
   </g>
  </g>
 </g>
 <defs>
  <clipPath id="p4b8c66afe0">
   <rect height="380.52" width="669.6" x="108" y="60.48"/>
  </clipPath>
 </defs>
</svg>
