<?xml version="1.0" encoding="utf-8" standalone="no"?>
<!DOCTYPE svg PUBLIC "-//W3C//DTD SVG 1.1//EN"
  "http://www.w3.org/Graphics/SVG/1.1/DTD/svg11.dtd">
<!-- Created with matplotlib (https://matplotlib.org/) -->
<svg height="271.2pt" version="1.1" viewBox="0 0 487.68 271.2" width="487.68pt" xmlns="http://www.w3.org/2000/svg" xmlns:xlink="http://www.w3.org/1999/xlink">
 <defs>
  <style type="text/css">
*{stroke-linecap:butt;stroke-linejoin:round;}
  </style>
 </defs>
 <g id="figure_1">
  <g id="patch_1">
   <path d="M 0 271.2 
L 487.68 271.2 
L 487.68 0 
L 0 0 
z
" style="fill:#ffffff;"/>
  </g>
  <g id="axes_1">
   <g id="patch_2">
    <path d="M 50.48 230.2 
L 374.44 230.2 
L 374.44 25.92 
L 50.48 25.92 
z
" style="fill:#ffffff;"/>
   </g>
   <g id="patch_3">
    <path clip-path="url(#p75a2f9a135)" d="M 72.951214 230.2 
L 72.951214 25.92 
L 95.422428 25.92 
L 95.422428 230.2 
z
" style="fill:#808080;opacity:0.2;stroke:#808080;stroke-linejoin:miter;"/>
   </g>
   <g id="patch_4">
    <path clip-path="url(#p75a2f9a135)" d="M 117.893642 230.2 
L 117.893642 25.92 
L 140.364855 25.92 
L 140.364855 230.2 
z
" style="fill:#808080;opacity:0.2;stroke:#808080;stroke-linejoin:miter;"/>
   </g>
   <g id="patch_5">
    <path clip-path="url(#p75a2f9a135)" d="M 162.836069 230.2 
L 162.836069 25.92 
L 185.307283 25.92 
L 185.307283 230.2 
z
" style="fill:#808080;opacity:0.2;stroke:#808080;stroke-linejoin:miter;"/>
   </g>
   <g id="patch_6">
    <path clip-path="url(#p75a2f9a135)" d="M 207.778497 230.2 
L 207.778497 25.92 
L 230.249711 25.92 
L 230.249711 230.2 
z
" style="fill:#808080;opacity:0.2;stroke:#808080;stroke-linejoin:miter;"/>
   </g>
   <g id="patch_7">
    <path clip-path="url(#p75a2f9a135)" d="M 252.720925 230.2 
L 252.720925 25.92 
L 275.192139 25.92 
L 275.192139 230.2 
z
" style="fill:#808080;opacity:0.2;stroke:#808080;stroke-linejoin:miter;"/>
   </g>
   <g id="patch_8">
    <path clip-path="url(#p75a2f9a135)" d="M 297.663353 230.2 
L 297.663353 25.92 
L 320.134566 25.92 
L 320.134566 230.2 
z
" style="fill:#808080;opacity:0.2;stroke:#808080;stroke-linejoin:miter;"/>
   </g>
   <g id="patch_9">
    <path clip-path="url(#p75a2f9a135)" d="M 342.60578 230.2 
L 342.60578 25.92 
L 365.076994 25.92 
L 365.076994 230.2 
z
" style="fill:#808080;opacity:0.2;stroke:#808080;stroke-linejoin:miter;"/>
   </g>
   <g id="PolyCollection_1">
    <defs>
     <path d="M 72.951214 -142.919868 
L 72.951214 -199.309831 
L 74.823815 -235.994545 
L 76.696416 -162.778137 
L 78.569017 -121.532219 
L 80.441619 -140.024699 
L 82.31422 -138.640729 
L 84.186821 -118.761054 
L 86.059422 -90.677225 
L 87.932023 -93.975441 
L 89.804624 -111.983466 
L 91.677225 -86.074092 
L 93.549827 -98.609201 
L 95.422428 -101.640013 
L 97.295029 -85.547866 
L 99.16763 -78.233537 
L 101.040231 -91.939439 
L 102.912832 -78.41281 
L 104.785434 -77.24194 
L 106.658035 -81.728409 
L 108.530636 -78.762279 
L 110.403237 -104.415052 
L 112.275838 -105.692919 
L 114.148439 -108.810705 
L 116.02104 -100.352655 
L 117.893642 -131.809698 
L 119.766243 -155.923726 
L 121.638844 -152.647057 
L 123.511445 -122.565729 
L 125.384046 -107.695447 
L 127.256647 -128.190814 
L 129.129249 -102.861054 
L 131.00185 -99.660724 
L 132.874451 -89.624913 
L 134.747052 -114.653865 
L 136.619653 -86.801507 
L 138.492254 -98.861167 
L 140.364855 -95.175267 
L 142.237457 -97.784199 
L 144.110058 -85.521117 
L 145.982659 -79.058633 
L 147.85526 -78.686435 
L 149.727861 -67.556801 
L 151.600462 -75.086992 
L 153.473064 -92.266601 
L 155.345665 -90.943363 
L 157.218266 -109.222663 
L 159.090867 -111.584614 
L 160.963468 -102.346082 
L 162.836069 -130.00455 
L 164.708671 -140.925324 
L 166.581272 -141.918245 
L 168.453873 -126.069919 
L 170.326474 -106.683341 
L 172.199075 -114.790526 
L 174.071676 -102.606529 
L 175.944277 -96.018467 
L 177.816879 -96.367468 
L 179.68948 -98.829482 
L 181.562081 -91.505089 
L 183.434682 -88.115722 
L 185.307283 -98.280129 
L 187.179884 -75.498882 
L 189.052486 -89.132732 
L 190.925087 -73.416693 
L 192.797688 -97.327598 
L 194.670289 -96.587503 
L 196.54289 -74.991349 
L 198.415491 -89.088921 
L 200.288092 -86.886952 
L 202.160694 -104.419174 
L 204.033295 -104.697373 
L 205.905896 -120.465304 
L 205.905896 -92.424116 
L 205.905896 -92.424116 
L 204.033295 -85.049151 
L 202.160694 -75.894104 
L 200.288092 -69.654547 
L 198.415491 -65.062823 
L 196.54289 -62.474031 
L 194.670289 -73.621721 
L 192.797688 -71.613379 
L 190.925087 -63.702802 
L 189.052486 -71.045808 
L 187.179884 -63.926518 
L 185.307283 -77.463266 
L 183.434682 -71.371046 
L 181.562081 -76.513526 
L 179.68948 -77.144504 
L 177.816879 -79.721813 
L 175.944277 -77.649615 
L 174.071676 -81.784008 
L 172.199075 -94.273188 
L 170.326474 -86.700223 
L 168.453873 -89.680919 
L 166.581272 -107.729389 
L 164.708671 -109.990557 
L 162.836069 -97.967581 
L 160.963468 -77.778532 
L 159.090867 -85.603692 
L 157.218266 -75.97494 
L 155.345665 -72.348148 
L 153.473064 -66.643692 
L 151.600462 -62.493684 
L 149.727861 -59.993191 
L 147.85526 -64.659002 
L 145.982659 -64.978576 
L 144.110058 -72.582109 
L 142.237457 -75.192111 
L 140.364855 -73.881005 
L 138.492254 -79.879904 
L 136.619653 -75.913528 
L 134.747052 -90.720403 
L 132.874451 -76.087797 
L 131.00185 -72.047338 
L 129.129249 -80.607121 
L 127.256647 -99.896613 
L 125.384046 -87.07166 
L 123.511445 -102.293432 
L 121.638844 -112.104251 
L 119.766243 -125.084208 
L 117.893642 -103.195443 
L 116.02104 -83.11552 
L 114.148439 -80.537526 
L 112.275838 -76.737599 
L 110.403237 -75.017791 
L 108.530636 -61.124302 
L 106.658035 -65.767656 
L 104.785434 -62.183459 
L 102.912832 -64.471446 
L 101.040231 -69.161462 
L 99.16763 -63.728358 
L 97.295029 -68.174141 
L 95.422428 -80.675209 
L 93.549827 -83.014251 
L 91.677225 -77.563305 
L 89.804624 -99.616743 
L 87.932023 -80.153821 
L 86.059422 -77.687276 
L 84.186821 -98.719212 
L 82.31422 -110.315133 
L 80.441619 -118.846552 
L 78.569017 -102.40458 
L 76.696416 -130.912273 
L 74.823815 -170.800479 
L 72.951214 -142.919868 
z
" id="mba621d2f81" style="stroke:#1f77b4;stroke-opacity:0.3;"/>
    </defs>
    <g clip-path="url(#p75a2f9a135)">
     <use style="fill:#1f77b4;fill-opacity:0.3;stroke:#1f77b4;stroke-opacity:0.3;" x="0" xlink:href="#mba621d2f81" y="271.2"/>
    </g>
   </g>
   <g id="PolyCollection_2">
    <defs>
     <path d="M 50.48 -86.717061 
L 50.48 -106.802762 
L 52.352601 -85.446561 
L 54.225202 -84.592343 
L 56.097803 -100.992313 
L 57.970405 -93.41467 
L 59.843006 -86.833732 
L 61.715607 -86.44944 
L 63.588208 -90.872886 
L 65.460809 -83.118719 
L 67.33341 -99.853317 
L 69.206012 -126.457769 
L 71.078613 -120.348309 
L 72.951214 -153.660386 
L 74.823815 -164.294015 
L 76.696416 -161.202344 
L 78.569017 -148.59628 
L 80.441619 -137.612575 
L 82.31422 -153.548066 
L 84.186821 -117.679181 
L 86.059422 -143.715027 
L 87.932023 -104.297878 
L 89.804624 -110.418787 
L 91.677225 -113.038085 
L 93.549827 -117.52787 
L 95.422428 -112.380919 
L 97.295029 -108.097918 
L 99.16763 -99.971389 
L 101.040231 -112.032924 
L 102.912832 -104.365822 
L 104.785434 -78.656033 
L 106.658035 -105.957596 
L 108.530636 -105.194096 
L 110.403237 -78.922862 
L 112.275838 -111.062449 
L 114.148439 -106.142329 
L 116.02104 -125.588797 
L 117.893642 -129.204182 
L 119.766243 -159.620622 
L 121.638844 -173.701508 
L 123.511445 -151.071506 
L 125.384046 -162.733652 
L 127.256647 -123.38393 
L 129.129249 -158.4371 
L 131.00185 -111.15352 
L 132.874451 -122.094848 
L 134.747052 -114.326742 
L 136.619653 -109.034814 
L 138.492254 -103.949808 
L 140.364855 -98.943194 
L 142.237457 -81.571048 
L 144.110058 -85.014074 
L 145.982659 -99.675734 
L 147.85526 -102.745287 
L 149.727861 -102.193934 
L 151.600462 -89.993857 
L 153.473064 -103.974716 
L 155.345665 -97.781049 
L 157.218266 -95.450444 
L 159.090867 -100.975388 
L 160.963468 -149.208902 
L 162.836069 -179.598317 
L 164.708671 -180.969245 
L 166.581272 -179.443201 
L 168.453873 -169.493523 
L 170.326474 -178.434313 
L 172.199075 -114.84534 
L 174.071676 -153.718106 
L 175.944277 -121.664543 
L 177.816879 -93.099443 
L 179.68948 -126.030679 
L 181.562081 -120.093934 
L 183.434682 -104.737108 
L 183.434682 -90.49118 
L 183.434682 -90.49118 
L 181.562081 -95.195723 
L 179.68948 -97.90612 
L 177.816879 -81.606296 
L 175.944277 -98.006332 
L 174.071676 -112.186154 
L 172.199075 -93.526604 
L 170.326474 -136.239827 
L 168.453873 -137.917018 
L 166.581272 -138.920386 
L 164.708671 -140.968494 
L 162.836069 -143.377079 
L 160.963468 -99.401074 
L 159.090867 -82.146901 
L 157.218266 -69.4552 
L 155.345665 -75.771737 
L 153.473064 -75.688717 
L 151.600462 -73.64354 
L 149.727861 -82.081308 
L 147.85526 -76.456965 
L 145.982659 -79.987699 
L 144.110058 -74.933876 
L 142.237457 -71.228598 
L 140.364855 -77.491972 
L 138.492254 -84.821948 
L 136.619653 -93.226482 
L 134.747052 -85.859241 
L 132.874451 -97.921913 
L 131.00185 -93.528977 
L 129.129249 -110.349541 
L 127.256647 -101.129345 
L 125.384046 -123.116682 
L 123.511445 -114.717459 
L 121.638844 -120.219492 
L 119.766243 -115.622552 
L 117.893642 -104.763301 
L 116.02104 -97.771526 
L 114.148439 -91.045978 
L 112.275838 -86.010562 
L 110.403237 -64.768461 
L 108.530636 -80.579983 
L 106.658035 -86.734197 
L 104.785434 -69.531803 
L 102.912832 -83.714162 
L 101.040231 -83.425955 
L 99.16763 -84.649738 
L 97.295029 -85.516237 
L 95.422428 -91.494511 
L 93.549827 -83.349884 
L 91.677225 -94.065611 
L 89.804624 -86.193043 
L 87.932023 -86.203306 
L 86.059422 -108.353807 
L 84.186821 -99.801086 
L 82.31422 -114.316213 
L 80.441619 -111.573878 
L 78.569017 -112.580876 
L 76.696416 -117.614982 
L 74.823815 -118.443348 
L 72.951214 -108.554427 
L 71.078613 -95.517824 
L 69.206012 -98.862572 
L 67.33341 -78.311278 
L 65.460809 -68.769046 
L 63.588208 -71.328561 
L 61.715607 -68.708517 
L 59.843006 -71.971747 
L 57.970405 -76.710703 
L 56.097803 -78.063199 
L 54.225202 -70.942944 
L 52.352601 -73.233141 
L 50.48 -86.717061 
z
" id="m33b9f36c6f" style="stroke:#ff7f0e;stroke-opacity:0.3;"/>
    </defs>
    <g clip-path="url(#p75a2f9a135)">
     <use style="fill:#ff7f0e;fill-opacity:0.3;stroke:#ff7f0e;stroke-opacity:0.3;" x="0" xlink:href="#m33b9f36c6f" y="271.2"/>
    </g>
   </g>
   <g id="matplotlib.axis_1">
    <g id="xtick_1">
     <g id="line2d_1">
      <defs>
       <path d="M 0 0 
L 0 3.5 
" id="mcbe1710276" style="stroke:#000000;stroke-width:0.8;"/>
      </defs>
      <g>
       <use style="stroke:#000000;stroke-width:0.8;" x="50.48" xlink:href="#mcbe1710276" y="230.2"/>
      </g>
     </g>
     <g id="text_1">
      <!-- 0 -->
      <defs>
       <path d="M 31.78125 66.40625 
Q 24.171875 66.40625 20.328125 58.90625 
Q 16.5 51.421875 16.5 36.375 
Q 16.5 21.390625 20.328125 13.890625 
Q 24.171875 6.390625 31.78125 6.390625 
Q 39.453125 6.390625 43.28125 13.890625 
Q 47.125 21.390625 47.125 36.375 
Q 47.125 51.421875 43.28125 58.90625 
Q 39.453125 66.40625 31.78125 66.40625 
z
M 31.78125 74.21875 
Q 44.046875 74.21875 50.515625 64.515625 
Q 56.984375 54.828125 56.984375 36.375 
Q 56.984375 17.96875 50.515625 8.265625 
Q 44.046875 -1.421875 31.78125 -1.421875 
Q 19.53125 -1.421875 13.0625 8.265625 
Q 6.59375 17.96875 6.59375 36.375 
Q 6.59375 54.828125 13.0625 64.515625 
Q 19.53125 74.21875 31.78125 74.21875 
z
" id="DejaVuSans-48"/>
      </defs>
      <g transform="translate(47.29875 244.798437)scale(0.1 -0.1)">
       <use xlink:href="#DejaVuSans-48"/>
      </g>
     </g>
    </g>
    <g id="xtick_2">
     <g id="line2d_2">
      <g>
       <use style="stroke:#000000;stroke-width:0.8;" x="72.951214" xlink:href="#mcbe1710276" y="230.2"/>
      </g>
     </g>
     <g id="text_2">
      <!-- 12 -->
      <defs>
       <path d="M 12.40625 8.296875 
L 28.515625 8.296875 
L 28.515625 63.921875 
L 10.984375 60.40625 
L 10.984375 69.390625 
L 28.421875 72.90625 
L 38.28125 72.90625 
L 38.28125 8.296875 
L 54.390625 8.296875 
L 54.390625 0 
L 12.40625 0 
z
" id="DejaVuSans-49"/>
       <path d="M 19.1875 8.296875 
L 53.609375 8.296875 
L 53.609375 0 
L 7.328125 0 
L 7.328125 8.296875 
Q 12.9375 14.109375 22.625 23.890625 
Q 32.328125 33.6875 34.8125 36.53125 
Q 39.546875 41.84375 41.421875 45.53125 
Q 43.3125 49.21875 43.3125 52.78125 
Q 43.3125 58.59375 39.234375 62.25 
Q 35.15625 65.921875 28.609375 65.921875 
Q 23.96875 65.921875 18.8125 64.3125 
Q 13.671875 62.703125 7.8125 59.421875 
L 7.8125 69.390625 
Q 13.765625 71.78125 18.9375 73 
Q 24.125 74.21875 28.421875 74.21875 
Q 39.75 74.21875 46.484375 68.546875 
Q 53.21875 62.890625 53.21875 53.421875 
Q 53.21875 48.921875 51.53125 44.890625 
Q 49.859375 40.875 45.40625 35.40625 
Q 44.1875 33.984375 37.640625 27.21875 
Q 31.109375 20.453125 19.1875 8.296875 
z
" id="DejaVuSans-50"/>
      </defs>
      <g transform="translate(66.588714 244.798437)scale(0.1 -0.1)">
       <use xlink:href="#DejaVuSans-49"/>
       <use x="63.623047" xlink:href="#DejaVuSans-50"/>
      </g>
     </g>
    </g>
    <g id="xtick_3">
     <g id="line2d_3">
      <g>
       <use style="stroke:#000000;stroke-width:0.8;" x="95.422428" xlink:href="#mcbe1710276" y="230.2"/>
      </g>
     </g>
     <g id="text_3">
      <!-- 24 -->
      <defs>
       <path d="M 37.796875 64.3125 
L 12.890625 25.390625 
L 37.796875 25.390625 
z
M 35.203125 72.90625 
L 47.609375 72.90625 
L 47.609375 25.390625 
L 58.015625 25.390625 
L 58.015625 17.1875 
L 47.609375 17.1875 
L 47.609375 0 
L 37.796875 0 
L 37.796875 17.1875 
L 4.890625 17.1875 
L 4.890625 26.703125 
z
" id="DejaVuSans-52"/>
      </defs>
      <g transform="translate(89.059928 244.798437)scale(0.1 -0.1)">
       <use xlink:href="#DejaVuSans-50"/>
       <use x="63.623047" xlink:href="#DejaVuSans-52"/>
      </g>
     </g>
    </g>
    <g id="xtick_4">
     <g id="line2d_4">
      <g>
       <use style="stroke:#000000;stroke-width:0.8;" x="117.893642" xlink:href="#mcbe1710276" y="230.2"/>
      </g>
     </g>
     <g id="text_4">
      <!-- 36 -->
      <defs>
       <path d="M 40.578125 39.3125 
Q 47.65625 37.796875 51.625 33 
Q 55.609375 28.21875 55.609375 21.1875 
Q 55.609375 10.40625 48.1875 4.484375 
Q 40.765625 -1.421875 27.09375 -1.421875 
Q 22.515625 -1.421875 17.65625 -0.515625 
Q 12.796875 0.390625 7.625 2.203125 
L 7.625 11.71875 
Q 11.71875 9.328125 16.59375 8.109375 
Q 21.484375 6.890625 26.8125 6.890625 
Q 36.078125 6.890625 40.9375 10.546875 
Q 45.796875 14.203125 45.796875 21.1875 
Q 45.796875 27.640625 41.28125 31.265625 
Q 36.765625 34.90625 28.71875 34.90625 
L 20.21875 34.90625 
L 20.21875 43.015625 
L 29.109375 43.015625 
Q 36.375 43.015625 40.234375 45.921875 
Q 44.09375 48.828125 44.09375 54.296875 
Q 44.09375 59.90625 40.109375 62.90625 
Q 36.140625 65.921875 28.71875 65.921875 
Q 24.65625 65.921875 20.015625 65.03125 
Q 15.375 64.15625 9.8125 62.3125 
L 9.8125 71.09375 
Q 15.4375 72.65625 20.34375 73.4375 
Q 25.25 74.21875 29.59375 74.21875 
Q 40.828125 74.21875 47.359375 69.109375 
Q 53.90625 64.015625 53.90625 55.328125 
Q 53.90625 49.265625 50.4375 45.09375 
Q 46.96875 40.921875 40.578125 39.3125 
z
" id="DejaVuSans-51"/>
       <path d="M 33.015625 40.375 
Q 26.375 40.375 22.484375 35.828125 
Q 18.609375 31.296875 18.609375 23.390625 
Q 18.609375 15.53125 22.484375 10.953125 
Q 26.375 6.390625 33.015625 6.390625 
Q 39.65625 6.390625 43.53125 10.953125 
Q 47.40625 15.53125 47.40625 23.390625 
Q 47.40625 31.296875 43.53125 35.828125 
Q 39.65625 40.375 33.015625 40.375 
z
M 52.59375 71.296875 
L 52.59375 62.3125 
Q 48.875 64.0625 45.09375 64.984375 
Q 41.3125 65.921875 37.59375 65.921875 
Q 27.828125 65.921875 22.671875 59.328125 
Q 17.53125 52.734375 16.796875 39.40625 
Q 19.671875 43.65625 24.015625 45.921875 
Q 28.375 48.1875 33.59375 48.1875 
Q 44.578125 48.1875 50.953125 41.515625 
Q 57.328125 34.859375 57.328125 23.390625 
Q 57.328125 12.15625 50.6875 5.359375 
Q 44.046875 -1.421875 33.015625 -1.421875 
Q 20.359375 -1.421875 13.671875 8.265625 
Q 6.984375 17.96875 6.984375 36.375 
Q 6.984375 53.65625 15.1875 63.9375 
Q 23.390625 74.21875 37.203125 74.21875 
Q 40.921875 74.21875 44.703125 73.484375 
Q 48.484375 72.75 52.59375 71.296875 
z
" id="DejaVuSans-54"/>
      </defs>
      <g transform="translate(111.531142 244.798437)scale(0.1 -0.1)">
       <use xlink:href="#DejaVuSans-51"/>
       <use x="63.623047" xlink:href="#DejaVuSans-54"/>
      </g>
     </g>
    </g>
    <g id="xtick_5">
     <g id="line2d_5">
      <g>
       <use style="stroke:#000000;stroke-width:0.8;" x="140.364855" xlink:href="#mcbe1710276" y="230.2"/>
      </g>
     </g>
     <g id="text_5">
      <!-- 48 -->
      <defs>
       <path d="M 31.78125 34.625 
Q 24.75 34.625 20.71875 30.859375 
Q 16.703125 27.09375 16.703125 20.515625 
Q 16.703125 13.921875 20.71875 10.15625 
Q 24.75 6.390625 31.78125 6.390625 
Q 38.8125 6.390625 42.859375 10.171875 
Q 46.921875 13.96875 46.921875 20.515625 
Q 46.921875 27.09375 42.890625 30.859375 
Q 38.875 34.625 31.78125 34.625 
z
M 21.921875 38.8125 
Q 15.578125 40.375 12.03125 44.71875 
Q 8.5 49.078125 8.5 55.328125 
Q 8.5 64.0625 14.71875 69.140625 
Q 20.953125 74.21875 31.78125 74.21875 
Q 42.671875 74.21875 48.875 69.140625 
Q 55.078125 64.0625 55.078125 55.328125 
Q 55.078125 49.078125 51.53125 44.71875 
Q 48 40.375 41.703125 38.8125 
Q 48.828125 37.15625 52.796875 32.3125 
Q 56.78125 27.484375 56.78125 20.515625 
Q 56.78125 9.90625 50.3125 4.234375 
Q 43.84375 -1.421875 31.78125 -1.421875 
Q 19.734375 -1.421875 13.25 4.234375 
Q 6.78125 9.90625 6.78125 20.515625 
Q 6.78125 27.484375 10.78125 32.3125 
Q 14.796875 37.15625 21.921875 38.8125 
z
M 18.3125 54.390625 
Q 18.3125 48.734375 21.84375 45.5625 
Q 25.390625 42.390625 31.78125 42.390625 
Q 38.140625 42.390625 41.71875 45.5625 
Q 45.3125 48.734375 45.3125 54.390625 
Q 45.3125 60.0625 41.71875 63.234375 
Q 38.140625 66.40625 31.78125 66.40625 
Q 25.390625 66.40625 21.84375 63.234375 
Q 18.3125 60.0625 18.3125 54.390625 
z
" id="DejaVuSans-56"/>
      </defs>
      <g transform="translate(134.002355 244.798437)scale(0.1 -0.1)">
       <use xlink:href="#DejaVuSans-52"/>
       <use x="63.623047" xlink:href="#DejaVuSans-56"/>
      </g>
     </g>
    </g>
    <g id="xtick_6">
     <g id="line2d_6">
      <g>
       <use style="stroke:#000000;stroke-width:0.8;" x="162.836069" xlink:href="#mcbe1710276" y="230.2"/>
      </g>
     </g>
     <g id="text_6">
      <!-- 60 -->
      <g transform="translate(156.473569 244.798437)scale(0.1 -0.1)">
       <use xlink:href="#DejaVuSans-54"/>
       <use x="63.623047" xlink:href="#DejaVuSans-48"/>
      </g>
     </g>
    </g>
    <g id="xtick_7">
     <g id="line2d_7">
      <g>
       <use style="stroke:#000000;stroke-width:0.8;" x="185.307283" xlink:href="#mcbe1710276" y="230.2"/>
      </g>
     </g>
     <g id="text_7">
      <!-- 72 -->
      <defs>
       <path d="M 8.203125 72.90625 
L 55.078125 72.90625 
L 55.078125 68.703125 
L 28.609375 0 
L 18.3125 0 
L 43.21875 64.59375 
L 8.203125 64.59375 
z
" id="DejaVuSans-55"/>
      </defs>
      <g transform="translate(178.944783 244.798437)scale(0.1 -0.1)">
       <use xlink:href="#DejaVuSans-55"/>
       <use x="63.623047" xlink:href="#DejaVuSans-50"/>
      </g>
     </g>
    </g>
    <g id="xtick_8">
     <g id="line2d_8">
      <g>
       <use style="stroke:#000000;stroke-width:0.8;" x="207.778497" xlink:href="#mcbe1710276" y="230.2"/>
      </g>
     </g>
     <g id="text_8">
      <!-- 84 -->
      <g transform="translate(201.415997 244.798437)scale(0.1 -0.1)">
       <use xlink:href="#DejaVuSans-56"/>
       <use x="63.623047" xlink:href="#DejaVuSans-52"/>
      </g>
     </g>
    </g>
    <g id="xtick_9">
     <g id="line2d_9">
      <g>
       <use style="stroke:#000000;stroke-width:0.8;" x="230.249711" xlink:href="#mcbe1710276" y="230.2"/>
      </g>
     </g>
     <g id="text_9">
      <!-- 96 -->
      <defs>
       <path d="M 10.984375 1.515625 
L 10.984375 10.5 
Q 14.703125 8.734375 18.5 7.8125 
Q 22.3125 6.890625 25.984375 6.890625 
Q 35.75 6.890625 40.890625 13.453125 
Q 46.046875 20.015625 46.78125 33.40625 
Q 43.953125 29.203125 39.59375 26.953125 
Q 35.25 24.703125 29.984375 24.703125 
Q 19.046875 24.703125 12.671875 31.3125 
Q 6.296875 37.9375 6.296875 49.421875 
Q 6.296875 60.640625 12.9375 67.421875 
Q 19.578125 74.21875 30.609375 74.21875 
Q 43.265625 74.21875 49.921875 64.515625 
Q 56.59375 54.828125 56.59375 36.375 
Q 56.59375 19.140625 48.40625 8.859375 
Q 40.234375 -1.421875 26.421875 -1.421875 
Q 22.703125 -1.421875 18.890625 -0.6875 
Q 15.09375 0.046875 10.984375 1.515625 
z
M 30.609375 32.421875 
Q 37.25 32.421875 41.125 36.953125 
Q 45.015625 41.5 45.015625 49.421875 
Q 45.015625 57.28125 41.125 61.84375 
Q 37.25 66.40625 30.609375 66.40625 
Q 23.96875 66.40625 20.09375 61.84375 
Q 16.21875 57.28125 16.21875 49.421875 
Q 16.21875 41.5 20.09375 36.953125 
Q 23.96875 32.421875 30.609375 32.421875 
z
" id="DejaVuSans-57"/>
      </defs>
      <g transform="translate(223.887211 244.798437)scale(0.1 -0.1)">
       <use xlink:href="#DejaVuSans-57"/>
       <use x="63.623047" xlink:href="#DejaVuSans-54"/>
      </g>
     </g>
    </g>
    <g id="xtick_10">
     <g id="line2d_10">
      <g>
       <use style="stroke:#000000;stroke-width:0.8;" x="252.720925" xlink:href="#mcbe1710276" y="230.2"/>
      </g>
     </g>
     <g id="text_10">
      <!-- 108 -->
      <g transform="translate(243.177175 244.798437)scale(0.1 -0.1)">
       <use xlink:href="#DejaVuSans-49"/>
       <use x="63.623047" xlink:href="#DejaVuSans-48"/>
       <use x="127.246094" xlink:href="#DejaVuSans-56"/>
      </g>
     </g>
    </g>
    <g id="xtick_11">
     <g id="line2d_11">
      <g>
       <use style="stroke:#000000;stroke-width:0.8;" x="275.192139" xlink:href="#mcbe1710276" y="230.2"/>
      </g>
     </g>
     <g id="text_11">
      <!-- 120 -->
      <g transform="translate(265.648389 244.798437)scale(0.1 -0.1)">
       <use xlink:href="#DejaVuSans-49"/>
       <use x="63.623047" xlink:href="#DejaVuSans-50"/>
       <use x="127.246094" xlink:href="#DejaVuSans-48"/>
      </g>
     </g>
    </g>
    <g id="xtick_12">
     <g id="line2d_12">
      <g>
       <use style="stroke:#000000;stroke-width:0.8;" x="297.663353" xlink:href="#mcbe1710276" y="230.2"/>
      </g>
     </g>
     <g id="text_12">
      <!-- 132 -->
      <g transform="translate(288.119603 244.798437)scale(0.1 -0.1)">
       <use xlink:href="#DejaVuSans-49"/>
       <use x="63.623047" xlink:href="#DejaVuSans-51"/>
       <use x="127.246094" xlink:href="#DejaVuSans-50"/>
      </g>
     </g>
    </g>
    <g id="xtick_13">
     <g id="line2d_13">
      <g>
       <use style="stroke:#000000;stroke-width:0.8;" x="320.134566" xlink:href="#mcbe1710276" y="230.2"/>
      </g>
     </g>
     <g id="text_13">
      <!-- 144 -->
      <g transform="translate(310.590816 244.798437)scale(0.1 -0.1)">
       <use xlink:href="#DejaVuSans-49"/>
       <use x="63.623047" xlink:href="#DejaVuSans-52"/>
       <use x="127.246094" xlink:href="#DejaVuSans-52"/>
      </g>
     </g>
    </g>
    <g id="xtick_14">
     <g id="line2d_14">
      <g>
       <use style="stroke:#000000;stroke-width:0.8;" x="342.60578" xlink:href="#mcbe1710276" y="230.2"/>
      </g>
     </g>
     <g id="text_14">
      <!-- 156 -->
      <defs>
       <path d="M 10.796875 72.90625 
L 49.515625 72.90625 
L 49.515625 64.59375 
L 19.828125 64.59375 
L 19.828125 46.734375 
Q 21.96875 47.46875 24.109375 47.828125 
Q 26.265625 48.1875 28.421875 48.1875 
Q 40.625 48.1875 47.75 41.5 
Q 54.890625 34.8125 54.890625 23.390625 
Q 54.890625 11.625 47.5625 5.09375 
Q 40.234375 -1.421875 26.90625 -1.421875 
Q 22.3125 -1.421875 17.546875 -0.640625 
Q 12.796875 0.140625 7.71875 1.703125 
L 7.71875 11.625 
Q 12.109375 9.234375 16.796875 8.0625 
Q 21.484375 6.890625 26.703125 6.890625 
Q 35.15625 6.890625 40.078125 11.328125 
Q 45.015625 15.765625 45.015625 23.390625 
Q 45.015625 31 40.078125 35.4375 
Q 35.15625 39.890625 26.703125 39.890625 
Q 22.75 39.890625 18.8125 39.015625 
Q 14.890625 38.140625 10.796875 36.28125 
z
" id="DejaVuSans-53"/>
      </defs>
      <g transform="translate(333.06203 244.798437)scale(0.1 -0.1)">
       <use xlink:href="#DejaVuSans-49"/>
       <use x="63.623047" xlink:href="#DejaVuSans-53"/>
       <use x="127.246094" xlink:href="#DejaVuSans-54"/>
      </g>
     </g>
    </g>
    <g id="xtick_15">
     <g id="line2d_15">
      <g>
       <use style="stroke:#000000;stroke-width:0.8;" x="365.076994" xlink:href="#mcbe1710276" y="230.2"/>
      </g>
     </g>
     <g id="text_15">
      <!-- 168 -->
      <g transform="translate(355.533244 244.798437)scale(0.1 -0.1)">
       <use xlink:href="#DejaVuSans-49"/>
       <use x="63.623047" xlink:href="#DejaVuSans-54"/>
       <use x="127.246094" xlink:href="#DejaVuSans-56"/>
      </g>
     </g>
    </g>
    <g id="text_16">
     <!-- Hours since 7AM on first day -->
     <defs>
      <path d="M 9.8125 72.90625 
L 19.671875 72.90625 
L 19.671875 43.015625 
L 55.515625 43.015625 
L 55.515625 72.90625 
L 65.375 72.90625 
L 65.375 0 
L 55.515625 0 
L 55.515625 34.71875 
L 19.671875 34.71875 
L 19.671875 0 
L 9.8125 0 
z
" id="DejaVuSans-72"/>
      <path d="M 30.609375 48.390625 
Q 23.390625 48.390625 19.1875 42.75 
Q 14.984375 37.109375 14.984375 27.296875 
Q 14.984375 17.484375 19.15625 11.84375 
Q 23.34375 6.203125 30.609375 6.203125 
Q 37.796875 6.203125 41.984375 11.859375 
Q 46.1875 17.53125 46.1875 27.296875 
Q 46.1875 37.015625 41.984375 42.703125 
Q 37.796875 48.390625 30.609375 48.390625 
z
M 30.609375 56 
Q 42.328125 56 49.015625 48.375 
Q 55.71875 40.765625 55.71875 27.296875 
Q 55.71875 13.875 49.015625 6.21875 
Q 42.328125 -1.421875 30.609375 -1.421875 
Q 18.84375 -1.421875 12.171875 6.21875 
Q 5.515625 13.875 5.515625 27.296875 
Q 5.515625 40.765625 12.171875 48.375 
Q 18.84375 56 30.609375 56 
z
" id="DejaVuSans-111"/>
      <path d="M 8.5 21.578125 
L 8.5 54.6875 
L 17.484375 54.6875 
L 17.484375 21.921875 
Q 17.484375 14.15625 20.5 10.265625 
Q 23.53125 6.390625 29.59375 6.390625 
Q 36.859375 6.390625 41.078125 11.03125 
Q 45.3125 15.671875 45.3125 23.6875 
L 45.3125 54.6875 
L 54.296875 54.6875 
L 54.296875 0 
L 45.3125 0 
L 45.3125 8.40625 
Q 42.046875 3.421875 37.71875 1 
Q 33.40625 -1.421875 27.6875 -1.421875 
Q 18.265625 -1.421875 13.375 4.4375 
Q 8.5 10.296875 8.5 21.578125 
z
M 31.109375 56 
z
" id="DejaVuSans-117"/>
      <path d="M 41.109375 46.296875 
Q 39.59375 47.171875 37.8125 47.578125 
Q 36.03125 48 33.890625 48 
Q 26.265625 48 22.1875 43.046875 
Q 18.109375 38.09375 18.109375 28.8125 
L 18.109375 0 
L 9.078125 0 
L 9.078125 54.6875 
L 18.109375 54.6875 
L 18.109375 46.1875 
Q 20.953125 51.171875 25.484375 53.578125 
Q 30.03125 56 36.53125 56 
Q 37.453125 56 38.578125 55.875 
Q 39.703125 55.765625 41.0625 55.515625 
z
" id="DejaVuSans-114"/>
      <path d="M 44.28125 53.078125 
L 44.28125 44.578125 
Q 40.484375 46.53125 36.375 47.5 
Q 32.28125 48.484375 27.875 48.484375 
Q 21.1875 48.484375 17.84375 46.4375 
Q 14.5 44.390625 14.5 40.28125 
Q 14.5 37.15625 16.890625 35.375 
Q 19.28125 33.59375 26.515625 31.984375 
L 29.59375 31.296875 
Q 39.15625 29.25 43.1875 25.515625 
Q 47.21875 21.78125 47.21875 15.09375 
Q 47.21875 7.46875 41.1875 3.015625 
Q 35.15625 -1.421875 24.609375 -1.421875 
Q 20.21875 -1.421875 15.453125 -0.5625 
Q 10.6875 0.296875 5.421875 2 
L 5.421875 11.28125 
Q 10.40625 8.6875 15.234375 7.390625 
Q 20.0625 6.109375 24.8125 6.109375 
Q 31.15625 6.109375 34.5625 8.28125 
Q 37.984375 10.453125 37.984375 14.40625 
Q 37.984375 18.0625 35.515625 20.015625 
Q 33.0625 21.96875 24.703125 23.78125 
L 21.578125 24.515625 
Q 13.234375 26.265625 9.515625 29.90625 
Q 5.8125 33.546875 5.8125 39.890625 
Q 5.8125 47.609375 11.28125 51.796875 
Q 16.75 56 26.8125 56 
Q 31.78125 56 36.171875 55.265625 
Q 40.578125 54.546875 44.28125 53.078125 
z
" id="DejaVuSans-115"/>
      <path id="DejaVuSans-32"/>
      <path d="M 9.421875 54.6875 
L 18.40625 54.6875 
L 18.40625 0 
L 9.421875 0 
z
M 9.421875 75.984375 
L 18.40625 75.984375 
L 18.40625 64.59375 
L 9.421875 64.59375 
z
" id="DejaVuSans-105"/>
      <path d="M 54.890625 33.015625 
L 54.890625 0 
L 45.90625 0 
L 45.90625 32.71875 
Q 45.90625 40.484375 42.875 44.328125 
Q 39.84375 48.1875 33.796875 48.1875 
Q 26.515625 48.1875 22.3125 43.546875 
Q 18.109375 38.921875 18.109375 30.90625 
L 18.109375 0 
L 9.078125 0 
L 9.078125 54.6875 
L 18.109375 54.6875 
L 18.109375 46.1875 
Q 21.34375 51.125 25.703125 53.5625 
Q 30.078125 56 35.796875 56 
Q 45.21875 56 50.046875 50.171875 
Q 54.890625 44.34375 54.890625 33.015625 
z
" id="DejaVuSans-110"/>
      <path d="M 48.78125 52.59375 
L 48.78125 44.1875 
Q 44.96875 46.296875 41.140625 47.34375 
Q 37.3125 48.390625 33.40625 48.390625 
Q 24.65625 48.390625 19.8125 42.84375 
Q 14.984375 37.3125 14.984375 27.296875 
Q 14.984375 17.28125 19.8125 11.734375 
Q 24.65625 6.203125 33.40625 6.203125 
Q 37.3125 6.203125 41.140625 7.25 
Q 44.96875 8.296875 48.78125 10.40625 
L 48.78125 2.09375 
Q 45.015625 0.34375 40.984375 -0.53125 
Q 36.96875 -1.421875 32.421875 -1.421875 
Q 20.0625 -1.421875 12.78125 6.34375 
Q 5.515625 14.109375 5.515625 27.296875 
Q 5.515625 40.671875 12.859375 48.328125 
Q 20.21875 56 33.015625 56 
Q 37.15625 56 41.109375 55.140625 
Q 45.0625 54.296875 48.78125 52.59375 
z
" id="DejaVuSans-99"/>
      <path d="M 56.203125 29.59375 
L 56.203125 25.203125 
L 14.890625 25.203125 
Q 15.484375 15.921875 20.484375 11.0625 
Q 25.484375 6.203125 34.421875 6.203125 
Q 39.59375 6.203125 44.453125 7.46875 
Q 49.3125 8.734375 54.109375 11.28125 
L 54.109375 2.78125 
Q 49.265625 0.734375 44.1875 -0.34375 
Q 39.109375 -1.421875 33.890625 -1.421875 
Q 20.796875 -1.421875 13.15625 6.1875 
Q 5.515625 13.8125 5.515625 26.8125 
Q 5.515625 40.234375 12.765625 48.109375 
Q 20.015625 56 32.328125 56 
Q 43.359375 56 49.78125 48.890625 
Q 56.203125 41.796875 56.203125 29.59375 
z
M 47.21875 32.234375 
Q 47.125 39.59375 43.09375 43.984375 
Q 39.0625 48.390625 32.421875 48.390625 
Q 24.90625 48.390625 20.390625 44.140625 
Q 15.875 39.890625 15.1875 32.171875 
z
" id="DejaVuSans-101"/>
      <path d="M 34.1875 63.1875 
L 20.796875 26.90625 
L 47.609375 26.90625 
z
M 28.609375 72.90625 
L 39.796875 72.90625 
L 67.578125 0 
L 57.328125 0 
L 50.6875 18.703125 
L 17.828125 18.703125 
L 11.1875 0 
L 0.78125 0 
z
" id="DejaVuSans-65"/>
      <path d="M 9.8125 72.90625 
L 24.515625 72.90625 
L 43.109375 23.296875 
L 61.8125 72.90625 
L 76.515625 72.90625 
L 76.515625 0 
L 66.890625 0 
L 66.890625 64.015625 
L 48.09375 14.015625 
L 38.1875 14.015625 
L 19.390625 64.015625 
L 19.390625 0 
L 9.8125 0 
z
" id="DejaVuSans-77"/>
      <path d="M 37.109375 75.984375 
L 37.109375 68.5 
L 28.515625 68.5 
Q 23.6875 68.5 21.796875 66.546875 
Q 19.921875 64.59375 19.921875 59.515625 
L 19.921875 54.6875 
L 34.71875 54.6875 
L 34.71875 47.703125 
L 19.921875 47.703125 
L 19.921875 0 
L 10.890625 0 
L 10.890625 47.703125 
L 2.296875 47.703125 
L 2.296875 54.6875 
L 10.890625 54.6875 
L 10.890625 58.5 
Q 10.890625 67.625 15.140625 71.796875 
Q 19.390625 75.984375 28.609375 75.984375 
z
" id="DejaVuSans-102"/>
      <path d="M 18.3125 70.21875 
L 18.3125 54.6875 
L 36.8125 54.6875 
L 36.8125 47.703125 
L 18.3125 47.703125 
L 18.3125 18.015625 
Q 18.3125 11.328125 20.140625 9.421875 
Q 21.96875 7.515625 27.59375 7.515625 
L 36.8125 7.515625 
L 36.8125 0 
L 27.59375 0 
Q 17.1875 0 13.234375 3.875 
Q 9.28125 7.765625 9.28125 18.015625 
L 9.28125 47.703125 
L 2.6875 47.703125 
L 2.6875 54.6875 
L 9.28125 54.6875 
L 9.28125 70.21875 
z
" id="DejaVuSans-116"/>
      <path d="M 45.40625 46.390625 
L 45.40625 75.984375 
L 54.390625 75.984375 
L 54.390625 0 
L 45.40625 0 
L 45.40625 8.203125 
Q 42.578125 3.328125 38.25 0.953125 
Q 33.9375 -1.421875 27.875 -1.421875 
Q 17.96875 -1.421875 11.734375 6.484375 
Q 5.515625 14.40625 5.515625 27.296875 
Q 5.515625 40.1875 11.734375 48.09375 
Q 17.96875 56 27.875 56 
Q 33.9375 56 38.25 53.625 
Q 42.578125 51.265625 45.40625 46.390625 
z
M 14.796875 27.296875 
Q 14.796875 17.390625 18.875 11.75 
Q 22.953125 6.109375 30.078125 6.109375 
Q 37.203125 6.109375 41.296875 11.75 
Q 45.40625 17.390625 45.40625 27.296875 
Q 45.40625 37.203125 41.296875 42.84375 
Q 37.203125 48.484375 30.078125 48.484375 
Q 22.953125 48.484375 18.875 42.84375 
Q 14.796875 37.203125 14.796875 27.296875 
z
" id="DejaVuSans-100"/>
      <path d="M 34.28125 27.484375 
Q 23.390625 27.484375 19.1875 25 
Q 14.984375 22.515625 14.984375 16.5 
Q 14.984375 11.71875 18.140625 8.90625 
Q 21.296875 6.109375 26.703125 6.109375 
Q 34.1875 6.109375 38.703125 11.40625 
Q 43.21875 16.703125 43.21875 25.484375 
L 43.21875 27.484375 
z
M 52.203125 31.203125 
L 52.203125 0 
L 43.21875 0 
L 43.21875 8.296875 
Q 40.140625 3.328125 35.546875 0.953125 
Q 30.953125 -1.421875 24.3125 -1.421875 
Q 15.921875 -1.421875 10.953125 3.296875 
Q 6 8.015625 6 15.921875 
Q 6 25.140625 12.171875 29.828125 
Q 18.359375 34.515625 30.609375 34.515625 
L 43.21875 34.515625 
L 43.21875 35.40625 
Q 43.21875 41.609375 39.140625 45 
Q 35.0625 48.390625 27.6875 48.390625 
Q 23 48.390625 18.546875 47.265625 
Q 14.109375 46.140625 10.015625 43.890625 
L 10.015625 52.203125 
Q 14.9375 54.109375 19.578125 55.046875 
Q 24.21875 56 28.609375 56 
Q 40.484375 56 46.34375 49.84375 
Q 52.203125 43.703125 52.203125 31.203125 
z
" id="DejaVuSans-97"/>
      <path d="M 32.171875 -5.078125 
Q 28.375 -14.84375 24.75 -17.8125 
Q 21.140625 -20.796875 15.09375 -20.796875 
L 7.90625 -20.796875 
L 7.90625 -13.28125 
L 13.1875 -13.28125 
Q 16.890625 -13.28125 18.9375 -11.515625 
Q 21 -9.765625 23.484375 -3.21875 
L 25.09375 0.875 
L 2.984375 54.6875 
L 12.5 54.6875 
L 29.59375 11.921875 
L 46.6875 54.6875 
L 56.203125 54.6875 
z
" id="DejaVuSans-121"/>
     </defs>
     <g transform="translate(140.767031 258.476562)scale(0.1 -0.1)">
      <use xlink:href="#DejaVuSans-72"/>
      <use x="75.195312" xlink:href="#DejaVuSans-111"/>
      <use x="136.376953" xlink:href="#DejaVuSans-117"/>
      <use x="199.755859" xlink:href="#DejaVuSans-114"/>
      <use x="240.869141" xlink:href="#DejaVuSans-115"/>
      <use x="292.96875" xlink:href="#DejaVuSans-32"/>
      <use x="324.755859" xlink:href="#DejaVuSans-115"/>
      <use x="376.855469" xlink:href="#DejaVuSans-105"/>
      <use x="404.638672" xlink:href="#DejaVuSans-110"/>
      <use x="468.017578" xlink:href="#DejaVuSans-99"/>
      <use x="522.998047" xlink:href="#DejaVuSans-101"/>
      <use x="584.521484" xlink:href="#DejaVuSans-32"/>
      <use x="616.308594" xlink:href="#DejaVuSans-55"/>
      <use x="679.931641" xlink:href="#DejaVuSans-65"/>
      <use x="748.339844" xlink:href="#DejaVuSans-77"/>
      <use x="834.619141" xlink:href="#DejaVuSans-32"/>
      <use x="866.40625" xlink:href="#DejaVuSans-111"/>
      <use x="927.587891" xlink:href="#DejaVuSans-110"/>
      <use x="990.966797" xlink:href="#DejaVuSans-32"/>
      <use x="1022.753906" xlink:href="#DejaVuSans-102"/>
      <use x="1057.958984" xlink:href="#DejaVuSans-105"/>
      <use x="1085.742188" xlink:href="#DejaVuSans-114"/>
      <use x="1126.855469" xlink:href="#DejaVuSans-115"/>
      <use x="1178.955078" xlink:href="#DejaVuSans-116"/>
      <use x="1218.164062" xlink:href="#DejaVuSans-32"/>
      <use x="1249.951172" xlink:href="#DejaVuSans-100"/>
      <use x="1313.427734" xlink:href="#DejaVuSans-97"/>
      <use x="1374.707031" xlink:href="#DejaVuSans-121"/>
     </g>
    </g>
   </g>
   <g id="matplotlib.axis_2">
    <g id="ytick_1">
     <g id="line2d_16">
      <defs>
       <path d="M 0 0 
L -3.5 0 
" id="mac0fd531fe" style="stroke:#000000;stroke-width:0.8;"/>
      </defs>
      <g>
       <use style="stroke:#000000;stroke-width:0.8;" x="50.48" xlink:href="#mac0fd531fe" y="221.606317"/>
      </g>
     </g>
     <g id="text_17">
      <!-- 0 -->
      <g transform="translate(37.1175 225.405536)scale(0.1 -0.1)">
       <use xlink:href="#DejaVuSans-48"/>
      </g>
     </g>
    </g>
    <g id="ytick_2">
     <g id="line2d_17">
      <g>
       <use style="stroke:#000000;stroke-width:0.8;" x="50.48" xlink:href="#mac0fd531fe" y="187.01775"/>
      </g>
     </g>
     <g id="text_18">
      <!-- 50 -->
      <g transform="translate(30.755 190.816968)scale(0.1 -0.1)">
       <use xlink:href="#DejaVuSans-53"/>
       <use x="63.623047" xlink:href="#DejaVuSans-48"/>
      </g>
     </g>
    </g>
    <g id="ytick_3">
     <g id="line2d_18">
      <g>
       <use style="stroke:#000000;stroke-width:0.8;" x="50.48" xlink:href="#mac0fd531fe" y="152.429182"/>
      </g>
     </g>
     <g id="text_19">
      <!-- 100 -->
      <g transform="translate(24.3925 156.228401)scale(0.1 -0.1)">
       <use xlink:href="#DejaVuSans-49"/>
       <use x="63.623047" xlink:href="#DejaVuSans-48"/>
       <use x="127.246094" xlink:href="#DejaVuSans-48"/>
      </g>
     </g>
    </g>
    <g id="ytick_4">
     <g id="line2d_19">
      <g>
       <use style="stroke:#000000;stroke-width:0.8;" x="50.48" xlink:href="#mac0fd531fe" y="117.840615"/>
      </g>
     </g>
     <g id="text_20">
      <!-- 150 -->
      <g transform="translate(24.3925 121.639834)scale(0.1 -0.1)">
       <use xlink:href="#DejaVuSans-49"/>
       <use x="63.623047" xlink:href="#DejaVuSans-53"/>
       <use x="127.246094" xlink:href="#DejaVuSans-48"/>
      </g>
     </g>
    </g>
    <g id="ytick_5">
     <g id="line2d_20">
      <g>
       <use style="stroke:#000000;stroke-width:0.8;" x="50.48" xlink:href="#mac0fd531fe" y="83.252048"/>
      </g>
     </g>
     <g id="text_21">
      <!-- 200 -->
      <g transform="translate(24.3925 87.051267)scale(0.1 -0.1)">
       <use xlink:href="#DejaVuSans-50"/>
       <use x="63.623047" xlink:href="#DejaVuSans-48"/>
       <use x="127.246094" xlink:href="#DejaVuSans-48"/>
      </g>
     </g>
    </g>
    <g id="ytick_6">
     <g id="line2d_21">
      <g>
       <use style="stroke:#000000;stroke-width:0.8;" x="50.48" xlink:href="#mac0fd531fe" y="48.663481"/>
      </g>
     </g>
     <g id="text_22">
      <!-- 250 -->
      <g transform="translate(24.3925 52.4627)scale(0.1 -0.1)">
       <use xlink:href="#DejaVuSans-50"/>
       <use x="63.623047" xlink:href="#DejaVuSans-53"/>
       <use x="127.246094" xlink:href="#DejaVuSans-48"/>
      </g>
     </g>
    </g>
    <g id="text_23">
     <!-- Correct pokes -->
     <defs>
      <path d="M 64.40625 67.28125 
L 64.40625 56.890625 
Q 59.421875 61.53125 53.78125 63.8125 
Q 48.140625 66.109375 41.796875 66.109375 
Q 29.296875 66.109375 22.65625 58.46875 
Q 16.015625 50.828125 16.015625 36.375 
Q 16.015625 21.96875 22.65625 14.328125 
Q 29.296875 6.6875 41.796875 6.6875 
Q 48.140625 6.6875 53.78125 8.984375 
Q 59.421875 11.28125 64.40625 15.921875 
L 64.40625 5.609375 
Q 59.234375 2.09375 53.4375 0.328125 
Q 47.65625 -1.421875 41.21875 -1.421875 
Q 24.65625 -1.421875 15.125 8.703125 
Q 5.609375 18.84375 5.609375 36.375 
Q 5.609375 53.953125 15.125 64.078125 
Q 24.65625 74.21875 41.21875 74.21875 
Q 47.75 74.21875 53.53125 72.484375 
Q 59.328125 70.75 64.40625 67.28125 
z
" id="DejaVuSans-67"/>
      <path d="M 18.109375 8.203125 
L 18.109375 -20.796875 
L 9.078125 -20.796875 
L 9.078125 54.6875 
L 18.109375 54.6875 
L 18.109375 46.390625 
Q 20.953125 51.265625 25.265625 53.625 
Q 29.59375 56 35.59375 56 
Q 45.5625 56 51.78125 48.09375 
Q 58.015625 40.1875 58.015625 27.296875 
Q 58.015625 14.40625 51.78125 6.484375 
Q 45.5625 -1.421875 35.59375 -1.421875 
Q 29.59375 -1.421875 25.265625 0.953125 
Q 20.953125 3.328125 18.109375 8.203125 
z
M 48.6875 27.296875 
Q 48.6875 37.203125 44.609375 42.84375 
Q 40.53125 48.484375 33.40625 48.484375 
Q 26.265625 48.484375 22.1875 42.84375 
Q 18.109375 37.203125 18.109375 27.296875 
Q 18.109375 17.390625 22.1875 11.75 
Q 26.265625 6.109375 33.40625 6.109375 
Q 40.53125 6.109375 44.609375 11.75 
Q 48.6875 17.390625 48.6875 27.296875 
z
" id="DejaVuSans-112"/>
      <path d="M 9.078125 75.984375 
L 18.109375 75.984375 
L 18.109375 31.109375 
L 44.921875 54.6875 
L 56.390625 54.6875 
L 27.390625 29.109375 
L 57.625 0 
L 45.90625 0 
L 18.109375 26.703125 
L 18.109375 0 
L 9.078125 0 
z
" id="DejaVuSans-107"/>
     </defs>
     <g transform="translate(18.312812 162.525625)rotate(-90)scale(0.1 -0.1)">
      <use xlink:href="#DejaVuSans-67"/>
      <use x="69.824219" xlink:href="#DejaVuSans-111"/>
      <use x="131.005859" xlink:href="#DejaVuSans-114"/>
      <use x="170.369141" xlink:href="#DejaVuSans-114"/>
      <use x="209.232422" xlink:href="#DejaVuSans-101"/>
      <use x="270.755859" xlink:href="#DejaVuSans-99"/>
      <use x="325.736328" xlink:href="#DejaVuSans-116"/>
      <use x="364.945312" xlink:href="#DejaVuSans-32"/>
      <use x="396.732422" xlink:href="#DejaVuSans-112"/>
      <use x="460.208984" xlink:href="#DejaVuSans-111"/>
      <use x="521.390625" xlink:href="#DejaVuSans-107"/>
      <use x="575.675781" xlink:href="#DejaVuSans-101"/>
      <use x="637.199219" xlink:href="#DejaVuSans-115"/>
     </g>
    </g>
   </g>
   <g id="line2d_22">
    <path clip-path="url(#p75a2f9a135)" d="M 72.951214 100.085151 
L 74.823815 67.802488 
L 76.696416 124.354795 
L 78.569017 159.231601 
L 80.441619 141.764374 
L 82.31422 146.722069 
L 84.186821 162.459867 
L 86.059422 187.01775 
L 87.932023 184.135369 
L 89.804624 165.399895 
L 91.677225 189.381302 
L 93.549827 180.388274 
L 95.422428 180.042389 
L 97.295029 194.338996 
L 99.16763 200.219053 
L 101.040231 190.649549 
L 102.912832 199.757872 
L 104.785434 201.4873 
L 106.658035 197.451967 
L 108.530636 201.25671 
L 110.403237 181.483579 
L 112.275838 179.984741 
L 114.148439 176.525884 
L 116.02104 179.465912 
L 117.893642 153.69743 
L 119.766243 130.696033 
L 121.638844 138.824346 
L 123.511445 158.77042 
L 125.384046 173.816446 
L 127.256647 157.156287 
L 129.129249 179.465912 
L 131.00185 185.345969 
L 132.874451 188.343645 
L 134.747052 168.512866 
L 136.619653 189.842483 
L 138.492254 181.829465 
L 140.364855 186.671864 
L 142.237457 184.711845 
L 145.982659 199.181396 
L 147.85526 199.527281 
L 149.727861 207.425004 
L 151.600462 202.409662 
L 153.473064 191.744854 
L 155.345665 189.554245 
L 157.218266 178.601198 
L 159.090867 172.605847 
L 160.963468 181.137693 
L 162.836069 157.213934 
L 164.708671 145.742059 
L 166.581272 146.376183 
L 168.453873 163.324581 
L 170.326474 174.508218 
L 172.199075 166.668143 
L 174.071676 179.004732 
L 175.944277 184.365959 
L 177.816879 183.15536 
L 179.68948 183.213007 
L 181.562081 187.190692 
L 183.434682 191.456616 
L 185.307283 183.328302 
L 187.179884 201.4873 
L 189.052486 191.11073 
L 190.925087 202.640252 
L 192.797688 186.729512 
L 194.670289 186.095388 
L 196.54289 202.46731 
L 198.415491 194.124128 
L 200.288092 192.92925 
L 202.160694 181.043361 
L 204.033295 176.326738 
L 205.905896 164.75529 
L 207.778497 220.914545 
L 207.778497 220.914545 
" style="fill:none;stroke:#1f77b4;stroke-linecap:square;stroke-width:1.5;"/>
   </g>
   <g id="line2d_23">
    <path clip-path="url(#p75a2f9a135)" d="M 50.48 174.440089 
L 52.352601 191.860149 
L 54.225202 193.432357 
L 56.097803 181.672244 
L 57.970405 186.137313 
L 59.843006 191.797261 
L 61.715607 193.621022 
L 63.588208 190.099276 
L 65.460809 195.256117 
L 67.33341 182.117703 
L 69.206012 158.539829 
L 71.078613 163.266933 
L 72.951214 140.092593 
L 74.823815 129.831319 
L 76.696416 131.791337 
L 78.569017 140.611422 
L 80.441619 146.606774 
L 82.31422 137.26786 
L 84.186821 162.459867 
L 86.059422 145.165583 
L 87.932023 175.949408 
L 89.804624 172.894085 
L 91.677225 167.648152 
L 93.549827 170.761123 
L 95.422428 169.262285 
L 97.295029 174.392923 
L 99.16763 178.889436 
L 101.040231 173.470561 
L 102.912832 177.160008 
L 104.785434 197.106082 
L 106.658035 174.854103 
L 108.530636 178.31296 
L 110.403237 199.354339 
L 112.275838 172.663494 
L 114.148439 172.605847 
L 116.02104 159.519839 
L 117.893642 154.216258 
L 119.766243 133.578413 
L 121.638844 124.2395 
L 123.511445 138.305517 
L 125.384046 128.274833 
L 127.256647 158.943363 
L 129.129249 136.80668 
L 131.00185 168.858752 
L 132.874451 161.191619 
L 134.747052 171.107009 
L 136.619653 170.069352 
L 138.492254 176.814122 
L 140.364855 182.982417 
L 142.237457 194.800177 
L 144.110058 191.226025 
L 145.982659 181.368284 
L 147.85526 181.598874 
L 149.727861 179.062379 
L 151.600462 189.381302 
L 153.473064 181.368284 
L 155.345665 184.423607 
L 157.218266 188.747178 
L 159.090867 179.638855 
L 160.963468 146.895012 
L 162.836069 109.712302 
L 164.708671 110.23113 
L 166.581272 112.018206 
L 168.453873 117.49473 
L 170.326474 113.86293 
L 172.199075 167.014028 
L 174.071676 138.24787 
L 177.816879 183.847131 
L 179.68948 159.231601 
L 181.562081 163.555172 
L 183.434682 173.585856 
L 183.434682 173.585856 
" style="fill:none;stroke:#ff7f0e;stroke-linecap:square;stroke-width:1.5;"/>
   </g>
   <g id="patch_10">
    <path d="M 50.48 230.2 
L 50.48 25.92 
" style="fill:none;stroke:#000000;stroke-linecap:square;stroke-linejoin:miter;stroke-width:0.8;"/>
   </g>
   <g id="patch_11">
    <path d="M 374.44 230.2 
L 374.44 25.92 
" style="fill:none;stroke:#000000;stroke-linecap:square;stroke-linejoin:miter;stroke-width:0.8;"/>
   </g>
   <g id="patch_12">
    <path d="M 50.48 230.2 
L 374.44 230.2 
" style="fill:none;stroke:#000000;stroke-linecap:square;stroke-linejoin:miter;stroke-width:0.8;"/>
   </g>
   <g id="patch_13">
    <path d="M 50.48 25.92 
L 374.44 25.92 
" style="fill:none;stroke:#000000;stroke-linecap:square;stroke-linejoin:miter;stroke-width:0.8;"/>
   </g>
   <g id="text_24">
    <!-- Average Plot of Correct pokes -->
    <defs>
     <path d="M 2.984375 54.6875 
L 12.5 54.6875 
L 29.59375 8.796875 
L 46.6875 54.6875 
L 56.203125 54.6875 
L 35.6875 0 
L 23.484375 0 
z
" id="DejaVuSans-118"/>
     <path d="M 45.40625 27.984375 
Q 45.40625 37.75 41.375 43.109375 
Q 37.359375 48.484375 30.078125 48.484375 
Q 22.859375 48.484375 18.828125 43.109375 
Q 14.796875 37.75 14.796875 27.984375 
Q 14.796875 18.265625 18.828125 12.890625 
Q 22.859375 7.515625 30.078125 7.515625 
Q 37.359375 7.515625 41.375 12.890625 
Q 45.40625 18.265625 45.40625 27.984375 
z
M 54.390625 6.78125 
Q 54.390625 -7.171875 48.1875 -13.984375 
Q 42 -20.796875 29.203125 -20.796875 
Q 24.46875 -20.796875 20.265625 -20.09375 
Q 16.0625 -19.390625 12.109375 -17.921875 
L 12.109375 -9.1875 
Q 16.0625 -11.328125 19.921875 -12.34375 
Q 23.78125 -13.375 27.78125 -13.375 
Q 36.625 -13.375 41.015625 -8.765625 
Q 45.40625 -4.15625 45.40625 5.171875 
L 45.40625 9.625 
Q 42.625 4.78125 38.28125 2.390625 
Q 33.9375 0 27.875 0 
Q 17.828125 0 11.671875 7.65625 
Q 5.515625 15.328125 5.515625 27.984375 
Q 5.515625 40.671875 11.671875 48.328125 
Q 17.828125 56 27.875 56 
Q 33.9375 56 38.28125 53.609375 
Q 42.625 51.21875 45.40625 46.390625 
L 45.40625 54.6875 
L 54.390625 54.6875 
z
" id="DejaVuSans-103"/>
     <path d="M 19.671875 64.796875 
L 19.671875 37.40625 
L 32.078125 37.40625 
Q 38.96875 37.40625 42.71875 40.96875 
Q 46.484375 44.53125 46.484375 51.125 
Q 46.484375 57.671875 42.71875 61.234375 
Q 38.96875 64.796875 32.078125 64.796875 
z
M 9.8125 72.90625 
L 32.078125 72.90625 
Q 44.34375 72.90625 50.609375 67.359375 
Q 56.890625 61.8125 56.890625 51.125 
Q 56.890625 40.328125 50.609375 34.8125 
Q 44.34375 29.296875 32.078125 29.296875 
L 19.671875 29.296875 
L 19.671875 0 
L 9.8125 0 
z
" id="DejaVuSans-80"/>
     <path d="M 9.421875 75.984375 
L 18.40625 75.984375 
L 18.40625 0 
L 9.421875 0 
z
" id="DejaVuSans-108"/>
    </defs>
    <g transform="translate(123.649687 19.92)scale(0.12 -0.12)">
     <use xlink:href="#DejaVuSans-65"/>
     <use x="62.533203" xlink:href="#DejaVuSans-118"/>
     <use x="121.712891" xlink:href="#DejaVuSans-101"/>
     <use x="183.236328" xlink:href="#DejaVuSans-114"/>
     <use x="224.349609" xlink:href="#DejaVuSans-97"/>
     <use x="285.628906" xlink:href="#DejaVuSans-103"/>
     <use x="349.105469" xlink:href="#DejaVuSans-101"/>
     <use x="410.628906" xlink:href="#DejaVuSans-32"/>
     <use x="442.416016" xlink:href="#DejaVuSans-80"/>
     <use x="502.71875" xlink:href="#DejaVuSans-108"/>
     <use x="530.501953" xlink:href="#DejaVuSans-111"/>
     <use x="591.683594" xlink:href="#DejaVuSans-116"/>
     <use x="630.892578" xlink:href="#DejaVuSans-32"/>
     <use x="662.679688" xlink:href="#DejaVuSans-111"/>
     <use x="723.861328" xlink:href="#DejaVuSans-102"/>
     <use x="759.066406" xlink:href="#DejaVuSans-32"/>
     <use x="790.853516" xlink:href="#DejaVuSans-67"/>
     <use x="860.677734" xlink:href="#DejaVuSans-111"/>
     <use x="921.859375" xlink:href="#DejaVuSans-114"/>
     <use x="961.222656" xlink:href="#DejaVuSans-114"/>
     <use x="1000.085938" xlink:href="#DejaVuSans-101"/>
     <use x="1061.609375" xlink:href="#DejaVuSans-99"/>
     <use x="1116.589844" xlink:href="#DejaVuSans-116"/>
     <use x="1155.798828" xlink:href="#DejaVuSans-32"/>
     <use x="1187.585938" xlink:href="#DejaVuSans-112"/>
     <use x="1251.0625" xlink:href="#DejaVuSans-111"/>
     <use x="1312.244141" xlink:href="#DejaVuSans-107"/>
     <use x="1366.529297" xlink:href="#DejaVuSans-101"/>
     <use x="1428.052734" xlink:href="#DejaVuSans-115"/>
    </g>
   </g>
   <g id="legend_1">
    <g id="patch_14">
     <path d="M 381.44 77.954375 
L 475.011875 77.954375 
Q 477.011875 77.954375 477.011875 75.954375 
L 477.011875 32.92 
Q 477.011875 30.92 475.011875 30.92 
L 381.44 30.92 
Q 379.44 30.92 379.44 32.92 
L 379.44 75.954375 
Q 379.44 77.954375 381.44 77.954375 
z
" style="fill:#ffffff;opacity:0.8;stroke:#cccccc;stroke-linejoin:miter;"/>
    </g>
    <g id="line2d_24">
     <path d="M 383.44 39.018438 
L 403.44 39.018438 
" style="fill:none;stroke:#1f77b4;stroke-linecap:square;stroke-width:1.5;"/>
    </g>
    <g id="line2d_25"/>
    <g id="text_25">
     <!-- Post (±SEM) -->
     <defs>
      <path d="M 31 75.875 
Q 24.46875 64.65625 21.28125 53.65625 
Q 18.109375 42.671875 18.109375 31.390625 
Q 18.109375 20.125 21.3125 9.0625 
Q 24.515625 -2 31 -13.1875 
L 23.1875 -13.1875 
Q 15.875 -1.703125 12.234375 9.375 
Q 8.59375 20.453125 8.59375 31.390625 
Q 8.59375 42.28125 12.203125 53.3125 
Q 15.828125 64.359375 23.1875 75.875 
z
" id="DejaVuSans-40"/>
      <path d="M 46 62.703125 
L 46 43.796875 
L 73.1875 43.796875 
L 73.1875 35.5 
L 46 35.5 
L 46 16.609375 
L 37.796875 16.609375 
L 37.796875 35.5 
L 10.59375 35.5 
L 10.59375 43.796875 
L 37.796875 43.796875 
L 37.796875 62.703125 
z
M 10.59375 8.296875 
L 73.1875 8.296875 
L 73.1875 0 
L 10.59375 0 
z
" id="DejaVuSans-177"/>
      <path d="M 53.515625 70.515625 
L 53.515625 60.890625 
Q 47.90625 63.578125 42.921875 64.890625 
Q 37.9375 66.21875 33.296875 66.21875 
Q 25.25 66.21875 20.875 63.09375 
Q 16.5 59.96875 16.5 54.203125 
Q 16.5 49.359375 19.40625 46.890625 
Q 22.3125 44.4375 30.421875 42.921875 
L 36.375 41.703125 
Q 47.40625 39.59375 52.65625 34.296875 
Q 57.90625 29 57.90625 20.125 
Q 57.90625 9.515625 50.796875 4.046875 
Q 43.703125 -1.421875 29.984375 -1.421875 
Q 24.8125 -1.421875 18.96875 -0.25 
Q 13.140625 0.921875 6.890625 3.21875 
L 6.890625 13.375 
Q 12.890625 10.015625 18.65625 8.296875 
Q 24.421875 6.59375 29.984375 6.59375 
Q 38.421875 6.59375 43.015625 9.90625 
Q 47.609375 13.234375 47.609375 19.390625 
Q 47.609375 24.75 44.3125 27.78125 
Q 41.015625 30.8125 33.5 32.328125 
L 27.484375 33.5 
Q 16.453125 35.6875 11.515625 40.375 
Q 6.59375 45.0625 6.59375 53.421875 
Q 6.59375 63.09375 13.40625 68.65625 
Q 20.21875 74.21875 32.171875 74.21875 
Q 37.3125 74.21875 42.625 73.28125 
Q 47.953125 72.359375 53.515625 70.515625 
z
" id="DejaVuSans-83"/>
      <path d="M 9.8125 72.90625 
L 55.90625 72.90625 
L 55.90625 64.59375 
L 19.671875 64.59375 
L 19.671875 43.015625 
L 54.390625 43.015625 
L 54.390625 34.71875 
L 19.671875 34.71875 
L 19.671875 8.296875 
L 56.78125 8.296875 
L 56.78125 0 
L 9.8125 0 
z
" id="DejaVuSans-69"/>
      <path d="M 8.015625 75.875 
L 15.828125 75.875 
Q 23.140625 64.359375 26.78125 53.3125 
Q 30.421875 42.28125 30.421875 31.390625 
Q 30.421875 20.453125 26.78125 9.375 
Q 23.140625 -1.703125 15.828125 -13.1875 
L 8.015625 -13.1875 
Q 14.5 -2 17.703125 9.0625 
Q 20.90625 20.125 20.90625 31.390625 
Q 20.90625 42.671875 17.703125 53.65625 
Q 14.5 64.65625 8.015625 75.875 
z
" id="DejaVuSans-41"/>
     </defs>
     <g transform="translate(411.44 42.518438)scale(0.1 -0.1)">
      <use xlink:href="#DejaVuSans-80"/>
      <use x="56.677734" xlink:href="#DejaVuSans-111"/>
      <use x="117.859375" xlink:href="#DejaVuSans-115"/>
      <use x="169.958984" xlink:href="#DejaVuSans-116"/>
      <use x="209.167969" xlink:href="#DejaVuSans-32"/>
      <use x="240.955078" xlink:href="#DejaVuSans-40"/>
      <use x="279.96875" xlink:href="#DejaVuSans-177"/>
      <use x="363.757812" xlink:href="#DejaVuSans-83"/>
      <use x="427.234375" xlink:href="#DejaVuSans-69"/>
      <use x="490.417969" xlink:href="#DejaVuSans-77"/>
      <use x="576.697266" xlink:href="#DejaVuSans-41"/>
     </g>
    </g>
    <g id="line2d_26">
     <path d="M 383.44 53.696562 
L 403.44 53.696562 
" style="fill:none;stroke:#ff7f0e;stroke-linecap:square;stroke-width:1.5;"/>
    </g>
    <g id="line2d_27"/>
    <g id="text_26">
     <!-- Pre (±SEM) -->
     <g transform="translate(411.44 57.196562)scale(0.1 -0.1)">
      <use xlink:href="#DejaVuSans-80"/>
      <use x="58.552734" xlink:href="#DejaVuSans-114"/>
      <use x="97.416016" xlink:href="#DejaVuSans-101"/>
      <use x="158.939453" xlink:href="#DejaVuSans-32"/>
      <use x="190.726562" xlink:href="#DejaVuSans-40"/>
      <use x="229.740234" xlink:href="#DejaVuSans-177"/>
      <use x="313.529297" xlink:href="#DejaVuSans-83"/>
      <use x="377.005859" xlink:href="#DejaVuSans-69"/>
      <use x="440.189453" xlink:href="#DejaVuSans-77"/>
      <use x="526.46875" xlink:href="#DejaVuSans-41"/>
     </g>
    </g>
    <g id="patch_15">
     <path d="M 383.44 71.874687 
L 403.44 71.874687 
L 403.44 64.874687 
L 383.44 64.874687 
z
" style="fill:#808080;opacity:0.2;stroke:#808080;stroke-linejoin:miter;"/>
    </g>
    <g id="text_27">
     <!-- lights off -->
     <defs>
      <path d="M 54.890625 33.015625 
L 54.890625 0 
L 45.90625 0 
L 45.90625 32.71875 
Q 45.90625 40.484375 42.875 44.328125 
Q 39.84375 48.1875 33.796875 48.1875 
Q 26.515625 48.1875 22.3125 43.546875 
Q 18.109375 38.921875 18.109375 30.90625 
L 18.109375 0 
L 9.078125 0 
L 9.078125 75.984375 
L 18.109375 75.984375 
L 18.109375 46.1875 
Q 21.34375 51.125 25.703125 53.5625 
Q 30.078125 56 35.796875 56 
Q 45.21875 56 50.046875 50.171875 
Q 54.890625 44.34375 54.890625 33.015625 
z
" id="DejaVuSans-104"/>
     </defs>
     <g transform="translate(411.44 71.874687)scale(0.1 -0.1)">
      <use xlink:href="#DejaVuSans-108"/>
      <use x="27.783203" xlink:href="#DejaVuSans-105"/>
      <use x="55.566406" xlink:href="#DejaVuSans-103"/>
      <use x="119.042969" xlink:href="#DejaVuSans-104"/>
      <use x="182.421875" xlink:href="#DejaVuSans-116"/>
      <use x="221.630859" xlink:href="#DejaVuSans-115"/>
      <use x="273.730469" xlink:href="#DejaVuSans-32"/>
      <use x="305.517578" xlink:href="#DejaVuSans-111"/>
      <use x="366.699219" xlink:href="#DejaVuSans-102"/>
      <use x="401.904297" xlink:href="#DejaVuSans-102"/>
     </g>
    </g>
   </g>
  </g>
 </g>
 <defs>
  <clipPath id="p75a2f9a135">
   <rect height="204.28" width="323.96" x="50.48" y="25.92"/>
  </clipPath>
 </defs>
</svg>
