<?xml version="1.0" encoding="utf-8" standalone="no"?>
<!DOCTYPE svg PUBLIC "-//W3C//DTD SVG 1.1//EN"
  "http://www.w3.org/Graphics/SVG/1.1/DTD/svg11.dtd">
<!-- Created with matplotlib (https://matplotlib.org/) -->
<svg height="432pt" version="1.1" viewBox="0 0 720 432" width="720pt" xmlns="http://www.w3.org/2000/svg" xmlns:xlink="http://www.w3.org/1999/xlink">
 <metadata>
  <rdf:RDF xmlns:cc="http://creativecommons.org/ns#" xmlns:dc="http://purl.org/dc/elements/1.1/" xmlns:rdf="http://www.w3.org/1999/02/22-rdf-syntax-ns#">
   <cc:Work>
    <dc:type rdf:resource="http://purl.org/dc/dcmitype/StillImage"/>
    <dc:date>2025-02-04T20:44:47.421066</dc:date>
    <dc:format>image/svg+xml</dc:format>
    <dc:creator>
     <cc:Agent>
      <dc:title>Matplotlib v3.3.4, https://matplotlib.org/</dc:title>
     </cc:Agent>
    </dc:creator>
   </cc:Work>
  </rdf:RDF>
 </metadata>
 <defs>
  <style type="text/css">*{stroke-linecap:butt;stroke-linejoin:round;}</style>
 </defs>
 <g id="figure_1">
  <g id="patch_1">
   <path d="M 0 432 
L 720 432 
L 720 0 
L 0 0 
z
" style="fill:#ffffff;"/>
  </g>
  <g id="axes_1">
   <g id="patch_2">
    <path d="M 90 378 
L 648 378 
L 648 51.84 
L 90 51.84 
z
" style="fill:#ffffff;"/>
   </g>
   <g id="matplotlib.axis_1">
    <g id="xtick_1">
     <g id="line2d_1">
      <path clip-path="url(#p3dd9829a07)" d="M 110.552582 378 
L 110.552582 51.84 
" style="fill:none;stroke:#b0b0b0;stroke-linecap:square;stroke-width:0.8;"/>
     </g>
     <g id="line2d_2">
      <defs>
       <path d="M 0 0 
L 0 3.5 
" id="m355bcbb2f0" style="stroke:#000000;stroke-width:0.8;"/>
      </defs>
      <g>
       <use style="stroke:#000000;stroke-width:0.8;" x="110.552582" xlink:href="#m355bcbb2f0" y="378"/>
      </g>
     </g>
     <g id="text_1">
      <!-- $\mathdefault{10^{0}}$ -->
      <g transform="translate(101.752582 392.598437)scale(0.1 -0.1)">
       <defs>
        <path d="M 12.40625 8.296875 
L 28.515625 8.296875 
L 28.515625 63.921875 
L 10.984375 60.40625 
L 10.984375 69.390625 
L 28.421875 72.90625 
L 38.28125 72.90625 
L 38.28125 8.296875 
L 54.390625 8.296875 
L 54.390625 0 
L 12.40625 0 
z
" id="DejaVuSans-49"/>
        <path d="M 31.78125 66.40625 
Q 24.171875 66.40625 20.328125 58.90625 
Q 16.5 51.421875 16.5 36.375 
Q 16.5 21.390625 20.328125 13.890625 
Q 24.171875 6.390625 31.78125 6.390625 
Q 39.453125 6.390625 43.28125 13.890625 
Q 47.125 21.390625 47.125 36.375 
Q 47.125 51.421875 43.28125 58.90625 
Q 39.453125 66.40625 31.78125 66.40625 
z
M 31.78125 74.21875 
Q 44.046875 74.21875 50.515625 64.515625 
Q 56.984375 54.828125 56.984375 36.375 
Q 56.984375 17.96875 50.515625 8.265625 
Q 44.046875 -1.421875 31.78125 -1.421875 
Q 19.53125 -1.421875 13.0625 8.265625 
Q 6.59375 17.96875 6.59375 36.375 
Q 6.59375 54.828125 13.0625 64.515625 
Q 19.53125 74.21875 31.78125 74.21875 
z
" id="DejaVuSans-48"/>
       </defs>
       <use transform="translate(0 0.765625)" xlink:href="#DejaVuSans-49"/>
       <use transform="translate(63.623047 0.765625)" xlink:href="#DejaVuSans-48"/>
       <use transform="translate(128.203125 39.046875)scale(0.7)" xlink:href="#DejaVuSans-48"/>
      </g>
     </g>
    </g>
    <g id="xtick_2">
     <g id="line2d_3">
      <path clip-path="url(#p3dd9829a07)" d="M 289.701722 378 
L 289.701722 51.84 
" style="fill:none;stroke:#b0b0b0;stroke-linecap:square;stroke-width:0.8;"/>
     </g>
     <g id="line2d_4">
      <g>
       <use style="stroke:#000000;stroke-width:0.8;" x="289.701722" xlink:href="#m355bcbb2f0" y="378"/>
      </g>
     </g>
     <g id="text_2">
      <!-- $\mathdefault{10^{1}}$ -->
      <g transform="translate(280.901722 392.598437)scale(0.1 -0.1)">
       <use transform="translate(0 0.684375)" xlink:href="#DejaVuSans-49"/>
       <use transform="translate(63.623047 0.684375)" xlink:href="#DejaVuSans-48"/>
       <use transform="translate(128.203125 38.965625)scale(0.7)" xlink:href="#DejaVuSans-49"/>
      </g>
     </g>
    </g>
    <g id="xtick_3">
     <g id="line2d_5">
      <path clip-path="url(#p3dd9829a07)" d="M 468.850861 378 
L 468.850861 51.84 
" style="fill:none;stroke:#b0b0b0;stroke-linecap:square;stroke-width:0.8;"/>
     </g>
     <g id="line2d_6">
      <g>
       <use style="stroke:#000000;stroke-width:0.8;" x="468.850861" xlink:href="#m355bcbb2f0" y="378"/>
      </g>
     </g>
     <g id="text_3">
      <!-- $\mathdefault{10^{2}}$ -->
      <g transform="translate(460.050861 392.598437)scale(0.1 -0.1)">
       <defs>
        <path d="M 19.1875 8.296875 
L 53.609375 8.296875 
L 53.609375 0 
L 7.328125 0 
L 7.328125 8.296875 
Q 12.9375 14.109375 22.625 23.890625 
Q 32.328125 33.6875 34.8125 36.53125 
Q 39.546875 41.84375 41.421875 45.53125 
Q 43.3125 49.21875 43.3125 52.78125 
Q 43.3125 58.59375 39.234375 62.25 
Q 35.15625 65.921875 28.609375 65.921875 
Q 23.96875 65.921875 18.8125 64.3125 
Q 13.671875 62.703125 7.8125 59.421875 
L 7.8125 69.390625 
Q 13.765625 71.78125 18.9375 73 
Q 24.125 74.21875 28.421875 74.21875 
Q 39.75 74.21875 46.484375 68.546875 
Q 53.21875 62.890625 53.21875 53.421875 
Q 53.21875 48.921875 51.53125 44.890625 
Q 49.859375 40.875 45.40625 35.40625 
Q 44.1875 33.984375 37.640625 27.21875 
Q 31.109375 20.453125 19.1875 8.296875 
z
" id="DejaVuSans-50"/>
       </defs>
       <use transform="translate(0 0.765625)" xlink:href="#DejaVuSans-49"/>
       <use transform="translate(63.623047 0.765625)" xlink:href="#DejaVuSans-48"/>
       <use transform="translate(128.203125 39.046875)scale(0.7)" xlink:href="#DejaVuSans-50"/>
      </g>
     </g>
    </g>
    <g id="xtick_4">
     <g id="line2d_7">
      <path clip-path="url(#p3dd9829a07)" d="M 648 378 
L 648 51.84 
" style="fill:none;stroke:#b0b0b0;stroke-linecap:square;stroke-width:0.8;"/>
     </g>
     <g id="line2d_8">
      <g>
       <use style="stroke:#000000;stroke-width:0.8;" x="648" xlink:href="#m355bcbb2f0" y="378"/>
      </g>
     </g>
     <g id="text_4">
      <!-- $\mathdefault{10^{3}}$ -->
      <g transform="translate(639.2 392.598437)scale(0.1 -0.1)">
       <defs>
        <path d="M 40.578125 39.3125 
Q 47.65625 37.796875 51.625 33 
Q 55.609375 28.21875 55.609375 21.1875 
Q 55.609375 10.40625 48.1875 4.484375 
Q 40.765625 -1.421875 27.09375 -1.421875 
Q 22.515625 -1.421875 17.65625 -0.515625 
Q 12.796875 0.390625 7.625 2.203125 
L 7.625 11.71875 
Q 11.71875 9.328125 16.59375 8.109375 
Q 21.484375 6.890625 26.8125 6.890625 
Q 36.078125 6.890625 40.9375 10.546875 
Q 45.796875 14.203125 45.796875 21.1875 
Q 45.796875 27.640625 41.28125 31.265625 
Q 36.765625 34.90625 28.71875 34.90625 
L 20.21875 34.90625 
L 20.21875 43.015625 
L 29.109375 43.015625 
Q 36.375 43.015625 40.234375 45.921875 
Q 44.09375 48.828125 44.09375 54.296875 
Q 44.09375 59.90625 40.109375 62.90625 
Q 36.140625 65.921875 28.71875 65.921875 
Q 24.65625 65.921875 20.015625 65.03125 
Q 15.375 64.15625 9.8125 62.3125 
L 9.8125 71.09375 
Q 15.4375 72.65625 20.34375 73.4375 
Q 25.25 74.21875 29.59375 74.21875 
Q 40.828125 74.21875 47.359375 69.109375 
Q 53.90625 64.015625 53.90625 55.328125 
Q 53.90625 49.265625 50.4375 45.09375 
Q 46.96875 40.921875 40.578125 39.3125 
z
" id="DejaVuSans-51"/>
       </defs>
       <use transform="translate(0 0.765625)" xlink:href="#DejaVuSans-49"/>
       <use transform="translate(63.623047 0.765625)" xlink:href="#DejaVuSans-48"/>
       <use transform="translate(128.203125 39.046875)scale(0.7)" xlink:href="#DejaVuSans-51"/>
      </g>
     </g>
    </g>
    <g id="xtick_5">
     <g id="line2d_9">
      <defs>
       <path d="M 0 0 
L 0 2 
" id="md2af0c8b6a" style="stroke:#000000;stroke-width:0.6;"/>
      </defs>
      <g>
       <use style="stroke:#000000;stroke-width:0.6;" x="93.191237" xlink:href="#md2af0c8b6a" y="378"/>
      </g>
     </g>
    </g>
    <g id="xtick_6">
     <g id="line2d_10">
      <g>
       <use style="stroke:#000000;stroke-width:0.6;" x="102.355167" xlink:href="#md2af0c8b6a" y="378"/>
      </g>
     </g>
    </g>
    <g id="xtick_7">
     <g id="line2d_11">
      <g>
       <use style="stroke:#000000;stroke-width:0.6;" x="164.481847" xlink:href="#md2af0c8b6a" y="378"/>
      </g>
     </g>
    </g>
    <g id="xtick_8">
     <g id="line2d_12">
      <g>
       <use style="stroke:#000000;stroke-width:0.6;" x="196.028445" xlink:href="#md2af0c8b6a" y="378"/>
      </g>
     </g>
    </g>
    <g id="xtick_9">
     <g id="line2d_13">
      <g>
       <use style="stroke:#000000;stroke-width:0.6;" x="218.411112" xlink:href="#md2af0c8b6a" y="378"/>
      </g>
     </g>
    </g>
    <g id="xtick_10">
     <g id="line2d_14">
      <g>
       <use style="stroke:#000000;stroke-width:0.6;" x="235.772457" xlink:href="#md2af0c8b6a" y="378"/>
      </g>
     </g>
    </g>
    <g id="xtick_11">
     <g id="line2d_15">
      <g>
       <use style="stroke:#000000;stroke-width:0.6;" x="249.957709" xlink:href="#md2af0c8b6a" y="378"/>
      </g>
     </g>
    </g>
    <g id="xtick_12">
     <g id="line2d_16">
      <g>
       <use style="stroke:#000000;stroke-width:0.6;" x="261.951169" xlink:href="#md2af0c8b6a" y="378"/>
      </g>
     </g>
    </g>
    <g id="xtick_13">
     <g id="line2d_17">
      <g>
       <use style="stroke:#000000;stroke-width:0.6;" x="272.340376" xlink:href="#md2af0c8b6a" y="378"/>
      </g>
     </g>
    </g>
    <g id="xtick_14">
     <g id="line2d_18">
      <g>
       <use style="stroke:#000000;stroke-width:0.6;" x="281.504307" xlink:href="#md2af0c8b6a" y="378"/>
      </g>
     </g>
    </g>
    <g id="xtick_15">
     <g id="line2d_19">
      <g>
       <use style="stroke:#000000;stroke-width:0.6;" x="343.630986" xlink:href="#md2af0c8b6a" y="378"/>
      </g>
     </g>
    </g>
    <g id="xtick_16">
     <g id="line2d_20">
      <g>
       <use style="stroke:#000000;stroke-width:0.6;" x="375.177584" xlink:href="#md2af0c8b6a" y="378"/>
      </g>
     </g>
    </g>
    <g id="xtick_17">
     <g id="line2d_21">
      <g>
       <use style="stroke:#000000;stroke-width:0.6;" x="397.560251" xlink:href="#md2af0c8b6a" y="378"/>
      </g>
     </g>
    </g>
    <g id="xtick_18">
     <g id="line2d_22">
      <g>
       <use style="stroke:#000000;stroke-width:0.6;" x="414.921596" xlink:href="#md2af0c8b6a" y="378"/>
      </g>
     </g>
    </g>
    <g id="xtick_19">
     <g id="line2d_23">
      <g>
       <use style="stroke:#000000;stroke-width:0.6;" x="429.106848" xlink:href="#md2af0c8b6a" y="378"/>
      </g>
     </g>
    </g>
    <g id="xtick_20">
     <g id="line2d_24">
      <g>
       <use style="stroke:#000000;stroke-width:0.6;" x="441.100308" xlink:href="#md2af0c8b6a" y="378"/>
      </g>
     </g>
    </g>
    <g id="xtick_21">
     <g id="line2d_25">
      <g>
       <use style="stroke:#000000;stroke-width:0.6;" x="451.489515" xlink:href="#md2af0c8b6a" y="378"/>
      </g>
     </g>
    </g>
    <g id="xtick_22">
     <g id="line2d_26">
      <g>
       <use style="stroke:#000000;stroke-width:0.6;" x="460.653446" xlink:href="#md2af0c8b6a" y="378"/>
      </g>
     </g>
    </g>
    <g id="xtick_23">
     <g id="line2d_27">
      <g>
       <use style="stroke:#000000;stroke-width:0.6;" x="522.780125" xlink:href="#md2af0c8b6a" y="378"/>
      </g>
     </g>
    </g>
    <g id="xtick_24">
     <g id="line2d_28">
      <g>
       <use style="stroke:#000000;stroke-width:0.6;" x="554.326723" xlink:href="#md2af0c8b6a" y="378"/>
      </g>
     </g>
    </g>
    <g id="xtick_25">
     <g id="line2d_29">
      <g>
       <use style="stroke:#000000;stroke-width:0.6;" x="576.70939" xlink:href="#md2af0c8b6a" y="378"/>
      </g>
     </g>
    </g>
    <g id="xtick_26">
     <g id="line2d_30">
      <g>
       <use style="stroke:#000000;stroke-width:0.6;" x="594.070735" xlink:href="#md2af0c8b6a" y="378"/>
      </g>
     </g>
    </g>
    <g id="xtick_27">
     <g id="line2d_31">
      <g>
       <use style="stroke:#000000;stroke-width:0.6;" x="608.255987" xlink:href="#md2af0c8b6a" y="378"/>
      </g>
     </g>
    </g>
    <g id="xtick_28">
     <g id="line2d_32">
      <g>
       <use style="stroke:#000000;stroke-width:0.6;" x="620.249447" xlink:href="#md2af0c8b6a" y="378"/>
      </g>
     </g>
    </g>
    <g id="xtick_29">
     <g id="line2d_33">
      <g>
       <use style="stroke:#000000;stroke-width:0.6;" x="630.638655" xlink:href="#md2af0c8b6a" y="378"/>
      </g>
     </g>
    </g>
    <g id="xtick_30">
     <g id="line2d_34">
      <g>
       <use style="stroke:#000000;stroke-width:0.6;" x="639.802585" xlink:href="#md2af0c8b6a" y="378"/>
      </g>
     </g>
    </g>
    <g id="text_5">
     <!-- Price Paid -->
     <g transform="translate(344.796094 406.276563)scale(0.1 -0.1)">
      <defs>
       <path d="M 19.671875 64.796875 
L 19.671875 37.40625 
L 32.078125 37.40625 
Q 38.96875 37.40625 42.71875 40.96875 
Q 46.484375 44.53125 46.484375 51.125 
Q 46.484375 57.671875 42.71875 61.234375 
Q 38.96875 64.796875 32.078125 64.796875 
z
M 9.8125 72.90625 
L 32.078125 72.90625 
Q 44.34375 72.90625 50.609375 67.359375 
Q 56.890625 61.8125 56.890625 51.125 
Q 56.890625 40.328125 50.609375 34.8125 
Q 44.34375 29.296875 32.078125 29.296875 
L 19.671875 29.296875 
L 19.671875 0 
L 9.8125 0 
z
" id="DejaVuSans-80"/>
       <path d="M 41.109375 46.296875 
Q 39.59375 47.171875 37.8125 47.578125 
Q 36.03125 48 33.890625 48 
Q 26.265625 48 22.1875 43.046875 
Q 18.109375 38.09375 18.109375 28.8125 
L 18.109375 0 
L 9.078125 0 
L 9.078125 54.6875 
L 18.109375 54.6875 
L 18.109375 46.1875 
Q 20.953125 51.171875 25.484375 53.578125 
Q 30.03125 56 36.53125 56 
Q 37.453125 56 38.578125 55.875 
Q 39.703125 55.765625 41.0625 55.515625 
z
" id="DejaVuSans-114"/>
       <path d="M 9.421875 54.6875 
L 18.40625 54.6875 
L 18.40625 0 
L 9.421875 0 
z
M 9.421875 75.984375 
L 18.40625 75.984375 
L 18.40625 64.59375 
L 9.421875 64.59375 
z
" id="DejaVuSans-105"/>
       <path d="M 48.78125 52.59375 
L 48.78125 44.1875 
Q 44.96875 46.296875 41.140625 47.34375 
Q 37.3125 48.390625 33.40625 48.390625 
Q 24.65625 48.390625 19.8125 42.84375 
Q 14.984375 37.3125 14.984375 27.296875 
Q 14.984375 17.28125 19.8125 11.734375 
Q 24.65625 6.203125 33.40625 6.203125 
Q 37.3125 6.203125 41.140625 7.25 
Q 44.96875 8.296875 48.78125 10.40625 
L 48.78125 2.09375 
Q 45.015625 0.34375 40.984375 -0.53125 
Q 36.96875 -1.421875 32.421875 -1.421875 
Q 20.0625 -1.421875 12.78125 6.34375 
Q 5.515625 14.109375 5.515625 27.296875 
Q 5.515625 40.671875 12.859375 48.328125 
Q 20.21875 56 33.015625 56 
Q 37.15625 56 41.109375 55.140625 
Q 45.0625 54.296875 48.78125 52.59375 
z
" id="DejaVuSans-99"/>
       <path d="M 56.203125 29.59375 
L 56.203125 25.203125 
L 14.890625 25.203125 
Q 15.484375 15.921875 20.484375 11.0625 
Q 25.484375 6.203125 34.421875 6.203125 
Q 39.59375 6.203125 44.453125 7.46875 
Q 49.3125 8.734375 54.109375 11.28125 
L 54.109375 2.78125 
Q 49.265625 0.734375 44.1875 -0.34375 
Q 39.109375 -1.421875 33.890625 -1.421875 
Q 20.796875 -1.421875 13.15625 6.1875 
Q 5.515625 13.8125 5.515625 26.8125 
Q 5.515625 40.234375 12.765625 48.109375 
Q 20.015625 56 32.328125 56 
Q 43.359375 56 49.78125 48.890625 
Q 56.203125 41.796875 56.203125 29.59375 
z
M 47.21875 32.234375 
Q 47.125 39.59375 43.09375 43.984375 
Q 39.0625 48.390625 32.421875 48.390625 
Q 24.90625 48.390625 20.390625 44.140625 
Q 15.875 39.890625 15.1875 32.171875 
z
" id="DejaVuSans-101"/>
       <path id="DejaVuSans-32"/>
       <path d="M 34.28125 27.484375 
Q 23.390625 27.484375 19.1875 25 
Q 14.984375 22.515625 14.984375 16.5 
Q 14.984375 11.71875 18.140625 8.90625 
Q 21.296875 6.109375 26.703125 6.109375 
Q 34.1875 6.109375 38.703125 11.40625 
Q 43.21875 16.703125 43.21875 25.484375 
L 43.21875 27.484375 
z
M 52.203125 31.203125 
L 52.203125 0 
L 43.21875 0 
L 43.21875 8.296875 
Q 40.140625 3.328125 35.546875 0.953125 
Q 30.953125 -1.421875 24.3125 -1.421875 
Q 15.921875 -1.421875 10.953125 3.296875 
Q 6 8.015625 6 15.921875 
Q 6 25.140625 12.171875 29.828125 
Q 18.359375 34.515625 30.609375 34.515625 
L 43.21875 34.515625 
L 43.21875 35.40625 
Q 43.21875 41.609375 39.140625 45 
Q 35.0625 48.390625 27.6875 48.390625 
Q 23 48.390625 18.546875 47.265625 
Q 14.109375 46.140625 10.015625 43.890625 
L 10.015625 52.203125 
Q 14.9375 54.109375 19.578125 55.046875 
Q 24.21875 56 28.609375 56 
Q 40.484375 56 46.34375 49.84375 
Q 52.203125 43.703125 52.203125 31.203125 
z
" id="DejaVuSans-97"/>
       <path d="M 45.40625 46.390625 
L 45.40625 75.984375 
L 54.390625 75.984375 
L 54.390625 0 
L 45.40625 0 
L 45.40625 8.203125 
Q 42.578125 3.328125 38.25 0.953125 
Q 33.9375 -1.421875 27.875 -1.421875 
Q 17.96875 -1.421875 11.734375 6.484375 
Q 5.515625 14.40625 5.515625 27.296875 
Q 5.515625 40.1875 11.734375 48.09375 
Q 17.96875 56 27.875 56 
Q 33.9375 56 38.25 53.625 
Q 42.578125 51.265625 45.40625 46.390625 
z
M 14.796875 27.296875 
Q 14.796875 17.390625 18.875 11.75 
Q 22.953125 6.109375 30.078125 6.109375 
Q 37.203125 6.109375 41.296875 11.75 
Q 45.40625 17.390625 45.40625 27.296875 
Q 45.40625 37.203125 41.296875 42.84375 
Q 37.203125 48.484375 30.078125 48.484375 
Q 22.953125 48.484375 18.875 42.84375 
Q 14.796875 37.203125 14.796875 27.296875 
z
" id="DejaVuSans-100"/>
      </defs>
      <use xlink:href="#DejaVuSans-80"/>
      <use x="58.552734" xlink:href="#DejaVuSans-114"/>
      <use x="99.666016" xlink:href="#DejaVuSans-105"/>
      <use x="127.449219" xlink:href="#DejaVuSans-99"/>
      <use x="182.429688" xlink:href="#DejaVuSans-101"/>
      <use x="243.953125" xlink:href="#DejaVuSans-32"/>
      <use x="275.740234" xlink:href="#DejaVuSans-80"/>
      <use x="331.542969" xlink:href="#DejaVuSans-97"/>
      <use x="392.822266" xlink:href="#DejaVuSans-105"/>
      <use x="420.605469" xlink:href="#DejaVuSans-100"/>
     </g>
    </g>
   </g>
   <g id="matplotlib.axis_2">
    <g id="ytick_1">
     <g id="line2d_35">
      <path clip-path="url(#p3dd9829a07)" d="M 90 378 
L 648 378 
" style="fill:none;stroke:#b0b0b0;stroke-linecap:square;stroke-width:0.8;"/>
     </g>
     <g id="line2d_36">
      <defs>
       <path d="M 0 0 
L -3.5 0 
" id="m4e3277ed04" style="stroke:#000000;stroke-width:0.8;"/>
      </defs>
      <g>
       <use style="stroke:#000000;stroke-width:0.8;" x="90" xlink:href="#m4e3277ed04" y="378"/>
      </g>
     </g>
     <g id="text_6">
      <!-- $\mathdefault{10^{-1}}$ -->
      <g transform="translate(59.5 381.799219)scale(0.1 -0.1)">
       <defs>
        <path d="M 10.59375 35.5 
L 73.1875 35.5 
L 73.1875 27.203125 
L 10.59375 27.203125 
z
" id="DejaVuSans-8722"/>
       </defs>
       <use transform="translate(0 0.684375)" xlink:href="#DejaVuSans-49"/>
       <use transform="translate(63.623047 0.684375)" xlink:href="#DejaVuSans-48"/>
       <use transform="translate(128.203125 38.965625)scale(0.7)" xlink:href="#DejaVuSans-8722"/>
       <use transform="translate(186.855469 38.965625)scale(0.7)" xlink:href="#DejaVuSans-49"/>
      </g>
     </g>
    </g>
    <g id="ytick_2">
     <g id="line2d_37">
      <path clip-path="url(#p3dd9829a07)" d="M 90 279.194476 
L 648 279.194476 
" style="fill:none;stroke:#b0b0b0;stroke-linecap:square;stroke-width:0.8;"/>
     </g>
     <g id="line2d_38">
      <g>
       <use style="stroke:#000000;stroke-width:0.8;" x="90" xlink:href="#m4e3277ed04" y="279.194476"/>
      </g>
     </g>
     <g id="text_7">
      <!-- $\mathdefault{10^{0}}$ -->
      <g transform="translate(65.4 282.993694)scale(0.1 -0.1)">
       <use transform="translate(0 0.765625)" xlink:href="#DejaVuSans-49"/>
       <use transform="translate(63.623047 0.765625)" xlink:href="#DejaVuSans-48"/>
       <use transform="translate(128.203125 39.046875)scale(0.7)" xlink:href="#DejaVuSans-48"/>
      </g>
     </g>
    </g>
    <g id="ytick_3">
     <g id="line2d_39">
      <path clip-path="url(#p3dd9829a07)" d="M 90 180.388951 
L 648 180.388951 
" style="fill:none;stroke:#b0b0b0;stroke-linecap:square;stroke-width:0.8;"/>
     </g>
     <g id="line2d_40">
      <g>
       <use style="stroke:#000000;stroke-width:0.8;" x="90" xlink:href="#m4e3277ed04" y="180.388951"/>
      </g>
     </g>
     <g id="text_8">
      <!-- $\mathdefault{10^{1}}$ -->
      <g transform="translate(65.4 184.18817)scale(0.1 -0.1)">
       <use transform="translate(0 0.684375)" xlink:href="#DejaVuSans-49"/>
       <use transform="translate(63.623047 0.684375)" xlink:href="#DejaVuSans-48"/>
       <use transform="translate(128.203125 38.965625)scale(0.7)" xlink:href="#DejaVuSans-49"/>
      </g>
     </g>
    </g>
    <g id="ytick_4">
     <g id="line2d_41">
      <path clip-path="url(#p3dd9829a07)" d="M 90 81.583427 
L 648 81.583427 
" style="fill:none;stroke:#b0b0b0;stroke-linecap:square;stroke-width:0.8;"/>
     </g>
     <g id="line2d_42">
      <g>
       <use style="stroke:#000000;stroke-width:0.8;" x="90" xlink:href="#m4e3277ed04" y="81.583427"/>
      </g>
     </g>
     <g id="text_9">
      <!-- $\mathdefault{10^{2}}$ -->
      <g transform="translate(65.4 85.382645)scale(0.1 -0.1)">
       <use transform="translate(0 0.765625)" xlink:href="#DejaVuSans-49"/>
       <use transform="translate(63.623047 0.765625)" xlink:href="#DejaVuSans-48"/>
       <use transform="translate(128.203125 39.046875)scale(0.7)" xlink:href="#DejaVuSans-50"/>
      </g>
     </g>
    </g>
    <g id="ytick_5">
     <g id="line2d_43">
      <defs>
       <path d="M 0 0 
L -2 0 
" id="m8b02dde96c" style="stroke:#000000;stroke-width:0.6;"/>
      </defs>
      <g>
       <use style="stroke:#000000;stroke-width:0.6;" x="90" xlink:href="#m8b02dde96c" y="348.256573"/>
      </g>
     </g>
    </g>
    <g id="ytick_6">
     <g id="line2d_44">
      <g>
       <use style="stroke:#000000;stroke-width:0.6;" x="90" xlink:href="#m8b02dde96c" y="330.857784"/>
      </g>
     </g>
    </g>
    <g id="ytick_7">
     <g id="line2d_45">
      <g>
       <use style="stroke:#000000;stroke-width:0.6;" x="90" xlink:href="#m8b02dde96c" y="318.513147"/>
      </g>
     </g>
    </g>
    <g id="ytick_8">
     <g id="line2d_46">
      <g>
       <use style="stroke:#000000;stroke-width:0.6;" x="90" xlink:href="#m8b02dde96c" y="308.937902"/>
      </g>
     </g>
    </g>
    <g id="ytick_9">
     <g id="line2d_47">
      <g>
       <use style="stroke:#000000;stroke-width:0.6;" x="90" xlink:href="#m8b02dde96c" y="301.114358"/>
      </g>
     </g>
    </g>
    <g id="ytick_10">
     <g id="line2d_48">
      <g>
       <use style="stroke:#000000;stroke-width:0.6;" x="90" xlink:href="#m8b02dde96c" y="294.499645"/>
      </g>
     </g>
    </g>
    <g id="ytick_11">
     <g id="line2d_49">
      <g>
       <use style="stroke:#000000;stroke-width:0.6;" x="90" xlink:href="#m8b02dde96c" y="288.76972"/>
      </g>
     </g>
    </g>
    <g id="ytick_12">
     <g id="line2d_50">
      <g>
       <use style="stroke:#000000;stroke-width:0.6;" x="90" xlink:href="#m8b02dde96c" y="283.715568"/>
      </g>
     </g>
    </g>
    <g id="ytick_13">
     <g id="line2d_51">
      <g>
       <use style="stroke:#000000;stroke-width:0.6;" x="90" xlink:href="#m8b02dde96c" y="249.451049"/>
      </g>
     </g>
    </g>
    <g id="ytick_14">
     <g id="line2d_52">
      <g>
       <use style="stroke:#000000;stroke-width:0.6;" x="90" xlink:href="#m8b02dde96c" y="232.05226"/>
      </g>
     </g>
    </g>
    <g id="ytick_15">
     <g id="line2d_53">
      <g>
       <use style="stroke:#000000;stroke-width:0.6;" x="90" xlink:href="#m8b02dde96c" y="219.707622"/>
      </g>
     </g>
    </g>
    <g id="ytick_16">
     <g id="line2d_54">
      <g>
       <use style="stroke:#000000;stroke-width:0.6;" x="90" xlink:href="#m8b02dde96c" y="210.132378"/>
      </g>
     </g>
    </g>
    <g id="ytick_17">
     <g id="line2d_55">
      <g>
       <use style="stroke:#000000;stroke-width:0.6;" x="90" xlink:href="#m8b02dde96c" y="202.308833"/>
      </g>
     </g>
    </g>
    <g id="ytick_18">
     <g id="line2d_56">
      <g>
       <use style="stroke:#000000;stroke-width:0.6;" x="90" xlink:href="#m8b02dde96c" y="195.69412"/>
      </g>
     </g>
    </g>
    <g id="ytick_19">
     <g id="line2d_57">
      <g>
       <use style="stroke:#000000;stroke-width:0.6;" x="90" xlink:href="#m8b02dde96c" y="189.964196"/>
      </g>
     </g>
    </g>
    <g id="ytick_20">
     <g id="line2d_58">
      <g>
       <use style="stroke:#000000;stroke-width:0.6;" x="90" xlink:href="#m8b02dde96c" y="184.910044"/>
      </g>
     </g>
    </g>
    <g id="ytick_21">
     <g id="line2d_59">
      <g>
       <use style="stroke:#000000;stroke-width:0.6;" x="90" xlink:href="#m8b02dde96c" y="150.645524"/>
      </g>
     </g>
    </g>
    <g id="ytick_22">
     <g id="line2d_60">
      <g>
       <use style="stroke:#000000;stroke-width:0.6;" x="90" xlink:href="#m8b02dde96c" y="133.246735"/>
      </g>
     </g>
    </g>
    <g id="ytick_23">
     <g id="line2d_61">
      <g>
       <use style="stroke:#000000;stroke-width:0.6;" x="90" xlink:href="#m8b02dde96c" y="120.902098"/>
      </g>
     </g>
    </g>
    <g id="ytick_24">
     <g id="line2d_62">
      <g>
       <use style="stroke:#000000;stroke-width:0.6;" x="90" xlink:href="#m8b02dde96c" y="111.326853"/>
      </g>
     </g>
    </g>
    <g id="ytick_25">
     <g id="line2d_63">
      <g>
       <use style="stroke:#000000;stroke-width:0.6;" x="90" xlink:href="#m8b02dde96c" y="103.503309"/>
      </g>
     </g>
    </g>
    <g id="ytick_26">
     <g id="line2d_64">
      <g>
       <use style="stroke:#000000;stroke-width:0.6;" x="90" xlink:href="#m8b02dde96c" y="96.888596"/>
      </g>
     </g>
    </g>
    <g id="ytick_27">
     <g id="line2d_65">
      <g>
       <use style="stroke:#000000;stroke-width:0.6;" x="90" xlink:href="#m8b02dde96c" y="91.158671"/>
      </g>
     </g>
    </g>
    <g id="ytick_28">
     <g id="line2d_66">
      <g>
       <use style="stroke:#000000;stroke-width:0.6;" x="90" xlink:href="#m8b02dde96c" y="86.104519"/>
      </g>
     </g>
    </g>
    <g id="ytick_29">
     <g id="line2d_67">
      <g>
       <use style="stroke:#000000;stroke-width:0.6;" x="90" xlink:href="#m8b02dde96c" y="51.84"/>
      </g>
     </g>
    </g>
    <g id="text_10">
     <!-- Average Pellet Count -->
     <g transform="translate(53.420312 267.204375)rotate(-90)scale(0.1 -0.1)">
      <defs>
       <path d="M 34.1875 63.1875 
L 20.796875 26.90625 
L 47.609375 26.90625 
z
M 28.609375 72.90625 
L 39.796875 72.90625 
L 67.578125 0 
L 57.328125 0 
L 50.6875 18.703125 
L 17.828125 18.703125 
L 11.1875 0 
L 0.78125 0 
z
" id="DejaVuSans-65"/>
       <path d="M 2.984375 54.6875 
L 12.5 54.6875 
L 29.59375 8.796875 
L 46.6875 54.6875 
L 56.203125 54.6875 
L 35.6875 0 
L 23.484375 0 
z
" id="DejaVuSans-118"/>
       <path d="M 45.40625 27.984375 
Q 45.40625 37.75 41.375 43.109375 
Q 37.359375 48.484375 30.078125 48.484375 
Q 22.859375 48.484375 18.828125 43.109375 
Q 14.796875 37.75 14.796875 27.984375 
Q 14.796875 18.265625 18.828125 12.890625 
Q 22.859375 7.515625 30.078125 7.515625 
Q 37.359375 7.515625 41.375 12.890625 
Q 45.40625 18.265625 45.40625 27.984375 
z
M 54.390625 6.78125 
Q 54.390625 -7.171875 48.1875 -13.984375 
Q 42 -20.796875 29.203125 -20.796875 
Q 24.46875 -20.796875 20.265625 -20.09375 
Q 16.0625 -19.390625 12.109375 -17.921875 
L 12.109375 -9.1875 
Q 16.0625 -11.328125 19.921875 -12.34375 
Q 23.78125 -13.375 27.78125 -13.375 
Q 36.625 -13.375 41.015625 -8.765625 
Q 45.40625 -4.15625 45.40625 5.171875 
L 45.40625 9.625 
Q 42.625 4.78125 38.28125 2.390625 
Q 33.9375 0 27.875 0 
Q 17.828125 0 11.671875 7.65625 
Q 5.515625 15.328125 5.515625 27.984375 
Q 5.515625 40.671875 11.671875 48.328125 
Q 17.828125 56 27.875 56 
Q 33.9375 56 38.28125 53.609375 
Q 42.625 51.21875 45.40625 46.390625 
L 45.40625 54.6875 
L 54.390625 54.6875 
z
" id="DejaVuSans-103"/>
       <path d="M 9.421875 75.984375 
L 18.40625 75.984375 
L 18.40625 0 
L 9.421875 0 
z
" id="DejaVuSans-108"/>
       <path d="M 18.3125 70.21875 
L 18.3125 54.6875 
L 36.8125 54.6875 
L 36.8125 47.703125 
L 18.3125 47.703125 
L 18.3125 18.015625 
Q 18.3125 11.328125 20.140625 9.421875 
Q 21.96875 7.515625 27.59375 7.515625 
L 36.8125 7.515625 
L 36.8125 0 
L 27.59375 0 
Q 17.1875 0 13.234375 3.875 
Q 9.28125 7.765625 9.28125 18.015625 
L 9.28125 47.703125 
L 2.6875 47.703125 
L 2.6875 54.6875 
L 9.28125 54.6875 
L 9.28125 70.21875 
z
" id="DejaVuSans-116"/>
       <path d="M 64.40625 67.28125 
L 64.40625 56.890625 
Q 59.421875 61.53125 53.78125 63.8125 
Q 48.140625 66.109375 41.796875 66.109375 
Q 29.296875 66.109375 22.65625 58.46875 
Q 16.015625 50.828125 16.015625 36.375 
Q 16.015625 21.96875 22.65625 14.328125 
Q 29.296875 6.6875 41.796875 6.6875 
Q 48.140625 6.6875 53.78125 8.984375 
Q 59.421875 11.28125 64.40625 15.921875 
L 64.40625 5.609375 
Q 59.234375 2.09375 53.4375 0.328125 
Q 47.65625 -1.421875 41.21875 -1.421875 
Q 24.65625 -1.421875 15.125 8.703125 
Q 5.609375 18.84375 5.609375 36.375 
Q 5.609375 53.953125 15.125 64.078125 
Q 24.65625 74.21875 41.21875 74.21875 
Q 47.75 74.21875 53.53125 72.484375 
Q 59.328125 70.75 64.40625 67.28125 
z
" id="DejaVuSans-67"/>
       <path d="M 30.609375 48.390625 
Q 23.390625 48.390625 19.1875 42.75 
Q 14.984375 37.109375 14.984375 27.296875 
Q 14.984375 17.484375 19.15625 11.84375 
Q 23.34375 6.203125 30.609375 6.203125 
Q 37.796875 6.203125 41.984375 11.859375 
Q 46.1875 17.53125 46.1875 27.296875 
Q 46.1875 37.015625 41.984375 42.703125 
Q 37.796875 48.390625 30.609375 48.390625 
z
M 30.609375 56 
Q 42.328125 56 49.015625 48.375 
Q 55.71875 40.765625 55.71875 27.296875 
Q 55.71875 13.875 49.015625 6.21875 
Q 42.328125 -1.421875 30.609375 -1.421875 
Q 18.84375 -1.421875 12.171875 6.21875 
Q 5.515625 13.875 5.515625 27.296875 
Q 5.515625 40.765625 12.171875 48.375 
Q 18.84375 56 30.609375 56 
z
" id="DejaVuSans-111"/>
       <path d="M 8.5 21.578125 
L 8.5 54.6875 
L 17.484375 54.6875 
L 17.484375 21.921875 
Q 17.484375 14.15625 20.5 10.265625 
Q 23.53125 6.390625 29.59375 6.390625 
Q 36.859375 6.390625 41.078125 11.03125 
Q 45.3125 15.671875 45.3125 23.6875 
L 45.3125 54.6875 
L 54.296875 54.6875 
L 54.296875 0 
L 45.3125 0 
L 45.3125 8.40625 
Q 42.046875 3.421875 37.71875 1 
Q 33.40625 -1.421875 27.6875 -1.421875 
Q 18.265625 -1.421875 13.375 4.4375 
Q 8.5 10.296875 8.5 21.578125 
z
M 31.109375 56 
z
" id="DejaVuSans-117"/>
       <path d="M 54.890625 33.015625 
L 54.890625 0 
L 45.90625 0 
L 45.90625 32.71875 
Q 45.90625 40.484375 42.875 44.328125 
Q 39.84375 48.1875 33.796875 48.1875 
Q 26.515625 48.1875 22.3125 43.546875 
Q 18.109375 38.921875 18.109375 30.90625 
L 18.109375 0 
L 9.078125 0 
L 9.078125 54.6875 
L 18.109375 54.6875 
L 18.109375 46.1875 
Q 21.34375 51.125 25.703125 53.5625 
Q 30.078125 56 35.796875 56 
Q 45.21875 56 50.046875 50.171875 
Q 54.890625 44.34375 54.890625 33.015625 
z
" id="DejaVuSans-110"/>
      </defs>
      <use xlink:href="#DejaVuSans-65"/>
      <use x="62.533203" xlink:href="#DejaVuSans-118"/>
      <use x="121.712891" xlink:href="#DejaVuSans-101"/>
      <use x="183.236328" xlink:href="#DejaVuSans-114"/>
      <use x="224.349609" xlink:href="#DejaVuSans-97"/>
      <use x="285.628906" xlink:href="#DejaVuSans-103"/>
      <use x="349.105469" xlink:href="#DejaVuSans-101"/>
      <use x="410.628906" xlink:href="#DejaVuSans-32"/>
      <use x="442.416016" xlink:href="#DejaVuSans-80"/>
      <use x="499.09375" xlink:href="#DejaVuSans-101"/>
      <use x="560.617188" xlink:href="#DejaVuSans-108"/>
      <use x="588.400391" xlink:href="#DejaVuSans-108"/>
      <use x="616.183594" xlink:href="#DejaVuSans-101"/>
      <use x="677.707031" xlink:href="#DejaVuSans-116"/>
      <use x="716.916016" xlink:href="#DejaVuSans-32"/>
      <use x="748.703125" xlink:href="#DejaVuSans-67"/>
      <use x="818.527344" xlink:href="#DejaVuSans-111"/>
      <use x="879.708984" xlink:href="#DejaVuSans-117"/>
      <use x="943.087891" xlink:href="#DejaVuSans-110"/>
      <use x="1006.466797" xlink:href="#DejaVuSans-116"/>
     </g>
    </g>
   </g>
   <g id="LineCollection_1">
    <path clip-path="url(#p3dd9829a07)" d="M 110.552582 103.467172 
L 110.552582 91.275341 
" style="fill:none;stroke:#000000;stroke-width:1.5;"/>
    <path clip-path="url(#p3dd9829a07)" d="M 164.481847 104.878504 
L 164.481847 92.951895 
" style="fill:none;stroke:#000000;stroke-width:1.5;"/>
    <path clip-path="url(#p3dd9829a07)" d="M 196.028445 138.650914 
L 196.028445 127.394844 
" style="fill:none;stroke:#000000;stroke-width:1.5;"/>
    <path clip-path="url(#p3dd9829a07)" d="M 218.411112 144.042534 
L 218.411112 133.716972 
" style="fill:none;stroke:#000000;stroke-width:1.5;"/>
    <path clip-path="url(#p3dd9829a07)" d="M 235.772457 149.592083 
L 235.772457 139.936086 
" style="fill:none;stroke:#000000;stroke-width:1.5;"/>
    <path clip-path="url(#p3dd9829a07)" d="M 249.957709 157.843957 
L 249.957709 149.05459 
" style="fill:none;stroke:#000000;stroke-width:1.5;"/>
    <path clip-path="url(#p3dd9829a07)" d="M 261.951169 166.57397 
L 261.951169 158.378504 
" style="fill:none;stroke:#000000;stroke-width:1.5;"/>
    <path clip-path="url(#p3dd9829a07)" d="M 281.504307 172.400315 
L 281.504307 164.090037 
" style="fill:none;stroke:#000000;stroke-width:1.5;"/>
    <path clip-path="url(#p3dd9829a07)" d="M 289.701722 178.521883 
L 289.701722 170.624323 
" style="fill:none;stroke:#000000;stroke-width:1.5;"/>
    <path clip-path="url(#p3dd9829a07)" d="M 303.886974 182.572843 
L 303.886974 174.405832 
" style="fill:none;stroke:#000000;stroke-width:1.5;"/>
    <path clip-path="url(#p3dd9829a07)" d="M 310.114575 186.234081 
L 310.114575 177.861099 
" style="fill:none;stroke:#000000;stroke-width:1.5;"/>
    <path clip-path="url(#p3dd9829a07)" d="M 321.248319 191.075117 
L 321.248319 181.676272 
" style="fill:none;stroke:#000000;stroke-width:1.5;"/>
    <path clip-path="url(#p3dd9829a07)" d="M 330.986448 194.108324 
L 330.986448 184.578514 
" style="fill:none;stroke:#000000;stroke-width:1.5;"/>
    <path clip-path="url(#p3dd9829a07)" d="M 343.630986 197.278708 
L 343.630986 188.624115 
" style="fill:none;stroke:#000000;stroke-width:1.5;"/>
    <path clip-path="url(#p3dd9829a07)" d="M 351.04645 203.44756 
L 351.04645 194.741557 
" style="fill:none;stroke:#000000;stroke-width:1.5;"/>
    <path clip-path="url(#p3dd9829a07)" d="M 360.992332 208.999849 
L 360.992332 197.5762 
" style="fill:none;stroke:#000000;stroke-width:1.5;"/>
    <path clip-path="url(#p3dd9829a07)" d="M 369.809698 213.123812 
L 369.809698 201.109754 
" style="fill:none;stroke:#000000;stroke-width:1.5;"/>
    <path clip-path="url(#p3dd9829a07)" d="M 380.198905 216.306214 
L 380.198905 203.492959 
" style="fill:none;stroke:#000000;stroke-width:1.5;"/>
    <path clip-path="url(#p3dd9829a07)" d="M 389.362836 223.597851 
L 389.362836 208.614617 
" style="fill:none;stroke:#000000;stroke-width:1.5;"/>
    <path clip-path="url(#p3dd9829a07)" d="M 397.560251 228.054945 
L 397.560251 212.722659 
" style="fill:none;stroke:#000000;stroke-width:1.5;"/>
    <path clip-path="url(#p3dd9829a07)" d="M 406.724181 228.054945 
L 406.724181 212.722659 
" style="fill:none;stroke:#000000;stroke-width:1.5;"/>
    <path clip-path="url(#p3dd9829a07)" d="M 414.921596 230.663764 
L 414.921596 215.60474 
" style="fill:none;stroke:#000000;stroke-width:1.5;"/>
    <path clip-path="url(#p3dd9829a07)" d="M 423.738963 233.036177 
L 423.738963 217.261216 
" style="fill:none;stroke:#000000;stroke-width:1.5;"/>
    <path clip-path="url(#p3dd9829a07)" d="M 431.658011 237.094215 
L 431.658011 221.542372 
" style="fill:none;stroke:#000000;stroke-width:1.5;"/>
    <path clip-path="url(#p3dd9829a07)" d="M 439.980814 246.125923 
L 439.980814 229.657395 
" style="fill:none;stroke:#000000;stroke-width:1.5;"/>
    <path clip-path="url(#p3dd9829a07)" d="M 448.515772 252.429814 
L 448.515772 235.000641 
" style="fill:none;stroke:#000000;stroke-width:1.5;"/>
    <path clip-path="url(#p3dd9829a07)" d="M 457.116315 263.928975 
L 457.116315 247.917919 
" style="fill:none;stroke:#000000;stroke-width:1.5;"/>
    <path clip-path="url(#p3dd9829a07)" d="M 464.860064 285.276012 
L 464.860064 262.794926 
" style="fill:none;stroke:#000000;stroke-width:1.5;"/>
    <path clip-path="url(#p3dd9829a07)" d="M 473.384385 292.969286 
L 473.384385 268.783462 
" style="fill:none;stroke:#000000;stroke-width:1.5;"/>
    <path clip-path="url(#p3dd9829a07)" d="M 481.728461 326.336691 
L 481.728461 279.194476 
" style="fill:none;stroke:#000000;stroke-width:1.5;"/>
    <path clip-path="url(#p3dd9829a07)" d="M 489.859912 316.761447 
L 489.859912 291.539113 
" style="fill:none;stroke:#000000;stroke-width:1.5;"/>
    <path clip-path="url(#p3dd9829a07)" d="M 497.7598 308.937902 
L 497.7598 308.937902 
" style="fill:none;stroke:#000000;stroke-width:1.5;"/>
    <path clip-path="url(#p3dd9829a07)" d="M 505.903538 338.681329 
L 505.903538 302.323189 
" style="fill:none;stroke:#000000;stroke-width:1.5;"/>
    <path clip-path="url(#p3dd9829a07)" d="M 513.713389 356.080118 
L 513.713389 356.080118 
" style="fill:none;stroke:#000000;stroke-width:1.5;"/>
    <path clip-path="url(#p3dd9829a07)" d="M 521.604232 356.080118 
L 521.604232 356.080118 
" style="fill:none;stroke:#000000;stroke-width:1.5;"/>
   </g>
   <g id="line2d_68">
    <path clip-path="url(#p3dd9829a07)" d="M 110.552582 104.958048 
L 164.481847 104.958048 
L 196.028445 136.207267 
L 218.411112 141.07028 
L 235.772457 142.82198 
L 249.957709 155.166617 
L 261.951169 160.220769 
L 281.504307 160.220769 
L 289.701722 165.950694 
L 303.886974 172.565407 
L 310.114575 172.565407 
L 321.248319 176.299125 
L 330.986448 180.388951 
L 343.630986 189.964196 
L 351.04645 195.69412 
L 360.992332 195.69412 
L 369.809698 195.69412 
L 380.198905 202.308833 
L 389.362836 210.132378 
L 397.560251 219.707622 
L 406.724181 219.707622 
L 414.921596 219.707622 
L 423.738963 210.132378 
L 431.658011 210.132378 
L 439.980814 210.132378 
L 448.515772 210.132378 
L 457.116315 232.05226 
L 464.860064 232.05226 
L 473.384385 232.05226 
L 481.728461 232.05226 
L 489.859912 232.05226 
L 497.7598 249.451049 
L 505.903538 249.451049 
" style="fill:none;stroke:#008000;stroke-linecap:square;stroke-opacity:0.3;"/>
   </g>
   <g id="line2d_69">
    <path clip-path="url(#p3dd9829a07)" d="M 110.552582 123.103129 
L 164.481847 123.103129 
L 196.028445 152.846555 
L 218.411112 152.846555 
L 235.772457 155.166617 
L 249.957709 155.166617 
L 261.951169 155.166617 
L 281.504307 157.619325 
L 289.701722 157.619325 
L 303.886974 157.619325 
L 310.114575 160.220769 
L 321.248319 162.990162 
L 330.986448 162.990162 
L 343.630986 169.130718 
L 351.04645 176.299125 
L 360.992332 176.299125 
L 369.809698 180.388951 
L 380.198905 180.388951 
L 389.362836 180.388951 
L 397.560251 184.910044 
L 406.724181 184.910044 
L 414.921596 189.964196 
L 423.738963 195.69412 
L 431.658011 202.308833 
L 439.980814 202.308833 
L 448.515772 210.132378 
L 457.116315 232.05226 
L 464.860064 279.194476 
L 473.384385 279.194476 
" style="fill:none;stroke:#008000;stroke-linecap:square;stroke-opacity:0.3;"/>
   </g>
   <g id="line2d_70">
    <path clip-path="url(#p3dd9829a07)" d="M 110.552582 83.335127 
L 164.481847 87.068845 
L 196.028445 130.477343 
L 218.411112 139.387292 
L 235.772457 144.648243 
L 249.957709 146.555699 
L 261.951169 162.990162 
L 281.504307 172.565407 
L 289.701722 176.299125 
L 303.886974 189.964196 
L 310.114575 195.69412 
L 321.248319 202.308833 
L 330.986448 210.132378 
L 343.630986 219.707622 
L 351.04645 232.05226 
L 360.992332 232.05226 
L 369.809698 232.05226 
L 380.198905 232.05226 
L 389.362836 232.05226 
L 397.560251 249.451049 
L 406.724181 249.451049 
L 414.921596 249.451049 
L 423.738963 279.194476 
L 431.658011 279.194476 
L 439.980814 279.194476 
L 448.515772 279.194476 
" style="fill:none;stroke:#008000;stroke-linecap:square;stroke-opacity:0.3;"/>
   </g>
   <g id="line2d_71">
    <path clip-path="url(#p3dd9829a07)" d="M 110.552582 83.335127 
L 164.481847 82.450339 
L 196.028445 113.98197 
L 218.411112 117.798768 
L 235.772457 120.902098 
L 249.957709 130.477343 
L 261.951169 142.82198 
L 281.504307 152.846555 
L 289.701722 160.220769 
L 303.886974 172.565407 
L 310.114575 172.565407 
L 321.248319 184.910044 
L 330.986448 184.910044 
L 343.630986 189.964196 
L 351.04645 202.308833 
L 360.992332 202.308833 
L 369.809698 202.308833 
L 380.198905 202.308833 
L 389.362836 210.132378 
L 397.560251 210.132378 
L 406.724181 210.132378 
L 414.921596 210.132378 
L 423.738963 210.132378 
L 431.658011 219.707622 
L 439.980814 219.707622 
L 448.515772 249.451049 
L 457.116315 279.194476 
L 464.860064 279.194476 
" style="fill:none;stroke:#008000;stroke-linecap:square;stroke-opacity:0.3;"/>
   </g>
   <g id="line2d_72">
    <path clip-path="url(#p3dd9829a07)" d="M 110.552582 155.166617 
L 164.481847 155.166617 
L 196.028445 184.910044 
L 218.411112 184.910044 
L 235.772457 184.910044 
L 249.957709 189.964196 
L 261.951169 189.964196 
L 281.504307 189.964196 
L 289.701722 189.964196 
L 303.886974 189.964196 
L 310.114575 195.69412 
L 321.248319 195.69412 
L 330.986448 195.69412 
L 343.630986 195.69412 
L 351.04645 195.69412 
L 360.992332 210.132378 
L 369.809698 210.132378 
L 380.198905 210.132378 
L 389.362836 210.132378 
L 397.560251 210.132378 
L 406.724181 210.132378 
L 414.921596 210.132378 
L 423.738963 210.132378 
L 431.658011 210.132378 
L 439.980814 219.707622 
L 448.515772 219.707622 
L 457.116315 232.05226 
L 464.860064 232.05226 
L 473.384385 249.451049 
L 481.728461 279.194476 
L 489.859912 249.451049 
L 497.7598 249.451049 
L 505.903538 249.451049 
L 513.713389 279.194476 
L 521.604232 279.194476 
" style="fill:none;stroke:#008000;stroke-linecap:square;stroke-opacity:0.3;"/>
   </g>
   <g id="line2d_73">
    <path clip-path="url(#p3dd9829a07)" d="M 110.552582 139.387292 
L 164.481847 139.387292 
L 196.028445 169.130718 
L 218.411112 169.130718 
L 235.772457 169.130718 
L 249.957709 169.130718 
L 261.951169 172.565407 
L 281.504307 172.565407 
L 289.701722 176.299125 
L 303.886974 176.299125 
L 310.114575 176.299125 
L 321.248319 176.299125 
L 330.986448 176.299125 
L 343.630986 176.299125 
L 351.04645 189.964196 
L 360.992332 189.964196 
L 369.809698 189.964196 
L 380.198905 189.964196 
L 389.362836 189.964196 
L 397.560251 189.964196 
L 406.724181 189.964196 
L 414.921596 189.964196 
L 423.738963 189.964196 
L 431.658011 195.69412 
L 439.980814 219.707622 
L 448.515772 219.707622 
L 457.116315 219.707622 
L 464.860064 232.05226 
L 473.384385 232.05226 
L 481.728461 232.05226 
L 489.859912 249.451049 
L 497.7598 249.451049 
L 505.903538 279.194476 
L 513.713389 279.194476 
L 521.604232 279.194476 
" style="fill:none;stroke:#008000;stroke-linecap:square;stroke-opacity:0.3;"/>
   </g>
   <g id="line2d_74">
    <path clip-path="url(#p3dd9829a07)" d="M 110.552582 114.904816 
L 164.481847 117.798768 
L 196.028445 150.645524 
L 218.411112 157.619325 
L 235.772457 162.990162 
L 249.957709 169.130718 
L 261.951169 176.299125 
L 281.504307 180.388951 
L 289.701722 184.910044 
L 303.886974 184.910044 
L 310.114575 184.910044 
L 321.248319 189.964196 
L 330.986448 189.964196 
L 343.630986 189.964196 
L 351.04645 189.964196 
L 360.992332 189.964196 
L 369.809698 210.132378 
L 380.198905 210.132378 
L 389.362836 232.05226 
L 397.560251 232.05226 
L 406.724181 232.05226 
L 414.921596 232.05226 
L 423.738963 232.05226 
L 431.658011 232.05226 
L 439.980814 232.05226 
L 448.515772 232.05226 
L 457.116315 232.05226 
L 464.860064 279.194476 
L 473.384385 279.194476 
" style="fill:none;stroke:#008000;stroke-linecap:square;stroke-opacity:0.3;"/>
   </g>
   <g id="line2d_75">
    <path clip-path="url(#p3dd9829a07)" d="M 110.552582 80.733682 
L 164.481847 84.697485 
L 196.028445 123.103129 
L 218.411112 136.207267 
L 235.772457 144.648243 
L 249.957709 152.846555 
L 261.951169 169.130718 
L 281.504307 176.299125 
L 289.701722 184.910044 
L 303.886974 189.964196 
L 310.114575 189.964196 
L 321.248319 202.308833 
L 330.986448 202.308833 
L 343.630986 202.308833 
L 351.04645 210.132378 
L 360.992332 232.05226 
L 369.809698 232.05226 
L 380.198905 249.451049 
L 389.362836 279.194476 
L 397.560251 279.194476 
L 406.724181 279.194476 
" style="fill:none;stroke:#008000;stroke-linecap:square;stroke-opacity:0.3;"/>
   </g>
   <g id="line2d_76">
    <path clip-path="url(#p3dd9829a07)" d="M 110.552582 113.078553 
L 164.481847 113.078553 
L 196.028445 142.82198 
L 218.411112 142.82198 
L 235.772457 144.648243 
L 249.957709 146.555699 
L 261.951169 148.551905 
L 281.504307 150.645524 
L 289.701722 157.619325 
L 303.886974 157.619325 
L 310.114575 165.950694 
L 321.248319 165.950694 
L 330.986448 176.299125 
L 343.630986 184.910044 
L 351.04645 184.910044 
L 360.992332 184.910044 
L 369.809698 184.910044 
L 380.198905 189.964196 
L 389.362836 202.308833 
L 397.560251 219.707622 
L 406.724181 219.707622 
L 414.921596 219.707622 
L 423.738963 232.05226 
L 431.658011 232.05226 
L 439.980814 232.05226 
L 448.515772 249.451049 
L 457.116315 249.451049 
L 464.860064 279.194476 
L 473.384385 279.194476 
L 481.728461 279.194476 
" style="fill:none;stroke:#008000;stroke-linecap:square;stroke-opacity:0.3;"/>
   </g>
   <g id="line2d_77">
    <path clip-path="url(#p3dd9829a07)" d="M 110.552582 77.493601 
L 164.481847 77.493601 
L 196.028445 110.477109 
L 218.411112 120.902098 
L 235.772457 131.839701 
L 249.957709 152.846555 
L 261.951169 172.565407 
L 281.504307 180.388951 
L 289.701722 180.388951 
L 303.886974 189.964196 
L 310.114575 195.69412 
L 321.248319 195.69412 
L 330.986448 202.308833 
L 343.630986 202.308833 
L 351.04645 210.132378 
L 360.992332 232.05226 
L 369.809698 232.05226 
L 380.198905 232.05226 
L 389.362836 249.451049 
L 397.560251 249.451049 
L 406.724181 249.451049 
L 414.921596 249.451049 
L 423.738963 249.451049 
L 431.658011 279.194476 
" style="fill:none;stroke:#008000;stroke-linecap:square;stroke-opacity:0.3;"/>
   </g>
   <g id="line2d_78">
    <path clip-path="url(#p3dd9829a07)" d="M 110.552582 85.161389 
L 164.481847 86.583974 
L 196.028445 119.842521 
L 218.411112 121.988503 
L 235.772457 126.632023 
L 249.957709 136.207267 
L 261.951169 146.555699 
L 281.504307 155.166617 
L 289.701722 180.388951 
L 303.886974 184.910044 
L 310.114575 195.69412 
L 321.248319 202.308833 
L 330.986448 210.132378 
L 343.630986 210.132378 
L 351.04645 219.707622 
L 360.992332 232.05226 
L 369.809698 249.451049 
L 380.198905 249.451049 
L 389.362836 249.451049 
L 397.560251 249.451049 
L 406.724181 249.451049 
L 414.921596 249.451049 
L 423.738963 249.451049 
L 431.658011 249.451049 
L 439.980814 279.194476 
L 448.515772 279.194476 
L 457.116315 279.194476 
L 464.860064 279.194476 
L 473.384385 279.194476 
" style="fill:none;stroke:#008000;stroke-linecap:square;stroke-opacity:0.3;"/>
   </g>
   <g id="line2d_79">
    <path clip-path="url(#p3dd9829a07)" d="M 110.552582 77.885482 
L 164.481847 81.583427 
L 196.028445 117.798768 
L 218.411112 126.632023 
L 235.772457 144.648243 
L 249.957709 165.950694 
L 261.951169 176.299125 
L 281.504307 195.69412 
L 289.701722 202.308833 
L 303.886974 195.69412 
L 310.114575 202.308833 
L 321.248319 210.132378 
L 330.986448 210.132378 
L 343.630986 210.132378 
L 351.04645 210.132378 
L 360.992332 210.132378 
L 369.809698 219.707622 
L 380.198905 232.05226 
L 389.362836 232.05226 
L 397.560251 232.05226 
L 406.724181 232.05226 
L 414.921596 249.451049 
L 423.738963 249.451049 
L 431.658011 249.451049 
L 439.980814 279.194476 
L 448.515772 279.194476 
L 457.116315 279.194476 
" style="fill:none;stroke:#008000;stroke-linecap:square;stroke-opacity:0.3;"/>
   </g>
   <g id="line2d_80">
    <defs>
     <path d="M 3 0 
L -3 -0 
" id="m9779181d44" style="stroke:#000000;"/>
    </defs>
    <g clip-path="url(#p3dd9829a07)">
     <use style="stroke:#000000;" x="110.552582" xlink:href="#m9779181d44" y="103.467172"/>
     <use style="stroke:#000000;" x="164.481847" xlink:href="#m9779181d44" y="104.878504"/>
     <use style="stroke:#000000;" x="196.028445" xlink:href="#m9779181d44" y="138.650914"/>
     <use style="stroke:#000000;" x="218.411112" xlink:href="#m9779181d44" y="144.042534"/>
     <use style="stroke:#000000;" x="235.772457" xlink:href="#m9779181d44" y="149.592083"/>
     <use style="stroke:#000000;" x="249.957709" xlink:href="#m9779181d44" y="157.843957"/>
     <use style="stroke:#000000;" x="261.951169" xlink:href="#m9779181d44" y="166.57397"/>
     <use style="stroke:#000000;" x="281.504307" xlink:href="#m9779181d44" y="172.400315"/>
     <use style="stroke:#000000;" x="289.701722" xlink:href="#m9779181d44" y="178.521883"/>
     <use style="stroke:#000000;" x="303.886974" xlink:href="#m9779181d44" y="182.572843"/>
     <use style="stroke:#000000;" x="310.114575" xlink:href="#m9779181d44" y="186.234081"/>
     <use style="stroke:#000000;" x="321.248319" xlink:href="#m9779181d44" y="191.075117"/>
     <use style="stroke:#000000;" x="330.986448" xlink:href="#m9779181d44" y="194.108324"/>
     <use style="stroke:#000000;" x="343.630986" xlink:href="#m9779181d44" y="197.278708"/>
     <use style="stroke:#000000;" x="351.04645" xlink:href="#m9779181d44" y="203.44756"/>
     <use style="stroke:#000000;" x="360.992332" xlink:href="#m9779181d44" y="208.999849"/>
     <use style="stroke:#000000;" x="369.809698" xlink:href="#m9779181d44" y="213.123812"/>
     <use style="stroke:#000000;" x="380.198905" xlink:href="#m9779181d44" y="216.306214"/>
     <use style="stroke:#000000;" x="389.362836" xlink:href="#m9779181d44" y="223.597851"/>
     <use style="stroke:#000000;" x="397.560251" xlink:href="#m9779181d44" y="228.054945"/>
     <use style="stroke:#000000;" x="406.724181" xlink:href="#m9779181d44" y="228.054945"/>
     <use style="stroke:#000000;" x="414.921596" xlink:href="#m9779181d44" y="230.663764"/>
     <use style="stroke:#000000;" x="423.738963" xlink:href="#m9779181d44" y="233.036177"/>
     <use style="stroke:#000000;" x="431.658011" xlink:href="#m9779181d44" y="237.094215"/>
     <use style="stroke:#000000;" x="439.980814" xlink:href="#m9779181d44" y="246.125923"/>
     <use style="stroke:#000000;" x="448.515772" xlink:href="#m9779181d44" y="252.429814"/>
     <use style="stroke:#000000;" x="457.116315" xlink:href="#m9779181d44" y="263.928975"/>
     <use style="stroke:#000000;" x="464.860064" xlink:href="#m9779181d44" y="285.276012"/>
     <use style="stroke:#000000;" x="473.384385" xlink:href="#m9779181d44" y="292.969286"/>
     <use style="stroke:#000000;" x="481.728461" xlink:href="#m9779181d44" y="326.336691"/>
     <use style="stroke:#000000;" x="489.859912" xlink:href="#m9779181d44" y="316.761447"/>
     <use style="stroke:#000000;" x="497.7598" xlink:href="#m9779181d44" y="308.937902"/>
     <use style="stroke:#000000;" x="505.903538" xlink:href="#m9779181d44" y="338.681329"/>
     <use style="stroke:#000000;" x="513.713389" xlink:href="#m9779181d44" y="356.080118"/>
     <use style="stroke:#000000;" x="521.604232" xlink:href="#m9779181d44" y="356.080118"/>
    </g>
   </g>
   <g id="line2d_81">
    <g clip-path="url(#p3dd9829a07)">
     <use style="stroke:#000000;" x="110.552582" xlink:href="#m9779181d44" y="91.275341"/>
     <use style="stroke:#000000;" x="164.481847" xlink:href="#m9779181d44" y="92.951895"/>
     <use style="stroke:#000000;" x="196.028445" xlink:href="#m9779181d44" y="127.394844"/>
     <use style="stroke:#000000;" x="218.411112" xlink:href="#m9779181d44" y="133.716972"/>
     <use style="stroke:#000000;" x="235.772457" xlink:href="#m9779181d44" y="139.936086"/>
     <use style="stroke:#000000;" x="249.957709" xlink:href="#m9779181d44" y="149.05459"/>
     <use style="stroke:#000000;" x="261.951169" xlink:href="#m9779181d44" y="158.378504"/>
     <use style="stroke:#000000;" x="281.504307" xlink:href="#m9779181d44" y="164.090037"/>
     <use style="stroke:#000000;" x="289.701722" xlink:href="#m9779181d44" y="170.624323"/>
     <use style="stroke:#000000;" x="303.886974" xlink:href="#m9779181d44" y="174.405832"/>
     <use style="stroke:#000000;" x="310.114575" xlink:href="#m9779181d44" y="177.861099"/>
     <use style="stroke:#000000;" x="321.248319" xlink:href="#m9779181d44" y="181.676272"/>
     <use style="stroke:#000000;" x="330.986448" xlink:href="#m9779181d44" y="184.578514"/>
     <use style="stroke:#000000;" x="343.630986" xlink:href="#m9779181d44" y="188.624115"/>
     <use style="stroke:#000000;" x="351.04645" xlink:href="#m9779181d44" y="194.741557"/>
     <use style="stroke:#000000;" x="360.992332" xlink:href="#m9779181d44" y="197.5762"/>
     <use style="stroke:#000000;" x="369.809698" xlink:href="#m9779181d44" y="201.109754"/>
     <use style="stroke:#000000;" x="380.198905" xlink:href="#m9779181d44" y="203.492959"/>
     <use style="stroke:#000000;" x="389.362836" xlink:href="#m9779181d44" y="208.614617"/>
     <use style="stroke:#000000;" x="397.560251" xlink:href="#m9779181d44" y="212.722659"/>
     <use style="stroke:#000000;" x="406.724181" xlink:href="#m9779181d44" y="212.722659"/>
     <use style="stroke:#000000;" x="414.921596" xlink:href="#m9779181d44" y="215.60474"/>
     <use style="stroke:#000000;" x="423.738963" xlink:href="#m9779181d44" y="217.261216"/>
     <use style="stroke:#000000;" x="431.658011" xlink:href="#m9779181d44" y="221.542372"/>
     <use style="stroke:#000000;" x="439.980814" xlink:href="#m9779181d44" y="229.657395"/>
     <use style="stroke:#000000;" x="448.515772" xlink:href="#m9779181d44" y="235.000641"/>
     <use style="stroke:#000000;" x="457.116315" xlink:href="#m9779181d44" y="247.917919"/>
     <use style="stroke:#000000;" x="464.860064" xlink:href="#m9779181d44" y="262.794926"/>
     <use style="stroke:#000000;" x="473.384385" xlink:href="#m9779181d44" y="268.783462"/>
     <use style="stroke:#000000;" x="481.728461" xlink:href="#m9779181d44" y="279.194476"/>
     <use style="stroke:#000000;" x="489.859912" xlink:href="#m9779181d44" y="291.539113"/>
     <use style="stroke:#000000;" x="497.7598" xlink:href="#m9779181d44" y="308.937902"/>
     <use style="stroke:#000000;" x="505.903538" xlink:href="#m9779181d44" y="302.323189"/>
     <use style="stroke:#000000;" x="513.713389" xlink:href="#m9779181d44" y="356.080118"/>
     <use style="stroke:#000000;" x="521.604232" xlink:href="#m9779181d44" y="356.080118"/>
    </g>
   </g>
   <g id="line2d_82">
    <path clip-path="url(#p3dd9829a07)" d="M 110.552582 153.178702 
L 175.728268 153.635995 
L 210.689296 154.098214 
L 244.431677 154.801013 
L 267.889426 155.515515 
L 291.068766 156.487077 
L 308.904229 157.481146 
L 323.403962 158.498791 
L 335.621276 159.541158 
L 348.607571 160.880765 
L 359.733178 162.263544 
L 369.465084 163.69237 
L 378.113913 165.170416 
L 385.896777 166.701196 
L 392.971412 168.28861 
L 399.456031 169.937011 
L 405.441517 171.651274 
L 410.999246 173.436881 
L 416.186302 175.300029 
L 421.049052 177.24776 
L 425.625673 179.28812 
L 429.947975 181.430362 
L 434.042741 183.685197 
L 437.932733 186.065121 
L 441.637461 188.584831 
L 445.173771 191.26178 
L 448.556314 194.116904 
L 451.797906 197.175626 
L 454.909825 200.469226 
L 457.312739 203.299162 
L 459.643658 206.328991 
L 461.906772 209.589113 
L 464.105914 213.117437 
L 466.244601 216.962081 
L 468.326068 221.185396 
L 470.353298 225.870209 
L 472.329046 231.129893 
L 473.778612 235.546271 
L 475.201665 240.469889 
L 476.599157 246.032564 
L 477.971989 252.425288 
L 479.321017 259.939964 
L 480.647053 269.056035 
L 481.518685 276.425268 
L 482.38066 285.327938 
L 483.233191 296.574527 
L 484.076481 311.858079 
L 484.494723 322.186869 
L 484.910728 335.817588 
L 485.324521 355.910293 
L 485.736125 394.928377 
L 485.736283 433 
L 485.736283 433 
" style="fill:none;stroke:#000000;stroke-dasharray:7.4,3.2;stroke-dashoffset:0;stroke-width:2;"/>
   </g>
   <g id="line2d_83">
    <path clip-path="url(#p3dd9829a07)" d="M 110.552582 96.939711 
L 149.774422 92.764208 
L 175.728268 107.17402 
L 195.156199 131.580158 
L 210.689296 140.036483 
L 223.631404 138.855476 
L 234.724583 143.856961 
L 244.431677 149.667646 
L 253.060909 155.514756 
L 260.827904 161.532317 
L 267.889426 164.988855 
L 274.363028 166.19181 
L 280.339126 167.516532 
L 285.888761 171.190386 
L 291.068766 175.294635 
L 295.92532 177.077964 
L 300.496452 177.604746 
L 304.813858 178.665943 
L 312.790256 183.29581 
L 316.491386 184.75349 
L 326.6428 187.790207 
L 329.75218 188.744229 
L 332.742057 189.491831 
L 338.397737 190.673682 
L 341.078523 191.495365 
L 343.670008 192.757432 
L 346.177952 194.602988 
L 350.963611 198.809471 
L 353.250398 200.327815 
L 355.471886 201.336703 
L 359.733178 202.552663 
L 361.779383 203.170173 
L 363.773149 203.959777 
L 369.465084 206.562459 
L 371.273476 207.198662 
L 374.768846 208.045404 
L 378.113913 208.763975 
L 379.734016 209.250456 
L 381.321071 209.914372 
L 382.876399 210.756354 
L 385.896777 212.807826 
L 391.607014 217.024779 
L 394.312295 218.566755 
L 395.63046 219.137263 
L 396.926663 219.558076 
L 398.201625 219.819485 
L 400.690533 219.941486 
L 406.585277 219.694739 
L 408.823559 220.118697 
L 410.999246 220.872984 
L 415.176187 222.565894 
L 417.18347 223.141733 
L 420.100512 223.710976 
L 423.827199 224.451259 
L 425.625673 225.031812 
L 427.383512 225.79999 
L 429.102511 226.760548 
L 430.78435 227.92087 
L 432.430602 229.289923 
L 434.836454 231.666 
L 440.176669 237.284202 
L 441.637461 238.476686 
L 443.778475 239.888661 
L 447.891468 242.365325 
L 449.215527 243.429762 
L 450.51743 244.725453 
L 451.797906 246.244535 
L 453.679952 248.922062 
L 455.517546 252.050269 
L 457.312739 255.591217 
L 459.643658 260.820309 
L 464.105914 271.158793 
L 465.182605 273.123345 
L 466.244601 274.632731 
L 467.292295 275.734089 
L 468.326068 276.507261 
L 469.851421 277.264903 
L 471.839793 278.100611 
L 472.815242 278.707537 
L 473.778612 279.607055 
L 474.7302 280.856805 
L 475.67029 282.418167 
L 477.059464 285.242303 
L 478.873935 289.614107 
L 481.518685 296.145059 
L 482.808093 298.579209 
L 483.655978 299.766856 
L 484.494723 300.641108 
L 485.324521 301.245071 
L 486.145563 301.630723 
L 487.361106 301.927953 
L 490.12563 302.41105 
L 491.281002 302.96912 
L 492.419468 303.764107 
L 493.911964 305.088648 
L 498.573849 309.596317 
L 500.634757 310.974887 
L 502.64248 312.378017 
L 503.627241 313.29871 
L 504.599694 314.492554 
L 505.560142 316.072008 
L 506.508878 318.165947 
L 507.446185 320.830608 
L 508.372334 324.067255 
L 509.590296 329.288635 
L 510.789485 335.578419 
L 511.97047 342.968669 
L 513.421932 353.716442 
L 517.073693 382.876711 
L 517.620595 385.123353 
L 517.892611 385.703196 
L 518.16368 385.875066 
L 518.433807 385.617476 
L 518.703 384.921749 
L 519.238607 382.248987 
L 519.770552 378.042864 
L 520.561713 369.575668 
L 521.604232 356.080118 
L 521.604232 356.080118 
" style="fill:none;stroke:#008000;stroke-dasharray:7.4,3.2;stroke-dashoffset:0;stroke-width:2;"/>
   </g>
   <g id="line2d_84">
    <path clip-path="url(#p3dd9829a07)" d="M 110.552582 136.614916 
L 164.481847 139.64521 
L 196.028445 142.882874 
L 218.411112 146.351831 
L 235.772457 150.076891 
L 249.957709 154.080745 
L 261.951169 158.45456 
L 281.504307 166.320147 
L 289.701722 169.758787 
L 303.886974 176.227082 
L 310.114575 179.427971 
L 321.248319 183.928425 
L 330.986448 187.974774 
L 343.630986 193.446958 
L 351.04645 196.690117 
L 360.992332 201.003288 
L 369.809698 204.770633 
L 380.198905 209.468172 
L 389.362836 213.101364 
L 397.560251 216.28152 
L 406.724181 219.283102 
L 414.921596 222.241655 
L 423.738963 226.007574 
L 431.658011 230.081828 
L 439.980814 235.757518 
L 448.515772 243.535096 
L 457.116315 252.835996 
L 464.860064 262.475117 
L 473.384385 273.79703 
L 481.728461 284.901672 
L 489.859912 295.908903 
L 497.7598 307.553965 
L 505.903538 320.214112 
L 513.713389 339.090405 
L 521.604232 378.733274 
" style="fill:none;stroke:#800080;stroke-dasharray:7.4,3.2;stroke-dashoffset:0;stroke-width:2;"/>
   </g>
   <g id="line2d_85">
    <defs>
     <path d="M 0 3 
C 0.795609 3 1.55874 2.683901 2.12132 2.12132 
C 2.683901 1.55874 3 0.795609 3 0 
C 3 -0.795609 2.683901 -1.55874 2.12132 -2.12132 
C 1.55874 -2.683901 0.795609 -3 0 -3 
C -0.795609 -3 -1.55874 -2.683901 -2.12132 -2.12132 
C -2.683901 -1.55874 -3 -0.795609 -3 0 
C -3 0.795609 -2.683901 1.55874 -2.12132 2.12132 
C -1.55874 2.683901 -0.795609 3 0 3 
z
" id="m576ccb0131" style="stroke:#000000;"/>
    </defs>
    <g clip-path="url(#p3dd9829a07)">
     <use style="stroke:#000000;" x="110.552582" xlink:href="#m576ccb0131" y="96.939711"/>
     <use style="stroke:#000000;" x="164.481847" xlink:href="#m576ccb0131" y="98.502166"/>
     <use style="stroke:#000000;" x="196.028445" xlink:href="#m576ccb0131" y="132.654854"/>
     <use style="stroke:#000000;" x="218.411112" xlink:href="#m576ccb0131" y="138.569921"/>
     <use style="stroke:#000000;" x="235.772457" xlink:href="#m576ccb0131" y="144.49305"/>
     <use style="stroke:#000000;" x="249.957709" xlink:href="#m576ccb0131" y="153.224626"/>
     <use style="stroke:#000000;" x="261.951169" xlink:href="#m576ccb0131" y="162.280878"/>
     <use style="stroke:#000000;" x="281.504307" xlink:href="#m576ccb0131" y="168.044314"/>
     <use style="stroke:#000000;" x="289.701722" xlink:href="#m576ccb0131" y="174.391669"/>
     <use style="stroke:#000000;" x="303.886974" xlink:href="#m576ccb0131" y="178.295331"/>
     <use style="stroke:#000000;" x="310.114575" xlink:href="#m576ccb0131" y="181.84369"/>
     <use style="stroke:#000000;" x="321.248319" xlink:href="#m576ccb0131" y="186.118876"/>
     <use style="stroke:#000000;" x="330.986448" xlink:href="#m576ccb0131" y="189.079408"/>
     <use style="stroke:#000000;" x="343.630986" xlink:href="#m576ccb0131" y="192.733588"/>
     <use style="stroke:#000000;" x="351.04645" xlink:href="#m576ccb0131" y="198.874145"/>
     <use style="stroke:#000000;" x="360.992332" xlink:href="#m576ccb0131" y="202.908992"/>
     <use style="stroke:#000000;" x="369.809698" xlink:href="#m576ccb0131" y="206.69769"/>
     <use style="stroke:#000000;" x="380.198905" xlink:href="#m576ccb0131" y="209.423094"/>
     <use style="stroke:#000000;" x="389.362836" xlink:href="#m576ccb0131" y="215.455563"/>
     <use style="stroke:#000000;" x="397.560251" xlink:href="#m576ccb0131" y="219.707622"/>
     <use style="stroke:#000000;" x="406.724181" xlink:href="#m576ccb0131" y="219.707622"/>
     <use style="stroke:#000000;" x="414.921596" xlink:href="#m576ccb0131" y="222.477015"/>
     <use style="stroke:#000000;" x="423.738963" xlink:href="#m576ccb0131" y="224.427837"/>
     <use style="stroke:#000000;" x="431.658011" xlink:href="#m576ccb0131" y="228.617572"/>
     <use style="stroke:#000000;" x="439.980814" xlink:href="#m576ccb0131" y="237.106412"/>
     <use style="stroke:#000000;" x="448.515772" xlink:href="#m576ccb0131" y="242.836336"/>
     <use style="stroke:#000000;" x="457.116315" xlink:href="#m576ccb0131" y="255.180974"/>
     <use style="stroke:#000000;" x="464.860064" xlink:href="#m576ccb0131" y="272.579763"/>
     <use style="stroke:#000000;" x="473.384385" xlink:href="#m576ccb0131" y="279.194476"/>
     <use style="stroke:#000000;" x="481.728461" xlink:href="#m576ccb0131" y="296.593265"/>
     <use style="stroke:#000000;" x="489.859912" xlink:href="#m576ccb0131" y="302.323189"/>
     <use style="stroke:#000000;" x="497.7598" xlink:href="#m576ccb0131" y="308.937902"/>
     <use style="stroke:#000000;" x="505.903538" xlink:href="#m576ccb0131" y="316.761447"/>
     <use style="stroke:#000000;" x="513.713389" xlink:href="#m576ccb0131" y="356.080118"/>
     <use style="stroke:#000000;" x="521.604232" xlink:href="#m576ccb0131" y="356.080118"/>
    </g>
   </g>
   <g id="patch_3">
    <path d="M 90 378 
L 90 51.84 
" style="fill:none;stroke:#000000;stroke-linecap:square;stroke-linejoin:miter;stroke-width:0.8;"/>
   </g>
   <g id="patch_4">
    <path d="M 648 378 
L 648 51.84 
" style="fill:none;stroke:#000000;stroke-linecap:square;stroke-linejoin:miter;stroke-width:0.8;"/>
   </g>
   <g id="patch_5">
    <path d="M 90 378 
L 648 378 
" style="fill:none;stroke:#000000;stroke-linecap:square;stroke-linejoin:miter;stroke-width:0.8;"/>
   </g>
   <g id="patch_6">
    <path d="M 90 51.84 
L 648 51.84 
" style="fill:none;stroke:#000000;stroke-linecap:square;stroke-linejoin:miter;stroke-width:0.8;"/>
   </g>
   <g id="text_11">
    <!-- Average Pellet Count vs Price Paid by Subject -->
    <g transform="translate(233.11875 45.84)scale(0.12 -0.12)">
     <defs>
      <path d="M 44.28125 53.078125 
L 44.28125 44.578125 
Q 40.484375 46.53125 36.375 47.5 
Q 32.28125 48.484375 27.875 48.484375 
Q 21.1875 48.484375 17.84375 46.4375 
Q 14.5 44.390625 14.5 40.28125 
Q 14.5 37.15625 16.890625 35.375 
Q 19.28125 33.59375 26.515625 31.984375 
L 29.59375 31.296875 
Q 39.15625 29.25 43.1875 25.515625 
Q 47.21875 21.78125 47.21875 15.09375 
Q 47.21875 7.46875 41.1875 3.015625 
Q 35.15625 -1.421875 24.609375 -1.421875 
Q 20.21875 -1.421875 15.453125 -0.5625 
Q 10.6875 0.296875 5.421875 2 
L 5.421875 11.28125 
Q 10.40625 8.6875 15.234375 7.390625 
Q 20.0625 6.109375 24.8125 6.109375 
Q 31.15625 6.109375 34.5625 8.28125 
Q 37.984375 10.453125 37.984375 14.40625 
Q 37.984375 18.0625 35.515625 20.015625 
Q 33.0625 21.96875 24.703125 23.78125 
L 21.578125 24.515625 
Q 13.234375 26.265625 9.515625 29.90625 
Q 5.8125 33.546875 5.8125 39.890625 
Q 5.8125 47.609375 11.28125 51.796875 
Q 16.75 56 26.8125 56 
Q 31.78125 56 36.171875 55.265625 
Q 40.578125 54.546875 44.28125 53.078125 
z
" id="DejaVuSans-115"/>
      <path d="M 48.6875 27.296875 
Q 48.6875 37.203125 44.609375 42.84375 
Q 40.53125 48.484375 33.40625 48.484375 
Q 26.265625 48.484375 22.1875 42.84375 
Q 18.109375 37.203125 18.109375 27.296875 
Q 18.109375 17.390625 22.1875 11.75 
Q 26.265625 6.109375 33.40625 6.109375 
Q 40.53125 6.109375 44.609375 11.75 
Q 48.6875 17.390625 48.6875 27.296875 
z
M 18.109375 46.390625 
Q 20.953125 51.265625 25.265625 53.625 
Q 29.59375 56 35.59375 56 
Q 45.5625 56 51.78125 48.09375 
Q 58.015625 40.1875 58.015625 27.296875 
Q 58.015625 14.40625 51.78125 6.484375 
Q 45.5625 -1.421875 35.59375 -1.421875 
Q 29.59375 -1.421875 25.265625 0.953125 
Q 20.953125 3.328125 18.109375 8.203125 
L 18.109375 0 
L 9.078125 0 
L 9.078125 75.984375 
L 18.109375 75.984375 
z
" id="DejaVuSans-98"/>
      <path d="M 32.171875 -5.078125 
Q 28.375 -14.84375 24.75 -17.8125 
Q 21.140625 -20.796875 15.09375 -20.796875 
L 7.90625 -20.796875 
L 7.90625 -13.28125 
L 13.1875 -13.28125 
Q 16.890625 -13.28125 18.9375 -11.515625 
Q 21 -9.765625 23.484375 -3.21875 
L 25.09375 0.875 
L 2.984375 54.6875 
L 12.5 54.6875 
L 29.59375 11.921875 
L 46.6875 54.6875 
L 56.203125 54.6875 
z
" id="DejaVuSans-121"/>
      <path d="M 53.515625 70.515625 
L 53.515625 60.890625 
Q 47.90625 63.578125 42.921875 64.890625 
Q 37.9375 66.21875 33.296875 66.21875 
Q 25.25 66.21875 20.875 63.09375 
Q 16.5 59.96875 16.5 54.203125 
Q 16.5 49.359375 19.40625 46.890625 
Q 22.3125 44.4375 30.421875 42.921875 
L 36.375 41.703125 
Q 47.40625 39.59375 52.65625 34.296875 
Q 57.90625 29 57.90625 20.125 
Q 57.90625 9.515625 50.796875 4.046875 
Q 43.703125 -1.421875 29.984375 -1.421875 
Q 24.8125 -1.421875 18.96875 -0.25 
Q 13.140625 0.921875 6.890625 3.21875 
L 6.890625 13.375 
Q 12.890625 10.015625 18.65625 8.296875 
Q 24.421875 6.59375 29.984375 6.59375 
Q 38.421875 6.59375 43.015625 9.90625 
Q 47.609375 13.234375 47.609375 19.390625 
Q 47.609375 24.75 44.3125 27.78125 
Q 41.015625 30.8125 33.5 32.328125 
L 27.484375 33.5 
Q 16.453125 35.6875 11.515625 40.375 
Q 6.59375 45.0625 6.59375 53.421875 
Q 6.59375 63.09375 13.40625 68.65625 
Q 20.21875 74.21875 32.171875 74.21875 
Q 37.3125 74.21875 42.625 73.28125 
Q 47.953125 72.359375 53.515625 70.515625 
z
" id="DejaVuSans-83"/>
      <path d="M 9.421875 54.6875 
L 18.40625 54.6875 
L 18.40625 -0.984375 
Q 18.40625 -11.421875 14.421875 -16.109375 
Q 10.453125 -20.796875 1.609375 -20.796875 
L -1.8125 -20.796875 
L -1.8125 -13.1875 
L 0.59375 -13.1875 
Q 5.71875 -13.1875 7.5625 -10.8125 
Q 9.421875 -8.453125 9.421875 -0.984375 
z
M 9.421875 75.984375 
L 18.40625 75.984375 
L 18.40625 64.59375 
L 9.421875 64.59375 
z
" id="DejaVuSans-106"/>
     </defs>
     <use xlink:href="#DejaVuSans-65"/>
     <use x="62.533203" xlink:href="#DejaVuSans-118"/>
     <use x="121.712891" xlink:href="#DejaVuSans-101"/>
     <use x="183.236328" xlink:href="#DejaVuSans-114"/>
     <use x="224.349609" xlink:href="#DejaVuSans-97"/>
     <use x="285.628906" xlink:href="#DejaVuSans-103"/>
     <use x="349.105469" xlink:href="#DejaVuSans-101"/>
     <use x="410.628906" xlink:href="#DejaVuSans-32"/>
     <use x="442.416016" xlink:href="#DejaVuSans-80"/>
     <use x="499.09375" xlink:href="#DejaVuSans-101"/>
     <use x="560.617188" xlink:href="#DejaVuSans-108"/>
     <use x="588.400391" xlink:href="#DejaVuSans-108"/>
     <use x="616.183594" xlink:href="#DejaVuSans-101"/>
     <use x="677.707031" xlink:href="#DejaVuSans-116"/>
     <use x="716.916016" xlink:href="#DejaVuSans-32"/>
     <use x="748.703125" xlink:href="#DejaVuSans-67"/>
     <use x="818.527344" xlink:href="#DejaVuSans-111"/>
     <use x="879.708984" xlink:href="#DejaVuSans-117"/>
     <use x="943.087891" xlink:href="#DejaVuSans-110"/>
     <use x="1006.466797" xlink:href="#DejaVuSans-116"/>
     <use x="1045.675781" xlink:href="#DejaVuSans-32"/>
     <use x="1077.462891" xlink:href="#DejaVuSans-118"/>
     <use x="1136.642578" xlink:href="#DejaVuSans-115"/>
     <use x="1188.742188" xlink:href="#DejaVuSans-32"/>
     <use x="1220.529297" xlink:href="#DejaVuSans-80"/>
     <use x="1279.082031" xlink:href="#DejaVuSans-114"/>
     <use x="1320.195312" xlink:href="#DejaVuSans-105"/>
     <use x="1347.978516" xlink:href="#DejaVuSans-99"/>
     <use x="1402.958984" xlink:href="#DejaVuSans-101"/>
     <use x="1464.482422" xlink:href="#DejaVuSans-32"/>
     <use x="1496.269531" xlink:href="#DejaVuSans-80"/>
     <use x="1552.072266" xlink:href="#DejaVuSans-97"/>
     <use x="1613.351562" xlink:href="#DejaVuSans-105"/>
     <use x="1641.134766" xlink:href="#DejaVuSans-100"/>
     <use x="1704.611328" xlink:href="#DejaVuSans-32"/>
     <use x="1736.398438" xlink:href="#DejaVuSans-98"/>
     <use x="1799.875" xlink:href="#DejaVuSans-121"/>
     <use x="1859.054688" xlink:href="#DejaVuSans-32"/>
     <use x="1890.841797" xlink:href="#DejaVuSans-83"/>
     <use x="1954.318359" xlink:href="#DejaVuSans-117"/>
     <use x="2017.697266" xlink:href="#DejaVuSans-98"/>
     <use x="2081.173828" xlink:href="#DejaVuSans-106"/>
     <use x="2108.957031" xlink:href="#DejaVuSans-101"/>
     <use x="2170.480469" xlink:href="#DejaVuSans-99"/>
     <use x="2225.460938" xlink:href="#DejaVuSans-116"/>
    </g>
   </g>
  </g>
 </g>
 <defs>
  <clipPath id="p3dd9829a07">
   <rect height="326.16" width="558" x="90" y="51.84"/>
  </clipPath>
 </defs>
</svg>
