<?xml version="1.0" encoding="utf-8" standalone="no"?>
<!DOCTYPE svg PUBLIC "-//W3C//DTD SVG 1.1//EN"
  "http://www.w3.org/Graphics/SVG/1.1/DTD/svg11.dtd">
<!-- Created with matplotlib (https://matplotlib.org/) -->
<svg height="432pt" version="1.1" viewBox="0 0 720 432" width="720pt" xmlns="http://www.w3.org/2000/svg" xmlns:xlink="http://www.w3.org/1999/xlink">
 <metadata>
  <rdf:RDF xmlns:cc="http://creativecommons.org/ns#" xmlns:dc="http://purl.org/dc/elements/1.1/" xmlns:rdf="http://www.w3.org/1999/02/22-rdf-syntax-ns#">
   <cc:Work>
    <dc:type rdf:resource="http://purl.org/dc/dcmitype/StillImage"/>
    <dc:date>2025-02-04T20:43:50.976523</dc:date>
    <dc:format>image/svg+xml</dc:format>
    <dc:creator>
     <cc:Agent>
      <dc:title>Matplotlib v3.3.4, https://matplotlib.org/</dc:title>
     </cc:Agent>
    </dc:creator>
   </cc:Work>
  </rdf:RDF>
 </metadata>
 <defs>
  <style type="text/css">*{stroke-linecap:butt;stroke-linejoin:round;}</style>
 </defs>
 <g id="figure_1">
  <g id="patch_1">
   <path d="M 0 432 
L 720 432 
L 720 0 
L 0 0 
z
" style="fill:#ffffff;"/>
  </g>
  <g id="axes_1">
   <g id="patch_2">
    <path d="M 90 378 
L 648 378 
L 648 51.84 
L 90 51.84 
z
" style="fill:#ffffff;"/>
   </g>
   <g id="matplotlib.axis_1">
    <g id="xtick_1">
     <g id="line2d_1">
      <path clip-path="url(#p162ef6a6b2)" d="M 113.211822 378 
L 113.211822 51.84 
" style="fill:none;stroke:#b0b0b0;stroke-linecap:square;stroke-width:0.8;"/>
     </g>
     <g id="line2d_2">
      <defs>
       <path d="M 0 0 
L 0 3.5 
" id="m8bc198d03c" style="stroke:#000000;stroke-width:0.8;"/>
      </defs>
      <g>
       <use style="stroke:#000000;stroke-width:0.8;" x="113.211822" xlink:href="#m8bc198d03c" y="378"/>
      </g>
     </g>
     <g id="text_1">
      <!-- $\mathdefault{10^{0}}$ -->
      <g transform="translate(104.411822 392.598437)scale(0.1 -0.1)">
       <defs>
        <path d="M 12.40625 8.296875 
L 28.515625 8.296875 
L 28.515625 63.921875 
L 10.984375 60.40625 
L 10.984375 69.390625 
L 28.421875 72.90625 
L 38.28125 72.90625 
L 38.28125 8.296875 
L 54.390625 8.296875 
L 54.390625 0 
L 12.40625 0 
z
" id="DejaVuSans-49"/>
        <path d="M 31.78125 66.40625 
Q 24.171875 66.40625 20.328125 58.90625 
Q 16.5 51.421875 16.5 36.375 
Q 16.5 21.390625 20.328125 13.890625 
Q 24.171875 6.390625 31.78125 6.390625 
Q 39.453125 6.390625 43.28125 13.890625 
Q 47.125 21.390625 47.125 36.375 
Q 47.125 51.421875 43.28125 58.90625 
Q 39.453125 66.40625 31.78125 66.40625 
z
M 31.78125 74.21875 
Q 44.046875 74.21875 50.515625 64.515625 
Q 56.984375 54.828125 56.984375 36.375 
Q 56.984375 17.96875 50.515625 8.265625 
Q 44.046875 -1.421875 31.78125 -1.421875 
Q 19.53125 -1.421875 13.0625 8.265625 
Q 6.59375 17.96875 6.59375 36.375 
Q 6.59375 54.828125 13.0625 64.515625 
Q 19.53125 74.21875 31.78125 74.21875 
z
" id="DejaVuSans-48"/>
       </defs>
       <use transform="translate(0 0.765625)" xlink:href="#DejaVuSans-49"/>
       <use transform="translate(63.623047 0.765625)" xlink:href="#DejaVuSans-48"/>
       <use transform="translate(128.203125 39.046875)scale(0.7)" xlink:href="#DejaVuSans-48"/>
      </g>
     </g>
    </g>
    <g id="xtick_2">
     <g id="line2d_3">
      <path clip-path="url(#p162ef6a6b2)" d="M 291.474548 378 
L 291.474548 51.84 
" style="fill:none;stroke:#b0b0b0;stroke-linecap:square;stroke-width:0.8;"/>
     </g>
     <g id="line2d_4">
      <g>
       <use style="stroke:#000000;stroke-width:0.8;" x="291.474548" xlink:href="#m8bc198d03c" y="378"/>
      </g>
     </g>
     <g id="text_2">
      <!-- $\mathdefault{10^{1}}$ -->
      <g transform="translate(282.674548 392.598437)scale(0.1 -0.1)">
       <use transform="translate(0 0.684375)" xlink:href="#DejaVuSans-49"/>
       <use transform="translate(63.623047 0.684375)" xlink:href="#DejaVuSans-48"/>
       <use transform="translate(128.203125 38.965625)scale(0.7)" xlink:href="#DejaVuSans-49"/>
      </g>
     </g>
    </g>
    <g id="xtick_3">
     <g id="line2d_5">
      <path clip-path="url(#p162ef6a6b2)" d="M 469.737274 378 
L 469.737274 51.84 
" style="fill:none;stroke:#b0b0b0;stroke-linecap:square;stroke-width:0.8;"/>
     </g>
     <g id="line2d_6">
      <g>
       <use style="stroke:#000000;stroke-width:0.8;" x="469.737274" xlink:href="#m8bc198d03c" y="378"/>
      </g>
     </g>
     <g id="text_3">
      <!-- $\mathdefault{10^{2}}$ -->
      <g transform="translate(460.937274 392.598437)scale(0.1 -0.1)">
       <defs>
        <path d="M 19.1875 8.296875 
L 53.609375 8.296875 
L 53.609375 0 
L 7.328125 0 
L 7.328125 8.296875 
Q 12.9375 14.109375 22.625 23.890625 
Q 32.328125 33.6875 34.8125 36.53125 
Q 39.546875 41.84375 41.421875 45.53125 
Q 43.3125 49.21875 43.3125 52.78125 
Q 43.3125 58.59375 39.234375 62.25 
Q 35.15625 65.921875 28.609375 65.921875 
Q 23.96875 65.921875 18.8125 64.3125 
Q 13.671875 62.703125 7.8125 59.421875 
L 7.8125 69.390625 
Q 13.765625 71.78125 18.9375 73 
Q 24.125 74.21875 28.421875 74.21875 
Q 39.75 74.21875 46.484375 68.546875 
Q 53.21875 62.890625 53.21875 53.421875 
Q 53.21875 48.921875 51.53125 44.890625 
Q 49.859375 40.875 45.40625 35.40625 
Q 44.1875 33.984375 37.640625 27.21875 
Q 31.109375 20.453125 19.1875 8.296875 
z
" id="DejaVuSans-50"/>
       </defs>
       <use transform="translate(0 0.765625)" xlink:href="#DejaVuSans-49"/>
       <use transform="translate(63.623047 0.765625)" xlink:href="#DejaVuSans-48"/>
       <use transform="translate(128.203125 39.046875)scale(0.7)" xlink:href="#DejaVuSans-50"/>
      </g>
     </g>
    </g>
    <g id="xtick_4">
     <g id="line2d_7">
      <path clip-path="url(#p162ef6a6b2)" d="M 648 378 
L 648 51.84 
" style="fill:none;stroke:#b0b0b0;stroke-linecap:square;stroke-width:0.8;"/>
     </g>
     <g id="line2d_8">
      <g>
       <use style="stroke:#000000;stroke-width:0.8;" x="648" xlink:href="#m8bc198d03c" y="378"/>
      </g>
     </g>
     <g id="text_4">
      <!-- $\mathdefault{10^{3}}$ -->
      <g transform="translate(639.2 392.598437)scale(0.1 -0.1)">
       <defs>
        <path d="M 40.578125 39.3125 
Q 47.65625 37.796875 51.625 33 
Q 55.609375 28.21875 55.609375 21.1875 
Q 55.609375 10.40625 48.1875 4.484375 
Q 40.765625 -1.421875 27.09375 -1.421875 
Q 22.515625 -1.421875 17.65625 -0.515625 
Q 12.796875 0.390625 7.625 2.203125 
L 7.625 11.71875 
Q 11.71875 9.328125 16.59375 8.109375 
Q 21.484375 6.890625 26.8125 6.890625 
Q 36.078125 6.890625 40.9375 10.546875 
Q 45.796875 14.203125 45.796875 21.1875 
Q 45.796875 27.640625 41.28125 31.265625 
Q 36.765625 34.90625 28.71875 34.90625 
L 20.21875 34.90625 
L 20.21875 43.015625 
L 29.109375 43.015625 
Q 36.375 43.015625 40.234375 45.921875 
Q 44.09375 48.828125 44.09375 54.296875 
Q 44.09375 59.90625 40.109375 62.90625 
Q 36.140625 65.921875 28.71875 65.921875 
Q 24.65625 65.921875 20.015625 65.03125 
Q 15.375 64.15625 9.8125 62.3125 
L 9.8125 71.09375 
Q 15.4375 72.65625 20.34375 73.4375 
Q 25.25 74.21875 29.59375 74.21875 
Q 40.828125 74.21875 47.359375 69.109375 
Q 53.90625 64.015625 53.90625 55.328125 
Q 53.90625 49.265625 50.4375 45.09375 
Q 46.96875 40.921875 40.578125 39.3125 
z
" id="DejaVuSans-51"/>
       </defs>
       <use transform="translate(0 0.765625)" xlink:href="#DejaVuSans-49"/>
       <use transform="translate(63.623047 0.765625)" xlink:href="#DejaVuSans-48"/>
       <use transform="translate(128.203125 39.046875)scale(0.7)" xlink:href="#DejaVuSans-51"/>
      </g>
     </g>
    </g>
    <g id="xtick_5">
     <g id="line2d_9">
      <defs>
       <path d="M 0 0 
L 0 2 
" id="m8ef609d744" style="stroke:#000000;stroke-width:0.6;"/>
      </defs>
      <g>
       <use style="stroke:#000000;stroke-width:0.6;" x="95.936379" xlink:href="#m8ef609d744" y="378"/>
      </g>
     </g>
    </g>
    <g id="xtick_6">
     <g id="line2d_10">
      <g>
       <use style="stroke:#000000;stroke-width:0.6;" x="105.054967" xlink:href="#m8ef609d744" y="378"/>
      </g>
     </g>
    </g>
    <g id="xtick_7">
     <g id="line2d_11">
      <g>
       <use style="stroke:#000000;stroke-width:0.6;" x="166.874249" xlink:href="#m8ef609d744" y="378"/>
      </g>
     </g>
    </g>
    <g id="xtick_8">
     <g id="line2d_12">
      <g>
       <use style="stroke:#000000;stroke-width:0.6;" x="198.264757" xlink:href="#m8ef609d744" y="378"/>
      </g>
     </g>
    </g>
    <g id="xtick_9">
     <g id="line2d_13">
      <g>
       <use style="stroke:#000000;stroke-width:0.6;" x="220.536677" xlink:href="#m8ef609d744" y="378"/>
      </g>
     </g>
    </g>
    <g id="xtick_10">
     <g id="line2d_14">
      <g>
       <use style="stroke:#000000;stroke-width:0.6;" x="237.81212" xlink:href="#m8ef609d744" y="378"/>
      </g>
     </g>
    </g>
    <g id="xtick_11">
     <g id="line2d_15">
      <g>
       <use style="stroke:#000000;stroke-width:0.6;" x="251.927185" xlink:href="#m8ef609d744" y="378"/>
      </g>
     </g>
    </g>
    <g id="xtick_12">
     <g id="line2d_16">
      <g>
       <use style="stroke:#000000;stroke-width:0.6;" x="263.861302" xlink:href="#m8ef609d744" y="378"/>
      </g>
     </g>
    </g>
    <g id="xtick_13">
     <g id="line2d_17">
      <g>
       <use style="stroke:#000000;stroke-width:0.6;" x="274.199105" xlink:href="#m8ef609d744" y="378"/>
      </g>
     </g>
    </g>
    <g id="xtick_14">
     <g id="line2d_18">
      <g>
       <use style="stroke:#000000;stroke-width:0.6;" x="283.317693" xlink:href="#m8ef609d744" y="378"/>
      </g>
     </g>
    </g>
    <g id="xtick_15">
     <g id="line2d_19">
      <g>
       <use style="stroke:#000000;stroke-width:0.6;" x="345.136976" xlink:href="#m8ef609d744" y="378"/>
      </g>
     </g>
    </g>
    <g id="xtick_16">
     <g id="line2d_20">
      <g>
       <use style="stroke:#000000;stroke-width:0.6;" x="376.527483" xlink:href="#m8ef609d744" y="378"/>
      </g>
     </g>
    </g>
    <g id="xtick_17">
     <g id="line2d_21">
      <g>
       <use style="stroke:#000000;stroke-width:0.6;" x="398.799403" xlink:href="#m8ef609d744" y="378"/>
      </g>
     </g>
    </g>
    <g id="xtick_18">
     <g id="line2d_22">
      <g>
       <use style="stroke:#000000;stroke-width:0.6;" x="416.074846" xlink:href="#m8ef609d744" y="378"/>
      </g>
     </g>
    </g>
    <g id="xtick_19">
     <g id="line2d_23">
      <g>
       <use style="stroke:#000000;stroke-width:0.6;" x="430.189911" xlink:href="#m8ef609d744" y="378"/>
      </g>
     </g>
    </g>
    <g id="xtick_20">
     <g id="line2d_24">
      <g>
       <use style="stroke:#000000;stroke-width:0.6;" x="442.124028" xlink:href="#m8ef609d744" y="378"/>
      </g>
     </g>
    </g>
    <g id="xtick_21">
     <g id="line2d_25">
      <g>
       <use style="stroke:#000000;stroke-width:0.6;" x="452.461831" xlink:href="#m8ef609d744" y="378"/>
      </g>
     </g>
    </g>
    <g id="xtick_22">
     <g id="line2d_26">
      <g>
       <use style="stroke:#000000;stroke-width:0.6;" x="461.580419" xlink:href="#m8ef609d744" y="378"/>
      </g>
     </g>
    </g>
    <g id="xtick_23">
     <g id="line2d_27">
      <g>
       <use style="stroke:#000000;stroke-width:0.6;" x="523.399702" xlink:href="#m8ef609d744" y="378"/>
      </g>
     </g>
    </g>
    <g id="xtick_24">
     <g id="line2d_28">
      <g>
       <use style="stroke:#000000;stroke-width:0.6;" x="554.790209" xlink:href="#m8ef609d744" y="378"/>
      </g>
     </g>
    </g>
    <g id="xtick_25">
     <g id="line2d_29">
      <g>
       <use style="stroke:#000000;stroke-width:0.6;" x="577.062129" xlink:href="#m8ef609d744" y="378"/>
      </g>
     </g>
    </g>
    <g id="xtick_26">
     <g id="line2d_30">
      <g>
       <use style="stroke:#000000;stroke-width:0.6;" x="594.337572" xlink:href="#m8ef609d744" y="378"/>
      </g>
     </g>
    </g>
    <g id="xtick_27">
     <g id="line2d_31">
      <g>
       <use style="stroke:#000000;stroke-width:0.6;" x="608.452637" xlink:href="#m8ef609d744" y="378"/>
      </g>
     </g>
    </g>
    <g id="xtick_28">
     <g id="line2d_32">
      <g>
       <use style="stroke:#000000;stroke-width:0.6;" x="620.386754" xlink:href="#m8ef609d744" y="378"/>
      </g>
     </g>
    </g>
    <g id="xtick_29">
     <g id="line2d_33">
      <g>
       <use style="stroke:#000000;stroke-width:0.6;" x="630.724557" xlink:href="#m8ef609d744" y="378"/>
      </g>
     </g>
    </g>
    <g id="xtick_30">
     <g id="line2d_34">
      <g>
       <use style="stroke:#000000;stroke-width:0.6;" x="639.843145" xlink:href="#m8ef609d744" y="378"/>
      </g>
     </g>
    </g>
    <g id="text_5">
     <!-- Price Paid -->
     <g transform="translate(344.796094 406.276563)scale(0.1 -0.1)">
      <defs>
       <path d="M 19.671875 64.796875 
L 19.671875 37.40625 
L 32.078125 37.40625 
Q 38.96875 37.40625 42.71875 40.96875 
Q 46.484375 44.53125 46.484375 51.125 
Q 46.484375 57.671875 42.71875 61.234375 
Q 38.96875 64.796875 32.078125 64.796875 
z
M 9.8125 72.90625 
L 32.078125 72.90625 
Q 44.34375 72.90625 50.609375 67.359375 
Q 56.890625 61.8125 56.890625 51.125 
Q 56.890625 40.328125 50.609375 34.8125 
Q 44.34375 29.296875 32.078125 29.296875 
L 19.671875 29.296875 
L 19.671875 0 
L 9.8125 0 
z
" id="DejaVuSans-80"/>
       <path d="M 41.109375 46.296875 
Q 39.59375 47.171875 37.8125 47.578125 
Q 36.03125 48 33.890625 48 
Q 26.265625 48 22.1875 43.046875 
Q 18.109375 38.09375 18.109375 28.8125 
L 18.109375 0 
L 9.078125 0 
L 9.078125 54.6875 
L 18.109375 54.6875 
L 18.109375 46.1875 
Q 20.953125 51.171875 25.484375 53.578125 
Q 30.03125 56 36.53125 56 
Q 37.453125 56 38.578125 55.875 
Q 39.703125 55.765625 41.0625 55.515625 
z
" id="DejaVuSans-114"/>
       <path d="M 9.421875 54.6875 
L 18.40625 54.6875 
L 18.40625 0 
L 9.421875 0 
z
M 9.421875 75.984375 
L 18.40625 75.984375 
L 18.40625 64.59375 
L 9.421875 64.59375 
z
" id="DejaVuSans-105"/>
       <path d="M 48.78125 52.59375 
L 48.78125 44.1875 
Q 44.96875 46.296875 41.140625 47.34375 
Q 37.3125 48.390625 33.40625 48.390625 
Q 24.65625 48.390625 19.8125 42.84375 
Q 14.984375 37.3125 14.984375 27.296875 
Q 14.984375 17.28125 19.8125 11.734375 
Q 24.65625 6.203125 33.40625 6.203125 
Q 37.3125 6.203125 41.140625 7.25 
Q 44.96875 8.296875 48.78125 10.40625 
L 48.78125 2.09375 
Q 45.015625 0.34375 40.984375 -0.53125 
Q 36.96875 -1.421875 32.421875 -1.421875 
Q 20.0625 -1.421875 12.78125 6.34375 
Q 5.515625 14.109375 5.515625 27.296875 
Q 5.515625 40.671875 12.859375 48.328125 
Q 20.21875 56 33.015625 56 
Q 37.15625 56 41.109375 55.140625 
Q 45.0625 54.296875 48.78125 52.59375 
z
" id="DejaVuSans-99"/>
       <path d="M 56.203125 29.59375 
L 56.203125 25.203125 
L 14.890625 25.203125 
Q 15.484375 15.921875 20.484375 11.0625 
Q 25.484375 6.203125 34.421875 6.203125 
Q 39.59375 6.203125 44.453125 7.46875 
Q 49.3125 8.734375 54.109375 11.28125 
L 54.109375 2.78125 
Q 49.265625 0.734375 44.1875 -0.34375 
Q 39.109375 -1.421875 33.890625 -1.421875 
Q 20.796875 -1.421875 13.15625 6.1875 
Q 5.515625 13.8125 5.515625 26.8125 
Q 5.515625 40.234375 12.765625 48.109375 
Q 20.015625 56 32.328125 56 
Q 43.359375 56 49.78125 48.890625 
Q 56.203125 41.796875 56.203125 29.59375 
z
M 47.21875 32.234375 
Q 47.125 39.59375 43.09375 43.984375 
Q 39.0625 48.390625 32.421875 48.390625 
Q 24.90625 48.390625 20.390625 44.140625 
Q 15.875 39.890625 15.1875 32.171875 
z
" id="DejaVuSans-101"/>
       <path id="DejaVuSans-32"/>
       <path d="M 34.28125 27.484375 
Q 23.390625 27.484375 19.1875 25 
Q 14.984375 22.515625 14.984375 16.5 
Q 14.984375 11.71875 18.140625 8.90625 
Q 21.296875 6.109375 26.703125 6.109375 
Q 34.1875 6.109375 38.703125 11.40625 
Q 43.21875 16.703125 43.21875 25.484375 
L 43.21875 27.484375 
z
M 52.203125 31.203125 
L 52.203125 0 
L 43.21875 0 
L 43.21875 8.296875 
Q 40.140625 3.328125 35.546875 0.953125 
Q 30.953125 -1.421875 24.3125 -1.421875 
Q 15.921875 -1.421875 10.953125 3.296875 
Q 6 8.015625 6 15.921875 
Q 6 25.140625 12.171875 29.828125 
Q 18.359375 34.515625 30.609375 34.515625 
L 43.21875 34.515625 
L 43.21875 35.40625 
Q 43.21875 41.609375 39.140625 45 
Q 35.0625 48.390625 27.6875 48.390625 
Q 23 48.390625 18.546875 47.265625 
Q 14.109375 46.140625 10.015625 43.890625 
L 10.015625 52.203125 
Q 14.9375 54.109375 19.578125 55.046875 
Q 24.21875 56 28.609375 56 
Q 40.484375 56 46.34375 49.84375 
Q 52.203125 43.703125 52.203125 31.203125 
z
" id="DejaVuSans-97"/>
       <path d="M 45.40625 46.390625 
L 45.40625 75.984375 
L 54.390625 75.984375 
L 54.390625 0 
L 45.40625 0 
L 45.40625 8.203125 
Q 42.578125 3.328125 38.25 0.953125 
Q 33.9375 -1.421875 27.875 -1.421875 
Q 17.96875 -1.421875 11.734375 6.484375 
Q 5.515625 14.40625 5.515625 27.296875 
Q 5.515625 40.1875 11.734375 48.09375 
Q 17.96875 56 27.875 56 
Q 33.9375 56 38.25 53.625 
Q 42.578125 51.265625 45.40625 46.390625 
z
M 14.796875 27.296875 
Q 14.796875 17.390625 18.875 11.75 
Q 22.953125 6.109375 30.078125 6.109375 
Q 37.203125 6.109375 41.296875 11.75 
Q 45.40625 17.390625 45.40625 27.296875 
Q 45.40625 37.203125 41.296875 42.84375 
Q 37.203125 48.484375 30.078125 48.484375 
Q 22.953125 48.484375 18.875 42.84375 
Q 14.796875 37.203125 14.796875 27.296875 
z
" id="DejaVuSans-100"/>
      </defs>
      <use xlink:href="#DejaVuSans-80"/>
      <use x="58.552734" xlink:href="#DejaVuSans-114"/>
      <use x="99.666016" xlink:href="#DejaVuSans-105"/>
      <use x="127.449219" xlink:href="#DejaVuSans-99"/>
      <use x="182.429688" xlink:href="#DejaVuSans-101"/>
      <use x="243.953125" xlink:href="#DejaVuSans-32"/>
      <use x="275.740234" xlink:href="#DejaVuSans-80"/>
      <use x="331.542969" xlink:href="#DejaVuSans-97"/>
      <use x="392.822266" xlink:href="#DejaVuSans-105"/>
      <use x="420.605469" xlink:href="#DejaVuSans-100"/>
     </g>
    </g>
   </g>
   <g id="matplotlib.axis_2">
    <g id="ytick_1">
     <g id="line2d_35">
      <path clip-path="url(#p162ef6a6b2)" d="M 90 378 
L 648 378 
" style="fill:none;stroke:#b0b0b0;stroke-linecap:square;stroke-width:0.8;"/>
     </g>
     <g id="line2d_36">
      <defs>
       <path d="M 0 0 
L -3.5 0 
" id="m3bc5511150" style="stroke:#000000;stroke-width:0.8;"/>
      </defs>
      <g>
       <use style="stroke:#000000;stroke-width:0.8;" x="90" xlink:href="#m3bc5511150" y="378"/>
      </g>
     </g>
     <g id="text_6">
      <!-- $\mathdefault{10^{-1}}$ -->
      <g transform="translate(59.5 381.799219)scale(0.1 -0.1)">
       <defs>
        <path d="M 10.59375 35.5 
L 73.1875 35.5 
L 73.1875 27.203125 
L 10.59375 27.203125 
z
" id="DejaVuSans-8722"/>
       </defs>
       <use transform="translate(0 0.684375)" xlink:href="#DejaVuSans-49"/>
       <use transform="translate(63.623047 0.684375)" xlink:href="#DejaVuSans-48"/>
       <use transform="translate(128.203125 38.965625)scale(0.7)" xlink:href="#DejaVuSans-8722"/>
       <use transform="translate(186.855469 38.965625)scale(0.7)" xlink:href="#DejaVuSans-49"/>
      </g>
     </g>
    </g>
    <g id="ytick_2">
     <g id="line2d_37">
      <path clip-path="url(#p162ef6a6b2)" d="M 90 279.194476 
L 648 279.194476 
" style="fill:none;stroke:#b0b0b0;stroke-linecap:square;stroke-width:0.8;"/>
     </g>
     <g id="line2d_38">
      <g>
       <use style="stroke:#000000;stroke-width:0.8;" x="90" xlink:href="#m3bc5511150" y="279.194476"/>
      </g>
     </g>
     <g id="text_7">
      <!-- $\mathdefault{10^{0}}$ -->
      <g transform="translate(65.4 282.993694)scale(0.1 -0.1)">
       <use transform="translate(0 0.765625)" xlink:href="#DejaVuSans-49"/>
       <use transform="translate(63.623047 0.765625)" xlink:href="#DejaVuSans-48"/>
       <use transform="translate(128.203125 39.046875)scale(0.7)" xlink:href="#DejaVuSans-48"/>
      </g>
     </g>
    </g>
    <g id="ytick_3">
     <g id="line2d_39">
      <path clip-path="url(#p162ef6a6b2)" d="M 90 180.388951 
L 648 180.388951 
" style="fill:none;stroke:#b0b0b0;stroke-linecap:square;stroke-width:0.8;"/>
     </g>
     <g id="line2d_40">
      <g>
       <use style="stroke:#000000;stroke-width:0.8;" x="90" xlink:href="#m3bc5511150" y="180.388951"/>
      </g>
     </g>
     <g id="text_8">
      <!-- $\mathdefault{10^{1}}$ -->
      <g transform="translate(65.4 184.18817)scale(0.1 -0.1)">
       <use transform="translate(0 0.684375)" xlink:href="#DejaVuSans-49"/>
       <use transform="translate(63.623047 0.684375)" xlink:href="#DejaVuSans-48"/>
       <use transform="translate(128.203125 38.965625)scale(0.7)" xlink:href="#DejaVuSans-49"/>
      </g>
     </g>
    </g>
    <g id="ytick_4">
     <g id="line2d_41">
      <path clip-path="url(#p162ef6a6b2)" d="M 90 81.583427 
L 648 81.583427 
" style="fill:none;stroke:#b0b0b0;stroke-linecap:square;stroke-width:0.8;"/>
     </g>
     <g id="line2d_42">
      <g>
       <use style="stroke:#000000;stroke-width:0.8;" x="90" xlink:href="#m3bc5511150" y="81.583427"/>
      </g>
     </g>
     <g id="text_9">
      <!-- $\mathdefault{10^{2}}$ -->
      <g transform="translate(65.4 85.382645)scale(0.1 -0.1)">
       <use transform="translate(0 0.765625)" xlink:href="#DejaVuSans-49"/>
       <use transform="translate(63.623047 0.765625)" xlink:href="#DejaVuSans-48"/>
       <use transform="translate(128.203125 39.046875)scale(0.7)" xlink:href="#DejaVuSans-50"/>
      </g>
     </g>
    </g>
    <g id="ytick_5">
     <g id="line2d_43">
      <defs>
       <path d="M 0 0 
L -2 0 
" id="m839be49aeb" style="stroke:#000000;stroke-width:0.6;"/>
      </defs>
      <g>
       <use style="stroke:#000000;stroke-width:0.6;" x="90" xlink:href="#m839be49aeb" y="348.256573"/>
      </g>
     </g>
    </g>
    <g id="ytick_6">
     <g id="line2d_44">
      <g>
       <use style="stroke:#000000;stroke-width:0.6;" x="90" xlink:href="#m839be49aeb" y="330.857784"/>
      </g>
     </g>
    </g>
    <g id="ytick_7">
     <g id="line2d_45">
      <g>
       <use style="stroke:#000000;stroke-width:0.6;" x="90" xlink:href="#m839be49aeb" y="318.513147"/>
      </g>
     </g>
    </g>
    <g id="ytick_8">
     <g id="line2d_46">
      <g>
       <use style="stroke:#000000;stroke-width:0.6;" x="90" xlink:href="#m839be49aeb" y="308.937902"/>
      </g>
     </g>
    </g>
    <g id="ytick_9">
     <g id="line2d_47">
      <g>
       <use style="stroke:#000000;stroke-width:0.6;" x="90" xlink:href="#m839be49aeb" y="301.114358"/>
      </g>
     </g>
    </g>
    <g id="ytick_10">
     <g id="line2d_48">
      <g>
       <use style="stroke:#000000;stroke-width:0.6;" x="90" xlink:href="#m839be49aeb" y="294.499645"/>
      </g>
     </g>
    </g>
    <g id="ytick_11">
     <g id="line2d_49">
      <g>
       <use style="stroke:#000000;stroke-width:0.6;" x="90" xlink:href="#m839be49aeb" y="288.76972"/>
      </g>
     </g>
    </g>
    <g id="ytick_12">
     <g id="line2d_50">
      <g>
       <use style="stroke:#000000;stroke-width:0.6;" x="90" xlink:href="#m839be49aeb" y="283.715568"/>
      </g>
     </g>
    </g>
    <g id="ytick_13">
     <g id="line2d_51">
      <g>
       <use style="stroke:#000000;stroke-width:0.6;" x="90" xlink:href="#m839be49aeb" y="249.451049"/>
      </g>
     </g>
    </g>
    <g id="ytick_14">
     <g id="line2d_52">
      <g>
       <use style="stroke:#000000;stroke-width:0.6;" x="90" xlink:href="#m839be49aeb" y="232.05226"/>
      </g>
     </g>
    </g>
    <g id="ytick_15">
     <g id="line2d_53">
      <g>
       <use style="stroke:#000000;stroke-width:0.6;" x="90" xlink:href="#m839be49aeb" y="219.707622"/>
      </g>
     </g>
    </g>
    <g id="ytick_16">
     <g id="line2d_54">
      <g>
       <use style="stroke:#000000;stroke-width:0.6;" x="90" xlink:href="#m839be49aeb" y="210.132378"/>
      </g>
     </g>
    </g>
    <g id="ytick_17">
     <g id="line2d_55">
      <g>
       <use style="stroke:#000000;stroke-width:0.6;" x="90" xlink:href="#m839be49aeb" y="202.308833"/>
      </g>
     </g>
    </g>
    <g id="ytick_18">
     <g id="line2d_56">
      <g>
       <use style="stroke:#000000;stroke-width:0.6;" x="90" xlink:href="#m839be49aeb" y="195.69412"/>
      </g>
     </g>
    </g>
    <g id="ytick_19">
     <g id="line2d_57">
      <g>
       <use style="stroke:#000000;stroke-width:0.6;" x="90" xlink:href="#m839be49aeb" y="189.964196"/>
      </g>
     </g>
    </g>
    <g id="ytick_20">
     <g id="line2d_58">
      <g>
       <use style="stroke:#000000;stroke-width:0.6;" x="90" xlink:href="#m839be49aeb" y="184.910044"/>
      </g>
     </g>
    </g>
    <g id="ytick_21">
     <g id="line2d_59">
      <g>
       <use style="stroke:#000000;stroke-width:0.6;" x="90" xlink:href="#m839be49aeb" y="150.645524"/>
      </g>
     </g>
    </g>
    <g id="ytick_22">
     <g id="line2d_60">
      <g>
       <use style="stroke:#000000;stroke-width:0.6;" x="90" xlink:href="#m839be49aeb" y="133.246735"/>
      </g>
     </g>
    </g>
    <g id="ytick_23">
     <g id="line2d_61">
      <g>
       <use style="stroke:#000000;stroke-width:0.6;" x="90" xlink:href="#m839be49aeb" y="120.902098"/>
      </g>
     </g>
    </g>
    <g id="ytick_24">
     <g id="line2d_62">
      <g>
       <use style="stroke:#000000;stroke-width:0.6;" x="90" xlink:href="#m839be49aeb" y="111.326853"/>
      </g>
     </g>
    </g>
    <g id="ytick_25">
     <g id="line2d_63">
      <g>
       <use style="stroke:#000000;stroke-width:0.6;" x="90" xlink:href="#m839be49aeb" y="103.503309"/>
      </g>
     </g>
    </g>
    <g id="ytick_26">
     <g id="line2d_64">
      <g>
       <use style="stroke:#000000;stroke-width:0.6;" x="90" xlink:href="#m839be49aeb" y="96.888596"/>
      </g>
     </g>
    </g>
    <g id="ytick_27">
     <g id="line2d_65">
      <g>
       <use style="stroke:#000000;stroke-width:0.6;" x="90" xlink:href="#m839be49aeb" y="91.158671"/>
      </g>
     </g>
    </g>
    <g id="ytick_28">
     <g id="line2d_66">
      <g>
       <use style="stroke:#000000;stroke-width:0.6;" x="90" xlink:href="#m839be49aeb" y="86.104519"/>
      </g>
     </g>
    </g>
    <g id="ytick_29">
     <g id="line2d_67">
      <g>
       <use style="stroke:#000000;stroke-width:0.6;" x="90" xlink:href="#m839be49aeb" y="51.84"/>
      </g>
     </g>
    </g>
    <g id="text_10">
     <!-- Average Pellet Count -->
     <g transform="translate(53.420312 267.204375)rotate(-90)scale(0.1 -0.1)">
      <defs>
       <path d="M 34.1875 63.1875 
L 20.796875 26.90625 
L 47.609375 26.90625 
z
M 28.609375 72.90625 
L 39.796875 72.90625 
L 67.578125 0 
L 57.328125 0 
L 50.6875 18.703125 
L 17.828125 18.703125 
L 11.1875 0 
L 0.78125 0 
z
" id="DejaVuSans-65"/>
       <path d="M 2.984375 54.6875 
L 12.5 54.6875 
L 29.59375 8.796875 
L 46.6875 54.6875 
L 56.203125 54.6875 
L 35.6875 0 
L 23.484375 0 
z
" id="DejaVuSans-118"/>
       <path d="M 45.40625 27.984375 
Q 45.40625 37.75 41.375 43.109375 
Q 37.359375 48.484375 30.078125 48.484375 
Q 22.859375 48.484375 18.828125 43.109375 
Q 14.796875 37.75 14.796875 27.984375 
Q 14.796875 18.265625 18.828125 12.890625 
Q 22.859375 7.515625 30.078125 7.515625 
Q 37.359375 7.515625 41.375 12.890625 
Q 45.40625 18.265625 45.40625 27.984375 
z
M 54.390625 6.78125 
Q 54.390625 -7.171875 48.1875 -13.984375 
Q 42 -20.796875 29.203125 -20.796875 
Q 24.46875 -20.796875 20.265625 -20.09375 
Q 16.0625 -19.390625 12.109375 -17.921875 
L 12.109375 -9.1875 
Q 16.0625 -11.328125 19.921875 -12.34375 
Q 23.78125 -13.375 27.78125 -13.375 
Q 36.625 -13.375 41.015625 -8.765625 
Q 45.40625 -4.15625 45.40625 5.171875 
L 45.40625 9.625 
Q 42.625 4.78125 38.28125 2.390625 
Q 33.9375 0 27.875 0 
Q 17.828125 0 11.671875 7.65625 
Q 5.515625 15.328125 5.515625 27.984375 
Q 5.515625 40.671875 11.671875 48.328125 
Q 17.828125 56 27.875 56 
Q 33.9375 56 38.28125 53.609375 
Q 42.625 51.21875 45.40625 46.390625 
L 45.40625 54.6875 
L 54.390625 54.6875 
z
" id="DejaVuSans-103"/>
       <path d="M 9.421875 75.984375 
L 18.40625 75.984375 
L 18.40625 0 
L 9.421875 0 
z
" id="DejaVuSans-108"/>
       <path d="M 18.3125 70.21875 
L 18.3125 54.6875 
L 36.8125 54.6875 
L 36.8125 47.703125 
L 18.3125 47.703125 
L 18.3125 18.015625 
Q 18.3125 11.328125 20.140625 9.421875 
Q 21.96875 7.515625 27.59375 7.515625 
L 36.8125 7.515625 
L 36.8125 0 
L 27.59375 0 
Q 17.1875 0 13.234375 3.875 
Q 9.28125 7.765625 9.28125 18.015625 
L 9.28125 47.703125 
L 2.6875 47.703125 
L 2.6875 54.6875 
L 9.28125 54.6875 
L 9.28125 70.21875 
z
" id="DejaVuSans-116"/>
       <path d="M 64.40625 67.28125 
L 64.40625 56.890625 
Q 59.421875 61.53125 53.78125 63.8125 
Q 48.140625 66.109375 41.796875 66.109375 
Q 29.296875 66.109375 22.65625 58.46875 
Q 16.015625 50.828125 16.015625 36.375 
Q 16.015625 21.96875 22.65625 14.328125 
Q 29.296875 6.6875 41.796875 6.6875 
Q 48.140625 6.6875 53.78125 8.984375 
Q 59.421875 11.28125 64.40625 15.921875 
L 64.40625 5.609375 
Q 59.234375 2.09375 53.4375 0.328125 
Q 47.65625 -1.421875 41.21875 -1.421875 
Q 24.65625 -1.421875 15.125 8.703125 
Q 5.609375 18.84375 5.609375 36.375 
Q 5.609375 53.953125 15.125 64.078125 
Q 24.65625 74.21875 41.21875 74.21875 
Q 47.75 74.21875 53.53125 72.484375 
Q 59.328125 70.75 64.40625 67.28125 
z
" id="DejaVuSans-67"/>
       <path d="M 30.609375 48.390625 
Q 23.390625 48.390625 19.1875 42.75 
Q 14.984375 37.109375 14.984375 27.296875 
Q 14.984375 17.484375 19.15625 11.84375 
Q 23.34375 6.203125 30.609375 6.203125 
Q 37.796875 6.203125 41.984375 11.859375 
Q 46.1875 17.53125 46.1875 27.296875 
Q 46.1875 37.015625 41.984375 42.703125 
Q 37.796875 48.390625 30.609375 48.390625 
z
M 30.609375 56 
Q 42.328125 56 49.015625 48.375 
Q 55.71875 40.765625 55.71875 27.296875 
Q 55.71875 13.875 49.015625 6.21875 
Q 42.328125 -1.421875 30.609375 -1.421875 
Q 18.84375 -1.421875 12.171875 6.21875 
Q 5.515625 13.875 5.515625 27.296875 
Q 5.515625 40.765625 12.171875 48.375 
Q 18.84375 56 30.609375 56 
z
" id="DejaVuSans-111"/>
       <path d="M 8.5 21.578125 
L 8.5 54.6875 
L 17.484375 54.6875 
L 17.484375 21.921875 
Q 17.484375 14.15625 20.5 10.265625 
Q 23.53125 6.390625 29.59375 6.390625 
Q 36.859375 6.390625 41.078125 11.03125 
Q 45.3125 15.671875 45.3125 23.6875 
L 45.3125 54.6875 
L 54.296875 54.6875 
L 54.296875 0 
L 45.3125 0 
L 45.3125 8.40625 
Q 42.046875 3.421875 37.71875 1 
Q 33.40625 -1.421875 27.6875 -1.421875 
Q 18.265625 -1.421875 13.375 4.4375 
Q 8.5 10.296875 8.5 21.578125 
z
M 31.109375 56 
z
" id="DejaVuSans-117"/>
       <path d="M 54.890625 33.015625 
L 54.890625 0 
L 45.90625 0 
L 45.90625 32.71875 
Q 45.90625 40.484375 42.875 44.328125 
Q 39.84375 48.1875 33.796875 48.1875 
Q 26.515625 48.1875 22.3125 43.546875 
Q 18.109375 38.921875 18.109375 30.90625 
L 18.109375 0 
L 9.078125 0 
L 9.078125 54.6875 
L 18.109375 54.6875 
L 18.109375 46.1875 
Q 21.34375 51.125 25.703125 53.5625 
Q 30.078125 56 35.796875 56 
Q 45.21875 56 50.046875 50.171875 
Q 54.890625 44.34375 54.890625 33.015625 
z
" id="DejaVuSans-110"/>
      </defs>
      <use xlink:href="#DejaVuSans-65"/>
      <use x="62.533203" xlink:href="#DejaVuSans-118"/>
      <use x="121.712891" xlink:href="#DejaVuSans-101"/>
      <use x="183.236328" xlink:href="#DejaVuSans-114"/>
      <use x="224.349609" xlink:href="#DejaVuSans-97"/>
      <use x="285.628906" xlink:href="#DejaVuSans-103"/>
      <use x="349.105469" xlink:href="#DejaVuSans-101"/>
      <use x="410.628906" xlink:href="#DejaVuSans-32"/>
      <use x="442.416016" xlink:href="#DejaVuSans-80"/>
      <use x="499.09375" xlink:href="#DejaVuSans-101"/>
      <use x="560.617188" xlink:href="#DejaVuSans-108"/>
      <use x="588.400391" xlink:href="#DejaVuSans-108"/>
      <use x="616.183594" xlink:href="#DejaVuSans-101"/>
      <use x="677.707031" xlink:href="#DejaVuSans-116"/>
      <use x="716.916016" xlink:href="#DejaVuSans-32"/>
      <use x="748.703125" xlink:href="#DejaVuSans-67"/>
      <use x="818.527344" xlink:href="#DejaVuSans-111"/>
      <use x="879.708984" xlink:href="#DejaVuSans-117"/>
      <use x="943.087891" xlink:href="#DejaVuSans-110"/>
      <use x="1006.466797" xlink:href="#DejaVuSans-116"/>
     </g>
    </g>
   </g>
   <g id="LineCollection_1">
    <path clip-path="url(#p162ef6a6b2)" d="M 113.211822 116.58757 
L 113.211822 102.025514 
" style="fill:none;stroke:#000000;stroke-width:1.5;"/>
    <path clip-path="url(#p162ef6a6b2)" d="M 166.874249 117.379073 
L 166.874249 103.329134 
" style="fill:none;stroke:#000000;stroke-width:1.5;"/>
    <path clip-path="url(#p162ef6a6b2)" d="M 198.264757 149.448705 
L 198.264757 136.564816 
" style="fill:none;stroke:#000000;stroke-width:1.5;"/>
    <path clip-path="url(#p162ef6a6b2)" d="M 220.536677 152.352685 
L 220.536677 140.030142 
" style="fill:none;stroke:#000000;stroke-width:1.5;"/>
    <path clip-path="url(#p162ef6a6b2)" d="M 237.81212 156.867152 
L 237.81212 144.277859 
" style="fill:none;stroke:#000000;stroke-width:1.5;"/>
    <path clip-path="url(#p162ef6a6b2)" d="M 251.927185 161.364139 
L 251.927185 149.05748 
" style="fill:none;stroke:#000000;stroke-width:1.5;"/>
    <path clip-path="url(#p162ef6a6b2)" d="M 263.861302 166.851901 
L 263.861302 155.267749 
" style="fill:none;stroke:#000000;stroke-width:1.5;"/>
    <path clip-path="url(#p162ef6a6b2)" d="M 283.317693 171.377971 
L 283.317693 162.056466 
" style="fill:none;stroke:#000000;stroke-width:1.5;"/>
    <path clip-path="url(#p162ef6a6b2)" d="M 291.474548 175.320332 
L 291.474548 166.735721 
" style="fill:none;stroke:#000000;stroke-width:1.5;"/>
    <path clip-path="url(#p162ef6a6b2)" d="M 305.589613 180.276373 
L 305.589613 171.481194 
" style="fill:none;stroke:#000000;stroke-width:1.5;"/>
    <path clip-path="url(#p162ef6a6b2)" d="M 311.7864 185.259934 
L 311.7864 176.014959 
" style="fill:none;stroke:#000000;stroke-width:1.5;"/>
    <path clip-path="url(#p162ef6a6b2)" d="M 322.865056 189.78394 
L 322.865056 181.257366 
" style="fill:none;stroke:#000000;stroke-width:1.5;"/>
    <path clip-path="url(#p162ef6a6b2)" d="M 332.555001 192.213963 
L 332.555001 184.552548 
" style="fill:none;stroke:#000000;stroke-width:1.5;"/>
    <path clip-path="url(#p162ef6a6b2)" d="M 345.136976 194.70453 
L 345.136976 186.512877 
" style="fill:none;stroke:#000000;stroke-width:1.5;"/>
    <path clip-path="url(#p162ef6a6b2)" d="M 352.515748 200.407851 
L 352.515748 191.447322 
" style="fill:none;stroke:#000000;stroke-width:1.5;"/>
    <path clip-path="url(#p162ef6a6b2)" d="M 362.412419 203.517665 
L 362.412419 195.69412 
" style="fill:none;stroke:#000000;stroke-width:1.5;"/>
    <path clip-path="url(#p162ef6a6b2)" d="M 371.186158 207.050176 
L 371.186158 198.039639 
" style="fill:none;stroke:#000000;stroke-width:1.5;"/>
    <path clip-path="url(#p162ef6a6b2)" d="M 381.52396 213.408402 
L 381.52396 204.503454 
" style="fill:none;stroke:#000000;stroke-width:1.5;"/>
    <path clip-path="url(#p162ef6a6b2)" d="M 390.642548 219.566946 
L 390.642548 208.834572 
" style="fill:none;stroke:#000000;stroke-width:1.5;"/>
    <path clip-path="url(#p162ef6a6b2)" d="M 398.799403 223.078522 
L 398.799403 211.86442 
" style="fill:none;stroke:#000000;stroke-width:1.5;"/>
    <path clip-path="url(#p162ef6a6b2)" d="M 407.917991 226.463657 
L 407.917991 215.461701 
" style="fill:none;stroke:#000000;stroke-width:1.5;"/>
    <path clip-path="url(#p162ef6a6b2)" d="M 416.074846 227.595907 
L 416.074846 216.223201 
" style="fill:none;stroke:#000000;stroke-width:1.5;"/>
    <path clip-path="url(#p162ef6a6b2)" d="M 424.848585 231.832715 
L 424.848585 219.873022 
" style="fill:none;stroke:#000000;stroke-width:1.5;"/>
    <path clip-path="url(#p162ef6a6b2)" d="M 432.728451 234.319512 
L 432.728451 221.671477 
" style="fill:none;stroke:#000000;stroke-width:1.5;"/>
    <path clip-path="url(#p162ef6a6b2)" d="M 441.010074 239.901779 
L 441.010074 225.419003 
" style="fill:none;stroke:#000000;stroke-width:1.5;"/>
    <path clip-path="url(#p162ef6a6b2)" d="M 449.502801 247.981732 
L 449.502801 233.060521 
" style="fill:none;stroke:#000000;stroke-width:1.5;"/>
    <path clip-path="url(#p162ef6a6b2)" d="M 458.060789 249.148984 
L 458.060789 234.719476 
" style="fill:none;stroke:#000000;stroke-width:1.5;"/>
    <path clip-path="url(#p162ef6a6b2)" d="M 465.766223 258.439351 
L 465.766223 242.023307 
" style="fill:none;stroke:#000000;stroke-width:1.5;"/>
    <path clip-path="url(#p162ef6a6b2)" d="M 474.248366 268.697285 
L 474.248366 251.889432 
" style="fill:none;stroke:#000000;stroke-width:1.5;"/>
    <path clip-path="url(#p162ef6a6b2)" d="M 482.551157 270.722119 
L 482.551157 254.410198 
" style="fill:none;stroke:#000000;stroke-width:1.5;"/>
    <path clip-path="url(#p162ef6a6b2)" d="M 490.642375 270.722119 
L 490.642375 254.410198 
" style="fill:none;stroke:#000000;stroke-width:1.5;"/>
    <path clip-path="url(#p162ef6a6b2)" d="M 498.503174 287.864075 
L 498.503174 261.332765 
" style="fill:none;stroke:#000000;stroke-width:1.5;"/>
    <path clip-path="url(#p162ef6a6b2)" d="M 506.606618 321.441469 
L 506.606618 274.087478 
" style="fill:none;stroke:#000000;stroke-width:1.5;"/>
    <path clip-path="url(#p162ef6a6b2)" d="M 514.377826 381.693927 
L 514.377826 283.324093 
" style="fill:none;stroke:#000000;stroke-width:1.5;"/>
    <path clip-path="url(#p162ef6a6b2)" d="M 0 0 
" style="fill:none;stroke:#000000;stroke-width:1.5;"/>
    <path clip-path="url(#p162ef6a6b2)" d="M 530.42577 433 
L 530.42577 292.023488 
" style="fill:none;stroke:#000000;stroke-width:1.5;"/>
    <path clip-path="url(#p162ef6a6b2)" d="M 0 0 
" style="fill:none;stroke:#000000;stroke-width:1.5;"/>
    <path clip-path="url(#p162ef6a6b2)" d="M 0 0 
" style="fill:none;stroke:#000000;stroke-width:1.5;"/>
    <path clip-path="url(#p162ef6a6b2)" d="M 0 0 
" style="fill:none;stroke:#000000;stroke-width:1.5;"/>
    <path clip-path="url(#p162ef6a6b2)" d="M 0 0 
" style="fill:none;stroke:#000000;stroke-width:1.5;"/>
    <path clip-path="url(#p162ef6a6b2)" d="M 0 0 
" style="fill:none;stroke:#000000;stroke-width:1.5;"/>
    <path clip-path="url(#p162ef6a6b2)" d="M 0 0 
" style="fill:none;stroke:#000000;stroke-width:1.5;"/>
   </g>
   <g id="line2d_68">
    <path clip-path="url(#p162ef6a6b2)" d="M 113.211822 139.387292 
L 166.874249 139.387292 
L 198.264757 169.130718 
L 220.536677 169.130718 
L 237.81212 169.130718 
L 251.927185 169.130718 
L 263.861302 169.130718 
L 283.317693 169.130718 
L 291.474548 169.130718 
L 305.589613 180.388951 
L 311.7864 180.388951 
L 322.865056 180.388951 
L 332.555001 184.910044 
L 345.136976 180.388951 
L 352.515748 184.910044 
L 362.412419 189.964196 
L 371.186158 189.964196 
L 381.52396 189.964196 
L 390.642548 189.964196 
L 398.799403 195.69412 
L 407.917991 202.308833 
L 416.074846 202.308833 
L 424.848585 202.308833 
L 432.728451 202.308833 
L 441.010074 202.308833 
L 449.502801 219.707622 
L 458.060789 219.707622 
L 465.766223 219.707622 
L 474.248366 232.05226 
L 482.551157 232.05226 
L 490.642375 232.05226 
L 498.503174 232.05226 
L 506.606618 249.451049 
L 514.377826 249.451049 
" style="fill:none;stroke:#008000;stroke-linecap:square;stroke-opacity:0.3;"/>
   </g>
   <g id="line2d_69">
    <path clip-path="url(#p162ef6a6b2)" d="M 113.211822 133.246735 
L 166.874249 133.246735 
L 198.264757 162.990162 
L 220.536677 162.990162 
L 237.81212 162.990162 
L 251.927185 162.990162 
L 263.861302 162.990162 
L 283.317693 162.990162 
L 291.474548 162.990162 
L 305.589613 165.950694 
L 311.7864 172.565407 
L 322.865056 172.565407 
L 332.555001 176.299125 
L 345.136976 180.388951 
L 352.515748 184.910044 
L 362.412419 189.964196 
L 371.186158 210.132378 
L 381.52396 210.132378 
L 390.642548 210.132378 
L 398.799403 210.132378 
L 407.917991 210.132378 
L 416.074846 210.132378 
L 424.848585 210.132378 
L 432.728451 210.132378 
L 441.010074 219.707622 
L 449.502801 219.707622 
L 458.060789 219.707622 
L 465.766223 232.05226 
L 474.248366 232.05226 
L 482.551157 232.05226 
L 490.642375 232.05226 
L 530.42577 279.194476 
" style="fill:none;stroke:#008000;stroke-linecap:square;stroke-opacity:0.3;"/>
   </g>
   <g id="line2d_70">
    <path clip-path="url(#p162ef6a6b2)" d="M 113.211822 82.450339 
L 166.874249 84.697485 
L 198.264757 121.988503 
L 220.536677 137.767828 
L 237.81212 146.555699 
L 251.927185 157.619325 
L 263.861302 169.130718 
L 283.317693 176.299125 
L 291.474548 180.388951 
L 305.589613 195.69412 
L 311.7864 210.132378 
L 322.865056 219.707622 
L 332.555001 219.707622 
L 345.136976 232.05226 
L 352.515748 232.05226 
L 362.412419 232.05226 
L 371.186158 232.05226 
L 381.52396 249.451049 
L 390.642548 249.451049 
L 398.799403 249.451049 
L 407.917991 249.451049 
L 416.074846 249.451049 
L 424.848585 249.451049 
" style="fill:none;stroke:#008000;stroke-linecap:square;stroke-opacity:0.3;"/>
   </g>
   <g id="line2d_71">
    <path clip-path="url(#p162ef6a6b2)" d="M 113.211822 165.950694 
L 166.874249 165.950694 
L 198.264757 195.69412 
L 220.536677 195.69412 
L 237.81212 195.69412 
L 251.927185 195.69412 
L 263.861302 195.69412 
L 283.317693 195.69412 
L 291.474548 195.69412 
L 305.589613 195.69412 
L 311.7864 195.69412 
L 322.865056 195.69412 
L 332.555001 195.69412 
L 345.136976 195.69412 
L 352.515748 195.69412 
L 362.412419 195.69412 
L 371.186158 195.69412 
L 381.52396 202.308833 
L 390.642548 202.308833 
L 398.799403 202.308833 
L 407.917991 202.308833 
L 416.074846 202.308833 
L 424.848585 202.308833 
L 432.728451 202.308833 
L 441.010074 202.308833 
L 449.502801 210.132378 
L 458.060789 210.132378 
L 465.766223 210.132378 
L 474.248366 219.707622 
L 482.551157 219.707622 
L 490.642375 219.707622 
L 498.503174 219.707622 
L 506.606618 219.707622 
L 514.377826 219.707622 
L 522.229626 219.707622 
L 530.42577 232.05226 
L 538.157247 232.05226 
L 546.057749 232.05226 
L 554.012127 232.05226 
L 561.698352 249.451049 
L 569.547755 249.451049 
L 577.448257 279.194476 
" style="fill:none;stroke:#008000;stroke-linecap:square;stroke-opacity:0.3;"/>
   </g>
   <g id="line2d_72">
    <path clip-path="url(#p162ef6a6b2)" d="M 113.211822 150.645524 
L 166.874249 150.645524 
L 198.264757 180.388951 
L 220.536677 180.388951 
L 237.81212 180.388951 
L 251.927185 180.388951 
L 263.861302 180.388951 
L 283.317693 180.388951 
L 291.474548 184.910044 
L 305.589613 184.910044 
L 311.7864 184.910044 
L 322.865056 189.964196 
L 332.555001 184.910044 
L 345.136976 184.910044 
L 352.515748 195.69412 
L 362.412419 195.69412 
L 371.186158 195.69412 
L 381.52396 202.308833 
L 390.642548 202.308833 
L 398.799403 219.707622 
L 407.917991 219.707622 
L 416.074846 219.707622 
L 424.848585 232.05226 
L 432.728451 232.05226 
L 441.010074 232.05226 
L 449.502801 232.05226 
L 458.060789 232.05226 
L 465.766223 232.05226 
L 474.248366 232.05226 
L 482.551157 232.05226 
L 490.642375 232.05226 
L 498.503174 232.05226 
L 506.606618 279.194476 
" style="fill:none;stroke:#008000;stroke-linecap:square;stroke-opacity:0.3;"/>
   </g>
   <g id="line2d_73">
    <path clip-path="url(#p162ef6a6b2)" d="M 113.211822 130.477343 
L 166.874249 130.477343 
L 198.264757 162.990162 
L 220.536677 165.950694 
L 237.81212 172.565407 
L 251.927185 176.299125 
L 263.861302 180.388951 
L 283.317693 184.910044 
L 291.474548 184.910044 
L 305.589613 195.69412 
L 311.7864 195.69412 
L 322.865056 202.308833 
L 332.555001 202.308833 
L 345.136976 202.308833 
L 352.515748 210.132378 
L 362.412419 210.132378 
L 371.186158 210.132378 
L 381.52396 210.132378 
L 390.642548 210.132378 
L 398.799403 202.308833 
L 407.917991 210.132378 
L 416.074846 210.132378 
L 424.848585 210.132378 
L 432.728451 210.132378 
L 441.010074 210.132378 
L 449.502801 210.132378 
L 458.060789 210.132378 
L 465.766223 219.707622 
L 474.248366 249.451049 
L 482.551157 249.451049 
L 490.642375 249.451049 
L 498.503174 279.194476 
" style="fill:none;stroke:#008000;stroke-linecap:square;stroke-opacity:0.3;"/>
   </g>
   <g id="line2d_74">
    <path clip-path="url(#p162ef6a6b2)" d="M 113.211822 82.450339 
L 166.874249 86.583974 
L 198.264757 126.632023 
L 220.536677 131.839701 
L 237.81212 146.555699 
L 251.927185 165.950694 
L 263.861302 184.910044 
L 283.317693 189.964196 
L 291.474548 195.69412 
L 305.589613 195.69412 
L 311.7864 210.132378 
L 322.865056 219.707622 
L 332.555001 219.707622 
L 345.136976 219.707622 
L 352.515748 232.05226 
L 362.412419 232.05226 
L 371.186158 249.451049 
L 381.52396 249.451049 
L 390.642548 249.451049 
L 398.799403 249.451049 
L 407.917991 249.451049 
L 416.074846 249.451049 
L 424.848585 249.451049 
L 432.728451 249.451049 
L 441.010074 249.451049 
L 449.502801 279.194476 
" style="fill:none;stroke:#008000;stroke-linecap:square;stroke-opacity:0.3;"/>
   </g>
   <g id="line2d_75">
    <path clip-path="url(#p162ef6a6b2)" d="M 113.211822 83.335127 
L 166.874249 83.335127 
L 198.264757 114.904816 
L 220.536677 115.847946 
L 237.81212 117.798768 
L 251.927185 124.247482 
L 263.861302 133.246735 
L 283.317693 148.551905 
L 291.474548 152.846555 
L 305.589613 160.220769 
L 311.7864 172.565407 
L 322.865056 176.299125 
L 332.555001 180.388951 
L 345.136976 189.964196 
L 352.515748 202.308833 
L 362.412419 202.308833 
L 371.186158 202.308833 
L 381.52396 210.132378 
L 390.642548 249.451049 
L 398.799403 279.194476 
L 407.917991 279.194476 
L 416.074846 279.194476 
L 424.848585 279.194476 
L 432.728451 279.194476 
L 441.010074 279.194476 
" style="fill:none;stroke:#008000;stroke-linecap:square;stroke-opacity:0.3;"/>
   </g>
   <g id="line2d_76">
    <path clip-path="url(#p162ef6a6b2)" d="M 113.211822 102.096275 
L 166.874249 103.503309 
L 198.264757 134.701474 
L 220.536677 139.387292 
L 237.81212 142.82198 
L 251.927185 144.648243 
L 263.861302 148.551905 
L 283.317693 160.220769 
L 291.474548 165.950694 
L 305.589613 162.990162 
L 311.7864 169.130718 
L 322.865056 176.299125 
L 332.555001 180.388951 
L 345.136976 184.910044 
L 352.515748 195.69412 
L 362.412419 202.308833 
L 371.186158 210.132378 
L 381.52396 210.132378 
L 390.642548 219.707622 
L 398.799403 219.707622 
L 407.917991 232.05226 
L 416.074846 232.05226 
L 424.848585 232.05226 
L 432.728451 232.05226 
L 441.010074 249.451049 
L 449.502801 249.451049 
L 458.060789 249.451049 
" style="fill:none;stroke:#008000;stroke-linecap:square;stroke-opacity:0.3;"/>
   </g>
   <g id="line2d_77">
    <path clip-path="url(#p162ef6a6b2)" d="M 113.211822 116.812272 
L 166.874249 116.812272 
L 198.264757 146.555699 
L 220.536677 146.555699 
L 237.81212 155.166617 
L 251.927185 157.619325 
L 263.861302 162.990162 
L 283.317693 165.950694 
L 291.474548 172.565407 
L 305.589613 176.299125 
L 311.7864 176.299125 
L 322.865056 180.388951 
L 332.555001 189.964196 
L 345.136976 195.69412 
L 352.515748 195.69412 
L 362.412419 202.308833 
L 371.186158 202.308833 
L 381.52396 219.707622 
L 390.642548 232.05226 
L 398.799403 232.05226 
L 407.917991 232.05226 
L 416.074846 232.05226 
L 424.848585 232.05226 
L 432.728451 232.05226 
L 441.010074 232.05226 
L 449.502801 232.05226 
L 458.060789 232.05226 
L 465.766223 249.451049 
L 474.248366 279.194476 
L 482.551157 279.194476 
L 490.642375 279.194476 
L 498.503174 279.194476 
L 506.606618 279.194476 
" style="fill:none;stroke:#008000;stroke-linecap:square;stroke-opacity:0.3;"/>
   </g>
   <g id="line2d_78">
    <path clip-path="url(#p162ef6a6b2)" d="M 113.211822 109.643865 
L 166.874249 109.643865 
L 198.264757 139.387292 
L 220.536677 139.387292 
L 237.81212 142.82198 
L 251.927185 146.555699 
L 263.861302 152.846555 
L 283.317693 152.846555 
L 291.474548 162.990162 
L 305.589613 169.130718 
L 311.7864 176.299125 
L 322.865056 176.299125 
L 332.555001 176.299125 
L 345.136976 176.299125 
L 352.515748 180.388951 
L 362.412419 184.910044 
L 371.186158 184.910044 
L 381.52396 195.69412 
L 390.642548 202.308833 
L 398.799403 202.308833 
L 407.917991 202.308833 
L 416.074846 202.308833 
L 424.848585 219.707622 
L 432.728451 219.707622 
L 441.010074 249.451049 
L 449.502801 249.451049 
L 458.060789 249.451049 
L 465.766223 249.451049 
L 474.248366 249.451049 
L 482.551157 249.451049 
L 490.642375 249.451049 
L 498.503174 249.451049 
L 506.606618 279.194476 
" style="fill:none;stroke:#008000;stroke-linecap:square;stroke-opacity:0.3;"/>
   </g>
   <g id="line2d_79">
    <path clip-path="url(#p162ef6a6b2)" d="M 113.211822 99.413483 
L 166.874249 99.413483 
L 198.264757 129.156909 
L 220.536677 129.156909 
L 237.81212 129.156909 
L 251.927185 130.477343 
L 263.861302 136.207267 
L 283.317693 144.648243 
L 291.474548 150.645524 
L 305.589613 155.166617 
L 311.7864 155.166617 
L 322.865056 169.130718 
L 332.555001 176.299125 
L 345.136976 176.299125 
L 352.515748 176.299125 
L 362.412419 184.910044 
L 371.186158 184.910044 
L 381.52396 195.69412 
L 390.642548 202.308833 
L 398.799403 210.132378 
L 407.917991 219.707622 
L 416.074846 232.05226 
L 424.848585 249.451049 
L 432.728451 249.451049 
L 441.010074 249.451049 
L 449.502801 279.194476 
L 458.060789 279.194476 
L 465.766223 279.194476 
L 474.248366 279.194476 
" style="fill:none;stroke:#008000;stroke-linecap:square;stroke-opacity:0.3;"/>
   </g>
   <g id="line2d_80">
    <defs>
     <path d="M 3 0 
L -3 -0 
" id="mb516ac14e8" style="stroke:#000000;"/>
    </defs>
    <g clip-path="url(#p162ef6a6b2)">
     <use style="stroke:#000000;" x="113.211822" xlink:href="#mb516ac14e8" y="116.58757"/>
     <use style="stroke:#000000;" x="166.874249" xlink:href="#mb516ac14e8" y="117.379073"/>
     <use style="stroke:#000000;" x="198.264757" xlink:href="#mb516ac14e8" y="149.448705"/>
     <use style="stroke:#000000;" x="220.536677" xlink:href="#mb516ac14e8" y="152.352685"/>
     <use style="stroke:#000000;" x="237.81212" xlink:href="#mb516ac14e8" y="156.867152"/>
     <use style="stroke:#000000;" x="251.927185" xlink:href="#mb516ac14e8" y="161.364139"/>
     <use style="stroke:#000000;" x="263.861302" xlink:href="#mb516ac14e8" y="166.851901"/>
     <use style="stroke:#000000;" x="283.317693" xlink:href="#mb516ac14e8" y="171.377971"/>
     <use style="stroke:#000000;" x="291.474548" xlink:href="#mb516ac14e8" y="175.320332"/>
     <use style="stroke:#000000;" x="305.589613" xlink:href="#mb516ac14e8" y="180.276373"/>
     <use style="stroke:#000000;" x="311.7864" xlink:href="#mb516ac14e8" y="185.259934"/>
     <use style="stroke:#000000;" x="322.865056" xlink:href="#mb516ac14e8" y="189.78394"/>
     <use style="stroke:#000000;" x="332.555001" xlink:href="#mb516ac14e8" y="192.213963"/>
     <use style="stroke:#000000;" x="345.136976" xlink:href="#mb516ac14e8" y="194.70453"/>
     <use style="stroke:#000000;" x="352.515748" xlink:href="#mb516ac14e8" y="200.407851"/>
     <use style="stroke:#000000;" x="362.412419" xlink:href="#mb516ac14e8" y="203.517665"/>
     <use style="stroke:#000000;" x="371.186158" xlink:href="#mb516ac14e8" y="207.050176"/>
     <use style="stroke:#000000;" x="381.52396" xlink:href="#mb516ac14e8" y="213.408402"/>
     <use style="stroke:#000000;" x="390.642548" xlink:href="#mb516ac14e8" y="219.566946"/>
     <use style="stroke:#000000;" x="398.799403" xlink:href="#mb516ac14e8" y="223.078522"/>
     <use style="stroke:#000000;" x="407.917991" xlink:href="#mb516ac14e8" y="226.463657"/>
     <use style="stroke:#000000;" x="416.074846" xlink:href="#mb516ac14e8" y="227.595907"/>
     <use style="stroke:#000000;" x="424.848585" xlink:href="#mb516ac14e8" y="231.832715"/>
     <use style="stroke:#000000;" x="432.728451" xlink:href="#mb516ac14e8" y="234.319512"/>
     <use style="stroke:#000000;" x="441.010074" xlink:href="#mb516ac14e8" y="239.901779"/>
     <use style="stroke:#000000;" x="449.502801" xlink:href="#mb516ac14e8" y="247.981732"/>
     <use style="stroke:#000000;" x="458.060789" xlink:href="#mb516ac14e8" y="249.148984"/>
     <use style="stroke:#000000;" x="465.766223" xlink:href="#mb516ac14e8" y="258.439351"/>
     <use style="stroke:#000000;" x="474.248366" xlink:href="#mb516ac14e8" y="268.697285"/>
     <use style="stroke:#000000;" x="482.551157" xlink:href="#mb516ac14e8" y="270.722119"/>
     <use style="stroke:#000000;" x="490.642375" xlink:href="#mb516ac14e8" y="270.722119"/>
     <use style="stroke:#000000;" x="498.503174" xlink:href="#mb516ac14e8" y="287.864075"/>
     <use style="stroke:#000000;" x="506.606618" xlink:href="#mb516ac14e8" y="321.441469"/>
     <use style="stroke:#000000;" x="514.377826" xlink:href="#mb516ac14e8" y="381.693927"/>
    </g>
   </g>
   <g id="line2d_81">
    <g clip-path="url(#p162ef6a6b2)">
     <use style="stroke:#000000;" x="113.211822" xlink:href="#mb516ac14e8" y="102.025514"/>
     <use style="stroke:#000000;" x="166.874249" xlink:href="#mb516ac14e8" y="103.329134"/>
     <use style="stroke:#000000;" x="198.264757" xlink:href="#mb516ac14e8" y="136.564816"/>
     <use style="stroke:#000000;" x="220.536677" xlink:href="#mb516ac14e8" y="140.030142"/>
     <use style="stroke:#000000;" x="237.81212" xlink:href="#mb516ac14e8" y="144.277859"/>
     <use style="stroke:#000000;" x="251.927185" xlink:href="#mb516ac14e8" y="149.05748"/>
     <use style="stroke:#000000;" x="263.861302" xlink:href="#mb516ac14e8" y="155.267749"/>
     <use style="stroke:#000000;" x="283.317693" xlink:href="#mb516ac14e8" y="162.056466"/>
     <use style="stroke:#000000;" x="291.474548" xlink:href="#mb516ac14e8" y="166.735721"/>
     <use style="stroke:#000000;" x="305.589613" xlink:href="#mb516ac14e8" y="171.481194"/>
     <use style="stroke:#000000;" x="311.7864" xlink:href="#mb516ac14e8" y="176.014959"/>
     <use style="stroke:#000000;" x="322.865056" xlink:href="#mb516ac14e8" y="181.257366"/>
     <use style="stroke:#000000;" x="332.555001" xlink:href="#mb516ac14e8" y="184.552548"/>
     <use style="stroke:#000000;" x="345.136976" xlink:href="#mb516ac14e8" y="186.512877"/>
     <use style="stroke:#000000;" x="352.515748" xlink:href="#mb516ac14e8" y="191.447322"/>
     <use style="stroke:#000000;" x="362.412419" xlink:href="#mb516ac14e8" y="195.69412"/>
     <use style="stroke:#000000;" x="371.186158" xlink:href="#mb516ac14e8" y="198.039639"/>
     <use style="stroke:#000000;" x="381.52396" xlink:href="#mb516ac14e8" y="204.503454"/>
     <use style="stroke:#000000;" x="390.642548" xlink:href="#mb516ac14e8" y="208.834572"/>
     <use style="stroke:#000000;" x="398.799403" xlink:href="#mb516ac14e8" y="211.86442"/>
     <use style="stroke:#000000;" x="407.917991" xlink:href="#mb516ac14e8" y="215.461701"/>
     <use style="stroke:#000000;" x="416.074846" xlink:href="#mb516ac14e8" y="216.223201"/>
     <use style="stroke:#000000;" x="424.848585" xlink:href="#mb516ac14e8" y="219.873022"/>
     <use style="stroke:#000000;" x="432.728451" xlink:href="#mb516ac14e8" y="221.671477"/>
     <use style="stroke:#000000;" x="441.010074" xlink:href="#mb516ac14e8" y="225.419003"/>
     <use style="stroke:#000000;" x="449.502801" xlink:href="#mb516ac14e8" y="233.060521"/>
     <use style="stroke:#000000;" x="458.060789" xlink:href="#mb516ac14e8" y="234.719476"/>
     <use style="stroke:#000000;" x="465.766223" xlink:href="#mb516ac14e8" y="242.023307"/>
     <use style="stroke:#000000;" x="474.248366" xlink:href="#mb516ac14e8" y="251.889432"/>
     <use style="stroke:#000000;" x="482.551157" xlink:href="#mb516ac14e8" y="254.410198"/>
     <use style="stroke:#000000;" x="490.642375" xlink:href="#mb516ac14e8" y="254.410198"/>
     <use style="stroke:#000000;" x="498.503174" xlink:href="#mb516ac14e8" y="261.332765"/>
     <use style="stroke:#000000;" x="506.606618" xlink:href="#mb516ac14e8" y="274.087478"/>
     <use style="stroke:#000000;" x="514.377826" xlink:href="#mb516ac14e8" y="283.324093"/>
     <use style="stroke:#000000;" x="530.42577" xlink:href="#mb516ac14e8" y="292.023488"/>
    </g>
   </g>
   <g id="line2d_82">
    <path clip-path="url(#p162ef6a6b2)" d="M 113.211822 167.630916 
L 179.066859 167.86925 
L 238.173769 168.349927 
L 271.297219 168.83605 
L 303.82184 169.575718 
L 326.654647 170.32836 
L 344.264682 171.09444 
L 362.846195 172.13763 
L 377.81989 173.206813 
L 390.361537 174.30332 
L 403.629828 175.714569 
L 414.953386 177.173814 
L 424.830088 178.684436 
L 433.588134 180.250184 
L 441.455342 181.875235 
L 448.596322 183.564257 
L 455.133894 185.322496 
L 461.162134 187.155867 
L 466.754702 189.071078 
L 471.970349 191.07578 
L 476.856688 193.178748 
L 481.452846 195.390112 
L 485.791365 197.721659 
L 489.899603 200.187206 
L 493.800777 202.8031 
L 497.514762 205.588875 
L 501.058704 208.568136 
L 504.447494 211.769782 
L 507.055618 214.515045 
L 509.578734 217.448017 
L 512.022209 220.596263 
L 514.390917 223.993906 
L 516.689298 227.683885 
L 518.921408 231.721283 
L 521.090962 236.178384 
L 523.20137 241.152679 
L 524.747261 245.302595 
L 526.262886 249.897246 
L 527.749409 255.043523 
L 529.207925 260.892186 
L 530.639472 267.66573 
L 532.045028 275.712629 
L 532.968085 282.060396 
L 533.880267 289.512986 
L 534.781825 298.537742 
L 535.673006 309.980306 
L 536.554045 325.629922 
L 536.990832 336.293904 
L 537.42517 350.516833 
L 537.857084 371.938448 
L 538.286602 416.672583 
L 538.286672 433 
L 538.286672 433 
" style="fill:none;stroke:#000000;stroke-dasharray:7.4,3.2;stroke-dashoffset:0;stroke-width:2;"/>
   </g>
   <g id="line2d_83">
    <path clip-path="url(#p162ef6a6b2)" d="M 113.211822 108.691766 
L 179.066859 119.246415 
L 214.129227 147.568906 
L 238.173769 150.265295 
L 256.493625 156.799229 
L 271.297219 163.383279 
L 283.719421 166.63291 
L 294.421278 172.06115 
L 303.82184 174.799977 
L 312.203538 180.703053 
L 319.765788 184.417066 
L 326.654647 186.501319 
L 332.980295 188.297498 
L 338.827906 188.973495 
L 344.264682 190.044742 
L 349.344581 193.209675 
L 354.111583 196.71571 
L 358.602007 198.552006 
L 362.846195 199.525598 
L 366.869753 200.621198 
L 370.694492 202.08232 
L 374.339138 203.990106 
L 377.81989 206.207091 
L 384.344402 210.52164 
L 387.411413 212.271328 
L 390.361537 213.737774 
L 395.944546 216.009088 
L 401.151878 218.094029 
L 406.03092 220.071028 
L 408.359777 220.703992 
L 410.620621 221.003036 
L 414.953386 221.334719 
L 417.032104 221.788603 
L 419.056464 222.558479 
L 424.830088 225.429661 
L 426.662754 226.096311 
L 430.202856 226.946364 
L 433.588134 227.792556 
L 435.226834 228.412961 
L 436.831566 229.184697 
L 438.403709 230.110142 
L 439.94456 231.193225 
L 441.455342 232.439239 
L 444.391236 235.294857 
L 447.21985 238.115924 
L 448.596322 239.272651 
L 449.948748 240.112939 
L 451.277954 240.598283 
L 452.584723 240.816193 
L 456.377679 240.94095 
L 457.601797 241.174147 
L 458.80686 241.685319 
L 459.993454 242.494471 
L 461.162134 243.55599 
L 462.313435 244.822396 
L 464.565912 247.761312 
L 468.883308 253.688088 
L 470.954951 256.229367 
L 472.972601 258.361241 
L 474.939 259.989197 
L 476.856688 261.076992 
L 478.72802 261.683624 
L 480.555185 261.89688 
L 482.340219 261.81931 
L 488.282373 261.147529 
L 489.899603 261.474031 
L 490.695723 261.823823 
L 491.483739 262.321158 
L 493.03611 263.732005 
L 494.557964 265.635624 
L 496.050478 267.957765 
L 497.514762 270.615351 
L 499.660534 275.009298 
L 502.432071 281.314087 
L 510.196871 299.801494 
L 515.548636 311.694985 
L 520.554246 323.591212 
L 521.623982 325.497273 
L 522.679137 326.825169 
L 523.720104 327.53199 
L 524.747261 327.728402 
L 525.760967 327.556498 
L 527.257066 326.941025 
L 528.7248 326.34692 
L 529.688055 326.20289 
L 530.639472 326.426668 
L 531.579339 327.098373 
L 532.507932 328.160325 
L 533.425519 329.540303 
L 534.781825 332.040642 
L 537.857084 338.192242 
L 538.71375 339.467189 
L 539.56104 340.359686 
L 540.399157 340.896177 
L 541.228299 341.115955 
L 542.048654 341.066998 
L 542.860408 340.802763 
L 544.062299 340.125272 
L 547.938964 337.523404 
L 549.065095 337.059789 
L 550.17508 336.831832 
L 551.269376 336.884401 
L 551.990406 337.099706 
L 552.704783 337.478593 
L 553.412629 338.04023 
L 554.114061 338.806891 
L 555.154435 340.360686 
L 556.181014 342.337712 
L 557.528948 345.48338 
L 561.754379 356.186421 
L 562.697577 357.648029 
L 563.320052 358.281772 
L 563.937562 358.667075 
L 564.550185 358.831101 
L 565.157998 358.805236 
L 566.060864 358.485475 
L 567.248535 357.72165 
L 569.570577 356.067843 
L 570.423696 355.732364 
L 570.987264 355.676868 
L 571.546758 355.792008 
L 572.102239 356.111039 
L 572.653762 356.67084 
L 573.201384 357.513882 
L 573.745159 358.690928 
L 574.285142 360.264926 
L 574.821384 362.316858 
L 575.618847 366.538737 
L 576.145962 370.3595 
L 576.669512 375.290449 
L 577.189545 381.774664 
L 577.448257 385.823545 
L 577.448257 385.823545 
" style="fill:none;stroke:#008000;stroke-dasharray:7.4,3.2;stroke-dashoffset:0;stroke-width:2;"/>
   </g>
   <g id="line2d_84">
    <path clip-path="url(#p162ef6a6b2)" d="M 113.211822 146.984146 
L 166.874249 149.023143 
L 198.264757 151.160382 
L 220.536677 153.404479 
L 237.81212 155.764466 
L 251.927185 158.24914 
L 263.861302 160.865662 
L 283.317693 166.49569 
L 291.474548 169.515236 
L 305.589613 174.894067 
L 311.7864 176.565654 
L 322.865056 179.868545 
L 332.555001 183.857638 
L 345.136976 189.394009 
L 352.515748 193.100618 
L 362.412419 198.05041 
L 371.186158 202.010484 
L 381.52396 206.732546 
L 390.642548 210.681083 
L 398.799403 214.145615 
L 407.917991 217.988518 
L 416.074846 221.164082 
L 424.848585 224.804648 
L 432.728451 228.220042 
L 441.010074 232.078192 
L 449.502801 236.787515 
L 458.060789 242.229328 
L 465.766223 247.14954 
L 474.248366 252.464277 
L 482.551157 258.637348 
L 490.642375 266.048991 
L 498.503174 274.649408 
L 506.606618 284.575927 
L 514.377826 294.830752 
L 522.229626 305.816067 
L 530.42577 317.2662 
L 538.157247 327.132512 
L 546.057749 335.670392 
L 554.012127 342.579909 
L 561.698352 351.429485 
L 569.547755 363.795729 
L 577.448257 382.94395 
" style="fill:none;stroke:#800080;stroke-dasharray:7.4,3.2;stroke-dashoffset:0;stroke-width:2;"/>
   </g>
   <g id="line2d_85">
    <defs>
     <path d="M 0 3 
C 0.795609 3 1.55874 2.683901 2.12132 2.12132 
C 2.683901 1.55874 3 0.795609 3 0 
C 3 -0.795609 2.683901 -1.55874 2.12132 -2.12132 
C 1.55874 -2.683901 0.795609 -3 0 -3 
C -0.795609 -3 -1.55874 -2.683901 -2.12132 -2.12132 
C -2.683901 -1.55874 -3 -0.795609 -3 0 
C -3 0.795609 -2.683901 1.55874 -2.12132 2.12132 
C -1.55874 2.683901 -0.795609 3 0 3 
z
" id="m912dc16410" style="stroke:#000000;"/>
    </defs>
    <g clip-path="url(#p162ef6a6b2)">
     <use style="stroke:#000000;" x="113.211822" xlink:href="#m912dc16410" y="108.691766"/>
     <use style="stroke:#000000;" x="166.874249" xlink:href="#m912dc16410" y="109.78162"/>
     <use style="stroke:#000000;" x="198.264757" xlink:href="#m912dc16410" y="142.525019"/>
     <use style="stroke:#000000;" x="220.536677" xlink:href="#m912dc16410" y="145.750596"/>
     <use style="stroke:#000000;" x="237.81212" xlink:href="#m912dc16410" y="150.112466"/>
     <use style="stroke:#000000;" x="251.927185" xlink:href="#m912dc16410" y="154.771124"/>
     <use style="stroke:#000000;" x="263.861302" xlink:href="#m912dc16410" y="160.6701"/>
     <use style="stroke:#000000;" x="283.317693" xlink:href="#m912dc16410" y="166.464601"/>
     <use style="stroke:#000000;" x="291.474548" xlink:href="#m912dc16410" y="170.813706"/>
     <use style="stroke:#000000;" x="305.589613" xlink:href="#m912dc16410" y="175.653839"/>
     <use style="stroke:#000000;" x="311.7864" xlink:href="#m912dc16410" y="180.388951"/>
     <use style="stroke:#000000;" x="322.865056" xlink:href="#m912dc16410" y="185.309216"/>
     <use style="stroke:#000000;" x="332.555001" xlink:href="#m912dc16410" y="188.212496"/>
     <use style="stroke:#000000;" x="345.136976" xlink:href="#m912dc16410" y="190.413526"/>
     <use style="stroke:#000000;" x="352.515748" xlink:href="#m912dc16410" y="195.69412"/>
     <use style="stroke:#000000;" x="362.412419" xlink:href="#m912dc16410" y="199.427839"/>
     <use style="stroke:#000000;" x="371.186158" xlink:href="#m912dc16410" y="202.308833"/>
     <use style="stroke:#000000;" x="381.52396" xlink:href="#m912dc16410" y="208.725344"/>
     <use style="stroke:#000000;" x="390.642548" xlink:href="#m912dc16410" y="213.866096"/>
     <use style="stroke:#000000;" x="398.799403" xlink:href="#m912dc16410" y="217.106178"/>
     <use style="stroke:#000000;" x="407.917991" xlink:href="#m912dc16410" y="220.611039"/>
     <use style="stroke:#000000;" x="416.074846" xlink:href="#m912dc16410" y="221.533885"/>
     <use style="stroke:#000000;" x="424.848585" xlink:href="#m912dc16410" y="225.437547"/>
     <use style="stroke:#000000;" x="432.728451" xlink:href="#m912dc16410" y="227.531167"/>
     <use style="stroke:#000000;" x="441.010074" xlink:href="#m912dc16410" y="232.05226"/>
     <use style="stroke:#000000;" x="449.502801" xlink:href="#m912dc16410" y="239.875804"/>
     <use style="stroke:#000000;" x="458.060789" xlink:href="#m912dc16410" y="241.330543"/>
     <use style="stroke:#000000;" x="465.766223" xlink:href="#m912dc16410" y="249.451049"/>
     <use style="stroke:#000000;" x="474.248366" xlink:href="#m912dc16410" y="259.475624"/>
     <use style="stroke:#000000;" x="482.551157" xlink:href="#m912dc16410" y="261.795686"/>
     <use style="stroke:#000000;" x="490.642375" xlink:href="#m912dc16410" y="261.795686"/>
     <use style="stroke:#000000;" x="498.503174" xlink:href="#m912dc16410" y="272.579763"/>
     <use style="stroke:#000000;" x="506.606618" xlink:href="#m912dc16410" y="291.539113"/>
     <use style="stroke:#000000;" x="514.377826" xlink:href="#m912dc16410" y="308.937902"/>
     <use style="stroke:#000000;" x="522.229626" xlink:href="#m912dc16410" y="326.336691"/>
     <use style="stroke:#000000;" x="530.42577" xlink:href="#m912dc16410" y="326.336691"/>
     <use style="stroke:#000000;" x="538.157247" xlink:href="#m912dc16410" y="338.681329"/>
     <use style="stroke:#000000;" x="546.057749" xlink:href="#m912dc16410" y="338.681329"/>
     <use style="stroke:#000000;" x="554.012127" xlink:href="#m912dc16410" y="338.681329"/>
     <use style="stroke:#000000;" x="561.698352" xlink:href="#m912dc16410" y="356.080118"/>
     <use style="stroke:#000000;" x="569.547755" xlink:href="#m912dc16410" y="356.080118"/>
     <use style="stroke:#000000;" x="577.448257" xlink:href="#m912dc16410" y="385.823545"/>
    </g>
   </g>
   <g id="patch_3">
    <path d="M 90 378 
L 90 51.84 
" style="fill:none;stroke:#000000;stroke-linecap:square;stroke-linejoin:miter;stroke-width:0.8;"/>
   </g>
   <g id="patch_4">
    <path d="M 648 378 
L 648 51.84 
" style="fill:none;stroke:#000000;stroke-linecap:square;stroke-linejoin:miter;stroke-width:0.8;"/>
   </g>
   <g id="patch_5">
    <path d="M 90 378 
L 648 378 
" style="fill:none;stroke:#000000;stroke-linecap:square;stroke-linejoin:miter;stroke-width:0.8;"/>
   </g>
   <g id="patch_6">
    <path d="M 90 51.84 
L 648 51.84 
" style="fill:none;stroke:#000000;stroke-linecap:square;stroke-linejoin:miter;stroke-width:0.8;"/>
   </g>
   <g id="text_11">
    <!-- Average Pellet Count vs Price Paid by Subject -->
    <g transform="translate(233.11875 45.84)scale(0.12 -0.12)">
     <defs>
      <path d="M 44.28125 53.078125 
L 44.28125 44.578125 
Q 40.484375 46.53125 36.375 47.5 
Q 32.28125 48.484375 27.875 48.484375 
Q 21.1875 48.484375 17.84375 46.4375 
Q 14.5 44.390625 14.5 40.28125 
Q 14.5 37.15625 16.890625 35.375 
Q 19.28125 33.59375 26.515625 31.984375 
L 29.59375 31.296875 
Q 39.15625 29.25 43.1875 25.515625 
Q 47.21875 21.78125 47.21875 15.09375 
Q 47.21875 7.46875 41.1875 3.015625 
Q 35.15625 -1.421875 24.609375 -1.421875 
Q 20.21875 -1.421875 15.453125 -0.5625 
Q 10.6875 0.296875 5.421875 2 
L 5.421875 11.28125 
Q 10.40625 8.6875 15.234375 7.390625 
Q 20.0625 6.109375 24.8125 6.109375 
Q 31.15625 6.109375 34.5625 8.28125 
Q 37.984375 10.453125 37.984375 14.40625 
Q 37.984375 18.0625 35.515625 20.015625 
Q 33.0625 21.96875 24.703125 23.78125 
L 21.578125 24.515625 
Q 13.234375 26.265625 9.515625 29.90625 
Q 5.8125 33.546875 5.8125 39.890625 
Q 5.8125 47.609375 11.28125 51.796875 
Q 16.75 56 26.8125 56 
Q 31.78125 56 36.171875 55.265625 
Q 40.578125 54.546875 44.28125 53.078125 
z
" id="DejaVuSans-115"/>
      <path d="M 48.6875 27.296875 
Q 48.6875 37.203125 44.609375 42.84375 
Q 40.53125 48.484375 33.40625 48.484375 
Q 26.265625 48.484375 22.1875 42.84375 
Q 18.109375 37.203125 18.109375 27.296875 
Q 18.109375 17.390625 22.1875 11.75 
Q 26.265625 6.109375 33.40625 6.109375 
Q 40.53125 6.109375 44.609375 11.75 
Q 48.6875 17.390625 48.6875 27.296875 
z
M 18.109375 46.390625 
Q 20.953125 51.265625 25.265625 53.625 
Q 29.59375 56 35.59375 56 
Q 45.5625 56 51.78125 48.09375 
Q 58.015625 40.1875 58.015625 27.296875 
Q 58.015625 14.40625 51.78125 6.484375 
Q 45.5625 -1.421875 35.59375 -1.421875 
Q 29.59375 -1.421875 25.265625 0.953125 
Q 20.953125 3.328125 18.109375 8.203125 
L 18.109375 0 
L 9.078125 0 
L 9.078125 75.984375 
L 18.109375 75.984375 
z
" id="DejaVuSans-98"/>
      <path d="M 32.171875 -5.078125 
Q 28.375 -14.84375 24.75 -17.8125 
Q 21.140625 -20.796875 15.09375 -20.796875 
L 7.90625 -20.796875 
L 7.90625 -13.28125 
L 13.1875 -13.28125 
Q 16.890625 -13.28125 18.9375 -11.515625 
Q 21 -9.765625 23.484375 -3.21875 
L 25.09375 0.875 
L 2.984375 54.6875 
L 12.5 54.6875 
L 29.59375 11.921875 
L 46.6875 54.6875 
L 56.203125 54.6875 
z
" id="DejaVuSans-121"/>
      <path d="M 53.515625 70.515625 
L 53.515625 60.890625 
Q 47.90625 63.578125 42.921875 64.890625 
Q 37.9375 66.21875 33.296875 66.21875 
Q 25.25 66.21875 20.875 63.09375 
Q 16.5 59.96875 16.5 54.203125 
Q 16.5 49.359375 19.40625 46.890625 
Q 22.3125 44.4375 30.421875 42.921875 
L 36.375 41.703125 
Q 47.40625 39.59375 52.65625 34.296875 
Q 57.90625 29 57.90625 20.125 
Q 57.90625 9.515625 50.796875 4.046875 
Q 43.703125 -1.421875 29.984375 -1.421875 
Q 24.8125 -1.421875 18.96875 -0.25 
Q 13.140625 0.921875 6.890625 3.21875 
L 6.890625 13.375 
Q 12.890625 10.015625 18.65625 8.296875 
Q 24.421875 6.59375 29.984375 6.59375 
Q 38.421875 6.59375 43.015625 9.90625 
Q 47.609375 13.234375 47.609375 19.390625 
Q 47.609375 24.75 44.3125 27.78125 
Q 41.015625 30.8125 33.5 32.328125 
L 27.484375 33.5 
Q 16.453125 35.6875 11.515625 40.375 
Q 6.59375 45.0625 6.59375 53.421875 
Q 6.59375 63.09375 13.40625 68.65625 
Q 20.21875 74.21875 32.171875 74.21875 
Q 37.3125 74.21875 42.625 73.28125 
Q 47.953125 72.359375 53.515625 70.515625 
z
" id="DejaVuSans-83"/>
      <path d="M 9.421875 54.6875 
L 18.40625 54.6875 
L 18.40625 -0.984375 
Q 18.40625 -11.421875 14.421875 -16.109375 
Q 10.453125 -20.796875 1.609375 -20.796875 
L -1.8125 -20.796875 
L -1.8125 -13.1875 
L 0.59375 -13.1875 
Q 5.71875 -13.1875 7.5625 -10.8125 
Q 9.421875 -8.453125 9.421875 -0.984375 
z
M 9.421875 75.984375 
L 18.40625 75.984375 
L 18.40625 64.59375 
L 9.421875 64.59375 
z
" id="DejaVuSans-106"/>
     </defs>
     <use xlink:href="#DejaVuSans-65"/>
     <use x="62.533203" xlink:href="#DejaVuSans-118"/>
     <use x="121.712891" xlink:href="#DejaVuSans-101"/>
     <use x="183.236328" xlink:href="#DejaVuSans-114"/>
     <use x="224.349609" xlink:href="#DejaVuSans-97"/>
     <use x="285.628906" xlink:href="#DejaVuSans-103"/>
     <use x="349.105469" xlink:href="#DejaVuSans-101"/>
     <use x="410.628906" xlink:href="#DejaVuSans-32"/>
     <use x="442.416016" xlink:href="#DejaVuSans-80"/>
     <use x="499.09375" xlink:href="#DejaVuSans-101"/>
     <use x="560.617188" xlink:href="#DejaVuSans-108"/>
     <use x="588.400391" xlink:href="#DejaVuSans-108"/>
     <use x="616.183594" xlink:href="#DejaVuSans-101"/>
     <use x="677.707031" xlink:href="#DejaVuSans-116"/>
     <use x="716.916016" xlink:href="#DejaVuSans-32"/>
     <use x="748.703125" xlink:href="#DejaVuSans-67"/>
     <use x="818.527344" xlink:href="#DejaVuSans-111"/>
     <use x="879.708984" xlink:href="#DejaVuSans-117"/>
     <use x="943.087891" xlink:href="#DejaVuSans-110"/>
     <use x="1006.466797" xlink:href="#DejaVuSans-116"/>
     <use x="1045.675781" xlink:href="#DejaVuSans-32"/>
     <use x="1077.462891" xlink:href="#DejaVuSans-118"/>
     <use x="1136.642578" xlink:href="#DejaVuSans-115"/>
     <use x="1188.742188" xlink:href="#DejaVuSans-32"/>
     <use x="1220.529297" xlink:href="#DejaVuSans-80"/>
     <use x="1279.082031" xlink:href="#DejaVuSans-114"/>
     <use x="1320.195312" xlink:href="#DejaVuSans-105"/>
     <use x="1347.978516" xlink:href="#DejaVuSans-99"/>
     <use x="1402.958984" xlink:href="#DejaVuSans-101"/>
     <use x="1464.482422" xlink:href="#DejaVuSans-32"/>
     <use x="1496.269531" xlink:href="#DejaVuSans-80"/>
     <use x="1552.072266" xlink:href="#DejaVuSans-97"/>
     <use x="1613.351562" xlink:href="#DejaVuSans-105"/>
     <use x="1641.134766" xlink:href="#DejaVuSans-100"/>
     <use x="1704.611328" xlink:href="#DejaVuSans-32"/>
     <use x="1736.398438" xlink:href="#DejaVuSans-98"/>
     <use x="1799.875" xlink:href="#DejaVuSans-121"/>
     <use x="1859.054688" xlink:href="#DejaVuSans-32"/>
     <use x="1890.841797" xlink:href="#DejaVuSans-83"/>
     <use x="1954.318359" xlink:href="#DejaVuSans-117"/>
     <use x="2017.697266" xlink:href="#DejaVuSans-98"/>
     <use x="2081.173828" xlink:href="#DejaVuSans-106"/>
     <use x="2108.957031" xlink:href="#DejaVuSans-101"/>
     <use x="2170.480469" xlink:href="#DejaVuSans-99"/>
     <use x="2225.460938" xlink:href="#DejaVuSans-116"/>
    </g>
   </g>
  </g>
 </g>
 <defs>
  <clipPath id="p162ef6a6b2">
   <rect height="326.16" width="558" x="90" y="51.84"/>
  </clipPath>
 </defs>
</svg>
