<?xml version="1.0" encoding="utf-8" standalone="no"?>
<!DOCTYPE svg PUBLIC "-//W3C//DTD SVG 1.1//EN"
  "http://www.w3.org/Graphics/SVG/1.1/DTD/svg11.dtd">
<!-- Created with matplotlib (https://matplotlib.org/) -->
<svg height="504pt" version="1.1" viewBox="0 0 864 504" width="864pt" xmlns="http://www.w3.org/2000/svg" xmlns:xlink="http://www.w3.org/1999/xlink">
 <metadata>
  <rdf:RDF xmlns:cc="http://creativecommons.org/ns#" xmlns:dc="http://purl.org/dc/elements/1.1/" xmlns:rdf="http://www.w3.org/1999/02/22-rdf-syntax-ns#">
   <cc:Work>
    <dc:type rdf:resource="http://purl.org/dc/dcmitype/StillImage"/>
    <dc:date>2025-02-03T21:52:25.219745</dc:date>
    <dc:format>image/svg+xml</dc:format>
    <dc:creator>
     <cc:Agent>
      <dc:title>Matplotlib v3.3.4, https://matplotlib.org/</dc:title>
     </cc:Agent>
    </dc:creator>
   </cc:Work>
  </rdf:RDF>
 </metadata>
 <defs>
  <style type="text/css">*{stroke-linecap:butt;stroke-linejoin:round;}</style>
 </defs>
 <g id="figure_1">
  <g id="patch_1">
   <path d="M 0 504 
L 864 504 
L 864 0 
L 0 0 
z
" style="fill:#ffffff;"/>
  </g>
  <g id="axes_1">
   <g id="patch_2">
    <path d="M 108 441 
L 777.6 441 
L 777.6 60.48 
L 108 60.48 
z
" style="fill:#ffffff;"/>
   </g>
   <g id="patch_3">
    <path clip-path="url(#p323c14c0f9)" d="M 187.816001 441 
L 193.732103 441 
L 193.732103 198.613375 
L 187.816001 198.613375 
z
" style="fill:#1f77b4;opacity:0.5;stroke:#000000;stroke-linejoin:miter;"/>
   </g>
   <g id="patch_4">
    <path clip-path="url(#p323c14c0f9)" d="M 199.648205 441 
L 205.564307 441 
L 205.564307 414.49565 
L 199.648205 414.49565 
z
" style="fill:#1f77b4;opacity:0.5;stroke:#000000;stroke-linejoin:miter;"/>
   </g>
   <g id="patch_5">
    <path clip-path="url(#p323c14c0f9)" d="M 211.480409 441 
L 217.396511 441 
L 217.396511 424.490796 
L 211.480409 424.490796 
z
" style="fill:#1f77b4;opacity:0.5;stroke:#000000;stroke-linejoin:miter;"/>
   </g>
   <g id="patch_6">
    <path clip-path="url(#p323c14c0f9)" d="M 223.312613 441 
L 229.228715 441 
L 229.228715 407.047108 
L 223.312613 407.047108 
z
" style="fill:#1f77b4;opacity:0.5;stroke:#000000;stroke-linejoin:miter;"/>
   </g>
   <g id="patch_7">
    <path clip-path="url(#p323c14c0f9)" d="M 235.144817 441 
L 241.060919 441 
L 241.060919 323.254424 
L 235.144817 323.254424 
z
" style="fill:#1f77b4;opacity:0.5;stroke:#000000;stroke-linejoin:miter;"/>
   </g>
   <g id="patch_8">
    <path clip-path="url(#p323c14c0f9)" d="M 246.977021 441 
L 252.893123 441 
L 252.893123 297.269232 
L 246.977021 297.269232 
z
" style="fill:#1f77b4;opacity:0.5;stroke:#000000;stroke-linejoin:miter;"/>
   </g>
   <g id="patch_9">
    <path clip-path="url(#p323c14c0f9)" d="M 258.809226 441 
L 264.725328 441 
L 264.725328 221.598401 
L 258.809226 221.598401 
z
" style="fill:#1f77b4;opacity:0.5;stroke:#000000;stroke-linejoin:miter;"/>
   </g>
   <g id="patch_10">
    <path clip-path="url(#p323c14c0f9)" d="M 270.64143 441 
L 276.557532 441 
L 276.557532 269.40977 
L 270.64143 269.40977 
z
" style="fill:#1f77b4;opacity:0.5;stroke:#000000;stroke-linejoin:miter;"/>
   </g>
   <g id="patch_11">
    <path clip-path="url(#p323c14c0f9)" d="M 282.473634 441 
L 288.389736 441 
L 288.389736 223.143203 
L 282.473634 223.143203 
z
" style="fill:#1f77b4;opacity:0.5;stroke:#000000;stroke-linejoin:miter;"/>
   </g>
   <g id="patch_12">
    <path clip-path="url(#p323c14c0f9)" d="M 294.305838 441 
L 300.22194 441 
L 300.22194 252.454695 
L 294.305838 252.454695 
z
" style="fill:#1f77b4;opacity:0.5;stroke:#000000;stroke-linejoin:miter;"/>
   </g>
   <g id="patch_13">
    <path clip-path="url(#p323c14c0f9)" d="M 306.138042 441 
L 312.054144 441 
L 312.054144 274.485086 
L 306.138042 274.485086 
z
" style="fill:#1f77b4;opacity:0.5;stroke:#000000;stroke-linejoin:miter;"/>
   </g>
   <g id="patch_14">
    <path clip-path="url(#p323c14c0f9)" d="M 317.970246 441 
L 323.886348 441 
L 323.886348 245.860961 
L 317.970246 245.860961 
z
" style="fill:#1f77b4;opacity:0.5;stroke:#000000;stroke-linejoin:miter;"/>
   </g>
   <g id="patch_15">
    <path clip-path="url(#p323c14c0f9)" d="M 329.80245 441 
L 335.718552 441 
L 335.718552 317.754999 
L 329.80245 317.754999 
z
" style="fill:#1f77b4;opacity:0.5;stroke:#000000;stroke-linejoin:miter;"/>
   </g>
   <g id="patch_16">
    <path clip-path="url(#p323c14c0f9)" d="M 341.634655 441 
L 347.550757 441 
L 347.550757 307.266784 
L 341.634655 307.266784 
z
" style="fill:#1f77b4;opacity:0.5;stroke:#000000;stroke-linejoin:miter;"/>
   </g>
   <g id="patch_17">
    <path clip-path="url(#p323c14c0f9)" d="M 353.466859 441 
L 359.382961 441 
L 359.382961 352.565755 
L 353.466859 352.565755 
z
" style="fill:#1f77b4;opacity:0.5;stroke:#000000;stroke-linejoin:miter;"/>
   </g>
   <g id="patch_18">
    <path clip-path="url(#p323c14c0f9)" d="M 365.299063 441 
L 371.215165 441 
L 371.215165 387.504476 
L 365.299063 387.504476 
z
" style="fill:#1f77b4;opacity:0.5;stroke:#000000;stroke-linejoin:miter;"/>
   </g>
   <g id="patch_19">
    <path clip-path="url(#p323c14c0f9)" d="M 377.131267 441 
L 383.047369 441 
L 383.047369 327.668742 
L 377.131267 327.668742 
z
" style="fill:#1f77b4;opacity:0.5;stroke:#000000;stroke-linejoin:miter;"/>
   </g>
   <g id="patch_20">
    <path clip-path="url(#p323c14c0f9)" d="M 388.963471 441 
L 394.879573 441 
L 394.879573 340.368338 
L 388.963471 340.368338 
z
" style="fill:#1f77b4;opacity:0.5;stroke:#000000;stroke-linejoin:miter;"/>
   </g>
   <g id="patch_21">
    <path clip-path="url(#p323c14c0f9)" d="M 400.795675 441 
L 406.711777 441 
L 406.711777 366.487255 
L 400.795675 366.487255 
z
" style="fill:#1f77b4;opacity:0.5;stroke:#000000;stroke-linejoin:miter;"/>
   </g>
   <g id="patch_22">
    <path clip-path="url(#p323c14c0f9)" d="M 412.627879 441 
L 418.543982 441 
L 418.543982 284.89494 
L 412.627879 284.89494 
z
" style="fill:#1f77b4;opacity:0.5;stroke:#000000;stroke-linejoin:miter;"/>
   </g>
   <g id="patch_23">
    <path clip-path="url(#p323c14c0f9)" d="M 424.460084 441 
L 430.376186 441 
L 430.376186 383.475135 
L 424.460084 383.475135 
z
" style="fill:#1f77b4;opacity:0.5;stroke:#000000;stroke-linejoin:miter;"/>
   </g>
   <g id="patch_24">
    <path clip-path="url(#p323c14c0f9)" d="M 436.292288 441 
L 442.20839 441 
L 442.20839 341.300105 
L 436.292288 341.300105 
z
" style="fill:#1f77b4;opacity:0.5;stroke:#000000;stroke-linejoin:miter;"/>
   </g>
   <g id="patch_25">
    <path clip-path="url(#p323c14c0f9)" d="M 448.124492 441 
L 454.040594 441 
L 454.040594 398.294314 
L 448.124492 398.294314 
z
" style="fill:#1f77b4;opacity:0.5;stroke:#000000;stroke-linejoin:miter;"/>
   </g>
   <g id="patch_26">
    <path clip-path="url(#p323c14c0f9)" d="M 459.956696 441 
L 465.872798 441 
L 465.872798 432.24849 
L 459.956696 432.24849 
z
" style="fill:#1f77b4;opacity:0.5;stroke:#000000;stroke-linejoin:miter;"/>
   </g>
   <g id="patch_27">
    <path clip-path="url(#p323c14c0f9)" d="M 471.7889 441 
L 477.705002 441 
L 477.705002 392.046241 
L 471.7889 392.046241 
z
" style="fill:#1f77b4;opacity:0.5;stroke:#000000;stroke-linejoin:miter;"/>
   </g>
   <g id="patch_28">
    <path clip-path="url(#p323c14c0f9)" d="M 483.621104 441 
L 489.537206 441 
L 489.537206 428.747886 
L 483.621104 428.747886 
z
" style="fill:#1f77b4;opacity:0.5;stroke:#000000;stroke-linejoin:miter;"/>
   </g>
   <g id="patch_29">
    <path clip-path="url(#p323c14c0f9)" d="M 495.453308 441 
L 501.369411 441 
L 501.369411 393.37528 
L 495.453308 393.37528 
z
" style="fill:#1f77b4;opacity:0.5;stroke:#000000;stroke-linejoin:miter;"/>
   </g>
   <g id="patch_30">
    <path clip-path="url(#p323c14c0f9)" d="M 507.285513 441 
L 513.201615 441 
L 513.201615 322.756869 
L 507.285513 322.756869 
z
" style="fill:#1f77b4;opacity:0.5;stroke:#000000;stroke-linejoin:miter;"/>
   </g>
   <g id="patch_31">
    <path clip-path="url(#p323c14c0f9)" d="M 519.117717 441 
L 525.033819 441 
L 525.033819 435.808426 
L 519.117717 435.808426 
z
" style="fill:#1f77b4;opacity:0.5;stroke:#000000;stroke-linejoin:miter;"/>
   </g>
   <g id="patch_32">
    <path clip-path="url(#p323c14c0f9)" d="M 530.949921 441 
L 536.866023 441 
L 536.866023 372.55206 
L 530.949921 372.55206 
z
" style="fill:#1f77b4;opacity:0.5;stroke:#000000;stroke-linejoin:miter;"/>
   </g>
   <g id="patch_33">
    <path clip-path="url(#p323c14c0f9)" d="M 542.782125 441 
L 548.698227 441 
L 548.698227 315.337292 
L 542.782125 315.337292 
z
" style="fill:#1f77b4;opacity:0.5;stroke:#000000;stroke-linejoin:miter;"/>
   </g>
   <g id="patch_34">
    <path clip-path="url(#p323c14c0f9)" d="M 554.614329 441 
L 560.530431 441 
L 560.530431 432.24849 
L 554.614329 432.24849 
z
" style="fill:#1f77b4;opacity:0.5;stroke:#000000;stroke-linejoin:miter;"/>
   </g>
   <g id="patch_35">
    <path clip-path="url(#p323c14c0f9)" d="M 566.446533 441 
L 572.362635 441 
L 572.362635 420.57981 
L 566.446533 420.57981 
z
" style="fill:#1f77b4;opacity:0.5;stroke:#000000;stroke-linejoin:miter;"/>
   </g>
   <g id="patch_36">
    <path clip-path="url(#p323c14c0f9)" d="M 578.278737 441 
L 584.19484 441 
L 584.19484 400.15962 
L 578.278737 400.15962 
z
" style="fill:#1f77b4;opacity:0.5;stroke:#000000;stroke-linejoin:miter;"/>
   </g>
   <g id="patch_37">
    <path clip-path="url(#p323c14c0f9)" d="M 590.110942 441 
L 596.027044 441 
L 596.027044 327.46178 
L 590.110942 327.46178 
z
" style="fill:#1f77b4;opacity:0.5;stroke:#000000;stroke-linejoin:miter;"/>
   </g>
   <g id="patch_38">
    <path clip-path="url(#p323c14c0f9)" d="M 601.943146 441 
L 607.859248 441 
L 607.859248 388.035132 
L 601.943146 388.035132 
z
" style="fill:#1f77b4;opacity:0.5;stroke:#000000;stroke-linejoin:miter;"/>
   </g>
   <g id="patch_39">
    <path clip-path="url(#p323c14c0f9)" d="M 613.77535 441 
L 619.691452 441 
L 619.691452 393.876485 
L 613.77535 393.876485 
z
" style="fill:#1f77b4;opacity:0.5;stroke:#000000;stroke-linejoin:miter;"/>
   </g>
   <g id="patch_40">
    <path clip-path="url(#p323c14c0f9)" d="M 625.607554 441 
L 631.523656 441 
L 631.523656 389.949525 
L 625.607554 389.949525 
z
" style="fill:#1f77b4;opacity:0.5;stroke:#000000;stroke-linejoin:miter;"/>
   </g>
   <g id="patch_41">
    <path clip-path="url(#p323c14c0f9)" d="M 637.439758 441 
L 643.35586 441 
L 643.35586 420.57981 
L 637.439758 420.57981 
z
" style="fill:#1f77b4;opacity:0.5;stroke:#000000;stroke-linejoin:miter;"/>
   </g>
   <g id="patch_42">
    <path clip-path="url(#p323c14c0f9)" d="M 649.271962 441 
L 655.188064 441 
L 655.188064 441 
L 649.271962 441 
z
" style="fill:#1f77b4;opacity:0.5;stroke:#000000;stroke-linejoin:miter;"/>
   </g>
   <g id="patch_43">
    <path clip-path="url(#p323c14c0f9)" d="M 661.104166 441 
L 667.020269 441 
L 667.020269 441 
L 661.104166 441 
z
" style="fill:#1f77b4;opacity:0.5;stroke:#000000;stroke-linejoin:miter;"/>
   </g>
   <g id="patch_44">
    <path clip-path="url(#p323c14c0f9)" d="M 672.936371 441 
L 678.852473 441 
L 678.852473 389.949525 
L 672.936371 389.949525 
z
" style="fill:#1f77b4;opacity:0.5;stroke:#000000;stroke-linejoin:miter;"/>
   </g>
   <g id="patch_45">
    <path clip-path="url(#p323c14c0f9)" d="M 684.768575 441 
L 690.684677 441 
L 690.684677 441 
L 684.768575 441 
z
" style="fill:#1f77b4;opacity:0.5;stroke:#000000;stroke-linejoin:miter;"/>
   </g>
   <g id="patch_46">
    <path clip-path="url(#p323c14c0f9)" d="M 696.600779 441 
L 702.516881 441 
L 702.516881 389.949525 
L 696.600779 389.949525 
z
" style="fill:#1f77b4;opacity:0.5;stroke:#000000;stroke-linejoin:miter;"/>
   </g>
   <g id="patch_47">
    <path clip-path="url(#p323c14c0f9)" d="M 187.816001 441 
L 193.732103 441 
L 193.732103 261.728515 
L 187.816001 261.728515 
z
" style="fill:#ff7f0e;opacity:0.5;stroke:#000000;stroke-linejoin:miter;"/>
   </g>
   <g id="patch_48">
    <path clip-path="url(#p323c14c0f9)" d="M 199.648205 441 
L 205.564307 441 
L 205.564307 401.001284 
L 199.648205 401.001284 
z
" style="fill:#ff7f0e;opacity:0.5;stroke:#000000;stroke-linejoin:miter;"/>
   </g>
   <g id="patch_49">
    <path clip-path="url(#p323c14c0f9)" d="M 211.480409 441 
L 217.396511 441 
L 217.396511 414.778388 
L 211.480409 414.778388 
z
" style="fill:#ff7f0e;opacity:0.5;stroke:#000000;stroke-linejoin:miter;"/>
   </g>
   <g id="patch_50">
    <path clip-path="url(#p323c14c0f9)" d="M 223.312613 441 
L 229.228715 441 
L 229.228715 339.062597 
L 223.312613 339.062597 
z
" style="fill:#ff7f0e;opacity:0.5;stroke:#000000;stroke-linejoin:miter;"/>
   </g>
   <g id="patch_51">
    <path clip-path="url(#p323c14c0f9)" d="M 235.144817 441 
L 241.060919 441 
L 241.060919 276.715985 
L 235.144817 276.715985 
z
" style="fill:#ff7f0e;opacity:0.5;stroke:#000000;stroke-linejoin:miter;"/>
   </g>
   <g id="patch_52">
    <path clip-path="url(#p323c14c0f9)" d="M 246.977021 441 
L 252.893123 441 
L 252.893123 150.954562 
L 246.977021 150.954562 
z
" style="fill:#ff7f0e;opacity:0.5;stroke:#000000;stroke-linejoin:miter;"/>
   </g>
   <g id="patch_53">
    <path clip-path="url(#p323c14c0f9)" d="M 258.809226 441 
L 264.725328 441 
L 264.725328 185.047948 
L 258.809226 185.047948 
z
" style="fill:#ff7f0e;opacity:0.5;stroke:#000000;stroke-linejoin:miter;"/>
   </g>
   <g id="patch_54">
    <path clip-path="url(#p323c14c0f9)" d="M 270.64143 441 
L 276.557532 441 
L 276.557532 78.6 
L 270.64143 78.6 
z
" style="fill:#ff7f0e;opacity:0.5;stroke:#000000;stroke-linejoin:miter;"/>
   </g>
   <g id="patch_55">
    <path clip-path="url(#p323c14c0f9)" d="M 282.473634 441 
L 288.389736 441 
L 288.389736 138.065913 
L 282.473634 138.065913 
z
" style="fill:#ff7f0e;opacity:0.5;stroke:#000000;stroke-linejoin:miter;"/>
   </g>
   <g id="patch_56">
    <path clip-path="url(#p323c14c0f9)" d="M 294.305838 441 
L 300.22194 441 
L 300.22194 283.216356 
L 294.305838 283.216356 
z
" style="fill:#ff7f0e;opacity:0.5;stroke:#000000;stroke-linejoin:miter;"/>
   </g>
   <g id="patch_57">
    <path clip-path="url(#p323c14c0f9)" d="M 306.138042 441 
L 312.054144 441 
L 312.054144 259.151871 
L 306.138042 259.151871 
z
" style="fill:#ff7f0e;opacity:0.5;stroke:#000000;stroke-linejoin:miter;"/>
   </g>
   <g id="patch_58">
    <path clip-path="url(#p323c14c0f9)" d="M 317.970246 441 
L 323.886348 441 
L 323.886348 355.652178 
L 317.970246 355.652178 
z
" style="fill:#ff7f0e;opacity:0.5;stroke:#000000;stroke-linejoin:miter;"/>
   </g>
   <g id="patch_59">
    <path clip-path="url(#p323c14c0f9)" d="M 329.80245 441 
L 335.718552 441 
L 335.718552 326.355246 
L 329.80245 326.355246 
z
" style="fill:#ff7f0e;opacity:0.5;stroke:#000000;stroke-linejoin:miter;"/>
   </g>
   <g id="patch_60">
    <path clip-path="url(#p323c14c0f9)" d="M 341.634655 441 
L 347.550757 441 
L 347.550757 355.423567 
L 341.634655 355.423567 
z
" style="fill:#ff7f0e;opacity:0.5;stroke:#000000;stroke-linejoin:miter;"/>
   </g>
   <g id="patch_61">
    <path clip-path="url(#p323c14c0f9)" d="M 353.466859 441 
L 359.382961 441 
L 359.382961 374.605294 
L 353.466859 374.605294 
z
" style="fill:#ff7f0e;opacity:0.5;stroke:#000000;stroke-linejoin:miter;"/>
   </g>
   <g id="patch_62">
    <path clip-path="url(#p323c14c0f9)" d="M 365.299063 441 
L 371.215165 441 
L 371.215165 337.792531 
L 365.299063 337.792531 
z
" style="fill:#ff7f0e;opacity:0.5;stroke:#000000;stroke-linejoin:miter;"/>
   </g>
   <g id="patch_63">
    <path clip-path="url(#p323c14c0f9)" d="M 377.131267 441 
L 383.047369 441 
L 383.047369 286.931923 
L 377.131267 286.931923 
z
" style="fill:#ff7f0e;opacity:0.5;stroke:#000000;stroke-linejoin:miter;"/>
   </g>
   <g id="patch_64">
    <path clip-path="url(#p323c14c0f9)" d="M 388.963471 441 
L 394.879573 441 
L 394.879573 353.192975 
L 388.963471 353.192975 
z
" style="fill:#ff7f0e;opacity:0.5;stroke:#000000;stroke-linejoin:miter;"/>
   </g>
   <g id="patch_65">
    <path clip-path="url(#p323c14c0f9)" d="M 400.795675 441 
L 406.711777 441 
L 406.711777 374.882285 
L 400.795675 374.882285 
z
" style="fill:#ff7f0e;opacity:0.5;stroke:#000000;stroke-linejoin:miter;"/>
   </g>
   <g id="patch_66">
    <path clip-path="url(#p323c14c0f9)" d="M 412.627879 441 
L 418.543982 441 
L 418.543982 420.957379 
L 412.627879 420.957379 
z
" style="fill:#ff7f0e;opacity:0.5;stroke:#000000;stroke-linejoin:miter;"/>
   </g>
   <g id="patch_67">
    <path clip-path="url(#p323c14c0f9)" d="M 424.460084 441 
L 430.376186 441 
L 430.376186 373.68376 
L 424.460084 373.68376 
z
" style="fill:#ff7f0e;opacity:0.5;stroke:#000000;stroke-linejoin:miter;"/>
   </g>
   <g id="patch_68">
    <path clip-path="url(#p323c14c0f9)" d="M 436.292288 441 
L 442.20839 441 
L 442.20839 383.137526 
L 436.292288 383.137526 
z
" style="fill:#ff7f0e;opacity:0.5;stroke:#000000;stroke-linejoin:miter;"/>
   </g>
   <g id="patch_69">
    <path clip-path="url(#p323c14c0f9)" d="M 448.124492 441 
L 454.040594 441 
L 454.040594 441 
L 448.124492 441 
z
" style="fill:#ff7f0e;opacity:0.5;stroke:#000000;stroke-linejoin:miter;"/>
   </g>
   <g id="patch_70">
    <path clip-path="url(#p323c14c0f9)" d="M 459.956696 441 
L 465.872798 441 
L 465.872798 415.046271 
L 459.956696 415.046271 
z
" style="fill:#ff7f0e;opacity:0.5;stroke:#000000;stroke-linejoin:miter;"/>
   </g>
   <g id="patch_71">
    <path clip-path="url(#p323c14c0f9)" d="M 471.7889 441 
L 477.705002 441 
L 477.705002 389.989038 
L 471.7889 389.989038 
z
" style="fill:#ff7f0e;opacity:0.5;stroke:#000000;stroke-linejoin:miter;"/>
   </g>
   <g id="patch_72">
    <path clip-path="url(#p323c14c0f9)" d="M 483.621104 441 
L 489.537206 441 
L 489.537206 387.728747 
L 483.621104 387.728747 
z
" style="fill:#ff7f0e;opacity:0.5;stroke:#000000;stroke-linejoin:miter;"/>
   </g>
   <g id="patch_73">
    <path clip-path="url(#p323c14c0f9)" d="M 495.453308 441 
L 501.369411 441 
L 501.369411 342.23685 
L 495.453308 342.23685 
z
" style="fill:#ff7f0e;opacity:0.5;stroke:#000000;stroke-linejoin:miter;"/>
   </g>
   <g id="patch_74">
    <path clip-path="url(#p323c14c0f9)" d="M 507.285513 441 
L 513.201615 441 
L 513.201615 415.735224 
L 507.285513 415.735224 
z
" style="fill:#ff7f0e;opacity:0.5;stroke:#000000;stroke-linejoin:miter;"/>
   </g>
   <g id="patch_75">
    <path clip-path="url(#p323c14c0f9)" d="M 519.117717 441 
L 525.033819 441 
L 525.033819 376.080388 
L 519.117717 376.080388 
z
" style="fill:#ff7f0e;opacity:0.5;stroke:#000000;stroke-linejoin:miter;"/>
   </g>
   <g id="patch_76">
    <path clip-path="url(#p323c14c0f9)" d="M 530.949921 441 
L 536.866023 441 
L 536.866023 339.752927 
L 530.949921 339.752927 
z
" style="fill:#ff7f0e;opacity:0.5;stroke:#000000;stroke-linejoin:miter;"/>
   </g>
   <g id="patch_77">
    <path clip-path="url(#p323c14c0f9)" d="M 542.782125 441 
L 548.698227 441 
L 548.698227 404.118636 
L 542.782125 404.118636 
z
" style="fill:#ff7f0e;opacity:0.5;stroke:#000000;stroke-linejoin:miter;"/>
   </g>
   <g id="patch_78">
    <path clip-path="url(#p323c14c0f9)" d="M 554.614329 441 
L 560.530431 441 
L 560.530431 374.968812 
L 554.614329 374.968812 
z
" style="fill:#ff7f0e;opacity:0.5;stroke:#000000;stroke-linejoin:miter;"/>
   </g>
   <g id="patch_79">
    <path clip-path="url(#p323c14c0f9)" d="M 566.446533 441 
L 572.362635 441 
L 572.362635 402.712144 
L 566.446533 402.712144 
z
" style="fill:#ff7f0e;opacity:0.5;stroke:#000000;stroke-linejoin:miter;"/>
   </g>
   <g id="patch_80">
    <path clip-path="url(#p323c14c0f9)" d="M 578.278737 441 
L 584.19484 441 
L 584.19484 430.789905 
L 578.278737 430.789905 
z
" style="fill:#ff7f0e;opacity:0.5;stroke:#000000;stroke-linejoin:miter;"/>
   </g>
   <g id="patch_81">
    <path clip-path="url(#p323c14c0f9)" d="M 590.110942 441 
L 596.027044 441 
L 596.027044 415.474762 
L 590.110942 415.474762 
z
" style="fill:#ff7f0e;opacity:0.5;stroke:#000000;stroke-linejoin:miter;"/>
   </g>
   <g id="patch_82">
    <path clip-path="url(#p323c14c0f9)" d="M 601.943146 441 
L 607.859248 441 
L 607.859248 389.949525 
L 601.943146 389.949525 
z
" style="fill:#ff7f0e;opacity:0.5;stroke:#000000;stroke-linejoin:miter;"/>
   </g>
   <g id="patch_83">
    <path clip-path="url(#p323c14c0f9)" d="M 613.77535 441 
L 619.691452 441 
L 619.691452 441 
L 613.77535 441 
z
" style="fill:#ff7f0e;opacity:0.5;stroke:#000000;stroke-linejoin:miter;"/>
   </g>
   <g id="patch_84">
    <path clip-path="url(#p323c14c0f9)" d="M 625.607554 441 
L 631.523656 441 
L 631.523656 384.844477 
L 625.607554 384.844477 
z
" style="fill:#ff7f0e;opacity:0.5;stroke:#000000;stroke-linejoin:miter;"/>
   </g>
   <g id="matplotlib.axis_1">
    <g id="xtick_1">
     <g id="line2d_1">
      <path clip-path="url(#p323c14c0f9)" d="M 188.407611 441 
L 188.407611 60.48 
" style="fill:none;stroke:#b0b0b0;stroke-linecap:square;stroke-width:0.8;"/>
     </g>
     <g id="line2d_2">
      <defs>
       <path d="M 0 0 
L 0 3.5 
" id="m6310c84cd1" style="stroke:#000000;stroke-width:0.8;"/>
      </defs>
      <g>
       <use style="stroke:#000000;stroke-width:0.8;" x="188.407611" xlink:href="#m6310c84cd1" y="441"/>
      </g>
     </g>
     <g id="text_1">
      <!-- 0 -->
      <g transform="translate(185.226361 455.598437)scale(0.1 -0.1)">
       <defs>
        <path d="M 31.78125 66.40625 
Q 24.171875 66.40625 20.328125 58.90625 
Q 16.5 51.421875 16.5 36.375 
Q 16.5 21.390625 20.328125 13.890625 
Q 24.171875 6.390625 31.78125 6.390625 
Q 39.453125 6.390625 43.28125 13.890625 
Q 47.125 21.390625 47.125 36.375 
Q 47.125 51.421875 43.28125 58.90625 
Q 39.453125 66.40625 31.78125 66.40625 
z
M 31.78125 74.21875 
Q 44.046875 74.21875 50.515625 64.515625 
Q 56.984375 54.828125 56.984375 36.375 
Q 56.984375 17.96875 50.515625 8.265625 
Q 44.046875 -1.421875 31.78125 -1.421875 
Q 19.53125 -1.421875 13.0625 8.265625 
Q 6.59375 17.96875 6.59375 36.375 
Q 6.59375 54.828125 13.0625 64.515625 
Q 19.53125 74.21875 31.78125 74.21875 
z
" id="DejaVuSans-48"/>
       </defs>
       <use xlink:href="#DejaVuSans-48"/>
      </g>
     </g>
    </g>
    <g id="xtick_2">
     <g id="line2d_3">
      <path clip-path="url(#p323c14c0f9)" d="M 306.729652 441 
L 306.729652 60.48 
" style="fill:none;stroke:#b0b0b0;stroke-linecap:square;stroke-width:0.8;"/>
     </g>
     <g id="line2d_4">
      <g>
       <use style="stroke:#000000;stroke-width:0.8;" x="306.729652" xlink:href="#m6310c84cd1" y="441"/>
      </g>
     </g>
     <g id="text_2">
      <!-- 10 -->
      <g transform="translate(300.367152 455.598437)scale(0.1 -0.1)">
       <defs>
        <path d="M 12.40625 8.296875 
L 28.515625 8.296875 
L 28.515625 63.921875 
L 10.984375 60.40625 
L 10.984375 69.390625 
L 28.421875 72.90625 
L 38.28125 72.90625 
L 38.28125 8.296875 
L 54.390625 8.296875 
L 54.390625 0 
L 12.40625 0 
z
" id="DejaVuSans-49"/>
       </defs>
       <use xlink:href="#DejaVuSans-49"/>
       <use x="63.623047" xlink:href="#DejaVuSans-48"/>
      </g>
     </g>
    </g>
    <g id="xtick_3">
     <g id="line2d_5">
      <path clip-path="url(#p323c14c0f9)" d="M 425.051694 441 
L 425.051694 60.48 
" style="fill:none;stroke:#b0b0b0;stroke-linecap:square;stroke-width:0.8;"/>
     </g>
     <g id="line2d_6">
      <g>
       <use style="stroke:#000000;stroke-width:0.8;" x="425.051694" xlink:href="#m6310c84cd1" y="441"/>
      </g>
     </g>
     <g id="text_3">
      <!-- 20 -->
      <g transform="translate(418.689194 455.598437)scale(0.1 -0.1)">
       <defs>
        <path d="M 19.1875 8.296875 
L 53.609375 8.296875 
L 53.609375 0 
L 7.328125 0 
L 7.328125 8.296875 
Q 12.9375 14.109375 22.625 23.890625 
Q 32.328125 33.6875 34.8125 36.53125 
Q 39.546875 41.84375 41.421875 45.53125 
Q 43.3125 49.21875 43.3125 52.78125 
Q 43.3125 58.59375 39.234375 62.25 
Q 35.15625 65.921875 28.609375 65.921875 
Q 23.96875 65.921875 18.8125 64.3125 
Q 13.671875 62.703125 7.8125 59.421875 
L 7.8125 69.390625 
Q 13.765625 71.78125 18.9375 73 
Q 24.125 74.21875 28.421875 74.21875 
Q 39.75 74.21875 46.484375 68.546875 
Q 53.21875 62.890625 53.21875 53.421875 
Q 53.21875 48.921875 51.53125 44.890625 
Q 49.859375 40.875 45.40625 35.40625 
Q 44.1875 33.984375 37.640625 27.21875 
Q 31.109375 20.453125 19.1875 8.296875 
z
" id="DejaVuSans-50"/>
       </defs>
       <use xlink:href="#DejaVuSans-50"/>
       <use x="63.623047" xlink:href="#DejaVuSans-48"/>
      </g>
     </g>
    </g>
    <g id="xtick_4">
     <g id="line2d_7">
      <path clip-path="url(#p323c14c0f9)" d="M 543.373735 441 
L 543.373735 60.48 
" style="fill:none;stroke:#b0b0b0;stroke-linecap:square;stroke-width:0.8;"/>
     </g>
     <g id="line2d_8">
      <g>
       <use style="stroke:#000000;stroke-width:0.8;" x="543.373735" xlink:href="#m6310c84cd1" y="441"/>
      </g>
     </g>
     <g id="text_4">
      <!-- 30 -->
      <g transform="translate(537.011235 455.598437)scale(0.1 -0.1)">
       <defs>
        <path d="M 40.578125 39.3125 
Q 47.65625 37.796875 51.625 33 
Q 55.609375 28.21875 55.609375 21.1875 
Q 55.609375 10.40625 48.1875 4.484375 
Q 40.765625 -1.421875 27.09375 -1.421875 
Q 22.515625 -1.421875 17.65625 -0.515625 
Q 12.796875 0.390625 7.625 2.203125 
L 7.625 11.71875 
Q 11.71875 9.328125 16.59375 8.109375 
Q 21.484375 6.890625 26.8125 6.890625 
Q 36.078125 6.890625 40.9375 10.546875 
Q 45.796875 14.203125 45.796875 21.1875 
Q 45.796875 27.640625 41.28125 31.265625 
Q 36.765625 34.90625 28.71875 34.90625 
L 20.21875 34.90625 
L 20.21875 43.015625 
L 29.109375 43.015625 
Q 36.375 43.015625 40.234375 45.921875 
Q 44.09375 48.828125 44.09375 54.296875 
Q 44.09375 59.90625 40.109375 62.90625 
Q 36.140625 65.921875 28.71875 65.921875 
Q 24.65625 65.921875 20.015625 65.03125 
Q 15.375 64.15625 9.8125 62.3125 
L 9.8125 71.09375 
Q 15.4375 72.65625 20.34375 73.4375 
Q 25.25 74.21875 29.59375 74.21875 
Q 40.828125 74.21875 47.359375 69.109375 
Q 53.90625 64.015625 53.90625 55.328125 
Q 53.90625 49.265625 50.4375 45.09375 
Q 46.96875 40.921875 40.578125 39.3125 
z
" id="DejaVuSans-51"/>
       </defs>
       <use xlink:href="#DejaVuSans-51"/>
       <use x="63.623047" xlink:href="#DejaVuSans-48"/>
      </g>
     </g>
    </g>
    <g id="xtick_5">
     <g id="line2d_9">
      <path clip-path="url(#p323c14c0f9)" d="M 661.695777 441 
L 661.695777 60.48 
" style="fill:none;stroke:#b0b0b0;stroke-linecap:square;stroke-width:0.8;"/>
     </g>
     <g id="line2d_10">
      <g>
       <use style="stroke:#000000;stroke-width:0.8;" x="661.695777" xlink:href="#m6310c84cd1" y="441"/>
      </g>
     </g>
     <g id="text_5">
      <!-- 40 -->
      <g transform="translate(655.333277 455.598437)scale(0.1 -0.1)">
       <defs>
        <path d="M 37.796875 64.3125 
L 12.890625 25.390625 
L 37.796875 25.390625 
z
M 35.203125 72.90625 
L 47.609375 72.90625 
L 47.609375 25.390625 
L 58.015625 25.390625 
L 58.015625 17.1875 
L 47.609375 17.1875 
L 47.609375 0 
L 37.796875 0 
L 37.796875 17.1875 
L 4.890625 17.1875 
L 4.890625 26.703125 
z
" id="DejaVuSans-52"/>
       </defs>
       <use xlink:href="#DejaVuSans-52"/>
       <use x="63.623047" xlink:href="#DejaVuSans-48"/>
      </g>
     </g>
    </g>
    <g id="text_6">
     <!-- Block_Pellet_Count -->
     <g transform="translate(395.703125 469.276563)scale(0.1 -0.1)">
      <defs>
       <path d="M 19.671875 34.8125 
L 19.671875 8.109375 
L 35.5 8.109375 
Q 43.453125 8.109375 47.28125 11.40625 
Q 51.125 14.703125 51.125 21.484375 
Q 51.125 28.328125 47.28125 31.5625 
Q 43.453125 34.8125 35.5 34.8125 
z
M 19.671875 64.796875 
L 19.671875 42.828125 
L 34.28125 42.828125 
Q 41.5 42.828125 45.03125 45.53125 
Q 48.578125 48.25 48.578125 53.8125 
Q 48.578125 59.328125 45.03125 62.0625 
Q 41.5 64.796875 34.28125 64.796875 
z
M 9.8125 72.90625 
L 35.015625 72.90625 
Q 46.296875 72.90625 52.390625 68.21875 
Q 58.5 63.53125 58.5 54.890625 
Q 58.5 48.1875 55.375 44.234375 
Q 52.25 40.28125 46.1875 39.3125 
Q 53.46875 37.75 57.5 32.78125 
Q 61.53125 27.828125 61.53125 20.40625 
Q 61.53125 10.640625 54.890625 5.3125 
Q 48.25 0 35.984375 0 
L 9.8125 0 
z
" id="DejaVuSans-66"/>
       <path d="M 9.421875 75.984375 
L 18.40625 75.984375 
L 18.40625 0 
L 9.421875 0 
z
" id="DejaVuSans-108"/>
       <path d="M 30.609375 48.390625 
Q 23.390625 48.390625 19.1875 42.75 
Q 14.984375 37.109375 14.984375 27.296875 
Q 14.984375 17.484375 19.15625 11.84375 
Q 23.34375 6.203125 30.609375 6.203125 
Q 37.796875 6.203125 41.984375 11.859375 
Q 46.1875 17.53125 46.1875 27.296875 
Q 46.1875 37.015625 41.984375 42.703125 
Q 37.796875 48.390625 30.609375 48.390625 
z
M 30.609375 56 
Q 42.328125 56 49.015625 48.375 
Q 55.71875 40.765625 55.71875 27.296875 
Q 55.71875 13.875 49.015625 6.21875 
Q 42.328125 -1.421875 30.609375 -1.421875 
Q 18.84375 -1.421875 12.171875 6.21875 
Q 5.515625 13.875 5.515625 27.296875 
Q 5.515625 40.765625 12.171875 48.375 
Q 18.84375 56 30.609375 56 
z
" id="DejaVuSans-111"/>
       <path d="M 48.78125 52.59375 
L 48.78125 44.1875 
Q 44.96875 46.296875 41.140625 47.34375 
Q 37.3125 48.390625 33.40625 48.390625 
Q 24.65625 48.390625 19.8125 42.84375 
Q 14.984375 37.3125 14.984375 27.296875 
Q 14.984375 17.28125 19.8125 11.734375 
Q 24.65625 6.203125 33.40625 6.203125 
Q 37.3125 6.203125 41.140625 7.25 
Q 44.96875 8.296875 48.78125 10.40625 
L 48.78125 2.09375 
Q 45.015625 0.34375 40.984375 -0.53125 
Q 36.96875 -1.421875 32.421875 -1.421875 
Q 20.0625 -1.421875 12.78125 6.34375 
Q 5.515625 14.109375 5.515625 27.296875 
Q 5.515625 40.671875 12.859375 48.328125 
Q 20.21875 56 33.015625 56 
Q 37.15625 56 41.109375 55.140625 
Q 45.0625 54.296875 48.78125 52.59375 
z
" id="DejaVuSans-99"/>
       <path d="M 9.078125 75.984375 
L 18.109375 75.984375 
L 18.109375 31.109375 
L 44.921875 54.6875 
L 56.390625 54.6875 
L 27.390625 29.109375 
L 57.625 0 
L 45.90625 0 
L 18.109375 26.703125 
L 18.109375 0 
L 9.078125 0 
z
" id="DejaVuSans-107"/>
       <path d="M 50.984375 -16.609375 
L 50.984375 -23.578125 
L -0.984375 -23.578125 
L -0.984375 -16.609375 
z
" id="DejaVuSans-95"/>
       <path d="M 19.671875 64.796875 
L 19.671875 37.40625 
L 32.078125 37.40625 
Q 38.96875 37.40625 42.71875 40.96875 
Q 46.484375 44.53125 46.484375 51.125 
Q 46.484375 57.671875 42.71875 61.234375 
Q 38.96875 64.796875 32.078125 64.796875 
z
M 9.8125 72.90625 
L 32.078125 72.90625 
Q 44.34375 72.90625 50.609375 67.359375 
Q 56.890625 61.8125 56.890625 51.125 
Q 56.890625 40.328125 50.609375 34.8125 
Q 44.34375 29.296875 32.078125 29.296875 
L 19.671875 29.296875 
L 19.671875 0 
L 9.8125 0 
z
" id="DejaVuSans-80"/>
       <path d="M 56.203125 29.59375 
L 56.203125 25.203125 
L 14.890625 25.203125 
Q 15.484375 15.921875 20.484375 11.0625 
Q 25.484375 6.203125 34.421875 6.203125 
Q 39.59375 6.203125 44.453125 7.46875 
Q 49.3125 8.734375 54.109375 11.28125 
L 54.109375 2.78125 
Q 49.265625 0.734375 44.1875 -0.34375 
Q 39.109375 -1.421875 33.890625 -1.421875 
Q 20.796875 -1.421875 13.15625 6.1875 
Q 5.515625 13.8125 5.515625 26.8125 
Q 5.515625 40.234375 12.765625 48.109375 
Q 20.015625 56 32.328125 56 
Q 43.359375 56 49.78125 48.890625 
Q 56.203125 41.796875 56.203125 29.59375 
z
M 47.21875 32.234375 
Q 47.125 39.59375 43.09375 43.984375 
Q 39.0625 48.390625 32.421875 48.390625 
Q 24.90625 48.390625 20.390625 44.140625 
Q 15.875 39.890625 15.1875 32.171875 
z
" id="DejaVuSans-101"/>
       <path d="M 18.3125 70.21875 
L 18.3125 54.6875 
L 36.8125 54.6875 
L 36.8125 47.703125 
L 18.3125 47.703125 
L 18.3125 18.015625 
Q 18.3125 11.328125 20.140625 9.421875 
Q 21.96875 7.515625 27.59375 7.515625 
L 36.8125 7.515625 
L 36.8125 0 
L 27.59375 0 
Q 17.1875 0 13.234375 3.875 
Q 9.28125 7.765625 9.28125 18.015625 
L 9.28125 47.703125 
L 2.6875 47.703125 
L 2.6875 54.6875 
L 9.28125 54.6875 
L 9.28125 70.21875 
z
" id="DejaVuSans-116"/>
       <path d="M 64.40625 67.28125 
L 64.40625 56.890625 
Q 59.421875 61.53125 53.78125 63.8125 
Q 48.140625 66.109375 41.796875 66.109375 
Q 29.296875 66.109375 22.65625 58.46875 
Q 16.015625 50.828125 16.015625 36.375 
Q 16.015625 21.96875 22.65625 14.328125 
Q 29.296875 6.6875 41.796875 6.6875 
Q 48.140625 6.6875 53.78125 8.984375 
Q 59.421875 11.28125 64.40625 15.921875 
L 64.40625 5.609375 
Q 59.234375 2.09375 53.4375 0.328125 
Q 47.65625 -1.421875 41.21875 -1.421875 
Q 24.65625 -1.421875 15.125 8.703125 
Q 5.609375 18.84375 5.609375 36.375 
Q 5.609375 53.953125 15.125 64.078125 
Q 24.65625 74.21875 41.21875 74.21875 
Q 47.75 74.21875 53.53125 72.484375 
Q 59.328125 70.75 64.40625 67.28125 
z
" id="DejaVuSans-67"/>
       <path d="M 8.5 21.578125 
L 8.5 54.6875 
L 17.484375 54.6875 
L 17.484375 21.921875 
Q 17.484375 14.15625 20.5 10.265625 
Q 23.53125 6.390625 29.59375 6.390625 
Q 36.859375 6.390625 41.078125 11.03125 
Q 45.3125 15.671875 45.3125 23.6875 
L 45.3125 54.6875 
L 54.296875 54.6875 
L 54.296875 0 
L 45.3125 0 
L 45.3125 8.40625 
Q 42.046875 3.421875 37.71875 1 
Q 33.40625 -1.421875 27.6875 -1.421875 
Q 18.265625 -1.421875 13.375 4.4375 
Q 8.5 10.296875 8.5 21.578125 
z
M 31.109375 56 
z
" id="DejaVuSans-117"/>
       <path d="M 54.890625 33.015625 
L 54.890625 0 
L 45.90625 0 
L 45.90625 32.71875 
Q 45.90625 40.484375 42.875 44.328125 
Q 39.84375 48.1875 33.796875 48.1875 
Q 26.515625 48.1875 22.3125 43.546875 
Q 18.109375 38.921875 18.109375 30.90625 
L 18.109375 0 
L 9.078125 0 
L 9.078125 54.6875 
L 18.109375 54.6875 
L 18.109375 46.1875 
Q 21.34375 51.125 25.703125 53.5625 
Q 30.078125 56 35.796875 56 
Q 45.21875 56 50.046875 50.171875 
Q 54.890625 44.34375 54.890625 33.015625 
z
" id="DejaVuSans-110"/>
      </defs>
      <use xlink:href="#DejaVuSans-66"/>
      <use x="68.603516" xlink:href="#DejaVuSans-108"/>
      <use x="96.386719" xlink:href="#DejaVuSans-111"/>
      <use x="157.568359" xlink:href="#DejaVuSans-99"/>
      <use x="212.548828" xlink:href="#DejaVuSans-107"/>
      <use x="270.458984" xlink:href="#DejaVuSans-95"/>
      <use x="320.458984" xlink:href="#DejaVuSans-80"/>
      <use x="377.136719" xlink:href="#DejaVuSans-101"/>
      <use x="438.660156" xlink:href="#DejaVuSans-108"/>
      <use x="466.443359" xlink:href="#DejaVuSans-108"/>
      <use x="494.226562" xlink:href="#DejaVuSans-101"/>
      <use x="555.75" xlink:href="#DejaVuSans-116"/>
      <use x="594.958984" xlink:href="#DejaVuSans-95"/>
      <use x="644.958984" xlink:href="#DejaVuSans-67"/>
      <use x="714.783203" xlink:href="#DejaVuSans-111"/>
      <use x="775.964844" xlink:href="#DejaVuSans-117"/>
      <use x="839.34375" xlink:href="#DejaVuSans-110"/>
      <use x="902.722656" xlink:href="#DejaVuSans-116"/>
     </g>
    </g>
   </g>
   <g id="matplotlib.axis_2">
    <g id="ytick_1">
     <g id="line2d_11">
      <path clip-path="url(#p323c14c0f9)" d="M 108 441 
L 777.6 441 
" style="fill:none;stroke:#b0b0b0;stroke-linecap:square;stroke-width:0.8;"/>
     </g>
     <g id="line2d_12">
      <defs>
       <path d="M 0 0 
L -3.5 0 
" id="ma3af426b43" style="stroke:#000000;stroke-width:0.8;"/>
      </defs>
      <g>
       <use style="stroke:#000000;stroke-width:0.8;" x="108" xlink:href="#ma3af426b43" y="441"/>
      </g>
     </g>
     <g id="text_7">
      <!-- 0.00 -->
      <g transform="translate(78.734375 444.799219)scale(0.1 -0.1)">
       <defs>
        <path d="M 10.6875 12.40625 
L 21 12.40625 
L 21 0 
L 10.6875 0 
z
" id="DejaVuSans-46"/>
       </defs>
       <use xlink:href="#DejaVuSans-48"/>
       <use x="63.623047" xlink:href="#DejaVuSans-46"/>
       <use x="95.410156" xlink:href="#DejaVuSans-48"/>
       <use x="159.033203" xlink:href="#DejaVuSans-48"/>
      </g>
     </g>
    </g>
    <g id="ytick_2">
     <g id="line2d_13">
      <path clip-path="url(#p323c14c0f9)" d="M 108 367.487316 
L 777.6 367.487316 
" style="fill:none;stroke:#b0b0b0;stroke-linecap:square;stroke-width:0.8;"/>
     </g>
     <g id="line2d_14">
      <g>
       <use style="stroke:#000000;stroke-width:0.8;" x="108" xlink:href="#ma3af426b43" y="367.487316"/>
      </g>
     </g>
     <g id="text_8">
      <!-- 0.02 -->
      <g transform="translate(78.734375 371.286535)scale(0.1 -0.1)">
       <use xlink:href="#DejaVuSans-48"/>
       <use x="63.623047" xlink:href="#DejaVuSans-46"/>
       <use x="95.410156" xlink:href="#DejaVuSans-48"/>
       <use x="159.033203" xlink:href="#DejaVuSans-50"/>
      </g>
     </g>
    </g>
    <g id="ytick_3">
     <g id="line2d_15">
      <path clip-path="url(#p323c14c0f9)" d="M 108 293.974632 
L 777.6 293.974632 
" style="fill:none;stroke:#b0b0b0;stroke-linecap:square;stroke-width:0.8;"/>
     </g>
     <g id="line2d_16">
      <g>
       <use style="stroke:#000000;stroke-width:0.8;" x="108" xlink:href="#ma3af426b43" y="293.974632"/>
      </g>
     </g>
     <g id="text_9">
      <!-- 0.04 -->
      <g transform="translate(78.734375 297.77385)scale(0.1 -0.1)">
       <use xlink:href="#DejaVuSans-48"/>
       <use x="63.623047" xlink:href="#DejaVuSans-46"/>
       <use x="95.410156" xlink:href="#DejaVuSans-48"/>
       <use x="159.033203" xlink:href="#DejaVuSans-52"/>
      </g>
     </g>
    </g>
    <g id="ytick_4">
     <g id="line2d_17">
      <path clip-path="url(#p323c14c0f9)" d="M 108 220.461947 
L 777.6 220.461947 
" style="fill:none;stroke:#b0b0b0;stroke-linecap:square;stroke-width:0.8;"/>
     </g>
     <g id="line2d_18">
      <g>
       <use style="stroke:#000000;stroke-width:0.8;" x="108" xlink:href="#ma3af426b43" y="220.461947"/>
      </g>
     </g>
     <g id="text_10">
      <!-- 0.06 -->
      <g transform="translate(78.734375 224.261166)scale(0.1 -0.1)">
       <defs>
        <path d="M 33.015625 40.375 
Q 26.375 40.375 22.484375 35.828125 
Q 18.609375 31.296875 18.609375 23.390625 
Q 18.609375 15.53125 22.484375 10.953125 
Q 26.375 6.390625 33.015625 6.390625 
Q 39.65625 6.390625 43.53125 10.953125 
Q 47.40625 15.53125 47.40625 23.390625 
Q 47.40625 31.296875 43.53125 35.828125 
Q 39.65625 40.375 33.015625 40.375 
z
M 52.59375 71.296875 
L 52.59375 62.3125 
Q 48.875 64.0625 45.09375 64.984375 
Q 41.3125 65.921875 37.59375 65.921875 
Q 27.828125 65.921875 22.671875 59.328125 
Q 17.53125 52.734375 16.796875 39.40625 
Q 19.671875 43.65625 24.015625 45.921875 
Q 28.375 48.1875 33.59375 48.1875 
Q 44.578125 48.1875 50.953125 41.515625 
Q 57.328125 34.859375 57.328125 23.390625 
Q 57.328125 12.15625 50.6875 5.359375 
Q 44.046875 -1.421875 33.015625 -1.421875 
Q 20.359375 -1.421875 13.671875 8.265625 
Q 6.984375 17.96875 6.984375 36.375 
Q 6.984375 53.65625 15.1875 63.9375 
Q 23.390625 74.21875 37.203125 74.21875 
Q 40.921875 74.21875 44.703125 73.484375 
Q 48.484375 72.75 52.59375 71.296875 
z
" id="DejaVuSans-54"/>
       </defs>
       <use xlink:href="#DejaVuSans-48"/>
       <use x="63.623047" xlink:href="#DejaVuSans-46"/>
       <use x="95.410156" xlink:href="#DejaVuSans-48"/>
       <use x="159.033203" xlink:href="#DejaVuSans-54"/>
      </g>
     </g>
    </g>
    <g id="ytick_5">
     <g id="line2d_19">
      <path clip-path="url(#p323c14c0f9)" d="M 108 146.949263 
L 777.6 146.949263 
" style="fill:none;stroke:#b0b0b0;stroke-linecap:square;stroke-width:0.8;"/>
     </g>
     <g id="line2d_20">
      <g>
       <use style="stroke:#000000;stroke-width:0.8;" x="108" xlink:href="#ma3af426b43" y="146.949263"/>
      </g>
     </g>
     <g id="text_11">
      <!-- 0.08 -->
      <g transform="translate(78.734375 150.748482)scale(0.1 -0.1)">
       <defs>
        <path d="M 31.78125 34.625 
Q 24.75 34.625 20.71875 30.859375 
Q 16.703125 27.09375 16.703125 20.515625 
Q 16.703125 13.921875 20.71875 10.15625 
Q 24.75 6.390625 31.78125 6.390625 
Q 38.8125 6.390625 42.859375 10.171875 
Q 46.921875 13.96875 46.921875 20.515625 
Q 46.921875 27.09375 42.890625 30.859375 
Q 38.875 34.625 31.78125 34.625 
z
M 21.921875 38.8125 
Q 15.578125 40.375 12.03125 44.71875 
Q 8.5 49.078125 8.5 55.328125 
Q 8.5 64.0625 14.71875 69.140625 
Q 20.953125 74.21875 31.78125 74.21875 
Q 42.671875 74.21875 48.875 69.140625 
Q 55.078125 64.0625 55.078125 55.328125 
Q 55.078125 49.078125 51.53125 44.71875 
Q 48 40.375 41.703125 38.8125 
Q 48.828125 37.15625 52.796875 32.3125 
Q 56.78125 27.484375 56.78125 20.515625 
Q 56.78125 9.90625 50.3125 4.234375 
Q 43.84375 -1.421875 31.78125 -1.421875 
Q 19.734375 -1.421875 13.25 4.234375 
Q 6.78125 9.90625 6.78125 20.515625 
Q 6.78125 27.484375 10.78125 32.3125 
Q 14.796875 37.15625 21.921875 38.8125 
z
M 18.3125 54.390625 
Q 18.3125 48.734375 21.84375 45.5625 
Q 25.390625 42.390625 31.78125 42.390625 
Q 38.140625 42.390625 41.71875 45.5625 
Q 45.3125 48.734375 45.3125 54.390625 
Q 45.3125 60.0625 41.71875 63.234375 
Q 38.140625 66.40625 31.78125 66.40625 
Q 25.390625 66.40625 21.84375 63.234375 
Q 18.3125 60.0625 18.3125 54.390625 
z
" id="DejaVuSans-56"/>
       </defs>
       <use xlink:href="#DejaVuSans-48"/>
       <use x="63.623047" xlink:href="#DejaVuSans-46"/>
       <use x="95.410156" xlink:href="#DejaVuSans-48"/>
       <use x="159.033203" xlink:href="#DejaVuSans-56"/>
      </g>
     </g>
    </g>
    <g id="ytick_6">
     <g id="line2d_21">
      <path clip-path="url(#p323c14c0f9)" d="M 108 73.436579 
L 777.6 73.436579 
" style="fill:none;stroke:#b0b0b0;stroke-linecap:square;stroke-width:0.8;"/>
     </g>
     <g id="line2d_22">
      <g>
       <use style="stroke:#000000;stroke-width:0.8;" x="108" xlink:href="#ma3af426b43" y="73.436579"/>
      </g>
     </g>
     <g id="text_12">
      <!-- 0.10 -->
      <g transform="translate(78.734375 77.235798)scale(0.1 -0.1)">
       <use xlink:href="#DejaVuSans-48"/>
       <use x="63.623047" xlink:href="#DejaVuSans-46"/>
       <use x="95.410156" xlink:href="#DejaVuSans-49"/>
       <use x="159.033203" xlink:href="#DejaVuSans-48"/>
      </g>
     </g>
    </g>
    <g id="text_13">
     <!-- Average Frequency -->
     <g transform="translate(72.654687 298.691563)rotate(-90)scale(0.1 -0.1)">
      <defs>
       <path d="M 34.1875 63.1875 
L 20.796875 26.90625 
L 47.609375 26.90625 
z
M 28.609375 72.90625 
L 39.796875 72.90625 
L 67.578125 0 
L 57.328125 0 
L 50.6875 18.703125 
L 17.828125 18.703125 
L 11.1875 0 
L 0.78125 0 
z
" id="DejaVuSans-65"/>
       <path d="M 2.984375 54.6875 
L 12.5 54.6875 
L 29.59375 8.796875 
L 46.6875 54.6875 
L 56.203125 54.6875 
L 35.6875 0 
L 23.484375 0 
z
" id="DejaVuSans-118"/>
       <path d="M 41.109375 46.296875 
Q 39.59375 47.171875 37.8125 47.578125 
Q 36.03125 48 33.890625 48 
Q 26.265625 48 22.1875 43.046875 
Q 18.109375 38.09375 18.109375 28.8125 
L 18.109375 0 
L 9.078125 0 
L 9.078125 54.6875 
L 18.109375 54.6875 
L 18.109375 46.1875 
Q 20.953125 51.171875 25.484375 53.578125 
Q 30.03125 56 36.53125 56 
Q 37.453125 56 38.578125 55.875 
Q 39.703125 55.765625 41.0625 55.515625 
z
" id="DejaVuSans-114"/>
       <path d="M 34.28125 27.484375 
Q 23.390625 27.484375 19.1875 25 
Q 14.984375 22.515625 14.984375 16.5 
Q 14.984375 11.71875 18.140625 8.90625 
Q 21.296875 6.109375 26.703125 6.109375 
Q 34.1875 6.109375 38.703125 11.40625 
Q 43.21875 16.703125 43.21875 25.484375 
L 43.21875 27.484375 
z
M 52.203125 31.203125 
L 52.203125 0 
L 43.21875 0 
L 43.21875 8.296875 
Q 40.140625 3.328125 35.546875 0.953125 
Q 30.953125 -1.421875 24.3125 -1.421875 
Q 15.921875 -1.421875 10.953125 3.296875 
Q 6 8.015625 6 15.921875 
Q 6 25.140625 12.171875 29.828125 
Q 18.359375 34.515625 30.609375 34.515625 
L 43.21875 34.515625 
L 43.21875 35.40625 
Q 43.21875 41.609375 39.140625 45 
Q 35.0625 48.390625 27.6875 48.390625 
Q 23 48.390625 18.546875 47.265625 
Q 14.109375 46.140625 10.015625 43.890625 
L 10.015625 52.203125 
Q 14.9375 54.109375 19.578125 55.046875 
Q 24.21875 56 28.609375 56 
Q 40.484375 56 46.34375 49.84375 
Q 52.203125 43.703125 52.203125 31.203125 
z
" id="DejaVuSans-97"/>
       <path d="M 45.40625 27.984375 
Q 45.40625 37.75 41.375 43.109375 
Q 37.359375 48.484375 30.078125 48.484375 
Q 22.859375 48.484375 18.828125 43.109375 
Q 14.796875 37.75 14.796875 27.984375 
Q 14.796875 18.265625 18.828125 12.890625 
Q 22.859375 7.515625 30.078125 7.515625 
Q 37.359375 7.515625 41.375 12.890625 
Q 45.40625 18.265625 45.40625 27.984375 
z
M 54.390625 6.78125 
Q 54.390625 -7.171875 48.1875 -13.984375 
Q 42 -20.796875 29.203125 -20.796875 
Q 24.46875 -20.796875 20.265625 -20.09375 
Q 16.0625 -19.390625 12.109375 -17.921875 
L 12.109375 -9.1875 
Q 16.0625 -11.328125 19.921875 -12.34375 
Q 23.78125 -13.375 27.78125 -13.375 
Q 36.625 -13.375 41.015625 -8.765625 
Q 45.40625 -4.15625 45.40625 5.171875 
L 45.40625 9.625 
Q 42.625 4.78125 38.28125 2.390625 
Q 33.9375 0 27.875 0 
Q 17.828125 0 11.671875 7.65625 
Q 5.515625 15.328125 5.515625 27.984375 
Q 5.515625 40.671875 11.671875 48.328125 
Q 17.828125 56 27.875 56 
Q 33.9375 56 38.28125 53.609375 
Q 42.625 51.21875 45.40625 46.390625 
L 45.40625 54.6875 
L 54.390625 54.6875 
z
" id="DejaVuSans-103"/>
       <path id="DejaVuSans-32"/>
       <path d="M 9.8125 72.90625 
L 51.703125 72.90625 
L 51.703125 64.59375 
L 19.671875 64.59375 
L 19.671875 43.109375 
L 48.578125 43.109375 
L 48.578125 34.8125 
L 19.671875 34.8125 
L 19.671875 0 
L 9.8125 0 
z
" id="DejaVuSans-70"/>
       <path d="M 14.796875 27.296875 
Q 14.796875 17.390625 18.875 11.75 
Q 22.953125 6.109375 30.078125 6.109375 
Q 37.203125 6.109375 41.296875 11.75 
Q 45.40625 17.390625 45.40625 27.296875 
Q 45.40625 37.203125 41.296875 42.84375 
Q 37.203125 48.484375 30.078125 48.484375 
Q 22.953125 48.484375 18.875 42.84375 
Q 14.796875 37.203125 14.796875 27.296875 
z
M 45.40625 8.203125 
Q 42.578125 3.328125 38.25 0.953125 
Q 33.9375 -1.421875 27.875 -1.421875 
Q 17.96875 -1.421875 11.734375 6.484375 
Q 5.515625 14.40625 5.515625 27.296875 
Q 5.515625 40.1875 11.734375 48.09375 
Q 17.96875 56 27.875 56 
Q 33.9375 56 38.25 53.625 
Q 42.578125 51.265625 45.40625 46.390625 
L 45.40625 54.6875 
L 54.390625 54.6875 
L 54.390625 -20.796875 
L 45.40625 -20.796875 
z
" id="DejaVuSans-113"/>
       <path d="M 32.171875 -5.078125 
Q 28.375 -14.84375 24.75 -17.8125 
Q 21.140625 -20.796875 15.09375 -20.796875 
L 7.90625 -20.796875 
L 7.90625 -13.28125 
L 13.1875 -13.28125 
Q 16.890625 -13.28125 18.9375 -11.515625 
Q 21 -9.765625 23.484375 -3.21875 
L 25.09375 0.875 
L 2.984375 54.6875 
L 12.5 54.6875 
L 29.59375 11.921875 
L 46.6875 54.6875 
L 56.203125 54.6875 
z
" id="DejaVuSans-121"/>
      </defs>
      <use xlink:href="#DejaVuSans-65"/>
      <use x="62.533203" xlink:href="#DejaVuSans-118"/>
      <use x="121.712891" xlink:href="#DejaVuSans-101"/>
      <use x="183.236328" xlink:href="#DejaVuSans-114"/>
      <use x="224.349609" xlink:href="#DejaVuSans-97"/>
      <use x="285.628906" xlink:href="#DejaVuSans-103"/>
      <use x="349.105469" xlink:href="#DejaVuSans-101"/>
      <use x="410.628906" xlink:href="#DejaVuSans-32"/>
      <use x="442.416016" xlink:href="#DejaVuSans-70"/>
      <use x="492.685547" xlink:href="#DejaVuSans-114"/>
      <use x="531.548828" xlink:href="#DejaVuSans-101"/>
      <use x="593.072266" xlink:href="#DejaVuSans-113"/>
      <use x="656.548828" xlink:href="#DejaVuSans-117"/>
      <use x="719.927734" xlink:href="#DejaVuSans-101"/>
      <use x="781.451172" xlink:href="#DejaVuSans-110"/>
      <use x="844.830078" xlink:href="#DejaVuSans-99"/>
      <use x="899.810547" xlink:href="#DejaVuSans-121"/>
     </g>
    </g>
   </g>
   <g id="line2d_23">
    <path clip-path="url(#p323c14c0f9)" d="M 138.436364 439.956401 
L 141.495295 439.216572 
L 144.554226 438.052516 
L 147.613157 436.288693 
L 150.672088 433.716333 
L 153.731019 430.108001 
L 156.78995 425.243832 
L 159.848881 418.949176 
L 162.907812 411.140157 
L 165.966743 401.869837 
L 169.025674 391.364612 
L 178.202467 357.397212 
L 181.261398 347.53265 
L 184.320329 339.563436 
L 187.37926 333.990869 
L 190.438191 331.053494 
L 193.497122 330.676988 
L 196.556053 332.472904 
L 199.614984 335.787047 
L 202.673915 339.787791 
L 205.732846 343.576995 
L 208.791777 346.303077 
L 211.850708 347.257624 
L 214.909639 345.942501 
L 217.96857 342.101719 
L 221.027501 335.719397 
L 224.086432 326.990308 
L 227.145363 316.272314 
L 230.204294 304.03044 
L 236.322156 277.042832 
L 242.440018 249.963471 
L 245.498949 237.380481 
L 248.55788 225.80492 
L 251.616811 215.413152 
L 254.675742 206.310919 
L 257.734673 198.546803 
L 260.793604 192.12812 
L 263.852535 187.037563 
L 266.911466 183.24881 
L 269.970397 180.739022 
L 273.029328 179.496167 
L 276.088259 179.519674 
L 279.14719 180.814026 
L 282.206122 183.376543 
L 285.265053 187.182116 
L 288.323984 192.168764 
L 291.382915 198.227965 
L 294.441846 205.202818 
L 297.500777 212.895323 
L 303.618639 229.534753 
L 309.736501 246.438595 
L 315.854363 262.465915 
L 321.972225 277.338525 
L 331.149018 298.399855 
L 343.384742 325.951561 
L 346.443673 332.466665 
L 349.502604 338.583901 
L 352.561535 344.153675 
L 355.620466 349.04276 
L 358.679397 353.153821 
L 361.738328 356.440463 
L 364.797259 358.91491 
L 367.85619 360.646603 
L 370.915121 361.751666 
L 373.974052 362.375049 
L 377.032983 362.668789 
L 383.150845 362.788273 
L 395.386569 362.897377 
L 401.504431 363.076344 
L 404.563362 363.282407 
L 407.622293 363.669499 
L 410.681224 364.343252 
L 413.740155 365.41447 
L 416.799086 366.981008 
L 419.858017 369.110896 
L 422.916948 371.829971 
L 425.975879 375.115849 
L 429.03481 378.898595 
L 432.093741 383.067153 
L 444.329466 400.574181 
L 447.388397 404.379098 
L 450.447328 407.697316 
L 453.506259 410.450009 
L 456.56519 412.593332 
L 459.624121 414.117382 
L 462.683052 415.042011 
L 465.741983 415.410325 
L 468.800914 415.281178 
L 471.859845 414.722178 
L 474.918776 413.804588 
L 477.977707 412.60085 
L 481.036638 411.184615 
L 493.272362 404.972337 
L 496.331293 403.686608 
L 499.390224 402.64377 
L 502.449155 401.876223 
L 505.508086 401.385458 
L 508.567017 401.142272 
L 511.625948 401.093661 
L 517.74381 401.32922 
L 526.920603 401.998706 
L 529.979534 402.379588 
L 533.038465 402.94509 
L 536.097396 403.764126 
L 539.156327 404.882605 
L 542.215258 406.307692 
L 545.274189 407.999252 
L 554.450982 413.630052 
L 557.509913 415.224031 
L 560.568844 416.447741 
L 563.627775 417.206414 
L 566.686706 417.452892 
L 569.745637 417.19338 
L 572.804568 416.48649 
L 575.863499 415.436115 
L 585.040292 411.666968 
L 588.099223 410.707866 
L 591.158154 410.105726 
L 594.217085 409.934627 
L 597.276016 410.226591 
L 600.334947 410.972814 
L 603.393878 412.129579 
L 606.45281 413.627505 
L 609.511741 415.382438 
L 615.629603 419.315588 
L 621.747465 423.320163 
L 627.865327 427.005055 
L 630.924258 428.665207 
L 633.983189 430.188367 
L 637.04212 431.567638 
L 640.101051 432.796613 
L 643.159982 433.868295 
L 646.218913 434.775591 
L 649.277844 435.513053 
L 652.336775 436.079277 
L 655.395706 436.47917 
L 658.454637 436.725359 
L 664.572499 436.844656 
L 673.749292 436.532639 
L 682.926085 436.283502 
L 689.043947 436.374558 
L 695.161809 436.732253 
L 701.279671 437.346163 
L 713.515395 438.980276 
L 719.633257 439.727221 
L 725.751119 440.289673 
L 731.868981 440.650706 
L 741.045774 440.905641 
L 747.163636 440.966578 
L 747.163636 440.966578 
" style="fill:none;stroke:#0000ff;stroke-dasharray:5.55,2.4;stroke-dashoffset:0;stroke-width:1.5;"/>
   </g>
   <g id="line2d_24">
    <path clip-path="url(#p323c14c0f9)" d="M 146.828118 440.091238 
L 149.44596 439.424099 
L 152.063802 438.362145 
L 154.681644 436.73771 
L 157.299486 434.351277 
L 159.917328 430.98669 
L 162.53517 426.438296 
L 165.153012 420.549409 
L 167.770854 413.25786 
L 170.388695 404.640396 
L 173.006537 394.944673 
L 180.860063 364.354079 
L 183.477905 355.800737 
L 186.095747 349.081904 
L 188.713589 344.557408 
L 191.331431 342.309024 
L 193.949273 342.111932 
L 196.567115 343.45681 
L 201.802798 347.751703 
L 204.42064 349.00784 
L 207.038482 348.628425 
L 209.656324 346.02339 
L 212.274166 340.811915 
L 214.892008 332.830846 
L 217.50985 322.116781 
L 220.127692 308.872031 
L 222.745534 293.424886 
L 225.363375 276.192198 
L 227.981217 257.648377 
L 238.452585 180.57116 
L 241.070427 163.005055 
L 243.688269 146.906253 
L 246.306111 132.509829 
L 248.923953 119.94196 
L 251.541794 109.231436 
L 254.159636 100.338912 
L 256.777478 93.198856 
L 259.39532 87.764644 
L 262.013162 84.045276 
L 264.631004 82.123514 
L 267.248846 82.149661 
L 269.866688 84.311446 
L 272.48453 88.786653 
L 275.102372 95.689541 
L 277.720213 105.023584 
L 280.338055 116.651461 
L 282.955897 130.289115 
L 285.573739 145.525254 
L 290.809423 178.769815 
L 296.045107 212.342124 
L 298.662949 228.239769 
L 301.280791 243.216664 
L 303.898632 257.160904 
L 306.516474 270.043286 
L 309.134316 281.887008 
L 311.752158 292.738195 
L 314.37 302.643676 
L 316.987842 311.639466 
L 319.605684 319.749992 
L 322.223526 326.995237 
L 324.841368 333.401312 
L 327.45921 339.009771 
L 330.077051 343.882035 
L 332.694893 348.097214 
L 335.312735 351.743733 
L 337.930577 354.907047 
L 340.548419 357.656866 
L 343.166261 360.037554 
L 345.784103 362.064602 
L 348.401945 363.728588 
L 351.019787 365.006176 
L 353.637629 365.875877 
L 356.25547 366.335101 
L 358.873312 366.414541 
L 361.491154 366.186501 
L 369.34468 364.948053 
L 371.962522 364.879408 
L 374.580364 365.230142 
L 377.198206 366.09821 
L 379.816048 367.529408 
L 382.43389 369.513874 
L 385.051731 371.990345 
L 387.669573 374.856523 
L 392.905257 381.227314 
L 398.140941 387.512923 
L 400.758783 390.310038 
L 403.376625 392.751351 
L 405.994467 394.779912 
L 408.612309 396.37505 
L 411.23015 397.556723 
L 413.847992 398.387165 
L 416.465834 398.967915 
L 421.701518 399.923332 
L 424.31936 400.58841 
L 426.937202 401.543918 
L 429.555044 402.8633 
L 432.172886 404.562386 
L 434.790728 406.594692 
L 442.644253 413.458412 
L 445.262095 415.461812 
L 447.879937 417.067835 
L 450.497779 418.175684 
L 453.115621 418.737016 
L 455.733463 418.757163 
L 458.351305 418.288085 
L 460.969147 417.415272 
L 463.586988 416.241783 
L 468.822672 413.40339 
L 474.058356 410.455687 
L 479.29404 407.806534 
L 481.911882 406.663667 
L 484.529724 405.665393 
L 487.147566 404.823077 
L 489.765407 404.14039 
L 492.383249 403.60912 
L 497.618933 402.889546 
L 502.854617 402.303058 
L 508.090301 401.437553 
L 513.325985 400.177309 
L 518.561668 398.927144 
L 521.17951 398.54488 
L 523.797352 398.459052 
L 526.415194 398.744192 
L 529.033036 399.436644 
L 531.650878 400.528024 
L 534.26872 401.967104 
L 536.886562 403.669697 
L 549.975771 412.907218 
L 555.211455 416.071018 
L 565.682823 421.927728 
L 570.918506 424.605688 
L 573.536348 425.7649 
L 576.15419 426.746532 
L 578.772032 427.51877 
L 581.389874 428.066889 
L 584.007716 428.39704 
L 586.625558 428.536981 
L 591.861242 428.446818 
L 597.096925 428.281176 
L 599.714767 428.311953 
L 602.332609 428.463779 
L 604.950451 428.744134 
L 610.186135 429.628677 
L 618.039661 431.359091 
L 625.893186 433.266044 
L 631.12887 434.713831 
L 644.21808 438.506923 
L 649.453763 439.604695 
L 654.689447 440.317188 
L 659.925131 440.708989 
L 667.778657 440.937787 
L 667.778657 440.937787 
" style="fill:none;stroke:#ff0000;stroke-dasharray:5.55,2.4;stroke-dashoffset:0;stroke-width:1.5;"/>
   </g>
   <g id="patch_85">
    <path d="M 108 441 
L 108 60.48 
" style="fill:none;stroke:#000000;stroke-linecap:square;stroke-linejoin:miter;stroke-width:0.8;"/>
   </g>
   <g id="patch_86">
    <path d="M 777.6 441 
L 777.6 60.48 
" style="fill:none;stroke:#000000;stroke-linecap:square;stroke-linejoin:miter;stroke-width:0.8;"/>
   </g>
   <g id="patch_87">
    <path d="M 108 441 
L 777.6 441 
" style="fill:none;stroke:#000000;stroke-linecap:square;stroke-linejoin:miter;stroke-width:0.8;"/>
   </g>
   <g id="patch_88">
    <path d="M 108 60.48 
L 777.6 60.48 
" style="fill:none;stroke:#000000;stroke-linecap:square;stroke-linejoin:miter;stroke-width:0.8;"/>
   </g>
   <g id="text_14">
    <!-- Average Normalized Histograms and KDE of Block_Pellet_Counts -->
    <g transform="translate(249.3825 54.48)scale(0.12 -0.12)">
     <defs>
      <path d="M 9.8125 72.90625 
L 23.09375 72.90625 
L 55.421875 11.921875 
L 55.421875 72.90625 
L 64.984375 72.90625 
L 64.984375 0 
L 51.703125 0 
L 19.390625 60.984375 
L 19.390625 0 
L 9.8125 0 
z
" id="DejaVuSans-78"/>
      <path d="M 52 44.1875 
Q 55.375 50.25 60.0625 53.125 
Q 64.75 56 71.09375 56 
Q 79.640625 56 84.28125 50.015625 
Q 88.921875 44.046875 88.921875 33.015625 
L 88.921875 0 
L 79.890625 0 
L 79.890625 32.71875 
Q 79.890625 40.578125 77.09375 44.375 
Q 74.3125 48.1875 68.609375 48.1875 
Q 61.625 48.1875 57.5625 43.546875 
Q 53.515625 38.921875 53.515625 30.90625 
L 53.515625 0 
L 44.484375 0 
L 44.484375 32.71875 
Q 44.484375 40.625 41.703125 44.40625 
Q 38.921875 48.1875 33.109375 48.1875 
Q 26.21875 48.1875 22.15625 43.53125 
Q 18.109375 38.875 18.109375 30.90625 
L 18.109375 0 
L 9.078125 0 
L 9.078125 54.6875 
L 18.109375 54.6875 
L 18.109375 46.1875 
Q 21.1875 51.21875 25.484375 53.609375 
Q 29.78125 56 35.6875 56 
Q 41.65625 56 45.828125 52.96875 
Q 50 49.953125 52 44.1875 
z
" id="DejaVuSans-109"/>
      <path d="M 9.421875 54.6875 
L 18.40625 54.6875 
L 18.40625 0 
L 9.421875 0 
z
M 9.421875 75.984375 
L 18.40625 75.984375 
L 18.40625 64.59375 
L 9.421875 64.59375 
z
" id="DejaVuSans-105"/>
      <path d="M 5.515625 54.6875 
L 48.1875 54.6875 
L 48.1875 46.484375 
L 14.40625 7.171875 
L 48.1875 7.171875 
L 48.1875 0 
L 4.296875 0 
L 4.296875 8.203125 
L 38.09375 47.515625 
L 5.515625 47.515625 
z
" id="DejaVuSans-122"/>
      <path d="M 45.40625 46.390625 
L 45.40625 75.984375 
L 54.390625 75.984375 
L 54.390625 0 
L 45.40625 0 
L 45.40625 8.203125 
Q 42.578125 3.328125 38.25 0.953125 
Q 33.9375 -1.421875 27.875 -1.421875 
Q 17.96875 -1.421875 11.734375 6.484375 
Q 5.515625 14.40625 5.515625 27.296875 
Q 5.515625 40.1875 11.734375 48.09375 
Q 17.96875 56 27.875 56 
Q 33.9375 56 38.25 53.625 
Q 42.578125 51.265625 45.40625 46.390625 
z
M 14.796875 27.296875 
Q 14.796875 17.390625 18.875 11.75 
Q 22.953125 6.109375 30.078125 6.109375 
Q 37.203125 6.109375 41.296875 11.75 
Q 45.40625 17.390625 45.40625 27.296875 
Q 45.40625 37.203125 41.296875 42.84375 
Q 37.203125 48.484375 30.078125 48.484375 
Q 22.953125 48.484375 18.875 42.84375 
Q 14.796875 37.203125 14.796875 27.296875 
z
" id="DejaVuSans-100"/>
      <path d="M 9.8125 72.90625 
L 19.671875 72.90625 
L 19.671875 43.015625 
L 55.515625 43.015625 
L 55.515625 72.90625 
L 65.375 72.90625 
L 65.375 0 
L 55.515625 0 
L 55.515625 34.71875 
L 19.671875 34.71875 
L 19.671875 0 
L 9.8125 0 
z
" id="DejaVuSans-72"/>
      <path d="M 44.28125 53.078125 
L 44.28125 44.578125 
Q 40.484375 46.53125 36.375 47.5 
Q 32.28125 48.484375 27.875 48.484375 
Q 21.1875 48.484375 17.84375 46.4375 
Q 14.5 44.390625 14.5 40.28125 
Q 14.5 37.15625 16.890625 35.375 
Q 19.28125 33.59375 26.515625 31.984375 
L 29.59375 31.296875 
Q 39.15625 29.25 43.1875 25.515625 
Q 47.21875 21.78125 47.21875 15.09375 
Q 47.21875 7.46875 41.1875 3.015625 
Q 35.15625 -1.421875 24.609375 -1.421875 
Q 20.21875 -1.421875 15.453125 -0.5625 
Q 10.6875 0.296875 5.421875 2 
L 5.421875 11.28125 
Q 10.40625 8.6875 15.234375 7.390625 
Q 20.0625 6.109375 24.8125 6.109375 
Q 31.15625 6.109375 34.5625 8.28125 
Q 37.984375 10.453125 37.984375 14.40625 
Q 37.984375 18.0625 35.515625 20.015625 
Q 33.0625 21.96875 24.703125 23.78125 
L 21.578125 24.515625 
Q 13.234375 26.265625 9.515625 29.90625 
Q 5.8125 33.546875 5.8125 39.890625 
Q 5.8125 47.609375 11.28125 51.796875 
Q 16.75 56 26.8125 56 
Q 31.78125 56 36.171875 55.265625 
Q 40.578125 54.546875 44.28125 53.078125 
z
" id="DejaVuSans-115"/>
      <path d="M 9.8125 72.90625 
L 19.671875 72.90625 
L 19.671875 42.09375 
L 52.390625 72.90625 
L 65.09375 72.90625 
L 28.90625 38.921875 
L 67.671875 0 
L 54.6875 0 
L 19.671875 35.109375 
L 19.671875 0 
L 9.8125 0 
z
" id="DejaVuSans-75"/>
      <path d="M 19.671875 64.796875 
L 19.671875 8.109375 
L 31.59375 8.109375 
Q 46.6875 8.109375 53.6875 14.9375 
Q 60.6875 21.78125 60.6875 36.53125 
Q 60.6875 51.171875 53.6875 57.984375 
Q 46.6875 64.796875 31.59375 64.796875 
z
M 9.8125 72.90625 
L 30.078125 72.90625 
Q 51.265625 72.90625 61.171875 64.09375 
Q 71.09375 55.28125 71.09375 36.53125 
Q 71.09375 17.671875 61.125 8.828125 
Q 51.171875 0 30.078125 0 
L 9.8125 0 
z
" id="DejaVuSans-68"/>
      <path d="M 9.8125 72.90625 
L 55.90625 72.90625 
L 55.90625 64.59375 
L 19.671875 64.59375 
L 19.671875 43.015625 
L 54.390625 43.015625 
L 54.390625 34.71875 
L 19.671875 34.71875 
L 19.671875 8.296875 
L 56.78125 8.296875 
L 56.78125 0 
L 9.8125 0 
z
" id="DejaVuSans-69"/>
      <path d="M 37.109375 75.984375 
L 37.109375 68.5 
L 28.515625 68.5 
Q 23.6875 68.5 21.796875 66.546875 
Q 19.921875 64.59375 19.921875 59.515625 
L 19.921875 54.6875 
L 34.71875 54.6875 
L 34.71875 47.703125 
L 19.921875 47.703125 
L 19.921875 0 
L 10.890625 0 
L 10.890625 47.703125 
L 2.296875 47.703125 
L 2.296875 54.6875 
L 10.890625 54.6875 
L 10.890625 58.5 
Q 10.890625 67.625 15.140625 71.796875 
Q 19.390625 75.984375 28.609375 75.984375 
z
" id="DejaVuSans-102"/>
     </defs>
     <use xlink:href="#DejaVuSans-65"/>
     <use x="62.533203" xlink:href="#DejaVuSans-118"/>
     <use x="121.712891" xlink:href="#DejaVuSans-101"/>
     <use x="183.236328" xlink:href="#DejaVuSans-114"/>
     <use x="224.349609" xlink:href="#DejaVuSans-97"/>
     <use x="285.628906" xlink:href="#DejaVuSans-103"/>
     <use x="349.105469" xlink:href="#DejaVuSans-101"/>
     <use x="410.628906" xlink:href="#DejaVuSans-32"/>
     <use x="442.416016" xlink:href="#DejaVuSans-78"/>
     <use x="517.220703" xlink:href="#DejaVuSans-111"/>
     <use x="578.402344" xlink:href="#DejaVuSans-114"/>
     <use x="617.765625" xlink:href="#DejaVuSans-109"/>
     <use x="715.177734" xlink:href="#DejaVuSans-97"/>
     <use x="776.457031" xlink:href="#DejaVuSans-108"/>
     <use x="804.240234" xlink:href="#DejaVuSans-105"/>
     <use x="832.023438" xlink:href="#DejaVuSans-122"/>
     <use x="884.513672" xlink:href="#DejaVuSans-101"/>
     <use x="946.037109" xlink:href="#DejaVuSans-100"/>
     <use x="1009.513672" xlink:href="#DejaVuSans-32"/>
     <use x="1041.300781" xlink:href="#DejaVuSans-72"/>
     <use x="1116.496094" xlink:href="#DejaVuSans-105"/>
     <use x="1144.279297" xlink:href="#DejaVuSans-115"/>
     <use x="1196.378906" xlink:href="#DejaVuSans-116"/>
     <use x="1235.587891" xlink:href="#DejaVuSans-111"/>
     <use x="1296.769531" xlink:href="#DejaVuSans-103"/>
     <use x="1360.246094" xlink:href="#DejaVuSans-114"/>
     <use x="1401.359375" xlink:href="#DejaVuSans-97"/>
     <use x="1462.638672" xlink:href="#DejaVuSans-109"/>
     <use x="1560.050781" xlink:href="#DejaVuSans-115"/>
     <use x="1612.150391" xlink:href="#DejaVuSans-32"/>
     <use x="1643.9375" xlink:href="#DejaVuSans-97"/>
     <use x="1705.216797" xlink:href="#DejaVuSans-110"/>
     <use x="1768.595703" xlink:href="#DejaVuSans-100"/>
     <use x="1832.072266" xlink:href="#DejaVuSans-32"/>
     <use x="1863.859375" xlink:href="#DejaVuSans-75"/>
     <use x="1929.435547" xlink:href="#DejaVuSans-68"/>
     <use x="2006.4375" xlink:href="#DejaVuSans-69"/>
     <use x="2069.621094" xlink:href="#DejaVuSans-32"/>
     <use x="2101.408203" xlink:href="#DejaVuSans-111"/>
     <use x="2162.589844" xlink:href="#DejaVuSans-102"/>
     <use x="2197.794922" xlink:href="#DejaVuSans-32"/>
     <use x="2229.582031" xlink:href="#DejaVuSans-66"/>
     <use x="2298.185547" xlink:href="#DejaVuSans-108"/>
     <use x="2325.96875" xlink:href="#DejaVuSans-111"/>
     <use x="2387.150391" xlink:href="#DejaVuSans-99"/>
     <use x="2442.130859" xlink:href="#DejaVuSans-107"/>
     <use x="2500.041016" xlink:href="#DejaVuSans-95"/>
     <use x="2550.041016" xlink:href="#DejaVuSans-80"/>
     <use x="2606.71875" xlink:href="#DejaVuSans-101"/>
     <use x="2668.242188" xlink:href="#DejaVuSans-108"/>
     <use x="2696.025391" xlink:href="#DejaVuSans-108"/>
     <use x="2723.808594" xlink:href="#DejaVuSans-101"/>
     <use x="2785.332031" xlink:href="#DejaVuSans-116"/>
     <use x="2824.541016" xlink:href="#DejaVuSans-95"/>
     <use x="2874.541016" xlink:href="#DejaVuSans-67"/>
     <use x="2944.365234" xlink:href="#DejaVuSans-111"/>
     <use x="3005.546875" xlink:href="#DejaVuSans-117"/>
     <use x="3068.925781" xlink:href="#DejaVuSans-110"/>
     <use x="3132.304688" xlink:href="#DejaVuSans-116"/>
     <use x="3171.513672" xlink:href="#DejaVuSans-115"/>
    </g>
   </g>
   <g id="legend_1">
    <g id="patch_89">
     <path d="M 627.765625 127.74875 
L 770.6 127.74875 
Q 772.6 127.74875 772.6 125.74875 
L 772.6 67.48 
Q 772.6 65.48 770.6 65.48 
L 627.765625 65.48 
Q 625.765625 65.48 625.765625 67.48 
L 625.765625 125.74875 
Q 625.765625 127.74875 627.765625 127.74875 
z
" style="fill:#ffffff;opacity:0.8;stroke:#cccccc;stroke-linejoin:miter;"/>
    </g>
    <g id="line2d_25">
     <path d="M 629.765625 73.578438 
L 649.765625 73.578438 
" style="fill:none;stroke:#0000ff;stroke-dasharray:5.55,2.4;stroke-dashoffset:0;stroke-width:1.5;"/>
    </g>
    <g id="line2d_26"/>
    <g id="text_15">
     <!-- KDE for result_df1 -->
     <g transform="translate(657.765625 77.078438)scale(0.1 -0.1)">
      <use xlink:href="#DejaVuSans-75"/>
      <use x="65.576172" xlink:href="#DejaVuSans-68"/>
      <use x="142.578125" xlink:href="#DejaVuSans-69"/>
      <use x="205.761719" xlink:href="#DejaVuSans-32"/>
      <use x="237.548828" xlink:href="#DejaVuSans-102"/>
      <use x="272.753906" xlink:href="#DejaVuSans-111"/>
      <use x="333.935547" xlink:href="#DejaVuSans-114"/>
      <use x="375.048828" xlink:href="#DejaVuSans-32"/>
      <use x="406.835938" xlink:href="#DejaVuSans-114"/>
      <use x="445.699219" xlink:href="#DejaVuSans-101"/>
      <use x="507.222656" xlink:href="#DejaVuSans-115"/>
      <use x="559.322266" xlink:href="#DejaVuSans-117"/>
      <use x="622.701172" xlink:href="#DejaVuSans-108"/>
      <use x="650.484375" xlink:href="#DejaVuSans-116"/>
      <use x="689.693359" xlink:href="#DejaVuSans-95"/>
      <use x="739.693359" xlink:href="#DejaVuSans-100"/>
      <use x="803.169922" xlink:href="#DejaVuSans-102"/>
      <use x="838.375" xlink:href="#DejaVuSans-49"/>
     </g>
    </g>
    <g id="line2d_27">
     <path d="M 629.765625 88.534688 
L 649.765625 88.534688 
" style="fill:none;stroke:#ff0000;stroke-dasharray:5.55,2.4;stroke-dashoffset:0;stroke-width:1.5;"/>
    </g>
    <g id="line2d_28"/>
    <g id="text_16">
     <!-- KDE for result_df2 -->
     <g transform="translate(657.765625 92.034688)scale(0.1 -0.1)">
      <use xlink:href="#DejaVuSans-75"/>
      <use x="65.576172" xlink:href="#DejaVuSans-68"/>
      <use x="142.578125" xlink:href="#DejaVuSans-69"/>
      <use x="205.761719" xlink:href="#DejaVuSans-32"/>
      <use x="237.548828" xlink:href="#DejaVuSans-102"/>
      <use x="272.753906" xlink:href="#DejaVuSans-111"/>
      <use x="333.935547" xlink:href="#DejaVuSans-114"/>
      <use x="375.048828" xlink:href="#DejaVuSans-32"/>
      <use x="406.835938" xlink:href="#DejaVuSans-114"/>
      <use x="445.699219" xlink:href="#DejaVuSans-101"/>
      <use x="507.222656" xlink:href="#DejaVuSans-115"/>
      <use x="559.322266" xlink:href="#DejaVuSans-117"/>
      <use x="622.701172" xlink:href="#DejaVuSans-108"/>
      <use x="650.484375" xlink:href="#DejaVuSans-116"/>
      <use x="689.693359" xlink:href="#DejaVuSans-95"/>
      <use x="739.693359" xlink:href="#DejaVuSans-100"/>
      <use x="803.169922" xlink:href="#DejaVuSans-102"/>
      <use x="838.375" xlink:href="#DejaVuSans-50"/>
     </g>
    </g>
    <g id="patch_90">
     <path d="M 629.765625 106.990938 
L 649.765625 106.990938 
L 649.765625 99.990938 
L 629.765625 99.990938 
z
" style="fill:#1f77b4;opacity:0.5;stroke:#000000;stroke-linejoin:miter;"/>
    </g>
    <g id="text_17">
     <!-- Histogram from SHAM -->
     <g transform="translate(657.765625 106.990938)scale(0.1 -0.1)">
      <defs>
       <path d="M 53.515625 70.515625 
L 53.515625 60.890625 
Q 47.90625 63.578125 42.921875 64.890625 
Q 37.9375 66.21875 33.296875 66.21875 
Q 25.25 66.21875 20.875 63.09375 
Q 16.5 59.96875 16.5 54.203125 
Q 16.5 49.359375 19.40625 46.890625 
Q 22.3125 44.4375 30.421875 42.921875 
L 36.375 41.703125 
Q 47.40625 39.59375 52.65625 34.296875 
Q 57.90625 29 57.90625 20.125 
Q 57.90625 9.515625 50.796875 4.046875 
Q 43.703125 -1.421875 29.984375 -1.421875 
Q 24.8125 -1.421875 18.96875 -0.25 
Q 13.140625 0.921875 6.890625 3.21875 
L 6.890625 13.375 
Q 12.890625 10.015625 18.65625 8.296875 
Q 24.421875 6.59375 29.984375 6.59375 
Q 38.421875 6.59375 43.015625 9.90625 
Q 47.609375 13.234375 47.609375 19.390625 
Q 47.609375 24.75 44.3125 27.78125 
Q 41.015625 30.8125 33.5 32.328125 
L 27.484375 33.5 
Q 16.453125 35.6875 11.515625 40.375 
Q 6.59375 45.0625 6.59375 53.421875 
Q 6.59375 63.09375 13.40625 68.65625 
Q 20.21875 74.21875 32.171875 74.21875 
Q 37.3125 74.21875 42.625 73.28125 
Q 47.953125 72.359375 53.515625 70.515625 
z
" id="DejaVuSans-83"/>
       <path d="M 9.8125 72.90625 
L 24.515625 72.90625 
L 43.109375 23.296875 
L 61.8125 72.90625 
L 76.515625 72.90625 
L 76.515625 0 
L 66.890625 0 
L 66.890625 64.015625 
L 48.09375 14.015625 
L 38.1875 14.015625 
L 19.390625 64.015625 
L 19.390625 0 
L 9.8125 0 
z
" id="DejaVuSans-77"/>
      </defs>
      <use xlink:href="#DejaVuSans-72"/>
      <use x="75.195312" xlink:href="#DejaVuSans-105"/>
      <use x="102.978516" xlink:href="#DejaVuSans-115"/>
      <use x="155.078125" xlink:href="#DejaVuSans-116"/>
      <use x="194.287109" xlink:href="#DejaVuSans-111"/>
      <use x="255.46875" xlink:href="#DejaVuSans-103"/>
      <use x="318.945312" xlink:href="#DejaVuSans-114"/>
      <use x="360.058594" xlink:href="#DejaVuSans-97"/>
      <use x="421.337891" xlink:href="#DejaVuSans-109"/>
      <use x="518.75" xlink:href="#DejaVuSans-32"/>
      <use x="550.537109" xlink:href="#DejaVuSans-102"/>
      <use x="585.742188" xlink:href="#DejaVuSans-114"/>
      <use x="624.605469" xlink:href="#DejaVuSans-111"/>
      <use x="685.787109" xlink:href="#DejaVuSans-109"/>
      <use x="783.199219" xlink:href="#DejaVuSans-32"/>
      <use x="814.986328" xlink:href="#DejaVuSans-83"/>
      <use x="878.462891" xlink:href="#DejaVuSans-72"/>
      <use x="953.658203" xlink:href="#DejaVuSans-65"/>
      <use x="1022.066406" xlink:href="#DejaVuSans-77"/>
     </g>
    </g>
    <g id="patch_91">
     <path d="M 629.765625 121.669062 
L 649.765625 121.669062 
L 649.765625 114.669062 
L 629.765625 114.669062 
z
" style="fill:#ff7f0e;opacity:0.5;stroke:#000000;stroke-linejoin:miter;"/>
    </g>
    <g id="text_18">
     <!-- Histogram from SNI -->
     <g transform="translate(657.765625 121.669062)scale(0.1 -0.1)">
      <defs>
       <path d="M 9.8125 72.90625 
L 19.671875 72.90625 
L 19.671875 0 
L 9.8125 0 
z
" id="DejaVuSans-73"/>
      </defs>
      <use xlink:href="#DejaVuSans-72"/>
      <use x="75.195312" xlink:href="#DejaVuSans-105"/>
      <use x="102.978516" xlink:href="#DejaVuSans-115"/>
      <use x="155.078125" xlink:href="#DejaVuSans-116"/>
      <use x="194.287109" xlink:href="#DejaVuSans-111"/>
      <use x="255.46875" xlink:href="#DejaVuSans-103"/>
      <use x="318.945312" xlink:href="#DejaVuSans-114"/>
      <use x="360.058594" xlink:href="#DejaVuSans-97"/>
      <use x="421.337891" xlink:href="#DejaVuSans-109"/>
      <use x="518.75" xlink:href="#DejaVuSans-32"/>
      <use x="550.537109" xlink:href="#DejaVuSans-102"/>
      <use x="585.742188" xlink:href="#DejaVuSans-114"/>
      <use x="624.605469" xlink:href="#DejaVuSans-111"/>
      <use x="685.787109" xlink:href="#DejaVuSans-109"/>
      <use x="783.199219" xlink:href="#DejaVuSans-32"/>
      <use x="814.986328" xlink:href="#DejaVuSans-83"/>
      <use x="878.462891" xlink:href="#DejaVuSans-78"/>
      <use x="953.267578" xlink:href="#DejaVuSans-73"/>
     </g>
    </g>
   </g>
  </g>
 </g>
 <defs>
  <clipPath id="p323c14c0f9">
   <rect height="380.52" width="669.6" x="108" y="60.48"/>
  </clipPath>
 </defs>
</svg>
