<?xml version="1.0" encoding="utf-8" standalone="no"?>
<!DOCTYPE svg PUBLIC "-//W3C//DTD SVG 1.1//EN"
  "http://www.w3.org/Graphics/SVG/1.1/DTD/svg11.dtd">
<svg xmlns:xlink="http://www.w3.org/1999/xlink" width="864pt" height="504pt" viewBox="0 0 864 504" xmlns="http://www.w3.org/2000/svg" version="1.1">
 <metadata>
  <rdf:RDF xmlns:dc="http://purl.org/dc/elements/1.1/" xmlns:cc="http://creativecommons.org/ns#" xmlns:rdf="http://www.w3.org/1999/02/22-rdf-syntax-ns#">
   <cc:Work>
    <dc:type rdf:resource="http://purl.org/dc/dcmitype/StillImage"/>
    <dc:date>2024-12-31T18:27:40.068348</dc:date>
    <dc:format>image/svg+xml</dc:format>
    <dc:creator>
     <cc:Agent>
      <dc:title>Matplotlib v3.5.1, https://matplotlib.org/</dc:title>
     </cc:Agent>
    </dc:creator>
   </cc:Work>
  </rdf:RDF>
 </metadata>
 <defs>
  <style type="text/css">*{stroke-linejoin: round; stroke-linecap: butt}</style>
 </defs>
 <g id="figure_1">
  <g id="patch_1">
   <path d="M 0 504 
L 864 504 
L 864 0 
L 0 0 
z
" style="fill: #ffffff"/>
  </g>
  <g id="axes_1">
   <g id="patch_2">
    <path d="M 108 441 
L 777.6 441 
L 777.6 60.48 
L 108 60.48 
z
" style="fill: #ffffff"/>
   </g>
   <g id="patch_3">
    <path d="M 115.3656 441 
L 122.0616 441 
L 122.0616 228.330446 
L 115.3656 228.330446 
z
" clip-path="url(#pc15864147f)" style="fill: #1f77b4; opacity: 0.5; stroke: #000000; stroke-linejoin: miter"/>
   </g>
   <g id="patch_4">
    <path d="M 128.7576 441 
L 135.4536 441 
L 135.4536 241.256815 
L 128.7576 241.256815 
z
" clip-path="url(#pc15864147f)" style="fill: #1f77b4; opacity: 0.5; stroke: #000000; stroke-linejoin: miter"/>
   </g>
   <g id="patch_5">
    <path d="M 142.1496 441 
L 148.8456 441 
L 148.8456 347.129936 
L 142.1496 347.129936 
z
" clip-path="url(#pc15864147f)" style="fill: #1f77b4; opacity: 0.5; stroke: #000000; stroke-linejoin: miter"/>
   </g>
   <g id="patch_6">
    <path d="M 155.5416 441 
L 162.2376 441 
L 162.2376 354.516433 
L 155.5416 354.516433 
z
" clip-path="url(#pc15864147f)" style="fill: #1f77b4; opacity: 0.5; stroke: #000000; stroke-linejoin: miter"/>
   </g>
   <g id="patch_7">
    <path d="M 168.9336 441 
L 175.6296 441 
L 175.6296 361.595159 
L 168.9336 361.595159 
z
" clip-path="url(#pc15864147f)" style="fill: #1f77b4; opacity: 0.5; stroke: #000000; stroke-linejoin: miter"/>
   </g>
   <g id="patch_8">
    <path d="M 182.3256 441 
L 189.0216 441 
L 189.0216 370.52051 
L 182.3256 370.52051 
z
" clip-path="url(#pc15864147f)" style="fill: #1f77b4; opacity: 0.5; stroke: #000000; stroke-linejoin: miter"/>
   </g>
   <g id="patch_9">
    <path d="M 195.7176 441 
L 202.4136 441 
L 202.4136 375.752611 
L 195.7176 375.752611 
z
" clip-path="url(#pc15864147f)" style="fill: #1f77b4; opacity: 0.5; stroke: #000000; stroke-linejoin: miter"/>
   </g>
   <g id="patch_10">
    <path d="M 209.1096 441 
L 215.8056 441 
L 215.8056 382.831338 
L 209.1096 382.831338 
z
" clip-path="url(#pc15864147f)" style="fill: #1f77b4; opacity: 0.5; stroke: #000000; stroke-linejoin: miter"/>
   </g>
   <g id="patch_11">
    <path d="M 222.5016 441 
L 229.1976 441 
L 229.1976 387.755669 
L 222.5016 387.755669 
z
" clip-path="url(#pc15864147f)" style="fill: #1f77b4; opacity: 0.5; stroke: #000000; stroke-linejoin: miter"/>
   </g>
   <g id="patch_12">
    <path d="M 235.8936 441 
L 242.5896 441 
L 242.5896 391.141146 
L 235.8936 391.141146 
z
" clip-path="url(#pc15864147f)" style="fill: #1f77b4; opacity: 0.5; stroke: #000000; stroke-linejoin: miter"/>
   </g>
   <g id="patch_13">
    <path d="M 249.2856 441 
L 255.9816 441 
L 255.9816 395.142166 
L 249.2856 395.142166 
z
" clip-path="url(#pc15864147f)" style="fill: #1f77b4; opacity: 0.5; stroke: #000000; stroke-linejoin: miter"/>
   </g>
   <g id="patch_14">
    <path d="M 262.6776 441 
L 269.3736 441 
L 269.3736 398.219873 
L 262.6776 398.219873 
z
" clip-path="url(#pc15864147f)" style="fill: #1f77b4; opacity: 0.5; stroke: #000000; stroke-linejoin: miter"/>
   </g>
   <g id="patch_15">
    <path d="M 276.0696 441 
L 282.7656 441 
L 282.7656 401.29758 
L 276.0696 401.29758 
z
" clip-path="url(#pc15864147f)" style="fill: #1f77b4; opacity: 0.5; stroke: #000000; stroke-linejoin: miter"/>
   </g>
   <g id="patch_16">
    <path d="M 289.4616 441 
L 296.1576 441 
L 296.1576 406.529682 
L 289.4616 406.529682 
z
" clip-path="url(#pc15864147f)" style="fill: #1f77b4; opacity: 0.5; stroke: #000000; stroke-linejoin: miter"/>
   </g>
   <g id="patch_17">
    <path d="M 302.8536 441 
L 309.5496 441 
L 309.5496 409.915159 
L 302.8536 409.915159 
z
" clip-path="url(#pc15864147f)" style="fill: #1f77b4; opacity: 0.5; stroke: #000000; stroke-linejoin: miter"/>
   </g>
   <g id="patch_18">
    <path d="M 316.2456 441 
L 322.9416 441 
L 322.9416 412.685096 
L 316.2456 412.685096 
z
" clip-path="url(#pc15864147f)" style="fill: #1f77b4; opacity: 0.5; stroke: #000000; stroke-linejoin: miter"/>
   </g>
   <g id="patch_19">
    <path d="M 329.6376 441 
L 336.3336 441 
L 336.3336 414.53172 
L 329.6376 414.53172 
z
" clip-path="url(#pc15864147f)" style="fill: #1f77b4; opacity: 0.5; stroke: #000000; stroke-linejoin: miter"/>
   </g>
   <g id="patch_20">
    <path d="M 343.0296 441 
L 349.7256 441 
L 349.7256 415.762803 
L 343.0296 415.762803 
z
" clip-path="url(#pc15864147f)" style="fill: #1f77b4; opacity: 0.5; stroke: #000000; stroke-linejoin: miter"/>
   </g>
   <g id="patch_21">
    <path d="M 356.4216 441 
L 363.1176 441 
L 363.1176 418.224968 
L 356.4216 418.224968 
z
" clip-path="url(#pc15864147f)" style="fill: #1f77b4; opacity: 0.5; stroke: #000000; stroke-linejoin: miter"/>
   </g>
   <g id="patch_22">
    <path d="M 369.8136 441 
L 376.5096 441 
L 376.5096 420.687134 
L 369.8136 420.687134 
z
" clip-path="url(#pc15864147f)" style="fill: #1f77b4; opacity: 0.5; stroke: #000000; stroke-linejoin: miter"/>
   </g>
   <g id="patch_23">
    <path d="M 383.2056 441 
L 389.9016 441 
L 389.9016 420.687134 
L 383.2056 420.687134 
z
" clip-path="url(#pc15864147f)" style="fill: #1f77b4; opacity: 0.5; stroke: #000000; stroke-linejoin: miter"/>
   </g>
   <g id="patch_24">
    <path d="M 396.5976 441 
L 403.2936 441 
L 403.2936 422.225987 
L 396.5976 422.225987 
z
" clip-path="url(#pc15864147f)" style="fill: #1f77b4; opacity: 0.5; stroke: #000000; stroke-linejoin: miter"/>
   </g>
   <g id="patch_25">
    <path d="M 409.9896 441 
L 416.6856 441 
L 416.6856 425.303694 
L 409.9896 425.303694 
z
" clip-path="url(#pc15864147f)" style="fill: #1f77b4; opacity: 0.5; stroke: #000000; stroke-linejoin: miter"/>
   </g>
   <g id="patch_26">
    <path d="M 423.3816 441 
L 430.0776 441 
L 430.0776 425.303694 
L 423.3816 425.303694 
z
" clip-path="url(#pc15864147f)" style="fill: #1f77b4; opacity: 0.5; stroke: #000000; stroke-linejoin: miter"/>
   </g>
   <g id="patch_27">
    <path d="M 436.7736 441 
L 443.4696 441 
L 443.4696 427.458089 
L 436.7736 427.458089 
z
" clip-path="url(#pc15864147f)" style="fill: #1f77b4; opacity: 0.5; stroke: #000000; stroke-linejoin: miter"/>
   </g>
   <g id="patch_28">
    <path d="M 450.1656 441 
L 456.8616 441 
L 456.8616 428.996943 
L 450.1656 428.996943 
z
" clip-path="url(#pc15864147f)" style="fill: #1f77b4; opacity: 0.5; stroke: #000000; stroke-linejoin: miter"/>
   </g>
   <g id="patch_29">
    <path d="M 463.5576 441 
L 470.2536 441 
L 470.2536 428.996943 
L 463.5576 428.996943 
z
" clip-path="url(#pc15864147f)" style="fill: #1f77b4; opacity: 0.5; stroke: #000000; stroke-linejoin: miter"/>
   </g>
   <g id="patch_30">
    <path d="M 476.9496 441 
L 483.6456 441 
L 483.6456 429.920255 
L 476.9496 429.920255 
z
" clip-path="url(#pc15864147f)" style="fill: #1f77b4; opacity: 0.5; stroke: #000000; stroke-linejoin: miter"/>
   </g>
   <g id="patch_31">
    <path d="M 490.3416 441 
L 497.0376 441 
L 497.0376 431.459108 
L 490.3416 431.459108 
z
" clip-path="url(#pc15864147f)" style="fill: #1f77b4; opacity: 0.5; stroke: #000000; stroke-linejoin: miter"/>
   </g>
   <g id="patch_32">
    <path d="M 503.7336 441 
L 510.4296 441 
L 510.4296 432.690191 
L 503.7336 432.690191 
z
" clip-path="url(#pc15864147f)" style="fill: #1f77b4; opacity: 0.5; stroke: #000000; stroke-linejoin: miter"/>
   </g>
   <g id="patch_33">
    <path d="M 517.1256 441 
L 523.8216 441 
L 523.8216 434.229045 
L 517.1256 434.229045 
z
" clip-path="url(#pc15864147f)" style="fill: #1f77b4; opacity: 0.5; stroke: #000000; stroke-linejoin: miter"/>
   </g>
   <g id="patch_34">
    <path d="M 530.5176 441 
L 537.2136 441 
L 537.2136 434.844586 
L 530.5176 434.844586 
z
" clip-path="url(#pc15864147f)" style="fill: #1f77b4; opacity: 0.5; stroke: #000000; stroke-linejoin: miter"/>
   </g>
   <g id="patch_35">
    <path d="M 543.9096 441 
L 550.6056 441 
L 550.6056 436.075669 
L 543.9096 436.075669 
z
" clip-path="url(#pc15864147f)" style="fill: #1f77b4; opacity: 0.5; stroke: #000000; stroke-linejoin: miter"/>
   </g>
   <g id="patch_36">
    <path d="M 557.3016 441 
L 563.9976 441 
L 563.9976 436.69121 
L 557.3016 436.69121 
z
" clip-path="url(#pc15864147f)" style="fill: #1f77b4; opacity: 0.5; stroke: #000000; stroke-linejoin: miter"/>
   </g>
   <g id="patch_37">
    <path d="M 570.6936 441 
L 577.3896 441 
L 577.3896 436.69121 
L 570.6936 436.69121 
z
" clip-path="url(#pc15864147f)" style="fill: #1f77b4; opacity: 0.5; stroke: #000000; stroke-linejoin: miter"/>
   </g>
   <g id="patch_38">
    <path d="M 584.0856 441 
L 590.7816 441 
L 590.7816 438.230064 
L 584.0856 438.230064 
z
" clip-path="url(#pc15864147f)" style="fill: #1f77b4; opacity: 0.5; stroke: #000000; stroke-linejoin: miter"/>
   </g>
   <g id="patch_39">
    <path d="M 597.4776 441 
L 604.1736 441 
L 604.1736 438.537834 
L 597.4776 438.537834 
z
" clip-path="url(#pc15864147f)" style="fill: #1f77b4; opacity: 0.5; stroke: #000000; stroke-linejoin: miter"/>
   </g>
   <g id="patch_40">
    <path d="M 610.8696 441 
L 617.5656 441 
L 617.5656 439.153376 
L 610.8696 439.153376 
z
" clip-path="url(#pc15864147f)" style="fill: #1f77b4; opacity: 0.5; stroke: #000000; stroke-linejoin: miter"/>
   </g>
   <g id="patch_41">
    <path d="M 624.2616 441 
L 630.9576 441 
L 630.9576 439.768917 
L 624.2616 439.768917 
z
" clip-path="url(#pc15864147f)" style="fill: #1f77b4; opacity: 0.5; stroke: #000000; stroke-linejoin: miter"/>
   </g>
   <g id="patch_42">
    <path d="M 637.6536 441 
L 644.3496 441 
L 644.3496 440.076688 
L 637.6536 440.076688 
z
" clip-path="url(#pc15864147f)" style="fill: #1f77b4; opacity: 0.5; stroke: #000000; stroke-linejoin: miter"/>
   </g>
   <g id="patch_43">
    <path d="M 651.0456 441 
L 657.7416 441 
L 657.7416 440.384459 
L 651.0456 440.384459 
z
" clip-path="url(#pc15864147f)" style="fill: #1f77b4; opacity: 0.5; stroke: #000000; stroke-linejoin: miter"/>
   </g>
   <g id="patch_44">
    <path d="M 664.4376 441 
L 671.1336 441 
L 671.1336 440.384459 
L 664.4376 440.384459 
z
" clip-path="url(#pc15864147f)" style="fill: #1f77b4; opacity: 0.5; stroke: #000000; stroke-linejoin: miter"/>
   </g>
   <g id="patch_45">
    <path d="M 677.8296 441 
L 684.5256 441 
L 684.5256 440.384459 
L 677.8296 440.384459 
z
" clip-path="url(#pc15864147f)" style="fill: #1f77b4; opacity: 0.5; stroke: #000000; stroke-linejoin: miter"/>
   </g>
   <g id="patch_46">
    <path d="M 691.2216 441 
L 697.9176 441 
L 697.9176 440.384459 
L 691.2216 440.384459 
z
" clip-path="url(#pc15864147f)" style="fill: #1f77b4; opacity: 0.5; stroke: #000000; stroke-linejoin: miter"/>
   </g>
   <g id="patch_47">
    <path d="M 704.6136 441 
L 711.3096 441 
L 711.3096 440.384459 
L 704.6136 440.384459 
z
" clip-path="url(#pc15864147f)" style="fill: #1f77b4; opacity: 0.5; stroke: #000000; stroke-linejoin: miter"/>
   </g>
   <g id="patch_48">
    <path d="M 120.7224 441 
L 127.4184 441 
L 127.4184 78.6 
L 120.7224 78.6 
z
" clip-path="url(#pc15864147f)" style="fill: #ff7f0e; opacity: 0.5; stroke: #000000; stroke-linejoin: miter"/>
   </g>
   <g id="patch_49">
    <path d="M 134.1144 441 
L 140.8104 441 
L 140.8104 103.221656 
L 134.1144 103.221656 
z
" clip-path="url(#pc15864147f)" style="fill: #ff7f0e; opacity: 0.5; stroke: #000000; stroke-linejoin: miter"/>
   </g>
   <g id="patch_50">
    <path d="M 147.5064 441 
L 154.2024 441 
L 154.2024 300.194904 
L 147.5064 300.194904 
z
" clip-path="url(#pc15864147f)" style="fill: #ff7f0e; opacity: 0.5; stroke: #000000; stroke-linejoin: miter"/>
   </g>
   <g id="patch_51">
    <path d="M 160.8984 441 
L 167.5944 441 
L 167.5944 320.2 
L 160.8984 320.2 
z
" clip-path="url(#pc15864147f)" style="fill: #ff7f0e; opacity: 0.5; stroke: #000000; stroke-linejoin: miter"/>
   </g>
   <g id="patch_52">
    <path d="M 174.2904 441 
L 180.9864 441 
L 180.9864 346.36051 
L 174.2904 346.36051 
z
" clip-path="url(#pc15864147f)" style="fill: #ff7f0e; opacity: 0.5; stroke: #000000; stroke-linejoin: miter"/>
   </g>
   <g id="patch_53">
    <path d="M 187.6824 441 
L 194.3784 441 
L 194.3784 367.904459 
L 187.6824 367.904459 
z
" clip-path="url(#pc15864147f)" style="fill: #ff7f0e; opacity: 0.5; stroke: #000000; stroke-linejoin: miter"/>
   </g>
   <g id="patch_54">
    <path d="M 201.0744 441 
L 207.7704 441 
L 207.7704 386.370701 
L 201.0744 386.370701 
z
" clip-path="url(#pc15864147f)" style="fill: #ff7f0e; opacity: 0.5; stroke: #000000; stroke-linejoin: miter"/>
   </g>
   <g id="patch_55">
    <path d="M 214.4664 441 
L 221.1624 441 
L 221.1624 397.142675 
L 214.4664 397.142675 
z
" clip-path="url(#pc15864147f)" style="fill: #ff7f0e; opacity: 0.5; stroke: #000000; stroke-linejoin: miter"/>
   </g>
   <g id="patch_56">
    <path d="M 227.8584 441 
L 234.5544 441 
L 234.5544 400.989809 
L 227.8584 400.989809 
z
" clip-path="url(#pc15864147f)" style="fill: #ff7f0e; opacity: 0.5; stroke: #000000; stroke-linejoin: miter"/>
   </g>
   <g id="patch_57">
    <path d="M 241.2504 441 
L 247.9464 441 
L 247.9464 406.375796 
L 241.2504 406.375796 
z
" clip-path="url(#pc15864147f)" style="fill: #ff7f0e; opacity: 0.5; stroke: #000000; stroke-linejoin: miter"/>
   </g>
   <g id="patch_58">
    <path d="M 254.6424 441 
L 261.3384 441 
L 261.3384 415.608917 
L 254.6424 415.608917 
z
" clip-path="url(#pc15864147f)" style="fill: #ff7f0e; opacity: 0.5; stroke: #000000; stroke-linejoin: miter"/>
   </g>
   <g id="patch_59">
    <path d="M 268.0344 441 
L 274.7304 441 
L 274.7304 417.147771 
L 268.0344 417.147771 
z
" clip-path="url(#pc15864147f)" style="fill: #ff7f0e; opacity: 0.5; stroke: #000000; stroke-linejoin: miter"/>
   </g>
   <g id="patch_60">
    <path d="M 281.4264 441 
L 288.1224 441 
L 288.1224 418.686624 
L 281.4264 418.686624 
z
" clip-path="url(#pc15864147f)" style="fill: #ff7f0e; opacity: 0.5; stroke: #000000; stroke-linejoin: miter"/>
   </g>
   <g id="patch_61">
    <path d="M 294.8184 441 
L 301.5144 441 
L 301.5144 423.303185 
L 294.8184 423.303185 
z
" clip-path="url(#pc15864147f)" style="fill: #ff7f0e; opacity: 0.5; stroke: #000000; stroke-linejoin: miter"/>
   </g>
   <g id="patch_62">
    <path d="M 308.2104 441 
L 314.9064 441 
L 314.9064 428.689172 
L 308.2104 428.689172 
z
" clip-path="url(#pc15864147f)" style="fill: #ff7f0e; opacity: 0.5; stroke: #000000; stroke-linejoin: miter"/>
   </g>
   <g id="patch_63">
    <path d="M 321.6024 441 
L 328.2984 441 
L 328.2984 431.766879 
L 321.6024 431.766879 
z
" clip-path="url(#pc15864147f)" style="fill: #ff7f0e; opacity: 0.5; stroke: #000000; stroke-linejoin: miter"/>
   </g>
   <g id="patch_64">
    <path d="M 334.9944 441 
L 341.6904 441 
L 341.6904 433.305732 
L 334.9944 433.305732 
z
" clip-path="url(#pc15864147f)" style="fill: #ff7f0e; opacity: 0.5; stroke: #000000; stroke-linejoin: miter"/>
   </g>
   <g id="patch_65">
    <path d="M 348.3864 441 
L 355.0824 441 
L 355.0824 434.844586 
L 348.3864 434.844586 
z
" clip-path="url(#pc15864147f)" style="fill: #ff7f0e; opacity: 0.5; stroke: #000000; stroke-linejoin: miter"/>
   </g>
   <g id="patch_66">
    <path d="M 361.7784 441 
L 368.4744 441 
L 368.4744 436.383439 
L 361.7784 436.383439 
z
" clip-path="url(#pc15864147f)" style="fill: #ff7f0e; opacity: 0.5; stroke: #000000; stroke-linejoin: miter"/>
   </g>
   <g id="patch_67">
    <path d="M 375.1704 441 
L 381.8664 441 
L 381.8664 436.383439 
L 375.1704 436.383439 
z
" clip-path="url(#pc15864147f)" style="fill: #ff7f0e; opacity: 0.5; stroke: #000000; stroke-linejoin: miter"/>
   </g>
   <g id="patch_68">
    <path d="M 388.5624 441 
L 395.2584 441 
L 395.2584 437.152866 
L 388.5624 437.152866 
z
" clip-path="url(#pc15864147f)" style="fill: #ff7f0e; opacity: 0.5; stroke: #000000; stroke-linejoin: miter"/>
   </g>
   <g id="patch_69">
    <path d="M 401.9544 441 
L 408.6504 441 
L 408.6504 437.922293 
L 401.9544 437.922293 
z
" clip-path="url(#pc15864147f)" style="fill: #ff7f0e; opacity: 0.5; stroke: #000000; stroke-linejoin: miter"/>
   </g>
   <g id="patch_70">
    <path d="M 415.3464 441 
L 422.0424 441 
L 422.0424 439.461146 
L 415.3464 439.461146 
z
" clip-path="url(#pc15864147f)" style="fill: #ff7f0e; opacity: 0.5; stroke: #000000; stroke-linejoin: miter"/>
   </g>
   <g id="patch_71">
    <path d="M 428.7384 441 
L 435.4344 441 
L 435.4344 439.461146 
L 428.7384 439.461146 
z
" clip-path="url(#pc15864147f)" style="fill: #ff7f0e; opacity: 0.5; stroke: #000000; stroke-linejoin: miter"/>
   </g>
   <g id="patch_72">
    <path d="M 442.1304 441 
L 448.8264 441 
L 448.8264 439.461146 
L 442.1304 439.461146 
z
" clip-path="url(#pc15864147f)" style="fill: #ff7f0e; opacity: 0.5; stroke: #000000; stroke-linejoin: miter"/>
   </g>
   <g id="patch_73">
    <path d="M 455.5224 441 
L 462.2184 441 
L 462.2184 439.461146 
L 455.5224 439.461146 
z
" clip-path="url(#pc15864147f)" style="fill: #ff7f0e; opacity: 0.5; stroke: #000000; stroke-linejoin: miter"/>
   </g>
   <g id="patch_74">
    <path d="M 468.9144 441 
L 475.6104 441 
L 475.6104 439.461146 
L 468.9144 439.461146 
z
" clip-path="url(#pc15864147f)" style="fill: #ff7f0e; opacity: 0.5; stroke: #000000; stroke-linejoin: miter"/>
   </g>
   <g id="patch_75">
    <path d="M 482.3064 441 
L 489.0024 441 
L 489.0024 438.69172 
L 482.3064 438.69172 
z
" clip-path="url(#pc15864147f)" style="fill: #ff7f0e; opacity: 0.5; stroke: #000000; stroke-linejoin: miter"/>
   </g>
   <g id="patch_76">
    <path d="M 495.6984 441 
L 502.3944 441 
L 502.3944 438.69172 
L 495.6984 438.69172 
z
" clip-path="url(#pc15864147f)" style="fill: #ff7f0e; opacity: 0.5; stroke: #000000; stroke-linejoin: miter"/>
   </g>
   <g id="patch_77">
    <path d="M 509.0904 441 
L 515.7864 441 
L 515.7864 438.69172 
L 509.0904 438.69172 
z
" clip-path="url(#pc15864147f)" style="fill: #ff7f0e; opacity: 0.5; stroke: #000000; stroke-linejoin: miter"/>
   </g>
   <g id="patch_78">
    <path d="M 522.4824 441 
L 529.1784 441 
L 529.1784 439.461146 
L 522.4824 439.461146 
z
" clip-path="url(#pc15864147f)" style="fill: #ff7f0e; opacity: 0.5; stroke: #000000; stroke-linejoin: miter"/>
   </g>
   <g id="patch_79">
    <path d="M 535.8744 441 
L 542.5704 441 
L 542.5704 440.230573 
L 535.8744 440.230573 
z
" clip-path="url(#pc15864147f)" style="fill: #ff7f0e; opacity: 0.5; stroke: #000000; stroke-linejoin: miter"/>
   </g>
   <g id="patch_80">
    <path d="M 549.2664 441 
L 555.9624 441 
L 555.9624 440.230573 
L 549.2664 440.230573 
z
" clip-path="url(#pc15864147f)" style="fill: #ff7f0e; opacity: 0.5; stroke: #000000; stroke-linejoin: miter"/>
   </g>
   <g id="patch_81">
    <path d="M 562.6584 441 
L 569.3544 441 
L 569.3544 440.230573 
L 562.6584 440.230573 
z
" clip-path="url(#pc15864147f)" style="fill: #ff7f0e; opacity: 0.5; stroke: #000000; stroke-linejoin: miter"/>
   </g>
   <g id="patch_82">
    <path d="M 123.4008 441 
L 127.4184 441 
L 127.4184 187.241297 
L 123.4008 187.241297 
z
" clip-path="url(#pc15864147f)" style="fill: #008000; opacity: 0.5; stroke: #000000; stroke-linejoin: miter"/>
   </g>
   <g id="patch_83">
    <path d="M 136.7928 441 
L 140.8104 441 
L 140.8104 197.726023 
L 136.7928 197.726023 
z
" clip-path="url(#pc15864147f)" style="fill: #008000; opacity: 0.5; stroke: #000000; stroke-linejoin: miter"/>
   </g>
   <g id="patch_84">
    <path d="M 150.1848 441 
L 154.2024 441 
L 154.2024 327.793298 
L 150.1848 327.793298 
z
" clip-path="url(#pc15864147f)" style="fill: #008000; opacity: 0.5; stroke: #000000; stroke-linejoin: miter"/>
   </g>
   <g id="patch_85">
    <path d="M 163.5768 441 
L 167.5944 441 
L 167.5944 336.436113 
L 163.5768 336.436113 
z
" clip-path="url(#pc15864147f)" style="fill: #008000; opacity: 0.5; stroke: #000000; stroke-linejoin: miter"/>
   </g>
   <g id="patch_86">
    <path d="M 176.9688 441 
L 180.9864 441 
L 180.9864 348.337693 
L 176.9688 348.337693 
z
" clip-path="url(#pc15864147f)" style="fill: #008000; opacity: 0.5; stroke: #000000; stroke-linejoin: miter"/>
   </g>
   <g id="patch_87">
    <path d="M 190.3608 441 
L 194.3784 441 
L 194.3784 360.947701 
L 190.3608 360.947701 
z
" clip-path="url(#pc15864147f)" style="fill: #008000; opacity: 0.5; stroke: #000000; stroke-linejoin: miter"/>
   </g>
   <g id="patch_88">
    <path d="M 203.7528 441 
L 207.7704 441 
L 207.7704 373.557709 
L 203.7528 373.557709 
z
" clip-path="url(#pc15864147f)" style="fill: #008000; opacity: 0.5; stroke: #000000; stroke-linejoin: miter"/>
   </g>
   <g id="patch_89">
    <path d="M 217.1448 441 
L 221.1624 441 
L 221.1624 386.309403 
L 217.1448 386.309403 
z
" clip-path="url(#pc15864147f)" style="fill: #008000; opacity: 0.5; stroke: #000000; stroke-linejoin: miter"/>
   </g>
   <g id="patch_90">
    <path d="M 230.5368 441 
L 234.5544 441 
L 234.5544 392.543564 
L 230.5368 392.543564 
z
" clip-path="url(#pc15864147f)" style="fill: #008000; opacity: 0.5; stroke: #000000; stroke-linejoin: miter"/>
   </g>
   <g id="patch_91">
    <path d="M 243.9288 441 
L 247.9464 441 
L 247.9464 397.785927 
L 243.9288 397.785927 
z
" clip-path="url(#pc15864147f)" style="fill: #008000; opacity: 0.5; stroke: #000000; stroke-linejoin: miter"/>
   </g>
   <g id="patch_92">
    <path d="M 257.3208 441 
L 261.3384 441 
L 261.3384 401.894806 
L 257.3208 401.894806 
z
" clip-path="url(#pc15864147f)" style="fill: #008000; opacity: 0.5; stroke: #000000; stroke-linejoin: miter"/>
   </g>
   <g id="patch_93">
    <path d="M 270.7128 441 
L 274.7304 441 
L 274.7304 407.703911 
L 270.7128 407.703911 
z
" clip-path="url(#pc15864147f)" style="fill: #008000; opacity: 0.5; stroke: #000000; stroke-linejoin: miter"/>
   </g>
   <g id="patch_94">
    <path d="M 284.1048 441 
L 288.1224 441 
L 288.1224 411.246048 
L 284.1048 411.246048 
z
" clip-path="url(#pc15864147f)" style="fill: #008000; opacity: 0.5; stroke: #000000; stroke-linejoin: miter"/>
   </g>
   <g id="patch_95">
    <path d="M 297.4968 441 
L 301.5144 441 
L 301.5144 414.504814 
L 297.4968 414.504814 
z
" clip-path="url(#pc15864147f)" style="fill: #008000; opacity: 0.5; stroke: #000000; stroke-linejoin: miter"/>
   </g>
   <g id="patch_96">
    <path d="M 310.8888 441 
L 314.9064 441 
L 314.9064 416.346726 
L 310.8888 416.346726 
z
" clip-path="url(#pc15864147f)" style="fill: #008000; opacity: 0.5; stroke: #000000; stroke-linejoin: miter"/>
   </g>
   <g id="patch_97">
    <path d="M 324.2808 441 
L 328.2984 441 
L 328.2984 418.188637 
L 324.2808 418.188637 
z
" clip-path="url(#pc15864147f)" style="fill: #008000; opacity: 0.5; stroke: #000000; stroke-linejoin: miter"/>
   </g>
   <g id="patch_98">
    <path d="M 337.6728 441 
L 341.6904 441 
L 341.6904 420.030548 
L 337.6728 420.030548 
z
" clip-path="url(#pc15864147f)" style="fill: #008000; opacity: 0.5; stroke: #000000; stroke-linejoin: miter"/>
   </g>
   <g id="patch_99">
    <path d="M 351.0648 441 
L 355.0824 441 
L 355.0824 421.730774 
L 351.0648 421.730774 
z
" clip-path="url(#pc15864147f)" style="fill: #008000; opacity: 0.5; stroke: #000000; stroke-linejoin: miter"/>
   </g>
   <g id="patch_100">
    <path d="M 364.4568 441 
L 368.4744 441 
L 368.4744 424.422798 
L 364.4568 424.422798 
z
" clip-path="url(#pc15864147f)" style="fill: #008000; opacity: 0.5; stroke: #000000; stroke-linejoin: miter"/>
   </g>
   <g id="patch_101">
    <path d="M 377.8488 441 
L 381.8664 441 
L 381.8664 425.556282 
L 377.8488 425.556282 
z
" clip-path="url(#pc15864147f)" style="fill: #008000; opacity: 0.5; stroke: #000000; stroke-linejoin: miter"/>
   </g>
   <g id="patch_102">
    <path d="M 391.2408 441 
L 395.2584 441 
L 395.2584 426.973137 
L 391.2408 426.973137 
z
" clip-path="url(#pc15864147f)" style="fill: #008000; opacity: 0.5; stroke: #000000; stroke-linejoin: miter"/>
   </g>
   <g id="patch_103">
    <path d="M 404.6328 441 
L 408.6504 441 
L 408.6504 428.531677 
L 404.6328 428.531677 
z
" clip-path="url(#pc15864147f)" style="fill: #008000; opacity: 0.5; stroke: #000000; stroke-linejoin: miter"/>
   </g>
   <g id="patch_104">
    <path d="M 418.0248 441 
L 422.0424 441 
L 422.0424 429.806847 
L 418.0248 429.806847 
z
" clip-path="url(#pc15864147f)" style="fill: #008000; opacity: 0.5; stroke: #000000; stroke-linejoin: miter"/>
   </g>
   <g id="patch_105">
    <path d="M 431.4168 441 
L 435.4344 441 
L 435.4344 431.082016 
L 431.4168 431.082016 
z
" clip-path="url(#pc15864147f)" style="fill: #008000; opacity: 0.5; stroke: #000000; stroke-linejoin: miter"/>
   </g>
   <g id="patch_106">
    <path d="M 444.8088 441 
L 448.8264 441 
L 448.8264 431.932129 
L 444.8088 431.932129 
z
" clip-path="url(#pc15864147f)" style="fill: #008000; opacity: 0.5; stroke: #000000; stroke-linejoin: miter"/>
   </g>
   <g id="patch_107">
    <path d="M 458.2008 441 
L 462.2184 441 
L 462.2184 433.065613 
L 458.2008 433.065613 
z
" clip-path="url(#pc15864147f)" style="fill: #008000; opacity: 0.5; stroke: #000000; stroke-linejoin: miter"/>
   </g>
   <g id="patch_108">
    <path d="M 471.5928 441 
L 475.6104 441 
L 475.6104 433.632355 
L 471.5928 433.632355 
z
" clip-path="url(#pc15864147f)" style="fill: #008000; opacity: 0.5; stroke: #000000; stroke-linejoin: miter"/>
   </g>
   <g id="patch_109">
    <path d="M 484.9848 441 
L 489.0024 441 
L 489.0024 434.624153 
L 484.9848 434.624153 
z
" clip-path="url(#pc15864147f)" style="fill: #008000; opacity: 0.5; stroke: #000000; stroke-linejoin: miter"/>
   </g>
   <g id="patch_110">
    <path d="M 498.3768 441 
L 502.3944 441 
L 502.3944 435.757637 
L 498.3768 435.757637 
z
" clip-path="url(#pc15864147f)" style="fill: #008000; opacity: 0.5; stroke: #000000; stroke-linejoin: miter"/>
   </g>
   <g id="patch_111">
    <path d="M 511.7688 441 
L 515.7864 441 
L 515.7864 436.324379 
L 511.7688 436.324379 
z
" clip-path="url(#pc15864147f)" style="fill: #008000; opacity: 0.5; stroke: #000000; stroke-linejoin: miter"/>
   </g>
   <g id="patch_112">
    <path d="M 525.1608 441 
L 529.1784 441 
L 529.1784 437.032806 
L 525.1608 437.032806 
z
" clip-path="url(#pc15864147f)" style="fill: #008000; opacity: 0.5; stroke: #000000; stroke-linejoin: miter"/>
   </g>
   <g id="patch_113">
    <path d="M 538.5528 441 
L 542.5704 441 
L 542.5704 437.316177 
L 538.5528 437.316177 
z
" clip-path="url(#pc15864147f)" style="fill: #008000; opacity: 0.5; stroke: #000000; stroke-linejoin: miter"/>
   </g>
   <g id="patch_114">
    <path d="M 551.9448 441 
L 555.9624 441 
L 555.9624 438.024605 
L 551.9448 438.024605 
z
" clip-path="url(#pc15864147f)" style="fill: #008000; opacity: 0.5; stroke: #000000; stroke-linejoin: miter"/>
   </g>
   <g id="patch_115">
    <path d="M 565.3368 441 
L 569.3544 441 
L 569.3544 438.307976 
L 565.3368 438.307976 
z
" clip-path="url(#pc15864147f)" style="fill: #008000; opacity: 0.5; stroke: #000000; stroke-linejoin: miter"/>
   </g>
   <g id="patch_116">
    <path d="M 578.7288 441 
L 582.7464 441 
L 582.7464 438.874718 
L 578.7288 438.874718 
z
" clip-path="url(#pc15864147f)" style="fill: #008000; opacity: 0.5; stroke: #000000; stroke-linejoin: miter"/>
   </g>
   <g id="patch_117">
    <path d="M 592.1208 441 
L 596.1384 441 
L 596.1384 438.874718 
L 592.1208 438.874718 
z
" clip-path="url(#pc15864147f)" style="fill: #008000; opacity: 0.5; stroke: #000000; stroke-linejoin: miter"/>
   </g>
   <g id="patch_118">
    <path d="M 605.5128 441 
L 609.5304 441 
L 609.5304 439.299774 
L 605.5128 439.299774 
z
" clip-path="url(#pc15864147f)" style="fill: #008000; opacity: 0.5; stroke: #000000; stroke-linejoin: miter"/>
   </g>
   <g id="patch_119">
    <path d="M 618.9048 441 
L 622.9224 441 
L 622.9224 439.44146 
L 618.9048 439.44146 
z
" clip-path="url(#pc15864147f)" style="fill: #008000; opacity: 0.5; stroke: #000000; stroke-linejoin: miter"/>
   </g>
   <g id="patch_120">
    <path d="M 632.2968 441 
L 636.3144 441 
L 636.3144 439.866516 
L 632.2968 439.866516 
z
" clip-path="url(#pc15864147f)" style="fill: #008000; opacity: 0.5; stroke: #000000; stroke-linejoin: miter"/>
   </g>
   <g id="patch_121">
    <path d="M 645.6888 441 
L 649.7064 441 
L 649.7064 440.291573 
L 645.6888 440.291573 
z
" clip-path="url(#pc15864147f)" style="fill: #008000; opacity: 0.5; stroke: #000000; stroke-linejoin: miter"/>
   </g>
   <g id="patch_122">
    <path d="M 659.0808 441 
L 663.0984 441 
L 663.0984 440.574944 
L 659.0808 440.574944 
z
" clip-path="url(#pc15864147f)" style="fill: #008000; opacity: 0.5; stroke: #000000; stroke-linejoin: miter"/>
   </g>
   <g id="patch_123">
    <path d="M 672.4728 441 
L 676.4904 441 
L 676.4904 440.574944 
L 672.4728 440.574944 
z
" clip-path="url(#pc15864147f)" style="fill: #008000; opacity: 0.5; stroke: #000000; stroke-linejoin: miter"/>
   </g>
   <g id="patch_124">
    <path d="M 685.8648 441 
L 689.8824 441 
L 689.8824 440.574944 
L 685.8648 440.574944 
z
" clip-path="url(#pc15864147f)" style="fill: #008000; opacity: 0.5; stroke: #000000; stroke-linejoin: miter"/>
   </g>
   <g id="matplotlib.axis_1">
    <g id="xtick_1">
     <g id="line2d_1">
      <path d="M 108 441 
L 108 60.48 
" clip-path="url(#pc15864147f)" style="fill: none; stroke: #b0b0b0; stroke-width: 0.8; stroke-linecap: square"/>
     </g>
     <g id="line2d_2">
      <defs>
       <path id="md062e9daac" d="M 0 0 
L 0 3.5 
" style="stroke: #000000; stroke-width: 0.8"/>
      </defs>
      <g>
       <use xlink:href="#md062e9daac" x="108" y="441" style="stroke: #000000; stroke-width: 0.8"/>
      </g>
     </g>
     <g id="text_1">
      <!-- 0 -->
      <g transform="translate(104.81875 455.598437)scale(0.1 -0.1)">
       <defs>
        <path id="DejaVuSans-30" d="M 2034 4250 
Q 1547 4250 1301 3770 
Q 1056 3291 1056 2328 
Q 1056 1369 1301 889 
Q 1547 409 2034 409 
Q 2525 409 2770 889 
Q 3016 1369 3016 2328 
Q 3016 3291 2770 3770 
Q 2525 4250 2034 4250 
z
M 2034 4750 
Q 2819 4750 3233 4129 
Q 3647 3509 3647 2328 
Q 3647 1150 3233 529 
Q 2819 -91 2034 -91 
Q 1250 -91 836 529 
Q 422 1150 422 2328 
Q 422 3509 836 4129 
Q 1250 4750 2034 4750 
z
" transform="scale(0.015625)"/>
       </defs>
       <use xlink:href="#DejaVuSans-30"/>
      </g>
     </g>
    </g>
    <g id="xtick_2">
     <g id="line2d_3">
      <path d="M 241.92 441 
L 241.92 60.48 
" clip-path="url(#pc15864147f)" style="fill: none; stroke: #b0b0b0; stroke-width: 0.8; stroke-linecap: square"/>
     </g>
     <g id="line2d_4">
      <g>
       <use xlink:href="#md062e9daac" x="241.92" y="441" style="stroke: #000000; stroke-width: 0.8"/>
      </g>
     </g>
     <g id="text_2">
      <!-- 10 -->
      <g transform="translate(235.5575 455.598437)scale(0.1 -0.1)">
       <defs>
        <path id="DejaVuSans-31" d="M 794 531 
L 1825 531 
L 1825 4091 
L 703 3866 
L 703 4441 
L 1819 4666 
L 2450 4666 
L 2450 531 
L 3481 531 
L 3481 0 
L 794 0 
L 794 531 
z
" transform="scale(0.015625)"/>
       </defs>
       <use xlink:href="#DejaVuSans-31"/>
       <use xlink:href="#DejaVuSans-30" x="63.623047"/>
      </g>
     </g>
    </g>
    <g id="xtick_3">
     <g id="line2d_5">
      <path d="M 375.84 441 
L 375.84 60.48 
" clip-path="url(#pc15864147f)" style="fill: none; stroke: #b0b0b0; stroke-width: 0.8; stroke-linecap: square"/>
     </g>
     <g id="line2d_6">
      <g>
       <use xlink:href="#md062e9daac" x="375.84" y="441" style="stroke: #000000; stroke-width: 0.8"/>
      </g>
     </g>
     <g id="text_3">
      <!-- 20 -->
      <g transform="translate(369.4775 455.598437)scale(0.1 -0.1)">
       <defs>
        <path id="DejaVuSans-32" d="M 1228 531 
L 3431 531 
L 3431 0 
L 469 0 
L 469 531 
Q 828 903 1448 1529 
Q 2069 2156 2228 2338 
Q 2531 2678 2651 2914 
Q 2772 3150 2772 3378 
Q 2772 3750 2511 3984 
Q 2250 4219 1831 4219 
Q 1534 4219 1204 4116 
Q 875 4013 500 3803 
L 500 4441 
Q 881 4594 1212 4672 
Q 1544 4750 1819 4750 
Q 2544 4750 2975 4387 
Q 3406 4025 3406 3419 
Q 3406 3131 3298 2873 
Q 3191 2616 2906 2266 
Q 2828 2175 2409 1742 
Q 1991 1309 1228 531 
z
" transform="scale(0.015625)"/>
       </defs>
       <use xlink:href="#DejaVuSans-32"/>
       <use xlink:href="#DejaVuSans-30" x="63.623047"/>
      </g>
     </g>
    </g>
    <g id="xtick_4">
     <g id="line2d_7">
      <path d="M 509.76 441 
L 509.76 60.48 
" clip-path="url(#pc15864147f)" style="fill: none; stroke: #b0b0b0; stroke-width: 0.8; stroke-linecap: square"/>
     </g>
     <g id="line2d_8">
      <g>
       <use xlink:href="#md062e9daac" x="509.76" y="441" style="stroke: #000000; stroke-width: 0.8"/>
      </g>
     </g>
     <g id="text_4">
      <!-- 30 -->
      <g transform="translate(503.3975 455.598437)scale(0.1 -0.1)">
       <defs>
        <path id="DejaVuSans-33" d="M 2597 2516 
Q 3050 2419 3304 2112 
Q 3559 1806 3559 1356 
Q 3559 666 3084 287 
Q 2609 -91 1734 -91 
Q 1441 -91 1130 -33 
Q 819 25 488 141 
L 488 750 
Q 750 597 1062 519 
Q 1375 441 1716 441 
Q 2309 441 2620 675 
Q 2931 909 2931 1356 
Q 2931 1769 2642 2001 
Q 2353 2234 1838 2234 
L 1294 2234 
L 1294 2753 
L 1863 2753 
Q 2328 2753 2575 2939 
Q 2822 3125 2822 3475 
Q 2822 3834 2567 4026 
Q 2313 4219 1838 4219 
Q 1578 4219 1281 4162 
Q 984 4106 628 3988 
L 628 4550 
Q 988 4650 1302 4700 
Q 1616 4750 1894 4750 
Q 2613 4750 3031 4423 
Q 3450 4097 3450 3541 
Q 3450 3153 3228 2886 
Q 3006 2619 2597 2516 
z
" transform="scale(0.015625)"/>
       </defs>
       <use xlink:href="#DejaVuSans-33"/>
       <use xlink:href="#DejaVuSans-30" x="63.623047"/>
      </g>
     </g>
    </g>
    <g id="xtick_5">
     <g id="line2d_9">
      <path d="M 643.68 441 
L 643.68 60.48 
" clip-path="url(#pc15864147f)" style="fill: none; stroke: #b0b0b0; stroke-width: 0.8; stroke-linecap: square"/>
     </g>
     <g id="line2d_10">
      <g>
       <use xlink:href="#md062e9daac" x="643.68" y="441" style="stroke: #000000; stroke-width: 0.8"/>
      </g>
     </g>
     <g id="text_5">
      <!-- 40 -->
      <g transform="translate(637.3175 455.598437)scale(0.1 -0.1)">
       <defs>
        <path id="DejaVuSans-34" d="M 2419 4116 
L 825 1625 
L 2419 1625 
L 2419 4116 
z
M 2253 4666 
L 3047 4666 
L 3047 1625 
L 3713 1625 
L 3713 1100 
L 3047 1100 
L 3047 0 
L 2419 0 
L 2419 1100 
L 313 1100 
L 313 1709 
L 2253 4666 
z
" transform="scale(0.015625)"/>
       </defs>
       <use xlink:href="#DejaVuSans-34"/>
       <use xlink:href="#DejaVuSans-30" x="63.623047"/>
      </g>
     </g>
    </g>
    <g id="xtick_6">
     <g id="line2d_11">
      <path d="M 777.6 441 
L 777.6 60.48 
" clip-path="url(#pc15864147f)" style="fill: none; stroke: #b0b0b0; stroke-width: 0.8; stroke-linecap: square"/>
     </g>
     <g id="line2d_12">
      <g>
       <use xlink:href="#md062e9daac" x="777.6" y="441" style="stroke: #000000; stroke-width: 0.8"/>
      </g>
     </g>
     <g id="text_6">
      <!-- 50 -->
      <g transform="translate(771.2375 455.598437)scale(0.1 -0.1)">
       <defs>
        <path id="DejaVuSans-35" d="M 691 4666 
L 3169 4666 
L 3169 4134 
L 1269 4134 
L 1269 2991 
Q 1406 3038 1543 3061 
Q 1681 3084 1819 3084 
Q 2600 3084 3056 2656 
Q 3513 2228 3513 1497 
Q 3513 744 3044 326 
Q 2575 -91 1722 -91 
Q 1428 -91 1123 -41 
Q 819 9 494 109 
L 494 744 
Q 775 591 1075 516 
Q 1375 441 1709 441 
Q 2250 441 2565 725 
Q 2881 1009 2881 1497 
Q 2881 1984 2565 2268 
Q 2250 2553 1709 2553 
Q 1456 2553 1204 2497 
Q 953 2441 691 2322 
L 691 4666 
z
" transform="scale(0.015625)"/>
       </defs>
       <use xlink:href="#DejaVuSans-35"/>
       <use xlink:href="#DejaVuSans-30" x="63.623047"/>
      </g>
     </g>
    </g>
    <g id="text_7">
     <!-- Pellet Price -->
     <g transform="translate(415.288281 469.276563)scale(0.1 -0.1)">
      <defs>
       <path id="DejaVuSans-50" d="M 1259 4147 
L 1259 2394 
L 2053 2394 
Q 2494 2394 2734 2622 
Q 2975 2850 2975 3272 
Q 2975 3691 2734 3919 
Q 2494 4147 2053 4147 
L 1259 4147 
z
M 628 4666 
L 2053 4666 
Q 2838 4666 3239 4311 
Q 3641 3956 3641 3272 
Q 3641 2581 3239 2228 
Q 2838 1875 2053 1875 
L 1259 1875 
L 1259 0 
L 628 0 
L 628 4666 
z
" transform="scale(0.015625)"/>
       <path id="DejaVuSans-65" d="M 3597 1894 
L 3597 1613 
L 953 1613 
Q 991 1019 1311 708 
Q 1631 397 2203 397 
Q 2534 397 2845 478 
Q 3156 559 3463 722 
L 3463 178 
Q 3153 47 2828 -22 
Q 2503 -91 2169 -91 
Q 1331 -91 842 396 
Q 353 884 353 1716 
Q 353 2575 817 3079 
Q 1281 3584 2069 3584 
Q 2775 3584 3186 3129 
Q 3597 2675 3597 1894 
z
M 3022 2063 
Q 3016 2534 2758 2815 
Q 2500 3097 2075 3097 
Q 1594 3097 1305 2825 
Q 1016 2553 972 2059 
L 3022 2063 
z
" transform="scale(0.015625)"/>
       <path id="DejaVuSans-6c" d="M 603 4863 
L 1178 4863 
L 1178 0 
L 603 0 
L 603 4863 
z
" transform="scale(0.015625)"/>
       <path id="DejaVuSans-74" d="M 1172 4494 
L 1172 3500 
L 2356 3500 
L 2356 3053 
L 1172 3053 
L 1172 1153 
Q 1172 725 1289 603 
Q 1406 481 1766 481 
L 2356 481 
L 2356 0 
L 1766 0 
Q 1100 0 847 248 
Q 594 497 594 1153 
L 594 3053 
L 172 3053 
L 172 3500 
L 594 3500 
L 594 4494 
L 1172 4494 
z
" transform="scale(0.015625)"/>
       <path id="DejaVuSans-20" transform="scale(0.015625)"/>
       <path id="DejaVuSans-72" d="M 2631 2963 
Q 2534 3019 2420 3045 
Q 2306 3072 2169 3072 
Q 1681 3072 1420 2755 
Q 1159 2438 1159 1844 
L 1159 0 
L 581 0 
L 581 3500 
L 1159 3500 
L 1159 2956 
Q 1341 3275 1631 3429 
Q 1922 3584 2338 3584 
Q 2397 3584 2469 3576 
Q 2541 3569 2628 3553 
L 2631 2963 
z
" transform="scale(0.015625)"/>
       <path id="DejaVuSans-69" d="M 603 3500 
L 1178 3500 
L 1178 0 
L 603 0 
L 603 3500 
z
M 603 4863 
L 1178 4863 
L 1178 4134 
L 603 4134 
L 603 4863 
z
" transform="scale(0.015625)"/>
       <path id="DejaVuSans-63" d="M 3122 3366 
L 3122 2828 
Q 2878 2963 2633 3030 
Q 2388 3097 2138 3097 
Q 1578 3097 1268 2742 
Q 959 2388 959 1747 
Q 959 1106 1268 751 
Q 1578 397 2138 397 
Q 2388 397 2633 464 
Q 2878 531 3122 666 
L 3122 134 
Q 2881 22 2623 -34 
Q 2366 -91 2075 -91 
Q 1284 -91 818 406 
Q 353 903 353 1747 
Q 353 2603 823 3093 
Q 1294 3584 2113 3584 
Q 2378 3584 2631 3529 
Q 2884 3475 3122 3366 
z
" transform="scale(0.015625)"/>
      </defs>
      <use xlink:href="#DejaVuSans-50"/>
      <use xlink:href="#DejaVuSans-65" x="56.677734"/>
      <use xlink:href="#DejaVuSans-6c" x="118.201172"/>
      <use xlink:href="#DejaVuSans-6c" x="145.984375"/>
      <use xlink:href="#DejaVuSans-65" x="173.767578"/>
      <use xlink:href="#DejaVuSans-74" x="235.291016"/>
      <use xlink:href="#DejaVuSans-20" x="274.5"/>
      <use xlink:href="#DejaVuSans-50" x="306.287109"/>
      <use xlink:href="#DejaVuSans-72" x="364.839844"/>
      <use xlink:href="#DejaVuSans-69" x="405.953125"/>
      <use xlink:href="#DejaVuSans-63" x="433.736328"/>
      <use xlink:href="#DejaVuSans-65" x="488.716797"/>
     </g>
    </g>
   </g>
   <g id="matplotlib.axis_2">
    <g id="ytick_1">
     <g id="line2d_13">
      <path d="M 108 441 
L 777.6 441 
" clip-path="url(#pc15864147f)" style="fill: none; stroke: #b0b0b0; stroke-width: 0.8; stroke-linecap: square"/>
     </g>
     <g id="line2d_14">
      <defs>
       <path id="m2138b20193" d="M 0 0 
L -3.5 0 
" style="stroke: #000000; stroke-width: 0.8"/>
      </defs>
      <g>
       <use xlink:href="#m2138b20193" x="108" y="441" style="stroke: #000000; stroke-width: 0.8"/>
      </g>
     </g>
     <g id="text_8">
      <!-- 0.00 -->
      <g transform="translate(78.734375 444.799219)scale(0.1 -0.1)">
       <defs>
        <path id="DejaVuSans-2e" d="M 684 794 
L 1344 794 
L 1344 0 
L 684 0 
L 684 794 
z
" transform="scale(0.015625)"/>
       </defs>
       <use xlink:href="#DejaVuSans-30"/>
       <use xlink:href="#DejaVuSans-2e" x="63.623047"/>
       <use xlink:href="#DejaVuSans-30" x="95.410156"/>
       <use xlink:href="#DejaVuSans-30" x="159.033203"/>
      </g>
     </g>
    </g>
    <g id="ytick_2">
     <g id="line2d_15">
      <path d="M 108 367.904459 
L 777.6 367.904459 
" clip-path="url(#pc15864147f)" style="fill: none; stroke: #b0b0b0; stroke-width: 0.8; stroke-linecap: square"/>
     </g>
     <g id="line2d_16">
      <g>
       <use xlink:href="#m2138b20193" x="108" y="367.904459" style="stroke: #000000; stroke-width: 0.8"/>
      </g>
     </g>
     <g id="text_9">
      <!-- 0.05 -->
      <g transform="translate(78.734375 371.703677)scale(0.1 -0.1)">
       <use xlink:href="#DejaVuSans-30"/>
       <use xlink:href="#DejaVuSans-2e" x="63.623047"/>
       <use xlink:href="#DejaVuSans-30" x="95.410156"/>
       <use xlink:href="#DejaVuSans-35" x="159.033203"/>
      </g>
     </g>
    </g>
    <g id="ytick_3">
     <g id="line2d_17">
      <path d="M 108 294.808917 
L 777.6 294.808917 
" clip-path="url(#pc15864147f)" style="fill: none; stroke: #b0b0b0; stroke-width: 0.8; stroke-linecap: square"/>
     </g>
     <g id="line2d_18">
      <g>
       <use xlink:href="#m2138b20193" x="108" y="294.808917" style="stroke: #000000; stroke-width: 0.8"/>
      </g>
     </g>
     <g id="text_10">
      <!-- 0.10 -->
      <g transform="translate(78.734375 298.608136)scale(0.1 -0.1)">
       <use xlink:href="#DejaVuSans-30"/>
       <use xlink:href="#DejaVuSans-2e" x="63.623047"/>
       <use xlink:href="#DejaVuSans-31" x="95.410156"/>
       <use xlink:href="#DejaVuSans-30" x="159.033203"/>
      </g>
     </g>
    </g>
    <g id="ytick_4">
     <g id="line2d_19">
      <path d="M 108 221.713376 
L 777.6 221.713376 
" clip-path="url(#pc15864147f)" style="fill: none; stroke: #b0b0b0; stroke-width: 0.8; stroke-linecap: square"/>
     </g>
     <g id="line2d_20">
      <g>
       <use xlink:href="#m2138b20193" x="108" y="221.713376" style="stroke: #000000; stroke-width: 0.8"/>
      </g>
     </g>
     <g id="text_11">
      <!-- 0.15 -->
      <g transform="translate(78.734375 225.512595)scale(0.1 -0.1)">
       <use xlink:href="#DejaVuSans-30"/>
       <use xlink:href="#DejaVuSans-2e" x="63.623047"/>
       <use xlink:href="#DejaVuSans-31" x="95.410156"/>
       <use xlink:href="#DejaVuSans-35" x="159.033203"/>
      </g>
     </g>
    </g>
    <g id="ytick_5">
     <g id="line2d_21">
      <path d="M 108 148.617834 
L 777.6 148.617834 
" clip-path="url(#pc15864147f)" style="fill: none; stroke: #b0b0b0; stroke-width: 0.8; stroke-linecap: square"/>
     </g>
     <g id="line2d_22">
      <g>
       <use xlink:href="#m2138b20193" x="108" y="148.617834" style="stroke: #000000; stroke-width: 0.8"/>
      </g>
     </g>
     <g id="text_12">
      <!-- 0.20 -->
      <g transform="translate(78.734375 152.417053)scale(0.1 -0.1)">
       <use xlink:href="#DejaVuSans-30"/>
       <use xlink:href="#DejaVuSans-2e" x="63.623047"/>
       <use xlink:href="#DejaVuSans-32" x="95.410156"/>
       <use xlink:href="#DejaVuSans-30" x="159.033203"/>
      </g>
     </g>
    </g>
    <g id="ytick_6">
     <g id="line2d_23">
      <path d="M 108 75.522293 
L 777.6 75.522293 
" clip-path="url(#pc15864147f)" style="fill: none; stroke: #b0b0b0; stroke-width: 0.8; stroke-linecap: square"/>
     </g>
     <g id="line2d_24">
      <g>
       <use xlink:href="#m2138b20193" x="108" y="75.522293" style="stroke: #000000; stroke-width: 0.8"/>
      </g>
     </g>
     <g id="text_13">
      <!-- 0.25 -->
      <g transform="translate(78.734375 79.321512)scale(0.1 -0.1)">
       <use xlink:href="#DejaVuSans-30"/>
       <use xlink:href="#DejaVuSans-2e" x="63.623047"/>
       <use xlink:href="#DejaVuSans-32" x="95.410156"/>
       <use xlink:href="#DejaVuSans-35" x="159.033203"/>
      </g>
     </g>
    </g>
    <g id="text_14">
     <!-- Average Frequency -->
     <g transform="translate(72.654687 298.691563)rotate(-90)scale(0.1 -0.1)">
      <defs>
       <path id="DejaVuSans-41" d="M 2188 4044 
L 1331 1722 
L 3047 1722 
L 2188 4044 
z
M 1831 4666 
L 2547 4666 
L 4325 0 
L 3669 0 
L 3244 1197 
L 1141 1197 
L 716 0 
L 50 0 
L 1831 4666 
z
" transform="scale(0.015625)"/>
       <path id="DejaVuSans-76" d="M 191 3500 
L 800 3500 
L 1894 563 
L 2988 3500 
L 3597 3500 
L 2284 0 
L 1503 0 
L 191 3500 
z
" transform="scale(0.015625)"/>
       <path id="DejaVuSans-61" d="M 2194 1759 
Q 1497 1759 1228 1600 
Q 959 1441 959 1056 
Q 959 750 1161 570 
Q 1363 391 1709 391 
Q 2188 391 2477 730 
Q 2766 1069 2766 1631 
L 2766 1759 
L 2194 1759 
z
M 3341 1997 
L 3341 0 
L 2766 0 
L 2766 531 
Q 2569 213 2275 61 
Q 1981 -91 1556 -91 
Q 1019 -91 701 211 
Q 384 513 384 1019 
Q 384 1609 779 1909 
Q 1175 2209 1959 2209 
L 2766 2209 
L 2766 2266 
Q 2766 2663 2505 2880 
Q 2244 3097 1772 3097 
Q 1472 3097 1187 3025 
Q 903 2953 641 2809 
L 641 3341 
Q 956 3463 1253 3523 
Q 1550 3584 1831 3584 
Q 2591 3584 2966 3190 
Q 3341 2797 3341 1997 
z
" transform="scale(0.015625)"/>
       <path id="DejaVuSans-67" d="M 2906 1791 
Q 2906 2416 2648 2759 
Q 2391 3103 1925 3103 
Q 1463 3103 1205 2759 
Q 947 2416 947 1791 
Q 947 1169 1205 825 
Q 1463 481 1925 481 
Q 2391 481 2648 825 
Q 2906 1169 2906 1791 
z
M 3481 434 
Q 3481 -459 3084 -895 
Q 2688 -1331 1869 -1331 
Q 1566 -1331 1297 -1286 
Q 1028 -1241 775 -1147 
L 775 -588 
Q 1028 -725 1275 -790 
Q 1522 -856 1778 -856 
Q 2344 -856 2625 -561 
Q 2906 -266 2906 331 
L 2906 616 
Q 2728 306 2450 153 
Q 2172 0 1784 0 
Q 1141 0 747 490 
Q 353 981 353 1791 
Q 353 2603 747 3093 
Q 1141 3584 1784 3584 
Q 2172 3584 2450 3431 
Q 2728 3278 2906 2969 
L 2906 3500 
L 3481 3500 
L 3481 434 
z
" transform="scale(0.015625)"/>
       <path id="DejaVuSans-46" d="M 628 4666 
L 3309 4666 
L 3309 4134 
L 1259 4134 
L 1259 2759 
L 3109 2759 
L 3109 2228 
L 1259 2228 
L 1259 0 
L 628 0 
L 628 4666 
z
" transform="scale(0.015625)"/>
       <path id="DejaVuSans-71" d="M 947 1747 
Q 947 1113 1208 752 
Q 1469 391 1925 391 
Q 2381 391 2643 752 
Q 2906 1113 2906 1747 
Q 2906 2381 2643 2742 
Q 2381 3103 1925 3103 
Q 1469 3103 1208 2742 
Q 947 2381 947 1747 
z
M 2906 525 
Q 2725 213 2448 61 
Q 2172 -91 1784 -91 
Q 1150 -91 751 415 
Q 353 922 353 1747 
Q 353 2572 751 3078 
Q 1150 3584 1784 3584 
Q 2172 3584 2448 3432 
Q 2725 3281 2906 2969 
L 2906 3500 
L 3481 3500 
L 3481 -1331 
L 2906 -1331 
L 2906 525 
z
" transform="scale(0.015625)"/>
       <path id="DejaVuSans-75" d="M 544 1381 
L 544 3500 
L 1119 3500 
L 1119 1403 
Q 1119 906 1312 657 
Q 1506 409 1894 409 
Q 2359 409 2629 706 
Q 2900 1003 2900 1516 
L 2900 3500 
L 3475 3500 
L 3475 0 
L 2900 0 
L 2900 538 
Q 2691 219 2414 64 
Q 2138 -91 1772 -91 
Q 1169 -91 856 284 
Q 544 659 544 1381 
z
M 1991 3584 
L 1991 3584 
z
" transform="scale(0.015625)"/>
       <path id="DejaVuSans-6e" d="M 3513 2113 
L 3513 0 
L 2938 0 
L 2938 2094 
Q 2938 2591 2744 2837 
Q 2550 3084 2163 3084 
Q 1697 3084 1428 2787 
Q 1159 2491 1159 1978 
L 1159 0 
L 581 0 
L 581 3500 
L 1159 3500 
L 1159 2956 
Q 1366 3272 1645 3428 
Q 1925 3584 2291 3584 
Q 2894 3584 3203 3211 
Q 3513 2838 3513 2113 
z
" transform="scale(0.015625)"/>
       <path id="DejaVuSans-79" d="M 2059 -325 
Q 1816 -950 1584 -1140 
Q 1353 -1331 966 -1331 
L 506 -1331 
L 506 -850 
L 844 -850 
Q 1081 -850 1212 -737 
Q 1344 -625 1503 -206 
L 1606 56 
L 191 3500 
L 800 3500 
L 1894 763 
L 2988 3500 
L 3597 3500 
L 2059 -325 
z
" transform="scale(0.015625)"/>
      </defs>
      <use xlink:href="#DejaVuSans-41"/>
      <use xlink:href="#DejaVuSans-76" x="62.533203"/>
      <use xlink:href="#DejaVuSans-65" x="121.712891"/>
      <use xlink:href="#DejaVuSans-72" x="183.236328"/>
      <use xlink:href="#DejaVuSans-61" x="224.349609"/>
      <use xlink:href="#DejaVuSans-67" x="285.628906"/>
      <use xlink:href="#DejaVuSans-65" x="349.105469"/>
      <use xlink:href="#DejaVuSans-20" x="410.628906"/>
      <use xlink:href="#DejaVuSans-46" x="442.416016"/>
      <use xlink:href="#DejaVuSans-72" x="492.685547"/>
      <use xlink:href="#DejaVuSans-65" x="531.548828"/>
      <use xlink:href="#DejaVuSans-71" x="593.072266"/>
      <use xlink:href="#DejaVuSans-75" x="656.548828"/>
      <use xlink:href="#DejaVuSans-65" x="719.927734"/>
      <use xlink:href="#DejaVuSans-6e" x="781.451172"/>
      <use xlink:href="#DejaVuSans-63" x="844.830078"/>
      <use xlink:href="#DejaVuSans-79" x="899.810547"/>
     </g>
    </g>
   </g>
   <g id="line2d_25">
    <path d="M 90.03399 439.781742 
L 93.310191 438.016986 
L 96.586392 434.365246 
L 99.862593 427.582025 
L 103.138794 416.289553 
L 106.414995 399.473717 
L 109.691196 377.128472 
L 112.967397 350.716796 
L 116.243599 323.086499 
L 119.5198 297.745436 
L 122.796001 277.822337 
L 126.072202 265.261444 
L 129.348403 260.596893 
L 132.624604 263.210907 
L 135.900805 271.722942 
L 139.177006 284.279951 
L 145.729409 313.235935 
L 149.00561 326.03466 
L 152.281811 336.314592 
L 155.558012 343.9411 
L 158.834213 349.318562 
L 162.110414 353.089148 
L 165.386615 355.873951 
L 168.662816 358.137644 
L 175.215219 362.123353 
L 185.043822 367.822322 
L 191.596224 371.285603 
L 198.148626 374.444353 
L 214.529632 382.00335 
L 221.082034 384.696049 
L 227.634436 387.026382 
L 234.186838 389.056877 
L 247.291643 392.746052 
L 257.120246 395.379215 
L 280.053654 401.226004 
L 286.606056 403.234841 
L 296.43466 406.360813 
L 302.987062 408.228311 
L 309.539464 409.850992 
L 316.091866 411.263564 
L 322.644268 412.48016 
L 329.196671 413.510105 
L 339.025274 414.789637 
L 348.853877 416.046177 
L 358.682481 417.572883 
L 368.511084 419.159595 
L 375.063486 419.988331 
L 381.615888 420.548188 
L 391.444492 421.255581 
L 397.996894 421.956661 
L 404.549296 422.896535 
L 414.377899 424.362246 
L 420.930302 425.070248 
L 434.035106 426.266599 
L 453.692313 428.419609 
L 460.244715 428.824617 
L 476.625721 429.609232 
L 486.454324 430.408819 
L 529.044938 434.452056 
L 555.254547 436.216299 
L 565.08315 436.603808 
L 574.911754 436.967954 
L 584.740357 437.578896 
L 594.56896 438.197564 
L 610.949966 438.899012 
L 633.883374 439.804529 
L 650.264379 440.200908 
L 666.645385 440.369632 
L 712.5122 440.574629 
L 732.169407 440.961087 
L 741.99801 440.996472 
L 741.99801 440.996472 
" clip-path="url(#pc15864147f)" style="fill: none; stroke-dasharray: 5.55,2.4; stroke-dashoffset: 0; stroke: #0000ff; stroke-width: 1.5"/>
   </g>
   <g id="line2d_26">
    <path d="M 99.750304 438.016514 
L 102.188592 433.228058 
L 104.62688 422.931195 
L 107.065169 403.493595 
L 109.503457 371.434148 
L 111.941746 325.540954 
L 116.818322 210.207999 
L 119.256611 159.405496 
L 121.694899 124.48622 
L 124.133188 106.78102 
L 126.571476 101.556364 
L 129.009764 102.663295 
L 131.448053 107.522212 
L 133.886341 118.157594 
L 136.32463 137.734711 
L 138.762918 166.242342 
L 143.639495 231.27546 
L 146.077783 257.874089 
L 148.516072 278.243417 
L 150.95436 293.242043 
L 153.392649 303.841314 
L 155.830937 310.767463 
L 158.269225 315.150337 
L 160.707514 318.722458 
L 163.145802 322.975099 
L 168.022379 333.508827 
L 170.460667 338.063227 
L 175.337244 345.762032 
L 177.775533 350.213467 
L 180.213821 354.941905 
L 182.652109 359.21132 
L 185.090398 362.715013 
L 187.528686 365.88848 
L 189.966975 369.367365 
L 194.843551 377.089704 
L 197.28184 380.318345 
L 199.720128 382.947704 
L 204.596705 387.987104 
L 207.034993 390.5469 
L 209.473282 392.690631 
L 211.91157 394.26871 
L 221.664724 399.195608 
L 224.103012 399.900934 
L 226.541301 400.403595 
L 228.979589 401.086648 
L 231.417878 402.136138 
L 233.856166 403.365225 
L 236.294454 404.458182 
L 241.171031 406.302006 
L 243.60932 407.619344 
L 248.485896 411.041271 
L 250.924185 412.515929 
L 253.362473 413.655163 
L 258.23905 415.452498 
L 260.677338 416.15128 
L 263.115627 416.577028 
L 270.430492 417.229933 
L 275.307069 418.101417 
L 280.183646 418.631682 
L 282.621934 419.073553 
L 285.060222 419.807502 
L 289.936799 421.57537 
L 294.813376 423.064758 
L 297.251664 423.950493 
L 304.56653 426.971813 
L 311.881395 429.19584 
L 316.757972 430.517981 
L 321.634549 431.396751 
L 328.949414 432.565255 
L 358.208875 435.868839 
L 365.52374 436.297572 
L 370.400317 436.413015 
L 377.715182 436.526132 
L 402.098066 437.963296 
L 409.412931 438.705028 
L 414.289508 439.141855 
L 419.166085 439.377687 
L 426.48095 439.454371 
L 470.370141 439.327152 
L 477.685007 439.013665 
L 484.999872 438.741264 
L 504.506179 438.723685 
L 511.821044 438.852365 
L 538.642217 440.170601 
L 548.39537 440.225823 
L 563.025101 440.320118 
L 570.339966 440.634256 
L 577.654831 440.920344 
L 584.969696 440.993665 
L 584.969696 440.993665 
" clip-path="url(#pc15864147f)" style="fill: none; stroke-dasharray: 5.55,2.4; stroke-dashoffset: 0; stroke: #ff0000; stroke-width: 1.5"/>
   </g>
   <g id="line2d_27">
    <path d="M 97.715848 439.088967 
L 100.780252 435.311591 
L 103.844655 426.419902 
L 106.909059 408.78475 
L 109.973462 379.508375 
L 113.037866 339.198656 
L 116.102269 293.757625 
L 119.166673 252.575313 
L 122.231077 223.354738 
L 125.29548 207.9027 
L 128.359884 203.131818 
L 131.424287 205.899332 
L 134.488691 215.847632 
L 137.553094 233.37103 
L 143.681901 279.974874 
L 146.746305 300.171769 
L 149.810708 315.12024 
L 152.875112 325.005984 
L 155.939515 330.876821 
L 159.003919 334.286685 
L 162.068322 336.927373 
L 168.19713 342.630523 
L 174.325937 347.712343 
L 177.39034 350.561491 
L 180.454744 353.664606 
L 183.519147 356.566164 
L 189.647954 361.999811 
L 195.776761 368.107462 
L 201.905568 373.573251 
L 208.034376 379.515299 
L 211.098779 382.171822 
L 214.163183 384.442722 
L 217.227586 386.536511 
L 220.29199 388.4763 
L 223.356393 390.088794 
L 235.614007 395.358627 
L 250.936025 400.686381 
L 254.000429 401.635375 
L 257.064832 402.755285 
L 263.193639 405.33426 
L 269.322446 407.473044 
L 275.451253 409.488138 
L 287.708867 412.619482 
L 290.773271 413.330821 
L 303.030885 415.566407 
L 312.224096 416.797442 
L 318.352903 417.670738 
L 324.48171 418.460365 
L 330.610517 419.368062 
L 336.739324 420.109929 
L 352.061342 422.383635 
L 358.190149 423.51747 
L 367.383359 424.792347 
L 373.512166 425.366934 
L 379.640973 425.97763 
L 401.091798 428.30589 
L 422.542623 430.439309 
L 434.800237 431.426381 
L 465.444272 433.483805 
L 471.57308 433.81095 
L 502.217115 435.996931 
L 526.732343 437.083202 
L 545.118764 437.762396 
L 557.376379 438.18873 
L 600.278028 439.181426 
L 637.05087 440.079297 
L 652.372888 440.461299 
L 664.630502 440.570128 
L 686.081327 440.682517 
L 701.403345 440.975572 
L 707.532152 440.996799 
L 707.532152 440.996799 
" clip-path="url(#pc15864147f)" style="fill: none; stroke-dasharray: 5.55,2.4; stroke-dashoffset: 0; stroke: #008000; stroke-width: 1.5"/>
   </g>
   <g id="patch_125">
    <path d="M 108 441 
L 108 60.48 
" style="fill: none; stroke: #000000; stroke-width: 0.8; stroke-linejoin: miter; stroke-linecap: square"/>
   </g>
   <g id="patch_126">
    <path d="M 777.6 441 
L 777.6 60.48 
" style="fill: none; stroke: #000000; stroke-width: 0.8; stroke-linejoin: miter; stroke-linecap: square"/>
   </g>
   <g id="patch_127">
    <path d="M 108 441 
L 777.6 441 
" style="fill: none; stroke: #000000; stroke-width: 0.8; stroke-linejoin: miter; stroke-linecap: square"/>
   </g>
   <g id="patch_128">
    <path d="M 108 60.48 
L 777.6 60.48 
" style="fill: none; stroke: #000000; stroke-width: 0.8; stroke-linejoin: miter; stroke-linecap: square"/>
   </g>
   <g id="text_15">
    <!-- Average Normalized Histograms and KDE of Pellet Price -->
    <g transform="translate(276.010313 54.48)scale(0.12 -0.12)">
     <defs>
      <path id="DejaVuSans-4e" d="M 628 4666 
L 1478 4666 
L 3547 763 
L 3547 4666 
L 4159 4666 
L 4159 0 
L 3309 0 
L 1241 3903 
L 1241 0 
L 628 0 
L 628 4666 
z
" transform="scale(0.015625)"/>
      <path id="DejaVuSans-6f" d="M 1959 3097 
Q 1497 3097 1228 2736 
Q 959 2375 959 1747 
Q 959 1119 1226 758 
Q 1494 397 1959 397 
Q 2419 397 2687 759 
Q 2956 1122 2956 1747 
Q 2956 2369 2687 2733 
Q 2419 3097 1959 3097 
z
M 1959 3584 
Q 2709 3584 3137 3096 
Q 3566 2609 3566 1747 
Q 3566 888 3137 398 
Q 2709 -91 1959 -91 
Q 1206 -91 779 398 
Q 353 888 353 1747 
Q 353 2609 779 3096 
Q 1206 3584 1959 3584 
z
" transform="scale(0.015625)"/>
      <path id="DejaVuSans-6d" d="M 3328 2828 
Q 3544 3216 3844 3400 
Q 4144 3584 4550 3584 
Q 5097 3584 5394 3201 
Q 5691 2819 5691 2113 
L 5691 0 
L 5113 0 
L 5113 2094 
Q 5113 2597 4934 2840 
Q 4756 3084 4391 3084 
Q 3944 3084 3684 2787 
Q 3425 2491 3425 1978 
L 3425 0 
L 2847 0 
L 2847 2094 
Q 2847 2600 2669 2842 
Q 2491 3084 2119 3084 
Q 1678 3084 1418 2786 
Q 1159 2488 1159 1978 
L 1159 0 
L 581 0 
L 581 3500 
L 1159 3500 
L 1159 2956 
Q 1356 3278 1631 3431 
Q 1906 3584 2284 3584 
Q 2666 3584 2933 3390 
Q 3200 3197 3328 2828 
z
" transform="scale(0.015625)"/>
      <path id="DejaVuSans-7a" d="M 353 3500 
L 3084 3500 
L 3084 2975 
L 922 459 
L 3084 459 
L 3084 0 
L 275 0 
L 275 525 
L 2438 3041 
L 353 3041 
L 353 3500 
z
" transform="scale(0.015625)"/>
      <path id="DejaVuSans-64" d="M 2906 2969 
L 2906 4863 
L 3481 4863 
L 3481 0 
L 2906 0 
L 2906 525 
Q 2725 213 2448 61 
Q 2172 -91 1784 -91 
Q 1150 -91 751 415 
Q 353 922 353 1747 
Q 353 2572 751 3078 
Q 1150 3584 1784 3584 
Q 2172 3584 2448 3432 
Q 2725 3281 2906 2969 
z
M 947 1747 
Q 947 1113 1208 752 
Q 1469 391 1925 391 
Q 2381 391 2643 752 
Q 2906 1113 2906 1747 
Q 2906 2381 2643 2742 
Q 2381 3103 1925 3103 
Q 1469 3103 1208 2742 
Q 947 2381 947 1747 
z
" transform="scale(0.015625)"/>
      <path id="DejaVuSans-48" d="M 628 4666 
L 1259 4666 
L 1259 2753 
L 3553 2753 
L 3553 4666 
L 4184 4666 
L 4184 0 
L 3553 0 
L 3553 2222 
L 1259 2222 
L 1259 0 
L 628 0 
L 628 4666 
z
" transform="scale(0.015625)"/>
      <path id="DejaVuSans-73" d="M 2834 3397 
L 2834 2853 
Q 2591 2978 2328 3040 
Q 2066 3103 1784 3103 
Q 1356 3103 1142 2972 
Q 928 2841 928 2578 
Q 928 2378 1081 2264 
Q 1234 2150 1697 2047 
L 1894 2003 
Q 2506 1872 2764 1633 
Q 3022 1394 3022 966 
Q 3022 478 2636 193 
Q 2250 -91 1575 -91 
Q 1294 -91 989 -36 
Q 684 19 347 128 
L 347 722 
Q 666 556 975 473 
Q 1284 391 1588 391 
Q 1994 391 2212 530 
Q 2431 669 2431 922 
Q 2431 1156 2273 1281 
Q 2116 1406 1581 1522 
L 1381 1569 
Q 847 1681 609 1914 
Q 372 2147 372 2553 
Q 372 3047 722 3315 
Q 1072 3584 1716 3584 
Q 2034 3584 2315 3537 
Q 2597 3491 2834 3397 
z
" transform="scale(0.015625)"/>
      <path id="DejaVuSans-4b" d="M 628 4666 
L 1259 4666 
L 1259 2694 
L 3353 4666 
L 4166 4666 
L 1850 2491 
L 4331 0 
L 3500 0 
L 1259 2247 
L 1259 0 
L 628 0 
L 628 4666 
z
" transform="scale(0.015625)"/>
      <path id="DejaVuSans-44" d="M 1259 4147 
L 1259 519 
L 2022 519 
Q 2988 519 3436 956 
Q 3884 1394 3884 2338 
Q 3884 3275 3436 3711 
Q 2988 4147 2022 4147 
L 1259 4147 
z
M 628 4666 
L 1925 4666 
Q 3281 4666 3915 4102 
Q 4550 3538 4550 2338 
Q 4550 1131 3912 565 
Q 3275 0 1925 0 
L 628 0 
L 628 4666 
z
" transform="scale(0.015625)"/>
      <path id="DejaVuSans-45" d="M 628 4666 
L 3578 4666 
L 3578 4134 
L 1259 4134 
L 1259 2753 
L 3481 2753 
L 3481 2222 
L 1259 2222 
L 1259 531 
L 3634 531 
L 3634 0 
L 628 0 
L 628 4666 
z
" transform="scale(0.015625)"/>
      <path id="DejaVuSans-66" d="M 2375 4863 
L 2375 4384 
L 1825 4384 
Q 1516 4384 1395 4259 
Q 1275 4134 1275 3809 
L 1275 3500 
L 2222 3500 
L 2222 3053 
L 1275 3053 
L 1275 0 
L 697 0 
L 697 3053 
L 147 3053 
L 147 3500 
L 697 3500 
L 697 3744 
Q 697 4328 969 4595 
Q 1241 4863 1831 4863 
L 2375 4863 
z
" transform="scale(0.015625)"/>
     </defs>
     <use xlink:href="#DejaVuSans-41"/>
     <use xlink:href="#DejaVuSans-76" x="62.533203"/>
     <use xlink:href="#DejaVuSans-65" x="121.712891"/>
     <use xlink:href="#DejaVuSans-72" x="183.236328"/>
     <use xlink:href="#DejaVuSans-61" x="224.349609"/>
     <use xlink:href="#DejaVuSans-67" x="285.628906"/>
     <use xlink:href="#DejaVuSans-65" x="349.105469"/>
     <use xlink:href="#DejaVuSans-20" x="410.628906"/>
     <use xlink:href="#DejaVuSans-4e" x="442.416016"/>
     <use xlink:href="#DejaVuSans-6f" x="517.220703"/>
     <use xlink:href="#DejaVuSans-72" x="578.402344"/>
     <use xlink:href="#DejaVuSans-6d" x="617.765625"/>
     <use xlink:href="#DejaVuSans-61" x="715.177734"/>
     <use xlink:href="#DejaVuSans-6c" x="776.457031"/>
     <use xlink:href="#DejaVuSans-69" x="804.240234"/>
     <use xlink:href="#DejaVuSans-7a" x="832.023438"/>
     <use xlink:href="#DejaVuSans-65" x="884.513672"/>
     <use xlink:href="#DejaVuSans-64" x="946.037109"/>
     <use xlink:href="#DejaVuSans-20" x="1009.513672"/>
     <use xlink:href="#DejaVuSans-48" x="1041.300781"/>
     <use xlink:href="#DejaVuSans-69" x="1116.496094"/>
     <use xlink:href="#DejaVuSans-73" x="1144.279297"/>
     <use xlink:href="#DejaVuSans-74" x="1196.378906"/>
     <use xlink:href="#DejaVuSans-6f" x="1235.587891"/>
     <use xlink:href="#DejaVuSans-67" x="1296.769531"/>
     <use xlink:href="#DejaVuSans-72" x="1360.246094"/>
     <use xlink:href="#DejaVuSans-61" x="1401.359375"/>
     <use xlink:href="#DejaVuSans-6d" x="1462.638672"/>
     <use xlink:href="#DejaVuSans-73" x="1560.050781"/>
     <use xlink:href="#DejaVuSans-20" x="1612.150391"/>
     <use xlink:href="#DejaVuSans-61" x="1643.9375"/>
     <use xlink:href="#DejaVuSans-6e" x="1705.216797"/>
     <use xlink:href="#DejaVuSans-64" x="1768.595703"/>
     <use xlink:href="#DejaVuSans-20" x="1832.072266"/>
     <use xlink:href="#DejaVuSans-4b" x="1863.859375"/>
     <use xlink:href="#DejaVuSans-44" x="1929.435547"/>
     <use xlink:href="#DejaVuSans-45" x="2006.4375"/>
     <use xlink:href="#DejaVuSans-20" x="2069.621094"/>
     <use xlink:href="#DejaVuSans-6f" x="2101.408203"/>
     <use xlink:href="#DejaVuSans-66" x="2162.589844"/>
     <use xlink:href="#DejaVuSans-20" x="2197.794922"/>
     <use xlink:href="#DejaVuSans-50" x="2229.582031"/>
     <use xlink:href="#DejaVuSans-65" x="2286.259766"/>
     <use xlink:href="#DejaVuSans-6c" x="2347.783203"/>
     <use xlink:href="#DejaVuSans-6c" x="2375.566406"/>
     <use xlink:href="#DejaVuSans-65" x="2403.349609"/>
     <use xlink:href="#DejaVuSans-74" x="2464.873047"/>
     <use xlink:href="#DejaVuSans-20" x="2504.082031"/>
     <use xlink:href="#DejaVuSans-50" x="2535.869141"/>
     <use xlink:href="#DejaVuSans-72" x="2594.421875"/>
     <use xlink:href="#DejaVuSans-69" x="2635.535156"/>
     <use xlink:href="#DejaVuSans-63" x="2663.318359"/>
     <use xlink:href="#DejaVuSans-65" x="2718.298828"/>
    </g>
   </g>
   <g id="legend_1">
    <g id="patch_129">
     <path d="M 627.765625 156.54875 
L 770.6 156.54875 
Q 772.6 156.54875 772.6 154.54875 
L 772.6 67.48 
Q 772.6 65.48 770.6 65.48 
L 627.765625 65.48 
Q 625.765625 65.48 625.765625 67.48 
L 625.765625 154.54875 
Q 625.765625 156.54875 627.765625 156.54875 
z
" style="fill: #ffffff; opacity: 0.8; stroke: #cccccc; stroke-linejoin: miter"/>
    </g>
    <g id="line2d_28">
     <path d="M 629.765625 73.578438 
L 639.765625 73.578438 
L 649.765625 73.578438 
" style="fill: none; stroke-dasharray: 5.55,2.4; stroke-dashoffset: 0; stroke: #0000ff; stroke-width: 1.5"/>
    </g>
    <g id="text_16">
     <!-- KDE for SHAM -->
     <g transform="translate(657.765625 77.078438)scale(0.1 -0.1)">
      <defs>
       <path id="DejaVuSans-53" d="M 3425 4513 
L 3425 3897 
Q 3066 4069 2747 4153 
Q 2428 4238 2131 4238 
Q 1616 4238 1336 4038 
Q 1056 3838 1056 3469 
Q 1056 3159 1242 3001 
Q 1428 2844 1947 2747 
L 2328 2669 
Q 3034 2534 3370 2195 
Q 3706 1856 3706 1288 
Q 3706 609 3251 259 
Q 2797 -91 1919 -91 
Q 1588 -91 1214 -16 
Q 841 59 441 206 
L 441 856 
Q 825 641 1194 531 
Q 1563 422 1919 422 
Q 2459 422 2753 634 
Q 3047 847 3047 1241 
Q 3047 1584 2836 1778 
Q 2625 1972 2144 2069 
L 1759 2144 
Q 1053 2284 737 2584 
Q 422 2884 422 3419 
Q 422 4038 858 4394 
Q 1294 4750 2059 4750 
Q 2388 4750 2728 4690 
Q 3069 4631 3425 4513 
z
" transform="scale(0.015625)"/>
       <path id="DejaVuSans-4d" d="M 628 4666 
L 1569 4666 
L 2759 1491 
L 3956 4666 
L 4897 4666 
L 4897 0 
L 4281 0 
L 4281 4097 
L 3078 897 
L 2444 897 
L 1241 4097 
L 1241 0 
L 628 0 
L 628 4666 
z
" transform="scale(0.015625)"/>
      </defs>
      <use xlink:href="#DejaVuSans-4b"/>
      <use xlink:href="#DejaVuSans-44" x="65.576172"/>
      <use xlink:href="#DejaVuSans-45" x="142.578125"/>
      <use xlink:href="#DejaVuSans-20" x="205.761719"/>
      <use xlink:href="#DejaVuSans-66" x="237.548828"/>
      <use xlink:href="#DejaVuSans-6f" x="272.753906"/>
      <use xlink:href="#DejaVuSans-72" x="333.935547"/>
      <use xlink:href="#DejaVuSans-20" x="375.048828"/>
      <use xlink:href="#DejaVuSans-53" x="406.835938"/>
      <use xlink:href="#DejaVuSans-48" x="470.3125"/>
      <use xlink:href="#DejaVuSans-41" x="545.507812"/>
      <use xlink:href="#DejaVuSans-4d" x="613.916016"/>
     </g>
    </g>
    <g id="line2d_29">
     <path d="M 629.765625 88.256563 
L 639.765625 88.256563 
L 649.765625 88.256563 
" style="fill: none; stroke-dasharray: 5.55,2.4; stroke-dashoffset: 0; stroke: #ff0000; stroke-width: 1.5"/>
    </g>
    <g id="text_17">
     <!-- KDE for SNI -->
     <g transform="translate(657.765625 91.756563)scale(0.1 -0.1)">
      <defs>
       <path id="DejaVuSans-49" d="M 628 4666 
L 1259 4666 
L 1259 0 
L 628 0 
L 628 4666 
z
" transform="scale(0.015625)"/>
      </defs>
      <use xlink:href="#DejaVuSans-4b"/>
      <use xlink:href="#DejaVuSans-44" x="65.576172"/>
      <use xlink:href="#DejaVuSans-45" x="142.578125"/>
      <use xlink:href="#DejaVuSans-20" x="205.761719"/>
      <use xlink:href="#DejaVuSans-66" x="237.548828"/>
      <use xlink:href="#DejaVuSans-6f" x="272.753906"/>
      <use xlink:href="#DejaVuSans-72" x="333.935547"/>
      <use xlink:href="#DejaVuSans-20" x="375.048828"/>
      <use xlink:href="#DejaVuSans-53" x="406.835938"/>
      <use xlink:href="#DejaVuSans-4e" x="470.3125"/>
      <use xlink:href="#DejaVuSans-49" x="545.117188"/>
     </g>
    </g>
    <g id="line2d_30">
     <path d="M 629.765625 102.934688 
L 639.765625 102.934688 
L 649.765625 102.934688 
" style="fill: none; stroke-dasharray: 5.55,2.4; stroke-dashoffset: 0; stroke: #008000; stroke-width: 1.5"/>
    </g>
    <g id="text_18">
     <!-- KDE for Naive -->
     <g transform="translate(657.765625 106.434688)scale(0.1 -0.1)">
      <use xlink:href="#DejaVuSans-4b"/>
      <use xlink:href="#DejaVuSans-44" x="65.576172"/>
      <use xlink:href="#DejaVuSans-45" x="142.578125"/>
      <use xlink:href="#DejaVuSans-20" x="205.761719"/>
      <use xlink:href="#DejaVuSans-66" x="237.548828"/>
      <use xlink:href="#DejaVuSans-6f" x="272.753906"/>
      <use xlink:href="#DejaVuSans-72" x="333.935547"/>
      <use xlink:href="#DejaVuSans-20" x="375.048828"/>
      <use xlink:href="#DejaVuSans-4e" x="406.835938"/>
      <use xlink:href="#DejaVuSans-61" x="481.640625"/>
      <use xlink:href="#DejaVuSans-69" x="542.919922"/>
      <use xlink:href="#DejaVuSans-76" x="570.703125"/>
      <use xlink:href="#DejaVuSans-65" x="629.882812"/>
     </g>
    </g>
    <g id="patch_130">
     <path d="M 629.765625 121.112813 
L 649.765625 121.112813 
L 649.765625 114.112813 
L 629.765625 114.112813 
z
" style="fill: #1f77b4; opacity: 0.5; stroke: #000000; stroke-linejoin: miter"/>
    </g>
    <g id="text_19">
     <!-- Histogram from SHAM -->
     <g transform="translate(657.765625 121.112813)scale(0.1 -0.1)">
      <use xlink:href="#DejaVuSans-48"/>
      <use xlink:href="#DejaVuSans-69" x="75.195312"/>
      <use xlink:href="#DejaVuSans-73" x="102.978516"/>
      <use xlink:href="#DejaVuSans-74" x="155.078125"/>
      <use xlink:href="#DejaVuSans-6f" x="194.287109"/>
      <use xlink:href="#DejaVuSans-67" x="255.46875"/>
      <use xlink:href="#DejaVuSans-72" x="318.945312"/>
      <use xlink:href="#DejaVuSans-61" x="360.058594"/>
      <use xlink:href="#DejaVuSans-6d" x="421.337891"/>
      <use xlink:href="#DejaVuSans-20" x="518.75"/>
      <use xlink:href="#DejaVuSans-66" x="550.537109"/>
      <use xlink:href="#DejaVuSans-72" x="585.742188"/>
      <use xlink:href="#DejaVuSans-6f" x="624.605469"/>
      <use xlink:href="#DejaVuSans-6d" x="685.787109"/>
      <use xlink:href="#DejaVuSans-20" x="783.199219"/>
      <use xlink:href="#DejaVuSans-53" x="814.986328"/>
      <use xlink:href="#DejaVuSans-48" x="878.462891"/>
      <use xlink:href="#DejaVuSans-41" x="953.658203"/>
      <use xlink:href="#DejaVuSans-4d" x="1022.066406"/>
     </g>
    </g>
    <g id="patch_131">
     <path d="M 629.765625 135.790938 
L 649.765625 135.790938 
L 649.765625 128.790938 
L 629.765625 128.790938 
z
" style="fill: #ff7f0e; opacity: 0.5; stroke: #000000; stroke-linejoin: miter"/>
    </g>
    <g id="text_20">
     <!-- Histogram from SNI -->
     <g transform="translate(657.765625 135.790938)scale(0.1 -0.1)">
      <use xlink:href="#DejaVuSans-48"/>
      <use xlink:href="#DejaVuSans-69" x="75.195312"/>
      <use xlink:href="#DejaVuSans-73" x="102.978516"/>
      <use xlink:href="#DejaVuSans-74" x="155.078125"/>
      <use xlink:href="#DejaVuSans-6f" x="194.287109"/>
      <use xlink:href="#DejaVuSans-67" x="255.46875"/>
      <use xlink:href="#DejaVuSans-72" x="318.945312"/>
      <use xlink:href="#DejaVuSans-61" x="360.058594"/>
      <use xlink:href="#DejaVuSans-6d" x="421.337891"/>
      <use xlink:href="#DejaVuSans-20" x="518.75"/>
      <use xlink:href="#DejaVuSans-66" x="550.537109"/>
      <use xlink:href="#DejaVuSans-72" x="585.742188"/>
      <use xlink:href="#DejaVuSans-6f" x="624.605469"/>
      <use xlink:href="#DejaVuSans-6d" x="685.787109"/>
      <use xlink:href="#DejaVuSans-20" x="783.199219"/>
      <use xlink:href="#DejaVuSans-53" x="814.986328"/>
      <use xlink:href="#DejaVuSans-4e" x="878.462891"/>
      <use xlink:href="#DejaVuSans-49" x="953.267578"/>
     </g>
    </g>
    <g id="patch_132">
     <path d="M 629.765625 150.469063 
L 649.765625 150.469063 
L 649.765625 143.469063 
L 629.765625 143.469063 
z
" style="fill: #008000; opacity: 0.5; stroke: #000000; stroke-linejoin: miter"/>
    </g>
    <g id="text_21">
     <!-- Histogram from Naive -->
     <g transform="translate(657.765625 150.469063)scale(0.1 -0.1)">
      <use xlink:href="#DejaVuSans-48"/>
      <use xlink:href="#DejaVuSans-69" x="75.195312"/>
      <use xlink:href="#DejaVuSans-73" x="102.978516"/>
      <use xlink:href="#DejaVuSans-74" x="155.078125"/>
      <use xlink:href="#DejaVuSans-6f" x="194.287109"/>
      <use xlink:href="#DejaVuSans-67" x="255.46875"/>
      <use xlink:href="#DejaVuSans-72" x="318.945312"/>
      <use xlink:href="#DejaVuSans-61" x="360.058594"/>
      <use xlink:href="#DejaVuSans-6d" x="421.337891"/>
      <use xlink:href="#DejaVuSans-20" x="518.75"/>
      <use xlink:href="#DejaVuSans-66" x="550.537109"/>
      <use xlink:href="#DejaVuSans-72" x="585.742188"/>
      <use xlink:href="#DejaVuSans-6f" x="624.605469"/>
      <use xlink:href="#DejaVuSans-6d" x="685.787109"/>
      <use xlink:href="#DejaVuSans-20" x="783.199219"/>
      <use xlink:href="#DejaVuSans-4e" x="814.986328"/>
      <use xlink:href="#DejaVuSans-61" x="889.791016"/>
      <use xlink:href="#DejaVuSans-69" x="951.070312"/>
      <use xlink:href="#DejaVuSans-76" x="978.853516"/>
      <use xlink:href="#DejaVuSans-65" x="1038.033203"/>
     </g>
    </g>
   </g>
  </g>
 </g>
 <defs>
  <clipPath id="pc15864147f">
   <rect x="108" y="60.48" width="669.6" height="380.52"/>
  </clipPath>
 </defs>
</svg>
