<?xml version="1.0" encoding="utf-8" standalone="no"?>
<!DOCTYPE svg PUBLIC "-//W3C//DTD SVG 1.1//EN"
  "http://www.w3.org/Graphics/SVG/1.1/DTD/svg11.dtd">
<svg xmlns:xlink="http://www.w3.org/1999/xlink" width="864pt" height="504pt" viewBox="0 0 864 504" xmlns="http://www.w3.org/2000/svg" version="1.1">
 <metadata>
  <rdf:RDF xmlns:dc="http://purl.org/dc/elements/1.1/" xmlns:cc="http://creativecommons.org/ns#" xmlns:rdf="http://www.w3.org/1999/02/22-rdf-syntax-ns#">
   <cc:Work>
    <dc:type rdf:resource="http://purl.org/dc/dcmitype/StillImage"/>
    <dc:date>2025-01-06T22:45:43.557889</dc:date>
    <dc:format>image/svg+xml</dc:format>
    <dc:creator>
     <cc:Agent>
      <dc:title>Matplotlib v3.5.1, https://matplotlib.org/</dc:title>
     </cc:Agent>
    </dc:creator>
   </cc:Work>
  </rdf:RDF>
 </metadata>
 <defs>
  <style type="text/css">*{stroke-linejoin: round; stroke-linecap: butt}</style>
 </defs>
 <g id="figure_1">
  <g id="patch_1">
   <path d="M 0 504 
L 864 504 
L 864 0 
L 0 0 
z
" style="fill: #ffffff"/>
  </g>
  <g id="axes_1">
   <g id="patch_2">
    <path d="M 108 441 
L 777.6 441 
L 777.6 60.48 
L 108 60.48 
z
" style="fill: #ffffff"/>
   </g>
   <g id="patch_3">
    <path d="M 180.061282 441 
L 185.546433 441 
L 185.546433 261.416851 
L 180.061282 261.416851 
z
" clip-path="url(#p9984007c49)" style="fill: #1f77b4; opacity: 0.5; stroke: #000000; stroke-linejoin: miter"/>
   </g>
   <g id="patch_4">
    <path d="M 191.031584 441 
L 196.516734 441 
L 196.516734 403.5407 
L 191.031584 403.5407 
z
" clip-path="url(#p9984007c49)" style="fill: #1f77b4; opacity: 0.5; stroke: #000000; stroke-linejoin: miter"/>
   </g>
   <g id="patch_5">
    <path d="M 202.001885 441 
L 207.487036 441 
L 207.487036 416.512564 
L 202.001885 416.512564 
z
" clip-path="url(#p9984007c49)" style="fill: #1f77b4; opacity: 0.5; stroke: #000000; stroke-linejoin: miter"/>
   </g>
   <g id="patch_6">
    <path d="M 212.972186 441 
L 218.457337 441 
L 218.457337 389.251941 
L 212.972186 389.251941 
z
" clip-path="url(#p9984007c49)" style="fill: #1f77b4; opacity: 0.5; stroke: #000000; stroke-linejoin: miter"/>
   </g>
   <g id="patch_7">
    <path d="M 223.942488 441 
L 229.427638 441 
L 229.427638 336.181654 
L 223.942488 336.181654 
z
" clip-path="url(#p9984007c49)" style="fill: #1f77b4; opacity: 0.5; stroke: #000000; stroke-linejoin: miter"/>
   </g>
   <g id="patch_8">
    <path d="M 234.912789 441 
L 240.39794 441 
L 240.39794 237.691907 
L 234.912789 237.691907 
z
" clip-path="url(#p9984007c49)" style="fill: #1f77b4; opacity: 0.5; stroke: #000000; stroke-linejoin: miter"/>
   </g>
   <g id="patch_9">
    <path d="M 245.883091 441 
L 251.368241 441 
L 251.368241 188.508015 
L 245.883091 188.508015 
z
" clip-path="url(#p9984007c49)" style="fill: #1f77b4; opacity: 0.5; stroke: #000000; stroke-linejoin: miter"/>
   </g>
   <g id="patch_10">
    <path d="M 256.853392 441 
L 262.338543 441 
L 262.338543 98.040547 
L 256.853392 98.040547 
z
" clip-path="url(#p9984007c49)" style="fill: #1f77b4; opacity: 0.5; stroke: #000000; stroke-linejoin: miter"/>
   </g>
   <g id="patch_11">
    <path d="M 267.823693 441 
L 273.308844 441 
L 273.308844 147.445338 
L 267.823693 147.445338 
z
" clip-path="url(#p9984007c49)" style="fill: #1f77b4; opacity: 0.5; stroke: #000000; stroke-linejoin: miter"/>
   </g>
   <g id="patch_12">
    <path d="M 278.793995 441 
L 284.279145 441 
L 284.279145 160.79375 
L 278.793995 160.79375 
z
" clip-path="url(#p9984007c49)" style="fill: #1f77b4; opacity: 0.5; stroke: #000000; stroke-linejoin: miter"/>
   </g>
   <g id="patch_13">
    <path d="M 289.764296 441 
L 295.249447 441 
L 295.249447 238.558908 
L 289.764296 238.558908 
z
" clip-path="url(#p9984007c49)" style="fill: #1f77b4; opacity: 0.5; stroke: #000000; stroke-linejoin: miter"/>
   </g>
   <g id="patch_14">
    <path d="M 300.734597 441 
L 306.219748 441 
L 306.219748 211.853427 
L 300.734597 211.853427 
z
" clip-path="url(#p9984007c49)" style="fill: #1f77b4; opacity: 0.5; stroke: #000000; stroke-linejoin: miter"/>
   </g>
   <g id="patch_15">
    <path d="M 311.704899 441 
L 317.190049 441 
L 317.190049 295.902643 
L 311.704899 295.902643 
z
" clip-path="url(#p9984007c49)" style="fill: #1f77b4; opacity: 0.5; stroke: #000000; stroke-linejoin: miter"/>
   </g>
   <g id="patch_16">
    <path d="M 322.6752 441 
L 328.160351 441 
L 328.160351 319.822626 
L 322.6752 319.822626 
z
" clip-path="url(#p9984007c49)" style="fill: #1f77b4; opacity: 0.5; stroke: #000000; stroke-linejoin: miter"/>
   </g>
   <g id="patch_17">
    <path d="M 333.645501 441 
L 339.130652 441 
L 339.130652 332.869605 
L 333.645501 332.869605 
z
" clip-path="url(#p9984007c49)" style="fill: #1f77b4; opacity: 0.5; stroke: #000000; stroke-linejoin: miter"/>
   </g>
   <g id="patch_18">
    <path d="M 344.615803 441 
L 350.100953 441 
L 350.100953 365.199396 
L 344.615803 365.199396 
z
" clip-path="url(#p9984007c49)" style="fill: #1f77b4; opacity: 0.5; stroke: #000000; stroke-linejoin: miter"/>
   </g>
   <g id="patch_19">
    <path d="M 355.586104 441 
L 361.071255 441 
L 361.071255 367.186738 
L 355.586104 367.186738 
z
" clip-path="url(#p9984007c49)" style="fill: #1f77b4; opacity: 0.5; stroke: #000000; stroke-linejoin: miter"/>
   </g>
   <g id="patch_20">
    <path d="M 366.556406 441 
L 372.041556 441 
L 372.041556 359.149263 
L 366.556406 359.149263 
z
" clip-path="url(#p9984007c49)" style="fill: #1f77b4; opacity: 0.5; stroke: #000000; stroke-linejoin: miter"/>
   </g>
   <g id="patch_21">
    <path d="M 377.526707 441 
L 383.011858 441 
L 383.011858 387.10772 
L 377.526707 387.10772 
z
" clip-path="url(#p9984007c49)" style="fill: #1f77b4; opacity: 0.5; stroke: #000000; stroke-linejoin: miter"/>
   </g>
   <g id="patch_22">
    <path d="M 388.497008 441 
L 393.982159 441 
L 393.982159 373.771706 
L 388.497008 373.771706 
z
" clip-path="url(#p9984007c49)" style="fill: #1f77b4; opacity: 0.5; stroke: #000000; stroke-linejoin: miter"/>
   </g>
   <g id="patch_23">
    <path d="M 399.46731 441 
L 404.95246 441 
L 404.95246 387.024517 
L 399.46731 387.024517 
z
" clip-path="url(#p9984007c49)" style="fill: #1f77b4; opacity: 0.5; stroke: #000000; stroke-linejoin: miter"/>
   </g>
   <g id="patch_24">
    <path d="M 410.437611 441 
L 415.922762 441 
L 415.922762 379.148196 
L 410.437611 379.148196 
z
" clip-path="url(#p9984007c49)" style="fill: #1f77b4; opacity: 0.5; stroke: #000000; stroke-linejoin: miter"/>
   </g>
   <g id="patch_25">
    <path d="M 421.407912 441 
L 426.893063 441 
L 426.893063 395.649846 
L 421.407912 395.649846 
z
" clip-path="url(#p9984007c49)" style="fill: #1f77b4; opacity: 0.5; stroke: #000000; stroke-linejoin: miter"/>
   </g>
   <g id="patch_26">
    <path d="M 432.378214 441 
L 437.863364 441 
L 437.863364 411.185497 
L 432.378214 411.185497 
z
" clip-path="url(#p9984007c49)" style="fill: #1f77b4; opacity: 0.5; stroke: #000000; stroke-linejoin: miter"/>
   </g>
   <g id="patch_27">
    <path d="M 443.348515 441 
L 448.833666 441 
L 448.833666 408.492435 
L 443.348515 408.492435 
z
" clip-path="url(#p9984007c49)" style="fill: #1f77b4; opacity: 0.5; stroke: #000000; stroke-linejoin: miter"/>
   </g>
   <g id="patch_28">
    <path d="M 454.318816 441 
L 459.803967 441 
L 459.803967 410.475606 
L 454.318816 410.475606 
z
" clip-path="url(#p9984007c49)" style="fill: #1f77b4; opacity: 0.5; stroke: #000000; stroke-linejoin: miter"/>
   </g>
   <g id="patch_29">
    <path d="M 465.289118 441 
L 470.774268 441 
L 470.774268 404.811763 
L 465.289118 404.811763 
z
" clip-path="url(#p9984007c49)" style="fill: #1f77b4; opacity: 0.5; stroke: #000000; stroke-linejoin: miter"/>
   </g>
   <g id="patch_30">
    <path d="M 476.259419 441 
L 481.74457 441 
L 481.74457 393.934506 
L 476.259419 393.934506 
z
" clip-path="url(#p9984007c49)" style="fill: #1f77b4; opacity: 0.5; stroke: #000000; stroke-linejoin: miter"/>
   </g>
   <g id="patch_31">
    <path d="M 487.229721 441 
L 492.714871 441 
L 492.714871 414.21124 
L 487.229721 414.21124 
z
" clip-path="url(#p9984007c49)" style="fill: #1f77b4; opacity: 0.5; stroke: #000000; stroke-linejoin: miter"/>
   </g>
   <g id="patch_32">
    <path d="M 498.200022 441 
L 503.685173 441 
L 503.685173 396.748972 
L 498.200022 396.748972 
z
" clip-path="url(#p9984007c49)" style="fill: #1f77b4; opacity: 0.5; stroke: #000000; stroke-linejoin: miter"/>
   </g>
   <g id="patch_33">
    <path d="M 509.170323 441 
L 514.655474 441 
L 514.655474 391.238977 
L 509.170323 391.238977 
z
" clip-path="url(#p9984007c49)" style="fill: #1f77b4; opacity: 0.5; stroke: #000000; stroke-linejoin: miter"/>
   </g>
   <g id="patch_34">
    <path d="M 520.140625 441 
L 525.625775 441 
L 525.625775 421.477698 
L 520.140625 421.477698 
z
" clip-path="url(#p9984007c49)" style="fill: #1f77b4; opacity: 0.5; stroke: #000000; stroke-linejoin: miter"/>
   </g>
   <g id="patch_35">
    <path d="M 531.110926 441 
L 536.596077 441 
L 536.596077 432.85987 
L 531.110926 432.85987 
z
" clip-path="url(#p9984007c49)" style="fill: #1f77b4; opacity: 0.5; stroke: #000000; stroke-linejoin: miter"/>
   </g>
   <g id="patch_36">
    <path d="M 542.081227 441 
L 547.566378 441 
L 547.566378 428.611722 
L 542.081227 428.611722 
z
" clip-path="url(#p9984007c49)" style="fill: #1f77b4; opacity: 0.5; stroke: #000000; stroke-linejoin: miter"/>
   </g>
   <g id="patch_37">
    <path d="M 553.051529 441 
L 558.536679 441 
L 558.536679 394.386348 
L 553.051529 394.386348 
z
" clip-path="url(#p9984007c49)" style="fill: #1f77b4; opacity: 0.5; stroke: #000000; stroke-linejoin: miter"/>
   </g>
   <g id="patch_38">
    <path d="M 564.02183 441 
L 569.506981 441 
L 569.506981 426.002524 
L 564.02183 426.002524 
z
" clip-path="url(#p9984007c49)" style="fill: #1f77b4; opacity: 0.5; stroke: #000000; stroke-linejoin: miter"/>
   </g>
   <g id="patch_39">
    <path d="M 574.992131 441 
L 580.477282 441 
L 580.477282 407.633658 
L 574.992131 407.633658 
z
" clip-path="url(#p9984007c49)" style="fill: #1f77b4; opacity: 0.5; stroke: #000000; stroke-linejoin: miter"/>
   </g>
   <g id="patch_40">
    <path d="M 585.962433 441 
L 591.447583 441 
L 591.447583 415.287018 
L 585.962433 415.287018 
z
" clip-path="url(#p9984007c49)" style="fill: #1f77b4; opacity: 0.5; stroke: #000000; stroke-linejoin: miter"/>
   </g>
   <g id="patch_41">
    <path d="M 596.932734 441 
L 602.417885 441 
L 602.417885 420.213153 
L 596.932734 420.213153 
z
" clip-path="url(#p9984007c49)" style="fill: #1f77b4; opacity: 0.5; stroke: #000000; stroke-linejoin: miter"/>
   </g>
   <g id="patch_42">
    <path d="M 607.903036 441 
L 613.388186 441 
L 613.388186 430.875513 
L 607.903036 430.875513 
z
" clip-path="url(#p9984007c49)" style="fill: #1f77b4; opacity: 0.5; stroke: #000000; stroke-linejoin: miter"/>
   </g>
   <g id="patch_43">
    <path d="M 618.873337 441 
L 624.358488 441 
L 624.358488 396.645107 
L 618.873337 396.645107 
z
" clip-path="url(#p9984007c49)" style="fill: #1f77b4; opacity: 0.5; stroke: #000000; stroke-linejoin: miter"/>
   </g>
   <g id="patch_44">
    <path d="M 629.843638 441 
L 635.328789 441 
L 635.328789 400.502054 
L 629.843638 400.502054 
z
" clip-path="url(#p9984007c49)" style="fill: #1f77b4; opacity: 0.5; stroke: #000000; stroke-linejoin: miter"/>
   </g>
   <g id="patch_45">
    <path d="M 640.81394 441 
L 646.29909 441 
L 646.29909 415.769137 
L 640.81394 415.769137 
z
" clip-path="url(#p9984007c49)" style="fill: #1f77b4; opacity: 0.5; stroke: #000000; stroke-linejoin: miter"/>
   </g>
   <g id="patch_46">
    <path d="M 651.784241 441 
L 657.269392 441 
L 657.269392 417.69761 
L 651.784241 417.69761 
z
" clip-path="url(#p9984007c49)" style="fill: #1f77b4; opacity: 0.5; stroke: #000000; stroke-linejoin: miter"/>
   </g>
   <g id="patch_47">
    <path d="M 662.754542 441 
L 668.239693 441 
L 668.239693 441 
L 662.754542 441 
z
" clip-path="url(#p9984007c49)" style="fill: #1f77b4; opacity: 0.5; stroke: #000000; stroke-linejoin: miter"/>
   </g>
   <g id="patch_48">
    <path d="M 673.724844 441 
L 679.209994 441 
L 679.209994 402.430527 
L 673.724844 402.430527 
z
" clip-path="url(#p9984007c49)" style="fill: #1f77b4; opacity: 0.5; stroke: #000000; stroke-linejoin: miter"/>
   </g>
   <g id="patch_49">
    <path d="M 684.695145 441 
L 690.180296 441 
L 690.180296 431.357632 
L 684.695145 431.357632 
z
" clip-path="url(#p9984007c49)" style="fill: #1f77b4; opacity: 0.5; stroke: #000000; stroke-linejoin: miter"/>
   </g>
   <g id="patch_50">
    <path d="M 184.449403 441 
L 189.934554 441 
L 189.934554 274.553082 
L 184.449403 274.553082 
z
" clip-path="url(#p9984007c49)" style="fill: #ff7f0e; opacity: 0.5; stroke: #000000; stroke-linejoin: miter"/>
   </g>
   <g id="patch_51">
    <path d="M 195.419704 441 
L 200.904855 441 
L 200.904855 405.639428 
L 195.419704 405.639428 
z
" clip-path="url(#p9984007c49)" style="fill: #ff7f0e; opacity: 0.5; stroke: #000000; stroke-linejoin: miter"/>
   </g>
   <g id="patch_52">
    <path d="M 206.390006 441 
L 211.875156 441 
L 211.875156 406.857184 
L 206.390006 406.857184 
z
" clip-path="url(#p9984007c49)" style="fill: #ff7f0e; opacity: 0.5; stroke: #000000; stroke-linejoin: miter"/>
   </g>
   <g id="patch_53">
    <path d="M 217.360307 441 
L 222.845458 441 
L 222.845458 402.467784 
L 217.360307 402.467784 
z
" clip-path="url(#p9984007c49)" style="fill: #ff7f0e; opacity: 0.5; stroke: #000000; stroke-linejoin: miter"/>
   </g>
   <g id="patch_54">
    <path d="M 228.330608 441 
L 233.815759 441 
L 233.815759 383.39923 
L 228.330608 383.39923 
z
" clip-path="url(#p9984007c49)" style="fill: #ff7f0e; opacity: 0.5; stroke: #000000; stroke-linejoin: miter"/>
   </g>
   <g id="patch_55">
    <path d="M 239.30091 441 
L 244.78606 441 
L 244.78606 375.683766 
L 239.30091 375.683766 
z
" clip-path="url(#p9984007c49)" style="fill: #ff7f0e; opacity: 0.5; stroke: #000000; stroke-linejoin: miter"/>
   </g>
   <g id="patch_56">
    <path d="M 250.271211 441 
L 255.756362 441 
L 255.756362 255.481818 
L 250.271211 255.481818 
z
" clip-path="url(#p9984007c49)" style="fill: #ff7f0e; opacity: 0.5; stroke: #000000; stroke-linejoin: miter"/>
   </g>
   <g id="patch_57">
    <path d="M 261.241512 441 
L 266.726663 441 
L 266.726663 241.192869 
L 261.241512 241.192869 
z
" clip-path="url(#p9984007c49)" style="fill: #ff7f0e; opacity: 0.5; stroke: #000000; stroke-linejoin: miter"/>
   </g>
   <g id="patch_58">
    <path d="M 272.211814 441 
L 277.696964 441 
L 277.696964 263.772172 
L 272.211814 263.772172 
z
" clip-path="url(#p9984007c49)" style="fill: #ff7f0e; opacity: 0.5; stroke: #000000; stroke-linejoin: miter"/>
   </g>
   <g id="patch_59">
    <path d="M 283.182115 441 
L 288.667266 441 
L 288.667266 284.797156 
L 283.182115 284.797156 
z
" clip-path="url(#p9984007c49)" style="fill: #ff7f0e; opacity: 0.5; stroke: #000000; stroke-linejoin: miter"/>
   </g>
   <g id="patch_60">
    <path d="M 294.152417 441 
L 299.637567 441 
L 299.637567 234.600149 
L 294.152417 234.600149 
z
" clip-path="url(#p9984007c49)" style="fill: #ff7f0e; opacity: 0.5; stroke: #000000; stroke-linejoin: miter"/>
   </g>
   <g id="patch_61">
    <path d="M 305.122718 441 
L 310.607869 441 
L 310.607869 311.470685 
L 305.122718 311.470685 
z
" clip-path="url(#p9984007c49)" style="fill: #ff7f0e; opacity: 0.5; stroke: #000000; stroke-linejoin: miter"/>
   </g>
   <g id="patch_62">
    <path d="M 316.093019 441 
L 321.57817 441 
L 321.57817 275.445636 
L 316.093019 275.445636 
z
" clip-path="url(#p9984007c49)" style="fill: #ff7f0e; opacity: 0.5; stroke: #000000; stroke-linejoin: miter"/>
   </g>
   <g id="patch_63">
    <path d="M 327.063321 441 
L 332.548471 441 
L 332.548471 343.755617 
L 327.063321 343.755617 
z
" clip-path="url(#p9984007c49)" style="fill: #ff7f0e; opacity: 0.5; stroke: #000000; stroke-linejoin: miter"/>
   </g>
   <g id="patch_64">
    <path d="M 338.033622 441 
L 343.518773 441 
L 343.518773 360.137668 
L 338.033622 360.137668 
z
" clip-path="url(#p9984007c49)" style="fill: #ff7f0e; opacity: 0.5; stroke: #000000; stroke-linejoin: miter"/>
   </g>
   <g id="patch_65">
    <path d="M 349.003923 441 
L 354.489074 441 
L 354.489074 268.696617 
L 349.003923 268.696617 
z
" clip-path="url(#p9984007c49)" style="fill: #ff7f0e; opacity: 0.5; stroke: #000000; stroke-linejoin: miter"/>
   </g>
   <g id="patch_66">
    <path d="M 359.974225 441 
L 365.459375 441 
L 365.459375 359.831547 
L 359.974225 359.831547 
z
" clip-path="url(#p9984007c49)" style="fill: #ff7f0e; opacity: 0.5; stroke: #000000; stroke-linejoin: miter"/>
   </g>
   <g id="patch_67">
    <path d="M 370.944526 441 
L 376.429677 441 
L 376.429677 397.534944 
L 370.944526 397.534944 
z
" clip-path="url(#p9984007c49)" style="fill: #ff7f0e; opacity: 0.5; stroke: #000000; stroke-linejoin: miter"/>
   </g>
   <g id="patch_68">
    <path d="M 381.914827 441 
L 387.399978 441 
L 387.399978 263.371774 
L 381.914827 263.371774 
z
" clip-path="url(#p9984007c49)" style="fill: #ff7f0e; opacity: 0.5; stroke: #000000; stroke-linejoin: miter"/>
   </g>
   <g id="patch_69">
    <path d="M 392.885129 441 
L 398.370279 441 
L 398.370279 359.505445 
L 392.885129 359.505445 
z
" clip-path="url(#p9984007c49)" style="fill: #ff7f0e; opacity: 0.5; stroke: #000000; stroke-linejoin: miter"/>
   </g>
   <g id="patch_70">
    <path d="M 403.85543 441 
L 409.340581 441 
L 409.340581 341.9321 
L 403.85543 341.9321 
z
" clip-path="url(#p9984007c49)" style="fill: #ff7f0e; opacity: 0.5; stroke: #000000; stroke-linejoin: miter"/>
   </g>
   <g id="patch_71">
    <path d="M 414.825732 441 
L 420.310882 441 
L 420.310882 369.381743 
L 414.825732 369.381743 
z
" clip-path="url(#p9984007c49)" style="fill: #ff7f0e; opacity: 0.5; stroke: #000000; stroke-linejoin: miter"/>
   </g>
   <g id="patch_72">
    <path d="M 425.796033 441 
L 431.281184 441 
L 431.281184 341.801604 
L 425.796033 341.801604 
z
" clip-path="url(#p9984007c49)" style="fill: #ff7f0e; opacity: 0.5; stroke: #000000; stroke-linejoin: miter"/>
   </g>
   <g id="patch_73">
    <path d="M 436.766334 441 
L 442.251485 441 
L 442.251485 397.675996 
L 436.766334 397.675996 
z
" clip-path="url(#p9984007c49)" style="fill: #ff7f0e; opacity: 0.5; stroke: #000000; stroke-linejoin: miter"/>
   </g>
   <g id="patch_74">
    <path d="M 447.736636 441 
L 453.221786 441 
L 453.221786 425.903991 
L 447.736636 425.903991 
z
" clip-path="url(#p9984007c49)" style="fill: #ff7f0e; opacity: 0.5; stroke: #000000; stroke-linejoin: miter"/>
   </g>
   <g id="patch_75">
    <path d="M 458.706937 441 
L 464.192088 441 
L 464.192088 393.63155 
L 458.706937 393.63155 
z
" clip-path="url(#p9984007c49)" style="fill: #ff7f0e; opacity: 0.5; stroke: #000000; stroke-linejoin: miter"/>
   </g>
   <g id="patch_76">
    <path d="M 469.677238 441 
L 475.162389 441 
L 475.162389 396.830315 
L 469.677238 396.830315 
z
" clip-path="url(#p9984007c49)" style="fill: #ff7f0e; opacity: 0.5; stroke: #000000; stroke-linejoin: miter"/>
   </g>
   <g id="patch_77">
    <path d="M 480.64754 441 
L 486.13269 441 
L 486.13269 358.088387 
L 480.64754 358.088387 
z
" clip-path="url(#p9984007c49)" style="fill: #ff7f0e; opacity: 0.5; stroke: #000000; stroke-linejoin: miter"/>
   </g>
   <g id="patch_78">
    <path d="M 491.617841 441 
L 497.102992 441 
L 497.102992 387.773764 
L 491.617841 387.773764 
z
" clip-path="url(#p9984007c49)" style="fill: #ff7f0e; opacity: 0.5; stroke: #000000; stroke-linejoin: miter"/>
   </g>
   <g id="patch_79">
    <path d="M 502.588142 441 
L 508.073293 441 
L 508.073293 422.654156 
L 502.588142 422.654156 
z
" clip-path="url(#p9984007c49)" style="fill: #ff7f0e; opacity: 0.5; stroke: #000000; stroke-linejoin: miter"/>
   </g>
   <g id="patch_80">
    <path d="M 513.558444 441 
L 519.043594 441 
L 519.043594 354.250118 
L 513.558444 354.250118 
z
" clip-path="url(#p9984007c49)" style="fill: #ff7f0e; opacity: 0.5; stroke: #000000; stroke-linejoin: miter"/>
   </g>
   <g id="patch_81">
    <path d="M 524.528745 441 
L 530.013896 441 
L 530.013896 384.110507 
L 524.528745 384.110507 
z
" clip-path="url(#p9984007c49)" style="fill: #ff7f0e; opacity: 0.5; stroke: #000000; stroke-linejoin: miter"/>
   </g>
   <g id="patch_82">
    <path d="M 535.499047 441 
L 540.984197 441 
L 540.984197 384.126725 
L 535.499047 384.126725 
z
" clip-path="url(#p9984007c49)" style="fill: #ff7f0e; opacity: 0.5; stroke: #000000; stroke-linejoin: miter"/>
   </g>
   <g id="patch_83">
    <path d="M 546.469348 441 
L 551.954499 441 
L 551.954499 411.047602 
L 546.469348 411.047602 
z
" clip-path="url(#p9984007c49)" style="fill: #ff7f0e; opacity: 0.5; stroke: #000000; stroke-linejoin: miter"/>
   </g>
   <g id="patch_84">
    <path d="M 557.439649 441 
L 562.9248 441 
L 562.9248 441 
L 557.439649 441 
z
" clip-path="url(#p9984007c49)" style="fill: #ff7f0e; opacity: 0.5; stroke: #000000; stroke-linejoin: miter"/>
   </g>
   <g id="patch_85">
    <path d="M 568.409951 441 
L 573.895101 441 
L 573.895101 353.959887 
L 568.409951 353.959887 
z
" clip-path="url(#p9984007c49)" style="fill: #ff7f0e; opacity: 0.5; stroke: #000000; stroke-linejoin: miter"/>
   </g>
   <g id="patch_86">
    <path d="M 579.380252 441 
L 584.865403 441 
L 584.865403 398.794348 
L 579.380252 398.794348 
z
" clip-path="url(#p9984007c49)" style="fill: #ff7f0e; opacity: 0.5; stroke: #000000; stroke-linejoin: miter"/>
   </g>
   <g id="patch_87">
    <path d="M 590.350553 441 
L 595.835704 441 
L 595.835704 371.228028 
L 590.350553 371.228028 
z
" clip-path="url(#p9984007c49)" style="fill: #ff7f0e; opacity: 0.5; stroke: #000000; stroke-linejoin: miter"/>
   </g>
   <g id="patch_88">
    <path d="M 601.320855 441 
L 606.806005 441 
L 606.806005 422.007457 
L 601.320855 422.007457 
z
" clip-path="url(#p9984007c49)" style="fill: #ff7f0e; opacity: 0.5; stroke: #000000; stroke-linejoin: miter"/>
   </g>
   <g id="patch_89">
    <path d="M 612.291156 441 
L 617.776307 441 
L 617.776307 349.95638 
L 612.291156 349.95638 
z
" clip-path="url(#p9984007c49)" style="fill: #ff7f0e; opacity: 0.5; stroke: #000000; stroke-linejoin: miter"/>
   </g>
   <g id="patch_90">
    <path d="M 623.261457 441 
L 628.746608 441 
L 628.746608 390.859686 
L 623.261457 390.859686 
z
" clip-path="url(#p9984007c49)" style="fill: #ff7f0e; opacity: 0.5; stroke: #000000; stroke-linejoin: miter"/>
   </g>
   <g id="patch_91">
    <path d="M 634.231759 441 
L 639.716909 441 
L 639.716909 399.216405 
L 634.231759 399.216405 
z
" clip-path="url(#p9984007c49)" style="fill: #ff7f0e; opacity: 0.5; stroke: #000000; stroke-linejoin: miter"/>
   </g>
   <g id="patch_92">
    <path d="M 645.20206 441 
L 650.687211 441 
L 650.687211 357.43281 
L 645.20206 357.43281 
z
" clip-path="url(#p9984007c49)" style="fill: #ff7f0e; opacity: 0.5; stroke: #000000; stroke-linejoin: miter"/>
   </g>
   <g id="patch_93">
    <path d="M 656.172362 441 
L 661.657512 441 
L 661.657512 441 
L 656.172362 441 
z
" clip-path="url(#p9984007c49)" style="fill: #ff7f0e; opacity: 0.5; stroke: #000000; stroke-linejoin: miter"/>
   </g>
   <g id="patch_94">
    <path d="M 667.142663 441 
L 672.627814 441 
L 672.627814 381.30915 
L 667.142663 381.30915 
z
" clip-path="url(#p9984007c49)" style="fill: #ff7f0e; opacity: 0.5; stroke: #000000; stroke-linejoin: miter"/>
   </g>
   <g id="patch_95">
    <path d="M 678.112964 441 
L 683.598115 441 
L 683.598115 441 
L 678.112964 441 
z
" clip-path="url(#p9984007c49)" style="fill: #ff7f0e; opacity: 0.5; stroke: #000000; stroke-linejoin: miter"/>
   </g>
   <g id="patch_96">
    <path d="M 689.083266 441 
L 694.568416 441 
L 694.568416 411.154575 
L 689.083266 411.154575 
z
" clip-path="url(#p9984007c49)" style="fill: #ff7f0e; opacity: 0.5; stroke: #000000; stroke-linejoin: miter"/>
   </g>
   <g id="patch_97">
    <path d="M 700.053567 441 
L 705.538718 441 
L 705.538718 411.154575 
L 700.053567 411.154575 
z
" clip-path="url(#p9984007c49)" style="fill: #ff7f0e; opacity: 0.5; stroke: #000000; stroke-linejoin: miter"/>
   </g>
   <g id="patch_98">
    <path d="M 184.449403 441 
L 189.934554 441 
L 189.934554 294.367883 
L 184.449403 294.367883 
z
" clip-path="url(#p9984007c49)" style="fill: #2ca02c; opacity: 0.5; stroke: #000000; stroke-linejoin: miter"/>
   </g>
   <g id="patch_99">
    <path d="M 195.419704 441 
L 200.904855 441 
L 200.904855 398.875253 
L 195.419704 398.875253 
z
" clip-path="url(#p9984007c49)" style="fill: #2ca02c; opacity: 0.5; stroke: #000000; stroke-linejoin: miter"/>
   </g>
   <g id="patch_100">
    <path d="M 206.390006 441 
L 211.875156 441 
L 211.875156 374.364695 
L 206.390006 374.364695 
z
" clip-path="url(#p9984007c49)" style="fill: #2ca02c; opacity: 0.5; stroke: #000000; stroke-linejoin: miter"/>
   </g>
   <g id="patch_101">
    <path d="M 217.360307 441 
L 222.845458 441 
L 222.845458 347.629553 
L 217.360307 347.629553 
z
" clip-path="url(#p9984007c49)" style="fill: #2ca02c; opacity: 0.5; stroke: #000000; stroke-linejoin: miter"/>
   </g>
   <g id="patch_102">
    <path d="M 228.330608 441 
L 233.815759 441 
L 233.815759 319.7828 
L 228.330608 319.7828 
z
" clip-path="url(#p9984007c49)" style="fill: #2ca02c; opacity: 0.5; stroke: #000000; stroke-linejoin: miter"/>
   </g>
   <g id="patch_103">
    <path d="M 239.30091 441 
L 244.78606 441 
L 244.78606 229.583845 
L 239.30091 229.583845 
z
" clip-path="url(#p9984007c49)" style="fill: #2ca02c; opacity: 0.5; stroke: #000000; stroke-linejoin: miter"/>
   </g>
   <g id="patch_104">
    <path d="M 250.271211 441 
L 255.756362 441 
L 255.756362 204.441457 
L 250.271211 204.441457 
z
" clip-path="url(#p9984007c49)" style="fill: #2ca02c; opacity: 0.5; stroke: #000000; stroke-linejoin: miter"/>
   </g>
   <g id="patch_105">
    <path d="M 261.241512 441 
L 266.726663 441 
L 266.726663 129.988128 
L 261.241512 129.988128 
z
" clip-path="url(#p9984007c49)" style="fill: #2ca02c; opacity: 0.5; stroke: #000000; stroke-linejoin: miter"/>
   </g>
   <g id="patch_106">
    <path d="M 272.211814 441 
L 277.696964 441 
L 277.696964 240.191419 
L 272.211814 240.191419 
z
" clip-path="url(#p9984007c49)" style="fill: #2ca02c; opacity: 0.5; stroke: #000000; stroke-linejoin: miter"/>
   </g>
   <g id="patch_107">
    <path d="M 283.182115 441 
L 288.667266 441 
L 288.667266 220.562351 
L 283.182115 220.562351 
z
" clip-path="url(#p9984007c49)" style="fill: #2ca02c; opacity: 0.5; stroke: #000000; stroke-linejoin: miter"/>
   </g>
   <g id="patch_108">
    <path d="M 294.152417 441 
L 299.637567 441 
L 299.637567 216.508626 
L 294.152417 216.508626 
z
" clip-path="url(#p9984007c49)" style="fill: #2ca02c; opacity: 0.5; stroke: #000000; stroke-linejoin: miter"/>
   </g>
   <g id="patch_109">
    <path d="M 305.122718 441 
L 310.607869 441 
L 310.607869 293.766845 
L 305.122718 293.766845 
z
" clip-path="url(#p9984007c49)" style="fill: #2ca02c; opacity: 0.5; stroke: #000000; stroke-linejoin: miter"/>
   </g>
   <g id="patch_110">
    <path d="M 316.093019 441 
L 321.57817 441 
L 321.57817 330.94722 
L 316.093019 330.94722 
z
" clip-path="url(#p9984007c49)" style="fill: #2ca02c; opacity: 0.5; stroke: #000000; stroke-linejoin: miter"/>
   </g>
   <g id="patch_111">
    <path d="M 327.063321 441 
L 332.548471 441 
L 332.548471 326.40341 
L 327.063321 326.40341 
z
" clip-path="url(#p9984007c49)" style="fill: #2ca02c; opacity: 0.5; stroke: #000000; stroke-linejoin: miter"/>
   </g>
   <g id="patch_112">
    <path d="M 338.033622 441 
L 343.518773 441 
L 343.518773 300.691584 
L 338.033622 300.691584 
z
" clip-path="url(#p9984007c49)" style="fill: #2ca02c; opacity: 0.5; stroke: #000000; stroke-linejoin: miter"/>
   </g>
   <g id="patch_113">
    <path d="M 349.003923 441 
L 354.489074 441 
L 354.489074 335.371369 
L 349.003923 335.371369 
z
" clip-path="url(#p9984007c49)" style="fill: #2ca02c; opacity: 0.5; stroke: #000000; stroke-linejoin: miter"/>
   </g>
   <g id="patch_114">
    <path d="M 359.974225 441 
L 365.459375 441 
L 365.459375 345.0891 
L 359.974225 345.0891 
z
" clip-path="url(#p9984007c49)" style="fill: #2ca02c; opacity: 0.5; stroke: #000000; stroke-linejoin: miter"/>
   </g>
   <g id="patch_115">
    <path d="M 370.944526 441 
L 376.429677 441 
L 376.429677 317.766154 
L 370.944526 317.766154 
z
" clip-path="url(#p9984007c49)" style="fill: #2ca02c; opacity: 0.5; stroke: #000000; stroke-linejoin: miter"/>
   </g>
   <g id="patch_116">
    <path d="M 381.914827 441 
L 387.399978 441 
L 387.399978 353.930408 
L 381.914827 353.930408 
z
" clip-path="url(#p9984007c49)" style="fill: #2ca02c; opacity: 0.5; stroke: #000000; stroke-linejoin: miter"/>
   </g>
   <g id="patch_117">
    <path d="M 392.885129 441 
L 398.370279 441 
L 398.370279 356.870254 
L 392.885129 356.870254 
z
" clip-path="url(#p9984007c49)" style="fill: #2ca02c; opacity: 0.5; stroke: #000000; stroke-linejoin: miter"/>
   </g>
   <g id="patch_118">
    <path d="M 403.85543 441 
L 409.340581 441 
L 409.340581 349.960676 
L 403.85543 349.960676 
z
" clip-path="url(#p9984007c49)" style="fill: #2ca02c; opacity: 0.5; stroke: #000000; stroke-linejoin: miter"/>
   </g>
   <g id="patch_119">
    <path d="M 414.825732 441 
L 420.310882 441 
L 420.310882 349.925 
L 414.825732 349.925 
z
" clip-path="url(#p9984007c49)" style="fill: #2ca02c; opacity: 0.5; stroke: #000000; stroke-linejoin: miter"/>
   </g>
   <g id="patch_120">
    <path d="M 425.796033 441 
L 431.281184 441 
L 431.281184 357.365402 
L 425.796033 357.365402 
z
" clip-path="url(#p9984007c49)" style="fill: #2ca02c; opacity: 0.5; stroke: #000000; stroke-linejoin: miter"/>
   </g>
   <g id="patch_121">
    <path d="M 436.766334 441 
L 442.251485 441 
L 442.251485 345.36509 
L 436.766334 345.36509 
z
" clip-path="url(#p9984007c49)" style="fill: #2ca02c; opacity: 0.5; stroke: #000000; stroke-linejoin: miter"/>
   </g>
   <g id="patch_122">
    <path d="M 447.736636 441 
L 453.221786 441 
L 453.221786 404.290071 
L 447.736636 404.290071 
z
" clip-path="url(#p9984007c49)" style="fill: #2ca02c; opacity: 0.5; stroke: #000000; stroke-linejoin: miter"/>
   </g>
   <g id="patch_123">
    <path d="M 458.706937 441 
L 464.192088 441 
L 464.192088 408.54166 
L 458.706937 408.54166 
z
" clip-path="url(#p9984007c49)" style="fill: #2ca02c; opacity: 0.5; stroke: #000000; stroke-linejoin: miter"/>
   </g>
   <g id="patch_124">
    <path d="M 469.677238 441 
L 475.162389 441 
L 475.162389 401.870527 
L 469.677238 401.870527 
z
" clip-path="url(#p9984007c49)" style="fill: #2ca02c; opacity: 0.5; stroke: #000000; stroke-linejoin: miter"/>
   </g>
   <g id="patch_125">
    <path d="M 480.64754 441 
L 486.13269 441 
L 486.13269 408.380099 
L 480.64754 408.380099 
z
" clip-path="url(#p9984007c49)" style="fill: #2ca02c; opacity: 0.5; stroke: #000000; stroke-linejoin: miter"/>
   </g>
   <g id="patch_126">
    <path d="M 491.617841 441 
L 497.102992 441 
L 497.102992 397.25402 
L 491.617841 397.25402 
z
" clip-path="url(#p9984007c49)" style="fill: #2ca02c; opacity: 0.5; stroke: #000000; stroke-linejoin: miter"/>
   </g>
   <g id="patch_127">
    <path d="M 502.588142 441 
L 508.073293 441 
L 508.073293 425.824586 
L 502.588142 425.824586 
z
" clip-path="url(#p9984007c49)" style="fill: #2ca02c; opacity: 0.5; stroke: #000000; stroke-linejoin: miter"/>
   </g>
   <g id="patch_128">
    <path d="M 513.558444 441 
L 519.043594 441 
L 519.043594 415.448957 
L 513.558444 415.448957 
z
" clip-path="url(#p9984007c49)" style="fill: #2ca02c; opacity: 0.5; stroke: #000000; stroke-linejoin: miter"/>
   </g>
   <g id="patch_129">
    <path d="M 524.528745 441 
L 530.013896 441 
L 530.013896 391.144574 
L 524.528745 391.144574 
z
" clip-path="url(#p9984007c49)" style="fill: #2ca02c; opacity: 0.5; stroke: #000000; stroke-linejoin: miter"/>
   </g>
   <g id="patch_130">
    <path d="M 535.499047 441 
L 540.984197 441 
L 540.984197 434.471313 
L 535.499047 434.471313 
z
" clip-path="url(#p9984007c49)" style="fill: #2ca02c; opacity: 0.5; stroke: #000000; stroke-linejoin: miter"/>
   </g>
   <g id="patch_131">
    <path d="M 546.469348 441 
L 551.954499 441 
L 551.954499 378.610892 
L 546.469348 378.610892 
z
" clip-path="url(#p9984007c49)" style="fill: #2ca02c; opacity: 0.5; stroke: #000000; stroke-linejoin: miter"/>
   </g>
   <g id="patch_132">
    <path d="M 557.439649 441 
L 562.9248 441 
L 562.9248 387.600675 
L 557.439649 387.600675 
z
" clip-path="url(#p9984007c49)" style="fill: #2ca02c; opacity: 0.5; stroke: #000000; stroke-linejoin: miter"/>
   </g>
   <g id="patch_133">
    <path d="M 568.409951 441 
L 573.895101 441 
L 573.895101 441 
L 568.409951 441 
z
" clip-path="url(#p9984007c49)" style="fill: #2ca02c; opacity: 0.5; stroke: #000000; stroke-linejoin: miter"/>
   </g>
   <g id="patch_134">
    <path d="M 579.380252 441 
L 584.865403 441 
L 584.865403 383.603417 
L 579.380252 383.603417 
z
" clip-path="url(#p9984007c49)" style="fill: #2ca02c; opacity: 0.5; stroke: #000000; stroke-linejoin: miter"/>
   </g>
   <g id="patch_135">
    <path d="M 590.350553 441 
L 595.835704 441 
L 595.835704 431.91661 
L 590.350553 431.91661 
z
" clip-path="url(#p9984007c49)" style="fill: #2ca02c; opacity: 0.5; stroke: #000000; stroke-linejoin: miter"/>
   </g>
   <g id="patch_136">
    <path d="M 601.320855 441 
L 606.806005 441 
L 606.806005 441 
L 601.320855 441 
z
" clip-path="url(#p9984007c49)" style="fill: #2ca02c; opacity: 0.5; stroke: #000000; stroke-linejoin: miter"/>
   </g>
   <g id="patch_137">
    <path d="M 612.291156 441 
L 617.776307 441 
L 617.776307 441 
L 612.291156 441 
z
" clip-path="url(#p9984007c49)" style="fill: #2ca02c; opacity: 0.5; stroke: #000000; stroke-linejoin: miter"/>
   </g>
   <g id="patch_138">
    <path d="M 623.261457 441 
L 628.746608 441 
L 628.746608 414.885253 
L 623.261457 414.885253 
z
" clip-path="url(#p9984007c49)" style="fill: #2ca02c; opacity: 0.5; stroke: #000000; stroke-linejoin: miter"/>
   </g>
   <g id="patch_139">
    <path d="M 634.231759 441 
L 639.716909 441 
L 639.716909 441 
L 634.231759 441 
z
" clip-path="url(#p9984007c49)" style="fill: #2ca02c; opacity: 0.5; stroke: #000000; stroke-linejoin: miter"/>
   </g>
   <g id="patch_140">
    <path d="M 645.20206 441 
L 650.687211 441 
L 650.687211 414.885253 
L 645.20206 414.885253 
z
" clip-path="url(#p9984007c49)" style="fill: #2ca02c; opacity: 0.5; stroke: #000000; stroke-linejoin: miter"/>
   </g>
   <g id="matplotlib.axis_1">
    <g id="xtick_1">
     <g id="line2d_1">
      <path d="M 184.997918 441 
L 184.997918 60.48 
" clip-path="url(#p9984007c49)" style="fill: none; stroke: #b0b0b0; stroke-width: 0.8; stroke-linecap: square"/>
     </g>
     <g id="line2d_2">
      <defs>
       <path id="m8c1ca9ca91" d="M 0 0 
L 0 3.5 
" style="stroke: #000000; stroke-width: 0.8"/>
      </defs>
      <g>
       <use xlink:href="#m8c1ca9ca91" x="184.997918" y="441" style="stroke: #000000; stroke-width: 0.8"/>
      </g>
     </g>
     <g id="text_1">
      <!-- 0 -->
      <g transform="translate(181.816668 455.598437)scale(0.1 -0.1)">
       <defs>
        <path id="DejaVuSans-30" d="M 2034 4250 
Q 1547 4250 1301 3770 
Q 1056 3291 1056 2328 
Q 1056 1369 1301 889 
Q 1547 409 2034 409 
Q 2525 409 2770 889 
Q 3016 1369 3016 2328 
Q 3016 3291 2770 3770 
Q 2525 4250 2034 4250 
z
M 2034 4750 
Q 2819 4750 3233 4129 
Q 3647 3509 3647 2328 
Q 3647 1150 3233 529 
Q 2819 -91 2034 -91 
Q 1250 -91 836 529 
Q 422 1150 422 2328 
Q 422 3509 836 4129 
Q 1250 4750 2034 4750 
z
" transform="scale(0.015625)"/>
       </defs>
       <use xlink:href="#DejaVuSans-30"/>
      </g>
     </g>
    </g>
    <g id="xtick_2">
     <g id="line2d_3">
      <path d="M 294.700932 441 
L 294.700932 60.48 
" clip-path="url(#p9984007c49)" style="fill: none; stroke: #b0b0b0; stroke-width: 0.8; stroke-linecap: square"/>
     </g>
     <g id="line2d_4">
      <g>
       <use xlink:href="#m8c1ca9ca91" x="294.700932" y="441" style="stroke: #000000; stroke-width: 0.8"/>
      </g>
     </g>
     <g id="text_2">
      <!-- 10 -->
      <g transform="translate(288.338432 455.598437)scale(0.1 -0.1)">
       <defs>
        <path id="DejaVuSans-31" d="M 794 531 
L 1825 531 
L 1825 4091 
L 703 3866 
L 703 4441 
L 1819 4666 
L 2450 4666 
L 2450 531 
L 3481 531 
L 3481 0 
L 794 0 
L 794 531 
z
" transform="scale(0.015625)"/>
       </defs>
       <use xlink:href="#DejaVuSans-31"/>
       <use xlink:href="#DejaVuSans-30" x="63.623047"/>
      </g>
     </g>
    </g>
    <g id="xtick_3">
     <g id="line2d_5">
      <path d="M 404.403945 441 
L 404.403945 60.48 
" clip-path="url(#p9984007c49)" style="fill: none; stroke: #b0b0b0; stroke-width: 0.8; stroke-linecap: square"/>
     </g>
     <g id="line2d_6">
      <g>
       <use xlink:href="#m8c1ca9ca91" x="404.403945" y="441" style="stroke: #000000; stroke-width: 0.8"/>
      </g>
     </g>
     <g id="text_3">
      <!-- 20 -->
      <g transform="translate(398.041445 455.598437)scale(0.1 -0.1)">
       <defs>
        <path id="DejaVuSans-32" d="M 1228 531 
L 3431 531 
L 3431 0 
L 469 0 
L 469 531 
Q 828 903 1448 1529 
Q 2069 2156 2228 2338 
Q 2531 2678 2651 2914 
Q 2772 3150 2772 3378 
Q 2772 3750 2511 3984 
Q 2250 4219 1831 4219 
Q 1534 4219 1204 4116 
Q 875 4013 500 3803 
L 500 4441 
Q 881 4594 1212 4672 
Q 1544 4750 1819 4750 
Q 2544 4750 2975 4387 
Q 3406 4025 3406 3419 
Q 3406 3131 3298 2873 
Q 3191 2616 2906 2266 
Q 2828 2175 2409 1742 
Q 1991 1309 1228 531 
z
" transform="scale(0.015625)"/>
       </defs>
       <use xlink:href="#DejaVuSans-32"/>
       <use xlink:href="#DejaVuSans-30" x="63.623047"/>
      </g>
     </g>
    </g>
    <g id="xtick_4">
     <g id="line2d_7">
      <path d="M 514.106959 441 
L 514.106959 60.48 
" clip-path="url(#p9984007c49)" style="fill: none; stroke: #b0b0b0; stroke-width: 0.8; stroke-linecap: square"/>
     </g>
     <g id="line2d_8">
      <g>
       <use xlink:href="#m8c1ca9ca91" x="514.106959" y="441" style="stroke: #000000; stroke-width: 0.8"/>
      </g>
     </g>
     <g id="text_4">
      <!-- 30 -->
      <g transform="translate(507.744459 455.598437)scale(0.1 -0.1)">
       <defs>
        <path id="DejaVuSans-33" d="M 2597 2516 
Q 3050 2419 3304 2112 
Q 3559 1806 3559 1356 
Q 3559 666 3084 287 
Q 2609 -91 1734 -91 
Q 1441 -91 1130 -33 
Q 819 25 488 141 
L 488 750 
Q 750 597 1062 519 
Q 1375 441 1716 441 
Q 2309 441 2620 675 
Q 2931 909 2931 1356 
Q 2931 1769 2642 2001 
Q 2353 2234 1838 2234 
L 1294 2234 
L 1294 2753 
L 1863 2753 
Q 2328 2753 2575 2939 
Q 2822 3125 2822 3475 
Q 2822 3834 2567 4026 
Q 2313 4219 1838 4219 
Q 1578 4219 1281 4162 
Q 984 4106 628 3988 
L 628 4550 
Q 988 4650 1302 4700 
Q 1616 4750 1894 4750 
Q 2613 4750 3031 4423 
Q 3450 4097 3450 3541 
Q 3450 3153 3228 2886 
Q 3006 2619 2597 2516 
z
" transform="scale(0.015625)"/>
       </defs>
       <use xlink:href="#DejaVuSans-33"/>
       <use xlink:href="#DejaVuSans-30" x="63.623047"/>
      </g>
     </g>
    </g>
    <g id="xtick_5">
     <g id="line2d_9">
      <path d="M 623.809972 441 
L 623.809972 60.48 
" clip-path="url(#p9984007c49)" style="fill: none; stroke: #b0b0b0; stroke-width: 0.8; stroke-linecap: square"/>
     </g>
     <g id="line2d_10">
      <g>
       <use xlink:href="#m8c1ca9ca91" x="623.809972" y="441" style="stroke: #000000; stroke-width: 0.8"/>
      </g>
     </g>
     <g id="text_5">
      <!-- 40 -->
      <g transform="translate(617.447472 455.598437)scale(0.1 -0.1)">
       <defs>
        <path id="DejaVuSans-34" d="M 2419 4116 
L 825 1625 
L 2419 1625 
L 2419 4116 
z
M 2253 4666 
L 3047 4666 
L 3047 1625 
L 3713 1625 
L 3713 1100 
L 3047 1100 
L 3047 0 
L 2419 0 
L 2419 1100 
L 313 1100 
L 313 1709 
L 2253 4666 
z
" transform="scale(0.015625)"/>
       </defs>
       <use xlink:href="#DejaVuSans-34"/>
       <use xlink:href="#DejaVuSans-30" x="63.623047"/>
      </g>
     </g>
    </g>
    <g id="xtick_6">
     <g id="line2d_11">
      <path d="M 733.512986 441 
L 733.512986 60.48 
" clip-path="url(#p9984007c49)" style="fill: none; stroke: #b0b0b0; stroke-width: 0.8; stroke-linecap: square"/>
     </g>
     <g id="line2d_12">
      <g>
       <use xlink:href="#m8c1ca9ca91" x="733.512986" y="441" style="stroke: #000000; stroke-width: 0.8"/>
      </g>
     </g>
     <g id="text_6">
      <!-- 50 -->
      <g transform="translate(727.150486 455.598437)scale(0.1 -0.1)">
       <defs>
        <path id="DejaVuSans-35" d="M 691 4666 
L 3169 4666 
L 3169 4134 
L 1269 4134 
L 1269 2991 
Q 1406 3038 1543 3061 
Q 1681 3084 1819 3084 
Q 2600 3084 3056 2656 
Q 3513 2228 3513 1497 
Q 3513 744 3044 326 
Q 2575 -91 1722 -91 
Q 1428 -91 1123 -41 
Q 819 9 494 109 
L 494 744 
Q 775 591 1075 516 
Q 1375 441 1709 441 
Q 2250 441 2565 725 
Q 2881 1009 2881 1497 
Q 2881 1984 2565 2268 
Q 2250 2553 1709 2553 
Q 1456 2553 1204 2497 
Q 953 2441 691 2322 
L 691 4666 
z
" transform="scale(0.015625)"/>
       </defs>
       <use xlink:href="#DejaVuSans-35"/>
       <use xlink:href="#DejaVuSans-30" x="63.623047"/>
      </g>
     </g>
    </g>
    <g id="text_7">
     <!-- Block_Pellet_Count -->
     <g transform="translate(395.703125 469.276563)scale(0.1 -0.1)">
      <defs>
       <path id="DejaVuSans-42" d="M 1259 2228 
L 1259 519 
L 2272 519 
Q 2781 519 3026 730 
Q 3272 941 3272 1375 
Q 3272 1813 3026 2020 
Q 2781 2228 2272 2228 
L 1259 2228 
z
M 1259 4147 
L 1259 2741 
L 2194 2741 
Q 2656 2741 2882 2914 
Q 3109 3088 3109 3444 
Q 3109 3797 2882 3972 
Q 2656 4147 2194 4147 
L 1259 4147 
z
M 628 4666 
L 2241 4666 
Q 2963 4666 3353 4366 
Q 3744 4066 3744 3513 
Q 3744 3084 3544 2831 
Q 3344 2578 2956 2516 
Q 3422 2416 3680 2098 
Q 3938 1781 3938 1306 
Q 3938 681 3513 340 
Q 3088 0 2303 0 
L 628 0 
L 628 4666 
z
" transform="scale(0.015625)"/>
       <path id="DejaVuSans-6c" d="M 603 4863 
L 1178 4863 
L 1178 0 
L 603 0 
L 603 4863 
z
" transform="scale(0.015625)"/>
       <path id="DejaVuSans-6f" d="M 1959 3097 
Q 1497 3097 1228 2736 
Q 959 2375 959 1747 
Q 959 1119 1226 758 
Q 1494 397 1959 397 
Q 2419 397 2687 759 
Q 2956 1122 2956 1747 
Q 2956 2369 2687 2733 
Q 2419 3097 1959 3097 
z
M 1959 3584 
Q 2709 3584 3137 3096 
Q 3566 2609 3566 1747 
Q 3566 888 3137 398 
Q 2709 -91 1959 -91 
Q 1206 -91 779 398 
Q 353 888 353 1747 
Q 353 2609 779 3096 
Q 1206 3584 1959 3584 
z
" transform="scale(0.015625)"/>
       <path id="DejaVuSans-63" d="M 3122 3366 
L 3122 2828 
Q 2878 2963 2633 3030 
Q 2388 3097 2138 3097 
Q 1578 3097 1268 2742 
Q 959 2388 959 1747 
Q 959 1106 1268 751 
Q 1578 397 2138 397 
Q 2388 397 2633 464 
Q 2878 531 3122 666 
L 3122 134 
Q 2881 22 2623 -34 
Q 2366 -91 2075 -91 
Q 1284 -91 818 406 
Q 353 903 353 1747 
Q 353 2603 823 3093 
Q 1294 3584 2113 3584 
Q 2378 3584 2631 3529 
Q 2884 3475 3122 3366 
z
" transform="scale(0.015625)"/>
       <path id="DejaVuSans-6b" d="M 581 4863 
L 1159 4863 
L 1159 1991 
L 2875 3500 
L 3609 3500 
L 1753 1863 
L 3688 0 
L 2938 0 
L 1159 1709 
L 1159 0 
L 581 0 
L 581 4863 
z
" transform="scale(0.015625)"/>
       <path id="DejaVuSans-5f" d="M 3263 -1063 
L 3263 -1509 
L -63 -1509 
L -63 -1063 
L 3263 -1063 
z
" transform="scale(0.015625)"/>
       <path id="DejaVuSans-50" d="M 1259 4147 
L 1259 2394 
L 2053 2394 
Q 2494 2394 2734 2622 
Q 2975 2850 2975 3272 
Q 2975 3691 2734 3919 
Q 2494 4147 2053 4147 
L 1259 4147 
z
M 628 4666 
L 2053 4666 
Q 2838 4666 3239 4311 
Q 3641 3956 3641 3272 
Q 3641 2581 3239 2228 
Q 2838 1875 2053 1875 
L 1259 1875 
L 1259 0 
L 628 0 
L 628 4666 
z
" transform="scale(0.015625)"/>
       <path id="DejaVuSans-65" d="M 3597 1894 
L 3597 1613 
L 953 1613 
Q 991 1019 1311 708 
Q 1631 397 2203 397 
Q 2534 397 2845 478 
Q 3156 559 3463 722 
L 3463 178 
Q 3153 47 2828 -22 
Q 2503 -91 2169 -91 
Q 1331 -91 842 396 
Q 353 884 353 1716 
Q 353 2575 817 3079 
Q 1281 3584 2069 3584 
Q 2775 3584 3186 3129 
Q 3597 2675 3597 1894 
z
M 3022 2063 
Q 3016 2534 2758 2815 
Q 2500 3097 2075 3097 
Q 1594 3097 1305 2825 
Q 1016 2553 972 2059 
L 3022 2063 
z
" transform="scale(0.015625)"/>
       <path id="DejaVuSans-74" d="M 1172 4494 
L 1172 3500 
L 2356 3500 
L 2356 3053 
L 1172 3053 
L 1172 1153 
Q 1172 725 1289 603 
Q 1406 481 1766 481 
L 2356 481 
L 2356 0 
L 1766 0 
Q 1100 0 847 248 
Q 594 497 594 1153 
L 594 3053 
L 172 3053 
L 172 3500 
L 594 3500 
L 594 4494 
L 1172 4494 
z
" transform="scale(0.015625)"/>
       <path id="DejaVuSans-43" d="M 4122 4306 
L 4122 3641 
Q 3803 3938 3442 4084 
Q 3081 4231 2675 4231 
Q 1875 4231 1450 3742 
Q 1025 3253 1025 2328 
Q 1025 1406 1450 917 
Q 1875 428 2675 428 
Q 3081 428 3442 575 
Q 3803 722 4122 1019 
L 4122 359 
Q 3791 134 3420 21 
Q 3050 -91 2638 -91 
Q 1578 -91 968 557 
Q 359 1206 359 2328 
Q 359 3453 968 4101 
Q 1578 4750 2638 4750 
Q 3056 4750 3426 4639 
Q 3797 4528 4122 4306 
z
" transform="scale(0.015625)"/>
       <path id="DejaVuSans-75" d="M 544 1381 
L 544 3500 
L 1119 3500 
L 1119 1403 
Q 1119 906 1312 657 
Q 1506 409 1894 409 
Q 2359 409 2629 706 
Q 2900 1003 2900 1516 
L 2900 3500 
L 3475 3500 
L 3475 0 
L 2900 0 
L 2900 538 
Q 2691 219 2414 64 
Q 2138 -91 1772 -91 
Q 1169 -91 856 284 
Q 544 659 544 1381 
z
M 1991 3584 
L 1991 3584 
z
" transform="scale(0.015625)"/>
       <path id="DejaVuSans-6e" d="M 3513 2113 
L 3513 0 
L 2938 0 
L 2938 2094 
Q 2938 2591 2744 2837 
Q 2550 3084 2163 3084 
Q 1697 3084 1428 2787 
Q 1159 2491 1159 1978 
L 1159 0 
L 581 0 
L 581 3500 
L 1159 3500 
L 1159 2956 
Q 1366 3272 1645 3428 
Q 1925 3584 2291 3584 
Q 2894 3584 3203 3211 
Q 3513 2838 3513 2113 
z
" transform="scale(0.015625)"/>
      </defs>
      <use xlink:href="#DejaVuSans-42"/>
      <use xlink:href="#DejaVuSans-6c" x="68.603516"/>
      <use xlink:href="#DejaVuSans-6f" x="96.386719"/>
      <use xlink:href="#DejaVuSans-63" x="157.568359"/>
      <use xlink:href="#DejaVuSans-6b" x="212.548828"/>
      <use xlink:href="#DejaVuSans-5f" x="270.458984"/>
      <use xlink:href="#DejaVuSans-50" x="320.458984"/>
      <use xlink:href="#DejaVuSans-65" x="377.136719"/>
      <use xlink:href="#DejaVuSans-6c" x="438.660156"/>
      <use xlink:href="#DejaVuSans-6c" x="466.443359"/>
      <use xlink:href="#DejaVuSans-65" x="494.226562"/>
      <use xlink:href="#DejaVuSans-74" x="555.75"/>
      <use xlink:href="#DejaVuSans-5f" x="594.958984"/>
      <use xlink:href="#DejaVuSans-43" x="644.958984"/>
      <use xlink:href="#DejaVuSans-6f" x="714.783203"/>
      <use xlink:href="#DejaVuSans-75" x="775.964844"/>
      <use xlink:href="#DejaVuSans-6e" x="839.34375"/>
      <use xlink:href="#DejaVuSans-74" x="902.722656"/>
     </g>
    </g>
   </g>
   <g id="matplotlib.axis_2">
    <g id="ytick_1">
     <g id="line2d_13">
      <path d="M 108 441 
L 777.6 441 
" clip-path="url(#p9984007c49)" style="fill: none; stroke: #b0b0b0; stroke-width: 0.8; stroke-linecap: square"/>
     </g>
     <g id="line2d_14">
      <defs>
       <path id="m70f2992e01" d="M 0 0 
L -3.5 0 
" style="stroke: #000000; stroke-width: 0.8"/>
      </defs>
      <g>
       <use xlink:href="#m70f2992e01" x="108" y="441" style="stroke: #000000; stroke-width: 0.8"/>
      </g>
     </g>
     <g id="text_8">
      <!-- 0.00 -->
      <g transform="translate(78.734375 444.799219)scale(0.1 -0.1)">
       <defs>
        <path id="DejaVuSans-2e" d="M 684 794 
L 1344 794 
L 1344 0 
L 684 0 
L 684 794 
z
" transform="scale(0.015625)"/>
       </defs>
       <use xlink:href="#DejaVuSans-30"/>
       <use xlink:href="#DejaVuSans-2e" x="63.623047"/>
       <use xlink:href="#DejaVuSans-30" x="95.410156"/>
       <use xlink:href="#DejaVuSans-30" x="159.033203"/>
      </g>
     </g>
    </g>
    <g id="ytick_2">
     <g id="line2d_15">
      <path d="M 108 365.789529 
L 777.6 365.789529 
" clip-path="url(#p9984007c49)" style="fill: none; stroke: #b0b0b0; stroke-width: 0.8; stroke-linecap: square"/>
     </g>
     <g id="line2d_16">
      <g>
       <use xlink:href="#m70f2992e01" x="108" y="365.789529" style="stroke: #000000; stroke-width: 0.8"/>
      </g>
     </g>
     <g id="text_9">
      <!-- 0.02 -->
      <g transform="translate(78.734375 369.588747)scale(0.1 -0.1)">
       <use xlink:href="#DejaVuSans-30"/>
       <use xlink:href="#DejaVuSans-2e" x="63.623047"/>
       <use xlink:href="#DejaVuSans-30" x="95.410156"/>
       <use xlink:href="#DejaVuSans-32" x="159.033203"/>
      </g>
     </g>
    </g>
    <g id="ytick_3">
     <g id="line2d_17">
      <path d="M 108 290.579057 
L 777.6 290.579057 
" clip-path="url(#p9984007c49)" style="fill: none; stroke: #b0b0b0; stroke-width: 0.8; stroke-linecap: square"/>
     </g>
     <g id="line2d_18">
      <g>
       <use xlink:href="#m70f2992e01" x="108" y="290.579057" style="stroke: #000000; stroke-width: 0.8"/>
      </g>
     </g>
     <g id="text_10">
      <!-- 0.04 -->
      <g transform="translate(78.734375 294.378276)scale(0.1 -0.1)">
       <use xlink:href="#DejaVuSans-30"/>
       <use xlink:href="#DejaVuSans-2e" x="63.623047"/>
       <use xlink:href="#DejaVuSans-30" x="95.410156"/>
       <use xlink:href="#DejaVuSans-34" x="159.033203"/>
      </g>
     </g>
    </g>
    <g id="ytick_4">
     <g id="line2d_19">
      <path d="M 108 215.368586 
L 777.6 215.368586 
" clip-path="url(#p9984007c49)" style="fill: none; stroke: #b0b0b0; stroke-width: 0.8; stroke-linecap: square"/>
     </g>
     <g id="line2d_20">
      <g>
       <use xlink:href="#m70f2992e01" x="108" y="215.368586" style="stroke: #000000; stroke-width: 0.8"/>
      </g>
     </g>
     <g id="text_11">
      <!-- 0.06 -->
      <g transform="translate(78.734375 219.167804)scale(0.1 -0.1)">
       <defs>
        <path id="DejaVuSans-36" d="M 2113 2584 
Q 1688 2584 1439 2293 
Q 1191 2003 1191 1497 
Q 1191 994 1439 701 
Q 1688 409 2113 409 
Q 2538 409 2786 701 
Q 3034 994 3034 1497 
Q 3034 2003 2786 2293 
Q 2538 2584 2113 2584 
z
M 3366 4563 
L 3366 3988 
Q 3128 4100 2886 4159 
Q 2644 4219 2406 4219 
Q 1781 4219 1451 3797 
Q 1122 3375 1075 2522 
Q 1259 2794 1537 2939 
Q 1816 3084 2150 3084 
Q 2853 3084 3261 2657 
Q 3669 2231 3669 1497 
Q 3669 778 3244 343 
Q 2819 -91 2113 -91 
Q 1303 -91 875 529 
Q 447 1150 447 2328 
Q 447 3434 972 4092 
Q 1497 4750 2381 4750 
Q 2619 4750 2861 4703 
Q 3103 4656 3366 4563 
z
" transform="scale(0.015625)"/>
       </defs>
       <use xlink:href="#DejaVuSans-30"/>
       <use xlink:href="#DejaVuSans-2e" x="63.623047"/>
       <use xlink:href="#DejaVuSans-30" x="95.410156"/>
       <use xlink:href="#DejaVuSans-36" x="159.033203"/>
      </g>
     </g>
    </g>
    <g id="ytick_5">
     <g id="line2d_21">
      <path d="M 108 140.158114 
L 777.6 140.158114 
" clip-path="url(#p9984007c49)" style="fill: none; stroke: #b0b0b0; stroke-width: 0.8; stroke-linecap: square"/>
     </g>
     <g id="line2d_22">
      <g>
       <use xlink:href="#m70f2992e01" x="108" y="140.158114" style="stroke: #000000; stroke-width: 0.8"/>
      </g>
     </g>
     <g id="text_12">
      <!-- 0.08 -->
      <g transform="translate(78.734375 143.957333)scale(0.1 -0.1)">
       <defs>
        <path id="DejaVuSans-38" d="M 2034 2216 
Q 1584 2216 1326 1975 
Q 1069 1734 1069 1313 
Q 1069 891 1326 650 
Q 1584 409 2034 409 
Q 2484 409 2743 651 
Q 3003 894 3003 1313 
Q 3003 1734 2745 1975 
Q 2488 2216 2034 2216 
z
M 1403 2484 
Q 997 2584 770 2862 
Q 544 3141 544 3541 
Q 544 4100 942 4425 
Q 1341 4750 2034 4750 
Q 2731 4750 3128 4425 
Q 3525 4100 3525 3541 
Q 3525 3141 3298 2862 
Q 3072 2584 2669 2484 
Q 3125 2378 3379 2068 
Q 3634 1759 3634 1313 
Q 3634 634 3220 271 
Q 2806 -91 2034 -91 
Q 1263 -91 848 271 
Q 434 634 434 1313 
Q 434 1759 690 2068 
Q 947 2378 1403 2484 
z
M 1172 3481 
Q 1172 3119 1398 2916 
Q 1625 2713 2034 2713 
Q 2441 2713 2670 2916 
Q 2900 3119 2900 3481 
Q 2900 3844 2670 4047 
Q 2441 4250 2034 4250 
Q 1625 4250 1398 4047 
Q 1172 3844 1172 3481 
z
" transform="scale(0.015625)"/>
       </defs>
       <use xlink:href="#DejaVuSans-30"/>
       <use xlink:href="#DejaVuSans-2e" x="63.623047"/>
       <use xlink:href="#DejaVuSans-30" x="95.410156"/>
       <use xlink:href="#DejaVuSans-38" x="159.033203"/>
      </g>
     </g>
    </g>
    <g id="ytick_6">
     <g id="line2d_23">
      <path d="M 108 64.947643 
L 777.6 64.947643 
" clip-path="url(#p9984007c49)" style="fill: none; stroke: #b0b0b0; stroke-width: 0.8; stroke-linecap: square"/>
     </g>
     <g id="line2d_24">
      <g>
       <use xlink:href="#m70f2992e01" x="108" y="64.947643" style="stroke: #000000; stroke-width: 0.8"/>
      </g>
     </g>
     <g id="text_13">
      <!-- 0.10 -->
      <g transform="translate(78.734375 68.746862)scale(0.1 -0.1)">
       <use xlink:href="#DejaVuSans-30"/>
       <use xlink:href="#DejaVuSans-2e" x="63.623047"/>
       <use xlink:href="#DejaVuSans-31" x="95.410156"/>
       <use xlink:href="#DejaVuSans-30" x="159.033203"/>
      </g>
     </g>
    </g>
    <g id="text_14">
     <!-- Average Frequency -->
     <g transform="translate(72.654687 298.691563)rotate(-90)scale(0.1 -0.1)">
      <defs>
       <path id="DejaVuSans-41" d="M 2188 4044 
L 1331 1722 
L 3047 1722 
L 2188 4044 
z
M 1831 4666 
L 2547 4666 
L 4325 0 
L 3669 0 
L 3244 1197 
L 1141 1197 
L 716 0 
L 50 0 
L 1831 4666 
z
" transform="scale(0.015625)"/>
       <path id="DejaVuSans-76" d="M 191 3500 
L 800 3500 
L 1894 563 
L 2988 3500 
L 3597 3500 
L 2284 0 
L 1503 0 
L 191 3500 
z
" transform="scale(0.015625)"/>
       <path id="DejaVuSans-72" d="M 2631 2963 
Q 2534 3019 2420 3045 
Q 2306 3072 2169 3072 
Q 1681 3072 1420 2755 
Q 1159 2438 1159 1844 
L 1159 0 
L 581 0 
L 581 3500 
L 1159 3500 
L 1159 2956 
Q 1341 3275 1631 3429 
Q 1922 3584 2338 3584 
Q 2397 3584 2469 3576 
Q 2541 3569 2628 3553 
L 2631 2963 
z
" transform="scale(0.015625)"/>
       <path id="DejaVuSans-61" d="M 2194 1759 
Q 1497 1759 1228 1600 
Q 959 1441 959 1056 
Q 959 750 1161 570 
Q 1363 391 1709 391 
Q 2188 391 2477 730 
Q 2766 1069 2766 1631 
L 2766 1759 
L 2194 1759 
z
M 3341 1997 
L 3341 0 
L 2766 0 
L 2766 531 
Q 2569 213 2275 61 
Q 1981 -91 1556 -91 
Q 1019 -91 701 211 
Q 384 513 384 1019 
Q 384 1609 779 1909 
Q 1175 2209 1959 2209 
L 2766 2209 
L 2766 2266 
Q 2766 2663 2505 2880 
Q 2244 3097 1772 3097 
Q 1472 3097 1187 3025 
Q 903 2953 641 2809 
L 641 3341 
Q 956 3463 1253 3523 
Q 1550 3584 1831 3584 
Q 2591 3584 2966 3190 
Q 3341 2797 3341 1997 
z
" transform="scale(0.015625)"/>
       <path id="DejaVuSans-67" d="M 2906 1791 
Q 2906 2416 2648 2759 
Q 2391 3103 1925 3103 
Q 1463 3103 1205 2759 
Q 947 2416 947 1791 
Q 947 1169 1205 825 
Q 1463 481 1925 481 
Q 2391 481 2648 825 
Q 2906 1169 2906 1791 
z
M 3481 434 
Q 3481 -459 3084 -895 
Q 2688 -1331 1869 -1331 
Q 1566 -1331 1297 -1286 
Q 1028 -1241 775 -1147 
L 775 -588 
Q 1028 -725 1275 -790 
Q 1522 -856 1778 -856 
Q 2344 -856 2625 -561 
Q 2906 -266 2906 331 
L 2906 616 
Q 2728 306 2450 153 
Q 2172 0 1784 0 
Q 1141 0 747 490 
Q 353 981 353 1791 
Q 353 2603 747 3093 
Q 1141 3584 1784 3584 
Q 2172 3584 2450 3431 
Q 2728 3278 2906 2969 
L 2906 3500 
L 3481 3500 
L 3481 434 
z
" transform="scale(0.015625)"/>
       <path id="DejaVuSans-20" transform="scale(0.015625)"/>
       <path id="DejaVuSans-46" d="M 628 4666 
L 3309 4666 
L 3309 4134 
L 1259 4134 
L 1259 2759 
L 3109 2759 
L 3109 2228 
L 1259 2228 
L 1259 0 
L 628 0 
L 628 4666 
z
" transform="scale(0.015625)"/>
       <path id="DejaVuSans-71" d="M 947 1747 
Q 947 1113 1208 752 
Q 1469 391 1925 391 
Q 2381 391 2643 752 
Q 2906 1113 2906 1747 
Q 2906 2381 2643 2742 
Q 2381 3103 1925 3103 
Q 1469 3103 1208 2742 
Q 947 2381 947 1747 
z
M 2906 525 
Q 2725 213 2448 61 
Q 2172 -91 1784 -91 
Q 1150 -91 751 415 
Q 353 922 353 1747 
Q 353 2572 751 3078 
Q 1150 3584 1784 3584 
Q 2172 3584 2448 3432 
Q 2725 3281 2906 2969 
L 2906 3500 
L 3481 3500 
L 3481 -1331 
L 2906 -1331 
L 2906 525 
z
" transform="scale(0.015625)"/>
       <path id="DejaVuSans-79" d="M 2059 -325 
Q 1816 -950 1584 -1140 
Q 1353 -1331 966 -1331 
L 506 -1331 
L 506 -850 
L 844 -850 
Q 1081 -850 1212 -737 
Q 1344 -625 1503 -206 
L 1606 56 
L 191 3500 
L 800 3500 
L 1894 763 
L 2988 3500 
L 3597 3500 
L 2059 -325 
z
" transform="scale(0.015625)"/>
      </defs>
      <use xlink:href="#DejaVuSans-41"/>
      <use xlink:href="#DejaVuSans-76" x="62.533203"/>
      <use xlink:href="#DejaVuSans-65" x="121.712891"/>
      <use xlink:href="#DejaVuSans-72" x="183.236328"/>
      <use xlink:href="#DejaVuSans-61" x="224.349609"/>
      <use xlink:href="#DejaVuSans-67" x="285.628906"/>
      <use xlink:href="#DejaVuSans-65" x="349.105469"/>
      <use xlink:href="#DejaVuSans-20" x="410.628906"/>
      <use xlink:href="#DejaVuSans-46" x="442.416016"/>
      <use xlink:href="#DejaVuSans-72" x="492.685547"/>
      <use xlink:href="#DejaVuSans-65" x="531.548828"/>
      <use xlink:href="#DejaVuSans-71" x="593.072266"/>
      <use xlink:href="#DejaVuSans-75" x="656.548828"/>
      <use xlink:href="#DejaVuSans-65" x="719.927734"/>
      <use xlink:href="#DejaVuSans-6e" x="781.451172"/>
      <use xlink:href="#DejaVuSans-63" x="844.830078"/>
      <use xlink:href="#DejaVuSans-79" x="899.810547"/>
     </g>
    </g>
   </g>
   <g id="line2d_25">
    <path d="M 157.492498 439.788564 
L 160.304783 438.095926 
L 163.117068 434.660203 
L 165.929353 428.393265 
L 168.741638 418.158065 
L 171.553923 403.271063 
L 174.366207 384.149866 
L 177.178492 362.77451 
L 179.990777 342.558221 
L 182.803062 327.447681 
L 185.615347 320.537018 
L 188.427632 322.869435 
L 191.239917 333.074822 
L 194.052202 348.014211 
L 196.864487 364.017061 
L 199.676772 378.034595 
L 202.489057 388.228332 
L 205.301342 393.936694 
L 208.113627 395.277303 
L 210.925912 392.695386 
L 213.738197 386.64148 
L 216.550482 377.416433 
L 219.362767 365.148913 
L 222.175051 349.862715 
L 224.987336 331.603579 
L 227.799621 310.596456 
L 230.611906 287.383715 
L 239.048761 214.335182 
L 241.861046 192.027149 
L 244.673331 171.347126 
L 247.485616 152.008268 
L 250.297901 133.723157 
L 253.110186 116.618698 
L 255.922471 101.430977 
L 258.734756 89.343035 
L 261.547041 81.521612 
L 264.359326 78.6 
L 267.17161 80.410124 
L 269.983895 86.113931 
L 272.79618 94.62386 
L 275.608465 105.039056 
L 278.42075 116.858898 
L 281.233035 129.897495 
L 284.04532 143.992789 
L 289.66989 173.269767 
L 292.482175 186.724225 
L 295.29446 198.382495 
L 298.106745 208.139284 
L 300.91903 216.555079 
L 303.731315 224.608781 
L 306.5436 233.256071 
L 309.355885 243.029908 
L 312.16817 253.880479 
L 317.792739 276.57746 
L 320.605024 287.11886 
L 323.417309 296.552273 
L 326.229594 304.786376 
L 329.041879 311.960166 
L 331.854164 318.361076 
L 337.478734 330.141454 
L 343.103304 341.671417 
L 345.915589 347.12322 
L 348.727874 352.04146 
L 351.540159 356.25444 
L 354.352444 359.756708 
L 357.164729 362.709317 
L 365.601583 370.719921 
L 376.850723 382.266533 
L 379.663008 384.505204 
L 382.475293 386.183571 
L 385.287578 387.323187 
L 388.099863 388.081276 
L 393.724433 389.369694 
L 396.536718 390.213375 
L 402.161288 392.136234 
L 404.973573 392.941406 
L 407.785857 393.551226 
L 413.410427 394.602682 
L 416.222712 395.415374 
L 419.034997 396.624226 
L 421.847282 398.271722 
L 424.659567 400.30288 
L 433.096422 407.22366 
L 435.908707 409.199489 
L 438.720992 410.735693 
L 441.533277 411.728302 
L 444.345562 412.129772 
L 447.157847 411.952446 
L 449.970132 411.269189 
L 452.782416 410.209429 
L 458.406986 407.669418 
L 461.219271 406.561649 
L 464.031556 405.769178 
L 466.843841 405.389254 
L 469.656126 405.460257 
L 472.468411 405.955686 
L 475.280696 406.786138 
L 483.717551 409.864673 
L 486.529836 410.636838 
L 489.342121 411.153591 
L 492.154406 411.42738 
L 500.59126 411.857153 
L 503.403545 412.392975 
L 506.21583 413.342082 
L 509.028115 414.740872 
L 511.8404 416.552153 
L 514.652685 418.678895 
L 523.08954 425.469162 
L 525.901825 427.350991 
L 528.71411 428.847257 
L 531.526395 429.907245 
L 534.33868 430.522166 
L 537.150965 430.7155 
L 539.96325 430.535538 
L 542.775535 430.052707 
L 548.400104 428.576922 
L 551.212389 427.837977 
L 554.024674 427.279745 
L 556.836959 427.004507 
L 559.649244 427.044793 
L 562.461529 427.346825 
L 570.898384 428.63935 
L 576.522954 429.33471 
L 579.335239 429.822515 
L 582.147524 430.491169 
L 590.584379 432.957764 
L 593.396663 433.580079 
L 596.208948 434.031693 
L 607.458088 435.311384 
L 613.082658 435.796917 
L 618.707228 435.833406 
L 627.144083 435.623843 
L 632.768653 435.742321 
L 649.642362 436.471023 
L 655.266932 437.075098 
L 663.703787 438.286226 
L 666.516072 438.51374 
L 669.328357 438.569306 
L 680.577497 438.181965 
L 683.389782 438.327933 
L 689.014351 439.00233 
L 697.451206 440.180273 
L 703.075776 440.669948 
L 708.700346 440.900482 
L 717.137201 440.991083 
L 717.137201 440.991083 
" clip-path="url(#p9984007c49)" style="fill: none; stroke-dasharray: 5.55,2.4; stroke-dashoffset: 0; stroke: #000000; stroke-width: 1.5"/>
   </g>
   <g id="line2d_26">
    <path d="M 138.436364 440.324437 
L 141.495295 439.79965 
L 144.554226 438.94744 
L 147.613157 437.621919 
L 150.672088 435.648457 
L 153.731019 432.838262 
L 156.78995 429.01454 
L 159.848881 424.049323 
L 162.907812 417.906218 
L 165.966743 410.680302 
L 169.025674 402.623683 
L 175.143536 385.77913 
L 178.202467 378.117295 
L 181.261398 371.72425 
L 184.320329 367.042905 
L 187.37926 364.317462 
L 190.438191 363.549893 
L 193.497122 364.500184 
L 196.556053 366.728913 
L 202.673915 372.714704 
L 205.732846 375.287579 
L 208.791777 376.899402 
L 211.850708 377.171303 
L 214.909639 375.83263 
L 217.96857 372.702115 
L 221.027501 367.66474 
L 224.086432 360.655618 
L 227.145363 351.657885 
L 230.204294 340.715711 
L 233.263225 327.957644 
L 236.322156 313.621342 
L 239.381087 298.069304 
L 248.55788 249.422036 
L 251.616811 234.612304 
L 254.675742 221.497312 
L 257.734673 210.524745 
L 260.793604 201.983651 
L 263.852535 195.987507 
L 266.911466 192.479109 
L 269.970397 191.254259 
L 273.029328 191.999054 
L 276.088259 194.334646 
L 279.14719 197.863402 
L 282.206122 202.210993 
L 285.265053 207.059969 
L 291.382915 217.395445 
L 300.559708 233.403192 
L 303.618639 239.001472 
L 306.67757 244.851368 
L 309.736501 250.999527 
L 315.854363 264.132871 
L 321.972225 277.703105 
L 325.031156 284.223968 
L 328.090087 290.31542 
L 331.149018 295.831179 
L 334.207949 300.69774 
L 337.26688 304.930877 
L 340.325811 308.631771 
L 343.384742 311.961649 
L 358.679397 327.6434 
L 361.738328 330.579323 
L 364.797259 333.177738 
L 367.85619 335.333816 
L 370.915121 337.021037 
L 373.974052 338.306121 
L 383.150845 341.468573 
L 386.209776 342.960169 
L 389.268707 344.917696 
L 392.327638 347.386727 
L 395.386569 350.341358 
L 398.4455 353.70141 
L 401.504431 357.356893 
L 410.681224 369.039464 
L 419.858017 380.613581 
L 425.975879 388.101254 
L 429.03481 391.705192 
L 432.093741 395.117014 
L 435.152672 398.224423 
L 438.211603 400.899017 
L 441.270534 403.015909 
L 444.329466 404.475207 
L 447.388397 405.220687 
L 450.447328 405.2519 
L 453.506259 404.627708 
L 456.56519 403.461316 
L 459.624121 401.908458 
L 465.741983 398.380163 
L 468.800914 396.776089 
L 471.859845 395.49374 
L 474.918776 394.647365 
L 477.977707 394.299755 
L 481.036638 394.455899 
L 484.095569 395.062801 
L 487.1545 396.016764 
L 496.331293 399.520593 
L 499.390224 400.449286 
L 502.449155 401.123684 
L 505.508086 401.548113 
L 511.625948 401.939782 
L 514.684879 402.143089 
L 517.74381 402.523974 
L 520.802741 403.189831 
L 523.861672 404.210131 
L 526.920603 405.60797 
L 529.979534 407.359041 
L 533.038465 409.396635 
L 545.274189 418.161146 
L 548.33312 419.887028 
L 551.392051 421.227881 
L 554.450982 422.139086 
L 557.509913 422.617461 
L 560.568844 422.700128 
L 563.627775 422.457745 
L 566.686706 421.983213 
L 578.92243 419.656732 
L 581.981361 419.304402 
L 585.040292 419.097096 
L 588.099223 419.024137 
L 594.217085 419.18407 
L 600.334947 419.587712 
L 606.45281 420.166946 
L 612.570672 421.03497 
L 615.629603 421.629236 
L 621.747465 423.169483 
L 627.865327 425.055865 
L 637.04212 427.940002 
L 643.159982 429.572487 
L 649.277844 430.876436 
L 655.395706 431.876578 
L 661.513568 432.647617 
L 670.690361 433.569026 
L 685.985016 434.831362 
L 695.161809 435.69872 
L 701.279671 436.525728 
L 710.456464 438.086836 
L 716.574326 439.107332 
L 722.692188 439.920356 
L 728.81005 440.463048 
L 734.927912 440.768236 
L 744.104705 440.949952 
L 747.163636 440.97211 
L 747.163636 440.97211 
" clip-path="url(#p9984007c49)" style="fill: none; stroke-dasharray: 5.55,2.4; stroke-dashoffset: 0; stroke: #0000ff; stroke-width: 1.5"/>
   </g>
   <g id="line2d_27">
    <path d="M 149.160734 440.186321 
L 151.836247 439.442613 
L 154.511759 438.163364 
L 157.187272 436.082561 
L 159.862785 432.885047 
L 162.538298 428.248747 
L 165.21381 421.915458 
L 167.889323 413.781701 
L 170.564836 403.987995 
L 173.240348 392.974987 
L 178.591374 370.419685 
L 181.266886 360.776432 
L 183.942399 353.343389 
L 186.617912 348.567528 
L 189.293424 346.437716 
L 191.968937 346.488138 
L 194.64445 347.909225 
L 197.319962 349.728415 
L 199.995475 351.003636 
L 202.670988 350.975344 
L 205.346501 349.144365 
L 208.022013 345.271846 
L 210.697526 339.32213 
L 213.373039 331.381744 
L 216.048551 321.586583 
L 218.724064 310.07865 
L 221.399577 296.998973 
L 224.075089 282.509717 
L 226.750602 266.829373 
L 232.101627 233.205322 
L 237.452653 199.546173 
L 240.128165 183.939572 
L 242.803678 169.747847 
L 245.479191 157.335144 
L 248.154704 146.997033 
L 250.830216 138.973282 
L 253.505729 133.452617 
L 256.181242 130.556436 
L 258.856754 130.301348 
L 261.532267 132.555489 
L 264.20778 137.012669 
L 266.883292 143.205885 
L 269.558805 150.567731 
L 280.260856 182.168614 
L 285.611881 197.276623 
L 288.287394 205.262209 
L 290.962907 213.893565 
L 293.638419 223.343083 
L 296.313932 233.659572 
L 298.989445 244.757535 
L 309.691495 291.389305 
L 312.367008 301.706042 
L 315.042521 310.771715 
L 317.718033 318.380269 
L 320.393546 324.461742 
L 323.069059 329.083124 
L 325.744572 332.426367 
L 328.420084 334.749549 
L 331.095597 336.341048 
L 333.77111 337.477038 
L 344.47316 341.179144 
L 349.824186 343.485984 
L 357.850724 347.225385 
L 363.201749 349.961483 
L 365.877262 351.576361 
L 368.552775 353.45196 
L 371.228287 355.625716 
L 373.9038 358.083883 
L 379.254825 363.527119 
L 381.930338 366.258548 
L 384.605851 368.82049 
L 387.281363 371.11682 
L 389.956876 373.100986 
L 392.632389 374.777488 
L 395.307901 376.19036 
L 397.983414 377.403401 
L 403.334439 379.457434 
L 408.685465 381.149177 
L 411.360978 381.810324 
L 414.03649 382.298826 
L 416.712003 382.593681 
L 419.387516 382.70741 
L 427.414054 382.724098 
L 430.089566 383.032459 
L 432.765079 383.702864 
L 435.440592 384.808328 
L 438.116104 386.356097 
L 440.791617 388.282674 
L 451.493668 397.012363 
L 454.169181 398.782327 
L 456.844693 400.252967 
L 459.520206 401.43631 
L 462.195719 402.370475 
L 464.871231 403.10261 
L 467.546744 403.677117 
L 472.897769 404.501884 
L 480.924307 405.55265 
L 483.59982 406.090119 
L 486.275333 406.837248 
L 488.950846 407.845887 
L 491.626358 409.135876 
L 494.301871 410.686139 
L 499.652896 414.290037 
L 505.003922 417.908352 
L 507.679434 419.503178 
L 510.354947 420.893878 
L 513.03046 422.076172 
L 515.705972 423.068517 
L 518.381485 423.896323 
L 521.056998 424.575967 
L 523.73251 425.103889 
L 526.408023 425.454633 
L 529.083536 425.589178 
L 531.759049 425.471738 
L 534.434561 425.090211 
L 537.110074 424.473679 
L 545.136612 422.199583 
L 547.812125 421.764674 
L 550.487637 421.70065 
L 553.16315 422.062037 
L 555.838663 422.833266 
L 558.514175 423.931777 
L 566.540714 427.813937 
L 569.216226 428.875527 
L 571.891739 429.715931 
L 574.567252 430.361106 
L 582.59379 431.928574 
L 585.269302 432.597621 
L 590.620328 434.318157 
L 598.646866 437.137444 
L 601.322378 437.878571 
L 603.997891 438.441459 
L 606.673404 438.811754 
L 609.348917 438.998301 
L 612.024429 439.029469 
L 617.375455 438.79835 
L 625.401993 438.348802 
L 633.428531 438.200898 
L 641.455069 438.284129 
L 646.806094 438.541194 
L 652.15712 439.025271 
L 665.534683 440.454062 
L 670.885708 440.765986 
L 678.912246 440.954709 
L 681.587759 440.97629 
L 681.587759 440.97629 
" clip-path="url(#p9984007c49)" style="fill: none; stroke-dasharray: 5.55,2.4; stroke-dashoffset: 0; stroke: #ff0000; stroke-width: 1.5"/>
   </g>
   <g id="patch_141">
    <path d="M 108 441 
L 108 60.48 
" style="fill: none; stroke: #000000; stroke-width: 0.8; stroke-linejoin: miter; stroke-linecap: square"/>
   </g>
   <g id="patch_142">
    <path d="M 777.6 441 
L 777.6 60.48 
" style="fill: none; stroke: #000000; stroke-width: 0.8; stroke-linejoin: miter; stroke-linecap: square"/>
   </g>
   <g id="patch_143">
    <path d="M 108 441 
L 777.6 441 
" style="fill: none; stroke: #000000; stroke-width: 0.8; stroke-linejoin: miter; stroke-linecap: square"/>
   </g>
   <g id="patch_144">
    <path d="M 108 60.48 
L 777.6 60.48 
" style="fill: none; stroke: #000000; stroke-width: 0.8; stroke-linejoin: miter; stroke-linecap: square"/>
   </g>
   <g id="text_15">
    <!-- Average Normalized Histograms and KDE of Block_Pellet_Counts -->
    <g transform="translate(249.3825 54.48)scale(0.12 -0.12)">
     <defs>
      <path id="DejaVuSans-4e" d="M 628 4666 
L 1478 4666 
L 3547 763 
L 3547 4666 
L 4159 4666 
L 4159 0 
L 3309 0 
L 1241 3903 
L 1241 0 
L 628 0 
L 628 4666 
z
" transform="scale(0.015625)"/>
      <path id="DejaVuSans-6d" d="M 3328 2828 
Q 3544 3216 3844 3400 
Q 4144 3584 4550 3584 
Q 5097 3584 5394 3201 
Q 5691 2819 5691 2113 
L 5691 0 
L 5113 0 
L 5113 2094 
Q 5113 2597 4934 2840 
Q 4756 3084 4391 3084 
Q 3944 3084 3684 2787 
Q 3425 2491 3425 1978 
L 3425 0 
L 2847 0 
L 2847 2094 
Q 2847 2600 2669 2842 
Q 2491 3084 2119 3084 
Q 1678 3084 1418 2786 
Q 1159 2488 1159 1978 
L 1159 0 
L 581 0 
L 581 3500 
L 1159 3500 
L 1159 2956 
Q 1356 3278 1631 3431 
Q 1906 3584 2284 3584 
Q 2666 3584 2933 3390 
Q 3200 3197 3328 2828 
z
" transform="scale(0.015625)"/>
      <path id="DejaVuSans-69" d="M 603 3500 
L 1178 3500 
L 1178 0 
L 603 0 
L 603 3500 
z
M 603 4863 
L 1178 4863 
L 1178 4134 
L 603 4134 
L 603 4863 
z
" transform="scale(0.015625)"/>
      <path id="DejaVuSans-7a" d="M 353 3500 
L 3084 3500 
L 3084 2975 
L 922 459 
L 3084 459 
L 3084 0 
L 275 0 
L 275 525 
L 2438 3041 
L 353 3041 
L 353 3500 
z
" transform="scale(0.015625)"/>
      <path id="DejaVuSans-64" d="M 2906 2969 
L 2906 4863 
L 3481 4863 
L 3481 0 
L 2906 0 
L 2906 525 
Q 2725 213 2448 61 
Q 2172 -91 1784 -91 
Q 1150 -91 751 415 
Q 353 922 353 1747 
Q 353 2572 751 3078 
Q 1150 3584 1784 3584 
Q 2172 3584 2448 3432 
Q 2725 3281 2906 2969 
z
M 947 1747 
Q 947 1113 1208 752 
Q 1469 391 1925 391 
Q 2381 391 2643 752 
Q 2906 1113 2906 1747 
Q 2906 2381 2643 2742 
Q 2381 3103 1925 3103 
Q 1469 3103 1208 2742 
Q 947 2381 947 1747 
z
" transform="scale(0.015625)"/>
      <path id="DejaVuSans-48" d="M 628 4666 
L 1259 4666 
L 1259 2753 
L 3553 2753 
L 3553 4666 
L 4184 4666 
L 4184 0 
L 3553 0 
L 3553 2222 
L 1259 2222 
L 1259 0 
L 628 0 
L 628 4666 
z
" transform="scale(0.015625)"/>
      <path id="DejaVuSans-73" d="M 2834 3397 
L 2834 2853 
Q 2591 2978 2328 3040 
Q 2066 3103 1784 3103 
Q 1356 3103 1142 2972 
Q 928 2841 928 2578 
Q 928 2378 1081 2264 
Q 1234 2150 1697 2047 
L 1894 2003 
Q 2506 1872 2764 1633 
Q 3022 1394 3022 966 
Q 3022 478 2636 193 
Q 2250 -91 1575 -91 
Q 1294 -91 989 -36 
Q 684 19 347 128 
L 347 722 
Q 666 556 975 473 
Q 1284 391 1588 391 
Q 1994 391 2212 530 
Q 2431 669 2431 922 
Q 2431 1156 2273 1281 
Q 2116 1406 1581 1522 
L 1381 1569 
Q 847 1681 609 1914 
Q 372 2147 372 2553 
Q 372 3047 722 3315 
Q 1072 3584 1716 3584 
Q 2034 3584 2315 3537 
Q 2597 3491 2834 3397 
z
" transform="scale(0.015625)"/>
      <path id="DejaVuSans-4b" d="M 628 4666 
L 1259 4666 
L 1259 2694 
L 3353 4666 
L 4166 4666 
L 1850 2491 
L 4331 0 
L 3500 0 
L 1259 2247 
L 1259 0 
L 628 0 
L 628 4666 
z
" transform="scale(0.015625)"/>
      <path id="DejaVuSans-44" d="M 1259 4147 
L 1259 519 
L 2022 519 
Q 2988 519 3436 956 
Q 3884 1394 3884 2338 
Q 3884 3275 3436 3711 
Q 2988 4147 2022 4147 
L 1259 4147 
z
M 628 4666 
L 1925 4666 
Q 3281 4666 3915 4102 
Q 4550 3538 4550 2338 
Q 4550 1131 3912 565 
Q 3275 0 1925 0 
L 628 0 
L 628 4666 
z
" transform="scale(0.015625)"/>
      <path id="DejaVuSans-45" d="M 628 4666 
L 3578 4666 
L 3578 4134 
L 1259 4134 
L 1259 2753 
L 3481 2753 
L 3481 2222 
L 1259 2222 
L 1259 531 
L 3634 531 
L 3634 0 
L 628 0 
L 628 4666 
z
" transform="scale(0.015625)"/>
      <path id="DejaVuSans-66" d="M 2375 4863 
L 2375 4384 
L 1825 4384 
Q 1516 4384 1395 4259 
Q 1275 4134 1275 3809 
L 1275 3500 
L 2222 3500 
L 2222 3053 
L 1275 3053 
L 1275 0 
L 697 0 
L 697 3053 
L 147 3053 
L 147 3500 
L 697 3500 
L 697 3744 
Q 697 4328 969 4595 
Q 1241 4863 1831 4863 
L 2375 4863 
z
" transform="scale(0.015625)"/>
     </defs>
     <use xlink:href="#DejaVuSans-41"/>
     <use xlink:href="#DejaVuSans-76" x="62.533203"/>
     <use xlink:href="#DejaVuSans-65" x="121.712891"/>
     <use xlink:href="#DejaVuSans-72" x="183.236328"/>
     <use xlink:href="#DejaVuSans-61" x="224.349609"/>
     <use xlink:href="#DejaVuSans-67" x="285.628906"/>
     <use xlink:href="#DejaVuSans-65" x="349.105469"/>
     <use xlink:href="#DejaVuSans-20" x="410.628906"/>
     <use xlink:href="#DejaVuSans-4e" x="442.416016"/>
     <use xlink:href="#DejaVuSans-6f" x="517.220703"/>
     <use xlink:href="#DejaVuSans-72" x="578.402344"/>
     <use xlink:href="#DejaVuSans-6d" x="617.765625"/>
     <use xlink:href="#DejaVuSans-61" x="715.177734"/>
     <use xlink:href="#DejaVuSans-6c" x="776.457031"/>
     <use xlink:href="#DejaVuSans-69" x="804.240234"/>
     <use xlink:href="#DejaVuSans-7a" x="832.023438"/>
     <use xlink:href="#DejaVuSans-65" x="884.513672"/>
     <use xlink:href="#DejaVuSans-64" x="946.037109"/>
     <use xlink:href="#DejaVuSans-20" x="1009.513672"/>
     <use xlink:href="#DejaVuSans-48" x="1041.300781"/>
     <use xlink:href="#DejaVuSans-69" x="1116.496094"/>
     <use xlink:href="#DejaVuSans-73" x="1144.279297"/>
     <use xlink:href="#DejaVuSans-74" x="1196.378906"/>
     <use xlink:href="#DejaVuSans-6f" x="1235.587891"/>
     <use xlink:href="#DejaVuSans-67" x="1296.769531"/>
     <use xlink:href="#DejaVuSans-72" x="1360.246094"/>
     <use xlink:href="#DejaVuSans-61" x="1401.359375"/>
     <use xlink:href="#DejaVuSans-6d" x="1462.638672"/>
     <use xlink:href="#DejaVuSans-73" x="1560.050781"/>
     <use xlink:href="#DejaVuSans-20" x="1612.150391"/>
     <use xlink:href="#DejaVuSans-61" x="1643.9375"/>
     <use xlink:href="#DejaVuSans-6e" x="1705.216797"/>
     <use xlink:href="#DejaVuSans-64" x="1768.595703"/>
     <use xlink:href="#DejaVuSans-20" x="1832.072266"/>
     <use xlink:href="#DejaVuSans-4b" x="1863.859375"/>
     <use xlink:href="#DejaVuSans-44" x="1929.435547"/>
     <use xlink:href="#DejaVuSans-45" x="2006.4375"/>
     <use xlink:href="#DejaVuSans-20" x="2069.621094"/>
     <use xlink:href="#DejaVuSans-6f" x="2101.408203"/>
     <use xlink:href="#DejaVuSans-66" x="2162.589844"/>
     <use xlink:href="#DejaVuSans-20" x="2197.794922"/>
     <use xlink:href="#DejaVuSans-42" x="2229.582031"/>
     <use xlink:href="#DejaVuSans-6c" x="2298.185547"/>
     <use xlink:href="#DejaVuSans-6f" x="2325.96875"/>
     <use xlink:href="#DejaVuSans-63" x="2387.150391"/>
     <use xlink:href="#DejaVuSans-6b" x="2442.130859"/>
     <use xlink:href="#DejaVuSans-5f" x="2500.041016"/>
     <use xlink:href="#DejaVuSans-50" x="2550.041016"/>
     <use xlink:href="#DejaVuSans-65" x="2606.71875"/>
     <use xlink:href="#DejaVuSans-6c" x="2668.242188"/>
     <use xlink:href="#DejaVuSans-6c" x="2696.025391"/>
     <use xlink:href="#DejaVuSans-65" x="2723.808594"/>
     <use xlink:href="#DejaVuSans-74" x="2785.332031"/>
     <use xlink:href="#DejaVuSans-5f" x="2824.541016"/>
     <use xlink:href="#DejaVuSans-43" x="2874.541016"/>
     <use xlink:href="#DejaVuSans-6f" x="2944.365234"/>
     <use xlink:href="#DejaVuSans-75" x="3005.546875"/>
     <use xlink:href="#DejaVuSans-6e" x="3068.925781"/>
     <use xlink:href="#DejaVuSans-74" x="3132.304688"/>
     <use xlink:href="#DejaVuSans-73" x="3171.513672"/>
    </g>
   </g>
   <g id="legend_1">
    <g id="patch_145">
     <path d="M 627.765625 157.383125 
L 770.6 157.383125 
Q 772.6 157.383125 772.6 155.383125 
L 772.6 67.48 
Q 772.6 65.48 770.6 65.48 
L 627.765625 65.48 
Q 625.765625 65.48 625.765625 67.48 
L 625.765625 155.383125 
Q 625.765625 157.383125 627.765625 157.383125 
z
" style="fill: #ffffff; opacity: 0.8; stroke: #cccccc; stroke-linejoin: miter"/>
    </g>
    <g id="line2d_28">
     <path d="M 629.765625 73.578438 
L 639.765625 73.578438 
L 649.765625 73.578438 
" style="fill: none; stroke-dasharray: 5.55,2.4; stroke-dashoffset: 0; stroke: #000000; stroke-width: 1.5"/>
    </g>
    <g id="text_16">
     <!-- KDE for result_df -->
     <g transform="translate(657.765625 77.078438)scale(0.1 -0.1)">
      <use xlink:href="#DejaVuSans-4b"/>
      <use xlink:href="#DejaVuSans-44" x="65.576172"/>
      <use xlink:href="#DejaVuSans-45" x="142.578125"/>
      <use xlink:href="#DejaVuSans-20" x="205.761719"/>
      <use xlink:href="#DejaVuSans-66" x="237.548828"/>
      <use xlink:href="#DejaVuSans-6f" x="272.753906"/>
      <use xlink:href="#DejaVuSans-72" x="333.935547"/>
      <use xlink:href="#DejaVuSans-20" x="375.048828"/>
      <use xlink:href="#DejaVuSans-72" x="406.835938"/>
      <use xlink:href="#DejaVuSans-65" x="445.699219"/>
      <use xlink:href="#DejaVuSans-73" x="507.222656"/>
      <use xlink:href="#DejaVuSans-75" x="559.322266"/>
      <use xlink:href="#DejaVuSans-6c" x="622.701172"/>
      <use xlink:href="#DejaVuSans-74" x="650.484375"/>
      <use xlink:href="#DejaVuSans-5f" x="689.693359"/>
      <use xlink:href="#DejaVuSans-64" x="739.693359"/>
      <use xlink:href="#DejaVuSans-66" x="803.169922"/>
     </g>
    </g>
    <g id="line2d_29">
     <path d="M 629.765625 88.534688 
L 639.765625 88.534688 
L 649.765625 88.534688 
" style="fill: none; stroke-dasharray: 5.55,2.4; stroke-dashoffset: 0; stroke: #0000ff; stroke-width: 1.5"/>
    </g>
    <g id="text_17">
     <!-- KDE for result_df1 -->
     <g transform="translate(657.765625 92.034688)scale(0.1 -0.1)">
      <use xlink:href="#DejaVuSans-4b"/>
      <use xlink:href="#DejaVuSans-44" x="65.576172"/>
      <use xlink:href="#DejaVuSans-45" x="142.578125"/>
      <use xlink:href="#DejaVuSans-20" x="205.761719"/>
      <use xlink:href="#DejaVuSans-66" x="237.548828"/>
      <use xlink:href="#DejaVuSans-6f" x="272.753906"/>
      <use xlink:href="#DejaVuSans-72" x="333.935547"/>
      <use xlink:href="#DejaVuSans-20" x="375.048828"/>
      <use xlink:href="#DejaVuSans-72" x="406.835938"/>
      <use xlink:href="#DejaVuSans-65" x="445.699219"/>
      <use xlink:href="#DejaVuSans-73" x="507.222656"/>
      <use xlink:href="#DejaVuSans-75" x="559.322266"/>
      <use xlink:href="#DejaVuSans-6c" x="622.701172"/>
      <use xlink:href="#DejaVuSans-74" x="650.484375"/>
      <use xlink:href="#DejaVuSans-5f" x="689.693359"/>
      <use xlink:href="#DejaVuSans-64" x="739.693359"/>
      <use xlink:href="#DejaVuSans-66" x="803.169922"/>
      <use xlink:href="#DejaVuSans-31" x="838.375"/>
     </g>
    </g>
    <g id="line2d_30">
     <path d="M 629.765625 103.490938 
L 639.765625 103.490938 
L 649.765625 103.490938 
" style="fill: none; stroke-dasharray: 5.55,2.4; stroke-dashoffset: 0; stroke: #ff0000; stroke-width: 1.5"/>
    </g>
    <g id="text_18">
     <!-- KDE for result_df2 -->
     <g transform="translate(657.765625 106.990938)scale(0.1 -0.1)">
      <use xlink:href="#DejaVuSans-4b"/>
      <use xlink:href="#DejaVuSans-44" x="65.576172"/>
      <use xlink:href="#DejaVuSans-45" x="142.578125"/>
      <use xlink:href="#DejaVuSans-20" x="205.761719"/>
      <use xlink:href="#DejaVuSans-66" x="237.548828"/>
      <use xlink:href="#DejaVuSans-6f" x="272.753906"/>
      <use xlink:href="#DejaVuSans-72" x="333.935547"/>
      <use xlink:href="#DejaVuSans-20" x="375.048828"/>
      <use xlink:href="#DejaVuSans-72" x="406.835938"/>
      <use xlink:href="#DejaVuSans-65" x="445.699219"/>
      <use xlink:href="#DejaVuSans-73" x="507.222656"/>
      <use xlink:href="#DejaVuSans-75" x="559.322266"/>
      <use xlink:href="#DejaVuSans-6c" x="622.701172"/>
      <use xlink:href="#DejaVuSans-74" x="650.484375"/>
      <use xlink:href="#DejaVuSans-5f" x="689.693359"/>
      <use xlink:href="#DejaVuSans-64" x="739.693359"/>
      <use xlink:href="#DejaVuSans-66" x="803.169922"/>
      <use xlink:href="#DejaVuSans-32" x="838.375"/>
     </g>
    </g>
    <g id="patch_146">
     <path d="M 629.765625 121.947188 
L 649.765625 121.947188 
L 649.765625 114.947188 
L 629.765625 114.947188 
z
" style="fill: #1f77b4; opacity: 0.5; stroke: #000000; stroke-linejoin: miter"/>
    </g>
    <g id="text_19">
     <!-- Histogram from Naive -->
     <g transform="translate(657.765625 121.947188)scale(0.1 -0.1)">
      <use xlink:href="#DejaVuSans-48"/>
      <use xlink:href="#DejaVuSans-69" x="75.195312"/>
      <use xlink:href="#DejaVuSans-73" x="102.978516"/>
      <use xlink:href="#DejaVuSans-74" x="155.078125"/>
      <use xlink:href="#DejaVuSans-6f" x="194.287109"/>
      <use xlink:href="#DejaVuSans-67" x="255.46875"/>
      <use xlink:href="#DejaVuSans-72" x="318.945312"/>
      <use xlink:href="#DejaVuSans-61" x="360.058594"/>
      <use xlink:href="#DejaVuSans-6d" x="421.337891"/>
      <use xlink:href="#DejaVuSans-20" x="518.75"/>
      <use xlink:href="#DejaVuSans-66" x="550.537109"/>
      <use xlink:href="#DejaVuSans-72" x="585.742188"/>
      <use xlink:href="#DejaVuSans-6f" x="624.605469"/>
      <use xlink:href="#DejaVuSans-6d" x="685.787109"/>
      <use xlink:href="#DejaVuSans-20" x="783.199219"/>
      <use xlink:href="#DejaVuSans-4e" x="814.986328"/>
      <use xlink:href="#DejaVuSans-61" x="889.791016"/>
      <use xlink:href="#DejaVuSans-69" x="951.070312"/>
      <use xlink:href="#DejaVuSans-76" x="978.853516"/>
      <use xlink:href="#DejaVuSans-65" x="1038.033203"/>
     </g>
    </g>
    <g id="patch_147">
     <path d="M 629.765625 136.625313 
L 649.765625 136.625313 
L 649.765625 129.625313 
L 629.765625 129.625313 
z
" style="fill: #ff7f0e; opacity: 0.5; stroke: #000000; stroke-linejoin: miter"/>
    </g>
    <g id="text_20">
     <!-- Histogram from SHAM -->
     <g transform="translate(657.765625 136.625313)scale(0.1 -0.1)">
      <defs>
       <path id="DejaVuSans-53" d="M 3425 4513 
L 3425 3897 
Q 3066 4069 2747 4153 
Q 2428 4238 2131 4238 
Q 1616 4238 1336 4038 
Q 1056 3838 1056 3469 
Q 1056 3159 1242 3001 
Q 1428 2844 1947 2747 
L 2328 2669 
Q 3034 2534 3370 2195 
Q 3706 1856 3706 1288 
Q 3706 609 3251 259 
Q 2797 -91 1919 -91 
Q 1588 -91 1214 -16 
Q 841 59 441 206 
L 441 856 
Q 825 641 1194 531 
Q 1563 422 1919 422 
Q 2459 422 2753 634 
Q 3047 847 3047 1241 
Q 3047 1584 2836 1778 
Q 2625 1972 2144 2069 
L 1759 2144 
Q 1053 2284 737 2584 
Q 422 2884 422 3419 
Q 422 4038 858 4394 
Q 1294 4750 2059 4750 
Q 2388 4750 2728 4690 
Q 3069 4631 3425 4513 
z
" transform="scale(0.015625)"/>
       <path id="DejaVuSans-4d" d="M 628 4666 
L 1569 4666 
L 2759 1491 
L 3956 4666 
L 4897 4666 
L 4897 0 
L 4281 0 
L 4281 4097 
L 3078 897 
L 2444 897 
L 1241 4097 
L 1241 0 
L 628 0 
L 628 4666 
z
" transform="scale(0.015625)"/>
      </defs>
      <use xlink:href="#DejaVuSans-48"/>
      <use xlink:href="#DejaVuSans-69" x="75.195312"/>
      <use xlink:href="#DejaVuSans-73" x="102.978516"/>
      <use xlink:href="#DejaVuSans-74" x="155.078125"/>
      <use xlink:href="#DejaVuSans-6f" x="194.287109"/>
      <use xlink:href="#DejaVuSans-67" x="255.46875"/>
      <use xlink:href="#DejaVuSans-72" x="318.945312"/>
      <use xlink:href="#DejaVuSans-61" x="360.058594"/>
      <use xlink:href="#DejaVuSans-6d" x="421.337891"/>
      <use xlink:href="#DejaVuSans-20" x="518.75"/>
      <use xlink:href="#DejaVuSans-66" x="550.537109"/>
      <use xlink:href="#DejaVuSans-72" x="585.742188"/>
      <use xlink:href="#DejaVuSans-6f" x="624.605469"/>
      <use xlink:href="#DejaVuSans-6d" x="685.787109"/>
      <use xlink:href="#DejaVuSans-20" x="783.199219"/>
      <use xlink:href="#DejaVuSans-53" x="814.986328"/>
      <use xlink:href="#DejaVuSans-48" x="878.462891"/>
      <use xlink:href="#DejaVuSans-41" x="953.658203"/>
      <use xlink:href="#DejaVuSans-4d" x="1022.066406"/>
     </g>
    </g>
    <g id="patch_148">
     <path d="M 629.765625 151.303438 
L 649.765625 151.303438 
L 649.765625 144.303438 
L 629.765625 144.303438 
z
" style="fill: #2ca02c; opacity: 0.5; stroke: #000000; stroke-linejoin: miter"/>
    </g>
    <g id="text_21">
     <!-- Histogram from SNI -->
     <g transform="translate(657.765625 151.303438)scale(0.1 -0.1)">
      <defs>
       <path id="DejaVuSans-49" d="M 628 4666 
L 1259 4666 
L 1259 0 
L 628 0 
L 628 4666 
z
" transform="scale(0.015625)"/>
      </defs>
      <use xlink:href="#DejaVuSans-48"/>
      <use xlink:href="#DejaVuSans-69" x="75.195312"/>
      <use xlink:href="#DejaVuSans-73" x="102.978516"/>
      <use xlink:href="#DejaVuSans-74" x="155.078125"/>
      <use xlink:href="#DejaVuSans-6f" x="194.287109"/>
      <use xlink:href="#DejaVuSans-67" x="255.46875"/>
      <use xlink:href="#DejaVuSans-72" x="318.945312"/>
      <use xlink:href="#DejaVuSans-61" x="360.058594"/>
      <use xlink:href="#DejaVuSans-6d" x="421.337891"/>
      <use xlink:href="#DejaVuSans-20" x="518.75"/>
      <use xlink:href="#DejaVuSans-66" x="550.537109"/>
      <use xlink:href="#DejaVuSans-72" x="585.742188"/>
      <use xlink:href="#DejaVuSans-6f" x="624.605469"/>
      <use xlink:href="#DejaVuSans-6d" x="685.787109"/>
      <use xlink:href="#DejaVuSans-20" x="783.199219"/>
      <use xlink:href="#DejaVuSans-53" x="814.986328"/>
      <use xlink:href="#DejaVuSans-4e" x="878.462891"/>
      <use xlink:href="#DejaVuSans-49" x="953.267578"/>
     </g>
    </g>
   </g>
  </g>
 </g>
 <defs>
  <clipPath id="p9984007c49">
   <rect x="108" y="60.48" width="669.6" height="380.52"/>
  </clipPath>
 </defs>
</svg>
