<?xml version="1.0" encoding="utf-8" standalone="no"?>
<!DOCTYPE svg PUBLIC "-//W3C//DTD SVG 1.1//EN"
  "http://www.w3.org/Graphics/SVG/1.1/DTD/svg11.dtd">
<svg xmlns:xlink="http://www.w3.org/1999/xlink" width="720pt" height="432pt" viewBox="0 0 720 432" xmlns="http://www.w3.org/2000/svg" version="1.1">
 <metadata>
  <rdf:RDF xmlns:dc="http://purl.org/dc/elements/1.1/" xmlns:cc="http://creativecommons.org/ns#" xmlns:rdf="http://www.w3.org/1999/02/22-rdf-syntax-ns#">
   <cc:Work>
    <dc:type rdf:resource="http://purl.org/dc/dcmitype/StillImage"/>
    <dc:date>2025-01-25T16:03:43.893255</dc:date>
    <dc:format>image/svg+xml</dc:format>
    <dc:creator>
     <cc:Agent>
      <dc:title>Matplotlib v3.5.1, https://matplotlib.org/</dc:title>
     </cc:Agent>
    </dc:creator>
   </cc:Work>
  </rdf:RDF>
 </metadata>
 <defs>
  <style type="text/css">*{stroke-linejoin: round; stroke-linecap: butt}</style>
 </defs>
 <g id="figure_1">
  <g id="patch_1">
   <path d="M 0 432 
L 720 432 
L 720 0 
L 0 0 
z
" style="fill: #ffffff"/>
  </g>
  <g id="axes_1">
   <g id="patch_2">
    <path d="M 90 378 
L 648 378 
L 648 51.84 
L 90 51.84 
z
" style="fill: #ffffff"/>
   </g>
   <g id="matplotlib.axis_1">
    <g id="xtick_1">
     <g id="line2d_1">
      <path d="M 105.797855 378 
L 105.797855 51.84 
" clip-path="url(#pdde6b21a7a)" style="fill: none; stroke: #b0b0b0; stroke-width: 0.8; stroke-linecap: square"/>
     </g>
     <g id="line2d_2">
      <defs>
       <path id="mdfedee53d9" d="M 0 0 
L 0 3.5 
" style="stroke: #000000; stroke-width: 0.8"/>
      </defs>
      <g>
       <use xlink:href="#mdfedee53d9" x="105.797855" y="378" style="stroke: #000000; stroke-width: 0.8"/>
      </g>
     </g>
     <g id="text_1">
      <!-- $\mathdefault{10^{0}}$ -->
      <g transform="translate(96.997855 392.598437)scale(0.1 -0.1)">
       <defs>
        <path id="DejaVuSans-31" d="M 794 531 
L 1825 531 
L 1825 4091 
L 703 3866 
L 703 4441 
L 1819 4666 
L 2450 4666 
L 2450 531 
L 3481 531 
L 3481 0 
L 794 0 
L 794 531 
z
" transform="scale(0.015625)"/>
        <path id="DejaVuSans-30" d="M 2034 4250 
Q 1547 4250 1301 3770 
Q 1056 3291 1056 2328 
Q 1056 1369 1301 889 
Q 1547 409 2034 409 
Q 2525 409 2770 889 
Q 3016 1369 3016 2328 
Q 3016 3291 2770 3770 
Q 2525 4250 2034 4250 
z
M 2034 4750 
Q 2819 4750 3233 4129 
Q 3647 3509 3647 2328 
Q 3647 1150 3233 529 
Q 2819 -91 2034 -91 
Q 1250 -91 836 529 
Q 422 1150 422 2328 
Q 422 3509 836 4129 
Q 1250 4750 2034 4750 
z
" transform="scale(0.015625)"/>
       </defs>
       <use xlink:href="#DejaVuSans-31" transform="translate(0 0.765625)"/>
       <use xlink:href="#DejaVuSans-30" transform="translate(63.623047 0.765625)"/>
       <use xlink:href="#DejaVuSans-30" transform="translate(128.203125 39.046875)scale(0.7)"/>
      </g>
     </g>
    </g>
    <g id="xtick_2">
     <g id="line2d_3">
      <path d="M 286.531903 378 
L 286.531903 51.84 
" clip-path="url(#pdde6b21a7a)" style="fill: none; stroke: #b0b0b0; stroke-width: 0.8; stroke-linecap: square"/>
     </g>
     <g id="line2d_4">
      <g>
       <use xlink:href="#mdfedee53d9" x="286.531903" y="378" style="stroke: #000000; stroke-width: 0.8"/>
      </g>
     </g>
     <g id="text_2">
      <!-- $\mathdefault{10^{1}}$ -->
      <g transform="translate(277.731903 392.598437)scale(0.1 -0.1)">
       <use xlink:href="#DejaVuSans-31" transform="translate(0 0.684375)"/>
       <use xlink:href="#DejaVuSans-30" transform="translate(63.623047 0.684375)"/>
       <use xlink:href="#DejaVuSans-31" transform="translate(128.203125 38.965625)scale(0.7)"/>
      </g>
     </g>
    </g>
    <g id="xtick_3">
     <g id="line2d_5">
      <path d="M 467.265952 378 
L 467.265952 51.84 
" clip-path="url(#pdde6b21a7a)" style="fill: none; stroke: #b0b0b0; stroke-width: 0.8; stroke-linecap: square"/>
     </g>
     <g id="line2d_6">
      <g>
       <use xlink:href="#mdfedee53d9" x="467.265952" y="378" style="stroke: #000000; stroke-width: 0.8"/>
      </g>
     </g>
     <g id="text_3">
      <!-- $\mathdefault{10^{2}}$ -->
      <g transform="translate(458.465952 392.598437)scale(0.1 -0.1)">
       <defs>
        <path id="DejaVuSans-32" d="M 1228 531 
L 3431 531 
L 3431 0 
L 469 0 
L 469 531 
Q 828 903 1448 1529 
Q 2069 2156 2228 2338 
Q 2531 2678 2651 2914 
Q 2772 3150 2772 3378 
Q 2772 3750 2511 3984 
Q 2250 4219 1831 4219 
Q 1534 4219 1204 4116 
Q 875 4013 500 3803 
L 500 4441 
Q 881 4594 1212 4672 
Q 1544 4750 1819 4750 
Q 2544 4750 2975 4387 
Q 3406 4025 3406 3419 
Q 3406 3131 3298 2873 
Q 3191 2616 2906 2266 
Q 2828 2175 2409 1742 
Q 1991 1309 1228 531 
z
" transform="scale(0.015625)"/>
       </defs>
       <use xlink:href="#DejaVuSans-31" transform="translate(0 0.765625)"/>
       <use xlink:href="#DejaVuSans-30" transform="translate(63.623047 0.765625)"/>
       <use xlink:href="#DejaVuSans-32" transform="translate(128.203125 39.046875)scale(0.7)"/>
      </g>
     </g>
    </g>
    <g id="xtick_4">
     <g id="line2d_7">
      <path d="M 648 378 
L 648 51.84 
" clip-path="url(#pdde6b21a7a)" style="fill: none; stroke: #b0b0b0; stroke-width: 0.8; stroke-linecap: square"/>
     </g>
     <g id="line2d_8">
      <g>
       <use xlink:href="#mdfedee53d9" x="648" y="378" style="stroke: #000000; stroke-width: 0.8"/>
      </g>
     </g>
     <g id="text_4">
      <!-- $\mathdefault{10^{3}}$ -->
      <g transform="translate(639.2 392.598437)scale(0.1 -0.1)">
       <defs>
        <path id="DejaVuSans-33" d="M 2597 2516 
Q 3050 2419 3304 2112 
Q 3559 1806 3559 1356 
Q 3559 666 3084 287 
Q 2609 -91 1734 -91 
Q 1441 -91 1130 -33 
Q 819 25 488 141 
L 488 750 
Q 750 597 1062 519 
Q 1375 441 1716 441 
Q 2309 441 2620 675 
Q 2931 909 2931 1356 
Q 2931 1769 2642 2001 
Q 2353 2234 1838 2234 
L 1294 2234 
L 1294 2753 
L 1863 2753 
Q 2328 2753 2575 2939 
Q 2822 3125 2822 3475 
Q 2822 3834 2567 4026 
Q 2313 4219 1838 4219 
Q 1578 4219 1281 4162 
Q 984 4106 628 3988 
L 628 4550 
Q 988 4650 1302 4700 
Q 1616 4750 1894 4750 
Q 2613 4750 3031 4423 
Q 3450 4097 3450 3541 
Q 3450 3153 3228 2886 
Q 3006 2619 2597 2516 
z
" transform="scale(0.015625)"/>
       </defs>
       <use xlink:href="#DejaVuSans-31" transform="translate(0 0.765625)"/>
       <use xlink:href="#DejaVuSans-30" transform="translate(63.623047 0.765625)"/>
       <use xlink:href="#DejaVuSans-33" transform="translate(128.203125 39.046875)scale(0.7)"/>
      </g>
     </g>
    </g>
    <g id="xtick_5">
     <g id="line2d_9">
      <defs>
       <path id="mf01bc4a142" d="M 0 0 
L 0 2 
" style="stroke: #000000; stroke-width: 0.6"/>
      </defs>
      <g>
       <use xlink:href="#mf01bc4a142" x="97.527918" y="378" style="stroke: #000000; stroke-width: 0.6"/>
      </g>
     </g>
    </g>
    <g id="xtick_6">
     <g id="line2d_10">
      <g>
       <use xlink:href="#mf01bc4a142" x="160.204225" y="378" style="stroke: #000000; stroke-width: 0.6"/>
      </g>
     </g>
    </g>
    <g id="xtick_7">
     <g id="line2d_11">
      <g>
       <use xlink:href="#mf01bc4a142" x="192.029911" y="378" style="stroke: #000000; stroke-width: 0.6"/>
      </g>
     </g>
    </g>
    <g id="xtick_8">
     <g id="line2d_12">
      <g>
       <use xlink:href="#mf01bc4a142" x="214.610595" y="378" style="stroke: #000000; stroke-width: 0.6"/>
      </g>
     </g>
    </g>
    <g id="xtick_9">
     <g id="line2d_13">
      <g>
       <use xlink:href="#mf01bc4a142" x="232.125534" y="378" style="stroke: #000000; stroke-width: 0.6"/>
      </g>
     </g>
    </g>
    <g id="xtick_10">
     <g id="line2d_14">
      <g>
       <use xlink:href="#mf01bc4a142" x="246.436281" y="378" style="stroke: #000000; stroke-width: 0.6"/>
      </g>
     </g>
    </g>
    <g id="xtick_11">
     <g id="line2d_15">
      <g>
       <use xlink:href="#mf01bc4a142" x="258.535845" y="378" style="stroke: #000000; stroke-width: 0.6"/>
      </g>
     </g>
    </g>
    <g id="xtick_12">
     <g id="line2d_16">
      <g>
       <use xlink:href="#mf01bc4a142" x="269.016964" y="378" style="stroke: #000000; stroke-width: 0.6"/>
      </g>
     </g>
    </g>
    <g id="xtick_13">
     <g id="line2d_17">
      <g>
       <use xlink:href="#mf01bc4a142" x="278.261967" y="378" style="stroke: #000000; stroke-width: 0.6"/>
      </g>
     </g>
    </g>
    <g id="xtick_14">
     <g id="line2d_18">
      <g>
       <use xlink:href="#mf01bc4a142" x="340.938273" y="378" style="stroke: #000000; stroke-width: 0.6"/>
      </g>
     </g>
    </g>
    <g id="xtick_15">
     <g id="line2d_19">
      <g>
       <use xlink:href="#mf01bc4a142" x="372.763959" y="378" style="stroke: #000000; stroke-width: 0.6"/>
      </g>
     </g>
    </g>
    <g id="xtick_16">
     <g id="line2d_20">
      <g>
       <use xlink:href="#mf01bc4a142" x="395.344643" y="378" style="stroke: #000000; stroke-width: 0.6"/>
      </g>
     </g>
    </g>
    <g id="xtick_17">
     <g id="line2d_21">
      <g>
       <use xlink:href="#mf01bc4a142" x="412.859582" y="378" style="stroke: #000000; stroke-width: 0.6"/>
      </g>
     </g>
    </g>
    <g id="xtick_18">
     <g id="line2d_22">
      <g>
       <use xlink:href="#mf01bc4a142" x="427.170329" y="378" style="stroke: #000000; stroke-width: 0.6"/>
      </g>
     </g>
    </g>
    <g id="xtick_19">
     <g id="line2d_23">
      <g>
       <use xlink:href="#mf01bc4a142" x="439.269893" y="378" style="stroke: #000000; stroke-width: 0.6"/>
      </g>
     </g>
    </g>
    <g id="xtick_20">
     <g id="line2d_24">
      <g>
       <use xlink:href="#mf01bc4a142" x="449.751013" y="378" style="stroke: #000000; stroke-width: 0.6"/>
      </g>
     </g>
    </g>
    <g id="xtick_21">
     <g id="line2d_25">
      <g>
       <use xlink:href="#mf01bc4a142" x="458.996015" y="378" style="stroke: #000000; stroke-width: 0.6"/>
      </g>
     </g>
    </g>
    <g id="xtick_22">
     <g id="line2d_26">
      <g>
       <use xlink:href="#mf01bc4a142" x="521.672321" y="378" style="stroke: #000000; stroke-width: 0.6"/>
      </g>
     </g>
    </g>
    <g id="xtick_23">
     <g id="line2d_27">
      <g>
       <use xlink:href="#mf01bc4a142" x="553.498008" y="378" style="stroke: #000000; stroke-width: 0.6"/>
      </g>
     </g>
    </g>
    <g id="xtick_24">
     <g id="line2d_28">
      <g>
       <use xlink:href="#mf01bc4a142" x="576.078691" y="378" style="stroke: #000000; stroke-width: 0.6"/>
      </g>
     </g>
    </g>
    <g id="xtick_25">
     <g id="line2d_29">
      <g>
       <use xlink:href="#mf01bc4a142" x="593.59363" y="378" style="stroke: #000000; stroke-width: 0.6"/>
      </g>
     </g>
    </g>
    <g id="xtick_26">
     <g id="line2d_30">
      <g>
       <use xlink:href="#mf01bc4a142" x="607.904377" y="378" style="stroke: #000000; stroke-width: 0.6"/>
      </g>
     </g>
    </g>
    <g id="xtick_27">
     <g id="line2d_31">
      <g>
       <use xlink:href="#mf01bc4a142" x="620.003942" y="378" style="stroke: #000000; stroke-width: 0.6"/>
      </g>
     </g>
    </g>
    <g id="xtick_28">
     <g id="line2d_32">
      <g>
       <use xlink:href="#mf01bc4a142" x="630.485061" y="378" style="stroke: #000000; stroke-width: 0.6"/>
      </g>
     </g>
    </g>
    <g id="xtick_29">
     <g id="line2d_33">
      <g>
       <use xlink:href="#mf01bc4a142" x="639.730063" y="378" style="stroke: #000000; stroke-width: 0.6"/>
      </g>
     </g>
    </g>
    <g id="text_5">
     <!-- Price Paid -->
     <g transform="translate(344.796094 406.276563)scale(0.1 -0.1)">
      <defs>
       <path id="DejaVuSans-50" d="M 1259 4147 
L 1259 2394 
L 2053 2394 
Q 2494 2394 2734 2622 
Q 2975 2850 2975 3272 
Q 2975 3691 2734 3919 
Q 2494 4147 2053 4147 
L 1259 4147 
z
M 628 4666 
L 2053 4666 
Q 2838 4666 3239 4311 
Q 3641 3956 3641 3272 
Q 3641 2581 3239 2228 
Q 2838 1875 2053 1875 
L 1259 1875 
L 1259 0 
L 628 0 
L 628 4666 
z
" transform="scale(0.015625)"/>
       <path id="DejaVuSans-72" d="M 2631 2963 
Q 2534 3019 2420 3045 
Q 2306 3072 2169 3072 
Q 1681 3072 1420 2755 
Q 1159 2438 1159 1844 
L 1159 0 
L 581 0 
L 581 3500 
L 1159 3500 
L 1159 2956 
Q 1341 3275 1631 3429 
Q 1922 3584 2338 3584 
Q 2397 3584 2469 3576 
Q 2541 3569 2628 3553 
L 2631 2963 
z
" transform="scale(0.015625)"/>
       <path id="DejaVuSans-69" d="M 603 3500 
L 1178 3500 
L 1178 0 
L 603 0 
L 603 3500 
z
M 603 4863 
L 1178 4863 
L 1178 4134 
L 603 4134 
L 603 4863 
z
" transform="scale(0.015625)"/>
       <path id="DejaVuSans-63" d="M 3122 3366 
L 3122 2828 
Q 2878 2963 2633 3030 
Q 2388 3097 2138 3097 
Q 1578 3097 1268 2742 
Q 959 2388 959 1747 
Q 959 1106 1268 751 
Q 1578 397 2138 397 
Q 2388 397 2633 464 
Q 2878 531 3122 666 
L 3122 134 
Q 2881 22 2623 -34 
Q 2366 -91 2075 -91 
Q 1284 -91 818 406 
Q 353 903 353 1747 
Q 353 2603 823 3093 
Q 1294 3584 2113 3584 
Q 2378 3584 2631 3529 
Q 2884 3475 3122 3366 
z
" transform="scale(0.015625)"/>
       <path id="DejaVuSans-65" d="M 3597 1894 
L 3597 1613 
L 953 1613 
Q 991 1019 1311 708 
Q 1631 397 2203 397 
Q 2534 397 2845 478 
Q 3156 559 3463 722 
L 3463 178 
Q 3153 47 2828 -22 
Q 2503 -91 2169 -91 
Q 1331 -91 842 396 
Q 353 884 353 1716 
Q 353 2575 817 3079 
Q 1281 3584 2069 3584 
Q 2775 3584 3186 3129 
Q 3597 2675 3597 1894 
z
M 3022 2063 
Q 3016 2534 2758 2815 
Q 2500 3097 2075 3097 
Q 1594 3097 1305 2825 
Q 1016 2553 972 2059 
L 3022 2063 
z
" transform="scale(0.015625)"/>
       <path id="DejaVuSans-20" transform="scale(0.015625)"/>
       <path id="DejaVuSans-61" d="M 2194 1759 
Q 1497 1759 1228 1600 
Q 959 1441 959 1056 
Q 959 750 1161 570 
Q 1363 391 1709 391 
Q 2188 391 2477 730 
Q 2766 1069 2766 1631 
L 2766 1759 
L 2194 1759 
z
M 3341 1997 
L 3341 0 
L 2766 0 
L 2766 531 
Q 2569 213 2275 61 
Q 1981 -91 1556 -91 
Q 1019 -91 701 211 
Q 384 513 384 1019 
Q 384 1609 779 1909 
Q 1175 2209 1959 2209 
L 2766 2209 
L 2766 2266 
Q 2766 2663 2505 2880 
Q 2244 3097 1772 3097 
Q 1472 3097 1187 3025 
Q 903 2953 641 2809 
L 641 3341 
Q 956 3463 1253 3523 
Q 1550 3584 1831 3584 
Q 2591 3584 2966 3190 
Q 3341 2797 3341 1997 
z
" transform="scale(0.015625)"/>
       <path id="DejaVuSans-64" d="M 2906 2969 
L 2906 4863 
L 3481 4863 
L 3481 0 
L 2906 0 
L 2906 525 
Q 2725 213 2448 61 
Q 2172 -91 1784 -91 
Q 1150 -91 751 415 
Q 353 922 353 1747 
Q 353 2572 751 3078 
Q 1150 3584 1784 3584 
Q 2172 3584 2448 3432 
Q 2725 3281 2906 2969 
z
M 947 1747 
Q 947 1113 1208 752 
Q 1469 391 1925 391 
Q 2381 391 2643 752 
Q 2906 1113 2906 1747 
Q 2906 2381 2643 2742 
Q 2381 3103 1925 3103 
Q 1469 3103 1208 2742 
Q 947 2381 947 1747 
z
" transform="scale(0.015625)"/>
      </defs>
      <use xlink:href="#DejaVuSans-50"/>
      <use xlink:href="#DejaVuSans-72" x="58.552734"/>
      <use xlink:href="#DejaVuSans-69" x="99.666016"/>
      <use xlink:href="#DejaVuSans-63" x="127.449219"/>
      <use xlink:href="#DejaVuSans-65" x="182.429688"/>
      <use xlink:href="#DejaVuSans-20" x="243.953125"/>
      <use xlink:href="#DejaVuSans-50" x="275.740234"/>
      <use xlink:href="#DejaVuSans-61" x="331.542969"/>
      <use xlink:href="#DejaVuSans-69" x="392.822266"/>
      <use xlink:href="#DejaVuSans-64" x="420.605469"/>
     </g>
    </g>
   </g>
   <g id="matplotlib.axis_2">
    <g id="ytick_1">
     <g id="line2d_34">
      <path d="M 90 378 
L 648 378 
" clip-path="url(#pdde6b21a7a)" style="fill: none; stroke: #b0b0b0; stroke-width: 0.8; stroke-linecap: square"/>
     </g>
     <g id="line2d_35">
      <defs>
       <path id="mc1b887aebd" d="M 0 0 
L -3.5 0 
" style="stroke: #000000; stroke-width: 0.8"/>
      </defs>
      <g>
       <use xlink:href="#mc1b887aebd" x="90" y="378" style="stroke: #000000; stroke-width: 0.8"/>
      </g>
     </g>
     <g id="text_6">
      <!-- $\mathdefault{10^{-1}}$ -->
      <g transform="translate(59.5 381.799219)scale(0.1 -0.1)">
       <defs>
        <path id="DejaVuSans-2212" d="M 678 2272 
L 4684 2272 
L 4684 1741 
L 678 1741 
L 678 2272 
z
" transform="scale(0.015625)"/>
       </defs>
       <use xlink:href="#DejaVuSans-31" transform="translate(0 0.684375)"/>
       <use xlink:href="#DejaVuSans-30" transform="translate(63.623047 0.684375)"/>
       <use xlink:href="#DejaVuSans-2212" transform="translate(128.203125 38.965625)scale(0.7)"/>
       <use xlink:href="#DejaVuSans-31" transform="translate(186.855469 38.965625)scale(0.7)"/>
      </g>
     </g>
    </g>
    <g id="ytick_2">
     <g id="line2d_36">
      <path d="M 90 279.194476 
L 648 279.194476 
" clip-path="url(#pdde6b21a7a)" style="fill: none; stroke: #b0b0b0; stroke-width: 0.8; stroke-linecap: square"/>
     </g>
     <g id="line2d_37">
      <g>
       <use xlink:href="#mc1b887aebd" x="90" y="279.194476" style="stroke: #000000; stroke-width: 0.8"/>
      </g>
     </g>
     <g id="text_7">
      <!-- $\mathdefault{10^{0}}$ -->
      <g transform="translate(65.4 282.993694)scale(0.1 -0.1)">
       <use xlink:href="#DejaVuSans-31" transform="translate(0 0.765625)"/>
       <use xlink:href="#DejaVuSans-30" transform="translate(63.623047 0.765625)"/>
       <use xlink:href="#DejaVuSans-30" transform="translate(128.203125 39.046875)scale(0.7)"/>
      </g>
     </g>
    </g>
    <g id="ytick_3">
     <g id="line2d_38">
      <path d="M 90 180.388951 
L 648 180.388951 
" clip-path="url(#pdde6b21a7a)" style="fill: none; stroke: #b0b0b0; stroke-width: 0.8; stroke-linecap: square"/>
     </g>
     <g id="line2d_39">
      <g>
       <use xlink:href="#mc1b887aebd" x="90" y="180.388951" style="stroke: #000000; stroke-width: 0.8"/>
      </g>
     </g>
     <g id="text_8">
      <!-- $\mathdefault{10^{1}}$ -->
      <g transform="translate(65.4 184.18817)scale(0.1 -0.1)">
       <use xlink:href="#DejaVuSans-31" transform="translate(0 0.684375)"/>
       <use xlink:href="#DejaVuSans-30" transform="translate(63.623047 0.684375)"/>
       <use xlink:href="#DejaVuSans-31" transform="translate(128.203125 38.965625)scale(0.7)"/>
      </g>
     </g>
    </g>
    <g id="ytick_4">
     <g id="line2d_40">
      <path d="M 90 81.583427 
L 648 81.583427 
" clip-path="url(#pdde6b21a7a)" style="fill: none; stroke: #b0b0b0; stroke-width: 0.8; stroke-linecap: square"/>
     </g>
     <g id="line2d_41">
      <g>
       <use xlink:href="#mc1b887aebd" x="90" y="81.583427" style="stroke: #000000; stroke-width: 0.8"/>
      </g>
     </g>
     <g id="text_9">
      <!-- $\mathdefault{10^{2}}$ -->
      <g transform="translate(65.4 85.382645)scale(0.1 -0.1)">
       <use xlink:href="#DejaVuSans-31" transform="translate(0 0.765625)"/>
       <use xlink:href="#DejaVuSans-30" transform="translate(63.623047 0.765625)"/>
       <use xlink:href="#DejaVuSans-32" transform="translate(128.203125 39.046875)scale(0.7)"/>
      </g>
     </g>
    </g>
    <g id="ytick_5">
     <g id="line2d_42">
      <defs>
       <path id="m59064cacd7" d="M 0 0 
L -2 0 
" style="stroke: #000000; stroke-width: 0.6"/>
      </defs>
      <g>
       <use xlink:href="#m59064cacd7" x="90" y="348.256573" style="stroke: #000000; stroke-width: 0.6"/>
      </g>
     </g>
    </g>
    <g id="ytick_6">
     <g id="line2d_43">
      <g>
       <use xlink:href="#m59064cacd7" x="90" y="330.857784" style="stroke: #000000; stroke-width: 0.6"/>
      </g>
     </g>
    </g>
    <g id="ytick_7">
     <g id="line2d_44">
      <g>
       <use xlink:href="#m59064cacd7" x="90" y="318.513147" style="stroke: #000000; stroke-width: 0.6"/>
      </g>
     </g>
    </g>
    <g id="ytick_8">
     <g id="line2d_45">
      <g>
       <use xlink:href="#m59064cacd7" x="90" y="308.937902" style="stroke: #000000; stroke-width: 0.6"/>
      </g>
     </g>
    </g>
    <g id="ytick_9">
     <g id="line2d_46">
      <g>
       <use xlink:href="#m59064cacd7" x="90" y="301.114358" style="stroke: #000000; stroke-width: 0.6"/>
      </g>
     </g>
    </g>
    <g id="ytick_10">
     <g id="line2d_47">
      <g>
       <use xlink:href="#m59064cacd7" x="90" y="294.499645" style="stroke: #000000; stroke-width: 0.6"/>
      </g>
     </g>
    </g>
    <g id="ytick_11">
     <g id="line2d_48">
      <g>
       <use xlink:href="#m59064cacd7" x="90" y="288.76972" style="stroke: #000000; stroke-width: 0.6"/>
      </g>
     </g>
    </g>
    <g id="ytick_12">
     <g id="line2d_49">
      <g>
       <use xlink:href="#m59064cacd7" x="90" y="283.715568" style="stroke: #000000; stroke-width: 0.6"/>
      </g>
     </g>
    </g>
    <g id="ytick_13">
     <g id="line2d_50">
      <g>
       <use xlink:href="#m59064cacd7" x="90" y="249.451049" style="stroke: #000000; stroke-width: 0.6"/>
      </g>
     </g>
    </g>
    <g id="ytick_14">
     <g id="line2d_51">
      <g>
       <use xlink:href="#m59064cacd7" x="90" y="232.05226" style="stroke: #000000; stroke-width: 0.6"/>
      </g>
     </g>
    </g>
    <g id="ytick_15">
     <g id="line2d_52">
      <g>
       <use xlink:href="#m59064cacd7" x="90" y="219.707622" style="stroke: #000000; stroke-width: 0.6"/>
      </g>
     </g>
    </g>
    <g id="ytick_16">
     <g id="line2d_53">
      <g>
       <use xlink:href="#m59064cacd7" x="90" y="210.132378" style="stroke: #000000; stroke-width: 0.6"/>
      </g>
     </g>
    </g>
    <g id="ytick_17">
     <g id="line2d_54">
      <g>
       <use xlink:href="#m59064cacd7" x="90" y="202.308833" style="stroke: #000000; stroke-width: 0.6"/>
      </g>
     </g>
    </g>
    <g id="ytick_18">
     <g id="line2d_55">
      <g>
       <use xlink:href="#m59064cacd7" x="90" y="195.69412" style="stroke: #000000; stroke-width: 0.6"/>
      </g>
     </g>
    </g>
    <g id="ytick_19">
     <g id="line2d_56">
      <g>
       <use xlink:href="#m59064cacd7" x="90" y="189.964196" style="stroke: #000000; stroke-width: 0.6"/>
      </g>
     </g>
    </g>
    <g id="ytick_20">
     <g id="line2d_57">
      <g>
       <use xlink:href="#m59064cacd7" x="90" y="184.910044" style="stroke: #000000; stroke-width: 0.6"/>
      </g>
     </g>
    </g>
    <g id="ytick_21">
     <g id="line2d_58">
      <g>
       <use xlink:href="#m59064cacd7" x="90" y="150.645524" style="stroke: #000000; stroke-width: 0.6"/>
      </g>
     </g>
    </g>
    <g id="ytick_22">
     <g id="line2d_59">
      <g>
       <use xlink:href="#m59064cacd7" x="90" y="133.246735" style="stroke: #000000; stroke-width: 0.6"/>
      </g>
     </g>
    </g>
    <g id="ytick_23">
     <g id="line2d_60">
      <g>
       <use xlink:href="#m59064cacd7" x="90" y="120.902098" style="stroke: #000000; stroke-width: 0.6"/>
      </g>
     </g>
    </g>
    <g id="ytick_24">
     <g id="line2d_61">
      <g>
       <use xlink:href="#m59064cacd7" x="90" y="111.326853" style="stroke: #000000; stroke-width: 0.6"/>
      </g>
     </g>
    </g>
    <g id="ytick_25">
     <g id="line2d_62">
      <g>
       <use xlink:href="#m59064cacd7" x="90" y="103.503309" style="stroke: #000000; stroke-width: 0.6"/>
      </g>
     </g>
    </g>
    <g id="ytick_26">
     <g id="line2d_63">
      <g>
       <use xlink:href="#m59064cacd7" x="90" y="96.888596" style="stroke: #000000; stroke-width: 0.6"/>
      </g>
     </g>
    </g>
    <g id="ytick_27">
     <g id="line2d_64">
      <g>
       <use xlink:href="#m59064cacd7" x="90" y="91.158671" style="stroke: #000000; stroke-width: 0.6"/>
      </g>
     </g>
    </g>
    <g id="ytick_28">
     <g id="line2d_65">
      <g>
       <use xlink:href="#m59064cacd7" x="90" y="86.104519" style="stroke: #000000; stroke-width: 0.6"/>
      </g>
     </g>
    </g>
    <g id="ytick_29">
     <g id="line2d_66">
      <g>
       <use xlink:href="#m59064cacd7" x="90" y="51.84" style="stroke: #000000; stroke-width: 0.6"/>
      </g>
     </g>
    </g>
    <g id="text_10">
     <!-- Average Pellet Count -->
     <g transform="translate(53.420312 267.204375)rotate(-90)scale(0.1 -0.1)">
      <defs>
       <path id="DejaVuSans-41" d="M 2188 4044 
L 1331 1722 
L 3047 1722 
L 2188 4044 
z
M 1831 4666 
L 2547 4666 
L 4325 0 
L 3669 0 
L 3244 1197 
L 1141 1197 
L 716 0 
L 50 0 
L 1831 4666 
z
" transform="scale(0.015625)"/>
       <path id="DejaVuSans-76" d="M 191 3500 
L 800 3500 
L 1894 563 
L 2988 3500 
L 3597 3500 
L 2284 0 
L 1503 0 
L 191 3500 
z
" transform="scale(0.015625)"/>
       <path id="DejaVuSans-67" d="M 2906 1791 
Q 2906 2416 2648 2759 
Q 2391 3103 1925 3103 
Q 1463 3103 1205 2759 
Q 947 2416 947 1791 
Q 947 1169 1205 825 
Q 1463 481 1925 481 
Q 2391 481 2648 825 
Q 2906 1169 2906 1791 
z
M 3481 434 
Q 3481 -459 3084 -895 
Q 2688 -1331 1869 -1331 
Q 1566 -1331 1297 -1286 
Q 1028 -1241 775 -1147 
L 775 -588 
Q 1028 -725 1275 -790 
Q 1522 -856 1778 -856 
Q 2344 -856 2625 -561 
Q 2906 -266 2906 331 
L 2906 616 
Q 2728 306 2450 153 
Q 2172 0 1784 0 
Q 1141 0 747 490 
Q 353 981 353 1791 
Q 353 2603 747 3093 
Q 1141 3584 1784 3584 
Q 2172 3584 2450 3431 
Q 2728 3278 2906 2969 
L 2906 3500 
L 3481 3500 
L 3481 434 
z
" transform="scale(0.015625)"/>
       <path id="DejaVuSans-6c" d="M 603 4863 
L 1178 4863 
L 1178 0 
L 603 0 
L 603 4863 
z
" transform="scale(0.015625)"/>
       <path id="DejaVuSans-74" d="M 1172 4494 
L 1172 3500 
L 2356 3500 
L 2356 3053 
L 1172 3053 
L 1172 1153 
Q 1172 725 1289 603 
Q 1406 481 1766 481 
L 2356 481 
L 2356 0 
L 1766 0 
Q 1100 0 847 248 
Q 594 497 594 1153 
L 594 3053 
L 172 3053 
L 172 3500 
L 594 3500 
L 594 4494 
L 1172 4494 
z
" transform="scale(0.015625)"/>
       <path id="DejaVuSans-43" d="M 4122 4306 
L 4122 3641 
Q 3803 3938 3442 4084 
Q 3081 4231 2675 4231 
Q 1875 4231 1450 3742 
Q 1025 3253 1025 2328 
Q 1025 1406 1450 917 
Q 1875 428 2675 428 
Q 3081 428 3442 575 
Q 3803 722 4122 1019 
L 4122 359 
Q 3791 134 3420 21 
Q 3050 -91 2638 -91 
Q 1578 -91 968 557 
Q 359 1206 359 2328 
Q 359 3453 968 4101 
Q 1578 4750 2638 4750 
Q 3056 4750 3426 4639 
Q 3797 4528 4122 4306 
z
" transform="scale(0.015625)"/>
       <path id="DejaVuSans-6f" d="M 1959 3097 
Q 1497 3097 1228 2736 
Q 959 2375 959 1747 
Q 959 1119 1226 758 
Q 1494 397 1959 397 
Q 2419 397 2687 759 
Q 2956 1122 2956 1747 
Q 2956 2369 2687 2733 
Q 2419 3097 1959 3097 
z
M 1959 3584 
Q 2709 3584 3137 3096 
Q 3566 2609 3566 1747 
Q 3566 888 3137 398 
Q 2709 -91 1959 -91 
Q 1206 -91 779 398 
Q 353 888 353 1747 
Q 353 2609 779 3096 
Q 1206 3584 1959 3584 
z
" transform="scale(0.015625)"/>
       <path id="DejaVuSans-75" d="M 544 1381 
L 544 3500 
L 1119 3500 
L 1119 1403 
Q 1119 906 1312 657 
Q 1506 409 1894 409 
Q 2359 409 2629 706 
Q 2900 1003 2900 1516 
L 2900 3500 
L 3475 3500 
L 3475 0 
L 2900 0 
L 2900 538 
Q 2691 219 2414 64 
Q 2138 -91 1772 -91 
Q 1169 -91 856 284 
Q 544 659 544 1381 
z
M 1991 3584 
L 1991 3584 
z
" transform="scale(0.015625)"/>
       <path id="DejaVuSans-6e" d="M 3513 2113 
L 3513 0 
L 2938 0 
L 2938 2094 
Q 2938 2591 2744 2837 
Q 2550 3084 2163 3084 
Q 1697 3084 1428 2787 
Q 1159 2491 1159 1978 
L 1159 0 
L 581 0 
L 581 3500 
L 1159 3500 
L 1159 2956 
Q 1366 3272 1645 3428 
Q 1925 3584 2291 3584 
Q 2894 3584 3203 3211 
Q 3513 2838 3513 2113 
z
" transform="scale(0.015625)"/>
      </defs>
      <use xlink:href="#DejaVuSans-41"/>
      <use xlink:href="#DejaVuSans-76" x="62.533203"/>
      <use xlink:href="#DejaVuSans-65" x="121.712891"/>
      <use xlink:href="#DejaVuSans-72" x="183.236328"/>
      <use xlink:href="#DejaVuSans-61" x="224.349609"/>
      <use xlink:href="#DejaVuSans-67" x="285.628906"/>
      <use xlink:href="#DejaVuSans-65" x="349.105469"/>
      <use xlink:href="#DejaVuSans-20" x="410.628906"/>
      <use xlink:href="#DejaVuSans-50" x="442.416016"/>
      <use xlink:href="#DejaVuSans-65" x="499.09375"/>
      <use xlink:href="#DejaVuSans-6c" x="560.617188"/>
      <use xlink:href="#DejaVuSans-6c" x="588.400391"/>
      <use xlink:href="#DejaVuSans-65" x="616.183594"/>
      <use xlink:href="#DejaVuSans-74" x="677.707031"/>
      <use xlink:href="#DejaVuSans-20" x="716.916016"/>
      <use xlink:href="#DejaVuSans-43" x="748.703125"/>
      <use xlink:href="#DejaVuSans-6f" x="818.527344"/>
      <use xlink:href="#DejaVuSans-75" x="879.708984"/>
      <use xlink:href="#DejaVuSans-6e" x="943.087891"/>
      <use xlink:href="#DejaVuSans-74" x="1006.466797"/>
     </g>
    </g>
   </g>
   <g id="line2d_67">
    <path d="M 105.797855 219.707622 
L 160.204225 219.707622 
L 192.029911 249.451049 
L 214.610595 249.451049 
L 232.125534 249.451049 
L 246.436281 249.451049 
L 258.535845 249.451049 
L 278.261967 279.194476 
L 286.531903 279.194476 
" clip-path="url(#pdde6b21a7a)" style="fill: none; stroke: #ff0000; stroke-opacity: 0.3; stroke-linecap: square"/>
   </g>
   <g id="line2d_68">
    <path d="M 105.797855 202.308833 
L 160.204225 202.308833 
L 192.029911 232.05226 
L 214.610595 232.05226 
L 232.125534 232.05226 
L 246.436281 232.05226 
L 258.535845 219.707622 
L 278.261967 219.707622 
L 286.531903 219.707622 
L 300.84265 219.707622 
L 307.125347 232.05226 
L 318.357589 232.05226 
L 328.18187 232.05226 
L 340.938273 232.05226 
L 348.419341 232.05226 
L 358.453212 249.451049 
" clip-path="url(#pdde6b21a7a)" style="fill: none; stroke: #ff0000; stroke-opacity: 0.3; stroke-linecap: square"/>
   </g>
   <g id="line2d_69">
    <path d="M 105.797855 189.964196 
L 160.204225 195.69412 
L 192.029911 232.05226 
L 214.610595 232.05226 
L 232.125534 232.05226 
L 246.436281 232.05226 
L 258.535845 232.05226 
L 278.261967 232.05226 
L 286.531903 232.05226 
L 300.84265 232.05226 
L 307.125347 279.194476 
L 318.357589 279.194476 
L 328.18187 279.194476 
L 340.938273 279.194476 
" clip-path="url(#pdde6b21a7a)" style="fill: none; stroke: #ff0000; stroke-opacity: 0.3; stroke-linecap: square"/>
   </g>
   <g id="line2d_70">
    <path d="M 105.797855 202.308833 
L 160.204225 202.308833 
L 192.029911 232.05226 
L 214.610595 232.05226 
L 232.125534 249.451049 
L 246.436281 249.451049 
L 258.535845 279.194476 
L 278.261967 279.194476 
L 286.531903 279.194476 
L 300.84265 279.194476 
L 307.125347 279.194476 
L 318.357589 279.194476 
L 328.18187 279.194476 
L 340.938273 279.194476 
L 348.419341 279.194476 
L 358.453212 279.194476 
L 367.348585 279.194476 
L 377.829704 279.194476 
L 387.074706 279.194476 
L 395.344643 279.194476 
L 404.589645 279.194476 
L 412.859582 279.194476 
" clip-path="url(#pdde6b21a7a)" style="fill: none; stroke: #ff0000; stroke-opacity: 0.3; stroke-linecap: square"/>
   </g>
   <g id="line2d_71">
    <path d="M 105.797855 172.565407 
L 160.204225 172.565407 
L 192.029911 210.132378 
L 214.610595 210.132378 
L 232.125534 219.707622 
L 246.436281 232.05226 
L 258.535845 249.451049 
L 278.261967 249.451049 
L 286.531903 279.194476 
L 300.84265 279.194476 
L 307.125347 279.194476 
L 318.357589 279.194476 
L 328.18187 279.194476 
L 340.938273 279.194476 
L 348.419341 279.194476 
L 358.453212 279.194476 
" clip-path="url(#pdde6b21a7a)" style="fill: none; stroke: #ff0000; stroke-opacity: 0.3; stroke-linecap: square"/>
   </g>
   <g id="line2d_72">
    <path d="M 105.797855 169.130718 
L 160.204225 176.299125 
L 192.029911 219.707622 
L 214.610595 232.05226 
L 232.125534 249.451049 
L 246.436281 249.451049 
L 258.535845 249.451049 
L 278.261967 249.451049 
L 286.531903 279.194476 
L 300.84265 279.194476 
L 307.125347 279.194476 
L 318.357589 279.194476 
L 328.18187 279.194476 
L 340.938273 279.194476 
" clip-path="url(#pdde6b21a7a)" style="fill: none; stroke: #ff0000; stroke-opacity: 0.3; stroke-linecap: square"/>
   </g>
   <g id="line2d_73">
    <path d="M 105.797855 202.308833 
L 160.204225 202.308833 
L 192.029911 232.05226 
L 214.610595 232.05226 
L 232.125534 232.05226 
L 246.436281 232.05226 
L 258.535845 249.451049 
L 278.261967 249.451049 
L 286.531903 249.451049 
L 300.84265 249.451049 
L 307.125347 249.451049 
L 318.357589 279.194476 
L 328.18187 279.194476 
L 340.938273 279.194476 
L 348.419341 279.194476 
L 358.453212 279.194476 
L 367.348585 279.194476 
L 377.829704 279.194476 
L 387.074706 279.194476 
" clip-path="url(#pdde6b21a7a)" style="fill: none; stroke: #ff0000; stroke-opacity: 0.3; stroke-linecap: square"/>
   </g>
   <g id="line2d_74">
    <path d="M 105.797855 180.388951 
L 160.204225 180.388951 
L 192.029911 219.707622 
L 214.610595 219.707622 
L 232.125534 232.05226 
L 246.436281 232.05226 
L 258.535845 232.05226 
L 278.261967 249.451049 
L 286.531903 249.451049 
L 300.84265 249.451049 
L 307.125347 249.451049 
L 318.357589 249.451049 
L 328.18187 279.194476 
" clip-path="url(#pdde6b21a7a)" style="fill: none; stroke: #ff0000; stroke-opacity: 0.3; stroke-linecap: square"/>
   </g>
   <g id="line2d_75">
    <path d="M 105.797855 189.964196 
L 160.204225 189.964196 
L 192.029911 210.132378 
L 214.610595 210.132378 
L 232.125534 210.132378 
L 246.436281 210.132378 
L 258.535845 219.707622 
L 278.261967 232.05226 
L 286.531903 232.05226 
L 300.84265 279.194476 
L 307.125347 279.194476 
L 318.357589 279.194476 
L 328.18187 279.194476 
L 340.938273 279.194476 
L 348.419341 279.194476 
L 358.453212 279.194476 
L 367.348585 279.194476 
L 377.829704 279.194476 
" clip-path="url(#pdde6b21a7a)" style="fill: none; stroke: #ff0000; stroke-opacity: 0.3; stroke-linecap: square"/>
   </g>
   <g id="line2d_76">
    <path d="M 105.797855 202.308833 
L 160.204225 202.308833 
L 192.029911 232.05226 
L 214.610595 249.451049 
L 232.125534 249.451049 
L 246.436281 249.451049 
L 258.535845 249.451049 
L 278.261967 249.451049 
L 286.531903 249.451049 
L 300.84265 279.194476 
L 307.125347 279.194476 
L 318.357589 279.194476 
L 328.18187 279.194476 
L 340.938273 279.194476 
L 348.419341 279.194476 
" clip-path="url(#pdde6b21a7a)" style="fill: none; stroke: #ff0000; stroke-opacity: 0.3; stroke-linecap: square"/>
   </g>
   <g id="line2d_77">
    <path d="M 105.797855 189.964196 
L 160.204225 189.964196 
L 192.029911 219.707622 
L 214.610595 232.05226 
L 232.125534 249.451049 
L 246.436281 249.451049 
L 258.535845 249.451049 
L 278.261967 249.451049 
L 286.531903 249.451049 
L 300.84265 249.451049 
L 307.125347 279.194476 
L 318.357589 279.194476 
L 328.18187 279.194476 
L 340.938273 279.194476 
L 348.419341 279.194476 
L 358.453212 279.194476 
" clip-path="url(#pdde6b21a7a)" style="fill: none; stroke: #ff0000; stroke-opacity: 0.3; stroke-linecap: square"/>
   </g>
   <g id="line2d_78">
    <path d="M 105.797855 202.308833 
L 160.204225 202.308833 
L 192.029911 232.05226 
L 214.610595 232.05226 
L 232.125534 232.05226 
L 246.436281 232.05226 
L 258.535845 232.05226 
L 278.261967 232.05226 
L 286.531903 232.05226 
L 300.84265 232.05226 
L 307.125347 249.451049 
L 318.357589 249.451049 
L 328.18187 279.194476 
L 340.938273 279.194476 
L 348.419341 279.194476 
L 358.453212 279.194476 
L 367.348585 279.194476 
L 377.829704 279.194476 
" clip-path="url(#pdde6b21a7a)" style="fill: none; stroke: #ff0000; stroke-opacity: 0.3; stroke-linecap: square"/>
   </g>
   <g id="line2d_79">
    <path d="M 105.797855 202.308833 
L 160.204225 202.308833 
L 192.029911 232.05226 
L 214.610595 219.707622 
L 232.125534 232.05226 
L 246.436281 232.05226 
L 258.535845 249.451049 
L 278.261967 249.451049 
L 286.531903 249.451049 
L 300.84265 249.451049 
L 307.125347 249.451049 
L 318.357589 249.451049 
L 328.18187 279.194476 
L 340.938273 279.194476 
L 348.419341 279.194476 
L 358.453212 279.194476 
" clip-path="url(#pdde6b21a7a)" style="fill: none; stroke: #ff0000; stroke-opacity: 0.3; stroke-linecap: square"/>
   </g>
   <g id="line2d_80">
    <path d="M 105.797855 249.451049 
L 160.204225 249.451049 
L 192.029911 279.194476 
L 214.610595 279.194476 
L 232.125534 279.194476 
L 246.436281 279.194476 
L 258.535845 279.194476 
L 278.261967 279.194476 
L 286.531903 279.194476 
L 300.84265 279.194476 
L 307.125347 249.451049 
L 318.357589 249.451049 
L 328.18187 249.451049 
L 340.938273 249.451049 
L 348.419341 249.451049 
L 358.453212 249.451049 
L 367.348585 249.451049 
L 377.829704 249.451049 
L 387.074706 279.194476 
L 395.344643 279.194476 
L 404.589645 279.194476 
L 412.859582 279.194476 
L 421.754954 279.194476 
" clip-path="url(#pdde6b21a7a)" style="fill: none; stroke: #ff0000; stroke-opacity: 0.3; stroke-linecap: square"/>
   </g>
   <g id="line2d_81">
    <path d="M 105.797855 189.964196 
L 160.204225 189.964196 
L 192.029911 232.05226 
L 214.610595 232.05226 
L 232.125534 232.05226 
L 246.436281 232.05226 
L 258.535845 232.05226 
L 278.261967 232.05226 
L 286.531903 232.05226 
L 300.84265 232.05226 
L 307.125347 279.194476 
L 318.357589 279.194476 
L 328.18187 279.194476 
L 340.938273 279.194476 
" clip-path="url(#pdde6b21a7a)" style="fill: none; stroke: #ff0000; stroke-opacity: 0.3; stroke-linecap: square"/>
   </g>
   <g id="line2d_82">
    <path d="M 105.797855 180.388951 
L 160.204225 180.388951 
L 192.029911 210.132378 
L 214.610595 210.132378 
L 232.125534 210.132378 
L 246.436281 210.132378 
L 258.535845 210.132378 
L 278.261967 210.132378 
L 286.531903 249.451049 
L 300.84265 249.451049 
L 307.125347 249.451049 
L 318.357589 249.451049 
L 328.18187 279.194476 
L 340.938273 279.194476 
L 348.419341 279.194476 
L 358.453212 279.194476 
" clip-path="url(#pdde6b21a7a)" style="fill: none; stroke: #ff0000; stroke-opacity: 0.3; stroke-linecap: square"/>
   </g>
   <g id="line2d_83">
    <path d="M 105.797855 180.388951 
L 160.204225 180.388951 
L 192.029911 210.132378 
L 214.610595 219.707622 
L 232.125534 249.451049 
L 246.436281 249.451049 
L 258.535845 249.451049 
L 278.261967 279.194476 
L 286.531903 279.194476 
L 300.84265 279.194476 
L 307.125347 279.194476 
L 318.357589 279.194476 
L 328.18187 279.194476 
L 340.938273 279.194476 
L 348.419341 279.194476 
" clip-path="url(#pdde6b21a7a)" style="fill: none; stroke: #ff0000; stroke-opacity: 0.3; stroke-linecap: square"/>
   </g>
   <g id="line2d_84">
    <path d="M 105.797855 165.950694 
L 160.204225 169.130718 
L 192.029911 202.308833 
L 214.610595 202.308833 
L 232.125534 202.308833 
L 246.436281 219.707622 
L 258.535845 232.05226 
L 278.261967 279.194476 
L 286.531903 279.194476 
L 300.84265 279.194476 
L 307.125347 279.194476 
" clip-path="url(#pdde6b21a7a)" style="fill: none; stroke: #ff0000; stroke-opacity: 0.3; stroke-linecap: square"/>
   </g>
   <g id="LineCollection_1">
    <path d="M 105.797855 194.424214 
L 105.797855 186.470296 
" clip-path="url(#pdde6b21a7a)" style="fill: none; stroke: #ff0000; stroke-width: 1.5"/>
    <path d="M 160.204225 195.378856 
L 160.204225 187.907239 
" clip-path="url(#pdde6b21a7a)" style="fill: none; stroke: #ff0000; stroke-width: 1.5"/>
    <path d="M 192.029911 227.72815 
L 192.029911 220.748328 
" clip-path="url(#pdde6b21a7a)" style="fill: none; stroke: #ff0000; stroke-width: 1.5"/>
    <path d="M 214.610595 229.95221 
L 214.610595 222.609765 
" clip-path="url(#pdde6b21a7a)" style="fill: none; stroke: #ff0000; stroke-width: 1.5"/>
    <path d="M 232.125534 236.613025 
L 232.125534 227.930002 
" clip-path="url(#pdde6b21a7a)" style="fill: none; stroke: #ff0000; stroke-width: 1.5"/>
    <path d="M 246.436281 238.400407 
L 246.436281 230.933912 
" clip-path="url(#pdde6b21a7a)" style="fill: none; stroke: #ff0000; stroke-width: 1.5"/>
    <path d="M 258.535845 243.266787 
L 258.535845 234.99644 
" clip-path="url(#pdde6b21a7a)" style="fill: none; stroke: #ff0000; stroke-width: 1.5"/>
    <path d="M 278.261967 250.327558 
L 278.261967 240.136068 
" clip-path="url(#pdde6b21a7a)" style="fill: none; stroke: #ff0000; stroke-width: 1.5"/>
    <path d="M 286.531903 255.836952 
L 286.531903 246.040706 
" clip-path="url(#pdde6b21a7a)" style="fill: none; stroke: #ff0000; stroke-width: 1.5"/>
    <path d="M 300.84265 261.85099 
L 300.84265 250.617267 
" clip-path="url(#pdde6b21a7a)" style="fill: none; stroke: #ff0000; stroke-width: 1.5"/>
    <path d="M 307.125347 269.903436 
L 307.125347 260.777173 
" clip-path="url(#pdde6b21a7a)" style="fill: none; stroke: #ff0000; stroke-width: 1.5"/>
    <path d="M 318.357589 273.969592 
L 318.357589 263.964493 
" clip-path="url(#pdde6b21a7a)" style="fill: none; stroke: #ff0000; stroke-width: 1.5"/>
    <path d="M 328.18187 282.430714 
L 328.18187 271.95579 
" clip-path="url(#pdde6b21a7a)" style="fill: none; stroke: #ff0000; stroke-width: 1.5"/>
    <path d="M 340.938273 285.275864 
L 340.938273 273.868939 
" clip-path="url(#pdde6b21a7a)" style="fill: none; stroke: #ff0000; stroke-width: 1.5"/>
    <path d="M 348.419341 295.314973 
L 348.419341 280.068328 
" clip-path="url(#pdde6b21a7a)" style="fill: none; stroke: #ff0000; stroke-width: 1.5"/>
    <path d="M 358.453212 303.520202 
L 358.453212 290.630654 
" clip-path="url(#pdde6b21a7a)" style="fill: none; stroke: #ff0000; stroke-width: 1.5"/>
    <path d="M 367.348585 342.648351 
L 367.348585 314.546125 
" clip-path="url(#pdde6b21a7a)" style="fill: none; stroke: #ff0000; stroke-width: 1.5"/>
    <path d="M 377.829704 342.648351 
L 377.829704 314.546125 
" clip-path="url(#pdde6b21a7a)" style="fill: none; stroke: #ff0000; stroke-width: 1.5"/>
    <path d="M 387.074706 356.080118 
L 387.074706 356.080118 
" clip-path="url(#pdde6b21a7a)" style="fill: none; stroke: #ff0000; stroke-width: 1.5"/>
    <path d="M 395.344643 373.478907 
L 395.344643 373.478907 
" clip-path="url(#pdde6b21a7a)" style="fill: none; stroke: #ff0000; stroke-width: 1.5"/>
    <path d="M 404.589645 373.478907 
L 404.589645 373.478907 
" clip-path="url(#pdde6b21a7a)" style="fill: none; stroke: #ff0000; stroke-width: 1.5"/>
    <path d="M 412.859582 373.478907 
L 412.859582 373.478907 
" clip-path="url(#pdde6b21a7a)" style="fill: none; stroke: #ff0000; stroke-width: 1.5"/>
    <path clip-path="url(#pdde6b21a7a)" style="fill: none; stroke: #ff0000; stroke-width: 1.5"/>
   </g>
   <g id="line2d_85">
    <defs>
     <path id="m8d7a4701f9" d="M 3 0 
L -3 -0 
" style="stroke: #ff0000"/>
    </defs>
    <g clip-path="url(#pdde6b21a7a)">
     <use xlink:href="#m8d7a4701f9" x="105.797855" y="194.424214" style="fill: #ff0000; stroke: #ff0000"/>
     <use xlink:href="#m8d7a4701f9" x="160.204225" y="195.378856" style="fill: #ff0000; stroke: #ff0000"/>
     <use xlink:href="#m8d7a4701f9" x="192.029911" y="227.72815" style="fill: #ff0000; stroke: #ff0000"/>
     <use xlink:href="#m8d7a4701f9" x="214.610595" y="229.95221" style="fill: #ff0000; stroke: #ff0000"/>
     <use xlink:href="#m8d7a4701f9" x="232.125534" y="236.613025" style="fill: #ff0000; stroke: #ff0000"/>
     <use xlink:href="#m8d7a4701f9" x="246.436281" y="238.400407" style="fill: #ff0000; stroke: #ff0000"/>
     <use xlink:href="#m8d7a4701f9" x="258.535845" y="243.266787" style="fill: #ff0000; stroke: #ff0000"/>
     <use xlink:href="#m8d7a4701f9" x="278.261967" y="250.327558" style="fill: #ff0000; stroke: #ff0000"/>
     <use xlink:href="#m8d7a4701f9" x="286.531903" y="255.836952" style="fill: #ff0000; stroke: #ff0000"/>
     <use xlink:href="#m8d7a4701f9" x="300.84265" y="261.85099" style="fill: #ff0000; stroke: #ff0000"/>
     <use xlink:href="#m8d7a4701f9" x="307.125347" y="269.903436" style="fill: #ff0000; stroke: #ff0000"/>
     <use xlink:href="#m8d7a4701f9" x="318.357589" y="273.969592" style="fill: #ff0000; stroke: #ff0000"/>
     <use xlink:href="#m8d7a4701f9" x="328.18187" y="282.430714" style="fill: #ff0000; stroke: #ff0000"/>
     <use xlink:href="#m8d7a4701f9" x="340.938273" y="285.275864" style="fill: #ff0000; stroke: #ff0000"/>
     <use xlink:href="#m8d7a4701f9" x="348.419341" y="295.314973" style="fill: #ff0000; stroke: #ff0000"/>
     <use xlink:href="#m8d7a4701f9" x="358.453212" y="303.520202" style="fill: #ff0000; stroke: #ff0000"/>
     <use xlink:href="#m8d7a4701f9" x="367.348585" y="342.648351" style="fill: #ff0000; stroke: #ff0000"/>
     <use xlink:href="#m8d7a4701f9" x="377.829704" y="342.648351" style="fill: #ff0000; stroke: #ff0000"/>
     <use xlink:href="#m8d7a4701f9" x="387.074706" y="356.080118" style="fill: #ff0000; stroke: #ff0000"/>
     <use xlink:href="#m8d7a4701f9" x="395.344643" y="373.478907" style="fill: #ff0000; stroke: #ff0000"/>
     <use xlink:href="#m8d7a4701f9" x="404.589645" y="373.478907" style="fill: #ff0000; stroke: #ff0000"/>
     <use xlink:href="#m8d7a4701f9" x="412.859582" y="373.478907" style="fill: #ff0000; stroke: #ff0000"/>
    </g>
   </g>
   <g id="line2d_86">
    <g clip-path="url(#pdde6b21a7a)">
     <use xlink:href="#m8d7a4701f9" x="105.797855" y="186.470296" style="fill: #ff0000; stroke: #ff0000"/>
     <use xlink:href="#m8d7a4701f9" x="160.204225" y="187.907239" style="fill: #ff0000; stroke: #ff0000"/>
     <use xlink:href="#m8d7a4701f9" x="192.029911" y="220.748328" style="fill: #ff0000; stroke: #ff0000"/>
     <use xlink:href="#m8d7a4701f9" x="214.610595" y="222.609765" style="fill: #ff0000; stroke: #ff0000"/>
     <use xlink:href="#m8d7a4701f9" x="232.125534" y="227.930002" style="fill: #ff0000; stroke: #ff0000"/>
     <use xlink:href="#m8d7a4701f9" x="246.436281" y="230.933912" style="fill: #ff0000; stroke: #ff0000"/>
     <use xlink:href="#m8d7a4701f9" x="258.535845" y="234.99644" style="fill: #ff0000; stroke: #ff0000"/>
     <use xlink:href="#m8d7a4701f9" x="278.261967" y="240.136068" style="fill: #ff0000; stroke: #ff0000"/>
     <use xlink:href="#m8d7a4701f9" x="286.531903" y="246.040706" style="fill: #ff0000; stroke: #ff0000"/>
     <use xlink:href="#m8d7a4701f9" x="300.84265" y="250.617267" style="fill: #ff0000; stroke: #ff0000"/>
     <use xlink:href="#m8d7a4701f9" x="307.125347" y="260.777173" style="fill: #ff0000; stroke: #ff0000"/>
     <use xlink:href="#m8d7a4701f9" x="318.357589" y="263.964493" style="fill: #ff0000; stroke: #ff0000"/>
     <use xlink:href="#m8d7a4701f9" x="328.18187" y="271.95579" style="fill: #ff0000; stroke: #ff0000"/>
     <use xlink:href="#m8d7a4701f9" x="340.938273" y="273.868939" style="fill: #ff0000; stroke: #ff0000"/>
     <use xlink:href="#m8d7a4701f9" x="348.419341" y="280.068328" style="fill: #ff0000; stroke: #ff0000"/>
     <use xlink:href="#m8d7a4701f9" x="358.453212" y="290.630654" style="fill: #ff0000; stroke: #ff0000"/>
     <use xlink:href="#m8d7a4701f9" x="367.348585" y="314.546125" style="fill: #ff0000; stroke: #ff0000"/>
     <use xlink:href="#m8d7a4701f9" x="377.829704" y="314.546125" style="fill: #ff0000; stroke: #ff0000"/>
     <use xlink:href="#m8d7a4701f9" x="387.074706" y="356.080118" style="fill: #ff0000; stroke: #ff0000"/>
     <use xlink:href="#m8d7a4701f9" x="395.344643" y="373.478907" style="fill: #ff0000; stroke: #ff0000"/>
     <use xlink:href="#m8d7a4701f9" x="404.589645" y="373.478907" style="fill: #ff0000; stroke: #ff0000"/>
     <use xlink:href="#m8d7a4701f9" x="412.859582" y="373.478907" style="fill: #ff0000; stroke: #ff0000"/>
    </g>
   </g>
   <g id="line2d_87">
    <path d="M 105.797855 222.273869 
L 140.290368 222.888157 
L 164.17124 223.511366 
L 187.713123 224.356646 
L 205.799182 225.218913 
L 223.768043 226.321697 
L 238.379954 227.453573 
L 250.69393 228.616114 
L 261.335474 229.811031 
L 272.45183 231.290289 
L 282.187375 232.822368 
L 290.84755 234.41118 
L 298.646467 236.061088 
L 305.740041 237.776981 
L 312.245342 239.564357 
L 318.252513 241.42943 
L 323.832445 243.379266 
L 329.041894 245.421936 
L 333.92701 247.566724 
L 338.525821 249.82438 
L 342.870038 252.207447 
L 346.986375 254.730682 
L 350.897555 257.411608 
L 354.623059 260.271258 
L 357.598024 262.809088 
L 360.464338 265.506497 
L 363.229658 268.38491 
L 365.900862 271.470376 
L 368.484143 274.795009 
L 370.985107 278.399026 
L 373.408838 282.333725 
L 375.759964 286.665976 
L 377.591439 290.477113 
L 379.381152 294.660026 
L 381.130966 299.295166 
L 382.84262 304.492305 
L 384.517744 310.406773 
L 385.751036 315.447697 
L 386.965249 321.16062 
L 388.160965 327.752675 
L 389.338739 335.544519 
L 390.499101 345.072256 
L 391.263254 352.848345 
L 392.02004 362.352505 
L 392.769598 374.57893 
L 393.512066 391.742266 
L 393.880683 403.852735 
L 394.404735 433 
L 394.404735 433 
" clip-path="url(#pdde6b21a7a)" style="fill: none; stroke-dasharray: 7.4,3.2; stroke-dashoffset: 0; stroke: #000000; stroke-width: 2"/>
   </g>
   <g id="line2d_88">
    <path d="M 105.797855 190.263226 
L 119.051458 186.292395 
L 130.387105 184.730257 
L 140.290368 184.982244 
L 149.082967 186.726025 
L 156.989094 189.774152 
L 164.17124 194.003311 
L 170.750945 199.30107 
L 176.821501 205.502854 
L 182.456078 212.294228 
L 187.713123 219.058554 
L 192.640067 224.701291 
L 197.275927 228.061686 
L 201.653188 229.173958 
L 205.799182 228.687368 
L 213.486903 226.330793 
L 217.065682 226.017473 
L 220.48838 226.594675 
L 223.768043 227.797139 
L 226.91615 229.359884 
L 229.942847 230.990821 
L 232.857153 232.354651 
L 235.667118 233.237595 
L 238.379954 233.734447 
L 245.997533 234.435391 
L 248.380851 234.925604 
L 250.69393 235.638925 
L 255.12512 237.44893 
L 259.319463 239.241924 
L 263.300998 240.557149 
L 267.090281 241.506797 
L 272.45183 242.74352 
L 275.83297 243.810864 
L 277.470446 244.521451 
L 279.074458 245.39999 
L 282.187375 247.562469 
L 285.18153 249.790686 
L 286.636839 250.720282 
L 288.065655 251.429118 
L 289.468926 251.940339 
L 292.202377 252.558614 
L 296.131954 253.254286 
L 297.399279 253.642595 
L 298.646467 254.205473 
L 299.874147 255.006816 
L 301.082921 256.118342 
L 302.273361 257.570801 
L 304.601409 261.135167 
L 306.862392 264.730071 
L 307.968921 266.149845 
L 309.060067 267.219334 
L 310.136252 267.969153 
L 311.197881 268.441456 
L 312.245342 268.686762 
L 314.299241 268.723538 
L 317.282705 268.539349 
L 318.252513 268.653368 
L 319.210486 268.945523 
L 320.156907 269.409811 
L 322.016188 270.754243 
L 323.832445 272.481866 
L 327.34354 276.138175 
L 329.041894 277.4971 
L 330.704278 278.322441 
L 332.332183 278.713137 
L 333.92701 278.796866 
L 339.26676 278.673555 
L 340.72798 279.097188 
L 342.162494 279.965409 
L 343.57126 281.229599 
L 345.638107 283.601518 
L 348.966324 287.604288 
L 350.259076 288.819208 
L 352.159139 290.288601 
L 355.227141 292.563184 
L 356.421534 293.720624 
L 357.598024 295.204553 
L 358.75714 297.166097 
L 359.899387 299.707175 
L 361.025251 302.791191 
L 362.684333 308.298275 
L 364.843264 316.750047 
L 366.944399 324.985795 
L 367.974244 328.146467 
L 368.990752 330.304306 
L 369.494111 331.011334 
L 369.994264 331.484751 
L 370.491249 331.741522 
L 370.985107 331.802622 
L 371.475878 331.692047 
L 372.448308 331.060956 
L 373.408838 330.064228 
L 375.759964 327.31422 
L 376.681043 326.58461 
L 377.137561 326.381034 
L 377.591439 326.311872 
L 378.042708 326.397833 
L 378.491397 326.6457 
L 379.381152 327.594764 
L 380.260935 329.102082 
L 381.130966 331.123428 
L 381.991459 333.621471 
L 383.264765 338.180582 
L 384.517744 343.568546 
L 388.948108 364.063291 
L 390.114217 367.821985 
L 390.882108 369.725089 
L 391.642559 371.163874 
L 392.395714 372.180574 
L 393.14171 372.837862 
L 393.880683 373.213769 
L 394.97626 373.443891 
L 398.867405 373.719163 
L 401.913563 373.728621 
L 404.203677 373.533768 
L 407.053214 373.029621 
L 409.200141 372.740195 
L 410.698486 372.777773 
L 411.876903 373.042259 
L 413.037889 373.583334 
L 413.897496 374.212998 
L 414.747792 375.07255 
L 415.588975 376.202501 
L 416.421238 377.651832 
L 417.244769 379.481689 
L 418.05975 381.770951 
L 418.866355 384.625063 
L 419.664756 388.190745 
L 420.455118 392.682137 
L 421.2376 398.431118 
L 421.754954 403.222334 
L 421.754954 403.222334 
" clip-path="url(#pdde6b21a7a)" style="fill: none; stroke-dasharray: 7.4,3.2; stroke-dashoffset: 0; stroke: #008000; stroke-width: 2"/>
   </g>
   <g id="line2d_89">
    <path d="M 105.797855 190.263226 
L 160.204225 191.480632 
L 192.029911 224.096479 
L 214.610595 229.732198 
L 232.125534 231.853756 
L 246.436281 235.040771 
L 258.535845 238.258434 
L 278.261967 245.478882 
L 286.531903 249.091414 
L 300.84265 256.677655 
L 307.125347 260.747442 
L 318.357589 268.508034 
L 328.18187 274.221443 
L 340.938273 281.201294 
L 348.419341 286.431512 
L 358.453212 298.259309 
L 367.348585 308.919061 
L 377.829704 327.251327 
L 387.074706 347.148685 
L 395.344643 361.591196 
L 404.589645 372.44492 
L 412.859582 381.734008 
L 421.754954 395.570584 
" clip-path="url(#pdde6b21a7a)" style="fill: none; stroke-dasharray: 7.4,3.2; stroke-dashoffset: 0; stroke: #800080; stroke-width: 2"/>
   </g>
   <g id="line2d_90">
    <defs>
     <path id="m634e89d7b4" d="M 0 3 
C 0.795609 3 1.55874 2.683901 2.12132 2.12132 
C 2.683901 1.55874 3 0.795609 3 0 
C 3 -0.795609 2.683901 -1.55874 2.12132 -2.12132 
C 1.55874 -2.683901 0.795609 -3 0 -3 
C -0.795609 -3 -1.55874 -2.683901 -2.12132 -2.12132 
C -2.683901 -1.55874 -3 -0.795609 -3 0 
C -3 0.795609 -2.683901 1.55874 -2.12132 2.12132 
C -1.55874 2.683901 -0.795609 3 0 3 
z
" style="stroke: #ff0000"/>
    </defs>
    <g clip-path="url(#pdde6b21a7a)">
     <use xlink:href="#m634e89d7b4" x="105.797855" y="190.263226" style="fill: #ff0000; stroke: #ff0000"/>
     <use xlink:href="#m634e89d7b4" x="160.204225" y="191.480632" style="fill: #ff0000; stroke: #ff0000"/>
     <use xlink:href="#m634e89d7b4" x="192.029911" y="224.096479" style="fill: #ff0000; stroke: #ff0000"/>
     <use xlink:href="#m634e89d7b4" x="214.610595" y="226.124133" style="fill: #ff0000; stroke: #ff0000"/>
     <use xlink:href="#m634e89d7b4" x="232.125534" y="232.05226" style="fill: #ff0000; stroke: #ff0000"/>
     <use xlink:href="#m634e89d7b4" x="246.436281" y="234.504967" style="fill: #ff0000; stroke: #ff0000"/>
     <use xlink:href="#m634e89d7b4" x="258.535845" y="238.932674" style="fill: #ff0000; stroke: #ff0000"/>
     <use xlink:href="#m634e89d7b4" x="278.261967" y="244.929956" style="fill: #ff0000; stroke: #ff0000"/>
     <use xlink:href="#m634e89d7b4" x="286.531903" y="250.659881" style="fill: #ff0000; stroke: #ff0000"/>
     <use xlink:href="#m634e89d7b4" x="300.84265" y="255.867559" style="fill: #ff0000; stroke: #ff0000"/>
     <use xlink:href="#m634e89d7b4" x="307.125347" y="265.098138" style="fill: #ff0000; stroke: #ff0000"/>
     <use xlink:href="#m634e89d7b4" x="318.357589" y="268.676101" style="fill: #ff0000; stroke: #ff0000"/>
     <use xlink:href="#m634e89d7b4" x="328.18187" y="276.874414" style="fill: #ff0000; stroke: #ff0000"/>
     <use xlink:href="#m634e89d7b4" x="340.938273" y="279.194476" style="fill: #ff0000; stroke: #ff0000"/>
     <use xlink:href="#m634e89d7b4" x="348.419341" y="287.01802" style="fill: #ff0000; stroke: #ff0000"/>
     <use xlink:href="#m634e89d7b4" x="358.453212" y="296.593265" style="fill: #ff0000; stroke: #ff0000"/>
     <use xlink:href="#m634e89d7b4" x="367.348585" y="326.336691" style="fill: #ff0000; stroke: #ff0000"/>
     <use xlink:href="#m634e89d7b4" x="377.829704" y="326.336691" style="fill: #ff0000; stroke: #ff0000"/>
     <use xlink:href="#m634e89d7b4" x="387.074706" y="356.080118" style="fill: #ff0000; stroke: #ff0000"/>
     <use xlink:href="#m634e89d7b4" x="395.344643" y="373.478907" style="fill: #ff0000; stroke: #ff0000"/>
     <use xlink:href="#m634e89d7b4" x="404.589645" y="373.478907" style="fill: #ff0000; stroke: #ff0000"/>
     <use xlink:href="#m634e89d7b4" x="412.859582" y="373.478907" style="fill: #ff0000; stroke: #ff0000"/>
     <use xlink:href="#m634e89d7b4" x="421.754954" y="403.222334" style="fill: #ff0000; stroke: #ff0000"/>
    </g>
   </g>
   <g id="patch_3">
    <path d="M 90 378 
L 90 51.84 
" style="fill: none; stroke: #000000; stroke-width: 0.8; stroke-linejoin: miter; stroke-linecap: square"/>
   </g>
   <g id="patch_4">
    <path d="M 648 378 
L 648 51.84 
" style="fill: none; stroke: #000000; stroke-width: 0.8; stroke-linejoin: miter; stroke-linecap: square"/>
   </g>
   <g id="patch_5">
    <path d="M 90 378 
L 648 378 
" style="fill: none; stroke: #000000; stroke-width: 0.8; stroke-linejoin: miter; stroke-linecap: square"/>
   </g>
   <g id="patch_6">
    <path d="M 90 51.84 
L 648 51.84 
" style="fill: none; stroke: #000000; stroke-width: 0.8; stroke-linejoin: miter; stroke-linecap: square"/>
   </g>
   <g id="text_11">
    <!-- Average Pellet Count vs Price Paid by Subject -->
    <g transform="translate(233.11875 45.84)scale(0.12 -0.12)">
     <defs>
      <path id="DejaVuSans-73" d="M 2834 3397 
L 2834 2853 
Q 2591 2978 2328 3040 
Q 2066 3103 1784 3103 
Q 1356 3103 1142 2972 
Q 928 2841 928 2578 
Q 928 2378 1081 2264 
Q 1234 2150 1697 2047 
L 1894 2003 
Q 2506 1872 2764 1633 
Q 3022 1394 3022 966 
Q 3022 478 2636 193 
Q 2250 -91 1575 -91 
Q 1294 -91 989 -36 
Q 684 19 347 128 
L 347 722 
Q 666 556 975 473 
Q 1284 391 1588 391 
Q 1994 391 2212 530 
Q 2431 669 2431 922 
Q 2431 1156 2273 1281 
Q 2116 1406 1581 1522 
L 1381 1569 
Q 847 1681 609 1914 
Q 372 2147 372 2553 
Q 372 3047 722 3315 
Q 1072 3584 1716 3584 
Q 2034 3584 2315 3537 
Q 2597 3491 2834 3397 
z
" transform="scale(0.015625)"/>
      <path id="DejaVuSans-62" d="M 3116 1747 
Q 3116 2381 2855 2742 
Q 2594 3103 2138 3103 
Q 1681 3103 1420 2742 
Q 1159 2381 1159 1747 
Q 1159 1113 1420 752 
Q 1681 391 2138 391 
Q 2594 391 2855 752 
Q 3116 1113 3116 1747 
z
M 1159 2969 
Q 1341 3281 1617 3432 
Q 1894 3584 2278 3584 
Q 2916 3584 3314 3078 
Q 3713 2572 3713 1747 
Q 3713 922 3314 415 
Q 2916 -91 2278 -91 
Q 1894 -91 1617 61 
Q 1341 213 1159 525 
L 1159 0 
L 581 0 
L 581 4863 
L 1159 4863 
L 1159 2969 
z
" transform="scale(0.015625)"/>
      <path id="DejaVuSans-79" d="M 2059 -325 
Q 1816 -950 1584 -1140 
Q 1353 -1331 966 -1331 
L 506 -1331 
L 506 -850 
L 844 -850 
Q 1081 -850 1212 -737 
Q 1344 -625 1503 -206 
L 1606 56 
L 191 3500 
L 800 3500 
L 1894 763 
L 2988 3500 
L 3597 3500 
L 2059 -325 
z
" transform="scale(0.015625)"/>
      <path id="DejaVuSans-53" d="M 3425 4513 
L 3425 3897 
Q 3066 4069 2747 4153 
Q 2428 4238 2131 4238 
Q 1616 4238 1336 4038 
Q 1056 3838 1056 3469 
Q 1056 3159 1242 3001 
Q 1428 2844 1947 2747 
L 2328 2669 
Q 3034 2534 3370 2195 
Q 3706 1856 3706 1288 
Q 3706 609 3251 259 
Q 2797 -91 1919 -91 
Q 1588 -91 1214 -16 
Q 841 59 441 206 
L 441 856 
Q 825 641 1194 531 
Q 1563 422 1919 422 
Q 2459 422 2753 634 
Q 3047 847 3047 1241 
Q 3047 1584 2836 1778 
Q 2625 1972 2144 2069 
L 1759 2144 
Q 1053 2284 737 2584 
Q 422 2884 422 3419 
Q 422 4038 858 4394 
Q 1294 4750 2059 4750 
Q 2388 4750 2728 4690 
Q 3069 4631 3425 4513 
z
" transform="scale(0.015625)"/>
      <path id="DejaVuSans-6a" d="M 603 3500 
L 1178 3500 
L 1178 -63 
Q 1178 -731 923 -1031 
Q 669 -1331 103 -1331 
L -116 -1331 
L -116 -844 
L 38 -844 
Q 366 -844 484 -692 
Q 603 -541 603 -63 
L 603 3500 
z
M 603 4863 
L 1178 4863 
L 1178 4134 
L 603 4134 
L 603 4863 
z
" transform="scale(0.015625)"/>
     </defs>
     <use xlink:href="#DejaVuSans-41"/>
     <use xlink:href="#DejaVuSans-76" x="62.533203"/>
     <use xlink:href="#DejaVuSans-65" x="121.712891"/>
     <use xlink:href="#DejaVuSans-72" x="183.236328"/>
     <use xlink:href="#DejaVuSans-61" x="224.349609"/>
     <use xlink:href="#DejaVuSans-67" x="285.628906"/>
     <use xlink:href="#DejaVuSans-65" x="349.105469"/>
     <use xlink:href="#DejaVuSans-20" x="410.628906"/>
     <use xlink:href="#DejaVuSans-50" x="442.416016"/>
     <use xlink:href="#DejaVuSans-65" x="499.09375"/>
     <use xlink:href="#DejaVuSans-6c" x="560.617188"/>
     <use xlink:href="#DejaVuSans-6c" x="588.400391"/>
     <use xlink:href="#DejaVuSans-65" x="616.183594"/>
     <use xlink:href="#DejaVuSans-74" x="677.707031"/>
     <use xlink:href="#DejaVuSans-20" x="716.916016"/>
     <use xlink:href="#DejaVuSans-43" x="748.703125"/>
     <use xlink:href="#DejaVuSans-6f" x="818.527344"/>
     <use xlink:href="#DejaVuSans-75" x="879.708984"/>
     <use xlink:href="#DejaVuSans-6e" x="943.087891"/>
     <use xlink:href="#DejaVuSans-74" x="1006.466797"/>
     <use xlink:href="#DejaVuSans-20" x="1045.675781"/>
     <use xlink:href="#DejaVuSans-76" x="1077.462891"/>
     <use xlink:href="#DejaVuSans-73" x="1136.642578"/>
     <use xlink:href="#DejaVuSans-20" x="1188.742188"/>
     <use xlink:href="#DejaVuSans-50" x="1220.529297"/>
     <use xlink:href="#DejaVuSans-72" x="1279.082031"/>
     <use xlink:href="#DejaVuSans-69" x="1320.195312"/>
     <use xlink:href="#DejaVuSans-63" x="1347.978516"/>
     <use xlink:href="#DejaVuSans-65" x="1402.958984"/>
     <use xlink:href="#DejaVuSans-20" x="1464.482422"/>
     <use xlink:href="#DejaVuSans-50" x="1496.269531"/>
     <use xlink:href="#DejaVuSans-61" x="1552.072266"/>
     <use xlink:href="#DejaVuSans-69" x="1613.351562"/>
     <use xlink:href="#DejaVuSans-64" x="1641.134766"/>
     <use xlink:href="#DejaVuSans-20" x="1704.611328"/>
     <use xlink:href="#DejaVuSans-62" x="1736.398438"/>
     <use xlink:href="#DejaVuSans-79" x="1799.875"/>
     <use xlink:href="#DejaVuSans-20" x="1859.054688"/>
     <use xlink:href="#DejaVuSans-53" x="1890.841797"/>
     <use xlink:href="#DejaVuSans-75" x="1954.318359"/>
     <use xlink:href="#DejaVuSans-62" x="2017.697266"/>
     <use xlink:href="#DejaVuSans-6a" x="2081.173828"/>
     <use xlink:href="#DejaVuSans-65" x="2108.957031"/>
     <use xlink:href="#DejaVuSans-63" x="2170.480469"/>
     <use xlink:href="#DejaVuSans-74" x="2225.460938"/>
    </g>
   </g>
  </g>
 </g>
 <defs>
  <clipPath id="pdde6b21a7a">
   <rect x="90" y="51.84" width="558" height="326.16"/>
  </clipPath>
 </defs>
</svg>
