<?xml version="1.0" encoding="utf-8" standalone="no"?>
<!DOCTYPE svg PUBLIC "-//W3C//DTD SVG 1.1//EN"
  "http://www.w3.org/Graphics/SVG/1.1/DTD/svg11.dtd">
<svg xmlns:xlink="http://www.w3.org/1999/xlink" width="720pt" height="432pt" viewBox="0 0 720 432" xmlns="http://www.w3.org/2000/svg" version="1.1">
 <metadata>
  <rdf:RDF xmlns:dc="http://purl.org/dc/elements/1.1/" xmlns:cc="http://creativecommons.org/ns#" xmlns:rdf="http://www.w3.org/1999/02/22-rdf-syntax-ns#">
   <cc:Work>
    <dc:type rdf:resource="http://purl.org/dc/dcmitype/StillImage"/>
    <dc:date>2025-01-25T16:07:28.874444</dc:date>
    <dc:format>image/svg+xml</dc:format>
    <dc:creator>
     <cc:Agent>
      <dc:title>Matplotlib v3.5.1, https://matplotlib.org/</dc:title>
     </cc:Agent>
    </dc:creator>
   </cc:Work>
  </rdf:RDF>
 </metadata>
 <defs>
  <style type="text/css">*{stroke-linejoin: round; stroke-linecap: butt}</style>
 </defs>
 <g id="figure_1">
  <g id="patch_1">
   <path d="M 0 432 
L 720 432 
L 720 0 
L 0 0 
z
" style="fill: #ffffff"/>
  </g>
  <g id="axes_1">
   <g id="patch_2">
    <path d="M 90 378 
L 648 378 
L 648 51.84 
L 90 51.84 
z
" style="fill: #ffffff"/>
   </g>
   <g id="matplotlib.axis_1">
    <g id="xtick_1">
     <g id="line2d_1">
      <path d="M 90 378 
L 90 51.84 
" clip-path="url(#pdc60631d8a)" style="fill: none; stroke: #b0b0b0; stroke-width: 0.8; stroke-linecap: square"/>
     </g>
     <g id="line2d_2">
      <defs>
       <path id="m9d5bc0cf77" d="M 0 0 
L 0 3.5 
" style="stroke: #000000; stroke-width: 0.8"/>
      </defs>
      <g>
       <use xlink:href="#m9d5bc0cf77" x="90" y="378" style="stroke: #000000; stroke-width: 0.8"/>
      </g>
     </g>
     <g id="text_1">
      <!-- 0 -->
      <g transform="translate(86.81875 392.598437)scale(0.1 -0.1)">
       <defs>
        <path id="DejaVuSans-30" d="M 2034 4250 
Q 1547 4250 1301 3770 
Q 1056 3291 1056 2328 
Q 1056 1369 1301 889 
Q 1547 409 2034 409 
Q 2525 409 2770 889 
Q 3016 1369 3016 2328 
Q 3016 3291 2770 3770 
Q 2525 4250 2034 4250 
z
M 2034 4750 
Q 2819 4750 3233 4129 
Q 3647 3509 3647 2328 
Q 3647 1150 3233 529 
Q 2819 -91 2034 -91 
Q 1250 -91 836 529 
Q 422 1150 422 2328 
Q 422 3509 836 4129 
Q 1250 4750 2034 4750 
z
" transform="scale(0.015625)"/>
       </defs>
       <use xlink:href="#DejaVuSans-30"/>
      </g>
     </g>
    </g>
    <g id="xtick_2">
     <g id="line2d_3">
      <path d="M 159.75 378 
L 159.75 51.84 
" clip-path="url(#pdc60631d8a)" style="fill: none; stroke: #b0b0b0; stroke-width: 0.8; stroke-linecap: square"/>
     </g>
     <g id="line2d_4">
      <g>
       <use xlink:href="#m9d5bc0cf77" x="159.75" y="378" style="stroke: #000000; stroke-width: 0.8"/>
      </g>
     </g>
     <g id="text_2">
      <!-- 5 -->
      <g transform="translate(156.56875 392.598437)scale(0.1 -0.1)">
       <defs>
        <path id="DejaVuSans-35" d="M 691 4666 
L 3169 4666 
L 3169 4134 
L 1269 4134 
L 1269 2991 
Q 1406 3038 1543 3061 
Q 1681 3084 1819 3084 
Q 2600 3084 3056 2656 
Q 3513 2228 3513 1497 
Q 3513 744 3044 326 
Q 2575 -91 1722 -91 
Q 1428 -91 1123 -41 
Q 819 9 494 109 
L 494 744 
Q 775 591 1075 516 
Q 1375 441 1709 441 
Q 2250 441 2565 725 
Q 2881 1009 2881 1497 
Q 2881 1984 2565 2268 
Q 2250 2553 1709 2553 
Q 1456 2553 1204 2497 
Q 953 2441 691 2322 
L 691 4666 
z
" transform="scale(0.015625)"/>
       </defs>
       <use xlink:href="#DejaVuSans-35"/>
      </g>
     </g>
    </g>
    <g id="xtick_3">
     <g id="line2d_5">
      <path d="M 229.5 378 
L 229.5 51.84 
" clip-path="url(#pdc60631d8a)" style="fill: none; stroke: #b0b0b0; stroke-width: 0.8; stroke-linecap: square"/>
     </g>
     <g id="line2d_6">
      <g>
       <use xlink:href="#m9d5bc0cf77" x="229.5" y="378" style="stroke: #000000; stroke-width: 0.8"/>
      </g>
     </g>
     <g id="text_3">
      <!-- 10 -->
      <g transform="translate(223.1375 392.598437)scale(0.1 -0.1)">
       <defs>
        <path id="DejaVuSans-31" d="M 794 531 
L 1825 531 
L 1825 4091 
L 703 3866 
L 703 4441 
L 1819 4666 
L 2450 4666 
L 2450 531 
L 3481 531 
L 3481 0 
L 794 0 
L 794 531 
z
" transform="scale(0.015625)"/>
       </defs>
       <use xlink:href="#DejaVuSans-31"/>
       <use xlink:href="#DejaVuSans-30" x="63.623047"/>
      </g>
     </g>
    </g>
    <g id="xtick_4">
     <g id="line2d_7">
      <path d="M 299.25 378 
L 299.25 51.84 
" clip-path="url(#pdc60631d8a)" style="fill: none; stroke: #b0b0b0; stroke-width: 0.8; stroke-linecap: square"/>
     </g>
     <g id="line2d_8">
      <g>
       <use xlink:href="#m9d5bc0cf77" x="299.25" y="378" style="stroke: #000000; stroke-width: 0.8"/>
      </g>
     </g>
     <g id="text_4">
      <!-- 15 -->
      <g transform="translate(292.8875 392.598437)scale(0.1 -0.1)">
       <use xlink:href="#DejaVuSans-31"/>
       <use xlink:href="#DejaVuSans-35" x="63.623047"/>
      </g>
     </g>
    </g>
    <g id="xtick_5">
     <g id="line2d_9">
      <path d="M 369 378 
L 369 51.84 
" clip-path="url(#pdc60631d8a)" style="fill: none; stroke: #b0b0b0; stroke-width: 0.8; stroke-linecap: square"/>
     </g>
     <g id="line2d_10">
      <g>
       <use xlink:href="#m9d5bc0cf77" x="369" y="378" style="stroke: #000000; stroke-width: 0.8"/>
      </g>
     </g>
     <g id="text_5">
      <!-- 20 -->
      <g transform="translate(362.6375 392.598437)scale(0.1 -0.1)">
       <defs>
        <path id="DejaVuSans-32" d="M 1228 531 
L 3431 531 
L 3431 0 
L 469 0 
L 469 531 
Q 828 903 1448 1529 
Q 2069 2156 2228 2338 
Q 2531 2678 2651 2914 
Q 2772 3150 2772 3378 
Q 2772 3750 2511 3984 
Q 2250 4219 1831 4219 
Q 1534 4219 1204 4116 
Q 875 4013 500 3803 
L 500 4441 
Q 881 4594 1212 4672 
Q 1544 4750 1819 4750 
Q 2544 4750 2975 4387 
Q 3406 4025 3406 3419 
Q 3406 3131 3298 2873 
Q 3191 2616 2906 2266 
Q 2828 2175 2409 1742 
Q 1991 1309 1228 531 
z
" transform="scale(0.015625)"/>
       </defs>
       <use xlink:href="#DejaVuSans-32"/>
       <use xlink:href="#DejaVuSans-30" x="63.623047"/>
      </g>
     </g>
    </g>
    <g id="xtick_6">
     <g id="line2d_11">
      <path d="M 438.75 378 
L 438.75 51.84 
" clip-path="url(#pdc60631d8a)" style="fill: none; stroke: #b0b0b0; stroke-width: 0.8; stroke-linecap: square"/>
     </g>
     <g id="line2d_12">
      <g>
       <use xlink:href="#m9d5bc0cf77" x="438.75" y="378" style="stroke: #000000; stroke-width: 0.8"/>
      </g>
     </g>
     <g id="text_6">
      <!-- 25 -->
      <g transform="translate(432.3875 392.598437)scale(0.1 -0.1)">
       <use xlink:href="#DejaVuSans-32"/>
       <use xlink:href="#DejaVuSans-35" x="63.623047"/>
      </g>
     </g>
    </g>
    <g id="xtick_7">
     <g id="line2d_13">
      <path d="M 508.5 378 
L 508.5 51.84 
" clip-path="url(#pdc60631d8a)" style="fill: none; stroke: #b0b0b0; stroke-width: 0.8; stroke-linecap: square"/>
     </g>
     <g id="line2d_14">
      <g>
       <use xlink:href="#m9d5bc0cf77" x="508.5" y="378" style="stroke: #000000; stroke-width: 0.8"/>
      </g>
     </g>
     <g id="text_7">
      <!-- 30 -->
      <g transform="translate(502.1375 392.598437)scale(0.1 -0.1)">
       <defs>
        <path id="DejaVuSans-33" d="M 2597 2516 
Q 3050 2419 3304 2112 
Q 3559 1806 3559 1356 
Q 3559 666 3084 287 
Q 2609 -91 1734 -91 
Q 1441 -91 1130 -33 
Q 819 25 488 141 
L 488 750 
Q 750 597 1062 519 
Q 1375 441 1716 441 
Q 2309 441 2620 675 
Q 2931 909 2931 1356 
Q 2931 1769 2642 2001 
Q 2353 2234 1838 2234 
L 1294 2234 
L 1294 2753 
L 1863 2753 
Q 2328 2753 2575 2939 
Q 2822 3125 2822 3475 
Q 2822 3834 2567 4026 
Q 2313 4219 1838 4219 
Q 1578 4219 1281 4162 
Q 984 4106 628 3988 
L 628 4550 
Q 988 4650 1302 4700 
Q 1616 4750 1894 4750 
Q 2613 4750 3031 4423 
Q 3450 4097 3450 3541 
Q 3450 3153 3228 2886 
Q 3006 2619 2597 2516 
z
" transform="scale(0.015625)"/>
       </defs>
       <use xlink:href="#DejaVuSans-33"/>
       <use xlink:href="#DejaVuSans-30" x="63.623047"/>
      </g>
     </g>
    </g>
    <g id="xtick_8">
     <g id="line2d_15">
      <path d="M 578.25 378 
L 578.25 51.84 
" clip-path="url(#pdc60631d8a)" style="fill: none; stroke: #b0b0b0; stroke-width: 0.8; stroke-linecap: square"/>
     </g>
     <g id="line2d_16">
      <g>
       <use xlink:href="#m9d5bc0cf77" x="578.25" y="378" style="stroke: #000000; stroke-width: 0.8"/>
      </g>
     </g>
     <g id="text_8">
      <!-- 35 -->
      <g transform="translate(571.8875 392.598437)scale(0.1 -0.1)">
       <use xlink:href="#DejaVuSans-33"/>
       <use xlink:href="#DejaVuSans-35" x="63.623047"/>
      </g>
     </g>
    </g>
    <g id="xtick_9">
     <g id="line2d_17">
      <path d="M 648 378 
L 648 51.84 
" clip-path="url(#pdc60631d8a)" style="fill: none; stroke: #b0b0b0; stroke-width: 0.8; stroke-linecap: square"/>
     </g>
     <g id="line2d_18">
      <g>
       <use xlink:href="#m9d5bc0cf77" x="648" y="378" style="stroke: #000000; stroke-width: 0.8"/>
      </g>
     </g>
     <g id="text_9">
      <!-- 40 -->
      <g transform="translate(641.6375 392.598437)scale(0.1 -0.1)">
       <defs>
        <path id="DejaVuSans-34" d="M 2419 4116 
L 825 1625 
L 2419 1625 
L 2419 4116 
z
M 2253 4666 
L 3047 4666 
L 3047 1625 
L 3713 1625 
L 3713 1100 
L 3047 1100 
L 3047 0 
L 2419 0 
L 2419 1100 
L 313 1100 
L 313 1709 
L 2253 4666 
z
" transform="scale(0.015625)"/>
       </defs>
       <use xlink:href="#DejaVuSans-34"/>
       <use xlink:href="#DejaVuSans-30" x="63.623047"/>
      </g>
     </g>
    </g>
    <g id="text_10">
     <!-- Price Paid -->
     <g transform="translate(344.796094 406.276563)scale(0.1 -0.1)">
      <defs>
       <path id="DejaVuSans-50" d="M 1259 4147 
L 1259 2394 
L 2053 2394 
Q 2494 2394 2734 2622 
Q 2975 2850 2975 3272 
Q 2975 3691 2734 3919 
Q 2494 4147 2053 4147 
L 1259 4147 
z
M 628 4666 
L 2053 4666 
Q 2838 4666 3239 4311 
Q 3641 3956 3641 3272 
Q 3641 2581 3239 2228 
Q 2838 1875 2053 1875 
L 1259 1875 
L 1259 0 
L 628 0 
L 628 4666 
z
" transform="scale(0.015625)"/>
       <path id="DejaVuSans-72" d="M 2631 2963 
Q 2534 3019 2420 3045 
Q 2306 3072 2169 3072 
Q 1681 3072 1420 2755 
Q 1159 2438 1159 1844 
L 1159 0 
L 581 0 
L 581 3500 
L 1159 3500 
L 1159 2956 
Q 1341 3275 1631 3429 
Q 1922 3584 2338 3584 
Q 2397 3584 2469 3576 
Q 2541 3569 2628 3553 
L 2631 2963 
z
" transform="scale(0.015625)"/>
       <path id="DejaVuSans-69" d="M 603 3500 
L 1178 3500 
L 1178 0 
L 603 0 
L 603 3500 
z
M 603 4863 
L 1178 4863 
L 1178 4134 
L 603 4134 
L 603 4863 
z
" transform="scale(0.015625)"/>
       <path id="DejaVuSans-63" d="M 3122 3366 
L 3122 2828 
Q 2878 2963 2633 3030 
Q 2388 3097 2138 3097 
Q 1578 3097 1268 2742 
Q 959 2388 959 1747 
Q 959 1106 1268 751 
Q 1578 397 2138 397 
Q 2388 397 2633 464 
Q 2878 531 3122 666 
L 3122 134 
Q 2881 22 2623 -34 
Q 2366 -91 2075 -91 
Q 1284 -91 818 406 
Q 353 903 353 1747 
Q 353 2603 823 3093 
Q 1294 3584 2113 3584 
Q 2378 3584 2631 3529 
Q 2884 3475 3122 3366 
z
" transform="scale(0.015625)"/>
       <path id="DejaVuSans-65" d="M 3597 1894 
L 3597 1613 
L 953 1613 
Q 991 1019 1311 708 
Q 1631 397 2203 397 
Q 2534 397 2845 478 
Q 3156 559 3463 722 
L 3463 178 
Q 3153 47 2828 -22 
Q 2503 -91 2169 -91 
Q 1331 -91 842 396 
Q 353 884 353 1716 
Q 353 2575 817 3079 
Q 1281 3584 2069 3584 
Q 2775 3584 3186 3129 
Q 3597 2675 3597 1894 
z
M 3022 2063 
Q 3016 2534 2758 2815 
Q 2500 3097 2075 3097 
Q 1594 3097 1305 2825 
Q 1016 2553 972 2059 
L 3022 2063 
z
" transform="scale(0.015625)"/>
       <path id="DejaVuSans-20" transform="scale(0.015625)"/>
       <path id="DejaVuSans-61" d="M 2194 1759 
Q 1497 1759 1228 1600 
Q 959 1441 959 1056 
Q 959 750 1161 570 
Q 1363 391 1709 391 
Q 2188 391 2477 730 
Q 2766 1069 2766 1631 
L 2766 1759 
L 2194 1759 
z
M 3341 1997 
L 3341 0 
L 2766 0 
L 2766 531 
Q 2569 213 2275 61 
Q 1981 -91 1556 -91 
Q 1019 -91 701 211 
Q 384 513 384 1019 
Q 384 1609 779 1909 
Q 1175 2209 1959 2209 
L 2766 2209 
L 2766 2266 
Q 2766 2663 2505 2880 
Q 2244 3097 1772 3097 
Q 1472 3097 1187 3025 
Q 903 2953 641 2809 
L 641 3341 
Q 956 3463 1253 3523 
Q 1550 3584 1831 3584 
Q 2591 3584 2966 3190 
Q 3341 2797 3341 1997 
z
" transform="scale(0.015625)"/>
       <path id="DejaVuSans-64" d="M 2906 2969 
L 2906 4863 
L 3481 4863 
L 3481 0 
L 2906 0 
L 2906 525 
Q 2725 213 2448 61 
Q 2172 -91 1784 -91 
Q 1150 -91 751 415 
Q 353 922 353 1747 
Q 353 2572 751 3078 
Q 1150 3584 1784 3584 
Q 2172 3584 2448 3432 
Q 2725 3281 2906 2969 
z
M 947 1747 
Q 947 1113 1208 752 
Q 1469 391 1925 391 
Q 2381 391 2643 752 
Q 2906 1113 2906 1747 
Q 2906 2381 2643 2742 
Q 2381 3103 1925 3103 
Q 1469 3103 1208 2742 
Q 947 2381 947 1747 
z
" transform="scale(0.015625)"/>
      </defs>
      <use xlink:href="#DejaVuSans-50"/>
      <use xlink:href="#DejaVuSans-72" x="58.552734"/>
      <use xlink:href="#DejaVuSans-69" x="99.666016"/>
      <use xlink:href="#DejaVuSans-63" x="127.449219"/>
      <use xlink:href="#DejaVuSans-65" x="182.429688"/>
      <use xlink:href="#DejaVuSans-20" x="243.953125"/>
      <use xlink:href="#DejaVuSans-50" x="275.740234"/>
      <use xlink:href="#DejaVuSans-61" x="331.542969"/>
      <use xlink:href="#DejaVuSans-69" x="392.822266"/>
      <use xlink:href="#DejaVuSans-64" x="420.605469"/>
     </g>
    </g>
   </g>
   <g id="matplotlib.axis_2">
    <g id="ytick_1">
     <g id="line2d_19">
      <path d="M 90 378 
L 648 378 
" clip-path="url(#pdc60631d8a)" style="fill: none; stroke: #b0b0b0; stroke-width: 0.8; stroke-linecap: square"/>
     </g>
     <g id="line2d_20">
      <defs>
       <path id="m1b06102262" d="M 0 0 
L -3.5 0 
" style="stroke: #000000; stroke-width: 0.8"/>
      </defs>
      <g>
       <use xlink:href="#m1b06102262" x="90" y="378" style="stroke: #000000; stroke-width: 0.8"/>
      </g>
     </g>
     <g id="text_11">
      <!-- $\mathdefault{10^{-1}}$ -->
      <g transform="translate(59.5 381.799219)scale(0.1 -0.1)">
       <defs>
        <path id="DejaVuSans-2212" d="M 678 2272 
L 4684 2272 
L 4684 1741 
L 678 1741 
L 678 2272 
z
" transform="scale(0.015625)"/>
       </defs>
       <use xlink:href="#DejaVuSans-31" transform="translate(0 0.684375)"/>
       <use xlink:href="#DejaVuSans-30" transform="translate(63.623047 0.684375)"/>
       <use xlink:href="#DejaVuSans-2212" transform="translate(128.203125 38.965625)scale(0.7)"/>
       <use xlink:href="#DejaVuSans-31" transform="translate(186.855469 38.965625)scale(0.7)"/>
      </g>
     </g>
    </g>
    <g id="ytick_2">
     <g id="line2d_21">
      <path d="M 90 279.194476 
L 648 279.194476 
" clip-path="url(#pdc60631d8a)" style="fill: none; stroke: #b0b0b0; stroke-width: 0.8; stroke-linecap: square"/>
     </g>
     <g id="line2d_22">
      <g>
       <use xlink:href="#m1b06102262" x="90" y="279.194476" style="stroke: #000000; stroke-width: 0.8"/>
      </g>
     </g>
     <g id="text_12">
      <!-- $\mathdefault{10^{0}}$ -->
      <g transform="translate(65.4 282.993694)scale(0.1 -0.1)">
       <use xlink:href="#DejaVuSans-31" transform="translate(0 0.765625)"/>
       <use xlink:href="#DejaVuSans-30" transform="translate(63.623047 0.765625)"/>
       <use xlink:href="#DejaVuSans-30" transform="translate(128.203125 39.046875)scale(0.7)"/>
      </g>
     </g>
    </g>
    <g id="ytick_3">
     <g id="line2d_23">
      <path d="M 90 180.388951 
L 648 180.388951 
" clip-path="url(#pdc60631d8a)" style="fill: none; stroke: #b0b0b0; stroke-width: 0.8; stroke-linecap: square"/>
     </g>
     <g id="line2d_24">
      <g>
       <use xlink:href="#m1b06102262" x="90" y="180.388951" style="stroke: #000000; stroke-width: 0.8"/>
      </g>
     </g>
     <g id="text_13">
      <!-- $\mathdefault{10^{1}}$ -->
      <g transform="translate(65.4 184.18817)scale(0.1 -0.1)">
       <use xlink:href="#DejaVuSans-31" transform="translate(0 0.684375)"/>
       <use xlink:href="#DejaVuSans-30" transform="translate(63.623047 0.684375)"/>
       <use xlink:href="#DejaVuSans-31" transform="translate(128.203125 38.965625)scale(0.7)"/>
      </g>
     </g>
    </g>
    <g id="ytick_4">
     <g id="line2d_25">
      <path d="M 90 81.583427 
L 648 81.583427 
" clip-path="url(#pdc60631d8a)" style="fill: none; stroke: #b0b0b0; stroke-width: 0.8; stroke-linecap: square"/>
     </g>
     <g id="line2d_26">
      <g>
       <use xlink:href="#m1b06102262" x="90" y="81.583427" style="stroke: #000000; stroke-width: 0.8"/>
      </g>
     </g>
     <g id="text_14">
      <!-- $\mathdefault{10^{2}}$ -->
      <g transform="translate(65.4 85.382645)scale(0.1 -0.1)">
       <use xlink:href="#DejaVuSans-31" transform="translate(0 0.765625)"/>
       <use xlink:href="#DejaVuSans-30" transform="translate(63.623047 0.765625)"/>
       <use xlink:href="#DejaVuSans-32" transform="translate(128.203125 39.046875)scale(0.7)"/>
      </g>
     </g>
    </g>
    <g id="ytick_5">
     <g id="line2d_27">
      <defs>
       <path id="m45b67be87c" d="M 0 0 
L -2 0 
" style="stroke: #000000; stroke-width: 0.6"/>
      </defs>
      <g>
       <use xlink:href="#m45b67be87c" x="90" y="348.256573" style="stroke: #000000; stroke-width: 0.6"/>
      </g>
     </g>
    </g>
    <g id="ytick_6">
     <g id="line2d_28">
      <g>
       <use xlink:href="#m45b67be87c" x="90" y="330.857784" style="stroke: #000000; stroke-width: 0.6"/>
      </g>
     </g>
    </g>
    <g id="ytick_7">
     <g id="line2d_29">
      <g>
       <use xlink:href="#m45b67be87c" x="90" y="318.513147" style="stroke: #000000; stroke-width: 0.6"/>
      </g>
     </g>
    </g>
    <g id="ytick_8">
     <g id="line2d_30">
      <g>
       <use xlink:href="#m45b67be87c" x="90" y="308.937902" style="stroke: #000000; stroke-width: 0.6"/>
      </g>
     </g>
    </g>
    <g id="ytick_9">
     <g id="line2d_31">
      <g>
       <use xlink:href="#m45b67be87c" x="90" y="301.114358" style="stroke: #000000; stroke-width: 0.6"/>
      </g>
     </g>
    </g>
    <g id="ytick_10">
     <g id="line2d_32">
      <g>
       <use xlink:href="#m45b67be87c" x="90" y="294.499645" style="stroke: #000000; stroke-width: 0.6"/>
      </g>
     </g>
    </g>
    <g id="ytick_11">
     <g id="line2d_33">
      <g>
       <use xlink:href="#m45b67be87c" x="90" y="288.76972" style="stroke: #000000; stroke-width: 0.6"/>
      </g>
     </g>
    </g>
    <g id="ytick_12">
     <g id="line2d_34">
      <g>
       <use xlink:href="#m45b67be87c" x="90" y="283.715568" style="stroke: #000000; stroke-width: 0.6"/>
      </g>
     </g>
    </g>
    <g id="ytick_13">
     <g id="line2d_35">
      <g>
       <use xlink:href="#m45b67be87c" x="90" y="249.451049" style="stroke: #000000; stroke-width: 0.6"/>
      </g>
     </g>
    </g>
    <g id="ytick_14">
     <g id="line2d_36">
      <g>
       <use xlink:href="#m45b67be87c" x="90" y="232.05226" style="stroke: #000000; stroke-width: 0.6"/>
      </g>
     </g>
    </g>
    <g id="ytick_15">
     <g id="line2d_37">
      <g>
       <use xlink:href="#m45b67be87c" x="90" y="219.707622" style="stroke: #000000; stroke-width: 0.6"/>
      </g>
     </g>
    </g>
    <g id="ytick_16">
     <g id="line2d_38">
      <g>
       <use xlink:href="#m45b67be87c" x="90" y="210.132378" style="stroke: #000000; stroke-width: 0.6"/>
      </g>
     </g>
    </g>
    <g id="ytick_17">
     <g id="line2d_39">
      <g>
       <use xlink:href="#m45b67be87c" x="90" y="202.308833" style="stroke: #000000; stroke-width: 0.6"/>
      </g>
     </g>
    </g>
    <g id="ytick_18">
     <g id="line2d_40">
      <g>
       <use xlink:href="#m45b67be87c" x="90" y="195.69412" style="stroke: #000000; stroke-width: 0.6"/>
      </g>
     </g>
    </g>
    <g id="ytick_19">
     <g id="line2d_41">
      <g>
       <use xlink:href="#m45b67be87c" x="90" y="189.964196" style="stroke: #000000; stroke-width: 0.6"/>
      </g>
     </g>
    </g>
    <g id="ytick_20">
     <g id="line2d_42">
      <g>
       <use xlink:href="#m45b67be87c" x="90" y="184.910044" style="stroke: #000000; stroke-width: 0.6"/>
      </g>
     </g>
    </g>
    <g id="ytick_21">
     <g id="line2d_43">
      <g>
       <use xlink:href="#m45b67be87c" x="90" y="150.645524" style="stroke: #000000; stroke-width: 0.6"/>
      </g>
     </g>
    </g>
    <g id="ytick_22">
     <g id="line2d_44">
      <g>
       <use xlink:href="#m45b67be87c" x="90" y="133.246735" style="stroke: #000000; stroke-width: 0.6"/>
      </g>
     </g>
    </g>
    <g id="ytick_23">
     <g id="line2d_45">
      <g>
       <use xlink:href="#m45b67be87c" x="90" y="120.902098" style="stroke: #000000; stroke-width: 0.6"/>
      </g>
     </g>
    </g>
    <g id="ytick_24">
     <g id="line2d_46">
      <g>
       <use xlink:href="#m45b67be87c" x="90" y="111.326853" style="stroke: #000000; stroke-width: 0.6"/>
      </g>
     </g>
    </g>
    <g id="ytick_25">
     <g id="line2d_47">
      <g>
       <use xlink:href="#m45b67be87c" x="90" y="103.503309" style="stroke: #000000; stroke-width: 0.6"/>
      </g>
     </g>
    </g>
    <g id="ytick_26">
     <g id="line2d_48">
      <g>
       <use xlink:href="#m45b67be87c" x="90" y="96.888596" style="stroke: #000000; stroke-width: 0.6"/>
      </g>
     </g>
    </g>
    <g id="ytick_27">
     <g id="line2d_49">
      <g>
       <use xlink:href="#m45b67be87c" x="90" y="91.158671" style="stroke: #000000; stroke-width: 0.6"/>
      </g>
     </g>
    </g>
    <g id="ytick_28">
     <g id="line2d_50">
      <g>
       <use xlink:href="#m45b67be87c" x="90" y="86.104519" style="stroke: #000000; stroke-width: 0.6"/>
      </g>
     </g>
    </g>
    <g id="ytick_29">
     <g id="line2d_51">
      <g>
       <use xlink:href="#m45b67be87c" x="90" y="51.84" style="stroke: #000000; stroke-width: 0.6"/>
      </g>
     </g>
    </g>
    <g id="text_15">
     <!-- Average Pellet Count -->
     <g transform="translate(53.420312 267.204375)rotate(-90)scale(0.1 -0.1)">
      <defs>
       <path id="DejaVuSans-41" d="M 2188 4044 
L 1331 1722 
L 3047 1722 
L 2188 4044 
z
M 1831 4666 
L 2547 4666 
L 4325 0 
L 3669 0 
L 3244 1197 
L 1141 1197 
L 716 0 
L 50 0 
L 1831 4666 
z
" transform="scale(0.015625)"/>
       <path id="DejaVuSans-76" d="M 191 3500 
L 800 3500 
L 1894 563 
L 2988 3500 
L 3597 3500 
L 2284 0 
L 1503 0 
L 191 3500 
z
" transform="scale(0.015625)"/>
       <path id="DejaVuSans-67" d="M 2906 1791 
Q 2906 2416 2648 2759 
Q 2391 3103 1925 3103 
Q 1463 3103 1205 2759 
Q 947 2416 947 1791 
Q 947 1169 1205 825 
Q 1463 481 1925 481 
Q 2391 481 2648 825 
Q 2906 1169 2906 1791 
z
M 3481 434 
Q 3481 -459 3084 -895 
Q 2688 -1331 1869 -1331 
Q 1566 -1331 1297 -1286 
Q 1028 -1241 775 -1147 
L 775 -588 
Q 1028 -725 1275 -790 
Q 1522 -856 1778 -856 
Q 2344 -856 2625 -561 
Q 2906 -266 2906 331 
L 2906 616 
Q 2728 306 2450 153 
Q 2172 0 1784 0 
Q 1141 0 747 490 
Q 353 981 353 1791 
Q 353 2603 747 3093 
Q 1141 3584 1784 3584 
Q 2172 3584 2450 3431 
Q 2728 3278 2906 2969 
L 2906 3500 
L 3481 3500 
L 3481 434 
z
" transform="scale(0.015625)"/>
       <path id="DejaVuSans-6c" d="M 603 4863 
L 1178 4863 
L 1178 0 
L 603 0 
L 603 4863 
z
" transform="scale(0.015625)"/>
       <path id="DejaVuSans-74" d="M 1172 4494 
L 1172 3500 
L 2356 3500 
L 2356 3053 
L 1172 3053 
L 1172 1153 
Q 1172 725 1289 603 
Q 1406 481 1766 481 
L 2356 481 
L 2356 0 
L 1766 0 
Q 1100 0 847 248 
Q 594 497 594 1153 
L 594 3053 
L 172 3053 
L 172 3500 
L 594 3500 
L 594 4494 
L 1172 4494 
z
" transform="scale(0.015625)"/>
       <path id="DejaVuSans-43" d="M 4122 4306 
L 4122 3641 
Q 3803 3938 3442 4084 
Q 3081 4231 2675 4231 
Q 1875 4231 1450 3742 
Q 1025 3253 1025 2328 
Q 1025 1406 1450 917 
Q 1875 428 2675 428 
Q 3081 428 3442 575 
Q 3803 722 4122 1019 
L 4122 359 
Q 3791 134 3420 21 
Q 3050 -91 2638 -91 
Q 1578 -91 968 557 
Q 359 1206 359 2328 
Q 359 3453 968 4101 
Q 1578 4750 2638 4750 
Q 3056 4750 3426 4639 
Q 3797 4528 4122 4306 
z
" transform="scale(0.015625)"/>
       <path id="DejaVuSans-6f" d="M 1959 3097 
Q 1497 3097 1228 2736 
Q 959 2375 959 1747 
Q 959 1119 1226 758 
Q 1494 397 1959 397 
Q 2419 397 2687 759 
Q 2956 1122 2956 1747 
Q 2956 2369 2687 2733 
Q 2419 3097 1959 3097 
z
M 1959 3584 
Q 2709 3584 3137 3096 
Q 3566 2609 3566 1747 
Q 3566 888 3137 398 
Q 2709 -91 1959 -91 
Q 1206 -91 779 398 
Q 353 888 353 1747 
Q 353 2609 779 3096 
Q 1206 3584 1959 3584 
z
" transform="scale(0.015625)"/>
       <path id="DejaVuSans-75" d="M 544 1381 
L 544 3500 
L 1119 3500 
L 1119 1403 
Q 1119 906 1312 657 
Q 1506 409 1894 409 
Q 2359 409 2629 706 
Q 2900 1003 2900 1516 
L 2900 3500 
L 3475 3500 
L 3475 0 
L 2900 0 
L 2900 538 
Q 2691 219 2414 64 
Q 2138 -91 1772 -91 
Q 1169 -91 856 284 
Q 544 659 544 1381 
z
M 1991 3584 
L 1991 3584 
z
" transform="scale(0.015625)"/>
       <path id="DejaVuSans-6e" d="M 3513 2113 
L 3513 0 
L 2938 0 
L 2938 2094 
Q 2938 2591 2744 2837 
Q 2550 3084 2163 3084 
Q 1697 3084 1428 2787 
Q 1159 2491 1159 1978 
L 1159 0 
L 581 0 
L 581 3500 
L 1159 3500 
L 1159 2956 
Q 1366 3272 1645 3428 
Q 1925 3584 2291 3584 
Q 2894 3584 3203 3211 
Q 3513 2838 3513 2113 
z
" transform="scale(0.015625)"/>
      </defs>
      <use xlink:href="#DejaVuSans-41"/>
      <use xlink:href="#DejaVuSans-76" x="62.533203"/>
      <use xlink:href="#DejaVuSans-65" x="121.712891"/>
      <use xlink:href="#DejaVuSans-72" x="183.236328"/>
      <use xlink:href="#DejaVuSans-61" x="224.349609"/>
      <use xlink:href="#DejaVuSans-67" x="285.628906"/>
      <use xlink:href="#DejaVuSans-65" x="349.105469"/>
      <use xlink:href="#DejaVuSans-20" x="410.628906"/>
      <use xlink:href="#DejaVuSans-50" x="442.416016"/>
      <use xlink:href="#DejaVuSans-65" x="499.09375"/>
      <use xlink:href="#DejaVuSans-6c" x="560.617188"/>
      <use xlink:href="#DejaVuSans-6c" x="588.400391"/>
      <use xlink:href="#DejaVuSans-65" x="616.183594"/>
      <use xlink:href="#DejaVuSans-74" x="677.707031"/>
      <use xlink:href="#DejaVuSans-20" x="716.916016"/>
      <use xlink:href="#DejaVuSans-43" x="748.703125"/>
      <use xlink:href="#DejaVuSans-6f" x="818.527344"/>
      <use xlink:href="#DejaVuSans-75" x="879.708984"/>
      <use xlink:href="#DejaVuSans-6e" x="943.087891"/>
      <use xlink:href="#DejaVuSans-74" x="1006.466797"/>
     </g>
    </g>
   </g>
   <g id="line2d_52">
    <path d="M 103.95 219.707622 
L 117.9 219.707622 
L 131.85 249.451049 
L 145.8 249.451049 
L 159.75 249.451049 
L 173.7 249.451049 
L 187.65 249.451049 
L 201.6 279.194476 
L 215.55 279.194476 
" clip-path="url(#pdc60631d8a)" style="fill: none; stroke: #ff0000; stroke-opacity: 0.3; stroke-linecap: square"/>
   </g>
   <g id="line2d_53">
    <path d="M 103.95 202.308833 
L 117.9 202.308833 
L 131.85 232.05226 
L 145.8 232.05226 
L 159.75 232.05226 
L 173.7 232.05226 
L 187.65 219.707622 
L 201.6 219.707622 
L 215.55 219.707622 
L 229.5 219.707622 
L 243.45 232.05226 
L 257.4 232.05226 
L 271.35 232.05226 
L 285.3 232.05226 
L 299.25 232.05226 
L 313.2 249.451049 
" clip-path="url(#pdc60631d8a)" style="fill: none; stroke: #ff0000; stroke-opacity: 0.3; stroke-linecap: square"/>
   </g>
   <g id="line2d_54">
    <path d="M 103.95 189.964196 
L 117.9 195.69412 
L 131.85 232.05226 
L 145.8 232.05226 
L 159.75 232.05226 
L 173.7 232.05226 
L 187.65 232.05226 
L 201.6 232.05226 
L 215.55 232.05226 
L 229.5 232.05226 
L 243.45 279.194476 
L 257.4 279.194476 
L 271.35 279.194476 
L 285.3 279.194476 
" clip-path="url(#pdc60631d8a)" style="fill: none; stroke: #ff0000; stroke-opacity: 0.3; stroke-linecap: square"/>
   </g>
   <g id="line2d_55">
    <path d="M 103.95 202.308833 
L 117.9 202.308833 
L 131.85 232.05226 
L 145.8 232.05226 
L 159.75 249.451049 
L 173.7 249.451049 
L 187.65 279.194476 
L 201.6 279.194476 
L 215.55 279.194476 
L 229.5 279.194476 
L 243.45 279.194476 
L 257.4 279.194476 
L 271.35 279.194476 
L 285.3 279.194476 
L 299.25 279.194476 
L 313.2 279.194476 
L 327.15 279.194476 
L 341.1 279.194476 
L 355.05 279.194476 
L 369 279.194476 
L 382.95 279.194476 
L 396.9 279.194476 
" clip-path="url(#pdc60631d8a)" style="fill: none; stroke: #ff0000; stroke-opacity: 0.3; stroke-linecap: square"/>
   </g>
   <g id="line2d_56">
    <path d="M 103.95 172.565407 
L 117.9 172.565407 
L 131.85 210.132378 
L 145.8 210.132378 
L 159.75 219.707622 
L 173.7 232.05226 
L 187.65 249.451049 
L 201.6 249.451049 
L 215.55 279.194476 
L 229.5 279.194476 
L 243.45 279.194476 
L 257.4 279.194476 
L 271.35 279.194476 
L 285.3 279.194476 
L 299.25 279.194476 
L 313.2 279.194476 
" clip-path="url(#pdc60631d8a)" style="fill: none; stroke: #ff0000; stroke-opacity: 0.3; stroke-linecap: square"/>
   </g>
   <g id="line2d_57">
    <path d="M 103.95 169.130718 
L 117.9 176.299125 
L 131.85 219.707622 
L 145.8 232.05226 
L 159.75 249.451049 
L 173.7 249.451049 
L 187.65 249.451049 
L 201.6 249.451049 
L 215.55 279.194476 
L 229.5 279.194476 
L 243.45 279.194476 
L 257.4 279.194476 
L 271.35 279.194476 
L 285.3 279.194476 
" clip-path="url(#pdc60631d8a)" style="fill: none; stroke: #ff0000; stroke-opacity: 0.3; stroke-linecap: square"/>
   </g>
   <g id="line2d_58">
    <path d="M 103.95 202.308833 
L 117.9 202.308833 
L 131.85 232.05226 
L 145.8 232.05226 
L 159.75 232.05226 
L 173.7 232.05226 
L 187.65 249.451049 
L 201.6 249.451049 
L 215.55 249.451049 
L 229.5 249.451049 
L 243.45 249.451049 
L 257.4 279.194476 
L 271.35 279.194476 
L 285.3 279.194476 
L 299.25 279.194476 
L 313.2 279.194476 
L 327.15 279.194476 
L 341.1 279.194476 
L 355.05 279.194476 
" clip-path="url(#pdc60631d8a)" style="fill: none; stroke: #ff0000; stroke-opacity: 0.3; stroke-linecap: square"/>
   </g>
   <g id="line2d_59">
    <path d="M 103.95 180.388951 
L 117.9 180.388951 
L 131.85 219.707622 
L 145.8 219.707622 
L 159.75 232.05226 
L 173.7 232.05226 
L 187.65 232.05226 
L 201.6 249.451049 
L 215.55 249.451049 
L 229.5 249.451049 
L 243.45 249.451049 
L 257.4 249.451049 
L 271.35 279.194476 
" clip-path="url(#pdc60631d8a)" style="fill: none; stroke: #ff0000; stroke-opacity: 0.3; stroke-linecap: square"/>
   </g>
   <g id="line2d_60">
    <path d="M 103.95 189.964196 
L 117.9 189.964196 
L 131.85 210.132378 
L 145.8 210.132378 
L 159.75 210.132378 
L 173.7 210.132378 
L 187.65 219.707622 
L 201.6 232.05226 
L 215.55 232.05226 
L 229.5 279.194476 
L 243.45 279.194476 
L 257.4 279.194476 
L 271.35 279.194476 
L 285.3 279.194476 
L 299.25 279.194476 
L 313.2 279.194476 
L 327.15 279.194476 
L 341.1 279.194476 
" clip-path="url(#pdc60631d8a)" style="fill: none; stroke: #ff0000; stroke-opacity: 0.3; stroke-linecap: square"/>
   </g>
   <g id="line2d_61">
    <path d="M 103.95 202.308833 
L 117.9 202.308833 
L 131.85 232.05226 
L 145.8 249.451049 
L 159.75 249.451049 
L 173.7 249.451049 
L 187.65 249.451049 
L 201.6 249.451049 
L 215.55 249.451049 
L 229.5 279.194476 
L 243.45 279.194476 
L 257.4 279.194476 
L 271.35 279.194476 
L 285.3 279.194476 
L 299.25 279.194476 
" clip-path="url(#pdc60631d8a)" style="fill: none; stroke: #ff0000; stroke-opacity: 0.3; stroke-linecap: square"/>
   </g>
   <g id="line2d_62">
    <path d="M 103.95 189.964196 
L 117.9 189.964196 
L 131.85 219.707622 
L 145.8 232.05226 
L 159.75 249.451049 
L 173.7 249.451049 
L 187.65 249.451049 
L 201.6 249.451049 
L 215.55 249.451049 
L 229.5 249.451049 
L 243.45 279.194476 
L 257.4 279.194476 
L 271.35 279.194476 
L 285.3 279.194476 
L 299.25 279.194476 
L 313.2 279.194476 
" clip-path="url(#pdc60631d8a)" style="fill: none; stroke: #ff0000; stroke-opacity: 0.3; stroke-linecap: square"/>
   </g>
   <g id="line2d_63">
    <path d="M 103.95 202.308833 
L 117.9 202.308833 
L 131.85 232.05226 
L 145.8 232.05226 
L 159.75 232.05226 
L 173.7 232.05226 
L 187.65 232.05226 
L 201.6 232.05226 
L 215.55 232.05226 
L 229.5 232.05226 
L 243.45 249.451049 
L 257.4 249.451049 
L 271.35 279.194476 
L 285.3 279.194476 
L 299.25 279.194476 
L 313.2 279.194476 
L 327.15 279.194476 
L 341.1 279.194476 
" clip-path="url(#pdc60631d8a)" style="fill: none; stroke: #ff0000; stroke-opacity: 0.3; stroke-linecap: square"/>
   </g>
   <g id="line2d_64">
    <path d="M 103.95 202.308833 
L 117.9 202.308833 
L 131.85 232.05226 
L 145.8 219.707622 
L 159.75 232.05226 
L 173.7 232.05226 
L 187.65 249.451049 
L 201.6 249.451049 
L 215.55 249.451049 
L 229.5 249.451049 
L 243.45 249.451049 
L 257.4 249.451049 
L 271.35 279.194476 
L 285.3 279.194476 
L 299.25 279.194476 
L 313.2 279.194476 
" clip-path="url(#pdc60631d8a)" style="fill: none; stroke: #ff0000; stroke-opacity: 0.3; stroke-linecap: square"/>
   </g>
   <g id="line2d_65">
    <path d="M 103.95 249.451049 
L 117.9 249.451049 
L 131.85 279.194476 
L 145.8 279.194476 
L 159.75 279.194476 
L 173.7 279.194476 
L 187.65 279.194476 
L 201.6 279.194476 
L 215.55 279.194476 
L 229.5 279.194476 
L 243.45 249.451049 
L 257.4 249.451049 
L 271.35 249.451049 
L 285.3 249.451049 
L 299.25 249.451049 
L 313.2 249.451049 
L 327.15 249.451049 
L 341.1 249.451049 
L 355.05 279.194476 
L 369 279.194476 
L 382.95 279.194476 
L 396.9 279.194476 
L 410.85 279.194476 
" clip-path="url(#pdc60631d8a)" style="fill: none; stroke: #ff0000; stroke-opacity: 0.3; stroke-linecap: square"/>
   </g>
   <g id="line2d_66">
    <path d="M 103.95 189.964196 
L 117.9 189.964196 
L 131.85 232.05226 
L 145.8 232.05226 
L 159.75 232.05226 
L 173.7 232.05226 
L 187.65 232.05226 
L 201.6 232.05226 
L 215.55 232.05226 
L 229.5 232.05226 
L 243.45 279.194476 
L 257.4 279.194476 
L 271.35 279.194476 
L 285.3 279.194476 
" clip-path="url(#pdc60631d8a)" style="fill: none; stroke: #ff0000; stroke-opacity: 0.3; stroke-linecap: square"/>
   </g>
   <g id="line2d_67">
    <path d="M 103.95 180.388951 
L 117.9 180.388951 
L 131.85 210.132378 
L 145.8 210.132378 
L 159.75 210.132378 
L 173.7 210.132378 
L 187.65 210.132378 
L 201.6 210.132378 
L 215.55 249.451049 
L 229.5 249.451049 
L 243.45 249.451049 
L 257.4 249.451049 
L 271.35 279.194476 
L 285.3 279.194476 
L 299.25 279.194476 
L 313.2 279.194476 
" clip-path="url(#pdc60631d8a)" style="fill: none; stroke: #ff0000; stroke-opacity: 0.3; stroke-linecap: square"/>
   </g>
   <g id="line2d_68">
    <path d="M 103.95 180.388951 
L 117.9 180.388951 
L 131.85 210.132378 
L 145.8 219.707622 
L 159.75 249.451049 
L 173.7 249.451049 
L 187.65 249.451049 
L 201.6 279.194476 
L 215.55 279.194476 
L 229.5 279.194476 
L 243.45 279.194476 
L 257.4 279.194476 
L 271.35 279.194476 
L 285.3 279.194476 
L 299.25 279.194476 
" clip-path="url(#pdc60631d8a)" style="fill: none; stroke: #ff0000; stroke-opacity: 0.3; stroke-linecap: square"/>
   </g>
   <g id="line2d_69">
    <path d="M 103.95 165.950694 
L 117.9 169.130718 
L 131.85 202.308833 
L 145.8 202.308833 
L 159.75 202.308833 
L 173.7 219.707622 
L 187.65 232.05226 
L 201.6 279.194476 
L 215.55 279.194476 
L 229.5 279.194476 
L 243.45 279.194476 
" clip-path="url(#pdc60631d8a)" style="fill: none; stroke: #ff0000; stroke-opacity: 0.3; stroke-linecap: square"/>
   </g>
   <g id="LineCollection_1">
    <path d="M 103.95 194.424214 
L 103.95 186.470296 
" clip-path="url(#pdc60631d8a)" style="fill: none; stroke: #ff0000; stroke-width: 1.5"/>
    <path d="M 117.9 195.378856 
L 117.9 187.907239 
" clip-path="url(#pdc60631d8a)" style="fill: none; stroke: #ff0000; stroke-width: 1.5"/>
    <path d="M 131.85 227.72815 
L 131.85 220.748328 
" clip-path="url(#pdc60631d8a)" style="fill: none; stroke: #ff0000; stroke-width: 1.5"/>
    <path d="M 145.8 229.95221 
L 145.8 222.609765 
" clip-path="url(#pdc60631d8a)" style="fill: none; stroke: #ff0000; stroke-width: 1.5"/>
    <path d="M 159.75 236.613025 
L 159.75 227.930002 
" clip-path="url(#pdc60631d8a)" style="fill: none; stroke: #ff0000; stroke-width: 1.5"/>
    <path d="M 173.7 238.400407 
L 173.7 230.933912 
" clip-path="url(#pdc60631d8a)" style="fill: none; stroke: #ff0000; stroke-width: 1.5"/>
    <path d="M 187.65 243.266787 
L 187.65 234.99644 
" clip-path="url(#pdc60631d8a)" style="fill: none; stroke: #ff0000; stroke-width: 1.5"/>
    <path d="M 201.6 250.327558 
L 201.6 240.136068 
" clip-path="url(#pdc60631d8a)" style="fill: none; stroke: #ff0000; stroke-width: 1.5"/>
    <path d="M 215.55 255.836952 
L 215.55 246.040706 
" clip-path="url(#pdc60631d8a)" style="fill: none; stroke: #ff0000; stroke-width: 1.5"/>
    <path d="M 229.5 261.85099 
L 229.5 250.617267 
" clip-path="url(#pdc60631d8a)" style="fill: none; stroke: #ff0000; stroke-width: 1.5"/>
    <path d="M 243.45 269.903436 
L 243.45 260.777173 
" clip-path="url(#pdc60631d8a)" style="fill: none; stroke: #ff0000; stroke-width: 1.5"/>
    <path d="M 257.4 273.969592 
L 257.4 263.964493 
" clip-path="url(#pdc60631d8a)" style="fill: none; stroke: #ff0000; stroke-width: 1.5"/>
    <path d="M 271.35 282.430714 
L 271.35 271.95579 
" clip-path="url(#pdc60631d8a)" style="fill: none; stroke: #ff0000; stroke-width: 1.5"/>
    <path d="M 285.3 285.275864 
L 285.3 273.868939 
" clip-path="url(#pdc60631d8a)" style="fill: none; stroke: #ff0000; stroke-width: 1.5"/>
    <path d="M 299.25 295.314973 
L 299.25 280.068328 
" clip-path="url(#pdc60631d8a)" style="fill: none; stroke: #ff0000; stroke-width: 1.5"/>
    <path d="M 313.2 303.520202 
L 313.2 290.630654 
" clip-path="url(#pdc60631d8a)" style="fill: none; stroke: #ff0000; stroke-width: 1.5"/>
    <path d="M 327.15 342.648351 
L 327.15 314.546125 
" clip-path="url(#pdc60631d8a)" style="fill: none; stroke: #ff0000; stroke-width: 1.5"/>
    <path d="M 341.1 342.648351 
L 341.1 314.546125 
" clip-path="url(#pdc60631d8a)" style="fill: none; stroke: #ff0000; stroke-width: 1.5"/>
    <path d="M 355.05 356.080118 
L 355.05 356.080118 
" clip-path="url(#pdc60631d8a)" style="fill: none; stroke: #ff0000; stroke-width: 1.5"/>
    <path d="M 369 373.478907 
L 369 373.478907 
" clip-path="url(#pdc60631d8a)" style="fill: none; stroke: #ff0000; stroke-width: 1.5"/>
    <path d="M 382.95 373.478907 
L 382.95 373.478907 
" clip-path="url(#pdc60631d8a)" style="fill: none; stroke: #ff0000; stroke-width: 1.5"/>
    <path d="M 396.9 373.478907 
L 396.9 373.478907 
" clip-path="url(#pdc60631d8a)" style="fill: none; stroke: #ff0000; stroke-width: 1.5"/>
    <path clip-path="url(#pdc60631d8a)" style="fill: none; stroke: #ff0000; stroke-width: 1.5"/>
   </g>
   <g id="line2d_70">
    <defs>
     <path id="mbbc8ab1c81" d="M 3 0 
L -3 -0 
" style="stroke: #ff0000"/>
    </defs>
    <g clip-path="url(#pdc60631d8a)">
     <use xlink:href="#mbbc8ab1c81" x="103.95" y="194.424214" style="fill: #ff0000; stroke: #ff0000"/>
     <use xlink:href="#mbbc8ab1c81" x="117.9" y="195.378856" style="fill: #ff0000; stroke: #ff0000"/>
     <use xlink:href="#mbbc8ab1c81" x="131.85" y="227.72815" style="fill: #ff0000; stroke: #ff0000"/>
     <use xlink:href="#mbbc8ab1c81" x="145.8" y="229.95221" style="fill: #ff0000; stroke: #ff0000"/>
     <use xlink:href="#mbbc8ab1c81" x="159.75" y="236.613025" style="fill: #ff0000; stroke: #ff0000"/>
     <use xlink:href="#mbbc8ab1c81" x="173.7" y="238.400407" style="fill: #ff0000; stroke: #ff0000"/>
     <use xlink:href="#mbbc8ab1c81" x="187.65" y="243.266787" style="fill: #ff0000; stroke: #ff0000"/>
     <use xlink:href="#mbbc8ab1c81" x="201.6" y="250.327558" style="fill: #ff0000; stroke: #ff0000"/>
     <use xlink:href="#mbbc8ab1c81" x="215.55" y="255.836952" style="fill: #ff0000; stroke: #ff0000"/>
     <use xlink:href="#mbbc8ab1c81" x="229.5" y="261.85099" style="fill: #ff0000; stroke: #ff0000"/>
     <use xlink:href="#mbbc8ab1c81" x="243.45" y="269.903436" style="fill: #ff0000; stroke: #ff0000"/>
     <use xlink:href="#mbbc8ab1c81" x="257.4" y="273.969592" style="fill: #ff0000; stroke: #ff0000"/>
     <use xlink:href="#mbbc8ab1c81" x="271.35" y="282.430714" style="fill: #ff0000; stroke: #ff0000"/>
     <use xlink:href="#mbbc8ab1c81" x="285.3" y="285.275864" style="fill: #ff0000; stroke: #ff0000"/>
     <use xlink:href="#mbbc8ab1c81" x="299.25" y="295.314973" style="fill: #ff0000; stroke: #ff0000"/>
     <use xlink:href="#mbbc8ab1c81" x="313.2" y="303.520202" style="fill: #ff0000; stroke: #ff0000"/>
     <use xlink:href="#mbbc8ab1c81" x="327.15" y="342.648351" style="fill: #ff0000; stroke: #ff0000"/>
     <use xlink:href="#mbbc8ab1c81" x="341.1" y="342.648351" style="fill: #ff0000; stroke: #ff0000"/>
     <use xlink:href="#mbbc8ab1c81" x="355.05" y="356.080118" style="fill: #ff0000; stroke: #ff0000"/>
     <use xlink:href="#mbbc8ab1c81" x="369" y="373.478907" style="fill: #ff0000; stroke: #ff0000"/>
     <use xlink:href="#mbbc8ab1c81" x="382.95" y="373.478907" style="fill: #ff0000; stroke: #ff0000"/>
     <use xlink:href="#mbbc8ab1c81" x="396.9" y="373.478907" style="fill: #ff0000; stroke: #ff0000"/>
    </g>
   </g>
   <g id="line2d_71">
    <g clip-path="url(#pdc60631d8a)">
     <use xlink:href="#mbbc8ab1c81" x="103.95" y="186.470296" style="fill: #ff0000; stroke: #ff0000"/>
     <use xlink:href="#mbbc8ab1c81" x="117.9" y="187.907239" style="fill: #ff0000; stroke: #ff0000"/>
     <use xlink:href="#mbbc8ab1c81" x="131.85" y="220.748328" style="fill: #ff0000; stroke: #ff0000"/>
     <use xlink:href="#mbbc8ab1c81" x="145.8" y="222.609765" style="fill: #ff0000; stroke: #ff0000"/>
     <use xlink:href="#mbbc8ab1c81" x="159.75" y="227.930002" style="fill: #ff0000; stroke: #ff0000"/>
     <use xlink:href="#mbbc8ab1c81" x="173.7" y="230.933912" style="fill: #ff0000; stroke: #ff0000"/>
     <use xlink:href="#mbbc8ab1c81" x="187.65" y="234.99644" style="fill: #ff0000; stroke: #ff0000"/>
     <use xlink:href="#mbbc8ab1c81" x="201.6" y="240.136068" style="fill: #ff0000; stroke: #ff0000"/>
     <use xlink:href="#mbbc8ab1c81" x="215.55" y="246.040706" style="fill: #ff0000; stroke: #ff0000"/>
     <use xlink:href="#mbbc8ab1c81" x="229.5" y="250.617267" style="fill: #ff0000; stroke: #ff0000"/>
     <use xlink:href="#mbbc8ab1c81" x="243.45" y="260.777173" style="fill: #ff0000; stroke: #ff0000"/>
     <use xlink:href="#mbbc8ab1c81" x="257.4" y="263.964493" style="fill: #ff0000; stroke: #ff0000"/>
     <use xlink:href="#mbbc8ab1c81" x="271.35" y="271.95579" style="fill: #ff0000; stroke: #ff0000"/>
     <use xlink:href="#mbbc8ab1c81" x="285.3" y="273.868939" style="fill: #ff0000; stroke: #ff0000"/>
     <use xlink:href="#mbbc8ab1c81" x="299.25" y="280.068328" style="fill: #ff0000; stroke: #ff0000"/>
     <use xlink:href="#mbbc8ab1c81" x="313.2" y="290.630654" style="fill: #ff0000; stroke: #ff0000"/>
     <use xlink:href="#mbbc8ab1c81" x="327.15" y="314.546125" style="fill: #ff0000; stroke: #ff0000"/>
     <use xlink:href="#mbbc8ab1c81" x="341.1" y="314.546125" style="fill: #ff0000; stroke: #ff0000"/>
     <use xlink:href="#mbbc8ab1c81" x="355.05" y="356.080118" style="fill: #ff0000; stroke: #ff0000"/>
     <use xlink:href="#mbbc8ab1c81" x="369" y="373.478907" style="fill: #ff0000; stroke: #ff0000"/>
     <use xlink:href="#mbbc8ab1c81" x="382.95" y="373.478907" style="fill: #ff0000; stroke: #ff0000"/>
     <use xlink:href="#mbbc8ab1c81" x="396.9" y="373.478907" style="fill: #ff0000; stroke: #ff0000"/>
    </g>
   </g>
   <g id="line2d_72">
    <path d="M 103.95 210.496691 
L 121.399164 213.582654 
L 137.821906 216.704964 
L 153.218227 219.854029 
L 167.588127 223.017484 
L 180.931605 226.179672 
L 193.248662 229.321092 
L 204.539298 232.417855 
L 215.829933 235.75561 
L 226.094147 239.033102 
L 235.33194 242.213414 
L 243.543311 245.252905 
L 251.754682 248.524216 
L 258.939632 251.606656 
L 266.124582 254.927775 
L 272.28311 257.99453 
L 278.441639 261.297447 
L 284.600167 264.875955 
L 289.732274 268.104378 
L 294.864381 271.5956 
L 299.996488 275.396227 
L 304.102174 278.699377 
L 308.20786 282.278159 
L 312.313545 286.182797 
L 315.392809 289.363684 
L 318.472074 292.799379 
L 321.551338 296.534288 
L 324.630602 300.625542 
L 327.709866 305.14838 
L 330.78913 310.204714 
L 332.841973 313.940217 
L 334.894816 318.032186 
L 336.947659 322.555897 
L 339.000502 327.613323 
L 341.053344 333.347456 
L 343.106187 339.967782 
L 345.15903 347.799186 
L 346.185452 352.325519 
L 347.211873 357.386222 
L 348.238294 363.124571 
L 349.264716 369.750519 
L 350.291137 377.589797 
L 351.317559 387.188654 
L 352.34398 399.572674 
L 353.370401 417.050337 
L 353.916451 433 
L 353.916451 433 
" clip-path="url(#pdc60631d8a)" style="fill: none; stroke-dasharray: 7.4,3.2; stroke-dashoffset: 0; stroke: #000000; stroke-width: 2"/>
   </g>
   <g id="line2d_73">
    <path d="M 103.95 190.263226 
L 104.976421 188.329074 
L 106.002843 186.867659 
L 107.029264 185.812295 
L 108.055686 185.112783 
L 109.082107 184.730638 
L 110.108528 184.635923 
L 111.13495 184.805081 
L 112.161371 185.219391 
L 113.187793 185.863845 
L 114.214214 186.726283 
L 115.240635 187.796709 
L 116.267057 189.066716 
L 118.3199 192.176696 
L 120.372742 196.001176 
L 122.425585 200.4758 
L 124.478428 205.502257 
L 130.636957 221.529662 
L 131.663378 223.732929 
L 132.689799 225.570675 
L 133.716221 227.011084 
L 134.742642 228.063061 
L 135.769064 228.749892 
L 136.795485 229.107399 
L 137.821906 229.18123 
L 138.848328 229.023699 
L 139.874749 228.690699 
L 141.927592 227.724756 
L 143.980435 226.720823 
L 145.006856 226.331746 
L 146.033278 226.081968 
L 147.059699 225.998412 
L 148.08612 226.066678 
L 149.112542 226.268665 
L 151.165385 227.006073 
L 153.218227 228.077921 
L 160.403177 232.358637 
L 162.45602 233.115629 
L 164.508863 233.608241 
L 167.588127 234.00448 
L 173.746656 234.511372 
L 176.82592 235.09968 
L 179.905184 235.968699 
L 184.01087 237.446063 
L 190.169398 239.993336 
L 203.512876 245.768754 
L 210.697826 248.827404 
L 214.803512 250.397295 
L 219.935619 252.086147 
L 225.067726 253.836022 
L 228.14699 255.166901 
L 230.199833 256.264232 
L 233.279097 258.246457 
L 241.490468 264.026251 
L 243.543311 265.142546 
L 245.596154 265.963644 
L 247.648997 266.539536 
L 250.728261 267.130458 
L 254.833946 267.895484 
L 256.886789 268.488372 
L 258.939632 269.348982 
L 260.992475 270.462604 
L 264.071739 272.439021 
L 268.177425 275.175758 
L 270.230268 276.349324 
L 272.28311 277.233622 
L 274.335953 277.797483 
L 276.388796 278.123236 
L 284.600167 279.013652 
L 286.65301 279.642083 
L 288.705853 280.540918 
L 290.758696 281.651882 
L 293.83796 283.577542 
L 298.970067 286.858033 
L 302.049331 288.461147 
L 306.155017 290.494033 
L 308.20786 291.743396 
L 310.260702 293.340162 
L 311.287124 294.322496 
L 312.313545 295.461169 
L 313.339967 296.786116 
L 314.366388 298.320062 
L 316.419231 301.980997 
L 318.472074 306.33658 
L 320.524916 311.224753 
L 324.630602 321.3845 
L 325.657023 323.632855 
L 326.683445 325.580819 
L 327.709866 327.119308 
L 328.736288 328.205159 
L 329.762709 328.868535 
L 330.78913 329.158284 
L 331.815552 329.13571 
L 332.841973 328.869802 
L 334.894816 327.896995 
L 336.947659 326.804517 
L 337.97408 326.37776 
L 339.000502 326.113096 
L 340.026923 326.071738 
L 341.053344 326.317587 
L 342.079766 326.90555 
L 343.106187 327.828141 
L 344.132609 329.063404 
L 345.15903 330.593076 
L 346.185452 332.400991 
L 348.238294 336.787936 
L 350.291137 342.07389 
L 353.370401 351.111675 
L 355.423244 357.128724 
L 357.476087 362.349041 
L 358.502508 364.576806 
L 359.52893 366.530191 
L 360.555351 368.20369 
L 361.581773 369.600093 
L 362.608194 370.730694 
L 363.634615 371.6149 
L 364.661037 372.279324 
L 365.687458 372.756522 
L 367.740301 373.300661 
L 370.819565 373.677199 
L 374.925251 373.930186 
L 378.004515 373.917538 
L 381.083779 373.708599 
L 384.163043 373.28896 
L 389.295151 372.498437 
L 391.347993 372.381249 
L 393.400836 372.497785 
L 395.453679 372.932083 
L 397.506522 373.777686 
L 398.532943 374.388507 
L 399.559365 375.145895 
L 400.585786 376.068646 
L 401.612207 377.178701 
L 402.638629 378.502133 
L 403.66505 380.070491 
L 404.691472 381.922688 
L 405.717893 384.107734 
L 406.744314 386.688797 
L 407.770736 389.749493 
L 408.797157 393.404032 
L 409.823579 397.814506 
L 410.85 403.222334 
L 410.85 403.222334 
" clip-path="url(#pdc60631d8a)" style="fill: none; stroke-dasharray: 7.4,3.2; stroke-dashoffset: 0; stroke: #008000; stroke-width: 2"/>
   </g>
   <g id="line2d_74">
    <path d="M 103.95 190.263226 
L 117.9 191.480632 
L 131.85 224.096479 
L 145.8 229.732198 
L 159.75 231.853882 
L 173.7 235.176242 
L 187.65 239.452762 
L 201.6 244.444136 
L 215.55 250.194621 
L 229.5 256.234645 
L 243.45 262.395519 
L 257.4 268.774489 
L 271.35 274.638425 
L 285.3 280.598645 
L 299.25 287.484149 
L 313.2 296.917684 
L 327.15 309.328334 
L 341.1 325.800406 
L 355.05 345.665919 
L 369 360.846322 
L 382.95 373.477082 
L 396.9 382.639153 
L 410.85 393.990268 
" clip-path="url(#pdc60631d8a)" style="fill: none; stroke-dasharray: 7.4,3.2; stroke-dashoffset: 0; stroke: #800080; stroke-width: 2"/>
   </g>
   <g id="line2d_75">
    <defs>
     <path id="m4eb33ad9d9" d="M 0 3 
C 0.795609 3 1.55874 2.683901 2.12132 2.12132 
C 2.683901 1.55874 3 0.795609 3 0 
C 3 -0.795609 2.683901 -1.55874 2.12132 -2.12132 
C 1.55874 -2.683901 0.795609 -3 0 -3 
C -0.795609 -3 -1.55874 -2.683901 -2.12132 -2.12132 
C -2.683901 -1.55874 -3 -0.795609 -3 0 
C -3 0.795609 -2.683901 1.55874 -2.12132 2.12132 
C -1.55874 2.683901 -0.795609 3 0 3 
z
" style="stroke: #ff0000"/>
    </defs>
    <g clip-path="url(#pdc60631d8a)">
     <use xlink:href="#m4eb33ad9d9" x="103.95" y="190.263226" style="fill: #ff0000; stroke: #ff0000"/>
     <use xlink:href="#m4eb33ad9d9" x="117.9" y="191.480632" style="fill: #ff0000; stroke: #ff0000"/>
     <use xlink:href="#m4eb33ad9d9" x="131.85" y="224.096479" style="fill: #ff0000; stroke: #ff0000"/>
     <use xlink:href="#m4eb33ad9d9" x="145.8" y="226.124133" style="fill: #ff0000; stroke: #ff0000"/>
     <use xlink:href="#m4eb33ad9d9" x="159.75" y="232.05226" style="fill: #ff0000; stroke: #ff0000"/>
     <use xlink:href="#m4eb33ad9d9" x="173.7" y="234.504967" style="fill: #ff0000; stroke: #ff0000"/>
     <use xlink:href="#m4eb33ad9d9" x="187.65" y="238.932674" style="fill: #ff0000; stroke: #ff0000"/>
     <use xlink:href="#m4eb33ad9d9" x="201.6" y="244.929956" style="fill: #ff0000; stroke: #ff0000"/>
     <use xlink:href="#m4eb33ad9d9" x="215.55" y="250.659881" style="fill: #ff0000; stroke: #ff0000"/>
     <use xlink:href="#m4eb33ad9d9" x="229.5" y="255.867559" style="fill: #ff0000; stroke: #ff0000"/>
     <use xlink:href="#m4eb33ad9d9" x="243.45" y="265.098138" style="fill: #ff0000; stroke: #ff0000"/>
     <use xlink:href="#m4eb33ad9d9" x="257.4" y="268.676101" style="fill: #ff0000; stroke: #ff0000"/>
     <use xlink:href="#m4eb33ad9d9" x="271.35" y="276.874414" style="fill: #ff0000; stroke: #ff0000"/>
     <use xlink:href="#m4eb33ad9d9" x="285.3" y="279.194476" style="fill: #ff0000; stroke: #ff0000"/>
     <use xlink:href="#m4eb33ad9d9" x="299.25" y="287.01802" style="fill: #ff0000; stroke: #ff0000"/>
     <use xlink:href="#m4eb33ad9d9" x="313.2" y="296.593265" style="fill: #ff0000; stroke: #ff0000"/>
     <use xlink:href="#m4eb33ad9d9" x="327.15" y="326.336691" style="fill: #ff0000; stroke: #ff0000"/>
     <use xlink:href="#m4eb33ad9d9" x="341.1" y="326.336691" style="fill: #ff0000; stroke: #ff0000"/>
     <use xlink:href="#m4eb33ad9d9" x="355.05" y="356.080118" style="fill: #ff0000; stroke: #ff0000"/>
     <use xlink:href="#m4eb33ad9d9" x="369" y="373.478907" style="fill: #ff0000; stroke: #ff0000"/>
     <use xlink:href="#m4eb33ad9d9" x="382.95" y="373.478907" style="fill: #ff0000; stroke: #ff0000"/>
     <use xlink:href="#m4eb33ad9d9" x="396.9" y="373.478907" style="fill: #ff0000; stroke: #ff0000"/>
     <use xlink:href="#m4eb33ad9d9" x="410.85" y="403.222334" style="fill: #ff0000; stroke: #ff0000"/>
    </g>
   </g>
   <g id="patch_3">
    <path d="M 90 378 
L 90 51.84 
" style="fill: none; stroke: #000000; stroke-width: 0.8; stroke-linejoin: miter; stroke-linecap: square"/>
   </g>
   <g id="patch_4">
    <path d="M 648 378 
L 648 51.84 
" style="fill: none; stroke: #000000; stroke-width: 0.8; stroke-linejoin: miter; stroke-linecap: square"/>
   </g>
   <g id="patch_5">
    <path d="M 90 378 
L 648 378 
" style="fill: none; stroke: #000000; stroke-width: 0.8; stroke-linejoin: miter; stroke-linecap: square"/>
   </g>
   <g id="patch_6">
    <path d="M 90 51.84 
L 648 51.84 
" style="fill: none; stroke: #000000; stroke-width: 0.8; stroke-linejoin: miter; stroke-linecap: square"/>
   </g>
   <g id="text_16">
    <!-- Average Pellet Count vs Price Paid by Subject -->
    <g transform="translate(233.11875 45.84)scale(0.12 -0.12)">
     <defs>
      <path id="DejaVuSans-73" d="M 2834 3397 
L 2834 2853 
Q 2591 2978 2328 3040 
Q 2066 3103 1784 3103 
Q 1356 3103 1142 2972 
Q 928 2841 928 2578 
Q 928 2378 1081 2264 
Q 1234 2150 1697 2047 
L 1894 2003 
Q 2506 1872 2764 1633 
Q 3022 1394 3022 966 
Q 3022 478 2636 193 
Q 2250 -91 1575 -91 
Q 1294 -91 989 -36 
Q 684 19 347 128 
L 347 722 
Q 666 556 975 473 
Q 1284 391 1588 391 
Q 1994 391 2212 530 
Q 2431 669 2431 922 
Q 2431 1156 2273 1281 
Q 2116 1406 1581 1522 
L 1381 1569 
Q 847 1681 609 1914 
Q 372 2147 372 2553 
Q 372 3047 722 3315 
Q 1072 3584 1716 3584 
Q 2034 3584 2315 3537 
Q 2597 3491 2834 3397 
z
" transform="scale(0.015625)"/>
      <path id="DejaVuSans-62" d="M 3116 1747 
Q 3116 2381 2855 2742 
Q 2594 3103 2138 3103 
Q 1681 3103 1420 2742 
Q 1159 2381 1159 1747 
Q 1159 1113 1420 752 
Q 1681 391 2138 391 
Q 2594 391 2855 752 
Q 3116 1113 3116 1747 
z
M 1159 2969 
Q 1341 3281 1617 3432 
Q 1894 3584 2278 3584 
Q 2916 3584 3314 3078 
Q 3713 2572 3713 1747 
Q 3713 922 3314 415 
Q 2916 -91 2278 -91 
Q 1894 -91 1617 61 
Q 1341 213 1159 525 
L 1159 0 
L 581 0 
L 581 4863 
L 1159 4863 
L 1159 2969 
z
" transform="scale(0.015625)"/>
      <path id="DejaVuSans-79" d="M 2059 -325 
Q 1816 -950 1584 -1140 
Q 1353 -1331 966 -1331 
L 506 -1331 
L 506 -850 
L 844 -850 
Q 1081 -850 1212 -737 
Q 1344 -625 1503 -206 
L 1606 56 
L 191 3500 
L 800 3500 
L 1894 763 
L 2988 3500 
L 3597 3500 
L 2059 -325 
z
" transform="scale(0.015625)"/>
      <path id="DejaVuSans-53" d="M 3425 4513 
L 3425 3897 
Q 3066 4069 2747 4153 
Q 2428 4238 2131 4238 
Q 1616 4238 1336 4038 
Q 1056 3838 1056 3469 
Q 1056 3159 1242 3001 
Q 1428 2844 1947 2747 
L 2328 2669 
Q 3034 2534 3370 2195 
Q 3706 1856 3706 1288 
Q 3706 609 3251 259 
Q 2797 -91 1919 -91 
Q 1588 -91 1214 -16 
Q 841 59 441 206 
L 441 856 
Q 825 641 1194 531 
Q 1563 422 1919 422 
Q 2459 422 2753 634 
Q 3047 847 3047 1241 
Q 3047 1584 2836 1778 
Q 2625 1972 2144 2069 
L 1759 2144 
Q 1053 2284 737 2584 
Q 422 2884 422 3419 
Q 422 4038 858 4394 
Q 1294 4750 2059 4750 
Q 2388 4750 2728 4690 
Q 3069 4631 3425 4513 
z
" transform="scale(0.015625)"/>
      <path id="DejaVuSans-6a" d="M 603 3500 
L 1178 3500 
L 1178 -63 
Q 1178 -731 923 -1031 
Q 669 -1331 103 -1331 
L -116 -1331 
L -116 -844 
L 38 -844 
Q 366 -844 484 -692 
Q 603 -541 603 -63 
L 603 3500 
z
M 603 4863 
L 1178 4863 
L 1178 4134 
L 603 4134 
L 603 4863 
z
" transform="scale(0.015625)"/>
     </defs>
     <use xlink:href="#DejaVuSans-41"/>
     <use xlink:href="#DejaVuSans-76" x="62.533203"/>
     <use xlink:href="#DejaVuSans-65" x="121.712891"/>
     <use xlink:href="#DejaVuSans-72" x="183.236328"/>
     <use xlink:href="#DejaVuSans-61" x="224.349609"/>
     <use xlink:href="#DejaVuSans-67" x="285.628906"/>
     <use xlink:href="#DejaVuSans-65" x="349.105469"/>
     <use xlink:href="#DejaVuSans-20" x="410.628906"/>
     <use xlink:href="#DejaVuSans-50" x="442.416016"/>
     <use xlink:href="#DejaVuSans-65" x="499.09375"/>
     <use xlink:href="#DejaVuSans-6c" x="560.617188"/>
     <use xlink:href="#DejaVuSans-6c" x="588.400391"/>
     <use xlink:href="#DejaVuSans-65" x="616.183594"/>
     <use xlink:href="#DejaVuSans-74" x="677.707031"/>
     <use xlink:href="#DejaVuSans-20" x="716.916016"/>
     <use xlink:href="#DejaVuSans-43" x="748.703125"/>
     <use xlink:href="#DejaVuSans-6f" x="818.527344"/>
     <use xlink:href="#DejaVuSans-75" x="879.708984"/>
     <use xlink:href="#DejaVuSans-6e" x="943.087891"/>
     <use xlink:href="#DejaVuSans-74" x="1006.466797"/>
     <use xlink:href="#DejaVuSans-20" x="1045.675781"/>
     <use xlink:href="#DejaVuSans-76" x="1077.462891"/>
     <use xlink:href="#DejaVuSans-73" x="1136.642578"/>
     <use xlink:href="#DejaVuSans-20" x="1188.742188"/>
     <use xlink:href="#DejaVuSans-50" x="1220.529297"/>
     <use xlink:href="#DejaVuSans-72" x="1279.082031"/>
     <use xlink:href="#DejaVuSans-69" x="1320.195312"/>
     <use xlink:href="#DejaVuSans-63" x="1347.978516"/>
     <use xlink:href="#DejaVuSans-65" x="1402.958984"/>
     <use xlink:href="#DejaVuSans-20" x="1464.482422"/>
     <use xlink:href="#DejaVuSans-50" x="1496.269531"/>
     <use xlink:href="#DejaVuSans-61" x="1552.072266"/>
     <use xlink:href="#DejaVuSans-69" x="1613.351562"/>
     <use xlink:href="#DejaVuSans-64" x="1641.134766"/>
     <use xlink:href="#DejaVuSans-20" x="1704.611328"/>
     <use xlink:href="#DejaVuSans-62" x="1736.398438"/>
     <use xlink:href="#DejaVuSans-79" x="1799.875"/>
     <use xlink:href="#DejaVuSans-20" x="1859.054688"/>
     <use xlink:href="#DejaVuSans-53" x="1890.841797"/>
     <use xlink:href="#DejaVuSans-75" x="1954.318359"/>
     <use xlink:href="#DejaVuSans-62" x="2017.697266"/>
     <use xlink:href="#DejaVuSans-6a" x="2081.173828"/>
     <use xlink:href="#DejaVuSans-65" x="2108.957031"/>
     <use xlink:href="#DejaVuSans-63" x="2170.480469"/>
     <use xlink:href="#DejaVuSans-74" x="2225.460938"/>
    </g>
   </g>
  </g>
 </g>
 <defs>
  <clipPath id="pdc60631d8a">
   <rect x="90" y="51.84" width="558" height="326.16"/>
  </clipPath>
 </defs>
</svg>
