<?xml version="1.0" encoding="utf-8" standalone="no"?>
<!DOCTYPE svg PUBLIC "-//W3C//DTD SVG 1.1//EN"
  "http://www.w3.org/Graphics/SVG/1.1/DTD/svg11.dtd">
<!-- Created with matplotlib (https://matplotlib.org/) -->
<svg height="432pt" version="1.1" viewBox="0 0 720 432" width="720pt" xmlns="http://www.w3.org/2000/svg" xmlns:xlink="http://www.w3.org/1999/xlink">
 <metadata>
  <rdf:RDF xmlns:cc="http://creativecommons.org/ns#" xmlns:dc="http://purl.org/dc/elements/1.1/" xmlns:rdf="http://www.w3.org/1999/02/22-rdf-syntax-ns#">
   <cc:Work>
    <dc:type rdf:resource="http://purl.org/dc/dcmitype/StillImage"/>
    <dc:date>2024-10-17T22:13:51.698911</dc:date>
    <dc:format>image/svg+xml</dc:format>
    <dc:creator>
     <cc:Agent>
      <dc:title>Matplotlib v3.3.4, https://matplotlib.org/</dc:title>
     </cc:Agent>
    </dc:creator>
   </cc:Work>
  </rdf:RDF>
 </metadata>
 <defs>
  <style type="text/css">*{stroke-linecap:butt;stroke-linejoin:round;}</style>
 </defs>
 <g id="figure_1">
  <g id="patch_1">
   <path d="M 0 432 
L 720 432 
L 720 0 
L 0 0 
z
" style="fill:#ffffff;"/>
  </g>
  <g id="axes_1">
   <g id="patch_2">
    <path d="M 90 378 
L 648 378 
L 648 51.84 
L 90 51.84 
z
" style="fill:#ffffff;"/>
   </g>
   <g id="matplotlib.axis_1">
    <g id="xtick_1">
     <g id="line2d_1">
      <path clip-path="url(#pad55d15028)" d="M 114.338491 378 
L 114.338491 51.84 
" style="fill:none;stroke:#b0b0b0;stroke-linecap:square;stroke-width:0.8;"/>
     </g>
     <g id="line2d_2">
      <defs>
       <path d="M 0 0 
L 0 3.5 
" id="m90fede9cf9" style="stroke:#000000;stroke-width:0.8;"/>
      </defs>
      <g>
       <use style="stroke:#000000;stroke-width:0.8;" x="114.338491" xlink:href="#m90fede9cf9" y="378"/>
      </g>
     </g>
     <g id="text_1">
      <!-- $\mathdefault{10^{0}}$ -->
      <g transform="translate(105.538491 392.598437)scale(0.1 -0.1)">
       <defs>
        <path d="M 12.40625 8.296875 
L 28.515625 8.296875 
L 28.515625 63.921875 
L 10.984375 60.40625 
L 10.984375 69.390625 
L 28.421875 72.90625 
L 38.28125 72.90625 
L 38.28125 8.296875 
L 54.390625 8.296875 
L 54.390625 0 
L 12.40625 0 
z
" id="DejaVuSans-49"/>
        <path d="M 31.78125 66.40625 
Q 24.171875 66.40625 20.328125 58.90625 
Q 16.5 51.421875 16.5 36.375 
Q 16.5 21.390625 20.328125 13.890625 
Q 24.171875 6.390625 31.78125 6.390625 
Q 39.453125 6.390625 43.28125 13.890625 
Q 47.125 21.390625 47.125 36.375 
Q 47.125 51.421875 43.28125 58.90625 
Q 39.453125 66.40625 31.78125 66.40625 
z
M 31.78125 74.21875 
Q 44.046875 74.21875 50.515625 64.515625 
Q 56.984375 54.828125 56.984375 36.375 
Q 56.984375 17.96875 50.515625 8.265625 
Q 44.046875 -1.421875 31.78125 -1.421875 
Q 19.53125 -1.421875 13.0625 8.265625 
Q 6.59375 17.96875 6.59375 36.375 
Q 6.59375 54.828125 13.0625 64.515625 
Q 19.53125 74.21875 31.78125 74.21875 
z
" id="DejaVuSans-48"/>
       </defs>
       <use transform="translate(0 0.765625)" xlink:href="#DejaVuSans-49"/>
       <use transform="translate(63.623047 0.765625)" xlink:href="#DejaVuSans-48"/>
       <use transform="translate(128.203125 39.046875)scale(0.7)" xlink:href="#DejaVuSans-48"/>
      </g>
     </g>
    </g>
    <g id="xtick_2">
     <g id="line2d_3">
      <path clip-path="url(#pad55d15028)" d="M 292.225661 378 
L 292.225661 51.84 
" style="fill:none;stroke:#b0b0b0;stroke-linecap:square;stroke-width:0.8;"/>
     </g>
     <g id="line2d_4">
      <g>
       <use style="stroke:#000000;stroke-width:0.8;" x="292.225661" xlink:href="#m90fede9cf9" y="378"/>
      </g>
     </g>
     <g id="text_2">
      <!-- $\mathdefault{10^{1}}$ -->
      <g transform="translate(283.425661 392.598437)scale(0.1 -0.1)">
       <use transform="translate(0 0.684375)" xlink:href="#DejaVuSans-49"/>
       <use transform="translate(63.623047 0.684375)" xlink:href="#DejaVuSans-48"/>
       <use transform="translate(128.203125 38.965625)scale(0.7)" xlink:href="#DejaVuSans-49"/>
      </g>
     </g>
    </g>
    <g id="xtick_3">
     <g id="line2d_5">
      <path clip-path="url(#pad55d15028)" d="M 470.11283 378 
L 470.11283 51.84 
" style="fill:none;stroke:#b0b0b0;stroke-linecap:square;stroke-width:0.8;"/>
     </g>
     <g id="line2d_6">
      <g>
       <use style="stroke:#000000;stroke-width:0.8;" x="470.11283" xlink:href="#m90fede9cf9" y="378"/>
      </g>
     </g>
     <g id="text_3">
      <!-- $\mathdefault{10^{2}}$ -->
      <g transform="translate(461.31283 392.598437)scale(0.1 -0.1)">
       <defs>
        <path d="M 19.1875 8.296875 
L 53.609375 8.296875 
L 53.609375 0 
L 7.328125 0 
L 7.328125 8.296875 
Q 12.9375 14.109375 22.625 23.890625 
Q 32.328125 33.6875 34.8125 36.53125 
Q 39.546875 41.84375 41.421875 45.53125 
Q 43.3125 49.21875 43.3125 52.78125 
Q 43.3125 58.59375 39.234375 62.25 
Q 35.15625 65.921875 28.609375 65.921875 
Q 23.96875 65.921875 18.8125 64.3125 
Q 13.671875 62.703125 7.8125 59.421875 
L 7.8125 69.390625 
Q 13.765625 71.78125 18.9375 73 
Q 24.125 74.21875 28.421875 74.21875 
Q 39.75 74.21875 46.484375 68.546875 
Q 53.21875 62.890625 53.21875 53.421875 
Q 53.21875 48.921875 51.53125 44.890625 
Q 49.859375 40.875 45.40625 35.40625 
Q 44.1875 33.984375 37.640625 27.21875 
Q 31.109375 20.453125 19.1875 8.296875 
z
" id="DejaVuSans-50"/>
       </defs>
       <use transform="translate(0 0.765625)" xlink:href="#DejaVuSans-49"/>
       <use transform="translate(63.623047 0.765625)" xlink:href="#DejaVuSans-48"/>
       <use transform="translate(128.203125 39.046875)scale(0.7)" xlink:href="#DejaVuSans-50"/>
      </g>
     </g>
    </g>
    <g id="xtick_4">
     <g id="line2d_7">
      <path clip-path="url(#pad55d15028)" d="M 648 378 
L 648 51.84 
" style="fill:none;stroke:#b0b0b0;stroke-linecap:square;stroke-width:0.8;"/>
     </g>
     <g id="line2d_8">
      <g>
       <use style="stroke:#000000;stroke-width:0.8;" x="648" xlink:href="#m90fede9cf9" y="378"/>
      </g>
     </g>
     <g id="text_4">
      <!-- $\mathdefault{10^{3}}$ -->
      <g transform="translate(639.2 392.598437)scale(0.1 -0.1)">
       <defs>
        <path d="M 40.578125 39.3125 
Q 47.65625 37.796875 51.625 33 
Q 55.609375 28.21875 55.609375 21.1875 
Q 55.609375 10.40625 48.1875 4.484375 
Q 40.765625 -1.421875 27.09375 -1.421875 
Q 22.515625 -1.421875 17.65625 -0.515625 
Q 12.796875 0.390625 7.625 2.203125 
L 7.625 11.71875 
Q 11.71875 9.328125 16.59375 8.109375 
Q 21.484375 6.890625 26.8125 6.890625 
Q 36.078125 6.890625 40.9375 10.546875 
Q 45.796875 14.203125 45.796875 21.1875 
Q 45.796875 27.640625 41.28125 31.265625 
Q 36.765625 34.90625 28.71875 34.90625 
L 20.21875 34.90625 
L 20.21875 43.015625 
L 29.109375 43.015625 
Q 36.375 43.015625 40.234375 45.921875 
Q 44.09375 48.828125 44.09375 54.296875 
Q 44.09375 59.90625 40.109375 62.90625 
Q 36.140625 65.921875 28.71875 65.921875 
Q 24.65625 65.921875 20.015625 65.03125 
Q 15.375 64.15625 9.8125 62.3125 
L 9.8125 71.09375 
Q 15.4375 72.65625 20.34375 73.4375 
Q 25.25 74.21875 29.59375 74.21875 
Q 40.828125 74.21875 47.359375 69.109375 
Q 53.90625 64.015625 53.90625 55.328125 
Q 53.90625 49.265625 50.4375 45.09375 
Q 46.96875 40.921875 40.578125 39.3125 
z
" id="DejaVuSans-51"/>
       </defs>
       <use transform="translate(0 0.765625)" xlink:href="#DejaVuSans-49"/>
       <use transform="translate(63.623047 0.765625)" xlink:href="#DejaVuSans-48"/>
       <use transform="translate(128.203125 39.046875)scale(0.7)" xlink:href="#DejaVuSans-51"/>
      </g>
     </g>
    </g>
    <g id="xtick_5">
     <g id="line2d_9">
      <defs>
       <path d="M 0 0 
L 0 2 
" id="mf68d126a42" style="stroke:#000000;stroke-width:0.6;"/>
      </defs>
      <g>
       <use style="stroke:#000000;stroke-width:0.6;" x="97.099444" xlink:href="#mf68d126a42" y="378"/>
      </g>
     </g>
    </g>
    <g id="xtick_6">
     <g id="line2d_10">
      <g>
       <use style="stroke:#000000;stroke-width:0.6;" x="106.198821" xlink:href="#mf68d126a42" y="378"/>
      </g>
     </g>
    </g>
    <g id="xtick_7">
     <g id="line2d_11">
      <g>
       <use style="stroke:#000000;stroke-width:0.6;" x="167.887865" xlink:href="#mf68d126a42" y="378"/>
      </g>
     </g>
    </g>
    <g id="xtick_8">
     <g id="line2d_12">
      <g>
       <use style="stroke:#000000;stroke-width:0.6;" x="199.212241" xlink:href="#mf68d126a42" y="378"/>
      </g>
     </g>
    </g>
    <g id="xtick_9">
     <g id="line2d_13">
      <g>
       <use style="stroke:#000000;stroke-width:0.6;" x="221.437239" xlink:href="#mf68d126a42" y="378"/>
      </g>
     </g>
    </g>
    <g id="xtick_10">
     <g id="line2d_14">
      <g>
       <use style="stroke:#000000;stroke-width:0.6;" x="238.676287" xlink:href="#mf68d126a42" y="378"/>
      </g>
     </g>
    </g>
    <g id="xtick_11">
     <g id="line2d_15">
      <g>
       <use style="stroke:#000000;stroke-width:0.6;" x="252.761615" xlink:href="#mf68d126a42" y="378"/>
      </g>
     </g>
    </g>
    <g id="xtick_12">
     <g id="line2d_16">
      <g>
       <use style="stroke:#000000;stroke-width:0.6;" x="264.67059" xlink:href="#mf68d126a42" y="378"/>
      </g>
     </g>
    </g>
    <g id="xtick_13">
     <g id="line2d_17">
      <g>
       <use style="stroke:#000000;stroke-width:0.6;" x="274.986613" xlink:href="#mf68d126a42" y="378"/>
      </g>
     </g>
    </g>
    <g id="xtick_14">
     <g id="line2d_18">
      <g>
       <use style="stroke:#000000;stroke-width:0.6;" x="284.08599" xlink:href="#mf68d126a42" y="378"/>
      </g>
     </g>
    </g>
    <g id="xtick_15">
     <g id="line2d_19">
      <g>
       <use style="stroke:#000000;stroke-width:0.6;" x="345.775035" xlink:href="#mf68d126a42" y="378"/>
      </g>
     </g>
    </g>
    <g id="xtick_16">
     <g id="line2d_20">
      <g>
       <use style="stroke:#000000;stroke-width:0.6;" x="377.09941" xlink:href="#mf68d126a42" y="378"/>
      </g>
     </g>
    </g>
    <g id="xtick_17">
     <g id="line2d_21">
      <g>
       <use style="stroke:#000000;stroke-width:0.6;" x="399.324409" xlink:href="#mf68d126a42" y="378"/>
      </g>
     </g>
    </g>
    <g id="xtick_18">
     <g id="line2d_22">
      <g>
       <use style="stroke:#000000;stroke-width:0.6;" x="416.563457" xlink:href="#mf68d126a42" y="378"/>
      </g>
     </g>
    </g>
    <g id="xtick_19">
     <g id="line2d_23">
      <g>
       <use style="stroke:#000000;stroke-width:0.6;" x="430.648784" xlink:href="#mf68d126a42" y="378"/>
      </g>
     </g>
    </g>
    <g id="xtick_20">
     <g id="line2d_24">
      <g>
       <use style="stroke:#000000;stroke-width:0.6;" x="442.557759" xlink:href="#mf68d126a42" y="378"/>
      </g>
     </g>
    </g>
    <g id="xtick_21">
     <g id="line2d_25">
      <g>
       <use style="stroke:#000000;stroke-width:0.6;" x="452.873783" xlink:href="#mf68d126a42" y="378"/>
      </g>
     </g>
    </g>
    <g id="xtick_22">
     <g id="line2d_26">
      <g>
       <use style="stroke:#000000;stroke-width:0.6;" x="461.97316" xlink:href="#mf68d126a42" y="378"/>
      </g>
     </g>
    </g>
    <g id="xtick_23">
     <g id="line2d_27">
      <g>
       <use style="stroke:#000000;stroke-width:0.6;" x="523.662204" xlink:href="#mf68d126a42" y="378"/>
      </g>
     </g>
    </g>
    <g id="xtick_24">
     <g id="line2d_28">
      <g>
       <use style="stroke:#000000;stroke-width:0.6;" x="554.98658" xlink:href="#mf68d126a42" y="378"/>
      </g>
     </g>
    </g>
    <g id="xtick_25">
     <g id="line2d_29">
      <g>
       <use style="stroke:#000000;stroke-width:0.6;" x="577.211578" xlink:href="#mf68d126a42" y="378"/>
      </g>
     </g>
    </g>
    <g id="xtick_26">
     <g id="line2d_30">
      <g>
       <use style="stroke:#000000;stroke-width:0.6;" x="594.450626" xlink:href="#mf68d126a42" y="378"/>
      </g>
     </g>
    </g>
    <g id="xtick_27">
     <g id="line2d_31">
      <g>
       <use style="stroke:#000000;stroke-width:0.6;" x="608.535954" xlink:href="#mf68d126a42" y="378"/>
      </g>
     </g>
    </g>
    <g id="xtick_28">
     <g id="line2d_32">
      <g>
       <use style="stroke:#000000;stroke-width:0.6;" x="620.444929" xlink:href="#mf68d126a42" y="378"/>
      </g>
     </g>
    </g>
    <g id="xtick_29">
     <g id="line2d_33">
      <g>
       <use style="stroke:#000000;stroke-width:0.6;" x="630.760952" xlink:href="#mf68d126a42" y="378"/>
      </g>
     </g>
    </g>
    <g id="xtick_30">
     <g id="line2d_34">
      <g>
       <use style="stroke:#000000;stroke-width:0.6;" x="639.86033" xlink:href="#mf68d126a42" y="378"/>
      </g>
     </g>
    </g>
    <g id="text_5">
     <!-- Price Paid -->
     <g transform="translate(344.796094 406.276563)scale(0.1 -0.1)">
      <defs>
       <path d="M 19.671875 64.796875 
L 19.671875 37.40625 
L 32.078125 37.40625 
Q 38.96875 37.40625 42.71875 40.96875 
Q 46.484375 44.53125 46.484375 51.125 
Q 46.484375 57.671875 42.71875 61.234375 
Q 38.96875 64.796875 32.078125 64.796875 
z
M 9.8125 72.90625 
L 32.078125 72.90625 
Q 44.34375 72.90625 50.609375 67.359375 
Q 56.890625 61.8125 56.890625 51.125 
Q 56.890625 40.328125 50.609375 34.8125 
Q 44.34375 29.296875 32.078125 29.296875 
L 19.671875 29.296875 
L 19.671875 0 
L 9.8125 0 
z
" id="DejaVuSans-80"/>
       <path d="M 41.109375 46.296875 
Q 39.59375 47.171875 37.8125 47.578125 
Q 36.03125 48 33.890625 48 
Q 26.265625 48 22.1875 43.046875 
Q 18.109375 38.09375 18.109375 28.8125 
L 18.109375 0 
L 9.078125 0 
L 9.078125 54.6875 
L 18.109375 54.6875 
L 18.109375 46.1875 
Q 20.953125 51.171875 25.484375 53.578125 
Q 30.03125 56 36.53125 56 
Q 37.453125 56 38.578125 55.875 
Q 39.703125 55.765625 41.0625 55.515625 
z
" id="DejaVuSans-114"/>
       <path d="M 9.421875 54.6875 
L 18.40625 54.6875 
L 18.40625 0 
L 9.421875 0 
z
M 9.421875 75.984375 
L 18.40625 75.984375 
L 18.40625 64.59375 
L 9.421875 64.59375 
z
" id="DejaVuSans-105"/>
       <path d="M 48.78125 52.59375 
L 48.78125 44.1875 
Q 44.96875 46.296875 41.140625 47.34375 
Q 37.3125 48.390625 33.40625 48.390625 
Q 24.65625 48.390625 19.8125 42.84375 
Q 14.984375 37.3125 14.984375 27.296875 
Q 14.984375 17.28125 19.8125 11.734375 
Q 24.65625 6.203125 33.40625 6.203125 
Q 37.3125 6.203125 41.140625 7.25 
Q 44.96875 8.296875 48.78125 10.40625 
L 48.78125 2.09375 
Q 45.015625 0.34375 40.984375 -0.53125 
Q 36.96875 -1.421875 32.421875 -1.421875 
Q 20.0625 -1.421875 12.78125 6.34375 
Q 5.515625 14.109375 5.515625 27.296875 
Q 5.515625 40.671875 12.859375 48.328125 
Q 20.21875 56 33.015625 56 
Q 37.15625 56 41.109375 55.140625 
Q 45.0625 54.296875 48.78125 52.59375 
z
" id="DejaVuSans-99"/>
       <path d="M 56.203125 29.59375 
L 56.203125 25.203125 
L 14.890625 25.203125 
Q 15.484375 15.921875 20.484375 11.0625 
Q 25.484375 6.203125 34.421875 6.203125 
Q 39.59375 6.203125 44.453125 7.46875 
Q 49.3125 8.734375 54.109375 11.28125 
L 54.109375 2.78125 
Q 49.265625 0.734375 44.1875 -0.34375 
Q 39.109375 -1.421875 33.890625 -1.421875 
Q 20.796875 -1.421875 13.15625 6.1875 
Q 5.515625 13.8125 5.515625 26.8125 
Q 5.515625 40.234375 12.765625 48.109375 
Q 20.015625 56 32.328125 56 
Q 43.359375 56 49.78125 48.890625 
Q 56.203125 41.796875 56.203125 29.59375 
z
M 47.21875 32.234375 
Q 47.125 39.59375 43.09375 43.984375 
Q 39.0625 48.390625 32.421875 48.390625 
Q 24.90625 48.390625 20.390625 44.140625 
Q 15.875 39.890625 15.1875 32.171875 
z
" id="DejaVuSans-101"/>
       <path id="DejaVuSans-32"/>
       <path d="M 34.28125 27.484375 
Q 23.390625 27.484375 19.1875 25 
Q 14.984375 22.515625 14.984375 16.5 
Q 14.984375 11.71875 18.140625 8.90625 
Q 21.296875 6.109375 26.703125 6.109375 
Q 34.1875 6.109375 38.703125 11.40625 
Q 43.21875 16.703125 43.21875 25.484375 
L 43.21875 27.484375 
z
M 52.203125 31.203125 
L 52.203125 0 
L 43.21875 0 
L 43.21875 8.296875 
Q 40.140625 3.328125 35.546875 0.953125 
Q 30.953125 -1.421875 24.3125 -1.421875 
Q 15.921875 -1.421875 10.953125 3.296875 
Q 6 8.015625 6 15.921875 
Q 6 25.140625 12.171875 29.828125 
Q 18.359375 34.515625 30.609375 34.515625 
L 43.21875 34.515625 
L 43.21875 35.40625 
Q 43.21875 41.609375 39.140625 45 
Q 35.0625 48.390625 27.6875 48.390625 
Q 23 48.390625 18.546875 47.265625 
Q 14.109375 46.140625 10.015625 43.890625 
L 10.015625 52.203125 
Q 14.9375 54.109375 19.578125 55.046875 
Q 24.21875 56 28.609375 56 
Q 40.484375 56 46.34375 49.84375 
Q 52.203125 43.703125 52.203125 31.203125 
z
" id="DejaVuSans-97"/>
       <path d="M 45.40625 46.390625 
L 45.40625 75.984375 
L 54.390625 75.984375 
L 54.390625 0 
L 45.40625 0 
L 45.40625 8.203125 
Q 42.578125 3.328125 38.25 0.953125 
Q 33.9375 -1.421875 27.875 -1.421875 
Q 17.96875 -1.421875 11.734375 6.484375 
Q 5.515625 14.40625 5.515625 27.296875 
Q 5.515625 40.1875 11.734375 48.09375 
Q 17.96875 56 27.875 56 
Q 33.9375 56 38.25 53.625 
Q 42.578125 51.265625 45.40625 46.390625 
z
M 14.796875 27.296875 
Q 14.796875 17.390625 18.875 11.75 
Q 22.953125 6.109375 30.078125 6.109375 
Q 37.203125 6.109375 41.296875 11.75 
Q 45.40625 17.390625 45.40625 27.296875 
Q 45.40625 37.203125 41.296875 42.84375 
Q 37.203125 48.484375 30.078125 48.484375 
Q 22.953125 48.484375 18.875 42.84375 
Q 14.796875 37.203125 14.796875 27.296875 
z
" id="DejaVuSans-100"/>
      </defs>
      <use xlink:href="#DejaVuSans-80"/>
      <use x="58.552734" xlink:href="#DejaVuSans-114"/>
      <use x="99.666016" xlink:href="#DejaVuSans-105"/>
      <use x="127.449219" xlink:href="#DejaVuSans-99"/>
      <use x="182.429688" xlink:href="#DejaVuSans-101"/>
      <use x="243.953125" xlink:href="#DejaVuSans-32"/>
      <use x="275.740234" xlink:href="#DejaVuSans-80"/>
      <use x="331.542969" xlink:href="#DejaVuSans-97"/>
      <use x="392.822266" xlink:href="#DejaVuSans-105"/>
      <use x="420.605469" xlink:href="#DejaVuSans-100"/>
     </g>
    </g>
   </g>
   <g id="matplotlib.axis_2">
    <g id="ytick_1">
     <g id="line2d_35">
      <path clip-path="url(#pad55d15028)" d="M 90 378 
L 648 378 
" style="fill:none;stroke:#b0b0b0;stroke-linecap:square;stroke-width:0.8;"/>
     </g>
     <g id="line2d_36">
      <defs>
       <path d="M 0 0 
L -3.5 0 
" id="mc14f58e3e6" style="stroke:#000000;stroke-width:0.8;"/>
      </defs>
      <g>
       <use style="stroke:#000000;stroke-width:0.8;" x="90" xlink:href="#mc14f58e3e6" y="378"/>
      </g>
     </g>
     <g id="text_6">
      <!-- $\mathdefault{10^{-1}}$ -->
      <g transform="translate(59.5 381.799219)scale(0.1 -0.1)">
       <defs>
        <path d="M 10.59375 35.5 
L 73.1875 35.5 
L 73.1875 27.203125 
L 10.59375 27.203125 
z
" id="DejaVuSans-8722"/>
       </defs>
       <use transform="translate(0 0.684375)" xlink:href="#DejaVuSans-49"/>
       <use transform="translate(63.623047 0.684375)" xlink:href="#DejaVuSans-48"/>
       <use transform="translate(128.203125 38.965625)scale(0.7)" xlink:href="#DejaVuSans-8722"/>
       <use transform="translate(186.855469 38.965625)scale(0.7)" xlink:href="#DejaVuSans-49"/>
      </g>
     </g>
    </g>
    <g id="ytick_2">
     <g id="line2d_37">
      <path clip-path="url(#pad55d15028)" d="M 90 279.194476 
L 648 279.194476 
" style="fill:none;stroke:#b0b0b0;stroke-linecap:square;stroke-width:0.8;"/>
     </g>
     <g id="line2d_38">
      <g>
       <use style="stroke:#000000;stroke-width:0.8;" x="90" xlink:href="#mc14f58e3e6" y="279.194476"/>
      </g>
     </g>
     <g id="text_7">
      <!-- $\mathdefault{10^{0}}$ -->
      <g transform="translate(65.4 282.993694)scale(0.1 -0.1)">
       <use transform="translate(0 0.765625)" xlink:href="#DejaVuSans-49"/>
       <use transform="translate(63.623047 0.765625)" xlink:href="#DejaVuSans-48"/>
       <use transform="translate(128.203125 39.046875)scale(0.7)" xlink:href="#DejaVuSans-48"/>
      </g>
     </g>
    </g>
    <g id="ytick_3">
     <g id="line2d_39">
      <path clip-path="url(#pad55d15028)" d="M 90 180.388951 
L 648 180.388951 
" style="fill:none;stroke:#b0b0b0;stroke-linecap:square;stroke-width:0.8;"/>
     </g>
     <g id="line2d_40">
      <g>
       <use style="stroke:#000000;stroke-width:0.8;" x="90" xlink:href="#mc14f58e3e6" y="180.388951"/>
      </g>
     </g>
     <g id="text_8">
      <!-- $\mathdefault{10^{1}}$ -->
      <g transform="translate(65.4 184.18817)scale(0.1 -0.1)">
       <use transform="translate(0 0.684375)" xlink:href="#DejaVuSans-49"/>
       <use transform="translate(63.623047 0.684375)" xlink:href="#DejaVuSans-48"/>
       <use transform="translate(128.203125 38.965625)scale(0.7)" xlink:href="#DejaVuSans-49"/>
      </g>
     </g>
    </g>
    <g id="ytick_4">
     <g id="line2d_41">
      <path clip-path="url(#pad55d15028)" d="M 90 81.583427 
L 648 81.583427 
" style="fill:none;stroke:#b0b0b0;stroke-linecap:square;stroke-width:0.8;"/>
     </g>
     <g id="line2d_42">
      <g>
       <use style="stroke:#000000;stroke-width:0.8;" x="90" xlink:href="#mc14f58e3e6" y="81.583427"/>
      </g>
     </g>
     <g id="text_9">
      <!-- $\mathdefault{10^{2}}$ -->
      <g transform="translate(65.4 85.382645)scale(0.1 -0.1)">
       <use transform="translate(0 0.765625)" xlink:href="#DejaVuSans-49"/>
       <use transform="translate(63.623047 0.765625)" xlink:href="#DejaVuSans-48"/>
       <use transform="translate(128.203125 39.046875)scale(0.7)" xlink:href="#DejaVuSans-50"/>
      </g>
     </g>
    </g>
    <g id="ytick_5">
     <g id="line2d_43">
      <defs>
       <path d="M 0 0 
L -2 0 
" id="m6e305d9ab9" style="stroke:#000000;stroke-width:0.6;"/>
      </defs>
      <g>
       <use style="stroke:#000000;stroke-width:0.6;" x="90" xlink:href="#m6e305d9ab9" y="348.256573"/>
      </g>
     </g>
    </g>
    <g id="ytick_6">
     <g id="line2d_44">
      <g>
       <use style="stroke:#000000;stroke-width:0.6;" x="90" xlink:href="#m6e305d9ab9" y="330.857784"/>
      </g>
     </g>
    </g>
    <g id="ytick_7">
     <g id="line2d_45">
      <g>
       <use style="stroke:#000000;stroke-width:0.6;" x="90" xlink:href="#m6e305d9ab9" y="318.513147"/>
      </g>
     </g>
    </g>
    <g id="ytick_8">
     <g id="line2d_46">
      <g>
       <use style="stroke:#000000;stroke-width:0.6;" x="90" xlink:href="#m6e305d9ab9" y="308.937902"/>
      </g>
     </g>
    </g>
    <g id="ytick_9">
     <g id="line2d_47">
      <g>
       <use style="stroke:#000000;stroke-width:0.6;" x="90" xlink:href="#m6e305d9ab9" y="301.114358"/>
      </g>
     </g>
    </g>
    <g id="ytick_10">
     <g id="line2d_48">
      <g>
       <use style="stroke:#000000;stroke-width:0.6;" x="90" xlink:href="#m6e305d9ab9" y="294.499645"/>
      </g>
     </g>
    </g>
    <g id="ytick_11">
     <g id="line2d_49">
      <g>
       <use style="stroke:#000000;stroke-width:0.6;" x="90" xlink:href="#m6e305d9ab9" y="288.76972"/>
      </g>
     </g>
    </g>
    <g id="ytick_12">
     <g id="line2d_50">
      <g>
       <use style="stroke:#000000;stroke-width:0.6;" x="90" xlink:href="#m6e305d9ab9" y="283.715568"/>
      </g>
     </g>
    </g>
    <g id="ytick_13">
     <g id="line2d_51">
      <g>
       <use style="stroke:#000000;stroke-width:0.6;" x="90" xlink:href="#m6e305d9ab9" y="249.451049"/>
      </g>
     </g>
    </g>
    <g id="ytick_14">
     <g id="line2d_52">
      <g>
       <use style="stroke:#000000;stroke-width:0.6;" x="90" xlink:href="#m6e305d9ab9" y="232.05226"/>
      </g>
     </g>
    </g>
    <g id="ytick_15">
     <g id="line2d_53">
      <g>
       <use style="stroke:#000000;stroke-width:0.6;" x="90" xlink:href="#m6e305d9ab9" y="219.707622"/>
      </g>
     </g>
    </g>
    <g id="ytick_16">
     <g id="line2d_54">
      <g>
       <use style="stroke:#000000;stroke-width:0.6;" x="90" xlink:href="#m6e305d9ab9" y="210.132378"/>
      </g>
     </g>
    </g>
    <g id="ytick_17">
     <g id="line2d_55">
      <g>
       <use style="stroke:#000000;stroke-width:0.6;" x="90" xlink:href="#m6e305d9ab9" y="202.308833"/>
      </g>
     </g>
    </g>
    <g id="ytick_18">
     <g id="line2d_56">
      <g>
       <use style="stroke:#000000;stroke-width:0.6;" x="90" xlink:href="#m6e305d9ab9" y="195.69412"/>
      </g>
     </g>
    </g>
    <g id="ytick_19">
     <g id="line2d_57">
      <g>
       <use style="stroke:#000000;stroke-width:0.6;" x="90" xlink:href="#m6e305d9ab9" y="189.964196"/>
      </g>
     </g>
    </g>
    <g id="ytick_20">
     <g id="line2d_58">
      <g>
       <use style="stroke:#000000;stroke-width:0.6;" x="90" xlink:href="#m6e305d9ab9" y="184.910044"/>
      </g>
     </g>
    </g>
    <g id="ytick_21">
     <g id="line2d_59">
      <g>
       <use style="stroke:#000000;stroke-width:0.6;" x="90" xlink:href="#m6e305d9ab9" y="150.645524"/>
      </g>
     </g>
    </g>
    <g id="ytick_22">
     <g id="line2d_60">
      <g>
       <use style="stroke:#000000;stroke-width:0.6;" x="90" xlink:href="#m6e305d9ab9" y="133.246735"/>
      </g>
     </g>
    </g>
    <g id="ytick_23">
     <g id="line2d_61">
      <g>
       <use style="stroke:#000000;stroke-width:0.6;" x="90" xlink:href="#m6e305d9ab9" y="120.902098"/>
      </g>
     </g>
    </g>
    <g id="ytick_24">
     <g id="line2d_62">
      <g>
       <use style="stroke:#000000;stroke-width:0.6;" x="90" xlink:href="#m6e305d9ab9" y="111.326853"/>
      </g>
     </g>
    </g>
    <g id="ytick_25">
     <g id="line2d_63">
      <g>
       <use style="stroke:#000000;stroke-width:0.6;" x="90" xlink:href="#m6e305d9ab9" y="103.503309"/>
      </g>
     </g>
    </g>
    <g id="ytick_26">
     <g id="line2d_64">
      <g>
       <use style="stroke:#000000;stroke-width:0.6;" x="90" xlink:href="#m6e305d9ab9" y="96.888596"/>
      </g>
     </g>
    </g>
    <g id="ytick_27">
     <g id="line2d_65">
      <g>
       <use style="stroke:#000000;stroke-width:0.6;" x="90" xlink:href="#m6e305d9ab9" y="91.158671"/>
      </g>
     </g>
    </g>
    <g id="ytick_28">
     <g id="line2d_66">
      <g>
       <use style="stroke:#000000;stroke-width:0.6;" x="90" xlink:href="#m6e305d9ab9" y="86.104519"/>
      </g>
     </g>
    </g>
    <g id="ytick_29">
     <g id="line2d_67">
      <g>
       <use style="stroke:#000000;stroke-width:0.6;" x="90" xlink:href="#m6e305d9ab9" y="51.84"/>
      </g>
     </g>
    </g>
    <g id="text_10">
     <!-- Average Pellet Count -->
     <g transform="translate(53.420312 267.204375)rotate(-90)scale(0.1 -0.1)">
      <defs>
       <path d="M 34.1875 63.1875 
L 20.796875 26.90625 
L 47.609375 26.90625 
z
M 28.609375 72.90625 
L 39.796875 72.90625 
L 67.578125 0 
L 57.328125 0 
L 50.6875 18.703125 
L 17.828125 18.703125 
L 11.1875 0 
L 0.78125 0 
z
" id="DejaVuSans-65"/>
       <path d="M 2.984375 54.6875 
L 12.5 54.6875 
L 29.59375 8.796875 
L 46.6875 54.6875 
L 56.203125 54.6875 
L 35.6875 0 
L 23.484375 0 
z
" id="DejaVuSans-118"/>
       <path d="M 45.40625 27.984375 
Q 45.40625 37.75 41.375 43.109375 
Q 37.359375 48.484375 30.078125 48.484375 
Q 22.859375 48.484375 18.828125 43.109375 
Q 14.796875 37.75 14.796875 27.984375 
Q 14.796875 18.265625 18.828125 12.890625 
Q 22.859375 7.515625 30.078125 7.515625 
Q 37.359375 7.515625 41.375 12.890625 
Q 45.40625 18.265625 45.40625 27.984375 
z
M 54.390625 6.78125 
Q 54.390625 -7.171875 48.1875 -13.984375 
Q 42 -20.796875 29.203125 -20.796875 
Q 24.46875 -20.796875 20.265625 -20.09375 
Q 16.0625 -19.390625 12.109375 -17.921875 
L 12.109375 -9.1875 
Q 16.0625 -11.328125 19.921875 -12.34375 
Q 23.78125 -13.375 27.78125 -13.375 
Q 36.625 -13.375 41.015625 -8.765625 
Q 45.40625 -4.15625 45.40625 5.171875 
L 45.40625 9.625 
Q 42.625 4.78125 38.28125 2.390625 
Q 33.9375 0 27.875 0 
Q 17.828125 0 11.671875 7.65625 
Q 5.515625 15.328125 5.515625 27.984375 
Q 5.515625 40.671875 11.671875 48.328125 
Q 17.828125 56 27.875 56 
Q 33.9375 56 38.28125 53.609375 
Q 42.625 51.21875 45.40625 46.390625 
L 45.40625 54.6875 
L 54.390625 54.6875 
z
" id="DejaVuSans-103"/>
       <path d="M 9.421875 75.984375 
L 18.40625 75.984375 
L 18.40625 0 
L 9.421875 0 
z
" id="DejaVuSans-108"/>
       <path d="M 18.3125 70.21875 
L 18.3125 54.6875 
L 36.8125 54.6875 
L 36.8125 47.703125 
L 18.3125 47.703125 
L 18.3125 18.015625 
Q 18.3125 11.328125 20.140625 9.421875 
Q 21.96875 7.515625 27.59375 7.515625 
L 36.8125 7.515625 
L 36.8125 0 
L 27.59375 0 
Q 17.1875 0 13.234375 3.875 
Q 9.28125 7.765625 9.28125 18.015625 
L 9.28125 47.703125 
L 2.6875 47.703125 
L 2.6875 54.6875 
L 9.28125 54.6875 
L 9.28125 70.21875 
z
" id="DejaVuSans-116"/>
       <path d="M 64.40625 67.28125 
L 64.40625 56.890625 
Q 59.421875 61.53125 53.78125 63.8125 
Q 48.140625 66.109375 41.796875 66.109375 
Q 29.296875 66.109375 22.65625 58.46875 
Q 16.015625 50.828125 16.015625 36.375 
Q 16.015625 21.96875 22.65625 14.328125 
Q 29.296875 6.6875 41.796875 6.6875 
Q 48.140625 6.6875 53.78125 8.984375 
Q 59.421875 11.28125 64.40625 15.921875 
L 64.40625 5.609375 
Q 59.234375 2.09375 53.4375 0.328125 
Q 47.65625 -1.421875 41.21875 -1.421875 
Q 24.65625 -1.421875 15.125 8.703125 
Q 5.609375 18.84375 5.609375 36.375 
Q 5.609375 53.953125 15.125 64.078125 
Q 24.65625 74.21875 41.21875 74.21875 
Q 47.75 74.21875 53.53125 72.484375 
Q 59.328125 70.75 64.40625 67.28125 
z
" id="DejaVuSans-67"/>
       <path d="M 30.609375 48.390625 
Q 23.390625 48.390625 19.1875 42.75 
Q 14.984375 37.109375 14.984375 27.296875 
Q 14.984375 17.484375 19.15625 11.84375 
Q 23.34375 6.203125 30.609375 6.203125 
Q 37.796875 6.203125 41.984375 11.859375 
Q 46.1875 17.53125 46.1875 27.296875 
Q 46.1875 37.015625 41.984375 42.703125 
Q 37.796875 48.390625 30.609375 48.390625 
z
M 30.609375 56 
Q 42.328125 56 49.015625 48.375 
Q 55.71875 40.765625 55.71875 27.296875 
Q 55.71875 13.875 49.015625 6.21875 
Q 42.328125 -1.421875 30.609375 -1.421875 
Q 18.84375 -1.421875 12.171875 6.21875 
Q 5.515625 13.875 5.515625 27.296875 
Q 5.515625 40.765625 12.171875 48.375 
Q 18.84375 56 30.609375 56 
z
" id="DejaVuSans-111"/>
       <path d="M 8.5 21.578125 
L 8.5 54.6875 
L 17.484375 54.6875 
L 17.484375 21.921875 
Q 17.484375 14.15625 20.5 10.265625 
Q 23.53125 6.390625 29.59375 6.390625 
Q 36.859375 6.390625 41.078125 11.03125 
Q 45.3125 15.671875 45.3125 23.6875 
L 45.3125 54.6875 
L 54.296875 54.6875 
L 54.296875 0 
L 45.3125 0 
L 45.3125 8.40625 
Q 42.046875 3.421875 37.71875 1 
Q 33.40625 -1.421875 27.6875 -1.421875 
Q 18.265625 -1.421875 13.375 4.4375 
Q 8.5 10.296875 8.5 21.578125 
z
M 31.109375 56 
z
" id="DejaVuSans-117"/>
       <path d="M 54.890625 33.015625 
L 54.890625 0 
L 45.90625 0 
L 45.90625 32.71875 
Q 45.90625 40.484375 42.875 44.328125 
Q 39.84375 48.1875 33.796875 48.1875 
Q 26.515625 48.1875 22.3125 43.546875 
Q 18.109375 38.921875 18.109375 30.90625 
L 18.109375 0 
L 9.078125 0 
L 9.078125 54.6875 
L 18.109375 54.6875 
L 18.109375 46.1875 
Q 21.34375 51.125 25.703125 53.5625 
Q 30.078125 56 35.796875 56 
Q 45.21875 56 50.046875 50.171875 
Q 54.890625 44.34375 54.890625 33.015625 
z
" id="DejaVuSans-110"/>
      </defs>
      <use xlink:href="#DejaVuSans-65"/>
      <use x="62.533203" xlink:href="#DejaVuSans-118"/>
      <use x="121.712891" xlink:href="#DejaVuSans-101"/>
      <use x="183.236328" xlink:href="#DejaVuSans-114"/>
      <use x="224.349609" xlink:href="#DejaVuSans-97"/>
      <use x="285.628906" xlink:href="#DejaVuSans-103"/>
      <use x="349.105469" xlink:href="#DejaVuSans-101"/>
      <use x="410.628906" xlink:href="#DejaVuSans-32"/>
      <use x="442.416016" xlink:href="#DejaVuSans-80"/>
      <use x="499.09375" xlink:href="#DejaVuSans-101"/>
      <use x="560.617188" xlink:href="#DejaVuSans-108"/>
      <use x="588.400391" xlink:href="#DejaVuSans-108"/>
      <use x="616.183594" xlink:href="#DejaVuSans-101"/>
      <use x="677.707031" xlink:href="#DejaVuSans-116"/>
      <use x="716.916016" xlink:href="#DejaVuSans-32"/>
      <use x="748.703125" xlink:href="#DejaVuSans-67"/>
      <use x="818.527344" xlink:href="#DejaVuSans-111"/>
      <use x="879.708984" xlink:href="#DejaVuSans-117"/>
      <use x="943.087891" xlink:href="#DejaVuSans-110"/>
      <use x="1006.466797" xlink:href="#DejaVuSans-116"/>
     </g>
    </g>
   </g>
   <g id="LineCollection_1">
    <path clip-path="url(#pad55d15028)" d="M 114.338491 118.843667 
L 114.338491 106.865031 
" style="fill:none;stroke:#000000;stroke-width:1.5;"/>
    <path clip-path="url(#pad55d15028)" d="M 167.887865 119.890495 
L 167.887865 107.811937 
" style="fill:none;stroke:#000000;stroke-width:1.5;"/>
    <path clip-path="url(#pad55d15028)" d="M 199.212241 150.831595 
L 199.212241 138.699869 
" style="fill:none;stroke:#000000;stroke-width:1.5;"/>
    <path clip-path="url(#pad55d15028)" d="M 221.437239 151.815295 
L 221.437239 139.785114 
" style="fill:none;stroke:#000000;stroke-width:1.5;"/>
    <path clip-path="url(#pad55d15028)" d="M 238.676287 155.211364 
L 238.676287 143.589911 
" style="fill:none;stroke:#000000;stroke-width:1.5;"/>
    <path clip-path="url(#pad55d15028)" d="M 252.761615 159.166656 
L 252.761615 148.230984 
" style="fill:none;stroke:#000000;stroke-width:1.5;"/>
    <path clip-path="url(#pad55d15028)" d="M 264.67059 162.719975 
L 264.67059 153.31401 
" style="fill:none;stroke:#000000;stroke-width:1.5;"/>
    <path clip-path="url(#pad55d15028)" d="M 284.08599 166.185756 
L 284.08599 157.426706 
" style="fill:none;stroke:#000000;stroke-width:1.5;"/>
    <path clip-path="url(#pad55d15028)" d="M 292.225661 170.270193 
L 292.225661 162.026516 
" style="fill:none;stroke:#000000;stroke-width:1.5;"/>
    <path clip-path="url(#pad55d15028)" d="M 306.310989 174.142197 
L 306.310989 166.673103 
" style="fill:none;stroke:#000000;stroke-width:1.5;"/>
    <path clip-path="url(#pad55d15028)" d="M 312.494721 178.618932 
L 312.494721 170.924475 
" style="fill:none;stroke:#000000;stroke-width:1.5;"/>
    <path clip-path="url(#pad55d15028)" d="M 323.550037 182.549932 
L 323.550037 175.687941 
" style="fill:none;stroke:#000000;stroke-width:1.5;"/>
    <path clip-path="url(#pad55d15028)" d="M 333.219567 185.431819 
L 333.219567 178.532581 
" style="fill:none;stroke:#000000;stroke-width:1.5;"/>
    <path clip-path="url(#pad55d15028)" d="M 345.775035 191.289201 
L 345.775035 184.8099 
" style="fill:none;stroke:#000000;stroke-width:1.5;"/>
    <path clip-path="url(#pad55d15028)" d="M 353.138262 194.329676 
L 353.138262 188.232765 
" style="fill:none;stroke:#000000;stroke-width:1.5;"/>
    <path clip-path="url(#pad55d15028)" d="M 363.014083 196.45329 
L 363.014083 189.901792 
" style="fill:none;stroke:#000000;stroke-width:1.5;"/>
    <path clip-path="url(#pad55d15028)" d="M 371.769337 202.659212 
L 371.769337 196.077852 
" style="fill:none;stroke:#000000;stroke-width:1.5;"/>
    <path clip-path="url(#pad55d15028)" d="M 382.085361 206.86096 
L 382.085361 200.416133 
" style="fill:none;stroke:#000000;stroke-width:1.5;"/>
    <path clip-path="url(#pad55d15028)" d="M 391.184738 212.105158 
L 391.184738 204.743035 
" style="fill:none;stroke:#000000;stroke-width:1.5;"/>
    <path clip-path="url(#pad55d15028)" d="M 399.324409 215.507132 
L 399.324409 207.097634 
" style="fill:none;stroke:#000000;stroke-width:1.5;"/>
    <path clip-path="url(#pad55d15028)" d="M 408.423786 221.441769 
L 408.423786 211.660315 
" style="fill:none;stroke:#000000;stroke-width:1.5;"/>
    <path clip-path="url(#pad55d15028)" d="M 416.563457 223.910582 
L 416.563457 213.752962 
" style="fill:none;stroke:#000000;stroke-width:1.5;"/>
    <path clip-path="url(#pad55d15028)" d="M 425.318711 225.17216 
L 425.318711 214.861023 
" style="fill:none;stroke:#000000;stroke-width:1.5;"/>
    <path clip-path="url(#pad55d15028)" d="M 433.181976 227.747981 
L 433.181976 218.356918 
" style="fill:none;stroke:#000000;stroke-width:1.5;"/>
    <path clip-path="url(#pad55d15028)" d="M 441.446151 233.895465 
L 441.446151 221.990016 
" style="fill:none;stroke:#000000;stroke-width:1.5;"/>
    <path clip-path="url(#pad55d15028)" d="M 449.920987 241.485627 
L 449.920987 228.502615 
" style="fill:none;stroke:#000000;stroke-width:1.5;"/>
    <path clip-path="url(#pad55d15028)" d="M 458.460945 247.054102 
L 458.460945 232.106447 
" style="fill:none;stroke:#000000;stroke-width:1.5;"/>
    <path clip-path="url(#pad55d15028)" d="M 466.150146 247.880782 
L 466.150146 233.131965 
" style="fill:none;stroke:#000000;stroke-width:1.5;"/>
    <path clip-path="url(#pad55d15028)" d="M 474.614419 256.852276 
L 474.614419 239.210355 
" style="fill:none;stroke:#000000;stroke-width:1.5;"/>
    <path clip-path="url(#pad55d15028)" d="M 482.899717 264.11659 
L 482.899717 246.657576 
" style="fill:none;stroke:#000000;stroke-width:1.5;"/>
    <path clip-path="url(#pad55d15028)" d="M 490.973889 269.874112 
L 490.973889 249.890444 
" style="fill:none;stroke:#000000;stroke-width:1.5;"/>
    <path clip-path="url(#pad55d15028)" d="M 498.818128 274.442039 
L 498.818128 254.650427 
" style="fill:none;stroke:#000000;stroke-width:1.5;"/>
    <path clip-path="url(#pad55d15028)" d="M 506.9045 274.197954 
L 506.9045 257.594498 
" style="fill:none;stroke:#000000;stroke-width:1.5;"/>
    <path clip-path="url(#pad55d15028)" d="M 514.659336 278.259666 
L 514.659336 271.363844 
" style="fill:none;stroke:#000000;stroke-width:1.5;"/>
    <path clip-path="url(#pad55d15028)" d="M 522.494594 284.972888 
L 522.494594 274.102649 
" style="fill:none;stroke:#000000;stroke-width:1.5;"/>
    <path clip-path="url(#pad55d15028)" d="M 530.67347 308.075324 
L 530.67347 282.11096 
" style="fill:none;stroke:#000000;stroke-width:1.5;"/>
    <path clip-path="url(#pad55d15028)" d="M 538.38866 314.183197 
L 538.38866 284.153374 
" style="fill:none;stroke:#000000;stroke-width:1.5;"/>
    <path clip-path="url(#pad55d15028)" d="M 546.272517 338.34037 
L 546.272517 298.553687 
" style="fill:none;stroke:#000000;stroke-width:1.5;"/>
    <path clip-path="url(#pad55d15028)" d="M 554.210137 326.336691 
L 554.210137 326.336691 
" style="fill:none;stroke:#000000;stroke-width:1.5;"/>
    <path clip-path="url(#pad55d15028)" d="M 561.880168 363.045332 
L 561.880168 317.051415 
" style="fill:none;stroke:#000000;stroke-width:1.5;"/>
    <path clip-path="url(#pad55d15028)" d="M 569.713035 343.735481 
L 569.713035 343.735481 
" style="fill:none;stroke:#000000;stroke-width:1.5;"/>
    <path clip-path="url(#pad55d15028)" d="M 577.596893 343.735481 
L 577.596893 343.735481 
" style="fill:none;stroke:#000000;stroke-width:1.5;"/>
    <path clip-path="url(#pad55d15028)" d="M 0 0 
" style="fill:none;stroke:#000000;stroke-width:1.5;"/>
    <path clip-path="url(#pad55d15028)" d="M 0 0 
" style="fill:none;stroke:#000000;stroke-width:1.5;"/>
    <path clip-path="url(#pad55d15028)" d="M 0 0 
" style="fill:none;stroke:#000000;stroke-width:1.5;"/>
   </g>
   <g id="line2d_68">
    <path clip-path="url(#pad55d15028)" d="M 114.338491 86.104519 
L 167.887865 86.104519 
L 199.212241 115.847946 
L 221.437239 115.847946 
L 238.676287 118.808478 
L 252.761615 121.988503 
L 264.67059 139.387292 
L 284.08599 142.82198 
L 292.225661 150.645524 
L 306.310989 160.220769 
L 312.494721 169.130718 
L 323.550037 169.130718 
L 333.219567 172.565407 
L 345.775035 176.299125 
L 353.138262 184.910044 
L 363.014083 189.964196 
L 371.769337 195.69412 
L 382.085361 219.707622 
L 391.184738 232.05226 
L 399.324409 249.451049 
L 408.423786 279.194476 
L 416.563457 279.194476 
L 425.318711 279.194476 
" style="fill:none;stroke:#0000ff;stroke-linecap:square;stroke-opacity:0.3;"/>
   </g>
   <g id="line2d_69">
    <path clip-path="url(#pad55d15028)" d="M 114.338491 146.555699 
L 167.887865 146.555699 
L 199.212241 176.299125 
L 221.437239 176.299125 
L 238.676287 176.299125 
L 252.761615 176.299125 
L 264.67059 176.299125 
L 284.08599 176.299125 
L 292.225661 176.299125 
L 306.310989 176.299125 
L 312.494721 172.565407 
L 323.550037 172.565407 
L 333.219567 176.299125 
L 345.775035 180.388951 
L 353.138262 184.910044 
L 363.014083 184.910044 
L 371.769337 189.964196 
L 382.085361 189.964196 
L 391.184738 202.308833 
L 399.324409 202.308833 
L 408.423786 202.308833 
L 416.563457 202.308833 
L 425.318711 202.308833 
L 433.181976 202.308833 
L 441.446151 202.308833 
L 449.920987 219.707622 
L 458.460945 232.05226 
L 466.150146 232.05226 
L 474.614419 232.05226 
L 482.899717 232.05226 
L 490.973889 232.05226 
L 498.818128 232.05226 
L 506.9045 232.05226 
L 514.659336 232.05226 
L 522.494594 249.451049 
L 530.67347 279.194476 
L 538.38866 279.194476 
" style="fill:none;stroke:#0000ff;stroke-linecap:square;stroke-opacity:0.3;"/>
   </g>
   <g id="line2d_70">
    <path clip-path="url(#pad55d15028)" d="M 114.338491 172.565407 
L 167.887865 172.565407 
L 199.212241 202.308833 
L 221.437239 202.308833 
L 238.676287 202.308833 
L 252.761615 202.308833 
L 264.67059 202.308833 
L 284.08599 202.308833 
L 292.225661 202.308833 
L 306.310989 202.308833 
L 312.494721 202.308833 
L 323.550037 202.308833 
L 333.219567 202.308833 
L 345.775035 202.308833 
L 353.138262 202.308833 
L 363.014083 202.308833 
L 371.769337 202.308833 
L 382.085361 202.308833 
L 391.184738 202.308833 
L 399.324409 202.308833 
L 408.423786 202.308833 
L 416.563457 210.132378 
L 425.318711 210.132378 
L 433.181976 210.132378 
L 441.446151 210.132378 
L 449.920987 210.132378 
L 458.460945 210.132378 
L 466.150146 210.132378 
L 474.614419 210.132378 
L 482.899717 210.132378 
L 490.973889 202.308833 
L 498.818128 202.308833 
L 506.9045 210.132378 
L 514.659336 232.05226 
L 522.494594 232.05226 
L 530.67347 232.05226 
L 538.38866 232.05226 
L 546.272517 249.451049 
L 554.210137 249.451049 
L 561.880168 249.451049 
L 569.713035 249.451049 
L 577.596893 249.451049 
L 585.447758 249.451049 
L 593.204544 249.451049 
L 601.10832 279.194476 
" style="fill:none;stroke:#0000ff;stroke-linecap:square;stroke-opacity:0.3;"/>
   </g>
   <g id="line2d_71">
    <path clip-path="url(#pad55d15028)" d="M 114.338491 180.388951 
L 167.887865 180.388951 
L 199.212241 210.132378 
L 221.437239 210.132378 
L 238.676287 210.132378 
L 252.761615 210.132378 
L 264.67059 210.132378 
L 284.08599 210.132378 
L 292.225661 210.132378 
L 306.310989 210.132378 
L 312.494721 210.132378 
L 323.550037 210.132378 
L 333.219567 210.132378 
L 345.775035 210.132378 
L 353.138262 210.132378 
L 363.014083 210.132378 
L 371.769337 210.132378 
L 382.085361 210.132378 
L 391.184738 210.132378 
L 399.324409 210.132378 
L 408.423786 219.707622 
L 416.563457 219.707622 
L 425.318711 219.707622 
L 433.181976 219.707622 
L 441.446151 232.05226 
L 449.920987 232.05226 
L 458.460945 232.05226 
L 466.150146 232.05226 
L 474.614419 232.05226 
L 482.899717 232.05226 
L 490.973889 232.05226 
L 498.818128 232.05226 
L 506.9045 232.05226 
L 514.659336 232.05226 
L 522.494594 232.05226 
L 530.67347 232.05226 
L 538.38866 232.05226 
L 546.272517 232.05226 
L 554.210137 249.451049 
L 561.880168 279.194476 
" style="fill:none;stroke:#0000ff;stroke-linecap:square;stroke-opacity:0.3;"/>
   </g>
   <g id="line2d_72">
    <path clip-path="url(#pad55d15028)" d="M 114.338491 91.158671 
L 167.887865 91.158671 
L 199.212241 120.902098 
L 221.437239 123.103129 
L 238.676287 124.247482 
L 252.761615 130.477343 
L 264.67059 137.767828 
L 284.08599 142.82198 
L 292.225661 146.555699 
L 306.310989 162.990162 
L 312.494721 162.990162 
L 323.550037 176.299125 
L 333.219567 176.299125 
L 345.775035 180.388951 
L 353.138262 184.910044 
L 363.014083 189.964196 
L 371.769337 195.69412 
L 382.085361 210.132378 
L 391.184738 219.707622 
L 399.324409 219.707622 
L 408.423786 232.05226 
L 416.563457 232.05226 
L 425.318711 232.05226 
L 433.181976 232.05226 
L 441.446151 232.05226 
L 449.920987 232.05226 
L 458.460945 249.451049 
L 466.150146 249.451049 
L 474.614419 279.194476 
" style="fill:none;stroke:#0000ff;stroke-linecap:square;stroke-opacity:0.3;"/>
   </g>
   <g id="line2d_73">
    <path clip-path="url(#pad55d15028)" d="M 114.338491 99.413483 
L 167.887865 104.224514 
L 199.212241 139.387292 
L 221.437239 144.648243 
L 238.676287 160.220769 
L 252.761615 162.990162 
L 264.67059 162.990162 
L 284.08599 162.990162 
L 292.225661 165.950694 
L 306.310989 169.130718 
L 312.494721 189.964196 
L 323.550037 195.69412 
L 333.219567 210.132378 
L 345.775035 219.707622 
L 353.138262 219.707622 
L 363.014083 232.05226 
L 371.769337 232.05226 
L 382.085361 249.451049 
L 391.184738 249.451049 
L 399.324409 249.451049 
L 408.423786 279.194476 
L 416.563457 279.194476 
L 425.318711 279.194476 
" style="fill:none;stroke:#0000ff;stroke-linecap:square;stroke-opacity:0.3;"/>
   </g>
   <g id="line2d_74">
    <path clip-path="url(#pad55d15028)" d="M 114.338491 90.099094 
L 167.887865 90.625612 
L 199.212241 121.988503 
L 221.437239 123.103129 
L 238.676287 129.156909 
L 252.761615 133.246735 
L 264.67059 141.07028 
L 284.08599 146.555699 
L 292.225661 148.551905 
L 306.310989 152.846555 
L 312.494721 169.130718 
L 323.550037 180.388951 
L 333.219567 184.910044 
L 345.775035 195.69412 
L 353.138262 195.69412 
L 363.014083 195.69412 
L 371.769337 202.308833 
L 382.085361 202.308833 
L 391.184738 232.05226 
L 399.324409 232.05226 
L 408.423786 232.05226 
L 416.563457 232.05226 
L 425.318711 232.05226 
L 433.181976 249.451049 
L 441.446151 279.194476 
L 449.920987 279.194476 
L 458.460945 279.194476 
L 466.150146 279.194476 
L 474.614419 279.194476 
" style="fill:none;stroke:#0000ff;stroke-linecap:square;stroke-opacity:0.3;"/>
   </g>
   <g id="line2d_75">
    <path clip-path="url(#pad55d15028)" d="M 114.338491 96.279923 
L 167.887865 97.506027 
L 199.212241 127.875898 
L 221.437239 127.875898 
L 238.676287 129.156909 
L 252.761615 129.156909 
L 264.67059 129.156909 
L 284.08599 133.246735 
L 292.225661 139.387292 
L 306.310989 142.82198 
L 312.494721 144.648243 
L 323.550037 152.846555 
L 333.219567 155.166617 
L 345.775035 169.130718 
L 353.138262 180.388951 
L 363.014083 184.910044 
L 371.769337 210.132378 
L 382.085361 210.132378 
L 391.184738 219.707622 
L 399.324409 249.451049 
L 408.423786 249.451049 
L 416.563457 249.451049 
L 425.318711 249.451049 
L 433.181976 249.451049 
L 441.446151 279.194476 
L 449.920987 279.194476 
L 458.460945 279.194476 
L 466.150146 279.194476 
L 474.614419 279.194476 
" style="fill:none;stroke:#0000ff;stroke-linecap:square;stroke-opacity:0.3;"/>
   </g>
   <g id="line2d_76">
    <path clip-path="url(#pad55d15028)" d="M 114.338491 102.794025 
L 167.887865 104.224514 
L 199.212241 134.701474 
L 221.437239 134.701474 
L 238.676287 139.387292 
L 252.761615 144.648243 
L 264.67059 152.846555 
L 284.08599 155.166617 
L 292.225661 162.990162 
L 306.310989 169.130718 
L 312.494721 172.565407 
L 323.550037 172.565407 
L 333.219567 176.299125 
L 345.775035 195.69412 
L 353.138262 195.69412 
L 363.014083 195.69412 
L 371.769337 210.132378 
L 382.085361 210.132378 
L 391.184738 210.132378 
L 399.324409 210.132378 
L 408.423786 210.132378 
L 416.563457 219.707622 
L 425.318711 232.05226 
L 433.181976 232.05226 
L 441.446151 249.451049 
L 449.920987 279.194476 
L 458.460945 279.194476 
" style="fill:none;stroke:#0000ff;stroke-linecap:square;stroke-opacity:0.3;"/>
   </g>
   <g id="line2d_77">
    <path clip-path="url(#pad55d15028)" d="M 114.338491 81.583427 
L 167.887865 81.583427 
L 199.212241 112.193765 
L 221.437239 113.98197 
L 238.676287 121.988503 
L 252.761615 137.767828 
L 264.67059 146.555699 
L 284.08599 157.619325 
L 292.225661 165.950694 
L 306.310989 176.299125 
L 312.494721 180.388951 
L 323.550037 189.964196 
L 333.219567 195.69412 
L 345.775035 202.308833 
L 353.138262 210.132378 
L 363.014083 232.05226 
L 371.769337 249.451049 
L 382.085361 249.451049 
L 391.184738 249.451049 
L 399.324409 249.451049 
L 408.423786 279.194476 
L 416.563457 279.194476 
L 425.318711 279.194476 
L 433.181976 279.194476 
L 441.446151 279.194476 
" style="fill:none;stroke:#0000ff;stroke-linecap:square;stroke-opacity:0.3;"/>
   </g>
   <g id="line2d_78">
    <path clip-path="url(#pad55d15028)" d="M 114.338491 119.842521 
L 167.887865 124.247482 
L 199.212241 155.166617 
L 221.437239 155.166617 
L 238.676287 155.166617 
L 252.761615 157.619325 
L 264.67059 157.619325 
L 284.08599 157.619325 
L 292.225661 157.619325 
L 306.310989 157.619325 
L 312.494721 157.619325 
L 323.550037 162.990162 
L 333.219567 165.950694 
L 345.775035 169.130718 
L 353.138262 169.130718 
L 363.014083 169.130718 
L 371.769337 176.299125 
L 382.085361 189.964196 
L 391.184738 189.964196 
L 399.324409 189.964196 
L 408.423786 202.308833 
L 416.563457 202.308833 
L 425.318711 202.308833 
L 433.181976 210.132378 
L 441.446151 219.707622 
L 449.920987 232.05226 
L 458.460945 249.451049 
L 466.150146 232.05226 
L 474.614419 249.451049 
L 482.899717 249.451049 
" style="fill:none;stroke:#0000ff;stroke-linecap:square;stroke-opacity:0.3;"/>
   </g>
   <g id="line2d_79">
    <path clip-path="url(#pad55d15028)" d="M 114.338491 155.166617 
L 167.887865 155.166617 
L 199.212241 184.910044 
L 221.437239 184.910044 
L 238.676287 184.910044 
L 252.761615 184.910044 
L 264.67059 184.910044 
L 284.08599 184.910044 
L 292.225661 184.910044 
L 306.310989 184.910044 
L 312.494721 189.964196 
L 323.550037 189.964196 
L 333.219567 189.964196 
L 345.775035 189.964196 
L 353.138262 189.964196 
L 363.014083 184.910044 
L 371.769337 189.964196 
L 382.085361 189.964196 
L 391.184738 189.964196 
L 399.324409 189.964196 
L 408.423786 189.964196 
L 416.563457 189.964196 
L 425.318711 189.964196 
L 433.181976 195.69412 
L 441.446151 195.69412 
L 449.920987 195.69412 
L 458.460945 195.69412 
L 466.150146 195.69412 
L 474.614419 202.308833 
L 482.899717 219.707622 
L 490.973889 219.707622 
L 498.818128 232.05226 
L 506.9045 232.05226 
L 514.659336 232.05226 
L 522.494594 249.451049 
L 530.67347 279.194476 
L 538.38866 279.194476 
" style="fill:none;stroke:#0000ff;stroke-linecap:square;stroke-opacity:0.3;"/>
   </g>
   <g id="line2d_80">
    <path clip-path="url(#pad55d15028)" d="M 114.338491 142.82198 
L 167.887865 142.82198 
L 199.212241 172.565407 
L 221.437239 172.565407 
L 238.676287 172.565407 
L 252.761615 172.565407 
L 264.67059 172.565407 
L 284.08599 172.565407 
L 292.225661 176.299125 
L 306.310989 176.299125 
L 312.494721 176.299125 
L 323.550037 176.299125 
L 333.219567 176.299125 
L 345.775035 180.388951 
L 353.138262 180.388951 
L 363.014083 180.388951 
L 371.769337 184.910044 
L 382.085361 189.964196 
L 391.184738 195.69412 
L 399.324409 202.308833 
L 408.423786 202.308833 
L 416.563457 202.308833 
L 425.318711 202.308833 
L 433.181976 202.308833 
L 441.446151 202.308833 
L 449.920987 210.132378 
L 458.460945 210.132378 
L 466.150146 210.132378 
L 474.614419 219.707622 
L 482.899717 232.05226 
L 490.973889 232.05226 
L 498.818128 232.05226 
L 506.9045 232.05226 
L 514.659336 249.451049 
L 522.494594 249.451049 
L 530.67347 249.451049 
L 538.38866 279.194476 
" style="fill:none;stroke:#0000ff;stroke-linecap:square;stroke-opacity:0.3;"/>
   </g>
   <g id="line2d_81">
    <path clip-path="url(#pad55d15028)" d="M 114.338491 109.643865 
L 167.887865 113.98197 
L 199.212241 146.555699 
L 221.437239 146.555699 
L 238.676287 146.555699 
L 252.761615 148.551905 
L 264.67059 146.555699 
L 284.08599 155.166617 
L 292.225661 160.220769 
L 306.310989 162.990162 
L 312.494721 162.990162 
L 323.550037 165.950694 
L 333.219567 172.565407 
L 345.775035 172.565407 
L 353.138262 176.299125 
L 363.014083 184.910044 
L 371.769337 195.69412 
L 382.085361 195.69412 
L 391.184738 202.308833 
L 399.324409 210.132378 
L 408.423786 219.707622 
L 416.563457 232.05226 
L 425.318711 232.05226 
L 433.181976 232.05226 
L 441.446151 249.451049 
L 449.920987 249.451049 
L 458.460945 249.451049 
L 466.150146 249.451049 
L 474.614419 279.194476 
L 482.899717 279.194476 
L 490.973889 279.194476 
" style="fill:none;stroke:#0000ff;stroke-linecap:square;stroke-opacity:0.3;"/>
   </g>
   <g id="line2d_82">
    <path clip-path="url(#pad55d15028)" d="M 114.338491 125.423191 
L 167.887865 125.423191 
L 199.212241 155.166617 
L 221.437239 155.166617 
L 238.676287 157.619325 
L 252.761615 162.990162 
L 264.67059 162.990162 
L 284.08599 169.130718 
L 292.225661 172.565407 
L 306.310989 172.565407 
L 312.494721 184.910044 
L 323.550037 184.910044 
L 333.219567 184.910044 
L 345.775035 195.69412 
L 353.138262 202.308833 
L 363.014083 195.69412 
L 371.769337 195.69412 
L 382.085361 195.69412 
L 391.184738 195.69412 
L 399.324409 195.69412 
L 408.423786 202.308833 
L 416.563457 202.308833 
L 425.318711 202.308833 
L 433.181976 202.308833 
L 441.446151 210.132378 
L 449.920987 210.132378 
L 458.460945 219.707622 
L 466.150146 232.05226 
L 474.614419 279.194476 
L 482.899717 279.194476 
L 490.973889 279.194476 
L 498.818128 279.194476 
L 506.9045 279.194476 
" style="fill:none;stroke:#0000ff;stroke-linecap:square;stroke-opacity:0.3;"/>
   </g>
   <g id="line2d_83">
    <path clip-path="url(#pad55d15028)" d="M 114.338491 108.024402 
L 167.887865 108.024402 
L 199.212241 139.387292 
L 221.437239 141.07028 
L 238.676287 142.82198 
L 252.761615 148.551905 
L 264.67059 152.846555 
L 284.08599 157.619325 
L 292.225661 169.130718 
L 306.310989 169.130718 
L 312.494721 172.565407 
L 323.550037 180.388951 
L 333.219567 180.388951 
L 345.775035 195.69412 
L 353.138262 202.308833 
L 363.014083 202.308833 
L 371.769337 202.308833 
L 382.085361 202.308833 
L 391.184738 210.132378 
L 399.324409 210.132378 
L 408.423786 210.132378 
L 416.563457 219.707622 
L 425.318711 219.707622 
L 433.181976 219.707622 
L 441.446151 219.707622 
L 449.920987 249.451049 
L 458.460945 279.194476 
L 466.150146 279.194476 
L 474.614419 279.194476 
L 482.899717 279.194476 
" style="fill:none;stroke:#0000ff;stroke-linecap:square;stroke-opacity:0.3;"/>
   </g>
   <g id="line2d_84">
    <path clip-path="url(#pad55d15028)" d="M 114.338491 116.812272 
L 167.887865 116.812272 
L 199.212241 150.645524 
L 221.437239 152.846555 
L 238.676287 160.220769 
L 252.761615 165.950694 
L 264.67059 165.950694 
L 284.08599 169.130718 
L 292.225661 169.130718 
L 306.310989 176.299125 
L 312.494721 180.388951 
L 323.550037 184.910044 
L 333.219567 189.964196 
L 345.775035 189.964196 
L 353.138262 189.964196 
L 363.014083 189.964196 
L 371.769337 189.964196 
L 382.085361 195.69412 
L 391.184738 195.69412 
L 399.324409 195.69412 
L 408.423786 202.308833 
L 416.563457 202.308833 
L 425.318711 210.132378 
L 433.181976 210.132378 
L 441.446151 210.132378 
L 449.920987 219.707622 
L 458.460945 219.707622 
L 466.150146 219.707622 
L 474.614419 219.707622 
L 482.899717 219.707622 
L 490.973889 219.707622 
L 498.818128 219.707622 
L 506.9045 219.707622 
L 514.659336 232.05226 
L 522.494594 232.05226 
L 530.67347 279.194476 
L 538.38866 279.194476 
L 546.272517 279.194476 
" style="fill:none;stroke:#0000ff;stroke-linecap:square;stroke-opacity:0.3;"/>
   </g>
   <g id="line2d_85">
    <path clip-path="url(#pad55d15028)" d="M 114.338491 165.950694 
L 167.887865 162.990162 
L 199.212241 189.964196 
L 221.437239 189.964196 
L 238.676287 189.964196 
L 252.761615 189.964196 
L 264.67059 189.964196 
L 284.08599 189.964196 
L 292.225661 195.69412 
L 306.310989 195.69412 
L 312.494721 195.69412 
L 323.550037 195.69412 
L 333.219567 195.69412 
L 345.775035 195.69412 
L 353.138262 195.69412 
L 363.014083 195.69412 
L 371.769337 202.308833 
L 382.085361 202.308833 
L 391.184738 202.308833 
L 399.324409 210.132378 
L 408.423786 210.132378 
L 416.563457 210.132378 
L 425.318711 210.132378 
L 433.181976 210.132378 
L 441.446151 210.132378 
L 449.920987 210.132378 
L 458.460945 210.132378 
L 466.150146 210.132378 
L 474.614419 210.132378 
L 482.899717 210.132378 
L 490.973889 219.707622 
L 498.818128 232.05226 
L 506.9045 232.05226 
L 514.659336 232.05226 
L 522.494594 232.05226 
L 530.67347 249.451049 
L 538.38866 249.451049 
L 546.272517 249.451049 
L 554.210137 249.451049 
L 561.880168 249.451049 
L 569.713035 249.451049 
L 577.596893 249.451049 
" style="fill:none;stroke:#0000ff;stroke-linecap:square;stroke-opacity:0.3;"/>
   </g>
   <g id="line2d_86">
    <defs>
     <path d="M 3 0 
L -3 -0 
" id="ma92b46bdcc" style="stroke:#000000;"/>
    </defs>
    <g clip-path="url(#pad55d15028)">
     <use style="stroke:#000000;" x="114.338491" xlink:href="#ma92b46bdcc" y="118.843667"/>
     <use style="stroke:#000000;" x="167.887865" xlink:href="#ma92b46bdcc" y="119.890495"/>
     <use style="stroke:#000000;" x="199.212241" xlink:href="#ma92b46bdcc" y="150.831595"/>
     <use style="stroke:#000000;" x="221.437239" xlink:href="#ma92b46bdcc" y="151.815295"/>
     <use style="stroke:#000000;" x="238.676287" xlink:href="#ma92b46bdcc" y="155.211364"/>
     <use style="stroke:#000000;" x="252.761615" xlink:href="#ma92b46bdcc" y="159.166656"/>
     <use style="stroke:#000000;" x="264.67059" xlink:href="#ma92b46bdcc" y="162.719975"/>
     <use style="stroke:#000000;" x="284.08599" xlink:href="#ma92b46bdcc" y="166.185756"/>
     <use style="stroke:#000000;" x="292.225661" xlink:href="#ma92b46bdcc" y="170.270193"/>
     <use style="stroke:#000000;" x="306.310989" xlink:href="#ma92b46bdcc" y="174.142197"/>
     <use style="stroke:#000000;" x="312.494721" xlink:href="#ma92b46bdcc" y="178.618932"/>
     <use style="stroke:#000000;" x="323.550037" xlink:href="#ma92b46bdcc" y="182.549932"/>
     <use style="stroke:#000000;" x="333.219567" xlink:href="#ma92b46bdcc" y="185.431819"/>
     <use style="stroke:#000000;" x="345.775035" xlink:href="#ma92b46bdcc" y="191.289201"/>
     <use style="stroke:#000000;" x="353.138262" xlink:href="#ma92b46bdcc" y="194.329676"/>
     <use style="stroke:#000000;" x="363.014083" xlink:href="#ma92b46bdcc" y="196.45329"/>
     <use style="stroke:#000000;" x="371.769337" xlink:href="#ma92b46bdcc" y="202.659212"/>
     <use style="stroke:#000000;" x="382.085361" xlink:href="#ma92b46bdcc" y="206.86096"/>
     <use style="stroke:#000000;" x="391.184738" xlink:href="#ma92b46bdcc" y="212.105158"/>
     <use style="stroke:#000000;" x="399.324409" xlink:href="#ma92b46bdcc" y="215.507132"/>
     <use style="stroke:#000000;" x="408.423786" xlink:href="#ma92b46bdcc" y="221.441769"/>
     <use style="stroke:#000000;" x="416.563457" xlink:href="#ma92b46bdcc" y="223.910582"/>
     <use style="stroke:#000000;" x="425.318711" xlink:href="#ma92b46bdcc" y="225.17216"/>
     <use style="stroke:#000000;" x="433.181976" xlink:href="#ma92b46bdcc" y="227.747981"/>
     <use style="stroke:#000000;" x="441.446151" xlink:href="#ma92b46bdcc" y="233.895465"/>
     <use style="stroke:#000000;" x="449.920987" xlink:href="#ma92b46bdcc" y="241.485627"/>
     <use style="stroke:#000000;" x="458.460945" xlink:href="#ma92b46bdcc" y="247.054102"/>
     <use style="stroke:#000000;" x="466.150146" xlink:href="#ma92b46bdcc" y="247.880782"/>
     <use style="stroke:#000000;" x="474.614419" xlink:href="#ma92b46bdcc" y="256.852276"/>
     <use style="stroke:#000000;" x="482.899717" xlink:href="#ma92b46bdcc" y="264.11659"/>
     <use style="stroke:#000000;" x="490.973889" xlink:href="#ma92b46bdcc" y="269.874112"/>
     <use style="stroke:#000000;" x="498.818128" xlink:href="#ma92b46bdcc" y="274.442039"/>
     <use style="stroke:#000000;" x="506.9045" xlink:href="#ma92b46bdcc" y="274.197954"/>
     <use style="stroke:#000000;" x="514.659336" xlink:href="#ma92b46bdcc" y="278.259666"/>
     <use style="stroke:#000000;" x="522.494594" xlink:href="#ma92b46bdcc" y="284.972888"/>
     <use style="stroke:#000000;" x="530.67347" xlink:href="#ma92b46bdcc" y="308.075324"/>
     <use style="stroke:#000000;" x="538.38866" xlink:href="#ma92b46bdcc" y="314.183197"/>
     <use style="stroke:#000000;" x="546.272517" xlink:href="#ma92b46bdcc" y="338.34037"/>
     <use style="stroke:#000000;" x="554.210137" xlink:href="#ma92b46bdcc" y="326.336691"/>
     <use style="stroke:#000000;" x="561.880168" xlink:href="#ma92b46bdcc" y="363.045332"/>
     <use style="stroke:#000000;" x="569.713035" xlink:href="#ma92b46bdcc" y="343.735481"/>
     <use style="stroke:#000000;" x="577.596893" xlink:href="#ma92b46bdcc" y="343.735481"/>
    </g>
   </g>
   <g id="line2d_87">
    <g clip-path="url(#pad55d15028)">
     <use style="stroke:#000000;" x="114.338491" xlink:href="#ma92b46bdcc" y="106.865031"/>
     <use style="stroke:#000000;" x="167.887865" xlink:href="#ma92b46bdcc" y="107.811937"/>
     <use style="stroke:#000000;" x="199.212241" xlink:href="#ma92b46bdcc" y="138.699869"/>
     <use style="stroke:#000000;" x="221.437239" xlink:href="#ma92b46bdcc" y="139.785114"/>
     <use style="stroke:#000000;" x="238.676287" xlink:href="#ma92b46bdcc" y="143.589911"/>
     <use style="stroke:#000000;" x="252.761615" xlink:href="#ma92b46bdcc" y="148.230984"/>
     <use style="stroke:#000000;" x="264.67059" xlink:href="#ma92b46bdcc" y="153.31401"/>
     <use style="stroke:#000000;" x="284.08599" xlink:href="#ma92b46bdcc" y="157.426706"/>
     <use style="stroke:#000000;" x="292.225661" xlink:href="#ma92b46bdcc" y="162.026516"/>
     <use style="stroke:#000000;" x="306.310989" xlink:href="#ma92b46bdcc" y="166.673103"/>
     <use style="stroke:#000000;" x="312.494721" xlink:href="#ma92b46bdcc" y="170.924475"/>
     <use style="stroke:#000000;" x="323.550037" xlink:href="#ma92b46bdcc" y="175.687941"/>
     <use style="stroke:#000000;" x="333.219567" xlink:href="#ma92b46bdcc" y="178.532581"/>
     <use style="stroke:#000000;" x="345.775035" xlink:href="#ma92b46bdcc" y="184.8099"/>
     <use style="stroke:#000000;" x="353.138262" xlink:href="#ma92b46bdcc" y="188.232765"/>
     <use style="stroke:#000000;" x="363.014083" xlink:href="#ma92b46bdcc" y="189.901792"/>
     <use style="stroke:#000000;" x="371.769337" xlink:href="#ma92b46bdcc" y="196.077852"/>
     <use style="stroke:#000000;" x="382.085361" xlink:href="#ma92b46bdcc" y="200.416133"/>
     <use style="stroke:#000000;" x="391.184738" xlink:href="#ma92b46bdcc" y="204.743035"/>
     <use style="stroke:#000000;" x="399.324409" xlink:href="#ma92b46bdcc" y="207.097634"/>
     <use style="stroke:#000000;" x="408.423786" xlink:href="#ma92b46bdcc" y="211.660315"/>
     <use style="stroke:#000000;" x="416.563457" xlink:href="#ma92b46bdcc" y="213.752962"/>
     <use style="stroke:#000000;" x="425.318711" xlink:href="#ma92b46bdcc" y="214.861023"/>
     <use style="stroke:#000000;" x="433.181976" xlink:href="#ma92b46bdcc" y="218.356918"/>
     <use style="stroke:#000000;" x="441.446151" xlink:href="#ma92b46bdcc" y="221.990016"/>
     <use style="stroke:#000000;" x="449.920987" xlink:href="#ma92b46bdcc" y="228.502615"/>
     <use style="stroke:#000000;" x="458.460945" xlink:href="#ma92b46bdcc" y="232.106447"/>
     <use style="stroke:#000000;" x="466.150146" xlink:href="#ma92b46bdcc" y="233.131965"/>
     <use style="stroke:#000000;" x="474.614419" xlink:href="#ma92b46bdcc" y="239.210355"/>
     <use style="stroke:#000000;" x="482.899717" xlink:href="#ma92b46bdcc" y="246.657576"/>
     <use style="stroke:#000000;" x="490.973889" xlink:href="#ma92b46bdcc" y="249.890444"/>
     <use style="stroke:#000000;" x="498.818128" xlink:href="#ma92b46bdcc" y="254.650427"/>
     <use style="stroke:#000000;" x="506.9045" xlink:href="#ma92b46bdcc" y="257.594498"/>
     <use style="stroke:#000000;" x="514.659336" xlink:href="#ma92b46bdcc" y="271.363844"/>
     <use style="stroke:#000000;" x="522.494594" xlink:href="#ma92b46bdcc" y="274.102649"/>
     <use style="stroke:#000000;" x="530.67347" xlink:href="#ma92b46bdcc" y="282.11096"/>
     <use style="stroke:#000000;" x="538.38866" xlink:href="#ma92b46bdcc" y="284.153374"/>
     <use style="stroke:#000000;" x="546.272517" xlink:href="#ma92b46bdcc" y="298.553687"/>
     <use style="stroke:#000000;" x="554.210137" xlink:href="#ma92b46bdcc" y="326.336691"/>
     <use style="stroke:#000000;" x="561.880168" xlink:href="#ma92b46bdcc" y="317.051415"/>
     <use style="stroke:#000000;" x="569.713035" xlink:href="#ma92b46bdcc" y="343.735481"/>
     <use style="stroke:#000000;" x="577.596893" xlink:href="#ma92b46bdcc" y="343.735481"/>
    </g>
   </g>
   <g id="line2d_88">
    <path clip-path="url(#pad55d15028)" d="M 114.338491 112.437715 
L 194.415537 139.004682 
L 232.883439 146.644622 
L 258.446859 155.413649 
L 277.621839 160.086042 
L 292.971351 166.308874 
L 305.770814 169.986012 
L 316.748032 177.003722 
L 326.357788 179.673858 
L 334.903348 182.515995 
L 342.597088 186.23544 
L 349.593539 189.834598 
L 356.008656 191.755145 
L 361.931677 192.683326 
L 367.432751 195.782726 
L 372.568016 199.784204 
L 377.383106 202.026867 
L 381.915613 203.454291 
L 386.196874 205.50438 
L 390.253286 207.799529 
L 394.107294 209.413506 
L 397.77814 210.539274 
L 401.282446 212.013733 
L 407.847466 215.962323 
L 410.931969 217.354295 
L 413.898034 218.136964 
L 416.754421 218.554134 
L 422.168644 219.143377 
L 424.739808 219.576241 
L 427.22815 220.252599 
L 429.638839 221.1575 
L 434.245644 223.32597 
L 438.593132 225.683964 
L 440.678445 227.000845 
L 442.708948 228.465006 
L 446.616538 231.707867 
L 450.335962 234.830395 
L 452.130609 236.12672 
L 453.884511 237.200243 
L 455.599477 238.041784 
L 457.277198 238.645947 
L 458.919258 239.011825 
L 462.102242 239.252138 
L 463.645869 239.348356 
L 465.159257 239.583527 
L 466.643567 240.076444 
L 468.099896 240.882105 
L 469.529279 241.95018 
L 470.932695 243.219911 
L 473.665284 246.09411 
L 476.304513 248.905183 
L 478.85655 251.349056 
L 481.326972 253.392907 
L 483.720838 255.023897 
L 486.042751 256.299524 
L 491.559428 259.068308 
L 498.675442 263.363246 
L 500.593747 263.836448 
L 505.190924 264.353812 
L 506.078421 264.660157 
L 506.955838 265.131218 
L 507.823402 265.797516 
L 509.529837 267.623101 
L 511.199394 269.884953 
L 513.637967 273.403407 
L 515.221943 275.25542 
L 516.774093 276.438758 
L 518.295673 277.15812 
L 521.251775 278.321406 
L 521.973458 278.774856 
L 522.688463 279.374462 
L 524.098921 281.066026 
L 525.484089 283.292536 
L 527.516358 287.240461 
L 529.496535 291.202934 
L 530.789006 293.319416 
L 531.427222 294.092885 
L 532.060209 294.678897 
L 533.310834 295.385862 
L 534.541535 295.661662 
L 536.945639 295.913976 
L 537.535154 296.101509 
L 538.120205 296.404712 
L 538.700859 296.857505 
L 539.849236 298.233229 
L 540.980792 300.162618 
L 542.096014 302.556719 
L 543.739229 306.795826 
L 547.442706 316.94113 
L 548.977128 320.135299 
L 549.983402 321.819467 
L 551.468657 323.777713 
L 552.925894 325.237941 
L 558.045572 329.81834 
L 560.265075 332.183476 
L 561.99588 334.312204 
L 564.106242 337.28104 
L 566.96713 341.30671 
L 568.161519 342.65005 
L 568.947642 343.313584 
L 569.725846 343.740386 
L 570.49629 343.905752 
L 571.259125 343.854179 
L 572.389439 343.50921 
L 574.601632 342.643772 
L 575.325173 342.528706 
L 576.042 342.600667 
L 576.752238 342.922233 
L 577.456006 343.561635 
L 578.15342 344.586691 
L 578.844595 345.998671 
L 579.869899 348.781836 
L 580.881774 352.285045 
L 582.210648 357.895713 
L 584.16206 367.464468 
L 585.436144 373.430536 
L 586.378105 376.816328 
L 586.999758 378.418222 
L 587.616449 379.492532 
L 588.228256 380.063049 
L 588.835256 380.174826 
L 589.437524 379.889382 
L 590.035133 379.278718 
L 590.922967 377.920439 
L 592.380387 375.090475 
L 593.810821 372.410449 
L 594.656538 371.212136 
L 595.21525 370.677761 
L 595.76995 370.406491 
L 596.320696 370.445624 
L 596.867543 370.848752 
L 597.410546 371.680057 
L 597.94976 373.020447 
L 598.485236 374.976936 
L 599.017026 377.698008 
L 599.545181 381.40074 
L 600.069749 386.422977 
L 600.59078 393.335414 
L 601.10832 403.222334 
L 601.10832 403.222334 
" style="fill:none;stroke:#008000;stroke-dasharray:7.4,3.2;stroke-dashoffset:0;stroke-width:2;"/>
   </g>
   <g id="line2d_89">
    <path clip-path="url(#pad55d15028)" d="M 114.338491 170.119794 
L 194.415537 170.360514 
L 258.446859 170.846042 
L 292.971351 171.337127 
L 326.357788 172.084456 
L 349.593539 172.845032 
L 367.432751 173.619332 
L 386.196874 174.673957 
L 401.282446 175.755156 
L 413.898034 176.864303 
L 424.739808 178.002882 
L 436.449965 179.469951 
L 446.616538 180.988958 
L 455.599477 182.563717 
L 463.645869 184.198476 
L 470.932695 185.897988 
L 477.591069 187.667598 
L 483.720838 189.513335 
L 489.399796 191.442046 
L 494.689734 193.461544 
L 499.640548 195.5808 
L 504.293113 197.810182 
L 508.681331 200.161768 
L 512.833632 202.649736 
L 516.774093 205.290883 
L 520.523286 208.105316 
L 524.098921 211.117381 
L 526.844858 213.689169 
L 529.496535 216.424976 
L 532.060209 219.347157 
L 534.541535 222.482972 
L 536.945639 225.866141 
L 539.277181 229.539052 
L 541.540415 233.556023 
L 543.739229 237.988238 
L 545.87719 242.931552 
L 547.442706 247.052746 
L 548.977128 251.612208 
L 550.481667 256.714371 
L 551.957463 262.506102 
L 553.405595 269.203363 
L 554.827082 277.142742 
L 555.760413 283.390501 
L 556.682604 290.705526 
L 557.593916 299.529116 
L 558.494603 310.649533 
L 559.384911 325.699927 
L 559.826246 335.81805 
L 560.265075 349.083032 
L 560.701425 368.383932 
L 561.135324 404.398813 
L 561.135449 433 
L 561.135449 433 
" style="fill:none;stroke:#008000;stroke-dasharray:7.4,3.2;stroke-dashoffset:0;stroke-width:2;"/>
   </g>
   <g id="line2d_90">
    <defs>
     <path d="M 0 3 
C 0.795609 3 1.55874 2.683901 2.12132 2.12132 
C 2.683901 1.55874 3 0.795609 3 0 
C 3 -0.795609 2.683901 -1.55874 2.12132 -2.12132 
C 1.55874 -2.683901 0.795609 -3 0 -3 
C -0.795609 -3 -1.55874 -2.683901 -2.12132 -2.12132 
C -2.683901 -1.55874 -3 -0.795609 -3 0 
C -3 0.795609 -2.683901 1.55874 -2.12132 2.12132 
C -1.55874 2.683901 -0.795609 3 0 3 
z
" id="m87fec3b5c8" style="stroke:#0000ff;"/>
    </defs>
    <g clip-path="url(#pad55d15028)">
     <use style="fill:#0000ff;stroke:#0000ff;" x="114.338491" xlink:href="#m87fec3b5c8" y="112.437715"/>
     <use style="fill:#0000ff;stroke:#0000ff;" x="167.887865" xlink:href="#m87fec3b5c8" y="113.427625"/>
     <use style="fill:#0000ff;stroke:#0000ff;" x="199.212241" xlink:href="#m87fec3b5c8" y="144.338417"/>
     <use style="fill:#0000ff;stroke:#0000ff;" x="221.437239" xlink:href="#m87fec3b5c8" y="145.37999"/>
     <use style="fill:#0000ff;stroke:#0000ff;" x="238.676287" xlink:href="#m87fec3b5c8" y="149.008406"/>
     <use style="fill:#0000ff;stroke:#0000ff;" x="252.761615" xlink:href="#m87fec3b5c8" y="153.351393"/>
     <use style="fill:#0000ff;stroke:#0000ff;" x="264.67059" xlink:href="#m87fec3b5c8" y="157.759785"/>
     <use style="fill:#0000ff;stroke:#0000ff;" x="284.08599" xlink:href="#m87fec3b5c8" y="161.583128"/>
     <use style="fill:#0000ff;stroke:#0000ff;" x="292.225661" xlink:href="#m87fec3b5c8" y="165.950694"/>
     <use style="fill:#0000ff;stroke:#0000ff;" x="306.310989" xlink:href="#m87fec3b5c8" y="170.245345"/>
     <use style="fill:#0000ff;stroke:#0000ff;" x="312.494721" xlink:href="#m87fec3b5c8" y="174.599469"/>
     <use style="fill:#0000ff;stroke:#0000ff;" x="323.550037" xlink:href="#m87fec3b5c8" y="178.981917"/>
     <use style="fill:#0000ff;stroke:#0000ff;" x="333.219567" xlink:href="#m87fec3b5c8" y="181.84369"/>
     <use style="fill:#0000ff;stroke:#0000ff;" x="345.775035" xlink:href="#m87fec3b5c8" y="187.927374"/>
     <use style="fill:#0000ff;stroke:#0000ff;" x="353.138262" xlink:href="#m87fec3b5c8" y="191.173028"/>
     <use style="fill:#0000ff;stroke:#0000ff;" x="363.014083" xlink:href="#m87fec3b5c8" y="193.052629"/>
     <use style="fill:#0000ff;stroke:#0000ff;" x="371.769337" xlink:href="#m87fec3b5c8" y="199.242479"/>
     <use style="fill:#0000ff;stroke:#0000ff;" x="382.085361" xlink:href="#m87fec3b5c8" y="203.517665"/>
     <use style="fill:#0000ff;stroke:#0000ff;" x="391.184738" xlink:href="#m87fec3b5c8" y="208.266401"/>
     <use style="fill:#0000ff;stroke:#0000ff;" x="399.324409" xlink:href="#m87fec3b5c8" y="211.096704"/>
     <use style="fill:#0000ff;stroke:#0000ff;" x="408.423786" xlink:href="#m87fec3b5c8" y="216.272934"/>
     <use style="fill:#0000ff;stroke:#0000ff;" x="416.563457" xlink:href="#m87fec3b5c8" y="218.531913"/>
     <use style="fill:#0000ff;stroke:#0000ff;" x="425.318711" xlink:href="#m87fec3b5c8" y="219.707622"/>
     <use style="fill:#0000ff;stroke:#0000ff;" x="433.181976" xlink:href="#m87fec3b5c8" y="222.796055"/>
     <use style="fill:#0000ff;stroke:#0000ff;" x="441.446151" xlink:href="#m87fec3b5c8" y="227.531167"/>
     <use style="fill:#0000ff;stroke:#0000ff;" x="449.920987" xlink:href="#m87fec3b5c8" y="234.504967"/>
     <use style="fill:#0000ff;stroke:#0000ff;" x="458.460945" xlink:href="#m87fec3b5c8" y="238.932674"/>
     <use style="fill:#0000ff;stroke:#0000ff;" x="466.150146" xlink:href="#m87fec3b5c8" y="239.875804"/>
     <use style="fill:#0000ff;stroke:#0000ff;" x="474.614419" xlink:href="#m87fec3b5c8" y="247.130987"/>
     <use style="fill:#0000ff;stroke:#0000ff;" x="482.899717" xlink:href="#m87fec3b5c8" y="254.505201"/>
     <use style="fill:#0000ff;stroke:#0000ff;" x="490.973889" xlink:href="#m87fec3b5c8" y="258.729333"/>
     <use style="fill:#0000ff;stroke:#0000ff;" x="498.818128" xlink:href="#m87fec3b5c8" y="263.41515"/>
     <use style="fill:#0000ff;stroke:#0000ff;" x="506.9045" xlink:href="#m87fec3b5c8" y="265.098138"/>
     <use style="fill:#0000ff;stroke:#0000ff;" x="514.659336" xlink:href="#m87fec3b5c8" y="274.673383"/>
     <use style="fill:#0000ff;stroke:#0000ff;" x="522.494594" xlink:href="#m87fec3b5c8" y="279.194476"/>
     <use style="fill:#0000ff;stroke:#0000ff;" x="530.67347" xlink:href="#m87fec3b5c8" y="293.158577"/>
     <use style="fill:#0000ff;stroke:#0000ff;" x="538.38866" xlink:href="#m87fec3b5c8" y="296.593265"/>
     <use style="fill:#0000ff;stroke:#0000ff;" x="546.272517" xlink:href="#m87fec3b5c8" y="313.992054"/>
     <use style="fill:#0000ff;stroke:#0000ff;" x="554.210137" xlink:href="#m87fec3b5c8" y="326.336691"/>
     <use style="fill:#0000ff;stroke:#0000ff;" x="561.880168" xlink:href="#m87fec3b5c8" y="334.160236"/>
     <use style="fill:#0000ff;stroke:#0000ff;" x="569.713035" xlink:href="#m87fec3b5c8" y="343.735481"/>
     <use style="fill:#0000ff;stroke:#0000ff;" x="577.596893" xlink:href="#m87fec3b5c8" y="343.735481"/>
     <use style="fill:#0000ff;stroke:#0000ff;" x="585.447758" xlink:href="#m87fec3b5c8" y="373.478907"/>
     <use style="fill:#0000ff;stroke:#0000ff;" x="593.204544" xlink:href="#m87fec3b5c8" y="373.478907"/>
     <use style="fill:#0000ff;stroke:#0000ff;" x="601.10832" xlink:href="#m87fec3b5c8" y="403.222334"/>
    </g>
   </g>
   <g id="patch_3">
    <path d="M 90 378 
L 90 51.84 
" style="fill:none;stroke:#000000;stroke-linecap:square;stroke-linejoin:miter;stroke-width:0.8;"/>
   </g>
   <g id="patch_4">
    <path d="M 648 378 
L 648 51.84 
" style="fill:none;stroke:#000000;stroke-linecap:square;stroke-linejoin:miter;stroke-width:0.8;"/>
   </g>
   <g id="patch_5">
    <path d="M 90 378 
L 648 378 
" style="fill:none;stroke:#000000;stroke-linecap:square;stroke-linejoin:miter;stroke-width:0.8;"/>
   </g>
   <g id="patch_6">
    <path d="M 90 51.84 
L 648 51.84 
" style="fill:none;stroke:#000000;stroke-linecap:square;stroke-linejoin:miter;stroke-width:0.8;"/>
   </g>
   <g id="text_11">
    <!-- Average Pellet Count vs Price Paid by Subject -->
    <g transform="translate(233.11875 45.84)scale(0.12 -0.12)">
     <defs>
      <path d="M 44.28125 53.078125 
L 44.28125 44.578125 
Q 40.484375 46.53125 36.375 47.5 
Q 32.28125 48.484375 27.875 48.484375 
Q 21.1875 48.484375 17.84375 46.4375 
Q 14.5 44.390625 14.5 40.28125 
Q 14.5 37.15625 16.890625 35.375 
Q 19.28125 33.59375 26.515625 31.984375 
L 29.59375 31.296875 
Q 39.15625 29.25 43.1875 25.515625 
Q 47.21875 21.78125 47.21875 15.09375 
Q 47.21875 7.46875 41.1875 3.015625 
Q 35.15625 -1.421875 24.609375 -1.421875 
Q 20.21875 -1.421875 15.453125 -0.5625 
Q 10.6875 0.296875 5.421875 2 
L 5.421875 11.28125 
Q 10.40625 8.6875 15.234375 7.390625 
Q 20.0625 6.109375 24.8125 6.109375 
Q 31.15625 6.109375 34.5625 8.28125 
Q 37.984375 10.453125 37.984375 14.40625 
Q 37.984375 18.0625 35.515625 20.015625 
Q 33.0625 21.96875 24.703125 23.78125 
L 21.578125 24.515625 
Q 13.234375 26.265625 9.515625 29.90625 
Q 5.8125 33.546875 5.8125 39.890625 
Q 5.8125 47.609375 11.28125 51.796875 
Q 16.75 56 26.8125 56 
Q 31.78125 56 36.171875 55.265625 
Q 40.578125 54.546875 44.28125 53.078125 
z
" id="DejaVuSans-115"/>
      <path d="M 48.6875 27.296875 
Q 48.6875 37.203125 44.609375 42.84375 
Q 40.53125 48.484375 33.40625 48.484375 
Q 26.265625 48.484375 22.1875 42.84375 
Q 18.109375 37.203125 18.109375 27.296875 
Q 18.109375 17.390625 22.1875 11.75 
Q 26.265625 6.109375 33.40625 6.109375 
Q 40.53125 6.109375 44.609375 11.75 
Q 48.6875 17.390625 48.6875 27.296875 
z
M 18.109375 46.390625 
Q 20.953125 51.265625 25.265625 53.625 
Q 29.59375 56 35.59375 56 
Q 45.5625 56 51.78125 48.09375 
Q 58.015625 40.1875 58.015625 27.296875 
Q 58.015625 14.40625 51.78125 6.484375 
Q 45.5625 -1.421875 35.59375 -1.421875 
Q 29.59375 -1.421875 25.265625 0.953125 
Q 20.953125 3.328125 18.109375 8.203125 
L 18.109375 0 
L 9.078125 0 
L 9.078125 75.984375 
L 18.109375 75.984375 
z
" id="DejaVuSans-98"/>
      <path d="M 32.171875 -5.078125 
Q 28.375 -14.84375 24.75 -17.8125 
Q 21.140625 -20.796875 15.09375 -20.796875 
L 7.90625 -20.796875 
L 7.90625 -13.28125 
L 13.1875 -13.28125 
Q 16.890625 -13.28125 18.9375 -11.515625 
Q 21 -9.765625 23.484375 -3.21875 
L 25.09375 0.875 
L 2.984375 54.6875 
L 12.5 54.6875 
L 29.59375 11.921875 
L 46.6875 54.6875 
L 56.203125 54.6875 
z
" id="DejaVuSans-121"/>
      <path d="M 53.515625 70.515625 
L 53.515625 60.890625 
Q 47.90625 63.578125 42.921875 64.890625 
Q 37.9375 66.21875 33.296875 66.21875 
Q 25.25 66.21875 20.875 63.09375 
Q 16.5 59.96875 16.5 54.203125 
Q 16.5 49.359375 19.40625 46.890625 
Q 22.3125 44.4375 30.421875 42.921875 
L 36.375 41.703125 
Q 47.40625 39.59375 52.65625 34.296875 
Q 57.90625 29 57.90625 20.125 
Q 57.90625 9.515625 50.796875 4.046875 
Q 43.703125 -1.421875 29.984375 -1.421875 
Q 24.8125 -1.421875 18.96875 -0.25 
Q 13.140625 0.921875 6.890625 3.21875 
L 6.890625 13.375 
Q 12.890625 10.015625 18.65625 8.296875 
Q 24.421875 6.59375 29.984375 6.59375 
Q 38.421875 6.59375 43.015625 9.90625 
Q 47.609375 13.234375 47.609375 19.390625 
Q 47.609375 24.75 44.3125 27.78125 
Q 41.015625 30.8125 33.5 32.328125 
L 27.484375 33.5 
Q 16.453125 35.6875 11.515625 40.375 
Q 6.59375 45.0625 6.59375 53.421875 
Q 6.59375 63.09375 13.40625 68.65625 
Q 20.21875 74.21875 32.171875 74.21875 
Q 37.3125 74.21875 42.625 73.28125 
Q 47.953125 72.359375 53.515625 70.515625 
z
" id="DejaVuSans-83"/>
      <path d="M 9.421875 54.6875 
L 18.40625 54.6875 
L 18.40625 -0.984375 
Q 18.40625 -11.421875 14.421875 -16.109375 
Q 10.453125 -20.796875 1.609375 -20.796875 
L -1.8125 -20.796875 
L -1.8125 -13.1875 
L 0.59375 -13.1875 
Q 5.71875 -13.1875 7.5625 -10.8125 
Q 9.421875 -8.453125 9.421875 -0.984375 
z
M 9.421875 75.984375 
L 18.40625 75.984375 
L 18.40625 64.59375 
L 9.421875 64.59375 
z
" id="DejaVuSans-106"/>
     </defs>
     <use xlink:href="#DejaVuSans-65"/>
     <use x="62.533203" xlink:href="#DejaVuSans-118"/>
     <use x="121.712891" xlink:href="#DejaVuSans-101"/>
     <use x="183.236328" xlink:href="#DejaVuSans-114"/>
     <use x="224.349609" xlink:href="#DejaVuSans-97"/>
     <use x="285.628906" xlink:href="#DejaVuSans-103"/>
     <use x="349.105469" xlink:href="#DejaVuSans-101"/>
     <use x="410.628906" xlink:href="#DejaVuSans-32"/>
     <use x="442.416016" xlink:href="#DejaVuSans-80"/>
     <use x="499.09375" xlink:href="#DejaVuSans-101"/>
     <use x="560.617188" xlink:href="#DejaVuSans-108"/>
     <use x="588.400391" xlink:href="#DejaVuSans-108"/>
     <use x="616.183594" xlink:href="#DejaVuSans-101"/>
     <use x="677.707031" xlink:href="#DejaVuSans-116"/>
     <use x="716.916016" xlink:href="#DejaVuSans-32"/>
     <use x="748.703125" xlink:href="#DejaVuSans-67"/>
     <use x="818.527344" xlink:href="#DejaVuSans-111"/>
     <use x="879.708984" xlink:href="#DejaVuSans-117"/>
     <use x="943.087891" xlink:href="#DejaVuSans-110"/>
     <use x="1006.466797" xlink:href="#DejaVuSans-116"/>
     <use x="1045.675781" xlink:href="#DejaVuSans-32"/>
     <use x="1077.462891" xlink:href="#DejaVuSans-118"/>
     <use x="1136.642578" xlink:href="#DejaVuSans-115"/>
     <use x="1188.742188" xlink:href="#DejaVuSans-32"/>
     <use x="1220.529297" xlink:href="#DejaVuSans-80"/>
     <use x="1279.082031" xlink:href="#DejaVuSans-114"/>
     <use x="1320.195312" xlink:href="#DejaVuSans-105"/>
     <use x="1347.978516" xlink:href="#DejaVuSans-99"/>
     <use x="1402.958984" xlink:href="#DejaVuSans-101"/>
     <use x="1464.482422" xlink:href="#DejaVuSans-32"/>
     <use x="1496.269531" xlink:href="#DejaVuSans-80"/>
     <use x="1552.072266" xlink:href="#DejaVuSans-97"/>
     <use x="1613.351562" xlink:href="#DejaVuSans-105"/>
     <use x="1641.134766" xlink:href="#DejaVuSans-100"/>
     <use x="1704.611328" xlink:href="#DejaVuSans-32"/>
     <use x="1736.398438" xlink:href="#DejaVuSans-98"/>
     <use x="1799.875" xlink:href="#DejaVuSans-121"/>
     <use x="1859.054688" xlink:href="#DejaVuSans-32"/>
     <use x="1890.841797" xlink:href="#DejaVuSans-83"/>
     <use x="1954.318359" xlink:href="#DejaVuSans-117"/>
     <use x="2017.697266" xlink:href="#DejaVuSans-98"/>
     <use x="2081.173828" xlink:href="#DejaVuSans-106"/>
     <use x="2108.957031" xlink:href="#DejaVuSans-101"/>
     <use x="2170.480469" xlink:href="#DejaVuSans-99"/>
     <use x="2225.460938" xlink:href="#DejaVuSans-116"/>
    </g>
   </g>
  </g>
 </g>
 <defs>
  <clipPath id="pad55d15028">
   <rect height="326.16" width="558" x="90" y="51.84"/>
  </clipPath>
 </defs>
</svg>
