<?xml version="1.0" encoding="utf-8" standalone="no"?>
<!DOCTYPE svg PUBLIC "-//W3C//DTD SVG 1.1//EN"
  "http://www.w3.org/Graphics/SVG/1.1/DTD/svg11.dtd">
<!-- Created with matplotlib (https://matplotlib.org/) -->
<svg height="432pt" version="1.1" viewBox="0 0 720 432" width="720pt" xmlns="http://www.w3.org/2000/svg" xmlns:xlink="http://www.w3.org/1999/xlink">
 <metadata>
  <rdf:RDF xmlns:cc="http://creativecommons.org/ns#" xmlns:dc="http://purl.org/dc/elements/1.1/" xmlns:rdf="http://www.w3.org/1999/02/22-rdf-syntax-ns#">
   <cc:Work>
    <dc:type rdf:resource="http://purl.org/dc/dcmitype/StillImage"/>
    <dc:date>2024-10-17T22:04:37.580891</dc:date>
    <dc:format>image/svg+xml</dc:format>
    <dc:creator>
     <cc:Agent>
      <dc:title>Matplotlib v3.3.4, https://matplotlib.org/</dc:title>
     </cc:Agent>
    </dc:creator>
   </cc:Work>
  </rdf:RDF>
 </metadata>
 <defs>
  <style type="text/css">*{stroke-linecap:butt;stroke-linejoin:round;}</style>
 </defs>
 <g id="figure_1">
  <g id="patch_1">
   <path d="M 0 432 
L 720 432 
L 720 0 
L 0 0 
z
" style="fill:#ffffff;"/>
  </g>
  <g id="axes_1">
   <g id="patch_2">
    <path d="M 90 378 
L 648 378 
L 648 51.84 
L 90 51.84 
z
" style="fill:#ffffff;"/>
   </g>
   <g id="matplotlib.axis_1">
    <g id="xtick_1">
     <g id="line2d_1">
      <path clip-path="url(#p8cf2f5964e)" d="M 111.322341 378 
L 111.322341 51.84 
" style="fill:none;stroke:#b0b0b0;stroke-linecap:square;stroke-width:0.8;"/>
     </g>
     <g id="line2d_2">
      <defs>
       <path d="M 0 0 
L 0 3.5 
" id="m137f868545" style="stroke:#000000;stroke-width:0.8;"/>
      </defs>
      <g>
       <use style="stroke:#000000;stroke-width:0.8;" x="111.322341" xlink:href="#m137f868545" y="378"/>
      </g>
     </g>
     <g id="text_1">
      <!-- $\mathdefault{10^{0}}$ -->
      <g transform="translate(102.522341 392.598437)scale(0.1 -0.1)">
       <defs>
        <path d="M 12.40625 8.296875 
L 28.515625 8.296875 
L 28.515625 63.921875 
L 10.984375 60.40625 
L 10.984375 69.390625 
L 28.421875 72.90625 
L 38.28125 72.90625 
L 38.28125 8.296875 
L 54.390625 8.296875 
L 54.390625 0 
L 12.40625 0 
z
" id="DejaVuSans-49"/>
        <path d="M 31.78125 66.40625 
Q 24.171875 66.40625 20.328125 58.90625 
Q 16.5 51.421875 16.5 36.375 
Q 16.5 21.390625 20.328125 13.890625 
Q 24.171875 6.390625 31.78125 6.390625 
Q 39.453125 6.390625 43.28125 13.890625 
Q 47.125 21.390625 47.125 36.375 
Q 47.125 51.421875 43.28125 58.90625 
Q 39.453125 66.40625 31.78125 66.40625 
z
M 31.78125 74.21875 
Q 44.046875 74.21875 50.515625 64.515625 
Q 56.984375 54.828125 56.984375 36.375 
Q 56.984375 17.96875 50.515625 8.265625 
Q 44.046875 -1.421875 31.78125 -1.421875 
Q 19.53125 -1.421875 13.0625 8.265625 
Q 6.59375 17.96875 6.59375 36.375 
Q 6.59375 54.828125 13.0625 64.515625 
Q 19.53125 74.21875 31.78125 74.21875 
z
" id="DejaVuSans-48"/>
       </defs>
       <use transform="translate(0 0.765625)" xlink:href="#DejaVuSans-49"/>
       <use transform="translate(63.623047 0.765625)" xlink:href="#DejaVuSans-48"/>
       <use transform="translate(128.203125 39.046875)scale(0.7)" xlink:href="#DejaVuSans-48"/>
      </g>
     </g>
    </g>
    <g id="xtick_2">
     <g id="line2d_3">
      <path clip-path="url(#p8cf2f5964e)" d="M 290.214894 378 
L 290.214894 51.84 
" style="fill:none;stroke:#b0b0b0;stroke-linecap:square;stroke-width:0.8;"/>
     </g>
     <g id="line2d_4">
      <g>
       <use style="stroke:#000000;stroke-width:0.8;" x="290.214894" xlink:href="#m137f868545" y="378"/>
      </g>
     </g>
     <g id="text_2">
      <!-- $\mathdefault{10^{1}}$ -->
      <g transform="translate(281.414894 392.598437)scale(0.1 -0.1)">
       <use transform="translate(0 0.684375)" xlink:href="#DejaVuSans-49"/>
       <use transform="translate(63.623047 0.684375)" xlink:href="#DejaVuSans-48"/>
       <use transform="translate(128.203125 38.965625)scale(0.7)" xlink:href="#DejaVuSans-49"/>
      </g>
     </g>
    </g>
    <g id="xtick_3">
     <g id="line2d_5">
      <path clip-path="url(#p8cf2f5964e)" d="M 469.107447 378 
L 469.107447 51.84 
" style="fill:none;stroke:#b0b0b0;stroke-linecap:square;stroke-width:0.8;"/>
     </g>
     <g id="line2d_6">
      <g>
       <use style="stroke:#000000;stroke-width:0.8;" x="469.107447" xlink:href="#m137f868545" y="378"/>
      </g>
     </g>
     <g id="text_3">
      <!-- $\mathdefault{10^{2}}$ -->
      <g transform="translate(460.307447 392.598437)scale(0.1 -0.1)">
       <defs>
        <path d="M 19.1875 8.296875 
L 53.609375 8.296875 
L 53.609375 0 
L 7.328125 0 
L 7.328125 8.296875 
Q 12.9375 14.109375 22.625 23.890625 
Q 32.328125 33.6875 34.8125 36.53125 
Q 39.546875 41.84375 41.421875 45.53125 
Q 43.3125 49.21875 43.3125 52.78125 
Q 43.3125 58.59375 39.234375 62.25 
Q 35.15625 65.921875 28.609375 65.921875 
Q 23.96875 65.921875 18.8125 64.3125 
Q 13.671875 62.703125 7.8125 59.421875 
L 7.8125 69.390625 
Q 13.765625 71.78125 18.9375 73 
Q 24.125 74.21875 28.421875 74.21875 
Q 39.75 74.21875 46.484375 68.546875 
Q 53.21875 62.890625 53.21875 53.421875 
Q 53.21875 48.921875 51.53125 44.890625 
Q 49.859375 40.875 45.40625 35.40625 
Q 44.1875 33.984375 37.640625 27.21875 
Q 31.109375 20.453125 19.1875 8.296875 
z
" id="DejaVuSans-50"/>
       </defs>
       <use transform="translate(0 0.765625)" xlink:href="#DejaVuSans-49"/>
       <use transform="translate(63.623047 0.765625)" xlink:href="#DejaVuSans-48"/>
       <use transform="translate(128.203125 39.046875)scale(0.7)" xlink:href="#DejaVuSans-50"/>
      </g>
     </g>
    </g>
    <g id="xtick_4">
     <g id="line2d_7">
      <path clip-path="url(#p8cf2f5964e)" d="M 648 378 
L 648 51.84 
" style="fill:none;stroke:#b0b0b0;stroke-linecap:square;stroke-width:0.8;"/>
     </g>
     <g id="line2d_8">
      <g>
       <use style="stroke:#000000;stroke-width:0.8;" x="648" xlink:href="#m137f868545" y="378"/>
      </g>
     </g>
     <g id="text_4">
      <!-- $\mathdefault{10^{3}}$ -->
      <g transform="translate(639.2 392.598437)scale(0.1 -0.1)">
       <defs>
        <path d="M 40.578125 39.3125 
Q 47.65625 37.796875 51.625 33 
Q 55.609375 28.21875 55.609375 21.1875 
Q 55.609375 10.40625 48.1875 4.484375 
Q 40.765625 -1.421875 27.09375 -1.421875 
Q 22.515625 -1.421875 17.65625 -0.515625 
Q 12.796875 0.390625 7.625 2.203125 
L 7.625 11.71875 
Q 11.71875 9.328125 16.59375 8.109375 
Q 21.484375 6.890625 26.8125 6.890625 
Q 36.078125 6.890625 40.9375 10.546875 
Q 45.796875 14.203125 45.796875 21.1875 
Q 45.796875 27.640625 41.28125 31.265625 
Q 36.765625 34.90625 28.71875 34.90625 
L 20.21875 34.90625 
L 20.21875 43.015625 
L 29.109375 43.015625 
Q 36.375 43.015625 40.234375 45.921875 
Q 44.09375 48.828125 44.09375 54.296875 
Q 44.09375 59.90625 40.109375 62.90625 
Q 36.140625 65.921875 28.71875 65.921875 
Q 24.65625 65.921875 20.015625 65.03125 
Q 15.375 64.15625 9.8125 62.3125 
L 9.8125 71.09375 
Q 15.4375 72.65625 20.34375 73.4375 
Q 25.25 74.21875 29.59375 74.21875 
Q 40.828125 74.21875 47.359375 69.109375 
Q 53.90625 64.015625 53.90625 55.328125 
Q 53.90625 49.265625 50.4375 45.09375 
Q 46.96875 40.921875 40.578125 39.3125 
z
" id="DejaVuSans-51"/>
       </defs>
       <use transform="translate(0 0.765625)" xlink:href="#DejaVuSans-49"/>
       <use transform="translate(63.623047 0.765625)" xlink:href="#DejaVuSans-48"/>
       <use transform="translate(128.203125 39.046875)scale(0.7)" xlink:href="#DejaVuSans-51"/>
      </g>
     </g>
    </g>
    <g id="xtick_5">
     <g id="line2d_9">
      <defs>
       <path d="M 0 0 
L 0 2 
" id="md532d518e3" style="stroke:#000000;stroke-width:0.6;"/>
      </defs>
      <g>
       <use style="stroke:#000000;stroke-width:0.6;" x="93.985861" xlink:href="#md532d518e3" y="378"/>
      </g>
     </g>
    </g>
    <g id="xtick_6">
     <g id="line2d_10">
      <g>
       <use style="stroke:#000000;stroke-width:0.6;" x="103.136667" xlink:href="#md532d518e3" y="378"/>
      </g>
     </g>
    </g>
    <g id="xtick_7">
     <g id="line2d_11">
      <g>
       <use style="stroke:#000000;stroke-width:0.6;" x="165.174365" xlink:href="#md532d518e3" y="378"/>
      </g>
     </g>
    </g>
    <g id="xtick_8">
     <g id="line2d_12">
      <g>
       <use style="stroke:#000000;stroke-width:0.6;" x="196.67578" xlink:href="#md532d518e3" y="378"/>
      </g>
     </g>
    </g>
    <g id="xtick_9">
     <g id="line2d_13">
      <g>
       <use style="stroke:#000000;stroke-width:0.6;" x="219.02639" xlink:href="#md532d518e3" y="378"/>
      </g>
     </g>
    </g>
    <g id="xtick_10">
     <g id="line2d_14">
      <g>
       <use style="stroke:#000000;stroke-width:0.6;" x="236.362869" xlink:href="#md532d518e3" y="378"/>
      </g>
     </g>
    </g>
    <g id="xtick_11">
     <g id="line2d_15">
      <g>
       <use style="stroke:#000000;stroke-width:0.6;" x="250.527805" xlink:href="#md532d518e3" y="378"/>
      </g>
     </g>
    </g>
    <g id="xtick_12">
     <g id="line2d_16">
      <g>
       <use style="stroke:#000000;stroke-width:0.6;" x="262.504087" xlink:href="#md532d518e3" y="378"/>
      </g>
     </g>
    </g>
    <g id="xtick_13">
     <g id="line2d_17">
      <g>
       <use style="stroke:#000000;stroke-width:0.6;" x="272.878414" xlink:href="#md532d518e3" y="378"/>
      </g>
     </g>
    </g>
    <g id="xtick_14">
     <g id="line2d_18">
      <g>
       <use style="stroke:#000000;stroke-width:0.6;" x="282.02922" xlink:href="#md532d518e3" y="378"/>
      </g>
     </g>
    </g>
    <g id="xtick_15">
     <g id="line2d_19">
      <g>
       <use style="stroke:#000000;stroke-width:0.6;" x="344.066918" xlink:href="#md532d518e3" y="378"/>
      </g>
     </g>
    </g>
    <g id="xtick_16">
     <g id="line2d_20">
      <g>
       <use style="stroke:#000000;stroke-width:0.6;" x="375.568333" xlink:href="#md532d518e3" y="378"/>
      </g>
     </g>
    </g>
    <g id="xtick_17">
     <g id="line2d_21">
      <g>
       <use style="stroke:#000000;stroke-width:0.6;" x="397.918943" xlink:href="#md532d518e3" y="378"/>
      </g>
     </g>
    </g>
    <g id="xtick_18">
     <g id="line2d_22">
      <g>
       <use style="stroke:#000000;stroke-width:0.6;" x="415.255422" xlink:href="#md532d518e3" y="378"/>
      </g>
     </g>
    </g>
    <g id="xtick_19">
     <g id="line2d_23">
      <g>
       <use style="stroke:#000000;stroke-width:0.6;" x="429.420358" xlink:href="#md532d518e3" y="378"/>
      </g>
     </g>
    </g>
    <g id="xtick_20">
     <g id="line2d_24">
      <g>
       <use style="stroke:#000000;stroke-width:0.6;" x="441.39664" xlink:href="#md532d518e3" y="378"/>
      </g>
     </g>
    </g>
    <g id="xtick_21">
     <g id="line2d_25">
      <g>
       <use style="stroke:#000000;stroke-width:0.6;" x="451.770967" xlink:href="#md532d518e3" y="378"/>
      </g>
     </g>
    </g>
    <g id="xtick_22">
     <g id="line2d_26">
      <g>
       <use style="stroke:#000000;stroke-width:0.6;" x="460.921773" xlink:href="#md532d518e3" y="378"/>
      </g>
     </g>
    </g>
    <g id="xtick_23">
     <g id="line2d_27">
      <g>
       <use style="stroke:#000000;stroke-width:0.6;" x="522.959471" xlink:href="#md532d518e3" y="378"/>
      </g>
     </g>
    </g>
    <g id="xtick_24">
     <g id="line2d_28">
      <g>
       <use style="stroke:#000000;stroke-width:0.6;" x="554.460886" xlink:href="#md532d518e3" y="378"/>
      </g>
     </g>
    </g>
    <g id="xtick_25">
     <g id="line2d_29">
      <g>
       <use style="stroke:#000000;stroke-width:0.6;" x="576.811496" xlink:href="#md532d518e3" y="378"/>
      </g>
     </g>
    </g>
    <g id="xtick_26">
     <g id="line2d_30">
      <g>
       <use style="stroke:#000000;stroke-width:0.6;" x="594.147976" xlink:href="#md532d518e3" y="378"/>
      </g>
     </g>
    </g>
    <g id="xtick_27">
     <g id="line2d_31">
      <g>
       <use style="stroke:#000000;stroke-width:0.6;" x="608.312911" xlink:href="#md532d518e3" y="378"/>
      </g>
     </g>
    </g>
    <g id="xtick_28">
     <g id="line2d_32">
      <g>
       <use style="stroke:#000000;stroke-width:0.6;" x="620.289193" xlink:href="#md532d518e3" y="378"/>
      </g>
     </g>
    </g>
    <g id="xtick_29">
     <g id="line2d_33">
      <g>
       <use style="stroke:#000000;stroke-width:0.6;" x="630.66352" xlink:href="#md532d518e3" y="378"/>
      </g>
     </g>
    </g>
    <g id="xtick_30">
     <g id="line2d_34">
      <g>
       <use style="stroke:#000000;stroke-width:0.6;" x="639.814326" xlink:href="#md532d518e3" y="378"/>
      </g>
     </g>
    </g>
    <g id="text_5">
     <!-- Price Paid -->
     <g transform="translate(344.796094 406.276563)scale(0.1 -0.1)">
      <defs>
       <path d="M 19.671875 64.796875 
L 19.671875 37.40625 
L 32.078125 37.40625 
Q 38.96875 37.40625 42.71875 40.96875 
Q 46.484375 44.53125 46.484375 51.125 
Q 46.484375 57.671875 42.71875 61.234375 
Q 38.96875 64.796875 32.078125 64.796875 
z
M 9.8125 72.90625 
L 32.078125 72.90625 
Q 44.34375 72.90625 50.609375 67.359375 
Q 56.890625 61.8125 56.890625 51.125 
Q 56.890625 40.328125 50.609375 34.8125 
Q 44.34375 29.296875 32.078125 29.296875 
L 19.671875 29.296875 
L 19.671875 0 
L 9.8125 0 
z
" id="DejaVuSans-80"/>
       <path d="M 41.109375 46.296875 
Q 39.59375 47.171875 37.8125 47.578125 
Q 36.03125 48 33.890625 48 
Q 26.265625 48 22.1875 43.046875 
Q 18.109375 38.09375 18.109375 28.8125 
L 18.109375 0 
L 9.078125 0 
L 9.078125 54.6875 
L 18.109375 54.6875 
L 18.109375 46.1875 
Q 20.953125 51.171875 25.484375 53.578125 
Q 30.03125 56 36.53125 56 
Q 37.453125 56 38.578125 55.875 
Q 39.703125 55.765625 41.0625 55.515625 
z
" id="DejaVuSans-114"/>
       <path d="M 9.421875 54.6875 
L 18.40625 54.6875 
L 18.40625 0 
L 9.421875 0 
z
M 9.421875 75.984375 
L 18.40625 75.984375 
L 18.40625 64.59375 
L 9.421875 64.59375 
z
" id="DejaVuSans-105"/>
       <path d="M 48.78125 52.59375 
L 48.78125 44.1875 
Q 44.96875 46.296875 41.140625 47.34375 
Q 37.3125 48.390625 33.40625 48.390625 
Q 24.65625 48.390625 19.8125 42.84375 
Q 14.984375 37.3125 14.984375 27.296875 
Q 14.984375 17.28125 19.8125 11.734375 
Q 24.65625 6.203125 33.40625 6.203125 
Q 37.3125 6.203125 41.140625 7.25 
Q 44.96875 8.296875 48.78125 10.40625 
L 48.78125 2.09375 
Q 45.015625 0.34375 40.984375 -0.53125 
Q 36.96875 -1.421875 32.421875 -1.421875 
Q 20.0625 -1.421875 12.78125 6.34375 
Q 5.515625 14.109375 5.515625 27.296875 
Q 5.515625 40.671875 12.859375 48.328125 
Q 20.21875 56 33.015625 56 
Q 37.15625 56 41.109375 55.140625 
Q 45.0625 54.296875 48.78125 52.59375 
z
" id="DejaVuSans-99"/>
       <path d="M 56.203125 29.59375 
L 56.203125 25.203125 
L 14.890625 25.203125 
Q 15.484375 15.921875 20.484375 11.0625 
Q 25.484375 6.203125 34.421875 6.203125 
Q 39.59375 6.203125 44.453125 7.46875 
Q 49.3125 8.734375 54.109375 11.28125 
L 54.109375 2.78125 
Q 49.265625 0.734375 44.1875 -0.34375 
Q 39.109375 -1.421875 33.890625 -1.421875 
Q 20.796875 -1.421875 13.15625 6.1875 
Q 5.515625 13.8125 5.515625 26.8125 
Q 5.515625 40.234375 12.765625 48.109375 
Q 20.015625 56 32.328125 56 
Q 43.359375 56 49.78125 48.890625 
Q 56.203125 41.796875 56.203125 29.59375 
z
M 47.21875 32.234375 
Q 47.125 39.59375 43.09375 43.984375 
Q 39.0625 48.390625 32.421875 48.390625 
Q 24.90625 48.390625 20.390625 44.140625 
Q 15.875 39.890625 15.1875 32.171875 
z
" id="DejaVuSans-101"/>
       <path id="DejaVuSans-32"/>
       <path d="M 34.28125 27.484375 
Q 23.390625 27.484375 19.1875 25 
Q 14.984375 22.515625 14.984375 16.5 
Q 14.984375 11.71875 18.140625 8.90625 
Q 21.296875 6.109375 26.703125 6.109375 
Q 34.1875 6.109375 38.703125 11.40625 
Q 43.21875 16.703125 43.21875 25.484375 
L 43.21875 27.484375 
z
M 52.203125 31.203125 
L 52.203125 0 
L 43.21875 0 
L 43.21875 8.296875 
Q 40.140625 3.328125 35.546875 0.953125 
Q 30.953125 -1.421875 24.3125 -1.421875 
Q 15.921875 -1.421875 10.953125 3.296875 
Q 6 8.015625 6 15.921875 
Q 6 25.140625 12.171875 29.828125 
Q 18.359375 34.515625 30.609375 34.515625 
L 43.21875 34.515625 
L 43.21875 35.40625 
Q 43.21875 41.609375 39.140625 45 
Q 35.0625 48.390625 27.6875 48.390625 
Q 23 48.390625 18.546875 47.265625 
Q 14.109375 46.140625 10.015625 43.890625 
L 10.015625 52.203125 
Q 14.9375 54.109375 19.578125 55.046875 
Q 24.21875 56 28.609375 56 
Q 40.484375 56 46.34375 49.84375 
Q 52.203125 43.703125 52.203125 31.203125 
z
" id="DejaVuSans-97"/>
       <path d="M 45.40625 46.390625 
L 45.40625 75.984375 
L 54.390625 75.984375 
L 54.390625 0 
L 45.40625 0 
L 45.40625 8.203125 
Q 42.578125 3.328125 38.25 0.953125 
Q 33.9375 -1.421875 27.875 -1.421875 
Q 17.96875 -1.421875 11.734375 6.484375 
Q 5.515625 14.40625 5.515625 27.296875 
Q 5.515625 40.1875 11.734375 48.09375 
Q 17.96875 56 27.875 56 
Q 33.9375 56 38.25 53.625 
Q 42.578125 51.265625 45.40625 46.390625 
z
M 14.796875 27.296875 
Q 14.796875 17.390625 18.875 11.75 
Q 22.953125 6.109375 30.078125 6.109375 
Q 37.203125 6.109375 41.296875 11.75 
Q 45.40625 17.390625 45.40625 27.296875 
Q 45.40625 37.203125 41.296875 42.84375 
Q 37.203125 48.484375 30.078125 48.484375 
Q 22.953125 48.484375 18.875 42.84375 
Q 14.796875 37.203125 14.796875 27.296875 
z
" id="DejaVuSans-100"/>
      </defs>
      <use xlink:href="#DejaVuSans-80"/>
      <use x="58.552734" xlink:href="#DejaVuSans-114"/>
      <use x="99.666016" xlink:href="#DejaVuSans-105"/>
      <use x="127.449219" xlink:href="#DejaVuSans-99"/>
      <use x="182.429688" xlink:href="#DejaVuSans-101"/>
      <use x="243.953125" xlink:href="#DejaVuSans-32"/>
      <use x="275.740234" xlink:href="#DejaVuSans-80"/>
      <use x="331.542969" xlink:href="#DejaVuSans-97"/>
      <use x="392.822266" xlink:href="#DejaVuSans-105"/>
      <use x="420.605469" xlink:href="#DejaVuSans-100"/>
     </g>
    </g>
   </g>
   <g id="matplotlib.axis_2">
    <g id="ytick_1">
     <g id="line2d_35">
      <path clip-path="url(#p8cf2f5964e)" d="M 90 378 
L 648 378 
" style="fill:none;stroke:#b0b0b0;stroke-linecap:square;stroke-width:0.8;"/>
     </g>
     <g id="line2d_36">
      <defs>
       <path d="M 0 0 
L -3.5 0 
" id="m7daf018c97" style="stroke:#000000;stroke-width:0.8;"/>
      </defs>
      <g>
       <use style="stroke:#000000;stroke-width:0.8;" x="90" xlink:href="#m7daf018c97" y="378"/>
      </g>
     </g>
     <g id="text_6">
      <!-- $\mathdefault{10^{-1}}$ -->
      <g transform="translate(59.5 381.799219)scale(0.1 -0.1)">
       <defs>
        <path d="M 10.59375 35.5 
L 73.1875 35.5 
L 73.1875 27.203125 
L 10.59375 27.203125 
z
" id="DejaVuSans-8722"/>
       </defs>
       <use transform="translate(0 0.684375)" xlink:href="#DejaVuSans-49"/>
       <use transform="translate(63.623047 0.684375)" xlink:href="#DejaVuSans-48"/>
       <use transform="translate(128.203125 38.965625)scale(0.7)" xlink:href="#DejaVuSans-8722"/>
       <use transform="translate(186.855469 38.965625)scale(0.7)" xlink:href="#DejaVuSans-49"/>
      </g>
     </g>
    </g>
    <g id="ytick_2">
     <g id="line2d_37">
      <path clip-path="url(#p8cf2f5964e)" d="M 90 279.194476 
L 648 279.194476 
" style="fill:none;stroke:#b0b0b0;stroke-linecap:square;stroke-width:0.8;"/>
     </g>
     <g id="line2d_38">
      <g>
       <use style="stroke:#000000;stroke-width:0.8;" x="90" xlink:href="#m7daf018c97" y="279.194476"/>
      </g>
     </g>
     <g id="text_7">
      <!-- $\mathdefault{10^{0}}$ -->
      <g transform="translate(65.4 282.993694)scale(0.1 -0.1)">
       <use transform="translate(0 0.765625)" xlink:href="#DejaVuSans-49"/>
       <use transform="translate(63.623047 0.765625)" xlink:href="#DejaVuSans-48"/>
       <use transform="translate(128.203125 39.046875)scale(0.7)" xlink:href="#DejaVuSans-48"/>
      </g>
     </g>
    </g>
    <g id="ytick_3">
     <g id="line2d_39">
      <path clip-path="url(#p8cf2f5964e)" d="M 90 180.388951 
L 648 180.388951 
" style="fill:none;stroke:#b0b0b0;stroke-linecap:square;stroke-width:0.8;"/>
     </g>
     <g id="line2d_40">
      <g>
       <use style="stroke:#000000;stroke-width:0.8;" x="90" xlink:href="#m7daf018c97" y="180.388951"/>
      </g>
     </g>
     <g id="text_8">
      <!-- $\mathdefault{10^{1}}$ -->
      <g transform="translate(65.4 184.18817)scale(0.1 -0.1)">
       <use transform="translate(0 0.684375)" xlink:href="#DejaVuSans-49"/>
       <use transform="translate(63.623047 0.684375)" xlink:href="#DejaVuSans-48"/>
       <use transform="translate(128.203125 38.965625)scale(0.7)" xlink:href="#DejaVuSans-49"/>
      </g>
     </g>
    </g>
    <g id="ytick_4">
     <g id="line2d_41">
      <path clip-path="url(#p8cf2f5964e)" d="M 90 81.583427 
L 648 81.583427 
" style="fill:none;stroke:#b0b0b0;stroke-linecap:square;stroke-width:0.8;"/>
     </g>
     <g id="line2d_42">
      <g>
       <use style="stroke:#000000;stroke-width:0.8;" x="90" xlink:href="#m7daf018c97" y="81.583427"/>
      </g>
     </g>
     <g id="text_9">
      <!-- $\mathdefault{10^{2}}$ -->
      <g transform="translate(65.4 85.382645)scale(0.1 -0.1)">
       <use transform="translate(0 0.765625)" xlink:href="#DejaVuSans-49"/>
       <use transform="translate(63.623047 0.765625)" xlink:href="#DejaVuSans-48"/>
       <use transform="translate(128.203125 39.046875)scale(0.7)" xlink:href="#DejaVuSans-50"/>
      </g>
     </g>
    </g>
    <g id="ytick_5">
     <g id="line2d_43">
      <defs>
       <path d="M 0 0 
L -2 0 
" id="mb7b4cd5f25" style="stroke:#000000;stroke-width:0.6;"/>
      </defs>
      <g>
       <use style="stroke:#000000;stroke-width:0.6;" x="90" xlink:href="#mb7b4cd5f25" y="348.256573"/>
      </g>
     </g>
    </g>
    <g id="ytick_6">
     <g id="line2d_44">
      <g>
       <use style="stroke:#000000;stroke-width:0.6;" x="90" xlink:href="#mb7b4cd5f25" y="330.857784"/>
      </g>
     </g>
    </g>
    <g id="ytick_7">
     <g id="line2d_45">
      <g>
       <use style="stroke:#000000;stroke-width:0.6;" x="90" xlink:href="#mb7b4cd5f25" y="318.513147"/>
      </g>
     </g>
    </g>
    <g id="ytick_8">
     <g id="line2d_46">
      <g>
       <use style="stroke:#000000;stroke-width:0.6;" x="90" xlink:href="#mb7b4cd5f25" y="308.937902"/>
      </g>
     </g>
    </g>
    <g id="ytick_9">
     <g id="line2d_47">
      <g>
       <use style="stroke:#000000;stroke-width:0.6;" x="90" xlink:href="#mb7b4cd5f25" y="301.114358"/>
      </g>
     </g>
    </g>
    <g id="ytick_10">
     <g id="line2d_48">
      <g>
       <use style="stroke:#000000;stroke-width:0.6;" x="90" xlink:href="#mb7b4cd5f25" y="294.499645"/>
      </g>
     </g>
    </g>
    <g id="ytick_11">
     <g id="line2d_49">
      <g>
       <use style="stroke:#000000;stroke-width:0.6;" x="90" xlink:href="#mb7b4cd5f25" y="288.76972"/>
      </g>
     </g>
    </g>
    <g id="ytick_12">
     <g id="line2d_50">
      <g>
       <use style="stroke:#000000;stroke-width:0.6;" x="90" xlink:href="#mb7b4cd5f25" y="283.715568"/>
      </g>
     </g>
    </g>
    <g id="ytick_13">
     <g id="line2d_51">
      <g>
       <use style="stroke:#000000;stroke-width:0.6;" x="90" xlink:href="#mb7b4cd5f25" y="249.451049"/>
      </g>
     </g>
    </g>
    <g id="ytick_14">
     <g id="line2d_52">
      <g>
       <use style="stroke:#000000;stroke-width:0.6;" x="90" xlink:href="#mb7b4cd5f25" y="232.05226"/>
      </g>
     </g>
    </g>
    <g id="ytick_15">
     <g id="line2d_53">
      <g>
       <use style="stroke:#000000;stroke-width:0.6;" x="90" xlink:href="#mb7b4cd5f25" y="219.707622"/>
      </g>
     </g>
    </g>
    <g id="ytick_16">
     <g id="line2d_54">
      <g>
       <use style="stroke:#000000;stroke-width:0.6;" x="90" xlink:href="#mb7b4cd5f25" y="210.132378"/>
      </g>
     </g>
    </g>
    <g id="ytick_17">
     <g id="line2d_55">
      <g>
       <use style="stroke:#000000;stroke-width:0.6;" x="90" xlink:href="#mb7b4cd5f25" y="202.308833"/>
      </g>
     </g>
    </g>
    <g id="ytick_18">
     <g id="line2d_56">
      <g>
       <use style="stroke:#000000;stroke-width:0.6;" x="90" xlink:href="#mb7b4cd5f25" y="195.69412"/>
      </g>
     </g>
    </g>
    <g id="ytick_19">
     <g id="line2d_57">
      <g>
       <use style="stroke:#000000;stroke-width:0.6;" x="90" xlink:href="#mb7b4cd5f25" y="189.964196"/>
      </g>
     </g>
    </g>
    <g id="ytick_20">
     <g id="line2d_58">
      <g>
       <use style="stroke:#000000;stroke-width:0.6;" x="90" xlink:href="#mb7b4cd5f25" y="184.910044"/>
      </g>
     </g>
    </g>
    <g id="ytick_21">
     <g id="line2d_59">
      <g>
       <use style="stroke:#000000;stroke-width:0.6;" x="90" xlink:href="#mb7b4cd5f25" y="150.645524"/>
      </g>
     </g>
    </g>
    <g id="ytick_22">
     <g id="line2d_60">
      <g>
       <use style="stroke:#000000;stroke-width:0.6;" x="90" xlink:href="#mb7b4cd5f25" y="133.246735"/>
      </g>
     </g>
    </g>
    <g id="ytick_23">
     <g id="line2d_61">
      <g>
       <use style="stroke:#000000;stroke-width:0.6;" x="90" xlink:href="#mb7b4cd5f25" y="120.902098"/>
      </g>
     </g>
    </g>
    <g id="ytick_24">
     <g id="line2d_62">
      <g>
       <use style="stroke:#000000;stroke-width:0.6;" x="90" xlink:href="#mb7b4cd5f25" y="111.326853"/>
      </g>
     </g>
    </g>
    <g id="ytick_25">
     <g id="line2d_63">
      <g>
       <use style="stroke:#000000;stroke-width:0.6;" x="90" xlink:href="#mb7b4cd5f25" y="103.503309"/>
      </g>
     </g>
    </g>
    <g id="ytick_26">
     <g id="line2d_64">
      <g>
       <use style="stroke:#000000;stroke-width:0.6;" x="90" xlink:href="#mb7b4cd5f25" y="96.888596"/>
      </g>
     </g>
    </g>
    <g id="ytick_27">
     <g id="line2d_65">
      <g>
       <use style="stroke:#000000;stroke-width:0.6;" x="90" xlink:href="#mb7b4cd5f25" y="91.158671"/>
      </g>
     </g>
    </g>
    <g id="ytick_28">
     <g id="line2d_66">
      <g>
       <use style="stroke:#000000;stroke-width:0.6;" x="90" xlink:href="#mb7b4cd5f25" y="86.104519"/>
      </g>
     </g>
    </g>
    <g id="ytick_29">
     <g id="line2d_67">
      <g>
       <use style="stroke:#000000;stroke-width:0.6;" x="90" xlink:href="#mb7b4cd5f25" y="51.84"/>
      </g>
     </g>
    </g>
    <g id="text_10">
     <!-- Average Pellet Count -->
     <g transform="translate(53.420312 267.204375)rotate(-90)scale(0.1 -0.1)">
      <defs>
       <path d="M 34.1875 63.1875 
L 20.796875 26.90625 
L 47.609375 26.90625 
z
M 28.609375 72.90625 
L 39.796875 72.90625 
L 67.578125 0 
L 57.328125 0 
L 50.6875 18.703125 
L 17.828125 18.703125 
L 11.1875 0 
L 0.78125 0 
z
" id="DejaVuSans-65"/>
       <path d="M 2.984375 54.6875 
L 12.5 54.6875 
L 29.59375 8.796875 
L 46.6875 54.6875 
L 56.203125 54.6875 
L 35.6875 0 
L 23.484375 0 
z
" id="DejaVuSans-118"/>
       <path d="M 45.40625 27.984375 
Q 45.40625 37.75 41.375 43.109375 
Q 37.359375 48.484375 30.078125 48.484375 
Q 22.859375 48.484375 18.828125 43.109375 
Q 14.796875 37.75 14.796875 27.984375 
Q 14.796875 18.265625 18.828125 12.890625 
Q 22.859375 7.515625 30.078125 7.515625 
Q 37.359375 7.515625 41.375 12.890625 
Q 45.40625 18.265625 45.40625 27.984375 
z
M 54.390625 6.78125 
Q 54.390625 -7.171875 48.1875 -13.984375 
Q 42 -20.796875 29.203125 -20.796875 
Q 24.46875 -20.796875 20.265625 -20.09375 
Q 16.0625 -19.390625 12.109375 -17.921875 
L 12.109375 -9.1875 
Q 16.0625 -11.328125 19.921875 -12.34375 
Q 23.78125 -13.375 27.78125 -13.375 
Q 36.625 -13.375 41.015625 -8.765625 
Q 45.40625 -4.15625 45.40625 5.171875 
L 45.40625 9.625 
Q 42.625 4.78125 38.28125 2.390625 
Q 33.9375 0 27.875 0 
Q 17.828125 0 11.671875 7.65625 
Q 5.515625 15.328125 5.515625 27.984375 
Q 5.515625 40.671875 11.671875 48.328125 
Q 17.828125 56 27.875 56 
Q 33.9375 56 38.28125 53.609375 
Q 42.625 51.21875 45.40625 46.390625 
L 45.40625 54.6875 
L 54.390625 54.6875 
z
" id="DejaVuSans-103"/>
       <path d="M 9.421875 75.984375 
L 18.40625 75.984375 
L 18.40625 0 
L 9.421875 0 
z
" id="DejaVuSans-108"/>
       <path d="M 18.3125 70.21875 
L 18.3125 54.6875 
L 36.8125 54.6875 
L 36.8125 47.703125 
L 18.3125 47.703125 
L 18.3125 18.015625 
Q 18.3125 11.328125 20.140625 9.421875 
Q 21.96875 7.515625 27.59375 7.515625 
L 36.8125 7.515625 
L 36.8125 0 
L 27.59375 0 
Q 17.1875 0 13.234375 3.875 
Q 9.28125 7.765625 9.28125 18.015625 
L 9.28125 47.703125 
L 2.6875 47.703125 
L 2.6875 54.6875 
L 9.28125 54.6875 
L 9.28125 70.21875 
z
" id="DejaVuSans-116"/>
       <path d="M 64.40625 67.28125 
L 64.40625 56.890625 
Q 59.421875 61.53125 53.78125 63.8125 
Q 48.140625 66.109375 41.796875 66.109375 
Q 29.296875 66.109375 22.65625 58.46875 
Q 16.015625 50.828125 16.015625 36.375 
Q 16.015625 21.96875 22.65625 14.328125 
Q 29.296875 6.6875 41.796875 6.6875 
Q 48.140625 6.6875 53.78125 8.984375 
Q 59.421875 11.28125 64.40625 15.921875 
L 64.40625 5.609375 
Q 59.234375 2.09375 53.4375 0.328125 
Q 47.65625 -1.421875 41.21875 -1.421875 
Q 24.65625 -1.421875 15.125 8.703125 
Q 5.609375 18.84375 5.609375 36.375 
Q 5.609375 53.953125 15.125 64.078125 
Q 24.65625 74.21875 41.21875 74.21875 
Q 47.75 74.21875 53.53125 72.484375 
Q 59.328125 70.75 64.40625 67.28125 
z
" id="DejaVuSans-67"/>
       <path d="M 30.609375 48.390625 
Q 23.390625 48.390625 19.1875 42.75 
Q 14.984375 37.109375 14.984375 27.296875 
Q 14.984375 17.484375 19.15625 11.84375 
Q 23.34375 6.203125 30.609375 6.203125 
Q 37.796875 6.203125 41.984375 11.859375 
Q 46.1875 17.53125 46.1875 27.296875 
Q 46.1875 37.015625 41.984375 42.703125 
Q 37.796875 48.390625 30.609375 48.390625 
z
M 30.609375 56 
Q 42.328125 56 49.015625 48.375 
Q 55.71875 40.765625 55.71875 27.296875 
Q 55.71875 13.875 49.015625 6.21875 
Q 42.328125 -1.421875 30.609375 -1.421875 
Q 18.84375 -1.421875 12.171875 6.21875 
Q 5.515625 13.875 5.515625 27.296875 
Q 5.515625 40.765625 12.171875 48.375 
Q 18.84375 56 30.609375 56 
z
" id="DejaVuSans-111"/>
       <path d="M 8.5 21.578125 
L 8.5 54.6875 
L 17.484375 54.6875 
L 17.484375 21.921875 
Q 17.484375 14.15625 20.5 10.265625 
Q 23.53125 6.390625 29.59375 6.390625 
Q 36.859375 6.390625 41.078125 11.03125 
Q 45.3125 15.671875 45.3125 23.6875 
L 45.3125 54.6875 
L 54.296875 54.6875 
L 54.296875 0 
L 45.3125 0 
L 45.3125 8.40625 
Q 42.046875 3.421875 37.71875 1 
Q 33.40625 -1.421875 27.6875 -1.421875 
Q 18.265625 -1.421875 13.375 4.4375 
Q 8.5 10.296875 8.5 21.578125 
z
M 31.109375 56 
z
" id="DejaVuSans-117"/>
       <path d="M 54.890625 33.015625 
L 54.890625 0 
L 45.90625 0 
L 45.90625 32.71875 
Q 45.90625 40.484375 42.875 44.328125 
Q 39.84375 48.1875 33.796875 48.1875 
Q 26.515625 48.1875 22.3125 43.546875 
Q 18.109375 38.921875 18.109375 30.90625 
L 18.109375 0 
L 9.078125 0 
L 9.078125 54.6875 
L 18.109375 54.6875 
L 18.109375 46.1875 
Q 21.34375 51.125 25.703125 53.5625 
Q 30.078125 56 35.796875 56 
Q 45.21875 56 50.046875 50.171875 
Q 54.890625 44.34375 54.890625 33.015625 
z
" id="DejaVuSans-110"/>
      </defs>
      <use xlink:href="#DejaVuSans-65"/>
      <use x="62.533203" xlink:href="#DejaVuSans-118"/>
      <use x="121.712891" xlink:href="#DejaVuSans-101"/>
      <use x="183.236328" xlink:href="#DejaVuSans-114"/>
      <use x="224.349609" xlink:href="#DejaVuSans-97"/>
      <use x="285.628906" xlink:href="#DejaVuSans-103"/>
      <use x="349.105469" xlink:href="#DejaVuSans-101"/>
      <use x="410.628906" xlink:href="#DejaVuSans-32"/>
      <use x="442.416016" xlink:href="#DejaVuSans-80"/>
      <use x="499.09375" xlink:href="#DejaVuSans-101"/>
      <use x="560.617188" xlink:href="#DejaVuSans-108"/>
      <use x="588.400391" xlink:href="#DejaVuSans-108"/>
      <use x="616.183594" xlink:href="#DejaVuSans-101"/>
      <use x="677.707031" xlink:href="#DejaVuSans-116"/>
      <use x="716.916016" xlink:href="#DejaVuSans-32"/>
      <use x="748.703125" xlink:href="#DejaVuSans-67"/>
      <use x="818.527344" xlink:href="#DejaVuSans-111"/>
      <use x="879.708984" xlink:href="#DejaVuSans-117"/>
      <use x="943.087891" xlink:href="#DejaVuSans-110"/>
      <use x="1006.466797" xlink:href="#DejaVuSans-116"/>
     </g>
    </g>
   </g>
   <g id="LineCollection_1">
    <path clip-path="url(#p8cf2f5964e)" d="M 111.322341 92.194266 
L 111.322341 85.996147 
" style="fill:none;stroke:#000000;stroke-width:1.5;"/>
    <path clip-path="url(#p8cf2f5964e)" d="M 165.174365 93.872766 
L 165.174365 87.528055 
" style="fill:none;stroke:#000000;stroke-width:1.5;"/>
    <path clip-path="url(#p8cf2f5964e)" d="M 196.67578 127.947095 
L 196.67578 121.185852 
" style="fill:none;stroke:#000000;stroke-width:1.5;"/>
    <path clip-path="url(#p8cf2f5964e)" d="M 219.02639 132.84465 
L 219.02639 125.569371 
" style="fill:none;stroke:#000000;stroke-width:1.5;"/>
    <path clip-path="url(#p8cf2f5964e)" d="M 236.362869 141.031976 
L 236.362869 133.565925 
" style="fill:none;stroke:#000000;stroke-width:1.5;"/>
    <path clip-path="url(#p8cf2f5964e)" d="M 250.527805 150.926592 
L 250.527805 143.451329 
" style="fill:none;stroke:#000000;stroke-width:1.5;"/>
    <path clip-path="url(#p8cf2f5964e)" d="M 262.504087 159.704554 
L 262.504087 153.013197 
" style="fill:none;stroke:#000000;stroke-width:1.5;"/>
    <path clip-path="url(#p8cf2f5964e)" d="M 282.02922 167.613251 
L 282.02922 160.511262 
" style="fill:none;stroke:#000000;stroke-width:1.5;"/>
    <path clip-path="url(#p8cf2f5964e)" d="M 290.214894 176.503985 
L 290.214894 169.221951 
" style="fill:none;stroke:#000000;stroke-width:1.5;"/>
    <path clip-path="url(#p8cf2f5964e)" d="M 304.379829 185.822368 
L 304.379829 178.094208 
" style="fill:none;stroke:#000000;stroke-width:1.5;"/>
    <path clip-path="url(#p8cf2f5964e)" d="M 310.598511 191.580571 
L 310.598511 183.338411 
" style="fill:none;stroke:#000000;stroke-width:1.5;"/>
    <path clip-path="url(#p8cf2f5964e)" d="M 321.716309 198.556363 
L 321.716309 189.901567 
" style="fill:none;stroke:#000000;stroke-width:1.5;"/>
    <path clip-path="url(#p8cf2f5964e)" d="M 331.44049 206.529922 
L 331.44049 196.422925 
" style="fill:none;stroke:#000000;stroke-width:1.5;"/>
    <path clip-path="url(#p8cf2f5964e)" d="M 344.066918 214.061948 
L 344.066918 202.902672 
" style="fill:none;stroke:#000000;stroke-width:1.5;"/>
    <path clip-path="url(#p8cf2f5964e)" d="M 351.471761 219.842585 
L 351.471761 209.00954 
" style="fill:none;stroke:#000000;stroke-width:1.5;"/>
    <path clip-path="url(#p8cf2f5964e)" d="M 361.403398 227.062985 
L 361.403398 214.939551 
" style="fill:none;stroke:#000000;stroke-width:1.5;"/>
    <path clip-path="url(#p8cf2f5964e)" d="M 370.208136 233.229288 
L 370.208136 220.126204 
" style="fill:none;stroke:#000000;stroke-width:1.5;"/>
    <path clip-path="url(#p8cf2f5964e)" d="M 380.582463 237.61236 
L 380.582463 225.137115 
" style="fill:none;stroke:#000000;stroke-width:1.5;"/>
    <path clip-path="url(#p8cf2f5964e)" d="M 389.733269 244.472108 
L 389.733269 230.452696 
" style="fill:none;stroke:#000000;stroke-width:1.5;"/>
    <path clip-path="url(#p8cf2f5964e)" d="M 397.918943 250.42122 
L 397.918943 235.557044 
" style="fill:none;stroke:#000000;stroke-width:1.5;"/>
    <path clip-path="url(#p8cf2f5964e)" d="M 407.069748 259.528446 
L 407.069748 241.295971 
" style="fill:none;stroke:#000000;stroke-width:1.5;"/>
    <path clip-path="url(#p8cf2f5964e)" d="M 415.255422 266.908494 
L 415.255422 250.570739 
" style="fill:none;stroke:#000000;stroke-width:1.5;"/>
    <path clip-path="url(#p8cf2f5964e)" d="M 424.06016 281.355727 
L 424.06016 260.97066 
" style="fill:none;stroke:#000000;stroke-width:1.5;"/>
    <path clip-path="url(#p8cf2f5964e)" d="M 431.967866 289.705557 
L 431.967866 268.026838 
" style="fill:none;stroke:#000000;stroke-width:1.5;"/>
    <path clip-path="url(#p8cf2f5964e)" d="M 440.278749 293.824131 
L 440.278749 273.992083 
" style="fill:none;stroke:#000000;stroke-width:1.5;"/>
    <path clip-path="url(#p8cf2f5964e)" d="M 448.801483 298.344965 
L 448.801483 277.511488 
" style="fill:none;stroke:#000000;stroke-width:1.5;"/>
    <path clip-path="url(#p8cf2f5964e)" d="M 457.389708 318.410897 
L 457.389708 284.726452 
" style="fill:none;stroke:#000000;stroke-width:1.5;"/>
    <path clip-path="url(#p8cf2f5964e)" d="M 465.122366 323.374426 
L 465.122366 282.640053 
" style="fill:none;stroke:#000000;stroke-width:1.5;"/>
    <path clip-path="url(#p8cf2f5964e)" d="M 473.634478 337.181773 
L 473.634478 285.611088 
" style="fill:none;stroke:#000000;stroke-width:1.5;"/>
    <path clip-path="url(#p8cf2f5964e)" d="M 481.966603 333.818316 
L 481.966603 295.74352 
" style="fill:none;stroke:#000000;stroke-width:1.5;"/>
    <path clip-path="url(#p8cf2f5964e)" d="M 490.086408 346.355483 
L 490.086408 296.319078 
" style="fill:none;stroke:#000000;stroke-width:1.5;"/>
    <path clip-path="url(#p8cf2f5964e)" d="M 497.974981 357.831818 
L 497.974981 304.07489 
" style="fill:none;stroke:#000000;stroke-width:1.5;"/>
    <path clip-path="url(#p8cf2f5964e)" d="M 506.107056 356.633804 
L 506.107056 319.001877 
" style="fill:none;stroke:#000000;stroke-width:1.5;"/>
    <path clip-path="url(#p8cf2f5964e)" d="M 513.90572 356.633804 
L 513.90572 319.001877 
" style="fill:none;stroke:#000000;stroke-width:1.5;"/>
    <path clip-path="url(#p8cf2f5964e)" d="M 521.785262 385.211757 
L 521.785262 328.700179 
" style="fill:none;stroke:#000000;stroke-width:1.5;"/>
    <path clip-path="url(#p8cf2f5964e)" d="M 530.010364 412.715107 
L 530.010364 334.518219 
" style="fill:none;stroke:#000000;stroke-width:1.5;"/>
    <path clip-path="url(#p8cf2f5964e)" d="M 537.769158 387.575245 
L 537.769158 387.575245 
" style="fill:none;stroke:#000000;stroke-width:1.5;"/>
   </g>
   <g id="line2d_68">
    <path clip-path="url(#p8cf2f5964e)" d="M 111.322341 106.463841 
L 165.174365 106.463841 
L 196.67578 136.207267 
L 219.02639 136.207267 
L 236.362869 137.767828 
L 250.527805 137.767828 
L 262.504087 142.82198 
L 282.02922 150.645524 
L 290.214894 152.846555 
L 304.379829 162.990162 
L 310.598511 162.990162 
L 321.716309 162.990162 
L 331.44049 165.950694 
L 344.066918 172.565407 
L 351.471761 176.299125 
L 361.403398 176.299125 
L 370.208136 176.299125 
L 380.582463 184.910044 
L 389.733269 195.69412 
L 397.918943 189.964196 
L 407.069748 189.964196 
L 415.255422 219.707622 
L 424.06016 219.707622 
L 431.967866 232.05226 
L 440.278749 249.451049 
L 448.801483 249.451049 
L 457.389708 279.194476 
L 465.122366 279.194476 
" style="fill:none;stroke:#ff0000;stroke-linecap:square;stroke-opacity:0.3;"/>
   </g>
   <g id="line2d_69">
    <path clip-path="url(#p8cf2f5964e)" d="M 111.322341 92.245076 
L 165.174365 95.679764 
L 196.67578 137.767828 
L 219.02639 157.619325 
L 236.362869 160.220769 
L 250.527805 169.130718 
L 262.504087 172.565407 
L 282.02922 180.388951 
L 290.214894 180.388951 
L 304.379829 195.69412 
L 310.598511 202.308833 
L 321.716309 202.308833 
L 331.44049 219.707622 
L 344.066918 219.707622 
L 351.471761 219.707622 
L 361.403398 249.451049 
L 370.208136 249.451049 
L 380.582463 249.451049 
L 389.733269 279.194476 
L 397.918943 279.194476 
L 407.069748 279.194476 
L 415.255422 279.194476 
" style="fill:none;stroke:#ff0000;stroke-linecap:square;stroke-opacity:0.3;"/>
   </g>
   <g id="line2d_70">
    <path clip-path="url(#p8cf2f5964e)" d="M 111.322341 108.024402 
L 165.174365 108.826494 
L 196.67578 139.387292 
L 219.02639 139.387292 
L 236.362869 139.387292 
L 250.527805 142.82198 
L 262.504087 148.551905 
L 282.02922 148.551905 
L 290.214894 155.166617 
L 304.379829 162.990162 
L 310.598511 165.950694 
L 321.716309 172.565407 
L 331.44049 172.565407 
L 344.066918 176.299125 
L 351.471761 180.388951 
L 361.403398 189.964196 
L 370.208136 195.69412 
L 380.582463 210.132378 
L 389.733269 210.132378 
L 397.918943 210.132378 
L 407.069748 210.132378 
L 415.255422 232.05226 
L 424.06016 279.194476 
L 431.967866 279.194476 
L 440.278749 279.194476 
L 448.801483 279.194476 
" style="fill:none;stroke:#ff0000;stroke-linecap:square;stroke-opacity:0.3;"/>
   </g>
   <g id="line2d_71">
    <path clip-path="url(#p8cf2f5964e)" d="M 111.322341 88.055341 
L 165.174365 92.79877 
L 196.67578 134.701474 
L 219.02639 150.645524 
L 236.362869 165.950694 
L 250.527805 176.299125 
L 262.504087 184.910044 
L 282.02922 184.910044 
L 290.214894 195.69412 
L 304.379829 219.707622 
L 310.598511 232.05226 
L 321.716309 249.451049 
L 331.44049 249.451049 
L 344.066918 249.451049 
L 351.471761 249.451049 
L 361.403398 279.194476 
L 370.208136 279.194476 
L 380.582463 279.194476 
L 389.733269 279.194476 
L 397.918943 279.194476 
" style="fill:none;stroke:#ff0000;stroke-linecap:square;stroke-opacity:0.3;"/>
   </g>
   <g id="line2d_72">
    <path clip-path="url(#p8cf2f5964e)" d="M 111.322341 93.359702 
L 165.174365 93.359702 
L 196.67578 127.875898 
L 219.02639 131.839701 
L 236.362869 146.555699 
L 250.527805 152.846555 
L 262.504087 157.619325 
L 282.02922 165.950694 
L 290.214894 180.388951 
L 304.379829 184.910044 
L 310.598511 184.910044 
L 321.716309 189.964196 
L 331.44049 195.69412 
L 344.066918 202.308833 
L 351.471761 202.308833 
L 361.403398 202.308833 
L 370.208136 210.132378 
L 380.582463 210.132378 
L 389.733269 210.132378 
L 397.918943 210.132378 
L 407.069748 210.132378 
L 415.255422 210.132378 
L 424.06016 232.05226 
L 431.967866 249.451049 
L 440.278749 249.451049 
L 448.801483 249.451049 
L 457.389708 249.451049 
L 465.122366 279.194476 
" style="fill:none;stroke:#ff0000;stroke-linecap:square;stroke-opacity:0.3;"/>
   </g>
   <g id="line2d_73">
    <path clip-path="url(#p8cf2f5964e)" d="M 111.322341 90.099094 
L 165.174365 92.245076 
L 196.67578 133.246735 
L 219.02639 150.645524 
L 236.362869 160.220769 
L 250.527805 169.130718 
L 262.504087 169.130718 
L 282.02922 184.910044 
L 290.214894 189.964196 
L 304.379829 189.964196 
L 310.598511 195.69412 
L 321.716309 202.308833 
L 331.44049 219.707622 
L 344.066918 219.707622 
L 351.471761 232.05226 
L 361.403398 232.05226 
L 370.208136 249.451049 
L 380.582463 249.451049 
L 389.733269 279.194476 
" style="fill:none;stroke:#ff0000;stroke-linecap:square;stroke-opacity:0.3;"/>
   </g>
   <g id="line2d_74">
    <path clip-path="url(#p8cf2f5964e)" d="M 111.322341 130.477343 
L 165.174365 148.551905 
L 196.67578 210.132378 
L 219.02639 210.132378 
L 236.362869 219.707622 
L 250.527805 232.05226 
L 262.504087 232.05226 
L 282.02922 279.194476 
L 290.214894 279.194476 
L 304.379829 279.194476 
" style="fill:none;stroke:#ff0000;stroke-linecap:square;stroke-opacity:0.3;"/>
   </g>
   <g id="line2d_75">
    <path clip-path="url(#p8cf2f5964e)" d="M 111.322341 77.493601 
L 165.174365 77.493601 
L 196.67578 108.024402 
L 219.02639 111.326853 
L 236.362869 117.798768 
L 250.527805 126.632023 
L 262.504087 141.07028 
L 282.02922 152.846555 
L 290.214894 172.565407 
L 304.379829 180.388951 
L 310.598511 180.388951 
L 321.716309 184.910044 
L 331.44049 202.308833 
L 344.066918 219.707622 
L 351.471761 232.05226 
L 361.403398 249.451049 
L 370.208136 249.451049 
L 380.582463 279.194476 
L 389.733269 279.194476 
L 397.918943 279.194476 
" style="fill:none;stroke:#ff0000;stroke-linecap:square;stroke-opacity:0.3;"/>
   </g>
   <g id="line2d_76">
    <path clip-path="url(#p8cf2f5964e)" d="M 111.322341 78.280975 
L 165.174365 79.083067 
L 196.67578 108.826494 
L 219.02639 109.643865 
L 236.362869 118.808478 
L 250.527805 130.477343 
L 262.504087 137.767828 
L 282.02922 152.846555 
L 290.214894 162.990162 
L 304.379829 176.299125 
L 310.598511 184.910044 
L 321.716309 184.910044 
L 331.44049 202.308833 
L 344.066918 219.707622 
L 351.471761 232.05226 
L 361.403398 249.451049 
L 370.208136 279.194476 
" style="fill:none;stroke:#ff0000;stroke-linecap:square;stroke-opacity:0.3;"/>
   </g>
   <g id="line2d_77">
    <path clip-path="url(#p8cf2f5964e)" d="M 111.322341 83.335127 
L 165.174365 83.335127 
L 196.67578 113.078553 
L 219.02639 113.078553 
L 236.362869 118.808478 
L 250.527805 123.103129 
L 262.504087 134.701474 
L 282.02922 137.767828 
L 290.214894 146.555699 
L 304.379829 157.619325 
L 310.598511 162.990162 
L 321.716309 172.565407 
L 331.44049 176.299125 
L 344.066918 184.910044 
L 351.471761 189.964196 
L 361.403398 195.69412 
L 370.208136 210.132378 
L 380.582463 210.132378 
L 389.733269 210.132378 
L 397.918943 219.707622 
L 407.069748 219.707622 
L 415.255422 249.451049 
L 424.06016 249.451049 
L 431.967866 249.451049 
L 440.278749 249.451049 
L 448.801483 249.451049 
L 457.389708 279.194476 
L 465.122366 279.194476 
L 473.634478 279.194476 
" style="fill:none;stroke:#ff0000;stroke-linecap:square;stroke-opacity:0.3;"/>
   </g>
   <g id="line2d_78">
    <path clip-path="url(#p8cf2f5964e)" d="M 111.322341 81.583427 
L 165.174365 81.583427 
L 196.67578 111.326853 
L 219.02639 112.193765 
L 236.362869 115.847946 
L 250.527805 130.477343 
L 262.504087 141.07028 
L 282.02922 146.555699 
L 290.214894 157.619325 
L 304.379829 160.220769 
L 310.598511 162.990162 
L 321.716309 172.565407 
L 331.44049 180.388951 
L 344.066918 180.388951 
L 351.471761 202.308833 
L 361.403398 210.132378 
L 370.208136 210.132378 
L 380.582463 210.132378 
L 389.733269 232.05226 
L 397.918943 232.05226 
L 407.069748 249.451049 
L 415.255422 249.451049 
L 424.06016 279.194476 
" style="fill:none;stroke:#ff0000;stroke-linecap:square;stroke-opacity:0.3;"/>
   </g>
   <g id="line2d_79">
    <path clip-path="url(#p8cf2f5964e)" d="M 111.322341 79.083067 
L 165.174365 79.489807 
L 196.67578 109.643865 
L 219.02639 110.477109 
L 236.362869 112.193765 
L 250.527805 121.988503 
L 262.504087 139.387292 
L 282.02922 150.645524 
L 290.214894 165.950694 
L 304.379829 176.299125 
L 310.598511 180.388951 
L 321.716309 202.308833 
L 331.44049 219.707622 
L 344.066918 232.05226 
L 351.471761 232.05226 
L 361.403398 249.451049 
L 370.208136 249.451049 
L 380.582463 249.451049 
L 389.733269 279.194476 
L 397.918943 279.194476 
L 407.069748 279.194476 
" style="fill:none;stroke:#ff0000;stroke-linecap:square;stroke-opacity:0.3;"/>
   </g>
   <g id="line2d_80">
    <path clip-path="url(#p8cf2f5964e)" d="M 111.322341 79.083067 
L 165.174365 80.315038 
L 196.67578 116.812272 
L 219.02639 125.423191 
L 236.362869 146.555699 
L 250.527805 169.130718 
L 262.504087 169.130718 
L 282.02922 184.910044 
L 290.214894 195.69412 
L 304.379829 210.132378 
L 310.598511 219.707622 
L 321.716309 219.707622 
L 331.44049 219.707622 
L 344.066918 232.05226 
L 351.471761 249.451049 
L 361.403398 249.451049 
L 370.208136 249.451049 
L 380.582463 249.451049 
L 389.733269 249.451049 
L 397.918943 249.451049 
L 407.069748 279.194476 
L 415.255422 279.194476 
L 424.06016 279.194476 
L 431.967866 279.194476 
L 440.278749 279.194476 
L 448.801483 279.194476 
L 457.389708 279.194476 
L 465.122366 279.194476 
L 473.634478 279.194476 
" style="fill:none;stroke:#ff0000;stroke-linecap:square;stroke-opacity:0.3;"/>
   </g>
   <g id="line2d_81">
    <path clip-path="url(#p8cf2f5964e)" d="M 111.322341 73.050598 
L 165.174365 76.720414 
L 196.67578 116.812272 
L 219.02639 123.103129 
L 236.362869 137.767828 
L 250.527805 152.846555 
L 262.504087 169.130718 
L 282.02922 180.388951 
L 290.214894 195.69412 
L 304.379829 219.707622 
L 310.598511 232.05226 
L 321.716309 232.05226 
L 331.44049 232.05226 
L 344.066918 249.451049 
L 351.471761 249.451049 
L 361.403398 249.451049 
L 370.208136 249.451049 
" style="fill:none;stroke:#ff0000;stroke-linecap:square;stroke-opacity:0.3;"/>
   </g>
   <g id="line2d_82">
    <path clip-path="url(#p8cf2f5964e)" d="M 111.322341 76.720414 
L 165.174365 77.885482 
L 196.67578 108.024402 
L 219.02639 112.193765 
L 236.362869 123.103129 
L 250.527805 137.767828 
L 262.504087 157.619325 
L 282.02922 160.220769 
L 290.214894 169.130718 
L 304.379829 189.964196 
L 310.598511 195.69412 
L 321.716309 232.05226 
L 331.44049 279.194476 
L 344.066918 279.194476 
L 351.471761 279.194476 
L 361.403398 279.194476 
" style="fill:none;stroke:#ff0000;stroke-linecap:square;stroke-opacity:0.3;"/>
   </g>
   <g id="line2d_83">
    <path clip-path="url(#p8cf2f5964e)" d="M 111.322341 118.808478 
L 165.174365 118.808478 
L 196.67578 148.551905 
L 219.02639 148.551905 
L 236.362869 150.645524 
L 250.527805 152.846555 
L 262.504087 157.619325 
L 282.02922 162.990162 
L 290.214894 169.130718 
L 304.379829 172.565407 
L 310.598511 176.299125 
L 321.716309 184.910044 
L 331.44049 184.910044 
L 344.066918 184.910044 
L 351.471761 189.964196 
L 361.403398 189.964196 
L 370.208136 189.964196 
L 380.582463 195.69412 
L 389.733269 202.308833 
L 397.918943 232.05226 
L 407.069748 249.451049 
L 415.255422 249.451049 
L 424.06016 279.194476 
L 431.967866 279.194476 
L 440.278749 279.194476 
" style="fill:none;stroke:#ff0000;stroke-linecap:square;stroke-opacity:0.3;"/>
   </g>
   <g id="line2d_84">
    <path clip-path="url(#p8cf2f5964e)" d="M 111.322341 79.900439 
L 165.174365 80.733682 
L 196.67578 117.798768 
L 219.02639 125.423191 
L 236.362869 142.82198 
L 250.527805 152.846555 
L 262.504087 165.950694 
L 282.02922 176.299125 
L 290.214894 180.388951 
L 304.379829 195.69412 
L 310.598511 195.69412 
L 321.716309 210.132378 
L 331.44049 219.707622 
L 344.066918 232.05226 
L 351.471761 232.05226 
L 361.403398 232.05226 
L 370.208136 232.05226 
L 380.582463 232.05226 
L 389.733269 249.451049 
L 397.918943 279.194476 
" style="fill:none;stroke:#ff0000;stroke-linecap:square;stroke-opacity:0.3;"/>
   </g>
   <g id="line2d_85">
    <path clip-path="url(#p8cf2f5964e)" d="M 111.322341 75.214621 
L 165.174365 75.960913 
L 196.67578 108.826494 
L 219.02639 114.904816 
L 236.362869 129.156909 
L 250.527805 142.82198 
L 262.504087 152.846555 
L 282.02922 162.990162 
L 290.214894 180.388951 
L 304.379829 180.388951 
L 310.598511 180.388951 
L 321.716309 189.964196 
L 331.44049 195.69412 
L 344.066918 210.132378 
L 351.471761 210.132378 
L 361.403398 219.707622 
L 370.208136 232.05226 
L 380.582463 232.05226 
L 389.733269 249.451049 
L 397.918943 249.451049 
L 407.069748 279.194476 
L 415.255422 279.194476 
L 424.06016 279.194476 
" style="fill:none;stroke:#ff0000;stroke-linecap:square;stroke-opacity:0.3;"/>
   </g>
   <g id="line2d_86">
    <path clip-path="url(#p8cf2f5964e)" d="M 111.322341 79.900439 
L 165.174365 80.733682 
L 196.67578 113.98197 
L 219.02639 119.842521 
L 236.362869 131.839701 
L 250.527805 152.846555 
L 262.504087 160.220769 
L 282.02922 176.299125 
L 290.214894 180.388951 
L 304.379829 184.910044 
L 310.598511 202.308833 
L 321.716309 202.308833 
L 331.44049 232.05226 
L 344.066918 279.194476 
L 351.471761 279.194476 
L 361.403398 279.194476 
" style="fill:none;stroke:#ff0000;stroke-linecap:square;stroke-opacity:0.3;"/>
   </g>
   <g id="line2d_87">
    <path clip-path="url(#p8cf2f5964e)" d="M 111.322341 180.388951 
L 165.174365 180.388951 
L 196.67578 210.132378 
L 219.02639 210.132378 
L 236.362869 210.132378 
L 250.527805 210.132378 
L 262.504087 210.132378 
L 282.02922 210.132378 
L 290.214894 210.132378 
L 304.379829 210.132378 
L 310.598511 210.132378 
L 321.716309 210.132378 
L 331.44049 210.132378 
L 344.066918 210.132378 
L 351.471761 210.132378 
L 361.403398 210.132378 
L 370.208136 210.132378 
L 380.582463 210.132378 
L 389.733269 210.132378 
L 397.918943 219.707622 
L 407.069748 219.707622 
L 415.255422 219.707622 
L 424.06016 219.707622 
L 431.967866 219.707622 
L 440.278749 219.707622 
L 448.801483 219.707622 
L 457.389708 219.707622 
L 465.122366 219.707622 
L 473.634478 219.707622 
L 481.966603 210.132378 
L 490.086408 210.132378 
L 497.974981 219.707622 
L 506.107056 232.05226 
L 513.90572 232.05226 
L 521.785262 279.194476 
L 530.010364 279.194476 
L 537.769158 279.194476 
" style="fill:none;stroke:#ff0000;stroke-linecap:square;stroke-opacity:0.3;"/>
   </g>
   <g id="line2d_88">
    <path clip-path="url(#p8cf2f5964e)" d="M 111.322341 80.315038 
L 165.174365 82.890452 
L 196.67578 118.808478 
L 219.02639 127.875898 
L 236.362869 134.701474 
L 250.527805 148.551905 
L 262.504087 165.950694 
L 282.02922 169.130718 
L 290.214894 176.299125 
L 304.379829 184.910044 
L 310.598511 202.308833 
L 321.716309 210.132378 
L 331.44049 210.132378 
L 344.066918 210.132378 
L 351.471761 219.707622 
L 361.403398 219.707622 
L 370.208136 232.05226 
L 380.582463 232.05226 
L 389.733269 232.05226 
L 397.918943 232.05226 
L 407.069748 249.451049 
L 415.255422 249.451049 
L 424.06016 279.194476 
L 431.967866 279.194476 
L 440.278749 279.194476 
" style="fill:none;stroke:#ff0000;stroke-linecap:square;stroke-opacity:0.3;"/>
   </g>
   <g id="line2d_89">
    <path clip-path="url(#p8cf2f5964e)" d="M 111.322341 84.238543 
L 165.174365 84.238543 
L 196.67578 115.847946 
L 219.02639 116.812272 
L 236.362869 123.103129 
L 250.527805 130.477343 
L 262.504087 137.767828 
L 282.02922 144.648243 
L 290.214894 152.846555 
L 304.379829 157.619325 
L 310.598511 160.220769 
L 321.716309 169.130718 
L 331.44049 172.565407 
L 344.066918 180.388951 
L 351.471761 189.964196 
L 361.403398 195.69412 
L 370.208136 195.69412 
L 380.582463 195.69412 
L 389.733269 195.69412 
L 397.918943 210.132378 
L 407.069748 210.132378 
L 415.255422 210.132378 
L 424.06016 219.707622 
L 431.967866 232.05226 
L 440.278749 232.05226 
L 448.801483 232.05226 
L 457.389708 279.194476 
L 465.122366 279.194476 
L 473.634478 279.194476 
" style="fill:none;stroke:#ff0000;stroke-linecap:square;stroke-opacity:0.3;"/>
   </g>
   <g id="line2d_90">
    <path clip-path="url(#p8cf2f5964e)" d="M 111.322341 77.493601 
L 165.174365 82.890452 
L 196.67578 120.902098 
L 219.02639 127.875898 
L 236.362869 136.207267 
L 250.527805 152.846555 
L 262.504087 160.220769 
L 282.02922 162.990162 
L 290.214894 184.910044 
L 304.379829 195.69412 
L 310.598511 219.707622 
L 321.716309 219.707622 
L 331.44049 232.05226 
L 344.066918 249.451049 
L 351.471761 249.451049 
" style="fill:none;stroke:#ff0000;stroke-linecap:square;stroke-opacity:0.3;"/>
   </g>
   <g id="line2d_91">
    <path clip-path="url(#p8cf2f5964e)" d="M 111.322341 115.847946 
L 165.174365 116.812272 
L 196.67578 146.555699 
L 219.02639 146.555699 
L 236.362869 146.555699 
L 250.527805 148.551905 
L 262.504087 150.645524 
L 282.02922 152.846555 
L 290.214894 152.846555 
L 304.379829 162.990162 
L 310.598511 169.130718 
L 321.716309 169.130718 
L 331.44049 176.299125 
L 344.066918 180.388951 
L 351.471761 189.964196 
L 361.403398 195.69412 
L 370.208136 202.308833 
L 380.582463 202.308833 
L 389.733269 202.308833 
L 397.918943 202.308833 
L 407.069748 210.132378 
L 415.255422 210.132378 
L 424.06016 219.707622 
L 431.967866 219.707622 
L 440.278749 232.05226 
L 448.801483 232.05226 
L 457.389708 232.05226 
L 465.122366 219.707622 
L 473.634478 219.707622 
L 481.966603 219.707622 
L 490.086408 232.05226 
L 497.974981 232.05226 
L 506.107056 249.451049 
L 513.90572 249.451049 
L 521.785262 249.451049 
L 530.010364 249.451049 
L 537.769158 279.194476 
" style="fill:none;stroke:#ff0000;stroke-linecap:square;stroke-opacity:0.3;"/>
   </g>
   <g id="line2d_92">
    <path clip-path="url(#p8cf2f5964e)" d="M 111.322341 109.643865 
L 165.174365 110.477109 
L 196.67578 141.07028 
L 219.02639 142.82198 
L 236.362869 146.555699 
L 250.527805 150.645524 
L 262.504087 157.619325 
L 282.02922 165.950694 
L 290.214894 169.130718 
L 304.379829 180.388951 
L 310.598511 189.964196 
L 321.716309 195.69412 
L 331.44049 195.69412 
L 344.066918 202.308833 
L 351.471761 202.308833 
L 361.403398 210.132378 
L 370.208136 219.707622 
L 380.582463 219.707622 
L 389.733269 219.707622 
L 397.918943 219.707622 
L 407.069748 219.707622 
L 415.255422 219.707622 
L 424.06016 219.707622 
L 431.967866 219.707622 
L 440.278749 232.05226 
L 448.801483 232.05226 
L 457.389708 232.05226 
L 465.122366 232.05226 
L 473.634478 232.05226 
L 481.966603 232.05226 
L 490.086408 232.05226 
L 497.974981 249.451049 
L 506.107056 249.451049 
L 513.90572 249.451049 
L 521.785262 249.451049 
L 530.010364 279.194476 
" style="fill:none;stroke:#ff0000;stroke-linecap:square;stroke-opacity:0.3;"/>
   </g>
   <g id="line2d_93">
    <defs>
     <path d="M 3 0 
L -3 -0 
" id="mea99ad9f50" style="stroke:#000000;"/>
    </defs>
    <g clip-path="url(#p8cf2f5964e)">
     <use style="stroke:#000000;" x="111.322341" xlink:href="#mea99ad9f50" y="92.194266"/>
     <use style="stroke:#000000;" x="165.174365" xlink:href="#mea99ad9f50" y="93.872766"/>
     <use style="stroke:#000000;" x="196.67578" xlink:href="#mea99ad9f50" y="127.947095"/>
     <use style="stroke:#000000;" x="219.02639" xlink:href="#mea99ad9f50" y="132.84465"/>
     <use style="stroke:#000000;" x="236.362869" xlink:href="#mea99ad9f50" y="141.031976"/>
     <use style="stroke:#000000;" x="250.527805" xlink:href="#mea99ad9f50" y="150.926592"/>
     <use style="stroke:#000000;" x="262.504087" xlink:href="#mea99ad9f50" y="159.704554"/>
     <use style="stroke:#000000;" x="282.02922" xlink:href="#mea99ad9f50" y="167.613251"/>
     <use style="stroke:#000000;" x="290.214894" xlink:href="#mea99ad9f50" y="176.503985"/>
     <use style="stroke:#000000;" x="304.379829" xlink:href="#mea99ad9f50" y="185.822368"/>
     <use style="stroke:#000000;" x="310.598511" xlink:href="#mea99ad9f50" y="191.580571"/>
     <use style="stroke:#000000;" x="321.716309" xlink:href="#mea99ad9f50" y="198.556363"/>
     <use style="stroke:#000000;" x="331.44049" xlink:href="#mea99ad9f50" y="206.529922"/>
     <use style="stroke:#000000;" x="344.066918" xlink:href="#mea99ad9f50" y="214.061948"/>
     <use style="stroke:#000000;" x="351.471761" xlink:href="#mea99ad9f50" y="219.842585"/>
     <use style="stroke:#000000;" x="361.403398" xlink:href="#mea99ad9f50" y="227.062985"/>
     <use style="stroke:#000000;" x="370.208136" xlink:href="#mea99ad9f50" y="233.229288"/>
     <use style="stroke:#000000;" x="380.582463" xlink:href="#mea99ad9f50" y="237.61236"/>
     <use style="stroke:#000000;" x="389.733269" xlink:href="#mea99ad9f50" y="244.472108"/>
     <use style="stroke:#000000;" x="397.918943" xlink:href="#mea99ad9f50" y="250.42122"/>
     <use style="stroke:#000000;" x="407.069748" xlink:href="#mea99ad9f50" y="259.528446"/>
     <use style="stroke:#000000;" x="415.255422" xlink:href="#mea99ad9f50" y="266.908494"/>
     <use style="stroke:#000000;" x="424.06016" xlink:href="#mea99ad9f50" y="281.355727"/>
     <use style="stroke:#000000;" x="431.967866" xlink:href="#mea99ad9f50" y="289.705557"/>
     <use style="stroke:#000000;" x="440.278749" xlink:href="#mea99ad9f50" y="293.824131"/>
     <use style="stroke:#000000;" x="448.801483" xlink:href="#mea99ad9f50" y="298.344965"/>
     <use style="stroke:#000000;" x="457.389708" xlink:href="#mea99ad9f50" y="318.410897"/>
     <use style="stroke:#000000;" x="465.122366" xlink:href="#mea99ad9f50" y="323.374426"/>
     <use style="stroke:#000000;" x="473.634478" xlink:href="#mea99ad9f50" y="337.181773"/>
     <use style="stroke:#000000;" x="481.966603" xlink:href="#mea99ad9f50" y="333.818316"/>
     <use style="stroke:#000000;" x="490.086408" xlink:href="#mea99ad9f50" y="346.355483"/>
     <use style="stroke:#000000;" x="497.974981" xlink:href="#mea99ad9f50" y="357.831818"/>
     <use style="stroke:#000000;" x="506.107056" xlink:href="#mea99ad9f50" y="356.633804"/>
     <use style="stroke:#000000;" x="513.90572" xlink:href="#mea99ad9f50" y="356.633804"/>
     <use style="stroke:#000000;" x="521.785262" xlink:href="#mea99ad9f50" y="385.211757"/>
     <use style="stroke:#000000;" x="530.010364" xlink:href="#mea99ad9f50" y="412.715107"/>
     <use style="stroke:#000000;" x="537.769158" xlink:href="#mea99ad9f50" y="387.575245"/>
    </g>
   </g>
   <g id="line2d_94">
    <g clip-path="url(#p8cf2f5964e)">
     <use style="stroke:#000000;" x="111.322341" xlink:href="#mea99ad9f50" y="85.996147"/>
     <use style="stroke:#000000;" x="165.174365" xlink:href="#mea99ad9f50" y="87.528055"/>
     <use style="stroke:#000000;" x="196.67578" xlink:href="#mea99ad9f50" y="121.185852"/>
     <use style="stroke:#000000;" x="219.02639" xlink:href="#mea99ad9f50" y="125.569371"/>
     <use style="stroke:#000000;" x="236.362869" xlink:href="#mea99ad9f50" y="133.565925"/>
     <use style="stroke:#000000;" x="250.527805" xlink:href="#mea99ad9f50" y="143.451329"/>
     <use style="stroke:#000000;" x="262.504087" xlink:href="#mea99ad9f50" y="153.013197"/>
     <use style="stroke:#000000;" x="282.02922" xlink:href="#mea99ad9f50" y="160.511262"/>
     <use style="stroke:#000000;" x="290.214894" xlink:href="#mea99ad9f50" y="169.221951"/>
     <use style="stroke:#000000;" x="304.379829" xlink:href="#mea99ad9f50" y="178.094208"/>
     <use style="stroke:#000000;" x="310.598511" xlink:href="#mea99ad9f50" y="183.338411"/>
     <use style="stroke:#000000;" x="321.716309" xlink:href="#mea99ad9f50" y="189.901567"/>
     <use style="stroke:#000000;" x="331.44049" xlink:href="#mea99ad9f50" y="196.422925"/>
     <use style="stroke:#000000;" x="344.066918" xlink:href="#mea99ad9f50" y="202.902672"/>
     <use style="stroke:#000000;" x="351.471761" xlink:href="#mea99ad9f50" y="209.00954"/>
     <use style="stroke:#000000;" x="361.403398" xlink:href="#mea99ad9f50" y="214.939551"/>
     <use style="stroke:#000000;" x="370.208136" xlink:href="#mea99ad9f50" y="220.126204"/>
     <use style="stroke:#000000;" x="380.582463" xlink:href="#mea99ad9f50" y="225.137115"/>
     <use style="stroke:#000000;" x="389.733269" xlink:href="#mea99ad9f50" y="230.452696"/>
     <use style="stroke:#000000;" x="397.918943" xlink:href="#mea99ad9f50" y="235.557044"/>
     <use style="stroke:#000000;" x="407.069748" xlink:href="#mea99ad9f50" y="241.295971"/>
     <use style="stroke:#000000;" x="415.255422" xlink:href="#mea99ad9f50" y="250.570739"/>
     <use style="stroke:#000000;" x="424.06016" xlink:href="#mea99ad9f50" y="260.97066"/>
     <use style="stroke:#000000;" x="431.967866" xlink:href="#mea99ad9f50" y="268.026838"/>
     <use style="stroke:#000000;" x="440.278749" xlink:href="#mea99ad9f50" y="273.992083"/>
     <use style="stroke:#000000;" x="448.801483" xlink:href="#mea99ad9f50" y="277.511488"/>
     <use style="stroke:#000000;" x="457.389708" xlink:href="#mea99ad9f50" y="284.726452"/>
     <use style="stroke:#000000;" x="465.122366" xlink:href="#mea99ad9f50" y="282.640053"/>
     <use style="stroke:#000000;" x="473.634478" xlink:href="#mea99ad9f50" y="285.611088"/>
     <use style="stroke:#000000;" x="481.966603" xlink:href="#mea99ad9f50" y="295.74352"/>
     <use style="stroke:#000000;" x="490.086408" xlink:href="#mea99ad9f50" y="296.319078"/>
     <use style="stroke:#000000;" x="497.974981" xlink:href="#mea99ad9f50" y="304.07489"/>
     <use style="stroke:#000000;" x="506.107056" xlink:href="#mea99ad9f50" y="319.001877"/>
     <use style="stroke:#000000;" x="513.90572" xlink:href="#mea99ad9f50" y="319.001877"/>
     <use style="stroke:#000000;" x="521.785262" xlink:href="#mea99ad9f50" y="328.700179"/>
     <use style="stroke:#000000;" x="530.010364" xlink:href="#mea99ad9f50" y="334.518219"/>
     <use style="stroke:#000000;" x="537.769158" xlink:href="#mea99ad9f50" y="387.575245"/>
    </g>
   </g>
   <g id="line2d_95">
    <path clip-path="url(#p8cf2f5964e)" d="M 111.322341 152.64477 
L 185.91693 153.133004 
L 223.261165 153.626858 
L 258.427128 154.378461 
L 282.547168 155.143464 
L 300.926281 155.922353 
L 320.159091 156.983364 
L 335.563011 158.071277 
L 348.41234 159.18749 
L 359.435073 160.333516 
L 371.322977 161.810479 
L 381.630955 163.340096 
L 390.730116 164.92626 
L 398.87445 166.573313 
L 406.245452 168.286118 
L 412.977333 170.070143 
L 419.172136 171.931569 
L 424.909262 173.877418 
L 430.251711 175.915713 
L 435.250308 178.055678 
L 439.946651 180.307991 
L 444.375218 182.685105 
L 448.564905 185.201667 
L 452.54017 187.875061 
L 456.321895 190.726143 
L 459.928054 193.780225 
L 462.697114 196.390334 
L 465.370867 199.169549 
L 467.955657 202.14131 
L 470.457213 205.334293 
L 472.88073 208.784105 
L 475.230929 212.535705 
L 477.512117 216.646997 
L 479.728231 221.194342 
L 481.88288 226.281331 
L 483.460538 230.536058 
L 485.006795 235.259561 
L 486.522878 240.568075 
L 488.009941 246.627269 
L 489.469075 253.684975 
L 490.901309 262.136494 
L 491.841671 268.864992 
L 492.770786 276.848344 
L 493.688922 286.664422 
L 494.596334 299.413475 
L 495.493271 317.632715 
L 495.937885 330.813795 
L 496.37997 349.936033 
L 496.819553 385.308638 
L 496.819764 433 
L 496.819764 433 
" style="fill:none;stroke:#000000;stroke-dasharray:7.4,3.2;stroke-dashoffset:0;stroke-width:2;"/>
   </g>
   <g id="line2d_96">
    <path clip-path="url(#p8cf2f5964e)" d="M 111.322341 88.983395 
L 157.248097 86.792337 
L 185.91693 110.177484 
L 206.811555 130.891652 
L 223.261165 129.406672 
L 236.829179 137.492431 
L 248.376263 145.522334 
L 258.427128 153.209173 
L 267.325418 158.765936 
L 275.308487 161.063708 
L 282.547168 164.308376 
L 289.168521 171.497673 
L 295.269613 177.12316 
L 300.926281 179.966297 
L 306.198897 183.173196 
L 311.136312 187.732161 
L 315.778611 190.957253 
L 320.159091 193.182176 
L 324.305716 195.667531 
L 331.988799 201.570819 
L 335.563011 203.769279 
L 342.253014 207.072085 
L 345.393699 209.027448 
L 348.41234 211.455595 
L 351.318068 213.957857 
L 354.119027 216.103831 
L 356.82251 217.876097 
L 364.41055 222.473506 
L 369.086479 225.511651 
L 371.322977 226.793098 
L 375.611628 228.773281 
L 379.675876 230.489717 
L 381.630955 231.471427 
L 385.399433 233.814032 
L 394.090974 239.832166 
L 398.87445 243.00419 
L 401.907272 245.207681 
L 404.826138 247.523617 
L 407.639303 249.962655 
L 410.354154 252.543398 
L 412.977333 255.302737 
L 415.514829 258.288621 
L 417.972062 261.516286 
L 424.909262 271.010998 
L 427.090521 273.399157 
L 429.212207 275.3497 
L 432.289902 277.750902 
L 436.212562 280.514736 
L 439.029819 282.176537 
L 440.85279 283.010717 
L 446.916042 285.319581 
L 448.564905 286.467646 
L 450.1795 288.139148 
L 451.761223 290.259065 
L 457.056642 298.017991 
L 457.784505 298.675417 
L 458.505613 299.123581 
L 459.220089 299.385806 
L 459.928054 299.48983 
L 461.32492 299.344602 
L 465.370867 298.338808 
L 466.674011 298.539034 
L 467.955657 299.079604 
L 469.216503 299.893927 
L 471.070217 301.48397 
L 477.512117 307.648883 
L 479.728231 309.319373 
L 481.88288 310.64439 
L 483.979384 311.652029 
L 489.469075 314.049742 
L 490.901309 314.987598 
L 492.307617 316.152352 
L 494.143953 318.021288 
L 495.937885 320.198885 
L 498.123574 323.253696 
L 503.935324 331.829215 
L 505.126087 333.093386 
L 505.909909 333.699697 
L 506.685902 334.083168 
L 507.454221 334.260625 
L 508.592638 334.233994 
L 510.085036 333.889503 
L 511.9111 333.471442 
L 512.986486 333.492463 
L 513.695228 333.712266 
L 514.397564 334.147547 
L 515.093607 334.800686 
L 516.126117 336.141763 
L 517.145086 337.853038 
L 518.483249 340.579676 
L 520.770967 345.941682 
L 522.364767 349.455703 
L 523.616677 351.685135 
L 524.848733 353.420771 
L 526.061556 354.746399 
L 527.551435 356.0008 
L 530.731943 358.492292 
L 531.856954 359.820834 
L 532.690148 361.155428 
L 533.514502 362.894673 
L 534.330201 365.168878 
L 535.137424 368.150474 
L 535.936347 372.083666 
L 536.727137 377.342262 
L 537.50996 384.556071 
L 537.769158 387.575245 
L 537.769158 387.575245 
" style="fill:none;stroke:#008000;stroke-dasharray:7.4,3.2;stroke-dashoffset:0;stroke-width:2;"/>
   </g>
   <g id="line2d_97">
    <path clip-path="url(#p8cf2f5964e)" d="M 111.322341 139.058473 
L 165.174365 141.484213 
L 196.67578 144.055339 
L 219.02639 146.790398 
L 236.362869 149.711724 
L 250.527805 152.846555 
L 262.504087 156.228578 
L 282.02922 163.915496 
L 290.214894 168.345745 
L 304.379829 178.871322 
L 310.598511 174.907553 
L 321.716309 181.345725 
L 331.44049 189.195425 
L 344.066918 207.332713 
L 351.471761 212.969381 
L 361.403398 218.182912 
L 370.208136 222.986931 
L 380.582463 229.146062 
L 389.733269 235.143315 
L 397.918943 241.131182 
L 407.069748 248.512519 
L 415.255422 255.412978 
L 424.06016 263.056445 
L 431.967866 270.133778 
L 440.278749 277.436697 
L 448.801483 284.726808 
L 457.389708 291.472213 
L 465.122366 296.821109 
L 473.634478 302.5699 
L 481.966603 308.515833 
L 490.086408 314.559412 
L 497.974981 320.573547 
L 506.107056 327.664634 
L 513.90572 335.502771 
L 521.785262 345.787751 
L 530.010364 361.713937 
L 537.769158 388.208642 
" style="fill:none;stroke:#800080;stroke-dasharray:7.4,3.2;stroke-dashoffset:0;stroke-width:2;"/>
   </g>
   <g id="line2d_98">
    <defs>
     <path d="M 0 3 
C 0.795609 3 1.55874 2.683901 2.12132 2.12132 
C 2.683901 1.55874 3 0.795609 3 0 
C 3 -0.795609 2.683901 -1.55874 2.12132 -2.12132 
C 1.55874 -2.683901 0.795609 -3 0 -3 
C -0.795609 -3 -1.55874 -2.683901 -2.12132 -2.12132 
C -2.683901 -1.55874 -3 -0.795609 -3 0 
C -3 0.795609 -2.683901 1.55874 -2.12132 2.12132 
C -1.55874 2.683901 -0.795609 3 0 3 
z
" id="m4ac5e95dda" style="stroke:#000000;"/>
    </defs>
    <g clip-path="url(#p8cf2f5964e)">
     <use style="stroke:#000000;" x="111.322341" xlink:href="#m4ac5e95dda" y="88.983395"/>
     <use style="stroke:#000000;" x="165.174365" xlink:href="#m4ac5e95dda" y="90.583252"/>
     <use style="stroke:#000000;" x="196.67578" xlink:href="#m4ac5e95dda" y="124.433444"/>
     <use style="stroke:#000000;" x="219.02639" xlink:href="#m4ac5e95dda" y="129.053009"/>
     <use style="stroke:#000000;" x="236.362869" xlink:href="#m4ac5e95dda" y="137.136777"/>
     <use style="stroke:#000000;" x="250.527805" xlink:href="#m4ac5e95dda" y="147.026387"/>
     <use style="stroke:#000000;" x="262.504087" xlink:href="#m4ac5e95dda" y="156.228578"/>
     <use style="stroke:#000000;" x="282.02922" xlink:href="#m4ac5e95dda" y="163.915496"/>
     <use style="stroke:#000000;" x="290.214894" xlink:href="#m4ac5e95dda" y="172.708681"/>
     <use style="stroke:#000000;" x="304.379829" xlink:href="#m4ac5e95dda" y="181.784544"/>
     <use style="stroke:#000000;" x="310.598511" xlink:href="#m4ac5e95dda" y="187.261903"/>
     <use style="stroke:#000000;" x="321.716309" xlink:href="#m4ac5e95dda" y="194.011132"/>
     <use style="stroke:#000000;" x="331.44049" xlink:href="#m4ac5e95dda" y="201.179539"/>
     <use style="stroke:#000000;" x="344.066918" xlink:href="#m4ac5e95dda" y="208.12057"/>
     <use style="stroke:#000000;" x="351.471761" xlink:href="#m4ac5e95dda" y="214.085109"/>
     <use style="stroke:#000000;" x="361.403398" xlink:href="#m4ac5e95dda" y="220.574535"/>
     <use style="stroke:#000000;" x="370.208136" xlink:href="#m4ac5e95dda" y="226.179537"/>
     <use style="stroke:#000000;" x="380.582463" xlink:href="#m4ac5e95dda" y="230.922966"/>
     <use style="stroke:#000000;" x="389.733269" xlink:href="#m4ac5e95dda" y="236.892393"/>
     <use style="stroke:#000000;" x="397.918943" xlink:href="#m4ac5e95dda" y="242.34871"/>
     <use style="stroke:#000000;" x="407.069748" xlink:href="#m4ac5e95dda" y="249.451049"/>
     <use style="stroke:#000000;" x="415.255422" xlink:href="#m4ac5e95dda" y="257.966716"/>
     <use style="stroke:#000000;" x="424.06016" xlink:href="#m4ac5e95dda" y="269.963897"/>
     <use style="stroke:#000000;" x="431.967866" xlink:href="#m4ac5e95dda" y="277.511488"/>
     <use style="stroke:#000000;" x="440.278749" xlink:href="#m4ac5e95dda" y="282.772438"/>
     <use style="stroke:#000000;" x="448.801483" xlink:href="#m4ac5e95dda" y="286.6761"/>
     <use style="stroke:#000000;" x="457.389708" xlink:href="#m4ac5e95dda" y="298.344965"/>
     <use style="stroke:#000000;" x="465.122366" xlink:href="#m4ac5e95dda" y="298.344965"/>
     <use style="stroke:#000000;" x="473.634478" xlink:href="#m4ac5e95dda" y="304.07489"/>
     <use style="stroke:#000000;" x="481.966603" xlink:href="#m4ac5e95dda" y="310.689602"/>
     <use style="stroke:#000000;" x="490.086408" xlink:href="#m4ac5e95dda" y="314.423321"/>
     <use style="stroke:#000000;" x="497.974981" xlink:href="#m4ac5e95dda" y="323.03424"/>
     <use style="stroke:#000000;" x="506.107056" xlink:href="#m4ac5e95dda" y="333.818316"/>
     <use style="stroke:#000000;" x="513.90572" xlink:href="#m4ac5e95dda" y="333.818316"/>
     <use style="stroke:#000000;" x="521.785262" xlink:href="#m4ac5e95dda" y="348.256573"/>
     <use style="stroke:#000000;" x="530.010364" xlink:href="#m4ac5e95dda" y="357.831818"/>
     <use style="stroke:#000000;" x="537.769158" xlink:href="#m4ac5e95dda" y="387.575245"/>
    </g>
   </g>
   <g id="patch_3">
    <path d="M 90 378 
L 90 51.84 
" style="fill:none;stroke:#000000;stroke-linecap:square;stroke-linejoin:miter;stroke-width:0.8;"/>
   </g>
   <g id="patch_4">
    <path d="M 648 378 
L 648 51.84 
" style="fill:none;stroke:#000000;stroke-linecap:square;stroke-linejoin:miter;stroke-width:0.8;"/>
   </g>
   <g id="patch_5">
    <path d="M 90 378 
L 648 378 
" style="fill:none;stroke:#000000;stroke-linecap:square;stroke-linejoin:miter;stroke-width:0.8;"/>
   </g>
   <g id="patch_6">
    <path d="M 90 51.84 
L 648 51.84 
" style="fill:none;stroke:#000000;stroke-linecap:square;stroke-linejoin:miter;stroke-width:0.8;"/>
   </g>
   <g id="text_11">
    <!-- Average Pellet Count vs Price Paid by Subject -->
    <g transform="translate(233.11875 45.84)scale(0.12 -0.12)">
     <defs>
      <path d="M 44.28125 53.078125 
L 44.28125 44.578125 
Q 40.484375 46.53125 36.375 47.5 
Q 32.28125 48.484375 27.875 48.484375 
Q 21.1875 48.484375 17.84375 46.4375 
Q 14.5 44.390625 14.5 40.28125 
Q 14.5 37.15625 16.890625 35.375 
Q 19.28125 33.59375 26.515625 31.984375 
L 29.59375 31.296875 
Q 39.15625 29.25 43.1875 25.515625 
Q 47.21875 21.78125 47.21875 15.09375 
Q 47.21875 7.46875 41.1875 3.015625 
Q 35.15625 -1.421875 24.609375 -1.421875 
Q 20.21875 -1.421875 15.453125 -0.5625 
Q 10.6875 0.296875 5.421875 2 
L 5.421875 11.28125 
Q 10.40625 8.6875 15.234375 7.390625 
Q 20.0625 6.109375 24.8125 6.109375 
Q 31.15625 6.109375 34.5625 8.28125 
Q 37.984375 10.453125 37.984375 14.40625 
Q 37.984375 18.0625 35.515625 20.015625 
Q 33.0625 21.96875 24.703125 23.78125 
L 21.578125 24.515625 
Q 13.234375 26.265625 9.515625 29.90625 
Q 5.8125 33.546875 5.8125 39.890625 
Q 5.8125 47.609375 11.28125 51.796875 
Q 16.75 56 26.8125 56 
Q 31.78125 56 36.171875 55.265625 
Q 40.578125 54.546875 44.28125 53.078125 
z
" id="DejaVuSans-115"/>
      <path d="M 48.6875 27.296875 
Q 48.6875 37.203125 44.609375 42.84375 
Q 40.53125 48.484375 33.40625 48.484375 
Q 26.265625 48.484375 22.1875 42.84375 
Q 18.109375 37.203125 18.109375 27.296875 
Q 18.109375 17.390625 22.1875 11.75 
Q 26.265625 6.109375 33.40625 6.109375 
Q 40.53125 6.109375 44.609375 11.75 
Q 48.6875 17.390625 48.6875 27.296875 
z
M 18.109375 46.390625 
Q 20.953125 51.265625 25.265625 53.625 
Q 29.59375 56 35.59375 56 
Q 45.5625 56 51.78125 48.09375 
Q 58.015625 40.1875 58.015625 27.296875 
Q 58.015625 14.40625 51.78125 6.484375 
Q 45.5625 -1.421875 35.59375 -1.421875 
Q 29.59375 -1.421875 25.265625 0.953125 
Q 20.953125 3.328125 18.109375 8.203125 
L 18.109375 0 
L 9.078125 0 
L 9.078125 75.984375 
L 18.109375 75.984375 
z
" id="DejaVuSans-98"/>
      <path d="M 32.171875 -5.078125 
Q 28.375 -14.84375 24.75 -17.8125 
Q 21.140625 -20.796875 15.09375 -20.796875 
L 7.90625 -20.796875 
L 7.90625 -13.28125 
L 13.1875 -13.28125 
Q 16.890625 -13.28125 18.9375 -11.515625 
Q 21 -9.765625 23.484375 -3.21875 
L 25.09375 0.875 
L 2.984375 54.6875 
L 12.5 54.6875 
L 29.59375 11.921875 
L 46.6875 54.6875 
L 56.203125 54.6875 
z
" id="DejaVuSans-121"/>
      <path d="M 53.515625 70.515625 
L 53.515625 60.890625 
Q 47.90625 63.578125 42.921875 64.890625 
Q 37.9375 66.21875 33.296875 66.21875 
Q 25.25 66.21875 20.875 63.09375 
Q 16.5 59.96875 16.5 54.203125 
Q 16.5 49.359375 19.40625 46.890625 
Q 22.3125 44.4375 30.421875 42.921875 
L 36.375 41.703125 
Q 47.40625 39.59375 52.65625 34.296875 
Q 57.90625 29 57.90625 20.125 
Q 57.90625 9.515625 50.796875 4.046875 
Q 43.703125 -1.421875 29.984375 -1.421875 
Q 24.8125 -1.421875 18.96875 -0.25 
Q 13.140625 0.921875 6.890625 3.21875 
L 6.890625 13.375 
Q 12.890625 10.015625 18.65625 8.296875 
Q 24.421875 6.59375 29.984375 6.59375 
Q 38.421875 6.59375 43.015625 9.90625 
Q 47.609375 13.234375 47.609375 19.390625 
Q 47.609375 24.75 44.3125 27.78125 
Q 41.015625 30.8125 33.5 32.328125 
L 27.484375 33.5 
Q 16.453125 35.6875 11.515625 40.375 
Q 6.59375 45.0625 6.59375 53.421875 
Q 6.59375 63.09375 13.40625 68.65625 
Q 20.21875 74.21875 32.171875 74.21875 
Q 37.3125 74.21875 42.625 73.28125 
Q 47.953125 72.359375 53.515625 70.515625 
z
" id="DejaVuSans-83"/>
      <path d="M 9.421875 54.6875 
L 18.40625 54.6875 
L 18.40625 -0.984375 
Q 18.40625 -11.421875 14.421875 -16.109375 
Q 10.453125 -20.796875 1.609375 -20.796875 
L -1.8125 -20.796875 
L -1.8125 -13.1875 
L 0.59375 -13.1875 
Q 5.71875 -13.1875 7.5625 -10.8125 
Q 9.421875 -8.453125 9.421875 -0.984375 
z
M 9.421875 75.984375 
L 18.40625 75.984375 
L 18.40625 64.59375 
L 9.421875 64.59375 
z
" id="DejaVuSans-106"/>
     </defs>
     <use xlink:href="#DejaVuSans-65"/>
     <use x="62.533203" xlink:href="#DejaVuSans-118"/>
     <use x="121.712891" xlink:href="#DejaVuSans-101"/>
     <use x="183.236328" xlink:href="#DejaVuSans-114"/>
     <use x="224.349609" xlink:href="#DejaVuSans-97"/>
     <use x="285.628906" xlink:href="#DejaVuSans-103"/>
     <use x="349.105469" xlink:href="#DejaVuSans-101"/>
     <use x="410.628906" xlink:href="#DejaVuSans-32"/>
     <use x="442.416016" xlink:href="#DejaVuSans-80"/>
     <use x="499.09375" xlink:href="#DejaVuSans-101"/>
     <use x="560.617188" xlink:href="#DejaVuSans-108"/>
     <use x="588.400391" xlink:href="#DejaVuSans-108"/>
     <use x="616.183594" xlink:href="#DejaVuSans-101"/>
     <use x="677.707031" xlink:href="#DejaVuSans-116"/>
     <use x="716.916016" xlink:href="#DejaVuSans-32"/>
     <use x="748.703125" xlink:href="#DejaVuSans-67"/>
     <use x="818.527344" xlink:href="#DejaVuSans-111"/>
     <use x="879.708984" xlink:href="#DejaVuSans-117"/>
     <use x="943.087891" xlink:href="#DejaVuSans-110"/>
     <use x="1006.466797" xlink:href="#DejaVuSans-116"/>
     <use x="1045.675781" xlink:href="#DejaVuSans-32"/>
     <use x="1077.462891" xlink:href="#DejaVuSans-118"/>
     <use x="1136.642578" xlink:href="#DejaVuSans-115"/>
     <use x="1188.742188" xlink:href="#DejaVuSans-32"/>
     <use x="1220.529297" xlink:href="#DejaVuSans-80"/>
     <use x="1279.082031" xlink:href="#DejaVuSans-114"/>
     <use x="1320.195312" xlink:href="#DejaVuSans-105"/>
     <use x="1347.978516" xlink:href="#DejaVuSans-99"/>
     <use x="1402.958984" xlink:href="#DejaVuSans-101"/>
     <use x="1464.482422" xlink:href="#DejaVuSans-32"/>
     <use x="1496.269531" xlink:href="#DejaVuSans-80"/>
     <use x="1552.072266" xlink:href="#DejaVuSans-97"/>
     <use x="1613.351562" xlink:href="#DejaVuSans-105"/>
     <use x="1641.134766" xlink:href="#DejaVuSans-100"/>
     <use x="1704.611328" xlink:href="#DejaVuSans-32"/>
     <use x="1736.398438" xlink:href="#DejaVuSans-98"/>
     <use x="1799.875" xlink:href="#DejaVuSans-121"/>
     <use x="1859.054688" xlink:href="#DejaVuSans-32"/>
     <use x="1890.841797" xlink:href="#DejaVuSans-83"/>
     <use x="1954.318359" xlink:href="#DejaVuSans-117"/>
     <use x="2017.697266" xlink:href="#DejaVuSans-98"/>
     <use x="2081.173828" xlink:href="#DejaVuSans-106"/>
     <use x="2108.957031" xlink:href="#DejaVuSans-101"/>
     <use x="2170.480469" xlink:href="#DejaVuSans-99"/>
     <use x="2225.460938" xlink:href="#DejaVuSans-116"/>
    </g>
   </g>
  </g>
 </g>
 <defs>
  <clipPath id="p8cf2f5964e">
   <rect height="326.16" width="558" x="90" y="51.84"/>
  </clipPath>
 </defs>
</svg>
