<?xml version="1.0" encoding="utf-8" standalone="no"?>
<!DOCTYPE svg PUBLIC "-//W3C//DTD SVG 1.1//EN"
  "http://www.w3.org/Graphics/SVG/1.1/DTD/svg11.dtd">
<!-- Created with matplotlib (https://matplotlib.org/) -->
<svg height="432pt" version="1.1" viewBox="0 0 720 432" width="720pt" xmlns="http://www.w3.org/2000/svg" xmlns:xlink="http://www.w3.org/1999/xlink">
 <metadata>
  <rdf:RDF xmlns:cc="http://creativecommons.org/ns#" xmlns:dc="http://purl.org/dc/elements/1.1/" xmlns:rdf="http://www.w3.org/1999/02/22-rdf-syntax-ns#">
   <cc:Work>
    <dc:type rdf:resource="http://purl.org/dc/dcmitype/StillImage"/>
    <dc:date>2024-10-17T22:09:06.982723</dc:date>
    <dc:format>image/svg+xml</dc:format>
    <dc:creator>
     <cc:Agent>
      <dc:title>Matplotlib v3.3.4, https://matplotlib.org/</dc:title>
     </cc:Agent>
    </dc:creator>
   </cc:Work>
  </rdf:RDF>
 </metadata>
 <defs>
  <style type="text/css">*{stroke-linecap:butt;stroke-linejoin:round;}</style>
 </defs>
 <g id="figure_1">
  <g id="patch_1">
   <path d="M 0 432 
L 720 432 
L 720 0 
L 0 0 
z
" style="fill:#ffffff;"/>
  </g>
  <g id="axes_1">
   <g id="patch_2">
    <path d="M 90 378 
L 648 378 
L 648 51.84 
L 90 51.84 
z
" style="fill:#ffffff;"/>
   </g>
   <g id="matplotlib.axis_1">
    <g id="xtick_1">
     <g id="line2d_1">
      <path clip-path="url(#p647599893b)" d="M 114.338491 378 
L 114.338491 51.84 
" style="fill:none;stroke:#b0b0b0;stroke-linecap:square;stroke-width:0.8;"/>
     </g>
     <g id="line2d_2">
      <defs>
       <path d="M 0 0 
L 0 3.5 
" id="m2cb1981dce" style="stroke:#000000;stroke-width:0.8;"/>
      </defs>
      <g>
       <use style="stroke:#000000;stroke-width:0.8;" x="114.338491" xlink:href="#m2cb1981dce" y="378"/>
      </g>
     </g>
     <g id="text_1">
      <!-- $\mathdefault{10^{0}}$ -->
      <g transform="translate(105.538491 392.598437)scale(0.1 -0.1)">
       <defs>
        <path d="M 12.40625 8.296875 
L 28.515625 8.296875 
L 28.515625 63.921875 
L 10.984375 60.40625 
L 10.984375 69.390625 
L 28.421875 72.90625 
L 38.28125 72.90625 
L 38.28125 8.296875 
L 54.390625 8.296875 
L 54.390625 0 
L 12.40625 0 
z
" id="DejaVuSans-49"/>
        <path d="M 31.78125 66.40625 
Q 24.171875 66.40625 20.328125 58.90625 
Q 16.5 51.421875 16.5 36.375 
Q 16.5 21.390625 20.328125 13.890625 
Q 24.171875 6.390625 31.78125 6.390625 
Q 39.453125 6.390625 43.28125 13.890625 
Q 47.125 21.390625 47.125 36.375 
Q 47.125 51.421875 43.28125 58.90625 
Q 39.453125 66.40625 31.78125 66.40625 
z
M 31.78125 74.21875 
Q 44.046875 74.21875 50.515625 64.515625 
Q 56.984375 54.828125 56.984375 36.375 
Q 56.984375 17.96875 50.515625 8.265625 
Q 44.046875 -1.421875 31.78125 -1.421875 
Q 19.53125 -1.421875 13.0625 8.265625 
Q 6.59375 17.96875 6.59375 36.375 
Q 6.59375 54.828125 13.0625 64.515625 
Q 19.53125 74.21875 31.78125 74.21875 
z
" id="DejaVuSans-48"/>
       </defs>
       <use transform="translate(0 0.765625)" xlink:href="#DejaVuSans-49"/>
       <use transform="translate(63.623047 0.765625)" xlink:href="#DejaVuSans-48"/>
       <use transform="translate(128.203125 39.046875)scale(0.7)" xlink:href="#DejaVuSans-48"/>
      </g>
     </g>
    </g>
    <g id="xtick_2">
     <g id="line2d_3">
      <path clip-path="url(#p647599893b)" d="M 292.225661 378 
L 292.225661 51.84 
" style="fill:none;stroke:#b0b0b0;stroke-linecap:square;stroke-width:0.8;"/>
     </g>
     <g id="line2d_4">
      <g>
       <use style="stroke:#000000;stroke-width:0.8;" x="292.225661" xlink:href="#m2cb1981dce" y="378"/>
      </g>
     </g>
     <g id="text_2">
      <!-- $\mathdefault{10^{1}}$ -->
      <g transform="translate(283.425661 392.598437)scale(0.1 -0.1)">
       <use transform="translate(0 0.684375)" xlink:href="#DejaVuSans-49"/>
       <use transform="translate(63.623047 0.684375)" xlink:href="#DejaVuSans-48"/>
       <use transform="translate(128.203125 38.965625)scale(0.7)" xlink:href="#DejaVuSans-49"/>
      </g>
     </g>
    </g>
    <g id="xtick_3">
     <g id="line2d_5">
      <path clip-path="url(#p647599893b)" d="M 470.11283 378 
L 470.11283 51.84 
" style="fill:none;stroke:#b0b0b0;stroke-linecap:square;stroke-width:0.8;"/>
     </g>
     <g id="line2d_6">
      <g>
       <use style="stroke:#000000;stroke-width:0.8;" x="470.11283" xlink:href="#m2cb1981dce" y="378"/>
      </g>
     </g>
     <g id="text_3">
      <!-- $\mathdefault{10^{2}}$ -->
      <g transform="translate(461.31283 392.598437)scale(0.1 -0.1)">
       <defs>
        <path d="M 19.1875 8.296875 
L 53.609375 8.296875 
L 53.609375 0 
L 7.328125 0 
L 7.328125 8.296875 
Q 12.9375 14.109375 22.625 23.890625 
Q 32.328125 33.6875 34.8125 36.53125 
Q 39.546875 41.84375 41.421875 45.53125 
Q 43.3125 49.21875 43.3125 52.78125 
Q 43.3125 58.59375 39.234375 62.25 
Q 35.15625 65.921875 28.609375 65.921875 
Q 23.96875 65.921875 18.8125 64.3125 
Q 13.671875 62.703125 7.8125 59.421875 
L 7.8125 69.390625 
Q 13.765625 71.78125 18.9375 73 
Q 24.125 74.21875 28.421875 74.21875 
Q 39.75 74.21875 46.484375 68.546875 
Q 53.21875 62.890625 53.21875 53.421875 
Q 53.21875 48.921875 51.53125 44.890625 
Q 49.859375 40.875 45.40625 35.40625 
Q 44.1875 33.984375 37.640625 27.21875 
Q 31.109375 20.453125 19.1875 8.296875 
z
" id="DejaVuSans-50"/>
       </defs>
       <use transform="translate(0 0.765625)" xlink:href="#DejaVuSans-49"/>
       <use transform="translate(63.623047 0.765625)" xlink:href="#DejaVuSans-48"/>
       <use transform="translate(128.203125 39.046875)scale(0.7)" xlink:href="#DejaVuSans-50"/>
      </g>
     </g>
    </g>
    <g id="xtick_4">
     <g id="line2d_7">
      <path clip-path="url(#p647599893b)" d="M 648 378 
L 648 51.84 
" style="fill:none;stroke:#b0b0b0;stroke-linecap:square;stroke-width:0.8;"/>
     </g>
     <g id="line2d_8">
      <g>
       <use style="stroke:#000000;stroke-width:0.8;" x="648" xlink:href="#m2cb1981dce" y="378"/>
      </g>
     </g>
     <g id="text_4">
      <!-- $\mathdefault{10^{3}}$ -->
      <g transform="translate(639.2 392.598437)scale(0.1 -0.1)">
       <defs>
        <path d="M 40.578125 39.3125 
Q 47.65625 37.796875 51.625 33 
Q 55.609375 28.21875 55.609375 21.1875 
Q 55.609375 10.40625 48.1875 4.484375 
Q 40.765625 -1.421875 27.09375 -1.421875 
Q 22.515625 -1.421875 17.65625 -0.515625 
Q 12.796875 0.390625 7.625 2.203125 
L 7.625 11.71875 
Q 11.71875 9.328125 16.59375 8.109375 
Q 21.484375 6.890625 26.8125 6.890625 
Q 36.078125 6.890625 40.9375 10.546875 
Q 45.796875 14.203125 45.796875 21.1875 
Q 45.796875 27.640625 41.28125 31.265625 
Q 36.765625 34.90625 28.71875 34.90625 
L 20.21875 34.90625 
L 20.21875 43.015625 
L 29.109375 43.015625 
Q 36.375 43.015625 40.234375 45.921875 
Q 44.09375 48.828125 44.09375 54.296875 
Q 44.09375 59.90625 40.109375 62.90625 
Q 36.140625 65.921875 28.71875 65.921875 
Q 24.65625 65.921875 20.015625 65.03125 
Q 15.375 64.15625 9.8125 62.3125 
L 9.8125 71.09375 
Q 15.4375 72.65625 20.34375 73.4375 
Q 25.25 74.21875 29.59375 74.21875 
Q 40.828125 74.21875 47.359375 69.109375 
Q 53.90625 64.015625 53.90625 55.328125 
Q 53.90625 49.265625 50.4375 45.09375 
Q 46.96875 40.921875 40.578125 39.3125 
z
" id="DejaVuSans-51"/>
       </defs>
       <use transform="translate(0 0.765625)" xlink:href="#DejaVuSans-49"/>
       <use transform="translate(63.623047 0.765625)" xlink:href="#DejaVuSans-48"/>
       <use transform="translate(128.203125 39.046875)scale(0.7)" xlink:href="#DejaVuSans-51"/>
      </g>
     </g>
    </g>
    <g id="xtick_5">
     <g id="line2d_9">
      <defs>
       <path d="M 0 0 
L 0 2 
" id="md8440d977d" style="stroke:#000000;stroke-width:0.6;"/>
      </defs>
      <g>
       <use style="stroke:#000000;stroke-width:0.6;" x="97.099444" xlink:href="#md8440d977d" y="378"/>
      </g>
     </g>
    </g>
    <g id="xtick_6">
     <g id="line2d_10">
      <g>
       <use style="stroke:#000000;stroke-width:0.6;" x="106.198821" xlink:href="#md8440d977d" y="378"/>
      </g>
     </g>
    </g>
    <g id="xtick_7">
     <g id="line2d_11">
      <g>
       <use style="stroke:#000000;stroke-width:0.6;" x="167.887865" xlink:href="#md8440d977d" y="378"/>
      </g>
     </g>
    </g>
    <g id="xtick_8">
     <g id="line2d_12">
      <g>
       <use style="stroke:#000000;stroke-width:0.6;" x="199.212241" xlink:href="#md8440d977d" y="378"/>
      </g>
     </g>
    </g>
    <g id="xtick_9">
     <g id="line2d_13">
      <g>
       <use style="stroke:#000000;stroke-width:0.6;" x="221.437239" xlink:href="#md8440d977d" y="378"/>
      </g>
     </g>
    </g>
    <g id="xtick_10">
     <g id="line2d_14">
      <g>
       <use style="stroke:#000000;stroke-width:0.6;" x="238.676287" xlink:href="#md8440d977d" y="378"/>
      </g>
     </g>
    </g>
    <g id="xtick_11">
     <g id="line2d_15">
      <g>
       <use style="stroke:#000000;stroke-width:0.6;" x="252.761615" xlink:href="#md8440d977d" y="378"/>
      </g>
     </g>
    </g>
    <g id="xtick_12">
     <g id="line2d_16">
      <g>
       <use style="stroke:#000000;stroke-width:0.6;" x="264.67059" xlink:href="#md8440d977d" y="378"/>
      </g>
     </g>
    </g>
    <g id="xtick_13">
     <g id="line2d_17">
      <g>
       <use style="stroke:#000000;stroke-width:0.6;" x="274.986613" xlink:href="#md8440d977d" y="378"/>
      </g>
     </g>
    </g>
    <g id="xtick_14">
     <g id="line2d_18">
      <g>
       <use style="stroke:#000000;stroke-width:0.6;" x="284.08599" xlink:href="#md8440d977d" y="378"/>
      </g>
     </g>
    </g>
    <g id="xtick_15">
     <g id="line2d_19">
      <g>
       <use style="stroke:#000000;stroke-width:0.6;" x="345.775035" xlink:href="#md8440d977d" y="378"/>
      </g>
     </g>
    </g>
    <g id="xtick_16">
     <g id="line2d_20">
      <g>
       <use style="stroke:#000000;stroke-width:0.6;" x="377.09941" xlink:href="#md8440d977d" y="378"/>
      </g>
     </g>
    </g>
    <g id="xtick_17">
     <g id="line2d_21">
      <g>
       <use style="stroke:#000000;stroke-width:0.6;" x="399.324409" xlink:href="#md8440d977d" y="378"/>
      </g>
     </g>
    </g>
    <g id="xtick_18">
     <g id="line2d_22">
      <g>
       <use style="stroke:#000000;stroke-width:0.6;" x="416.563457" xlink:href="#md8440d977d" y="378"/>
      </g>
     </g>
    </g>
    <g id="xtick_19">
     <g id="line2d_23">
      <g>
       <use style="stroke:#000000;stroke-width:0.6;" x="430.648784" xlink:href="#md8440d977d" y="378"/>
      </g>
     </g>
    </g>
    <g id="xtick_20">
     <g id="line2d_24">
      <g>
       <use style="stroke:#000000;stroke-width:0.6;" x="442.557759" xlink:href="#md8440d977d" y="378"/>
      </g>
     </g>
    </g>
    <g id="xtick_21">
     <g id="line2d_25">
      <g>
       <use style="stroke:#000000;stroke-width:0.6;" x="452.873783" xlink:href="#md8440d977d" y="378"/>
      </g>
     </g>
    </g>
    <g id="xtick_22">
     <g id="line2d_26">
      <g>
       <use style="stroke:#000000;stroke-width:0.6;" x="461.97316" xlink:href="#md8440d977d" y="378"/>
      </g>
     </g>
    </g>
    <g id="xtick_23">
     <g id="line2d_27">
      <g>
       <use style="stroke:#000000;stroke-width:0.6;" x="523.662204" xlink:href="#md8440d977d" y="378"/>
      </g>
     </g>
    </g>
    <g id="xtick_24">
     <g id="line2d_28">
      <g>
       <use style="stroke:#000000;stroke-width:0.6;" x="554.98658" xlink:href="#md8440d977d" y="378"/>
      </g>
     </g>
    </g>
    <g id="xtick_25">
     <g id="line2d_29">
      <g>
       <use style="stroke:#000000;stroke-width:0.6;" x="577.211578" xlink:href="#md8440d977d" y="378"/>
      </g>
     </g>
    </g>
    <g id="xtick_26">
     <g id="line2d_30">
      <g>
       <use style="stroke:#000000;stroke-width:0.6;" x="594.450626" xlink:href="#md8440d977d" y="378"/>
      </g>
     </g>
    </g>
    <g id="xtick_27">
     <g id="line2d_31">
      <g>
       <use style="stroke:#000000;stroke-width:0.6;" x="608.535954" xlink:href="#md8440d977d" y="378"/>
      </g>
     </g>
    </g>
    <g id="xtick_28">
     <g id="line2d_32">
      <g>
       <use style="stroke:#000000;stroke-width:0.6;" x="620.444929" xlink:href="#md8440d977d" y="378"/>
      </g>
     </g>
    </g>
    <g id="xtick_29">
     <g id="line2d_33">
      <g>
       <use style="stroke:#000000;stroke-width:0.6;" x="630.760952" xlink:href="#md8440d977d" y="378"/>
      </g>
     </g>
    </g>
    <g id="xtick_30">
     <g id="line2d_34">
      <g>
       <use style="stroke:#000000;stroke-width:0.6;" x="639.86033" xlink:href="#md8440d977d" y="378"/>
      </g>
     </g>
    </g>
    <g id="text_5">
     <!-- Price Paid -->
     <g transform="translate(344.796094 406.276563)scale(0.1 -0.1)">
      <defs>
       <path d="M 19.671875 64.796875 
L 19.671875 37.40625 
L 32.078125 37.40625 
Q 38.96875 37.40625 42.71875 40.96875 
Q 46.484375 44.53125 46.484375 51.125 
Q 46.484375 57.671875 42.71875 61.234375 
Q 38.96875 64.796875 32.078125 64.796875 
z
M 9.8125 72.90625 
L 32.078125 72.90625 
Q 44.34375 72.90625 50.609375 67.359375 
Q 56.890625 61.8125 56.890625 51.125 
Q 56.890625 40.328125 50.609375 34.8125 
Q 44.34375 29.296875 32.078125 29.296875 
L 19.671875 29.296875 
L 19.671875 0 
L 9.8125 0 
z
" id="DejaVuSans-80"/>
       <path d="M 41.109375 46.296875 
Q 39.59375 47.171875 37.8125 47.578125 
Q 36.03125 48 33.890625 48 
Q 26.265625 48 22.1875 43.046875 
Q 18.109375 38.09375 18.109375 28.8125 
L 18.109375 0 
L 9.078125 0 
L 9.078125 54.6875 
L 18.109375 54.6875 
L 18.109375 46.1875 
Q 20.953125 51.171875 25.484375 53.578125 
Q 30.03125 56 36.53125 56 
Q 37.453125 56 38.578125 55.875 
Q 39.703125 55.765625 41.0625 55.515625 
z
" id="DejaVuSans-114"/>
       <path d="M 9.421875 54.6875 
L 18.40625 54.6875 
L 18.40625 0 
L 9.421875 0 
z
M 9.421875 75.984375 
L 18.40625 75.984375 
L 18.40625 64.59375 
L 9.421875 64.59375 
z
" id="DejaVuSans-105"/>
       <path d="M 48.78125 52.59375 
L 48.78125 44.1875 
Q 44.96875 46.296875 41.140625 47.34375 
Q 37.3125 48.390625 33.40625 48.390625 
Q 24.65625 48.390625 19.8125 42.84375 
Q 14.984375 37.3125 14.984375 27.296875 
Q 14.984375 17.28125 19.8125 11.734375 
Q 24.65625 6.203125 33.40625 6.203125 
Q 37.3125 6.203125 41.140625 7.25 
Q 44.96875 8.296875 48.78125 10.40625 
L 48.78125 2.09375 
Q 45.015625 0.34375 40.984375 -0.53125 
Q 36.96875 -1.421875 32.421875 -1.421875 
Q 20.0625 -1.421875 12.78125 6.34375 
Q 5.515625 14.109375 5.515625 27.296875 
Q 5.515625 40.671875 12.859375 48.328125 
Q 20.21875 56 33.015625 56 
Q 37.15625 56 41.109375 55.140625 
Q 45.0625 54.296875 48.78125 52.59375 
z
" id="DejaVuSans-99"/>
       <path d="M 56.203125 29.59375 
L 56.203125 25.203125 
L 14.890625 25.203125 
Q 15.484375 15.921875 20.484375 11.0625 
Q 25.484375 6.203125 34.421875 6.203125 
Q 39.59375 6.203125 44.453125 7.46875 
Q 49.3125 8.734375 54.109375 11.28125 
L 54.109375 2.78125 
Q 49.265625 0.734375 44.1875 -0.34375 
Q 39.109375 -1.421875 33.890625 -1.421875 
Q 20.796875 -1.421875 13.15625 6.1875 
Q 5.515625 13.8125 5.515625 26.8125 
Q 5.515625 40.234375 12.765625 48.109375 
Q 20.015625 56 32.328125 56 
Q 43.359375 56 49.78125 48.890625 
Q 56.203125 41.796875 56.203125 29.59375 
z
M 47.21875 32.234375 
Q 47.125 39.59375 43.09375 43.984375 
Q 39.0625 48.390625 32.421875 48.390625 
Q 24.90625 48.390625 20.390625 44.140625 
Q 15.875 39.890625 15.1875 32.171875 
z
" id="DejaVuSans-101"/>
       <path id="DejaVuSans-32"/>
       <path d="M 34.28125 27.484375 
Q 23.390625 27.484375 19.1875 25 
Q 14.984375 22.515625 14.984375 16.5 
Q 14.984375 11.71875 18.140625 8.90625 
Q 21.296875 6.109375 26.703125 6.109375 
Q 34.1875 6.109375 38.703125 11.40625 
Q 43.21875 16.703125 43.21875 25.484375 
L 43.21875 27.484375 
z
M 52.203125 31.203125 
L 52.203125 0 
L 43.21875 0 
L 43.21875 8.296875 
Q 40.140625 3.328125 35.546875 0.953125 
Q 30.953125 -1.421875 24.3125 -1.421875 
Q 15.921875 -1.421875 10.953125 3.296875 
Q 6 8.015625 6 15.921875 
Q 6 25.140625 12.171875 29.828125 
Q 18.359375 34.515625 30.609375 34.515625 
L 43.21875 34.515625 
L 43.21875 35.40625 
Q 43.21875 41.609375 39.140625 45 
Q 35.0625 48.390625 27.6875 48.390625 
Q 23 48.390625 18.546875 47.265625 
Q 14.109375 46.140625 10.015625 43.890625 
L 10.015625 52.203125 
Q 14.9375 54.109375 19.578125 55.046875 
Q 24.21875 56 28.609375 56 
Q 40.484375 56 46.34375 49.84375 
Q 52.203125 43.703125 52.203125 31.203125 
z
" id="DejaVuSans-97"/>
       <path d="M 45.40625 46.390625 
L 45.40625 75.984375 
L 54.390625 75.984375 
L 54.390625 0 
L 45.40625 0 
L 45.40625 8.203125 
Q 42.578125 3.328125 38.25 0.953125 
Q 33.9375 -1.421875 27.875 -1.421875 
Q 17.96875 -1.421875 11.734375 6.484375 
Q 5.515625 14.40625 5.515625 27.296875 
Q 5.515625 40.1875 11.734375 48.09375 
Q 17.96875 56 27.875 56 
Q 33.9375 56 38.25 53.625 
Q 42.578125 51.265625 45.40625 46.390625 
z
M 14.796875 27.296875 
Q 14.796875 17.390625 18.875 11.75 
Q 22.953125 6.109375 30.078125 6.109375 
Q 37.203125 6.109375 41.296875 11.75 
Q 45.40625 17.390625 45.40625 27.296875 
Q 45.40625 37.203125 41.296875 42.84375 
Q 37.203125 48.484375 30.078125 48.484375 
Q 22.953125 48.484375 18.875 42.84375 
Q 14.796875 37.203125 14.796875 27.296875 
z
" id="DejaVuSans-100"/>
      </defs>
      <use xlink:href="#DejaVuSans-80"/>
      <use x="58.552734" xlink:href="#DejaVuSans-114"/>
      <use x="99.666016" xlink:href="#DejaVuSans-105"/>
      <use x="127.449219" xlink:href="#DejaVuSans-99"/>
      <use x="182.429688" xlink:href="#DejaVuSans-101"/>
      <use x="243.953125" xlink:href="#DejaVuSans-32"/>
      <use x="275.740234" xlink:href="#DejaVuSans-80"/>
      <use x="331.542969" xlink:href="#DejaVuSans-97"/>
      <use x="392.822266" xlink:href="#DejaVuSans-105"/>
      <use x="420.605469" xlink:href="#DejaVuSans-100"/>
     </g>
    </g>
   </g>
   <g id="matplotlib.axis_2">
    <g id="ytick_1">
     <g id="line2d_35">
      <path clip-path="url(#p647599893b)" d="M 90 378 
L 648 378 
" style="fill:none;stroke:#b0b0b0;stroke-linecap:square;stroke-width:0.8;"/>
     </g>
     <g id="line2d_36">
      <defs>
       <path d="M 0 0 
L -3.5 0 
" id="m426505eddb" style="stroke:#000000;stroke-width:0.8;"/>
      </defs>
      <g>
       <use style="stroke:#000000;stroke-width:0.8;" x="90" xlink:href="#m426505eddb" y="378"/>
      </g>
     </g>
     <g id="text_6">
      <!-- $\mathdefault{10^{-1}}$ -->
      <g transform="translate(59.5 381.799219)scale(0.1 -0.1)">
       <defs>
        <path d="M 10.59375 35.5 
L 73.1875 35.5 
L 73.1875 27.203125 
L 10.59375 27.203125 
z
" id="DejaVuSans-8722"/>
       </defs>
       <use transform="translate(0 0.684375)" xlink:href="#DejaVuSans-49"/>
       <use transform="translate(63.623047 0.684375)" xlink:href="#DejaVuSans-48"/>
       <use transform="translate(128.203125 38.965625)scale(0.7)" xlink:href="#DejaVuSans-8722"/>
       <use transform="translate(186.855469 38.965625)scale(0.7)" xlink:href="#DejaVuSans-49"/>
      </g>
     </g>
    </g>
    <g id="ytick_2">
     <g id="line2d_37">
      <path clip-path="url(#p647599893b)" d="M 90 279.194476 
L 648 279.194476 
" style="fill:none;stroke:#b0b0b0;stroke-linecap:square;stroke-width:0.8;"/>
     </g>
     <g id="line2d_38">
      <g>
       <use style="stroke:#000000;stroke-width:0.8;" x="90" xlink:href="#m426505eddb" y="279.194476"/>
      </g>
     </g>
     <g id="text_7">
      <!-- $\mathdefault{10^{0}}$ -->
      <g transform="translate(65.4 282.993694)scale(0.1 -0.1)">
       <use transform="translate(0 0.765625)" xlink:href="#DejaVuSans-49"/>
       <use transform="translate(63.623047 0.765625)" xlink:href="#DejaVuSans-48"/>
       <use transform="translate(128.203125 39.046875)scale(0.7)" xlink:href="#DejaVuSans-48"/>
      </g>
     </g>
    </g>
    <g id="ytick_3">
     <g id="line2d_39">
      <path clip-path="url(#p647599893b)" d="M 90 180.388951 
L 648 180.388951 
" style="fill:none;stroke:#b0b0b0;stroke-linecap:square;stroke-width:0.8;"/>
     </g>
     <g id="line2d_40">
      <g>
       <use style="stroke:#000000;stroke-width:0.8;" x="90" xlink:href="#m426505eddb" y="180.388951"/>
      </g>
     </g>
     <g id="text_8">
      <!-- $\mathdefault{10^{1}}$ -->
      <g transform="translate(65.4 184.18817)scale(0.1 -0.1)">
       <use transform="translate(0 0.684375)" xlink:href="#DejaVuSans-49"/>
       <use transform="translate(63.623047 0.684375)" xlink:href="#DejaVuSans-48"/>
       <use transform="translate(128.203125 38.965625)scale(0.7)" xlink:href="#DejaVuSans-49"/>
      </g>
     </g>
    </g>
    <g id="ytick_4">
     <g id="line2d_41">
      <path clip-path="url(#p647599893b)" d="M 90 81.583427 
L 648 81.583427 
" style="fill:none;stroke:#b0b0b0;stroke-linecap:square;stroke-width:0.8;"/>
     </g>
     <g id="line2d_42">
      <g>
       <use style="stroke:#000000;stroke-width:0.8;" x="90" xlink:href="#m426505eddb" y="81.583427"/>
      </g>
     </g>
     <g id="text_9">
      <!-- $\mathdefault{10^{2}}$ -->
      <g transform="translate(65.4 85.382645)scale(0.1 -0.1)">
       <use transform="translate(0 0.765625)" xlink:href="#DejaVuSans-49"/>
       <use transform="translate(63.623047 0.765625)" xlink:href="#DejaVuSans-48"/>
       <use transform="translate(128.203125 39.046875)scale(0.7)" xlink:href="#DejaVuSans-50"/>
      </g>
     </g>
    </g>
    <g id="ytick_5">
     <g id="line2d_43">
      <defs>
       <path d="M 0 0 
L -2 0 
" id="md1805c969a" style="stroke:#000000;stroke-width:0.6;"/>
      </defs>
      <g>
       <use style="stroke:#000000;stroke-width:0.6;" x="90" xlink:href="#md1805c969a" y="348.256573"/>
      </g>
     </g>
    </g>
    <g id="ytick_6">
     <g id="line2d_44">
      <g>
       <use style="stroke:#000000;stroke-width:0.6;" x="90" xlink:href="#md1805c969a" y="330.857784"/>
      </g>
     </g>
    </g>
    <g id="ytick_7">
     <g id="line2d_45">
      <g>
       <use style="stroke:#000000;stroke-width:0.6;" x="90" xlink:href="#md1805c969a" y="318.513147"/>
      </g>
     </g>
    </g>
    <g id="ytick_8">
     <g id="line2d_46">
      <g>
       <use style="stroke:#000000;stroke-width:0.6;" x="90" xlink:href="#md1805c969a" y="308.937902"/>
      </g>
     </g>
    </g>
    <g id="ytick_9">
     <g id="line2d_47">
      <g>
       <use style="stroke:#000000;stroke-width:0.6;" x="90" xlink:href="#md1805c969a" y="301.114358"/>
      </g>
     </g>
    </g>
    <g id="ytick_10">
     <g id="line2d_48">
      <g>
       <use style="stroke:#000000;stroke-width:0.6;" x="90" xlink:href="#md1805c969a" y="294.499645"/>
      </g>
     </g>
    </g>
    <g id="ytick_11">
     <g id="line2d_49">
      <g>
       <use style="stroke:#000000;stroke-width:0.6;" x="90" xlink:href="#md1805c969a" y="288.76972"/>
      </g>
     </g>
    </g>
    <g id="ytick_12">
     <g id="line2d_50">
      <g>
       <use style="stroke:#000000;stroke-width:0.6;" x="90" xlink:href="#md1805c969a" y="283.715568"/>
      </g>
     </g>
    </g>
    <g id="ytick_13">
     <g id="line2d_51">
      <g>
       <use style="stroke:#000000;stroke-width:0.6;" x="90" xlink:href="#md1805c969a" y="249.451049"/>
      </g>
     </g>
    </g>
    <g id="ytick_14">
     <g id="line2d_52">
      <g>
       <use style="stroke:#000000;stroke-width:0.6;" x="90" xlink:href="#md1805c969a" y="232.05226"/>
      </g>
     </g>
    </g>
    <g id="ytick_15">
     <g id="line2d_53">
      <g>
       <use style="stroke:#000000;stroke-width:0.6;" x="90" xlink:href="#md1805c969a" y="219.707622"/>
      </g>
     </g>
    </g>
    <g id="ytick_16">
     <g id="line2d_54">
      <g>
       <use style="stroke:#000000;stroke-width:0.6;" x="90" xlink:href="#md1805c969a" y="210.132378"/>
      </g>
     </g>
    </g>
    <g id="ytick_17">
     <g id="line2d_55">
      <g>
       <use style="stroke:#000000;stroke-width:0.6;" x="90" xlink:href="#md1805c969a" y="202.308833"/>
      </g>
     </g>
    </g>
    <g id="ytick_18">
     <g id="line2d_56">
      <g>
       <use style="stroke:#000000;stroke-width:0.6;" x="90" xlink:href="#md1805c969a" y="195.69412"/>
      </g>
     </g>
    </g>
    <g id="ytick_19">
     <g id="line2d_57">
      <g>
       <use style="stroke:#000000;stroke-width:0.6;" x="90" xlink:href="#md1805c969a" y="189.964196"/>
      </g>
     </g>
    </g>
    <g id="ytick_20">
     <g id="line2d_58">
      <g>
       <use style="stroke:#000000;stroke-width:0.6;" x="90" xlink:href="#md1805c969a" y="184.910044"/>
      </g>
     </g>
    </g>
    <g id="ytick_21">
     <g id="line2d_59">
      <g>
       <use style="stroke:#000000;stroke-width:0.6;" x="90" xlink:href="#md1805c969a" y="150.645524"/>
      </g>
     </g>
    </g>
    <g id="ytick_22">
     <g id="line2d_60">
      <g>
       <use style="stroke:#000000;stroke-width:0.6;" x="90" xlink:href="#md1805c969a" y="133.246735"/>
      </g>
     </g>
    </g>
    <g id="ytick_23">
     <g id="line2d_61">
      <g>
       <use style="stroke:#000000;stroke-width:0.6;" x="90" xlink:href="#md1805c969a" y="120.902098"/>
      </g>
     </g>
    </g>
    <g id="ytick_24">
     <g id="line2d_62">
      <g>
       <use style="stroke:#000000;stroke-width:0.6;" x="90" xlink:href="#md1805c969a" y="111.326853"/>
      </g>
     </g>
    </g>
    <g id="ytick_25">
     <g id="line2d_63">
      <g>
       <use style="stroke:#000000;stroke-width:0.6;" x="90" xlink:href="#md1805c969a" y="103.503309"/>
      </g>
     </g>
    </g>
    <g id="ytick_26">
     <g id="line2d_64">
      <g>
       <use style="stroke:#000000;stroke-width:0.6;" x="90" xlink:href="#md1805c969a" y="96.888596"/>
      </g>
     </g>
    </g>
    <g id="ytick_27">
     <g id="line2d_65">
      <g>
       <use style="stroke:#000000;stroke-width:0.6;" x="90" xlink:href="#md1805c969a" y="91.158671"/>
      </g>
     </g>
    </g>
    <g id="ytick_28">
     <g id="line2d_66">
      <g>
       <use style="stroke:#000000;stroke-width:0.6;" x="90" xlink:href="#md1805c969a" y="86.104519"/>
      </g>
     </g>
    </g>
    <g id="ytick_29">
     <g id="line2d_67">
      <g>
       <use style="stroke:#000000;stroke-width:0.6;" x="90" xlink:href="#md1805c969a" y="51.84"/>
      </g>
     </g>
    </g>
    <g id="text_10">
     <!-- Average Pellet Count -->
     <g transform="translate(53.420312 267.204375)rotate(-90)scale(0.1 -0.1)">
      <defs>
       <path d="M 34.1875 63.1875 
L 20.796875 26.90625 
L 47.609375 26.90625 
z
M 28.609375 72.90625 
L 39.796875 72.90625 
L 67.578125 0 
L 57.328125 0 
L 50.6875 18.703125 
L 17.828125 18.703125 
L 11.1875 0 
L 0.78125 0 
z
" id="DejaVuSans-65"/>
       <path d="M 2.984375 54.6875 
L 12.5 54.6875 
L 29.59375 8.796875 
L 46.6875 54.6875 
L 56.203125 54.6875 
L 35.6875 0 
L 23.484375 0 
z
" id="DejaVuSans-118"/>
       <path d="M 45.40625 27.984375 
Q 45.40625 37.75 41.375 43.109375 
Q 37.359375 48.484375 30.078125 48.484375 
Q 22.859375 48.484375 18.828125 43.109375 
Q 14.796875 37.75 14.796875 27.984375 
Q 14.796875 18.265625 18.828125 12.890625 
Q 22.859375 7.515625 30.078125 7.515625 
Q 37.359375 7.515625 41.375 12.890625 
Q 45.40625 18.265625 45.40625 27.984375 
z
M 54.390625 6.78125 
Q 54.390625 -7.171875 48.1875 -13.984375 
Q 42 -20.796875 29.203125 -20.796875 
Q 24.46875 -20.796875 20.265625 -20.09375 
Q 16.0625 -19.390625 12.109375 -17.921875 
L 12.109375 -9.1875 
Q 16.0625 -11.328125 19.921875 -12.34375 
Q 23.78125 -13.375 27.78125 -13.375 
Q 36.625 -13.375 41.015625 -8.765625 
Q 45.40625 -4.15625 45.40625 5.171875 
L 45.40625 9.625 
Q 42.625 4.78125 38.28125 2.390625 
Q 33.9375 0 27.875 0 
Q 17.828125 0 11.671875 7.65625 
Q 5.515625 15.328125 5.515625 27.984375 
Q 5.515625 40.671875 11.671875 48.328125 
Q 17.828125 56 27.875 56 
Q 33.9375 56 38.28125 53.609375 
Q 42.625 51.21875 45.40625 46.390625 
L 45.40625 54.6875 
L 54.390625 54.6875 
z
" id="DejaVuSans-103"/>
       <path d="M 9.421875 75.984375 
L 18.40625 75.984375 
L 18.40625 0 
L 9.421875 0 
z
" id="DejaVuSans-108"/>
       <path d="M 18.3125 70.21875 
L 18.3125 54.6875 
L 36.8125 54.6875 
L 36.8125 47.703125 
L 18.3125 47.703125 
L 18.3125 18.015625 
Q 18.3125 11.328125 20.140625 9.421875 
Q 21.96875 7.515625 27.59375 7.515625 
L 36.8125 7.515625 
L 36.8125 0 
L 27.59375 0 
Q 17.1875 0 13.234375 3.875 
Q 9.28125 7.765625 9.28125 18.015625 
L 9.28125 47.703125 
L 2.6875 47.703125 
L 2.6875 54.6875 
L 9.28125 54.6875 
L 9.28125 70.21875 
z
" id="DejaVuSans-116"/>
       <path d="M 64.40625 67.28125 
L 64.40625 56.890625 
Q 59.421875 61.53125 53.78125 63.8125 
Q 48.140625 66.109375 41.796875 66.109375 
Q 29.296875 66.109375 22.65625 58.46875 
Q 16.015625 50.828125 16.015625 36.375 
Q 16.015625 21.96875 22.65625 14.328125 
Q 29.296875 6.6875 41.796875 6.6875 
Q 48.140625 6.6875 53.78125 8.984375 
Q 59.421875 11.28125 64.40625 15.921875 
L 64.40625 5.609375 
Q 59.234375 2.09375 53.4375 0.328125 
Q 47.65625 -1.421875 41.21875 -1.421875 
Q 24.65625 -1.421875 15.125 8.703125 
Q 5.609375 18.84375 5.609375 36.375 
Q 5.609375 53.953125 15.125 64.078125 
Q 24.65625 74.21875 41.21875 74.21875 
Q 47.75 74.21875 53.53125 72.484375 
Q 59.328125 70.75 64.40625 67.28125 
z
" id="DejaVuSans-67"/>
       <path d="M 30.609375 48.390625 
Q 23.390625 48.390625 19.1875 42.75 
Q 14.984375 37.109375 14.984375 27.296875 
Q 14.984375 17.484375 19.15625 11.84375 
Q 23.34375 6.203125 30.609375 6.203125 
Q 37.796875 6.203125 41.984375 11.859375 
Q 46.1875 17.53125 46.1875 27.296875 
Q 46.1875 37.015625 41.984375 42.703125 
Q 37.796875 48.390625 30.609375 48.390625 
z
M 30.609375 56 
Q 42.328125 56 49.015625 48.375 
Q 55.71875 40.765625 55.71875 27.296875 
Q 55.71875 13.875 49.015625 6.21875 
Q 42.328125 -1.421875 30.609375 -1.421875 
Q 18.84375 -1.421875 12.171875 6.21875 
Q 5.515625 13.875 5.515625 27.296875 
Q 5.515625 40.765625 12.171875 48.375 
Q 18.84375 56 30.609375 56 
z
" id="DejaVuSans-111"/>
       <path d="M 8.5 21.578125 
L 8.5 54.6875 
L 17.484375 54.6875 
L 17.484375 21.921875 
Q 17.484375 14.15625 20.5 10.265625 
Q 23.53125 6.390625 29.59375 6.390625 
Q 36.859375 6.390625 41.078125 11.03125 
Q 45.3125 15.671875 45.3125 23.6875 
L 45.3125 54.6875 
L 54.296875 54.6875 
L 54.296875 0 
L 45.3125 0 
L 45.3125 8.40625 
Q 42.046875 3.421875 37.71875 1 
Q 33.40625 -1.421875 27.6875 -1.421875 
Q 18.265625 -1.421875 13.375 4.4375 
Q 8.5 10.296875 8.5 21.578125 
z
M 31.109375 56 
z
" id="DejaVuSans-117"/>
       <path d="M 54.890625 33.015625 
L 54.890625 0 
L 45.90625 0 
L 45.90625 32.71875 
Q 45.90625 40.484375 42.875 44.328125 
Q 39.84375 48.1875 33.796875 48.1875 
Q 26.515625 48.1875 22.3125 43.546875 
Q 18.109375 38.921875 18.109375 30.90625 
L 18.109375 0 
L 9.078125 0 
L 9.078125 54.6875 
L 18.109375 54.6875 
L 18.109375 46.1875 
Q 21.34375 51.125 25.703125 53.5625 
Q 30.078125 56 35.796875 56 
Q 45.21875 56 50.046875 50.171875 
Q 54.890625 44.34375 54.890625 33.015625 
z
" id="DejaVuSans-110"/>
      </defs>
      <use xlink:href="#DejaVuSans-65"/>
      <use x="62.533203" xlink:href="#DejaVuSans-118"/>
      <use x="121.712891" xlink:href="#DejaVuSans-101"/>
      <use x="183.236328" xlink:href="#DejaVuSans-114"/>
      <use x="224.349609" xlink:href="#DejaVuSans-97"/>
      <use x="285.628906" xlink:href="#DejaVuSans-103"/>
      <use x="349.105469" xlink:href="#DejaVuSans-101"/>
      <use x="410.628906" xlink:href="#DejaVuSans-32"/>
      <use x="442.416016" xlink:href="#DejaVuSans-80"/>
      <use x="499.09375" xlink:href="#DejaVuSans-101"/>
      <use x="560.617188" xlink:href="#DejaVuSans-108"/>
      <use x="588.400391" xlink:href="#DejaVuSans-108"/>
      <use x="616.183594" xlink:href="#DejaVuSans-101"/>
      <use x="677.707031" xlink:href="#DejaVuSans-116"/>
      <use x="716.916016" xlink:href="#DejaVuSans-32"/>
      <use x="748.703125" xlink:href="#DejaVuSans-67"/>
      <use x="818.527344" xlink:href="#DejaVuSans-111"/>
      <use x="879.708984" xlink:href="#DejaVuSans-117"/>
      <use x="943.087891" xlink:href="#DejaVuSans-110"/>
      <use x="1006.466797" xlink:href="#DejaVuSans-116"/>
     </g>
    </g>
   </g>
   <g id="LineCollection_1">
    <path clip-path="url(#p647599893b)" d="M 114.338491 114.585212 
L 114.338491 105.812801 
" style="fill:none;stroke:#000000;stroke-width:1.5;"/>
    <path clip-path="url(#p647599893b)" d="M 167.887865 116.170048 
L 167.887865 107.41174 
" style="fill:none;stroke:#000000;stroke-width:1.5;"/>
    <path clip-path="url(#p647599893b)" d="M 199.212241 147.463343 
L 199.212241 139.024983 
" style="fill:none;stroke:#000000;stroke-width:1.5;"/>
    <path clip-path="url(#p647599893b)" d="M 221.437239 149.798529 
L 221.437239 141.969945 
" style="fill:none;stroke:#000000;stroke-width:1.5;"/>
    <path clip-path="url(#p647599893b)" d="M 238.676287 152.775941 
L 238.676287 145.765834 
" style="fill:none;stroke:#000000;stroke-width:1.5;"/>
    <path clip-path="url(#p647599893b)" d="M 252.761615 157.467755 
L 252.761615 151.381614 
" style="fill:none;stroke:#000000;stroke-width:1.5;"/>
    <path clip-path="url(#p647599893b)" d="M 264.67059 161.827646 
L 264.67059 156.453808 
" style="fill:none;stroke:#000000;stroke-width:1.5;"/>
    <path clip-path="url(#p647599893b)" d="M 284.08599 166.678237 
L 284.08599 161.540608 
" style="fill:none;stroke:#000000;stroke-width:1.5;"/>
    <path clip-path="url(#p647599893b)" d="M 292.225661 170.670748 
L 292.225661 165.894682 
" style="fill:none;stroke:#000000;stroke-width:1.5;"/>
    <path clip-path="url(#p647599893b)" d="M 306.310989 175.608161 
L 306.310989 170.263054 
" style="fill:none;stroke:#000000;stroke-width:1.5;"/>
    <path clip-path="url(#p647599893b)" d="M 312.494721 178.846296 
L 312.494721 173.308596 
" style="fill:none;stroke:#000000;stroke-width:1.5;"/>
    <path clip-path="url(#p647599893b)" d="M 323.550037 181.731523 
L 323.550037 176.189912 
" style="fill:none;stroke:#000000;stroke-width:1.5;"/>
    <path clip-path="url(#p647599893b)" d="M 333.219567 185.164433 
L 333.219567 179.315991 
" style="fill:none;stroke:#000000;stroke-width:1.5;"/>
    <path clip-path="url(#p647599893b)" d="M 345.775035 190.227701 
L 345.775035 184.487904 
" style="fill:none;stroke:#000000;stroke-width:1.5;"/>
    <path clip-path="url(#p647599893b)" d="M 353.138262 193.78651 
L 353.138262 188.066205 
" style="fill:none;stroke:#000000;stroke-width:1.5;"/>
    <path clip-path="url(#p647599893b)" d="M 363.014083 197.487244 
L 363.014083 191.679683 
" style="fill:none;stroke:#000000;stroke-width:1.5;"/>
    <path clip-path="url(#p647599893b)" d="M 371.769337 200.210274 
L 371.769337 194.370568 
" style="fill:none;stroke:#000000;stroke-width:1.5;"/>
    <path clip-path="url(#p647599893b)" d="M 382.085361 203.643537 
L 382.085361 197.294414 
" style="fill:none;stroke:#000000;stroke-width:1.5;"/>
    <path clip-path="url(#p647599893b)" d="M 391.184738 208.261967 
L 391.184738 201.338393 
" style="fill:none;stroke:#000000;stroke-width:1.5;"/>
    <path clip-path="url(#p647599893b)" d="M 399.324409 212.860643 
L 399.324409 205.669643 
" style="fill:none;stroke:#000000;stroke-width:1.5;"/>
    <path clip-path="url(#p647599893b)" d="M 408.423786 216.734765 
L 408.423786 208.838546 
" style="fill:none;stroke:#000000;stroke-width:1.5;"/>
    <path clip-path="url(#p647599893b)" d="M 416.563457 219.153433 
L 416.563457 210.929244 
" style="fill:none;stroke:#000000;stroke-width:1.5;"/>
    <path clip-path="url(#p647599893b)" d="M 425.318711 223.464667 
L 425.318711 215.468591 
" style="fill:none;stroke:#000000;stroke-width:1.5;"/>
    <path clip-path="url(#p647599893b)" d="M 433.181976 223.883766 
L 433.181976 216.694762 
" style="fill:none;stroke:#000000;stroke-width:1.5;"/>
    <path clip-path="url(#p647599893b)" d="M 441.446151 230.205312 
L 441.446151 221.593003 
" style="fill:none;stroke:#000000;stroke-width:1.5;"/>
    <path clip-path="url(#p647599893b)" d="M 449.920987 239.550083 
L 449.920987 228.737213 
" style="fill:none;stroke:#000000;stroke-width:1.5;"/>
    <path clip-path="url(#p647599893b)" d="M 458.460945 241.802713 
L 458.460945 230.234981 
" style="fill:none;stroke:#000000;stroke-width:1.5;"/>
    <path clip-path="url(#p647599893b)" d="M 466.150146 246.661904 
L 466.150146 237.12222 
" style="fill:none;stroke:#000000;stroke-width:1.5;"/>
    <path clip-path="url(#p647599893b)" d="M 474.614419 251.553692 
L 474.614419 242.793963 
" style="fill:none;stroke:#000000;stroke-width:1.5;"/>
    <path clip-path="url(#p647599893b)" d="M 482.899717 263.935999 
L 482.899717 250.913582 
" style="fill:none;stroke:#000000;stroke-width:1.5;"/>
    <path clip-path="url(#p647599893b)" d="M 490.973889 268.516028 
L 490.973889 254.998764 
" style="fill:none;stroke:#000000;stroke-width:1.5;"/>
    <path clip-path="url(#p647599893b)" d="M 498.818128 275.848264 
L 498.818128 262.403639 
" style="fill:none;stroke:#000000;stroke-width:1.5;"/>
    <path clip-path="url(#p647599893b)" d="M 506.9045 284.841078 
L 506.9045 271.253113 
" style="fill:none;stroke:#000000;stroke-width:1.5;"/>
    <path clip-path="url(#p647599893b)" d="M 514.659336 298.057609 
L 514.659336 281.138821 
" style="fill:none;stroke:#000000;stroke-width:1.5;"/>
    <path clip-path="url(#p647599893b)" d="M 522.494594 300.853909 
L 522.494594 282.943152 
" style="fill:none;stroke:#000000;stroke-width:1.5;"/>
    <path clip-path="url(#p647599893b)" d="M 530.67347 321.720136 
L 530.67347 296.455864 
" style="fill:none;stroke:#000000;stroke-width:1.5;"/>
    <path clip-path="url(#p647599893b)" d="M 538.38866 349.85924 
L 538.38866 306.654099 
" style="fill:none;stroke:#000000;stroke-width:1.5;"/>
    <path clip-path="url(#p647599893b)" d="M 546.272517 377.524379 
L 546.272517 312.619962 
" style="fill:none;stroke:#000000;stroke-width:1.5;"/>
    <path clip-path="url(#p647599893b)" d="M 554.210137 433 
L 554.210137 315.316104 
" style="fill:none;stroke:#000000;stroke-width:1.5;"/>
    <path clip-path="url(#p647599893b)" d="M 561.880168 433 
L 561.880168 336.764397 
" style="fill:none;stroke:#000000;stroke-width:1.5;"/>
    <path clip-path="url(#p647599893b)" d="M 569.713035 387.575245 
L 569.713035 387.575245 
" style="fill:none;stroke:#000000;stroke-width:1.5;"/>
    <path clip-path="url(#p647599893b)" d="M 577.596893 387.575245 
L 577.596893 387.575245 
" style="fill:none;stroke:#000000;stroke-width:1.5;"/>
    <path clip-path="url(#p647599893b)" d="M 585.447758 387.575245 
L 585.447758 387.575245 
" style="fill:none;stroke:#000000;stroke-width:1.5;"/>
    <path clip-path="url(#p647599893b)" d="M 593.204544 387.575245 
L 593.204544 387.575245 
" style="fill:none;stroke:#000000;stroke-width:1.5;"/>
    <path clip-path="url(#p647599893b)" d="M 601.10832 387.575245 
L 601.10832 387.575245 
" style="fill:none;stroke:#000000;stroke-width:1.5;"/>
   </g>
   <g id="line2d_68">
    <path clip-path="url(#p647599893b)" d="M 114.338491 94.504055 
L 167.887865 95.679764 
L 199.212241 126.632023 
L 221.437239 127.875898 
L 238.676287 129.156909 
L 252.761615 136.207267 
L 264.67059 142.82198 
L 284.08599 148.551905 
L 292.225661 152.846555 
L 306.310989 155.166617 
L 312.494721 162.990162 
L 323.550037 162.990162 
L 333.219567 165.950694 
L 345.775035 176.299125 
L 353.138262 184.910044 
L 363.014083 189.964196 
L 371.769337 189.964196 
L 382.085361 189.964196 
L 391.184738 195.69412 
L 399.324409 195.69412 
L 408.423786 219.707622 
L 416.563457 232.05226 
L 425.318711 249.451049 
L 433.181976 249.451049 
L 441.446151 279.194476 
L 449.920987 279.194476 
" style="fill:none;stroke:#0000ff;stroke-linecap:square;stroke-opacity:0.3;"/>
   </g>
   <g id="line2d_69">
    <path clip-path="url(#p647599893b)" d="M 114.338491 87.559259 
L 167.887865 88.055341 
L 199.212241 117.798768 
L 221.437239 117.798768 
L 238.676287 124.247482 
L 252.761615 136.207267 
L 264.67059 146.555699 
L 284.08599 148.551905 
L 292.225661 157.619325 
L 306.310989 157.619325 
L 312.494721 162.990162 
L 323.550037 172.565407 
L 333.219567 176.299125 
L 345.775035 195.69412 
L 353.138262 210.132378 
L 363.014083 210.132378 
L 371.769337 210.132378 
L 382.085361 219.707622 
L 391.184738 232.05226 
L 399.324409 232.05226 
L 408.423786 249.451049 
L 416.563457 279.194476 
L 425.318711 279.194476 
" style="fill:none;stroke:#0000ff;stroke-linecap:square;stroke-opacity:0.3;"/>
   </g>
   <g id="line2d_70">
    <path clip-path="url(#p647599893b)" d="M 114.338491 165.950694 
L 167.887865 172.565407 
L 199.212241 202.308833 
L 221.437239 210.132378 
L 238.676287 210.132378 
L 252.761615 210.132378 
L 264.67059 210.132378 
L 284.08599 210.132378 
L 292.225661 210.132378 
L 306.310989 210.132378 
L 312.494721 210.132378 
L 323.550037 210.132378 
L 333.219567 210.132378 
L 345.775035 210.132378 
L 353.138262 210.132378 
L 363.014083 210.132378 
L 371.769337 210.132378 
L 382.085361 210.132378 
L 391.184738 210.132378 
L 399.324409 219.707622 
L 408.423786 219.707622 
L 416.563457 219.707622 
L 425.318711 219.707622 
L 433.181976 219.707622 
L 441.446151 219.707622 
L 449.920987 219.707622 
L 458.460945 219.707622 
L 466.150146 219.707622 
L 474.614419 219.707622 
L 482.899717 219.707622 
L 490.973889 232.05226 
L 498.818128 232.05226 
L 506.9045 232.05226 
L 514.659336 232.05226 
L 522.494594 232.05226 
L 530.67347 232.05226 
L 538.38866 232.05226 
L 546.272517 232.05226 
L 554.210137 232.05226 
L 561.880168 249.451049 
L 569.713035 279.194476 
L 577.596893 279.194476 
L 585.447758 279.194476 
L 593.204544 279.194476 
L 601.10832 279.194476 
" style="fill:none;stroke:#0000ff;stroke-linecap:square;stroke-opacity:0.3;"/>
   </g>
   <g id="line2d_71">
    <path clip-path="url(#p647599893b)" d="M 114.338491 113.078553 
L 167.887865 120.902098 
L 199.212241 150.645524 
L 221.437239 150.645524 
L 238.676287 150.645524 
L 252.761615 152.846555 
L 264.67059 155.166617 
L 284.08599 157.619325 
L 292.225661 157.619325 
L 306.310989 160.220769 
L 312.494721 160.220769 
L 323.550037 160.220769 
L 333.219567 160.220769 
L 345.775035 165.950694 
L 353.138262 165.950694 
L 363.014083 169.130718 
L 371.769337 172.565407 
L 382.085361 172.565407 
L 391.184738 176.299125 
L 399.324409 189.964196 
L 408.423786 195.69412 
L 416.563457 195.69412 
L 425.318711 202.308833 
L 433.181976 202.308833 
L 441.446151 202.308833 
L 449.920987 232.05226 
L 458.460945 249.451049 
L 466.150146 249.451049 
L 474.614419 249.451049 
L 482.899717 249.451049 
L 490.973889 249.451049 
L 498.818128 279.194476 
L 506.9045 279.194476 
L 514.659336 279.194476 
L 522.494594 279.194476 
L 530.67347 279.194476 
" style="fill:none;stroke:#0000ff;stroke-linecap:square;stroke-opacity:0.3;"/>
   </g>
   <g id="line2d_72">
    <path clip-path="url(#p647599893b)" d="M 114.338491 130.477343 
L 167.887865 130.477343 
L 199.212241 160.220769 
L 221.437239 160.220769 
L 238.676287 160.220769 
L 252.761615 160.220769 
L 264.67059 162.990162 
L 284.08599 162.990162 
L 292.225661 162.990162 
L 306.310989 162.990162 
L 312.494721 162.990162 
L 323.550037 162.990162 
L 333.219567 169.130718 
L 345.775035 172.565407 
L 353.138262 195.69412 
L 363.014083 195.69412 
L 371.769337 195.69412 
L 382.085361 189.964196 
L 391.184738 195.69412 
L 399.324409 195.69412 
L 408.423786 202.308833 
L 416.563457 210.132378 
L 425.318711 219.707622 
L 433.181976 219.707622 
L 441.446151 232.05226 
L 449.920987 232.05226 
L 458.460945 249.451049 
L 466.150146 249.451049 
L 474.614419 279.194476 
" style="fill:none;stroke:#0000ff;stroke-linecap:square;stroke-opacity:0.3;"/>
   </g>
   <g id="line2d_73">
    <path clip-path="url(#p647599893b)" d="M 114.338491 136.207267 
L 167.887865 136.207267 
L 199.212241 165.950694 
L 221.437239 165.950694 
L 238.676287 165.950694 
L 252.761615 165.950694 
L 264.67059 165.950694 
L 284.08599 169.130718 
L 292.225661 169.130718 
L 306.310989 169.130718 
L 312.494721 172.565407 
L 323.550037 172.565407 
L 333.219567 176.299125 
L 345.775035 184.910044 
L 353.138262 184.910044 
L 363.014083 184.910044 
L 371.769337 189.964196 
L 382.085361 195.69412 
L 391.184738 202.308833 
L 399.324409 202.308833 
L 408.423786 202.308833 
L 416.563457 202.308833 
L 425.318711 210.132378 
L 433.181976 202.308833 
L 441.446151 202.308833 
L 449.920987 219.707622 
L 458.460945 219.707622 
L 466.150146 219.707622 
L 474.614419 219.707622 
L 482.899717 219.707622 
L 490.973889 219.707622 
L 498.818128 232.05226 
L 506.9045 249.451049 
L 514.659336 279.194476 
" style="fill:none;stroke:#0000ff;stroke-linecap:square;stroke-opacity:0.3;"/>
   </g>
   <g id="line2d_74">
    <path clip-path="url(#p647599893b)" d="M 114.338491 79.083067 
L 167.887865 79.083067 
L 199.212241 113.078553 
L 221.437239 123.103129 
L 238.676287 139.387292 
L 252.761615 148.551905 
L 264.67059 165.950694 
L 284.08599 172.565407 
L 292.225661 176.299125 
L 306.310989 195.69412 
L 312.494721 202.308833 
L 323.550037 210.132378 
L 333.219567 219.707622 
L 345.775035 219.707622 
L 353.138262 219.707622 
L 363.014083 219.707622 
L 371.769337 232.05226 
L 382.085361 249.451049 
L 391.184738 279.194476 
" style="fill:none;stroke:#0000ff;stroke-linecap:square;stroke-opacity:0.3;"/>
   </g>
   <g id="line2d_75">
    <path clip-path="url(#p647599893b)" d="M 114.338491 98.768197 
L 167.887865 100.733916 
L 199.212241 131.839701 
L 221.437239 134.701474 
L 238.676287 137.767828 
L 252.761615 142.82198 
L 264.67059 146.555699 
L 284.08599 150.645524 
L 292.225661 152.846555 
L 306.310989 160.220769 
L 312.494721 160.220769 
L 323.550037 165.950694 
L 333.219567 176.299125 
L 345.775035 180.388951 
L 353.138262 184.910044 
L 363.014083 195.69412 
L 371.769337 210.132378 
L 382.085361 219.707622 
L 391.184738 232.05226 
L 399.324409 279.194476 
L 408.423786 279.194476 
L 416.563457 279.194476 
" style="fill:none;stroke:#0000ff;stroke-linecap:square;stroke-opacity:0.3;"/>
   </g>
   <g id="line2d_76">
    <path clip-path="url(#p647599893b)" d="M 114.338491 94.504055 
L 167.887865 94.504055 
L 199.212241 124.247482 
L 221.437239 127.875898 
L 238.676287 129.156909 
L 252.761615 133.246735 
L 264.67059 139.387292 
L 284.08599 146.555699 
L 292.225661 152.846555 
L 306.310989 162.990162 
L 312.494721 162.990162 
L 323.550037 165.950694 
L 333.219567 169.130718 
L 345.775035 172.565407 
L 353.138262 184.910044 
L 363.014083 195.69412 
L 371.769337 202.308833 
L 382.085361 202.308833 
L 391.184738 210.132378 
L 399.324409 219.707622 
L 408.423786 219.707622 
L 416.563457 219.707622 
L 425.318711 232.05226 
L 433.181976 232.05226 
L 441.446151 249.451049 
L 449.920987 279.194476 
L 458.460945 279.194476 
L 466.150146 279.194476 
" style="fill:none;stroke:#0000ff;stroke-linecap:square;stroke-opacity:0.3;"/>
   </g>
   <g id="line2d_77">
    <path clip-path="url(#p647599893b)" d="M 114.338491 136.207267 
L 167.887865 136.207267 
L 199.212241 165.950694 
L 221.437239 165.950694 
L 238.676287 165.950694 
L 252.761615 165.950694 
L 264.67059 169.130718 
L 284.08599 180.388951 
L 292.225661 180.388951 
L 306.310989 184.910044 
L 312.494721 189.964196 
L 323.550037 189.964196 
L 333.219567 195.69412 
L 345.775035 195.69412 
L 353.138262 195.69412 
L 363.014083 195.69412 
L 371.769337 195.69412 
L 382.085361 195.69412 
L 391.184738 195.69412 
L 399.324409 195.69412 
L 408.423786 195.69412 
L 416.563457 195.69412 
L 425.318711 195.69412 
L 433.181976 195.69412 
L 441.446151 195.69412 
L 449.920987 195.69412 
L 458.460945 195.69412 
L 466.150146 202.308833 
L 474.614419 232.05226 
L 482.899717 232.05226 
L 490.973889 232.05226 
L 498.818128 232.05226 
L 506.9045 232.05226 
L 514.659336 279.194476 
" style="fill:none;stroke:#0000ff;stroke-linecap:square;stroke-opacity:0.3;"/>
   </g>
   <g id="line2d_78">
    <path clip-path="url(#p647599893b)" d="M 114.338491 114.904816 
L 167.887865 114.904816 
L 199.212241 144.648243 
L 221.437239 146.555699 
L 238.676287 150.645524 
L 252.761615 152.846555 
L 264.67059 157.619325 
L 284.08599 162.990162 
L 292.225661 165.950694 
L 306.310989 169.130718 
L 312.494721 180.388951 
L 323.550037 184.910044 
L 333.219567 189.964196 
L 345.775035 189.964196 
L 353.138262 189.964196 
L 363.014083 189.964196 
L 371.769337 189.964196 
L 382.085361 202.308833 
L 391.184738 202.308833 
L 399.324409 210.132378 
L 408.423786 210.132378 
L 416.563457 210.132378 
L 425.318711 210.132378 
L 433.181976 210.132378 
L 441.446151 210.132378 
L 449.920987 219.707622 
L 458.460945 219.707622 
L 466.150146 232.05226 
L 474.614419 232.05226 
L 482.899717 279.194476 
L 490.973889 279.194476 
L 498.818128 279.194476 
" style="fill:none;stroke:#0000ff;stroke-linecap:square;stroke-opacity:0.3;"/>
   </g>
   <g id="line2d_79">
    <path clip-path="url(#p647599893b)" d="M 114.338491 144.648243 
L 167.887865 146.555699 
L 199.212241 176.299125 
L 221.437239 176.299125 
L 238.676287 176.299125 
L 252.761615 176.299125 
L 264.67059 176.299125 
L 284.08599 176.299125 
L 292.225661 176.299125 
L 306.310989 176.299125 
L 312.494721 176.299125 
L 323.550037 176.299125 
L 333.219567 176.299125 
L 345.775035 184.910044 
L 353.138262 189.964196 
L 363.014083 189.964196 
L 371.769337 189.964196 
L 382.085361 189.964196 
L 391.184738 189.964196 
L 399.324409 189.964196 
L 408.423786 189.964196 
L 416.563457 189.964196 
L 425.318711 202.308833 
L 433.181976 202.308833 
L 441.446151 210.132378 
L 449.920987 210.132378 
L 458.460945 210.132378 
L 466.150146 210.132378 
L 474.614419 210.132378 
L 482.899717 219.707622 
L 490.973889 219.707622 
L 498.818128 232.05226 
L 506.9045 232.05226 
L 514.659336 279.194476 
L 522.494594 249.451049 
L 530.67347 279.194476 
L 538.38866 279.194476 
L 546.272517 279.194476 
L 554.210137 279.194476 
" style="fill:none;stroke:#0000ff;stroke-linecap:square;stroke-opacity:0.3;"/>
   </g>
   <g id="line2d_80">
    <path clip-path="url(#p647599893b)" d="M 114.338491 172.565407 
L 167.887865 172.565407 
L 199.212241 202.308833 
L 221.437239 202.308833 
L 238.676287 202.308833 
L 252.761615 202.308833 
L 264.67059 202.308833 
L 284.08599 202.308833 
L 292.225661 202.308833 
L 306.310989 202.308833 
L 312.494721 202.308833 
L 323.550037 202.308833 
L 333.219567 202.308833 
L 345.775035 202.308833 
L 353.138262 210.132378 
L 363.014083 210.132378 
L 371.769337 210.132378 
L 382.085361 210.132378 
L 391.184738 210.132378 
L 399.324409 210.132378 
L 408.423786 210.132378 
L 416.563457 210.132378 
L 425.318711 210.132378 
L 433.181976 210.132378 
L 441.446151 210.132378 
L 449.920987 210.132378 
L 458.460945 210.132378 
L 466.150146 219.707622 
L 474.614419 219.707622 
L 482.899717 219.707622 
L 490.973889 219.707622 
L 498.818128 232.05226 
L 506.9045 249.451049 
L 514.659336 249.451049 
L 522.494594 249.451049 
L 530.67347 249.451049 
L 538.38866 249.451049 
L 546.272517 279.194476 
" style="fill:none;stroke:#0000ff;stroke-linecap:square;stroke-opacity:0.3;"/>
   </g>
   <g id="line2d_81">
    <path clip-path="url(#p647599893b)" d="M 114.338491 95.087883 
L 167.887865 102.096275 
L 199.212241 133.246735 
L 221.437239 139.387292 
L 238.676287 142.82198 
L 252.761615 160.220769 
L 264.67059 162.990162 
L 284.08599 169.130718 
L 292.225661 176.299125 
L 306.310989 184.910044 
L 312.494721 189.964196 
L 323.550037 189.964196 
L 333.219567 202.308833 
L 345.775035 210.132378 
L 353.138262 210.132378 
L 363.014083 219.707622 
L 371.769337 219.707622 
L 382.085361 219.707622 
L 391.184738 232.05226 
L 399.324409 232.05226 
L 408.423786 232.05226 
L 416.563457 232.05226 
L 425.318711 249.451049 
L 433.181976 249.451049 
L 441.446151 249.451049 
L 449.920987 279.194476 
L 458.460945 279.194476 
" style="fill:none;stroke:#0000ff;stroke-linecap:square;stroke-opacity:0.3;"/>
   </g>
   <g id="line2d_82">
    <path clip-path="url(#p647599893b)" d="M 114.338491 117.798768 
L 167.887865 118.808478 
L 199.212241 148.551905 
L 221.437239 148.551905 
L 238.676287 148.551905 
L 252.761615 152.846555 
L 264.67059 155.166617 
L 284.08599 160.220769 
L 292.225661 165.950694 
L 306.310989 169.130718 
L 312.494721 169.130718 
L 323.550037 172.565407 
L 333.219567 176.299125 
L 345.775035 180.388951 
L 353.138262 180.388951 
L 363.014083 184.910044 
L 371.769337 189.964196 
L 382.085361 195.69412 
L 391.184738 195.69412 
L 399.324409 195.69412 
L 408.423786 195.69412 
L 416.563457 195.69412 
L 425.318711 195.69412 
L 433.181976 195.69412 
L 441.446151 202.308833 
L 449.920987 210.132378 
L 458.460945 202.308833 
L 466.150146 219.707622 
L 474.614419 232.05226 
L 482.899717 232.05226 
L 490.973889 232.05226 
L 498.818128 232.05226 
L 506.9045 279.194476 
" style="fill:none;stroke:#0000ff;stroke-linecap:square;stroke-opacity:0.3;"/>
   </g>
   <g id="line2d_83">
    <path clip-path="url(#p647599893b)" d="M 114.338491 84.238543 
L 167.887865 89.065051 
L 199.212241 127.875898 
L 221.437239 136.207267 
L 238.676287 137.767828 
L 252.761615 146.555699 
L 264.67059 157.619325 
L 284.08599 162.990162 
L 292.225661 165.950694 
L 306.310989 176.299125 
L 312.494721 184.910044 
L 323.550037 189.964196 
L 333.219567 189.964196 
L 345.775035 195.69412 
L 353.138262 195.69412 
L 363.014083 210.132378 
L 371.769337 219.707622 
L 382.085361 219.707622 
L 391.184738 219.707622 
L 399.324409 232.05226 
L 408.423786 232.05226 
L 416.563457 232.05226 
L 425.318711 232.05226 
L 433.181976 232.05226 
L 441.446151 232.05226 
L 449.920987 279.194476 
L 458.460945 279.194476 
" style="fill:none;stroke:#0000ff;stroke-linecap:square;stroke-opacity:0.3;"/>
   </g>
   <g id="line2d_84">
    <path clip-path="url(#p647599893b)" d="M 114.338491 105.70434 
L 167.887865 106.463841 
L 199.212241 136.207267 
L 221.437239 136.207267 
L 238.676287 142.82198 
L 252.761615 148.551905 
L 264.67059 150.645524 
L 284.08599 160.220769 
L 292.225661 172.565407 
L 306.310989 180.388951 
L 312.494721 180.388951 
L 323.550037 189.964196 
L 333.219567 189.964196 
L 345.775035 189.964196 
L 353.138262 184.910044 
L 363.014083 189.964196 
L 371.769337 189.964196 
L 382.085361 195.69412 
L 391.184738 210.132378 
L 399.324409 232.05226 
L 408.423786 249.451049 
L 416.563457 249.451049 
L 425.318711 249.451049 
L 433.181976 249.451049 
" style="fill:none;stroke:#0000ff;stroke-linecap:square;stroke-opacity:0.3;"/>
   </g>
   <g id="line2d_85">
    <path clip-path="url(#p647599893b)" d="M 114.338491 92.245076 
L 167.887865 92.245076 
L 199.212241 121.988503 
L 221.437239 126.632023 
L 238.676287 133.246735 
L 252.761615 141.07028 
L 264.67059 148.551905 
L 284.08599 160.220769 
L 292.225661 172.565407 
L 306.310989 189.964196 
L 312.494721 202.308833 
L 323.550037 202.308833 
L 333.219567 202.308833 
L 345.775035 210.132378 
L 353.138262 219.707622 
L 363.014083 232.05226 
L 371.769337 232.05226 
L 382.085361 232.05226 
L 391.184738 232.05226 
L 399.324409 232.05226 
L 408.423786 232.05226 
L 416.563457 232.05226 
L 425.318711 232.05226 
L 433.181976 232.05226 
L 441.446151 232.05226 
L 449.920987 232.05226 
L 458.460945 232.05226 
L 466.150146 232.05226 
L 474.614419 232.05226 
L 482.899717 279.194476 
L 490.973889 279.194476 
L 498.818128 279.194476 
L 506.9045 279.194476 
L 514.659336 279.194476 
" style="fill:none;stroke:#0000ff;stroke-linecap:square;stroke-opacity:0.3;"/>
   </g>
   <g id="line2d_86">
    <path clip-path="url(#p647599893b)" d="M 114.338491 114.904816 
L 167.887865 115.847946 
L 199.212241 150.645524 
L 221.437239 150.645524 
L 238.676287 150.645524 
L 252.761615 150.645524 
L 264.67059 155.166617 
L 284.08599 157.619325 
L 292.225661 160.220769 
L 306.310989 162.990162 
L 312.494721 165.950694 
L 323.550037 165.950694 
L 333.219567 165.950694 
L 345.775035 165.950694 
L 353.138262 169.130718 
L 363.014083 172.565407 
L 371.769337 176.299125 
L 382.085361 176.299125 
L 391.184738 180.388951 
L 399.324409 184.910044 
L 408.423786 184.910044 
L 416.563457 184.910044 
L 425.318711 189.964196 
L 433.181976 202.308833 
L 441.446151 210.132378 
L 449.920987 202.308833 
L 458.460945 202.308833 
L 466.150146 210.132378 
L 474.614419 210.132378 
L 482.899717 219.707622 
L 490.973889 232.05226 
L 498.818128 249.451049 
L 506.9045 249.451049 
L 514.659336 249.451049 
L 522.494594 249.451049 
L 530.67347 249.451049 
L 538.38866 279.194476 
L 546.272517 279.194476 
L 554.210137 279.194476 
L 561.880168 279.194476 
L 569.713035 279.194476 
L 577.596893 279.194476 
L 585.447758 279.194476 
L 593.204544 279.194476 
L 601.10832 279.194476 
" style="fill:none;stroke:#0000ff;stroke-linecap:square;stroke-opacity:0.3;"/>
   </g>
   <g id="line2d_87">
    <path clip-path="url(#p647599893b)" d="M 114.338491 104.958048 
L 167.887865 104.958048 
L 199.212241 136.207267 
L 221.437239 137.767828 
L 238.676287 141.07028 
L 252.761615 142.82198 
L 264.67059 148.551905 
L 284.08599 150.645524 
L 292.225661 157.619325 
L 306.310989 162.990162 
L 312.494721 169.130718 
L 323.550037 172.565407 
L 333.219567 176.299125 
L 345.775035 176.299125 
L 353.138262 180.388951 
L 363.014083 184.910044 
L 371.769337 189.964196 
L 382.085361 202.308833 
L 391.184738 210.132378 
L 399.324409 210.132378 
L 408.423786 219.707622 
L 416.563457 219.707622 
L 425.318711 219.707622 
L 433.181976 219.707622 
L 441.446151 232.05226 
L 449.920987 249.451049 
L 458.460945 249.451049 
L 466.150146 249.451049 
L 474.614419 249.451049 
L 482.899717 279.194476 
L 490.973889 279.194476 
" style="fill:none;stroke:#0000ff;stroke-linecap:square;stroke-opacity:0.3;"/>
   </g>
   <g id="line2d_88">
    <path clip-path="url(#p647599893b)" d="M 114.338491 110.477109 
L 167.887865 112.193765 
L 199.212241 144.648243 
L 221.437239 144.648243 
L 238.676287 144.648243 
L 252.761615 150.645524 
L 264.67059 152.846555 
L 284.08599 157.619325 
L 292.225661 162.990162 
L 306.310989 162.990162 
L 312.494721 165.950694 
L 323.550037 180.388951 
L 333.219567 176.299125 
L 345.775035 184.910044 
L 353.138262 184.910044 
L 363.014083 189.964196 
L 371.769337 189.964196 
L 382.085361 195.69412 
L 391.184738 202.308833 
L 399.324409 202.308833 
L 408.423786 219.707622 
L 416.563457 219.707622 
L 425.318711 219.707622 
L 433.181976 219.707622 
L 441.446151 232.05226 
L 449.920987 232.05226 
L 458.460945 232.05226 
L 466.150146 232.05226 
L 474.614419 232.05226 
L 482.899717 279.194476 
L 490.973889 279.194476 
L 498.818128 279.194476 
L 506.9045 279.194476 
L 514.659336 279.194476 
L 522.494594 279.194476 
" style="fill:none;stroke:#0000ff;stroke-linecap:square;stroke-opacity:0.3;"/>
   </g>
   <g id="line2d_89">
    <path clip-path="url(#p647599893b)" d="M 114.338491 142.82198 
L 167.887865 142.82198 
L 199.212241 172.565407 
L 221.437239 172.565407 
L 238.676287 172.565407 
L 252.761615 172.565407 
L 264.67059 172.565407 
L 284.08599 172.565407 
L 292.225661 176.299125 
L 306.310989 176.299125 
L 312.494721 176.299125 
L 323.550037 176.299125 
L 333.219567 180.388951 
L 345.775035 184.910044 
L 353.138262 184.910044 
L 363.014083 184.910044 
L 371.769337 189.964196 
L 382.085361 195.69412 
L 391.184738 195.69412 
L 399.324409 195.69412 
L 408.423786 195.69412 
L 416.563457 202.308833 
L 425.318711 210.132378 
L 433.181976 210.132378 
L 441.446151 210.132378 
L 449.920987 210.132378 
L 458.460945 219.707622 
L 466.150146 219.707622 
L 474.614419 219.707622 
L 482.899717 219.707622 
L 490.973889 219.707622 
L 498.818128 219.707622 
L 506.9045 232.05226 
L 514.659336 232.05226 
L 522.494594 232.05226 
L 530.67347 279.194476 
L 538.38866 279.194476 
L 546.272517 279.194476 
" style="fill:none;stroke:#0000ff;stroke-linecap:square;stroke-opacity:0.3;"/>
   </g>
   <g id="line2d_90">
    <path clip-path="url(#p647599893b)" d="M 114.338491 133.246735 
L 167.887865 133.246735 
L 199.212241 165.950694 
L 221.437239 165.950694 
L 238.676287 165.950694 
L 252.761615 165.950694 
L 264.67059 165.950694 
L 284.08599 169.130718 
L 292.225661 169.130718 
L 306.310989 169.130718 
L 312.494721 169.130718 
L 323.550037 172.565407 
L 333.219567 176.299125 
L 345.775035 184.910044 
L 353.138262 184.910044 
L 363.014083 189.964196 
L 371.769337 189.964196 
L 382.085361 195.69412 
L 391.184738 202.308833 
L 399.324409 202.308833 
L 408.423786 202.308833 
L 416.563457 210.132378 
L 425.318711 210.132378 
L 433.181976 210.132378 
L 441.446151 219.707622 
L 449.920987 232.05226 
L 458.460945 232.05226 
L 466.150146 232.05226 
L 474.614419 232.05226 
L 482.899717 232.05226 
L 490.973889 249.451049 
L 498.818128 249.451049 
L 506.9045 249.451049 
L 514.659336 249.451049 
L 522.494594 232.05226 
L 530.67347 279.194476 
L 538.38866 279.194476 
" style="fill:none;stroke:#0000ff;stroke-linecap:square;stroke-opacity:0.3;"/>
   </g>
   <g id="line2d_91">
    <path clip-path="url(#p647599893b)" d="M 114.338491 93.928064 
L 167.887865 96.279923 
L 199.212241 129.156909 
L 221.437239 133.246735 
L 238.676287 141.07028 
L 252.761615 150.645524 
L 264.67059 155.166617 
L 284.08599 172.565407 
L 292.225661 180.388951 
L 306.310989 202.308833 
L 312.494721 202.308833 
L 323.550037 202.308833 
L 333.219567 219.707622 
L 345.775035 219.707622 
L 353.138262 219.707622 
L 363.014083 219.707622 
L 371.769337 219.707622 
L 382.085361 219.707622 
L 391.184738 219.707622 
L 399.324409 232.05226 
L 408.423786 232.05226 
L 416.563457 232.05226 
L 425.318711 232.05226 
L 433.181976 232.05226 
L 441.446151 249.451049 
L 449.920987 279.194476 
L 458.460945 279.194476 
" style="fill:none;stroke:#0000ff;stroke-linecap:square;stroke-opacity:0.3;"/>
   </g>
   <g id="line2d_92">
    <path clip-path="url(#p647599893b)" d="M 114.338491 146.555699 
L 167.887865 146.555699 
L 199.212241 176.299125 
L 221.437239 176.299125 
L 238.676287 176.299125 
L 252.761615 176.299125 
L 264.67059 176.299125 
L 284.08599 176.299125 
L 292.225661 176.299125 
L 306.310989 176.299125 
L 312.494721 180.388951 
L 323.550037 180.388951 
L 333.219567 180.388951 
L 345.775035 189.964196 
L 353.138262 189.964196 
L 363.014083 189.964196 
L 371.769337 189.964196 
L 382.085361 189.964196 
L 391.184738 189.964196 
L 399.324409 189.964196 
L 408.423786 189.964196 
L 416.563457 195.69412 
L 425.318711 195.69412 
L 433.181976 195.69412 
L 441.446151 195.69412 
L 449.920987 210.132378 
L 458.460945 210.132378 
L 466.150146 210.132378 
L 474.614419 219.707622 
L 482.899717 232.05226 
L 490.973889 249.451049 
L 498.818128 249.451049 
L 506.9045 249.451049 
L 514.659336 249.451049 
L 522.494594 249.451049 
L 530.67347 249.451049 
" style="fill:none;stroke:#0000ff;stroke-linecap:square;stroke-opacity:0.3;"/>
   </g>
   <g id="line2d_93">
    <defs>
     <path d="M 3 0 
L -3 -0 
" id="m1e2ee860e5" style="stroke:#000000;"/>
    </defs>
    <g clip-path="url(#p647599893b)">
     <use style="stroke:#000000;" x="114.338491" xlink:href="#m1e2ee860e5" y="114.585212"/>
     <use style="stroke:#000000;" x="167.887865" xlink:href="#m1e2ee860e5" y="116.170048"/>
     <use style="stroke:#000000;" x="199.212241" xlink:href="#m1e2ee860e5" y="147.463343"/>
     <use style="stroke:#000000;" x="221.437239" xlink:href="#m1e2ee860e5" y="149.798529"/>
     <use style="stroke:#000000;" x="238.676287" xlink:href="#m1e2ee860e5" y="152.775941"/>
     <use style="stroke:#000000;" x="252.761615" xlink:href="#m1e2ee860e5" y="157.467755"/>
     <use style="stroke:#000000;" x="264.67059" xlink:href="#m1e2ee860e5" y="161.827646"/>
     <use style="stroke:#000000;" x="284.08599" xlink:href="#m1e2ee860e5" y="166.678237"/>
     <use style="stroke:#000000;" x="292.225661" xlink:href="#m1e2ee860e5" y="170.670748"/>
     <use style="stroke:#000000;" x="306.310989" xlink:href="#m1e2ee860e5" y="175.608161"/>
     <use style="stroke:#000000;" x="312.494721" xlink:href="#m1e2ee860e5" y="178.846296"/>
     <use style="stroke:#000000;" x="323.550037" xlink:href="#m1e2ee860e5" y="181.731523"/>
     <use style="stroke:#000000;" x="333.219567" xlink:href="#m1e2ee860e5" y="185.164433"/>
     <use style="stroke:#000000;" x="345.775035" xlink:href="#m1e2ee860e5" y="190.227701"/>
     <use style="stroke:#000000;" x="353.138262" xlink:href="#m1e2ee860e5" y="193.78651"/>
     <use style="stroke:#000000;" x="363.014083" xlink:href="#m1e2ee860e5" y="197.487244"/>
     <use style="stroke:#000000;" x="371.769337" xlink:href="#m1e2ee860e5" y="200.210274"/>
     <use style="stroke:#000000;" x="382.085361" xlink:href="#m1e2ee860e5" y="203.643537"/>
     <use style="stroke:#000000;" x="391.184738" xlink:href="#m1e2ee860e5" y="208.261967"/>
     <use style="stroke:#000000;" x="399.324409" xlink:href="#m1e2ee860e5" y="212.860643"/>
     <use style="stroke:#000000;" x="408.423786" xlink:href="#m1e2ee860e5" y="216.734765"/>
     <use style="stroke:#000000;" x="416.563457" xlink:href="#m1e2ee860e5" y="219.153433"/>
     <use style="stroke:#000000;" x="425.318711" xlink:href="#m1e2ee860e5" y="223.464667"/>
     <use style="stroke:#000000;" x="433.181976" xlink:href="#m1e2ee860e5" y="223.883766"/>
     <use style="stroke:#000000;" x="441.446151" xlink:href="#m1e2ee860e5" y="230.205312"/>
     <use style="stroke:#000000;" x="449.920987" xlink:href="#m1e2ee860e5" y="239.550083"/>
     <use style="stroke:#000000;" x="458.460945" xlink:href="#m1e2ee860e5" y="241.802713"/>
     <use style="stroke:#000000;" x="466.150146" xlink:href="#m1e2ee860e5" y="246.661904"/>
     <use style="stroke:#000000;" x="474.614419" xlink:href="#m1e2ee860e5" y="251.553692"/>
     <use style="stroke:#000000;" x="482.899717" xlink:href="#m1e2ee860e5" y="263.935999"/>
     <use style="stroke:#000000;" x="490.973889" xlink:href="#m1e2ee860e5" y="268.516028"/>
     <use style="stroke:#000000;" x="498.818128" xlink:href="#m1e2ee860e5" y="275.848264"/>
     <use style="stroke:#000000;" x="506.9045" xlink:href="#m1e2ee860e5" y="284.841078"/>
     <use style="stroke:#000000;" x="514.659336" xlink:href="#m1e2ee860e5" y="298.057609"/>
     <use style="stroke:#000000;" x="522.494594" xlink:href="#m1e2ee860e5" y="300.853909"/>
     <use style="stroke:#000000;" x="530.67347" xlink:href="#m1e2ee860e5" y="321.720136"/>
     <use style="stroke:#000000;" x="538.38866" xlink:href="#m1e2ee860e5" y="349.85924"/>
     <use style="stroke:#000000;" x="546.272517" xlink:href="#m1e2ee860e5" y="377.524379"/>
     <use style="stroke:#000000;" x="548.743492" xlink:href="#m1e2ee860e5" y="31105"/>
     <use style="stroke:#000000;" x="567.275219" xlink:href="#m1e2ee860e5" y="31105"/>
     <use style="stroke:#000000;" x="569.713035" xlink:href="#m1e2ee860e5" y="387.575245"/>
     <use style="stroke:#000000;" x="577.596893" xlink:href="#m1e2ee860e5" y="387.575245"/>
     <use style="stroke:#000000;" x="585.447758" xlink:href="#m1e2ee860e5" y="387.575245"/>
     <use style="stroke:#000000;" x="593.204544" xlink:href="#m1e2ee860e5" y="387.575245"/>
     <use style="stroke:#000000;" x="601.10832" xlink:href="#m1e2ee860e5" y="387.575245"/>
    </g>
   </g>
   <g id="line2d_94">
    <g clip-path="url(#p647599893b)">
     <use style="stroke:#000000;" x="114.338491" xlink:href="#m1e2ee860e5" y="105.812801"/>
     <use style="stroke:#000000;" x="167.887865" xlink:href="#m1e2ee860e5" y="107.41174"/>
     <use style="stroke:#000000;" x="199.212241" xlink:href="#m1e2ee860e5" y="139.024983"/>
     <use style="stroke:#000000;" x="221.437239" xlink:href="#m1e2ee860e5" y="141.969945"/>
     <use style="stroke:#000000;" x="238.676287" xlink:href="#m1e2ee860e5" y="145.765834"/>
     <use style="stroke:#000000;" x="252.761615" xlink:href="#m1e2ee860e5" y="151.381614"/>
     <use style="stroke:#000000;" x="264.67059" xlink:href="#m1e2ee860e5" y="156.453808"/>
     <use style="stroke:#000000;" x="284.08599" xlink:href="#m1e2ee860e5" y="161.540608"/>
     <use style="stroke:#000000;" x="292.225661" xlink:href="#m1e2ee860e5" y="165.894682"/>
     <use style="stroke:#000000;" x="306.310989" xlink:href="#m1e2ee860e5" y="170.263054"/>
     <use style="stroke:#000000;" x="312.494721" xlink:href="#m1e2ee860e5" y="173.308596"/>
     <use style="stroke:#000000;" x="323.550037" xlink:href="#m1e2ee860e5" y="176.189912"/>
     <use style="stroke:#000000;" x="333.219567" xlink:href="#m1e2ee860e5" y="179.315991"/>
     <use style="stroke:#000000;" x="345.775035" xlink:href="#m1e2ee860e5" y="184.487904"/>
     <use style="stroke:#000000;" x="353.138262" xlink:href="#m1e2ee860e5" y="188.066205"/>
     <use style="stroke:#000000;" x="363.014083" xlink:href="#m1e2ee860e5" y="191.679683"/>
     <use style="stroke:#000000;" x="371.769337" xlink:href="#m1e2ee860e5" y="194.370568"/>
     <use style="stroke:#000000;" x="382.085361" xlink:href="#m1e2ee860e5" y="197.294414"/>
     <use style="stroke:#000000;" x="391.184738" xlink:href="#m1e2ee860e5" y="201.338393"/>
     <use style="stroke:#000000;" x="399.324409" xlink:href="#m1e2ee860e5" y="205.669643"/>
     <use style="stroke:#000000;" x="408.423786" xlink:href="#m1e2ee860e5" y="208.838546"/>
     <use style="stroke:#000000;" x="416.563457" xlink:href="#m1e2ee860e5" y="210.929244"/>
     <use style="stroke:#000000;" x="425.318711" xlink:href="#m1e2ee860e5" y="215.468591"/>
     <use style="stroke:#000000;" x="433.181976" xlink:href="#m1e2ee860e5" y="216.694762"/>
     <use style="stroke:#000000;" x="441.446151" xlink:href="#m1e2ee860e5" y="221.593003"/>
     <use style="stroke:#000000;" x="449.920987" xlink:href="#m1e2ee860e5" y="228.737213"/>
     <use style="stroke:#000000;" x="458.460945" xlink:href="#m1e2ee860e5" y="230.234981"/>
     <use style="stroke:#000000;" x="466.150146" xlink:href="#m1e2ee860e5" y="237.12222"/>
     <use style="stroke:#000000;" x="474.614419" xlink:href="#m1e2ee860e5" y="242.793963"/>
     <use style="stroke:#000000;" x="482.899717" xlink:href="#m1e2ee860e5" y="250.913582"/>
     <use style="stroke:#000000;" x="490.973889" xlink:href="#m1e2ee860e5" y="254.998764"/>
     <use style="stroke:#000000;" x="498.818128" xlink:href="#m1e2ee860e5" y="262.403639"/>
     <use style="stroke:#000000;" x="506.9045" xlink:href="#m1e2ee860e5" y="271.253113"/>
     <use style="stroke:#000000;" x="514.659336" xlink:href="#m1e2ee860e5" y="281.138821"/>
     <use style="stroke:#000000;" x="522.494594" xlink:href="#m1e2ee860e5" y="282.943152"/>
     <use style="stroke:#000000;" x="530.67347" xlink:href="#m1e2ee860e5" y="296.455864"/>
     <use style="stroke:#000000;" x="538.38866" xlink:href="#m1e2ee860e5" y="306.654099"/>
     <use style="stroke:#000000;" x="546.272517" xlink:href="#m1e2ee860e5" y="312.619962"/>
     <use style="stroke:#000000;" x="554.210137" xlink:href="#m1e2ee860e5" y="315.316104"/>
     <use style="stroke:#000000;" x="561.880168" xlink:href="#m1e2ee860e5" y="336.764397"/>
     <use style="stroke:#000000;" x="569.713035" xlink:href="#m1e2ee860e5" y="387.575245"/>
     <use style="stroke:#000000;" x="577.596893" xlink:href="#m1e2ee860e5" y="387.575245"/>
     <use style="stroke:#000000;" x="585.447758" xlink:href="#m1e2ee860e5" y="387.575245"/>
     <use style="stroke:#000000;" x="593.204544" xlink:href="#m1e2ee860e5" y="387.575245"/>
     <use style="stroke:#000000;" x="601.10832" xlink:href="#m1e2ee860e5" y="387.575245"/>
    </g>
   </g>
   <g id="line2d_95">
    <path clip-path="url(#p647599893b)" d="M 114.338491 88.983395 
L 160.006143 86.792337 
L 188.513856 110.177484 
L 209.291053 130.891652 
L 225.648215 129.406672 
L 239.139976 137.492431 
L 250.622165 145.522334 
L 260.616544 153.209173 
L 269.464825 158.765936 
L 277.403029 161.063708 
L 284.601028 164.308376 
L 291.185168 171.497673 
L 297.251972 177.12316 
L 302.876849 179.966297 
L 308.119833 183.173196 
L 313.0295 187.732161 
L 317.645709 190.957253 
L 322.001571 193.182176 
L 326.124891 195.667531 
L 333.764795 201.570819 
L 337.31892 203.769279 
L 343.971324 207.072085 
L 347.094359 209.027448 
L 350.096035 211.455595 
L 352.985433 213.957857 
L 355.77065 216.103831 
L 358.458939 217.876097 
L 366.004334 222.473506 
L 370.653985 225.511651 
L 372.877913 226.793098 
L 377.142462 228.773281 
L 381.183868 230.489717 
L 383.12796 231.471427 
L 386.875259 233.814032 
L 395.517953 239.832166 
L 400.274545 243.00419 
L 403.290323 245.207681 
L 406.192785 247.523617 
L 408.99014 249.962655 
L 411.689734 252.543398 
L 414.29817 255.302737 
L 416.821405 258.288621 
L 419.264828 261.516286 
L 426.163041 271.010998 
L 428.332041 273.399157 
L 430.441804 275.3497 
L 433.502202 277.750902 
L 437.402816 280.514736 
L 440.20424 282.176537 
L 442.016965 283.010717 
L 448.046143 285.319581 
L 449.685739 286.467646 
L 451.29126 288.139148 
L 452.864093 290.259065 
L 458.129751 298.017991 
L 458.853524 298.675417 
L 459.570579 299.123581 
L 460.28104 299.385806 
L 460.985026 299.48983 
L 462.374041 299.344602 
L 466.39725 298.338808 
L 467.69307 298.539034 
L 468.967514 299.079604 
L 470.221274 299.893927 
L 472.064569 301.48397 
L 478.470266 307.648883 
L 480.673925 309.319373 
L 482.816466 310.64439 
L 484.901186 311.652029 
L 490.360025 314.049742 
L 491.78421 314.987598 
L 493.182615 316.152352 
L 495.00863 318.021288 
L 496.792481 320.198885 
L 498.965886 323.253696 
L 504.744973 331.829215 
L 505.929044 333.093386 
L 506.708461 333.699697 
L 507.480093 334.083168 
L 508.244094 334.260625 
L 509.376114 334.233994 
L 510.860123 333.889503 
L 512.675925 333.471442 
L 513.745267 333.492463 
L 514.450027 333.712266 
L 515.148415 334.147547 
L 515.840546 334.800686 
L 516.867254 336.141763 
L 517.880496 337.853038 
L 519.211138 340.579676 
L 521.485999 345.941682 
L 523.070842 349.455703 
L 524.315716 351.685135 
L 525.540848 353.420771 
L 526.746855 354.746399 
L 528.228361 356.0008 
L 531.390995 358.492292 
L 532.509682 359.820834 
L 533.338194 361.155428 
L 534.157915 362.894673 
L 534.96903 365.168878 
L 535.771716 368.150474 
L 536.566149 372.083666 
L 537.352495 377.342262 
L 538.130918 384.556071 
L 538.38866 387.575245 
L 538.38866 387.575245 
" style="fill:none;stroke:#008000;stroke-dasharray:7.4,3.2;stroke-dashoffset:0;stroke-width:2;"/>
   </g>
   <g id="line2d_96">
    <path clip-path="url(#p647599893b)" d="M 114.338491 169.652168 
L 194.415537 169.895044 
L 258.446859 170.384958 
L 292.971351 170.880531 
L 326.357788 171.634789 
L 349.593539 172.402543 
L 367.432751 173.184284 
L 386.196874 174.249265 
L 401.282446 175.341351 
L 413.898034 176.461959 
L 424.739808 177.612617 
L 436.449965 179.095736 
L 446.616538 180.631957 
L 455.599477 182.225224 
L 463.645869 183.879937 
L 470.932695 185.601027 
L 477.591069 187.394042 
L 483.720838 189.265258 
L 489.399796 191.221807 
L 494.689734 193.271847 
L 499.640548 195.424762 
L 504.293113 197.691425 
L 508.681331 200.08453 
L 512.833632 202.61902 
L 516.774093 205.312658 
L 520.523286 208.186775 
L 524.098921 211.267307 
L 526.844858 213.901577 
L 529.496535 216.708201 
L 532.060209 219.711323 
L 534.541535 222.940543 
L 536.945639 226.432697 
L 539.277181 230.234429 
L 541.540415 234.406013 
L 543.739229 239.027245 
L 545.348221 242.852203 
L 546.924384 247.051772 
L 548.469033 251.707378 
L 549.983402 256.930266 
L 551.468657 262.878117 
L 552.925894 269.78513 
L 554.356153 278.02127 
L 555.295157 284.546237 
L 556.222884 292.244453 
L 557.139603 301.632388 
L 558.045572 313.666648 
L 558.941039 330.451337 
L 559.384911 342.190539 
L 559.826246 358.403496 
L 560.265075 384.774219 
L 560.524641 433 
L 560.524641 433 
" style="fill:none;stroke:#008000;stroke-dasharray:7.4,3.2;stroke-dashoffset:0;stroke-width:2;"/>
   </g>
   <g id="line2d_97">
    <defs>
     <path d="M 0 3 
C 0.795609 3 1.55874 2.683901 2.12132 2.12132 
C 2.683901 1.55874 3 0.795609 3 0 
C 3 -0.795609 2.683901 -1.55874 2.12132 -2.12132 
C 1.55874 -2.683901 0.795609 -3 0 -3 
C -0.795609 -3 -1.55874 -2.683901 -2.12132 -2.12132 
C -2.683901 -1.55874 -3 -0.795609 -3 0 
C -3 0.795609 -2.683901 1.55874 -2.12132 2.12132 
C -1.55874 2.683901 -0.795609 3 0 3 
z
" id="m79ddd45698" style="stroke:#0000ff;"/>
    </defs>
    <g clip-path="url(#p647599893b)">
     <use style="fill:#0000ff;stroke:#0000ff;" x="114.338491" xlink:href="#m79ddd45698" y="109.975224"/>
     <use style="fill:#0000ff;stroke:#0000ff;" x="167.887865" xlink:href="#m79ddd45698" y="111.567828"/>
     <use style="fill:#0000ff;stroke:#0000ff;" x="199.212241" xlink:href="#m79ddd45698" y="143.037072"/>
     <use style="fill:#0000ff;stroke:#0000ff;" x="221.437239" xlink:href="#m79ddd45698" y="145.705954"/>
     <use style="fill:#0000ff;stroke:#0000ff;" x="238.676287" xlink:href="#m79ddd45698" y="149.127896"/>
     <use style="fill:#0000ff;stroke:#0000ff;" x="252.761615" xlink:href="#m79ddd45698" y="154.316873"/>
     <use style="fill:#0000ff;stroke:#0000ff;" x="264.67059" xlink:href="#m79ddd45698" y="159.056659"/>
     <use style="fill:#0000ff;stroke:#0000ff;" x="284.08599" xlink:href="#m79ddd45698" y="164.032578"/>
     <use style="fill:#0000ff;stroke:#0000ff;" x="292.225661" xlink:href="#m79ddd45698" y="168.216301"/>
     <use style="fill:#0000ff;stroke:#0000ff;" x="306.310989" xlink:href="#m79ddd45698" y="172.852436"/>
     <use style="fill:#0000ff;stroke:#0000ff;" x="312.494721" xlink:href="#m79ddd45698" y="175.988177"/>
     <use style="fill:#0000ff;stroke:#0000ff;" x="323.550037" xlink:href="#m79ddd45698" y="178.871322"/>
     <use style="fill:#0000ff;stroke:#0000ff;" x="333.219567" xlink:href="#m79ddd45698" y="182.140651"/>
     <use style="fill:#0000ff;stroke:#0000ff;" x="345.775035" xlink:href="#m79ddd45698" y="187.261903"/>
     <use style="fill:#0000ff;stroke:#0000ff;" x="353.138262" xlink:href="#m79ddd45698" y="190.831108"/>
     <use style="fill:#0000ff;stroke:#0000ff;" x="363.014083" xlink:href="#m79ddd45698" y="194.485289"/>
     <use style="fill:#0000ff;stroke:#0000ff;" x="371.769337" xlink:href="#m79ddd45698" y="197.191157"/>
     <use style="fill:#0000ff;stroke:#0000ff;" x="382.085361" xlink:href="#m79ddd45698" y="200.351654"/>
     <use style="fill:#0000ff;stroke:#0000ff;" x="391.184738" xlink:href="#m79ddd45698" y="204.660693"/>
     <use style="fill:#0000ff;stroke:#0000ff;" x="399.324409" xlink:href="#m79ddd45698" y="209.114685"/>
     <use style="fill:#0000ff;stroke:#0000ff;" x="408.423786" xlink:href="#m79ddd45698" y="212.605283"/>
     <use style="fill:#0000ff;stroke:#0000ff;" x="416.563457" xlink:href="#m79ddd45698" y="214.84461"/>
     <use style="fill:#0000ff;stroke:#0000ff;" x="425.318711" xlink:href="#m79ddd45698" y="219.280647"/>
     <use style="fill:#0000ff;stroke:#0000ff;" x="433.181976" xlink:href="#m79ddd45698" y="220.138889"/>
     <use style="fill:#0000ff;stroke:#0000ff;" x="441.446151" xlink:href="#m79ddd45698" y="225.683454"/>
     <use style="fill:#0000ff;stroke:#0000ff;" x="449.920987" xlink:href="#m79ddd45698" y="233.80396"/>
     <use style="fill:#0000ff;stroke:#0000ff;" x="458.460945" xlink:href="#m79ddd45698" y="235.630222"/>
     <use style="fill:#0000ff;stroke:#0000ff;" x="466.150146" xlink:href="#m79ddd45698" y="241.627504"/>
     <use style="fill:#0000ff;stroke:#0000ff;" x="474.614419" xlink:href="#m79ddd45698" y="246.95069"/>
     <use style="fill:#0000ff;stroke:#0000ff;" x="482.899717" xlink:href="#m79ddd45698" y="256.932674"/>
     <use style="fill:#0000ff;stroke:#0000ff;" x="490.973889" xlink:href="#m79ddd45698" y="261.227324"/>
     <use style="fill:#0000ff;stroke:#0000ff;" x="498.818128" xlink:href="#m79ddd45698" y="268.601538"/>
     <use style="fill:#0000ff;stroke:#0000ff;" x="506.9045" xlink:href="#m79ddd45698" y="277.511488"/>
     <use style="fill:#0000ff;stroke:#0000ff;" x="514.659336" xlink:href="#m79ddd45698" y="288.76972"/>
     <use style="fill:#0000ff;stroke:#0000ff;" x="522.494594" xlink:href="#m79ddd45698" y="290.970751"/>
     <use style="fill:#0000ff;stroke:#0000ff;" x="530.67347" xlink:href="#m79ddd45698" y="307.254914"/>
     <use style="fill:#0000ff;stroke:#0000ff;" x="538.38866" xlink:href="#m79ddd45698" y="323.03424"/>
     <use style="fill:#0000ff;stroke:#0000ff;" x="546.272517" xlink:href="#m79ddd45698" y="333.818316"/>
     <use style="fill:#0000ff;stroke:#0000ff;" x="554.210137" xlink:href="#m79ddd45698" y="348.256573"/>
     <use style="fill:#0000ff;stroke:#0000ff;" x="561.880168" xlink:href="#m79ddd45698" y="370.176455"/>
     <use style="fill:#0000ff;stroke:#0000ff;" x="569.713035" xlink:href="#m79ddd45698" y="387.575245"/>
     <use style="fill:#0000ff;stroke:#0000ff;" x="577.596893" xlink:href="#m79ddd45698" y="387.575245"/>
     <use style="fill:#0000ff;stroke:#0000ff;" x="585.447758" xlink:href="#m79ddd45698" y="387.575245"/>
     <use style="fill:#0000ff;stroke:#0000ff;" x="593.204544" xlink:href="#m79ddd45698" y="387.575245"/>
     <use style="fill:#0000ff;stroke:#0000ff;" x="601.10832" xlink:href="#m79ddd45698" y="387.575245"/>
    </g>
   </g>
   <g id="patch_3">
    <path d="M 90 378 
L 90 51.84 
" style="fill:none;stroke:#000000;stroke-linecap:square;stroke-linejoin:miter;stroke-width:0.8;"/>
   </g>
   <g id="patch_4">
    <path d="M 648 378 
L 648 51.84 
" style="fill:none;stroke:#000000;stroke-linecap:square;stroke-linejoin:miter;stroke-width:0.8;"/>
   </g>
   <g id="patch_5">
    <path d="M 90 378 
L 648 378 
" style="fill:none;stroke:#000000;stroke-linecap:square;stroke-linejoin:miter;stroke-width:0.8;"/>
   </g>
   <g id="patch_6">
    <path d="M 90 51.84 
L 648 51.84 
" style="fill:none;stroke:#000000;stroke-linecap:square;stroke-linejoin:miter;stroke-width:0.8;"/>
   </g>
   <g id="text_11">
    <!-- Average Pellet Count vs Price Paid by Subject -->
    <g transform="translate(233.11875 45.84)scale(0.12 -0.12)">
     <defs>
      <path d="M 44.28125 53.078125 
L 44.28125 44.578125 
Q 40.484375 46.53125 36.375 47.5 
Q 32.28125 48.484375 27.875 48.484375 
Q 21.1875 48.484375 17.84375 46.4375 
Q 14.5 44.390625 14.5 40.28125 
Q 14.5 37.15625 16.890625 35.375 
Q 19.28125 33.59375 26.515625 31.984375 
L 29.59375 31.296875 
Q 39.15625 29.25 43.1875 25.515625 
Q 47.21875 21.78125 47.21875 15.09375 
Q 47.21875 7.46875 41.1875 3.015625 
Q 35.15625 -1.421875 24.609375 -1.421875 
Q 20.21875 -1.421875 15.453125 -0.5625 
Q 10.6875 0.296875 5.421875 2 
L 5.421875 11.28125 
Q 10.40625 8.6875 15.234375 7.390625 
Q 20.0625 6.109375 24.8125 6.109375 
Q 31.15625 6.109375 34.5625 8.28125 
Q 37.984375 10.453125 37.984375 14.40625 
Q 37.984375 18.0625 35.515625 20.015625 
Q 33.0625 21.96875 24.703125 23.78125 
L 21.578125 24.515625 
Q 13.234375 26.265625 9.515625 29.90625 
Q 5.8125 33.546875 5.8125 39.890625 
Q 5.8125 47.609375 11.28125 51.796875 
Q 16.75 56 26.8125 56 
Q 31.78125 56 36.171875 55.265625 
Q 40.578125 54.546875 44.28125 53.078125 
z
" id="DejaVuSans-115"/>
      <path d="M 48.6875 27.296875 
Q 48.6875 37.203125 44.609375 42.84375 
Q 40.53125 48.484375 33.40625 48.484375 
Q 26.265625 48.484375 22.1875 42.84375 
Q 18.109375 37.203125 18.109375 27.296875 
Q 18.109375 17.390625 22.1875 11.75 
Q 26.265625 6.109375 33.40625 6.109375 
Q 40.53125 6.109375 44.609375 11.75 
Q 48.6875 17.390625 48.6875 27.296875 
z
M 18.109375 46.390625 
Q 20.953125 51.265625 25.265625 53.625 
Q 29.59375 56 35.59375 56 
Q 45.5625 56 51.78125 48.09375 
Q 58.015625 40.1875 58.015625 27.296875 
Q 58.015625 14.40625 51.78125 6.484375 
Q 45.5625 -1.421875 35.59375 -1.421875 
Q 29.59375 -1.421875 25.265625 0.953125 
Q 20.953125 3.328125 18.109375 8.203125 
L 18.109375 0 
L 9.078125 0 
L 9.078125 75.984375 
L 18.109375 75.984375 
z
" id="DejaVuSans-98"/>
      <path d="M 32.171875 -5.078125 
Q 28.375 -14.84375 24.75 -17.8125 
Q 21.140625 -20.796875 15.09375 -20.796875 
L 7.90625 -20.796875 
L 7.90625 -13.28125 
L 13.1875 -13.28125 
Q 16.890625 -13.28125 18.9375 -11.515625 
Q 21 -9.765625 23.484375 -3.21875 
L 25.09375 0.875 
L 2.984375 54.6875 
L 12.5 54.6875 
L 29.59375 11.921875 
L 46.6875 54.6875 
L 56.203125 54.6875 
z
" id="DejaVuSans-121"/>
      <path d="M 53.515625 70.515625 
L 53.515625 60.890625 
Q 47.90625 63.578125 42.921875 64.890625 
Q 37.9375 66.21875 33.296875 66.21875 
Q 25.25 66.21875 20.875 63.09375 
Q 16.5 59.96875 16.5 54.203125 
Q 16.5 49.359375 19.40625 46.890625 
Q 22.3125 44.4375 30.421875 42.921875 
L 36.375 41.703125 
Q 47.40625 39.59375 52.65625 34.296875 
Q 57.90625 29 57.90625 20.125 
Q 57.90625 9.515625 50.796875 4.046875 
Q 43.703125 -1.421875 29.984375 -1.421875 
Q 24.8125 -1.421875 18.96875 -0.25 
Q 13.140625 0.921875 6.890625 3.21875 
L 6.890625 13.375 
Q 12.890625 10.015625 18.65625 8.296875 
Q 24.421875 6.59375 29.984375 6.59375 
Q 38.421875 6.59375 43.015625 9.90625 
Q 47.609375 13.234375 47.609375 19.390625 
Q 47.609375 24.75 44.3125 27.78125 
Q 41.015625 30.8125 33.5 32.328125 
L 27.484375 33.5 
Q 16.453125 35.6875 11.515625 40.375 
Q 6.59375 45.0625 6.59375 53.421875 
Q 6.59375 63.09375 13.40625 68.65625 
Q 20.21875 74.21875 32.171875 74.21875 
Q 37.3125 74.21875 42.625 73.28125 
Q 47.953125 72.359375 53.515625 70.515625 
z
" id="DejaVuSans-83"/>
      <path d="M 9.421875 54.6875 
L 18.40625 54.6875 
L 18.40625 -0.984375 
Q 18.40625 -11.421875 14.421875 -16.109375 
Q 10.453125 -20.796875 1.609375 -20.796875 
L -1.8125 -20.796875 
L -1.8125 -13.1875 
L 0.59375 -13.1875 
Q 5.71875 -13.1875 7.5625 -10.8125 
Q 9.421875 -8.453125 9.421875 -0.984375 
z
M 9.421875 75.984375 
L 18.40625 75.984375 
L 18.40625 64.59375 
L 9.421875 64.59375 
z
" id="DejaVuSans-106"/>
     </defs>
     <use xlink:href="#DejaVuSans-65"/>
     <use x="62.533203" xlink:href="#DejaVuSans-118"/>
     <use x="121.712891" xlink:href="#DejaVuSans-101"/>
     <use x="183.236328" xlink:href="#DejaVuSans-114"/>
     <use x="224.349609" xlink:href="#DejaVuSans-97"/>
     <use x="285.628906" xlink:href="#DejaVuSans-103"/>
     <use x="349.105469" xlink:href="#DejaVuSans-101"/>
     <use x="410.628906" xlink:href="#DejaVuSans-32"/>
     <use x="442.416016" xlink:href="#DejaVuSans-80"/>
     <use x="499.09375" xlink:href="#DejaVuSans-101"/>
     <use x="560.617188" xlink:href="#DejaVuSans-108"/>
     <use x="588.400391" xlink:href="#DejaVuSans-108"/>
     <use x="616.183594" xlink:href="#DejaVuSans-101"/>
     <use x="677.707031" xlink:href="#DejaVuSans-116"/>
     <use x="716.916016" xlink:href="#DejaVuSans-32"/>
     <use x="748.703125" xlink:href="#DejaVuSans-67"/>
     <use x="818.527344" xlink:href="#DejaVuSans-111"/>
     <use x="879.708984" xlink:href="#DejaVuSans-117"/>
     <use x="943.087891" xlink:href="#DejaVuSans-110"/>
     <use x="1006.466797" xlink:href="#DejaVuSans-116"/>
     <use x="1045.675781" xlink:href="#DejaVuSans-32"/>
     <use x="1077.462891" xlink:href="#DejaVuSans-118"/>
     <use x="1136.642578" xlink:href="#DejaVuSans-115"/>
     <use x="1188.742188" xlink:href="#DejaVuSans-32"/>
     <use x="1220.529297" xlink:href="#DejaVuSans-80"/>
     <use x="1279.082031" xlink:href="#DejaVuSans-114"/>
     <use x="1320.195312" xlink:href="#DejaVuSans-105"/>
     <use x="1347.978516" xlink:href="#DejaVuSans-99"/>
     <use x="1402.958984" xlink:href="#DejaVuSans-101"/>
     <use x="1464.482422" xlink:href="#DejaVuSans-32"/>
     <use x="1496.269531" xlink:href="#DejaVuSans-80"/>
     <use x="1552.072266" xlink:href="#DejaVuSans-97"/>
     <use x="1613.351562" xlink:href="#DejaVuSans-105"/>
     <use x="1641.134766" xlink:href="#DejaVuSans-100"/>
     <use x="1704.611328" xlink:href="#DejaVuSans-32"/>
     <use x="1736.398438" xlink:href="#DejaVuSans-98"/>
     <use x="1799.875" xlink:href="#DejaVuSans-121"/>
     <use x="1859.054688" xlink:href="#DejaVuSans-32"/>
     <use x="1890.841797" xlink:href="#DejaVuSans-83"/>
     <use x="1954.318359" xlink:href="#DejaVuSans-117"/>
     <use x="2017.697266" xlink:href="#DejaVuSans-98"/>
     <use x="2081.173828" xlink:href="#DejaVuSans-106"/>
     <use x="2108.957031" xlink:href="#DejaVuSans-101"/>
     <use x="2170.480469" xlink:href="#DejaVuSans-99"/>
     <use x="2225.460938" xlink:href="#DejaVuSans-116"/>
    </g>
   </g>
  </g>
 </g>
 <defs>
  <clipPath id="p647599893b">
   <rect height="326.16" width="558" x="90" y="51.84"/>
  </clipPath>
 </defs>
</svg>
