<?xml version="1.0" encoding="utf-8" standalone="no"?>
<!DOCTYPE svg PUBLIC "-//W3C//DTD SVG 1.1//EN"
  "http://www.w3.org/Graphics/SVG/1.1/DTD/svg11.dtd">
<!-- Created with matplotlib (https://matplotlib.org/) -->
<svg height="432pt" version="1.1" viewBox="0 0 720 432" width="720pt" xmlns="http://www.w3.org/2000/svg" xmlns:xlink="http://www.w3.org/1999/xlink">
 <metadata>
  <rdf:RDF xmlns:cc="http://creativecommons.org/ns#" xmlns:dc="http://purl.org/dc/elements/1.1/" xmlns:rdf="http://www.w3.org/1999/02/22-rdf-syntax-ns#">
   <cc:Work>
    <dc:type rdf:resource="http://purl.org/dc/dcmitype/StillImage"/>
    <dc:date>2024-10-17T22:14:00.983828</dc:date>
    <dc:format>image/svg+xml</dc:format>
    <dc:creator>
     <cc:Agent>
      <dc:title>Matplotlib v3.3.4, https://matplotlib.org/</dc:title>
     </cc:Agent>
    </dc:creator>
   </cc:Work>
  </rdf:RDF>
 </metadata>
 <defs>
  <style type="text/css">*{stroke-linecap:butt;stroke-linejoin:round;}</style>
 </defs>
 <g id="figure_1">
  <g id="patch_1">
   <path d="M 0 432 
L 720 432 
L 720 0 
L 0 0 
z
" style="fill:#ffffff;"/>
  </g>
  <g id="axes_1">
   <g id="patch_2">
    <path d="M 90 378 
L 648 378 
L 648 51.84 
L 90 51.84 
z
" style="fill:#ffffff;"/>
   </g>
   <g id="matplotlib.axis_1">
    <g id="xtick_1">
     <g id="line2d_1">
      <path clip-path="url(#p9716132c89)" d="M 112.456018 378 
L 112.456018 51.84 
" style="fill:none;stroke:#b0b0b0;stroke-linecap:square;stroke-width:0.8;"/>
     </g>
     <g id="line2d_2">
      <defs>
       <path d="M 0 0 
L 0 3.5 
" id="mef7bafe04e" style="stroke:#000000;stroke-width:0.8;"/>
      </defs>
      <g>
       <use style="stroke:#000000;stroke-width:0.8;" x="112.456018" xlink:href="#mef7bafe04e" y="378"/>
      </g>
     </g>
     <g id="text_1">
      <!-- $\mathdefault{10^{0}}$ -->
      <g transform="translate(103.656018 392.598437)scale(0.1 -0.1)">
       <defs>
        <path d="M 12.40625 8.296875 
L 28.515625 8.296875 
L 28.515625 63.921875 
L 10.984375 60.40625 
L 10.984375 69.390625 
L 28.421875 72.90625 
L 38.28125 72.90625 
L 38.28125 8.296875 
L 54.390625 8.296875 
L 54.390625 0 
L 12.40625 0 
z
" id="DejaVuSans-49"/>
        <path d="M 31.78125 66.40625 
Q 24.171875 66.40625 20.328125 58.90625 
Q 16.5 51.421875 16.5 36.375 
Q 16.5 21.390625 20.328125 13.890625 
Q 24.171875 6.390625 31.78125 6.390625 
Q 39.453125 6.390625 43.28125 13.890625 
Q 47.125 21.390625 47.125 36.375 
Q 47.125 51.421875 43.28125 58.90625 
Q 39.453125 66.40625 31.78125 66.40625 
z
M 31.78125 74.21875 
Q 44.046875 74.21875 50.515625 64.515625 
Q 56.984375 54.828125 56.984375 36.375 
Q 56.984375 17.96875 50.515625 8.265625 
Q 44.046875 -1.421875 31.78125 -1.421875 
Q 19.53125 -1.421875 13.0625 8.265625 
Q 6.59375 17.96875 6.59375 36.375 
Q 6.59375 54.828125 13.0625 64.515625 
Q 19.53125 74.21875 31.78125 74.21875 
z
" id="DejaVuSans-48"/>
       </defs>
       <use transform="translate(0 0.765625)" xlink:href="#DejaVuSans-49"/>
       <use transform="translate(63.623047 0.765625)" xlink:href="#DejaVuSans-48"/>
       <use transform="translate(128.203125 39.046875)scale(0.7)" xlink:href="#DejaVuSans-48"/>
      </g>
     </g>
    </g>
    <g id="xtick_2">
     <g id="line2d_3">
      <path clip-path="url(#p9716132c89)" d="M 290.970679 378 
L 290.970679 51.84 
" style="fill:none;stroke:#b0b0b0;stroke-linecap:square;stroke-width:0.8;"/>
     </g>
     <g id="line2d_4">
      <g>
       <use style="stroke:#000000;stroke-width:0.8;" x="290.970679" xlink:href="#mef7bafe04e" y="378"/>
      </g>
     </g>
     <g id="text_2">
      <!-- $\mathdefault{10^{1}}$ -->
      <g transform="translate(282.170679 392.598437)scale(0.1 -0.1)">
       <use transform="translate(0 0.684375)" xlink:href="#DejaVuSans-49"/>
       <use transform="translate(63.623047 0.684375)" xlink:href="#DejaVuSans-48"/>
       <use transform="translate(128.203125 38.965625)scale(0.7)" xlink:href="#DejaVuSans-49"/>
      </g>
     </g>
    </g>
    <g id="xtick_3">
     <g id="line2d_5">
      <path clip-path="url(#p9716132c89)" d="M 469.485339 378 
L 469.485339 51.84 
" style="fill:none;stroke:#b0b0b0;stroke-linecap:square;stroke-width:0.8;"/>
     </g>
     <g id="line2d_6">
      <g>
       <use style="stroke:#000000;stroke-width:0.8;" x="469.485339" xlink:href="#mef7bafe04e" y="378"/>
      </g>
     </g>
     <g id="text_3">
      <!-- $\mathdefault{10^{2}}$ -->
      <g transform="translate(460.685339 392.598437)scale(0.1 -0.1)">
       <defs>
        <path d="M 19.1875 8.296875 
L 53.609375 8.296875 
L 53.609375 0 
L 7.328125 0 
L 7.328125 8.296875 
Q 12.9375 14.109375 22.625 23.890625 
Q 32.328125 33.6875 34.8125 36.53125 
Q 39.546875 41.84375 41.421875 45.53125 
Q 43.3125 49.21875 43.3125 52.78125 
Q 43.3125 58.59375 39.234375 62.25 
Q 35.15625 65.921875 28.609375 65.921875 
Q 23.96875 65.921875 18.8125 64.3125 
Q 13.671875 62.703125 7.8125 59.421875 
L 7.8125 69.390625 
Q 13.765625 71.78125 18.9375 73 
Q 24.125 74.21875 28.421875 74.21875 
Q 39.75 74.21875 46.484375 68.546875 
Q 53.21875 62.890625 53.21875 53.421875 
Q 53.21875 48.921875 51.53125 44.890625 
Q 49.859375 40.875 45.40625 35.40625 
Q 44.1875 33.984375 37.640625 27.21875 
Q 31.109375 20.453125 19.1875 8.296875 
z
" id="DejaVuSans-50"/>
       </defs>
       <use transform="translate(0 0.765625)" xlink:href="#DejaVuSans-49"/>
       <use transform="translate(63.623047 0.765625)" xlink:href="#DejaVuSans-48"/>
       <use transform="translate(128.203125 39.046875)scale(0.7)" xlink:href="#DejaVuSans-50"/>
      </g>
     </g>
    </g>
    <g id="xtick_4">
     <g id="line2d_7">
      <path clip-path="url(#p9716132c89)" d="M 648 378 
L 648 51.84 
" style="fill:none;stroke:#b0b0b0;stroke-linecap:square;stroke-width:0.8;"/>
     </g>
     <g id="line2d_8">
      <g>
       <use style="stroke:#000000;stroke-width:0.8;" x="648" xlink:href="#mef7bafe04e" y="378"/>
      </g>
     </g>
     <g id="text_4">
      <!-- $\mathdefault{10^{3}}$ -->
      <g transform="translate(639.2 392.598437)scale(0.1 -0.1)">
       <defs>
        <path d="M 40.578125 39.3125 
Q 47.65625 37.796875 51.625 33 
Q 55.609375 28.21875 55.609375 21.1875 
Q 55.609375 10.40625 48.1875 4.484375 
Q 40.765625 -1.421875 27.09375 -1.421875 
Q 22.515625 -1.421875 17.65625 -0.515625 
Q 12.796875 0.390625 7.625 2.203125 
L 7.625 11.71875 
Q 11.71875 9.328125 16.59375 8.109375 
Q 21.484375 6.890625 26.8125 6.890625 
Q 36.078125 6.890625 40.9375 10.546875 
Q 45.796875 14.203125 45.796875 21.1875 
Q 45.796875 27.640625 41.28125 31.265625 
Q 36.765625 34.90625 28.71875 34.90625 
L 20.21875 34.90625 
L 20.21875 43.015625 
L 29.109375 43.015625 
Q 36.375 43.015625 40.234375 45.921875 
Q 44.09375 48.828125 44.09375 54.296875 
Q 44.09375 59.90625 40.109375 62.90625 
Q 36.140625 65.921875 28.71875 65.921875 
Q 24.65625 65.921875 20.015625 65.03125 
Q 15.375 64.15625 9.8125 62.3125 
L 9.8125 71.09375 
Q 15.4375 72.65625 20.34375 73.4375 
Q 25.25 74.21875 29.59375 74.21875 
Q 40.828125 74.21875 47.359375 69.109375 
Q 53.90625 64.015625 53.90625 55.328125 
Q 53.90625 49.265625 50.4375 45.09375 
Q 46.96875 40.921875 40.578125 39.3125 
z
" id="DejaVuSans-51"/>
       </defs>
       <use transform="translate(0 0.765625)" xlink:href="#DejaVuSans-49"/>
       <use transform="translate(63.623047 0.765625)" xlink:href="#DejaVuSans-48"/>
       <use transform="translate(128.203125 39.046875)scale(0.7)" xlink:href="#DejaVuSans-51"/>
      </g>
     </g>
    </g>
    <g id="xtick_5">
     <g id="line2d_9">
      <defs>
       <path d="M 0 0 
L 0 2 
" id="m9a8b2689d8" style="stroke:#000000;stroke-width:0.6;"/>
      </defs>
      <g>
       <use style="stroke:#000000;stroke-width:0.6;" x="95.15616" xlink:href="#m9a8b2689d8" y="378"/>
      </g>
     </g>
    </g>
    <g id="xtick_6">
     <g id="line2d_10">
      <g>
       <use style="stroke:#000000;stroke-width:0.6;" x="104.287635" xlink:href="#m9a8b2689d8" y="378"/>
      </g>
     </g>
    </g>
    <g id="xtick_7">
     <g id="line2d_11">
      <g>
       <use style="stroke:#000000;stroke-width:0.6;" x="166.194286" xlink:href="#m9a8b2689d8" y="378"/>
      </g>
     </g>
    </g>
    <g id="xtick_8">
     <g id="line2d_12">
      <g>
       <use style="stroke:#000000;stroke-width:0.6;" x="197.629157" xlink:href="#m9a8b2689d8" y="378"/>
      </g>
     </g>
    </g>
    <g id="xtick_9">
     <g id="line2d_13">
      <g>
       <use style="stroke:#000000;stroke-width:0.6;" x="219.932553" xlink:href="#m9a8b2689d8" y="378"/>
      </g>
     </g>
    </g>
    <g id="xtick_10">
     <g id="line2d_14">
      <g>
       <use style="stroke:#000000;stroke-width:0.6;" x="237.232411" xlink:href="#m9a8b2689d8" y="378"/>
      </g>
     </g>
    </g>
    <g id="xtick_11">
     <g id="line2d_15">
      <g>
       <use style="stroke:#000000;stroke-width:0.6;" x="251.367425" xlink:href="#m9a8b2689d8" y="378"/>
      </g>
     </g>
    </g>
    <g id="xtick_12">
     <g id="line2d_16">
      <g>
       <use style="stroke:#000000;stroke-width:0.6;" x="263.318408" xlink:href="#m9a8b2689d8" y="378"/>
      </g>
     </g>
    </g>
    <g id="xtick_13">
     <g id="line2d_17">
      <g>
       <use style="stroke:#000000;stroke-width:0.6;" x="273.670821" xlink:href="#m9a8b2689d8" y="378"/>
      </g>
     </g>
    </g>
    <g id="xtick_14">
     <g id="line2d_18">
      <g>
       <use style="stroke:#000000;stroke-width:0.6;" x="282.802296" xlink:href="#m9a8b2689d8" y="378"/>
      </g>
     </g>
    </g>
    <g id="xtick_15">
     <g id="line2d_19">
      <g>
       <use style="stroke:#000000;stroke-width:0.6;" x="344.708946" xlink:href="#m9a8b2689d8" y="378"/>
      </g>
     </g>
    </g>
    <g id="xtick_16">
     <g id="line2d_20">
      <g>
       <use style="stroke:#000000;stroke-width:0.6;" x="376.143818" xlink:href="#m9a8b2689d8" y="378"/>
      </g>
     </g>
    </g>
    <g id="xtick_17">
     <g id="line2d_21">
      <g>
       <use style="stroke:#000000;stroke-width:0.6;" x="398.447214" xlink:href="#m9a8b2689d8" y="378"/>
      </g>
     </g>
    </g>
    <g id="xtick_18">
     <g id="line2d_22">
      <g>
       <use style="stroke:#000000;stroke-width:0.6;" x="415.747072" xlink:href="#m9a8b2689d8" y="378"/>
      </g>
     </g>
    </g>
    <g id="xtick_19">
     <g id="line2d_23">
      <g>
       <use style="stroke:#000000;stroke-width:0.6;" x="429.882085" xlink:href="#m9a8b2689d8" y="378"/>
      </g>
     </g>
    </g>
    <g id="xtick_20">
     <g id="line2d_24">
      <g>
       <use style="stroke:#000000;stroke-width:0.6;" x="441.833069" xlink:href="#m9a8b2689d8" y="378"/>
      </g>
     </g>
    </g>
    <g id="xtick_21">
     <g id="line2d_25">
      <g>
       <use style="stroke:#000000;stroke-width:0.6;" x="452.185481" xlink:href="#m9a8b2689d8" y="378"/>
      </g>
     </g>
    </g>
    <g id="xtick_22">
     <g id="line2d_26">
      <g>
       <use style="stroke:#000000;stroke-width:0.6;" x="461.316957" xlink:href="#m9a8b2689d8" y="378"/>
      </g>
     </g>
    </g>
    <g id="xtick_23">
     <g id="line2d_27">
      <g>
       <use style="stroke:#000000;stroke-width:0.6;" x="523.223607" xlink:href="#m9a8b2689d8" y="378"/>
      </g>
     </g>
    </g>
    <g id="xtick_24">
     <g id="line2d_28">
      <g>
       <use style="stroke:#000000;stroke-width:0.6;" x="554.658478" xlink:href="#m9a8b2689d8" y="378"/>
      </g>
     </g>
    </g>
    <g id="xtick_25">
     <g id="line2d_29">
      <g>
       <use style="stroke:#000000;stroke-width:0.6;" x="576.961874" xlink:href="#m9a8b2689d8" y="378"/>
      </g>
     </g>
    </g>
    <g id="xtick_26">
     <g id="line2d_30">
      <g>
       <use style="stroke:#000000;stroke-width:0.6;" x="594.261732" xlink:href="#m9a8b2689d8" y="378"/>
      </g>
     </g>
    </g>
    <g id="xtick_27">
     <g id="line2d_31">
      <g>
       <use style="stroke:#000000;stroke-width:0.6;" x="608.396746" xlink:href="#m9a8b2689d8" y="378"/>
      </g>
     </g>
    </g>
    <g id="xtick_28">
     <g id="line2d_32">
      <g>
       <use style="stroke:#000000;stroke-width:0.6;" x="620.347729" xlink:href="#m9a8b2689d8" y="378"/>
      </g>
     </g>
    </g>
    <g id="xtick_29">
     <g id="line2d_33">
      <g>
       <use style="stroke:#000000;stroke-width:0.6;" x="630.700142" xlink:href="#m9a8b2689d8" y="378"/>
      </g>
     </g>
    </g>
    <g id="xtick_30">
     <g id="line2d_34">
      <g>
       <use style="stroke:#000000;stroke-width:0.6;" x="639.831617" xlink:href="#m9a8b2689d8" y="378"/>
      </g>
     </g>
    </g>
    <g id="text_5">
     <!-- Price Paid -->
     <g transform="translate(344.796094 406.276563)scale(0.1 -0.1)">
      <defs>
       <path d="M 19.671875 64.796875 
L 19.671875 37.40625 
L 32.078125 37.40625 
Q 38.96875 37.40625 42.71875 40.96875 
Q 46.484375 44.53125 46.484375 51.125 
Q 46.484375 57.671875 42.71875 61.234375 
Q 38.96875 64.796875 32.078125 64.796875 
z
M 9.8125 72.90625 
L 32.078125 72.90625 
Q 44.34375 72.90625 50.609375 67.359375 
Q 56.890625 61.8125 56.890625 51.125 
Q 56.890625 40.328125 50.609375 34.8125 
Q 44.34375 29.296875 32.078125 29.296875 
L 19.671875 29.296875 
L 19.671875 0 
L 9.8125 0 
z
" id="DejaVuSans-80"/>
       <path d="M 41.109375 46.296875 
Q 39.59375 47.171875 37.8125 47.578125 
Q 36.03125 48 33.890625 48 
Q 26.265625 48 22.1875 43.046875 
Q 18.109375 38.09375 18.109375 28.8125 
L 18.109375 0 
L 9.078125 0 
L 9.078125 54.6875 
L 18.109375 54.6875 
L 18.109375 46.1875 
Q 20.953125 51.171875 25.484375 53.578125 
Q 30.03125 56 36.53125 56 
Q 37.453125 56 38.578125 55.875 
Q 39.703125 55.765625 41.0625 55.515625 
z
" id="DejaVuSans-114"/>
       <path d="M 9.421875 54.6875 
L 18.40625 54.6875 
L 18.40625 0 
L 9.421875 0 
z
M 9.421875 75.984375 
L 18.40625 75.984375 
L 18.40625 64.59375 
L 9.421875 64.59375 
z
" id="DejaVuSans-105"/>
       <path d="M 48.78125 52.59375 
L 48.78125 44.1875 
Q 44.96875 46.296875 41.140625 47.34375 
Q 37.3125 48.390625 33.40625 48.390625 
Q 24.65625 48.390625 19.8125 42.84375 
Q 14.984375 37.3125 14.984375 27.296875 
Q 14.984375 17.28125 19.8125 11.734375 
Q 24.65625 6.203125 33.40625 6.203125 
Q 37.3125 6.203125 41.140625 7.25 
Q 44.96875 8.296875 48.78125 10.40625 
L 48.78125 2.09375 
Q 45.015625 0.34375 40.984375 -0.53125 
Q 36.96875 -1.421875 32.421875 -1.421875 
Q 20.0625 -1.421875 12.78125 6.34375 
Q 5.515625 14.109375 5.515625 27.296875 
Q 5.515625 40.671875 12.859375 48.328125 
Q 20.21875 56 33.015625 56 
Q 37.15625 56 41.109375 55.140625 
Q 45.0625 54.296875 48.78125 52.59375 
z
" id="DejaVuSans-99"/>
       <path d="M 56.203125 29.59375 
L 56.203125 25.203125 
L 14.890625 25.203125 
Q 15.484375 15.921875 20.484375 11.0625 
Q 25.484375 6.203125 34.421875 6.203125 
Q 39.59375 6.203125 44.453125 7.46875 
Q 49.3125 8.734375 54.109375 11.28125 
L 54.109375 2.78125 
Q 49.265625 0.734375 44.1875 -0.34375 
Q 39.109375 -1.421875 33.890625 -1.421875 
Q 20.796875 -1.421875 13.15625 6.1875 
Q 5.515625 13.8125 5.515625 26.8125 
Q 5.515625 40.234375 12.765625 48.109375 
Q 20.015625 56 32.328125 56 
Q 43.359375 56 49.78125 48.890625 
Q 56.203125 41.796875 56.203125 29.59375 
z
M 47.21875 32.234375 
Q 47.125 39.59375 43.09375 43.984375 
Q 39.0625 48.390625 32.421875 48.390625 
Q 24.90625 48.390625 20.390625 44.140625 
Q 15.875 39.890625 15.1875 32.171875 
z
" id="DejaVuSans-101"/>
       <path id="DejaVuSans-32"/>
       <path d="M 34.28125 27.484375 
Q 23.390625 27.484375 19.1875 25 
Q 14.984375 22.515625 14.984375 16.5 
Q 14.984375 11.71875 18.140625 8.90625 
Q 21.296875 6.109375 26.703125 6.109375 
Q 34.1875 6.109375 38.703125 11.40625 
Q 43.21875 16.703125 43.21875 25.484375 
L 43.21875 27.484375 
z
M 52.203125 31.203125 
L 52.203125 0 
L 43.21875 0 
L 43.21875 8.296875 
Q 40.140625 3.328125 35.546875 0.953125 
Q 30.953125 -1.421875 24.3125 -1.421875 
Q 15.921875 -1.421875 10.953125 3.296875 
Q 6 8.015625 6 15.921875 
Q 6 25.140625 12.171875 29.828125 
Q 18.359375 34.515625 30.609375 34.515625 
L 43.21875 34.515625 
L 43.21875 35.40625 
Q 43.21875 41.609375 39.140625 45 
Q 35.0625 48.390625 27.6875 48.390625 
Q 23 48.390625 18.546875 47.265625 
Q 14.109375 46.140625 10.015625 43.890625 
L 10.015625 52.203125 
Q 14.9375 54.109375 19.578125 55.046875 
Q 24.21875 56 28.609375 56 
Q 40.484375 56 46.34375 49.84375 
Q 52.203125 43.703125 52.203125 31.203125 
z
" id="DejaVuSans-97"/>
       <path d="M 45.40625 46.390625 
L 45.40625 75.984375 
L 54.390625 75.984375 
L 54.390625 0 
L 45.40625 0 
L 45.40625 8.203125 
Q 42.578125 3.328125 38.25 0.953125 
Q 33.9375 -1.421875 27.875 -1.421875 
Q 17.96875 -1.421875 11.734375 6.484375 
Q 5.515625 14.40625 5.515625 27.296875 
Q 5.515625 40.1875 11.734375 48.09375 
Q 17.96875 56 27.875 56 
Q 33.9375 56 38.25 53.625 
Q 42.578125 51.265625 45.40625 46.390625 
z
M 14.796875 27.296875 
Q 14.796875 17.390625 18.875 11.75 
Q 22.953125 6.109375 30.078125 6.109375 
Q 37.203125 6.109375 41.296875 11.75 
Q 45.40625 17.390625 45.40625 27.296875 
Q 45.40625 37.203125 41.296875 42.84375 
Q 37.203125 48.484375 30.078125 48.484375 
Q 22.953125 48.484375 18.875 42.84375 
Q 14.796875 37.203125 14.796875 27.296875 
z
" id="DejaVuSans-100"/>
      </defs>
      <use xlink:href="#DejaVuSans-80"/>
      <use x="58.552734" xlink:href="#DejaVuSans-114"/>
      <use x="99.666016" xlink:href="#DejaVuSans-105"/>
      <use x="127.449219" xlink:href="#DejaVuSans-99"/>
      <use x="182.429688" xlink:href="#DejaVuSans-101"/>
      <use x="243.953125" xlink:href="#DejaVuSans-32"/>
      <use x="275.740234" xlink:href="#DejaVuSans-80"/>
      <use x="331.542969" xlink:href="#DejaVuSans-97"/>
      <use x="392.822266" xlink:href="#DejaVuSans-105"/>
      <use x="420.605469" xlink:href="#DejaVuSans-100"/>
     </g>
    </g>
   </g>
   <g id="matplotlib.axis_2">
    <g id="ytick_1">
     <g id="line2d_35">
      <path clip-path="url(#p9716132c89)" d="M 90 378 
L 648 378 
" style="fill:none;stroke:#b0b0b0;stroke-linecap:square;stroke-width:0.8;"/>
     </g>
     <g id="line2d_36">
      <defs>
       <path d="M 0 0 
L -3.5 0 
" id="m279be10c10" style="stroke:#000000;stroke-width:0.8;"/>
      </defs>
      <g>
       <use style="stroke:#000000;stroke-width:0.8;" x="90" xlink:href="#m279be10c10" y="378"/>
      </g>
     </g>
     <g id="text_6">
      <!-- $\mathdefault{10^{-1}}$ -->
      <g transform="translate(59.5 381.799219)scale(0.1 -0.1)">
       <defs>
        <path d="M 10.59375 35.5 
L 73.1875 35.5 
L 73.1875 27.203125 
L 10.59375 27.203125 
z
" id="DejaVuSans-8722"/>
       </defs>
       <use transform="translate(0 0.684375)" xlink:href="#DejaVuSans-49"/>
       <use transform="translate(63.623047 0.684375)" xlink:href="#DejaVuSans-48"/>
       <use transform="translate(128.203125 38.965625)scale(0.7)" xlink:href="#DejaVuSans-8722"/>
       <use transform="translate(186.855469 38.965625)scale(0.7)" xlink:href="#DejaVuSans-49"/>
      </g>
     </g>
    </g>
    <g id="ytick_2">
     <g id="line2d_37">
      <path clip-path="url(#p9716132c89)" d="M 90 279.194476 
L 648 279.194476 
" style="fill:none;stroke:#b0b0b0;stroke-linecap:square;stroke-width:0.8;"/>
     </g>
     <g id="line2d_38">
      <g>
       <use style="stroke:#000000;stroke-width:0.8;" x="90" xlink:href="#m279be10c10" y="279.194476"/>
      </g>
     </g>
     <g id="text_7">
      <!-- $\mathdefault{10^{0}}$ -->
      <g transform="translate(65.4 282.993694)scale(0.1 -0.1)">
       <use transform="translate(0 0.765625)" xlink:href="#DejaVuSans-49"/>
       <use transform="translate(63.623047 0.765625)" xlink:href="#DejaVuSans-48"/>
       <use transform="translate(128.203125 39.046875)scale(0.7)" xlink:href="#DejaVuSans-48"/>
      </g>
     </g>
    </g>
    <g id="ytick_3">
     <g id="line2d_39">
      <path clip-path="url(#p9716132c89)" d="M 90 180.388951 
L 648 180.388951 
" style="fill:none;stroke:#b0b0b0;stroke-linecap:square;stroke-width:0.8;"/>
     </g>
     <g id="line2d_40">
      <g>
       <use style="stroke:#000000;stroke-width:0.8;" x="90" xlink:href="#m279be10c10" y="180.388951"/>
      </g>
     </g>
     <g id="text_8">
      <!-- $\mathdefault{10^{1}}$ -->
      <g transform="translate(65.4 184.18817)scale(0.1 -0.1)">
       <use transform="translate(0 0.684375)" xlink:href="#DejaVuSans-49"/>
       <use transform="translate(63.623047 0.684375)" xlink:href="#DejaVuSans-48"/>
       <use transform="translate(128.203125 38.965625)scale(0.7)" xlink:href="#DejaVuSans-49"/>
      </g>
     </g>
    </g>
    <g id="ytick_4">
     <g id="line2d_41">
      <path clip-path="url(#p9716132c89)" d="M 90 81.583427 
L 648 81.583427 
" style="fill:none;stroke:#b0b0b0;stroke-linecap:square;stroke-width:0.8;"/>
     </g>
     <g id="line2d_42">
      <g>
       <use style="stroke:#000000;stroke-width:0.8;" x="90" xlink:href="#m279be10c10" y="81.583427"/>
      </g>
     </g>
     <g id="text_9">
      <!-- $\mathdefault{10^{2}}$ -->
      <g transform="translate(65.4 85.382645)scale(0.1 -0.1)">
       <use transform="translate(0 0.765625)" xlink:href="#DejaVuSans-49"/>
       <use transform="translate(63.623047 0.765625)" xlink:href="#DejaVuSans-48"/>
       <use transform="translate(128.203125 39.046875)scale(0.7)" xlink:href="#DejaVuSans-50"/>
      </g>
     </g>
    </g>
    <g id="ytick_5">
     <g id="line2d_43">
      <defs>
       <path d="M 0 0 
L -2 0 
" id="m16909f2181" style="stroke:#000000;stroke-width:0.6;"/>
      </defs>
      <g>
       <use style="stroke:#000000;stroke-width:0.6;" x="90" xlink:href="#m16909f2181" y="348.256573"/>
      </g>
     </g>
    </g>
    <g id="ytick_6">
     <g id="line2d_44">
      <g>
       <use style="stroke:#000000;stroke-width:0.6;" x="90" xlink:href="#m16909f2181" y="330.857784"/>
      </g>
     </g>
    </g>
    <g id="ytick_7">
     <g id="line2d_45">
      <g>
       <use style="stroke:#000000;stroke-width:0.6;" x="90" xlink:href="#m16909f2181" y="318.513147"/>
      </g>
     </g>
    </g>
    <g id="ytick_8">
     <g id="line2d_46">
      <g>
       <use style="stroke:#000000;stroke-width:0.6;" x="90" xlink:href="#m16909f2181" y="308.937902"/>
      </g>
     </g>
    </g>
    <g id="ytick_9">
     <g id="line2d_47">
      <g>
       <use style="stroke:#000000;stroke-width:0.6;" x="90" xlink:href="#m16909f2181" y="301.114358"/>
      </g>
     </g>
    </g>
    <g id="ytick_10">
     <g id="line2d_48">
      <g>
       <use style="stroke:#000000;stroke-width:0.6;" x="90" xlink:href="#m16909f2181" y="294.499645"/>
      </g>
     </g>
    </g>
    <g id="ytick_11">
     <g id="line2d_49">
      <g>
       <use style="stroke:#000000;stroke-width:0.6;" x="90" xlink:href="#m16909f2181" y="288.76972"/>
      </g>
     </g>
    </g>
    <g id="ytick_12">
     <g id="line2d_50">
      <g>
       <use style="stroke:#000000;stroke-width:0.6;" x="90" xlink:href="#m16909f2181" y="283.715568"/>
      </g>
     </g>
    </g>
    <g id="ytick_13">
     <g id="line2d_51">
      <g>
       <use style="stroke:#000000;stroke-width:0.6;" x="90" xlink:href="#m16909f2181" y="249.451049"/>
      </g>
     </g>
    </g>
    <g id="ytick_14">
     <g id="line2d_52">
      <g>
       <use style="stroke:#000000;stroke-width:0.6;" x="90" xlink:href="#m16909f2181" y="232.05226"/>
      </g>
     </g>
    </g>
    <g id="ytick_15">
     <g id="line2d_53">
      <g>
       <use style="stroke:#000000;stroke-width:0.6;" x="90" xlink:href="#m16909f2181" y="219.707622"/>
      </g>
     </g>
    </g>
    <g id="ytick_16">
     <g id="line2d_54">
      <g>
       <use style="stroke:#000000;stroke-width:0.6;" x="90" xlink:href="#m16909f2181" y="210.132378"/>
      </g>
     </g>
    </g>
    <g id="ytick_17">
     <g id="line2d_55">
      <g>
       <use style="stroke:#000000;stroke-width:0.6;" x="90" xlink:href="#m16909f2181" y="202.308833"/>
      </g>
     </g>
    </g>
    <g id="ytick_18">
     <g id="line2d_56">
      <g>
       <use style="stroke:#000000;stroke-width:0.6;" x="90" xlink:href="#m16909f2181" y="195.69412"/>
      </g>
     </g>
    </g>
    <g id="ytick_19">
     <g id="line2d_57">
      <g>
       <use style="stroke:#000000;stroke-width:0.6;" x="90" xlink:href="#m16909f2181" y="189.964196"/>
      </g>
     </g>
    </g>
    <g id="ytick_20">
     <g id="line2d_58">
      <g>
       <use style="stroke:#000000;stroke-width:0.6;" x="90" xlink:href="#m16909f2181" y="184.910044"/>
      </g>
     </g>
    </g>
    <g id="ytick_21">
     <g id="line2d_59">
      <g>
       <use style="stroke:#000000;stroke-width:0.6;" x="90" xlink:href="#m16909f2181" y="150.645524"/>
      </g>
     </g>
    </g>
    <g id="ytick_22">
     <g id="line2d_60">
      <g>
       <use style="stroke:#000000;stroke-width:0.6;" x="90" xlink:href="#m16909f2181" y="133.246735"/>
      </g>
     </g>
    </g>
    <g id="ytick_23">
     <g id="line2d_61">
      <g>
       <use style="stroke:#000000;stroke-width:0.6;" x="90" xlink:href="#m16909f2181" y="120.902098"/>
      </g>
     </g>
    </g>
    <g id="ytick_24">
     <g id="line2d_62">
      <g>
       <use style="stroke:#000000;stroke-width:0.6;" x="90" xlink:href="#m16909f2181" y="111.326853"/>
      </g>
     </g>
    </g>
    <g id="ytick_25">
     <g id="line2d_63">
      <g>
       <use style="stroke:#000000;stroke-width:0.6;" x="90" xlink:href="#m16909f2181" y="103.503309"/>
      </g>
     </g>
    </g>
    <g id="ytick_26">
     <g id="line2d_64">
      <g>
       <use style="stroke:#000000;stroke-width:0.6;" x="90" xlink:href="#m16909f2181" y="96.888596"/>
      </g>
     </g>
    </g>
    <g id="ytick_27">
     <g id="line2d_65">
      <g>
       <use style="stroke:#000000;stroke-width:0.6;" x="90" xlink:href="#m16909f2181" y="91.158671"/>
      </g>
     </g>
    </g>
    <g id="ytick_28">
     <g id="line2d_66">
      <g>
       <use style="stroke:#000000;stroke-width:0.6;" x="90" xlink:href="#m16909f2181" y="86.104519"/>
      </g>
     </g>
    </g>
    <g id="ytick_29">
     <g id="line2d_67">
      <g>
       <use style="stroke:#000000;stroke-width:0.6;" x="90" xlink:href="#m16909f2181" y="51.84"/>
      </g>
     </g>
    </g>
    <g id="text_10">
     <!-- Average Pellet Count -->
     <g transform="translate(53.420312 267.204375)rotate(-90)scale(0.1 -0.1)">
      <defs>
       <path d="M 34.1875 63.1875 
L 20.796875 26.90625 
L 47.609375 26.90625 
z
M 28.609375 72.90625 
L 39.796875 72.90625 
L 67.578125 0 
L 57.328125 0 
L 50.6875 18.703125 
L 17.828125 18.703125 
L 11.1875 0 
L 0.78125 0 
z
" id="DejaVuSans-65"/>
       <path d="M 2.984375 54.6875 
L 12.5 54.6875 
L 29.59375 8.796875 
L 46.6875 54.6875 
L 56.203125 54.6875 
L 35.6875 0 
L 23.484375 0 
z
" id="DejaVuSans-118"/>
       <path d="M 45.40625 27.984375 
Q 45.40625 37.75 41.375 43.109375 
Q 37.359375 48.484375 30.078125 48.484375 
Q 22.859375 48.484375 18.828125 43.109375 
Q 14.796875 37.75 14.796875 27.984375 
Q 14.796875 18.265625 18.828125 12.890625 
Q 22.859375 7.515625 30.078125 7.515625 
Q 37.359375 7.515625 41.375 12.890625 
Q 45.40625 18.265625 45.40625 27.984375 
z
M 54.390625 6.78125 
Q 54.390625 -7.171875 48.1875 -13.984375 
Q 42 -20.796875 29.203125 -20.796875 
Q 24.46875 -20.796875 20.265625 -20.09375 
Q 16.0625 -19.390625 12.109375 -17.921875 
L 12.109375 -9.1875 
Q 16.0625 -11.328125 19.921875 -12.34375 
Q 23.78125 -13.375 27.78125 -13.375 
Q 36.625 -13.375 41.015625 -8.765625 
Q 45.40625 -4.15625 45.40625 5.171875 
L 45.40625 9.625 
Q 42.625 4.78125 38.28125 2.390625 
Q 33.9375 0 27.875 0 
Q 17.828125 0 11.671875 7.65625 
Q 5.515625 15.328125 5.515625 27.984375 
Q 5.515625 40.671875 11.671875 48.328125 
Q 17.828125 56 27.875 56 
Q 33.9375 56 38.28125 53.609375 
Q 42.625 51.21875 45.40625 46.390625 
L 45.40625 54.6875 
L 54.390625 54.6875 
z
" id="DejaVuSans-103"/>
       <path d="M 9.421875 75.984375 
L 18.40625 75.984375 
L 18.40625 0 
L 9.421875 0 
z
" id="DejaVuSans-108"/>
       <path d="M 18.3125 70.21875 
L 18.3125 54.6875 
L 36.8125 54.6875 
L 36.8125 47.703125 
L 18.3125 47.703125 
L 18.3125 18.015625 
Q 18.3125 11.328125 20.140625 9.421875 
Q 21.96875 7.515625 27.59375 7.515625 
L 36.8125 7.515625 
L 36.8125 0 
L 27.59375 0 
Q 17.1875 0 13.234375 3.875 
Q 9.28125 7.765625 9.28125 18.015625 
L 9.28125 47.703125 
L 2.6875 47.703125 
L 2.6875 54.6875 
L 9.28125 54.6875 
L 9.28125 70.21875 
z
" id="DejaVuSans-116"/>
       <path d="M 64.40625 67.28125 
L 64.40625 56.890625 
Q 59.421875 61.53125 53.78125 63.8125 
Q 48.140625 66.109375 41.796875 66.109375 
Q 29.296875 66.109375 22.65625 58.46875 
Q 16.015625 50.828125 16.015625 36.375 
Q 16.015625 21.96875 22.65625 14.328125 
Q 29.296875 6.6875 41.796875 6.6875 
Q 48.140625 6.6875 53.78125 8.984375 
Q 59.421875 11.28125 64.40625 15.921875 
L 64.40625 5.609375 
Q 59.234375 2.09375 53.4375 0.328125 
Q 47.65625 -1.421875 41.21875 -1.421875 
Q 24.65625 -1.421875 15.125 8.703125 
Q 5.609375 18.84375 5.609375 36.375 
Q 5.609375 53.953125 15.125 64.078125 
Q 24.65625 74.21875 41.21875 74.21875 
Q 47.75 74.21875 53.53125 72.484375 
Q 59.328125 70.75 64.40625 67.28125 
z
" id="DejaVuSans-67"/>
       <path d="M 30.609375 48.390625 
Q 23.390625 48.390625 19.1875 42.75 
Q 14.984375 37.109375 14.984375 27.296875 
Q 14.984375 17.484375 19.15625 11.84375 
Q 23.34375 6.203125 30.609375 6.203125 
Q 37.796875 6.203125 41.984375 11.859375 
Q 46.1875 17.53125 46.1875 27.296875 
Q 46.1875 37.015625 41.984375 42.703125 
Q 37.796875 48.390625 30.609375 48.390625 
z
M 30.609375 56 
Q 42.328125 56 49.015625 48.375 
Q 55.71875 40.765625 55.71875 27.296875 
Q 55.71875 13.875 49.015625 6.21875 
Q 42.328125 -1.421875 30.609375 -1.421875 
Q 18.84375 -1.421875 12.171875 6.21875 
Q 5.515625 13.875 5.515625 27.296875 
Q 5.515625 40.765625 12.171875 48.375 
Q 18.84375 56 30.609375 56 
z
" id="DejaVuSans-111"/>
       <path d="M 8.5 21.578125 
L 8.5 54.6875 
L 17.484375 54.6875 
L 17.484375 21.921875 
Q 17.484375 14.15625 20.5 10.265625 
Q 23.53125 6.390625 29.59375 6.390625 
Q 36.859375 6.390625 41.078125 11.03125 
Q 45.3125 15.671875 45.3125 23.6875 
L 45.3125 54.6875 
L 54.296875 54.6875 
L 54.296875 0 
L 45.3125 0 
L 45.3125 8.40625 
Q 42.046875 3.421875 37.71875 1 
Q 33.40625 -1.421875 27.6875 -1.421875 
Q 18.265625 -1.421875 13.375 4.4375 
Q 8.5 10.296875 8.5 21.578125 
z
M 31.109375 56 
z
" id="DejaVuSans-117"/>
       <path d="M 54.890625 33.015625 
L 54.890625 0 
L 45.90625 0 
L 45.90625 32.71875 
Q 45.90625 40.484375 42.875 44.328125 
Q 39.84375 48.1875 33.796875 48.1875 
Q 26.515625 48.1875 22.3125 43.546875 
Q 18.109375 38.921875 18.109375 30.90625 
L 18.109375 0 
L 9.078125 0 
L 9.078125 54.6875 
L 18.109375 54.6875 
L 18.109375 46.1875 
Q 21.34375 51.125 25.703125 53.5625 
Q 30.078125 56 35.796875 56 
Q 45.21875 56 50.046875 50.171875 
Q 54.890625 44.34375 54.890625 33.015625 
z
" id="DejaVuSans-110"/>
      </defs>
      <use xlink:href="#DejaVuSans-65"/>
      <use x="62.533203" xlink:href="#DejaVuSans-118"/>
      <use x="121.712891" xlink:href="#DejaVuSans-101"/>
      <use x="183.236328" xlink:href="#DejaVuSans-114"/>
      <use x="224.349609" xlink:href="#DejaVuSans-97"/>
      <use x="285.628906" xlink:href="#DejaVuSans-103"/>
      <use x="349.105469" xlink:href="#DejaVuSans-101"/>
      <use x="410.628906" xlink:href="#DejaVuSans-32"/>
      <use x="442.416016" xlink:href="#DejaVuSans-80"/>
      <use x="499.09375" xlink:href="#DejaVuSans-101"/>
      <use x="560.617188" xlink:href="#DejaVuSans-108"/>
      <use x="588.400391" xlink:href="#DejaVuSans-108"/>
      <use x="616.183594" xlink:href="#DejaVuSans-101"/>
      <use x="677.707031" xlink:href="#DejaVuSans-116"/>
      <use x="716.916016" xlink:href="#DejaVuSans-32"/>
      <use x="748.703125" xlink:href="#DejaVuSans-67"/>
      <use x="818.527344" xlink:href="#DejaVuSans-111"/>
      <use x="879.708984" xlink:href="#DejaVuSans-117"/>
      <use x="943.087891" xlink:href="#DejaVuSans-110"/>
      <use x="1006.466797" xlink:href="#DejaVuSans-116"/>
     </g>
    </g>
   </g>
   <g id="LineCollection_1">
    <path clip-path="url(#p9716132c89)" d="M 112.456018 102.004884 
L 112.456018 94.067492 
" style="fill:none;stroke:#000000;stroke-width:1.5;"/>
    <path clip-path="url(#p9716132c89)" d="M 166.194286 103.930402 
L 166.194286 95.988931 
" style="fill:none;stroke:#000000;stroke-width:1.5;"/>
    <path clip-path="url(#p9716132c89)" d="M 197.629157 136.515016 
L 197.629157 128.611247 
" style="fill:none;stroke:#000000;stroke-width:1.5;"/>
    <path clip-path="url(#p9716132c89)" d="M 219.932553 140.817949 
L 219.932553 132.666923 
" style="fill:none;stroke:#000000;stroke-width:1.5;"/>
    <path clip-path="url(#p9716132c89)" d="M 237.232411 145.42941 
L 237.232411 137.99193 
" style="fill:none;stroke:#000000;stroke-width:1.5;"/>
    <path clip-path="url(#p9716132c89)" d="M 251.367425 151.654148 
L 251.367425 145.236506 
" style="fill:none;stroke:#000000;stroke-width:1.5;"/>
    <path clip-path="url(#p9716132c89)" d="M 263.318408 156.13986 
L 263.318408 150.733125 
" style="fill:none;stroke:#000000;stroke-width:1.5;"/>
    <path clip-path="url(#p9716132c89)" d="M 282.802296 161.941769 
L 282.802296 157.15597 
" style="fill:none;stroke:#000000;stroke-width:1.5;"/>
    <path clip-path="url(#p9716132c89)" d="M 290.970679 168.754805 
L 290.970679 163.318639 
" style="fill:none;stroke:#000000;stroke-width:1.5;"/>
    <path clip-path="url(#p9716132c89)" d="M 305.105692 173.934888 
L 305.105692 168.262149 
" style="fill:none;stroke:#000000;stroke-width:1.5;"/>
    <path clip-path="url(#p9716132c89)" d="M 311.311238 177.188736 
L 311.311238 170.992853 
" style="fill:none;stroke:#000000;stroke-width:1.5;"/>
    <path clip-path="url(#p9716132c89)" d="M 322.40555 181.535969 
L 322.40555 175.282337 
" style="fill:none;stroke:#000000;stroke-width:1.5;"/>
    <path clip-path="url(#p9716132c89)" d="M 332.10919 186.077647 
L 332.10919 178.901569 
" style="fill:none;stroke:#000000;stroke-width:1.5;"/>
    <path clip-path="url(#p9716132c89)" d="M 344.708946 190.975751 
L 344.708946 183.514576 
" style="fill:none;stroke:#000000;stroke-width:1.5;"/>
    <path clip-path="url(#p9716132c89)" d="M 352.098147 195.884628 
L 352.098147 187.486852 
" style="fill:none;stroke:#000000;stroke-width:1.5;"/>
    <path clip-path="url(#p9716132c89)" d="M 362.008804 202.308833 
L 362.008804 193.052629 
" style="fill:none;stroke:#000000;stroke-width:1.5;"/>
    <path clip-path="url(#p9716132c89)" d="M 370.794943 206.435114 
L 370.794943 197.113095 
" style="fill:none;stroke:#000000;stroke-width:1.5;"/>
    <path clip-path="url(#p9716132c89)" d="M 381.147356 211.543443 
L 381.147356 201.948231 
" style="fill:none;stroke:#000000;stroke-width:1.5;"/>
    <path clip-path="url(#p9716132c89)" d="M 390.278831 216.311649 
L 390.278831 206.447408 
" style="fill:none;stroke:#000000;stroke-width:1.5;"/>
    <path clip-path="url(#p9716132c89)" d="M 398.447214 220.677532 
L 398.447214 211.28771 
" style="fill:none;stroke:#000000;stroke-width:1.5;"/>
    <path clip-path="url(#p9716132c89)" d="M 407.578689 226.824469 
L 407.578689 216.82458 
" style="fill:none;stroke:#000000;stroke-width:1.5;"/>
    <path clip-path="url(#p9716132c89)" d="M 415.747072 235.647033 
L 415.747072 224.534776 
" style="fill:none;stroke:#000000;stroke-width:1.5;"/>
    <path clip-path="url(#p9716132c89)" d="M 424.533211 240.874886 
L 424.533211 228.959558 
" style="fill:none;stroke:#000000;stroke-width:1.5;"/>
    <path clip-path="url(#p9716132c89)" d="M 432.424212 248.977779 
L 432.424212 234.002457 
" style="fill:none;stroke:#000000;stroke-width:1.5;"/>
    <path clip-path="url(#p9716132c89)" d="M 440.71754 255.90553 
L 440.71754 239.849666 
" style="fill:none;stroke:#000000;stroke-width:1.5;"/>
    <path clip-path="url(#p9716132c89)" d="M 449.22227 264.426772 
L 449.22227 246.452315 
" style="fill:none;stroke:#000000;stroke-width:1.5;"/>
    <path clip-path="url(#p9716132c89)" d="M 457.792353 278.504433 
L 457.792353 254.898282 
" style="fill:none;stroke:#000000;stroke-width:1.5;"/>
    <path clip-path="url(#p9716132c89)" d="M 465.508676 284.43965 
L 465.508676 257.173061 
" style="fill:none;stroke:#000000;stroke-width:1.5;"/>
    <path clip-path="url(#p9716132c89)" d="M 474.002807 293.728006 
L 474.002807 261.524189 
" style="fill:none;stroke:#000000;stroke-width:1.5;"/>
    <path clip-path="url(#p9716132c89)" d="M 482.317332 298.042132 
L 482.317332 269.813411 
" style="fill:none;stroke:#000000;stroke-width:1.5;"/>
    <path clip-path="url(#p9716132c89)" d="M 490.419985 302.468816 
L 490.419985 275.681577 
" style="fill:none;stroke:#000000;stroke-width:1.5;"/>
    <path clip-path="url(#p9716132c89)" d="M 498.291894 328.108068 
L 498.291894 289.241218 
" style="fill:none;stroke:#000000;stroke-width:1.5;"/>
    <path clip-path="url(#p9716132c89)" d="M 506.40679 379.028757 
L 506.40679 303.388052 
" style="fill:none;stroke:#000000;stroke-width:1.5;"/>
    <path clip-path="url(#p9716132c89)" d="M 514.188981 379.028757 
L 514.188981 303.388052 
" style="fill:none;stroke:#000000;stroke-width:1.5;"/>
    <path clip-path="url(#p9716132c89)" d="M 522.051878 433 
L 522.051878 326.336691 
" style="fill:none;stroke:#000000;stroke-width:1.5;"/>
    <path clip-path="url(#p9716132c89)" d="M 0 0 
" style="fill:none;stroke:#000000;stroke-width:1.5;"/>
    <path clip-path="url(#p9716132c89)" d="M 0 0 
" style="fill:none;stroke:#000000;stroke-width:1.5;"/>
    <path clip-path="url(#p9716132c89)" d="M 0 0 
" style="fill:none;stroke:#000000;stroke-width:1.5;"/>
    <path clip-path="url(#p9716132c89)" d="M 0 0 
" style="fill:none;stroke:#000000;stroke-width:1.5;"/>
    <path clip-path="url(#p9716132c89)" d="M 0 0 
" style="fill:none;stroke:#000000;stroke-width:1.5;"/>
   </g>
   <g id="line2d_68">
    <path clip-path="url(#p9716132c89)" d="M 112.456018 125.423191 
L 166.194286 125.423191 
L 197.629157 155.166617 
L 219.932553 155.166617 
L 237.232411 155.166617 
L 251.367425 155.166617 
L 263.318408 155.166617 
L 282.802296 155.166617 
L 290.970679 157.619325 
L 305.105692 157.619325 
L 311.311238 162.990162 
L 322.40555 162.990162 
L 332.10919 165.950694 
L 344.708946 165.950694 
L 352.098147 169.130718 
L 362.008804 176.299125 
L 370.794943 180.388951 
L 381.147356 189.964196 
L 390.278831 189.964196 
L 398.447214 202.308833 
L 407.578689 219.707622 
L 415.747072 232.05226 
L 424.533211 232.05226 
L 432.424212 232.05226 
L 440.71754 232.05226 
L 449.22227 232.05226 
L 457.792353 249.451049 
L 465.508676 249.451049 
L 474.002807 249.451049 
L 482.317332 249.451049 
L 490.419985 249.451049 
L 498.291894 279.194476 
L 506.40679 279.194476 
L 514.188981 279.194476 
" style="fill:none;stroke:#ff0000;stroke-linecap:square;stroke-opacity:0.3;"/>
   </g>
   <g id="line2d_69">
    <path clip-path="url(#p9716132c89)" d="M 112.456018 83.335127 
L 166.194286 84.238543 
L 197.629157 113.98197 
L 219.932553 118.808478 
L 237.232411 126.632023 
L 251.367425 139.387292 
L 263.318408 144.648243 
L 282.802296 150.645524 
L 290.970679 152.846555 
L 305.105692 169.130718 
L 311.311238 172.565407 
L 322.40555 176.299125 
L 332.10919 180.388951 
L 344.708946 189.964196 
L 352.098147 195.69412 
L 362.008804 195.69412 
L 370.794943 202.308833 
L 381.147356 210.132378 
L 390.278831 210.132378 
L 398.447214 210.132378 
L 407.578689 210.132378 
L 415.747072 219.707622 
L 424.533211 279.194476 
L 432.424212 279.194476 
L 440.71754 279.194476 
L 449.22227 279.194476 
L 457.792353 279.194476 
L 465.508676 279.194476 
" style="fill:none;stroke:#ff0000;stroke-linecap:square;stroke-opacity:0.3;"/>
   </g>
   <g id="line2d_70">
    <path clip-path="url(#p9716132c89)" d="M 112.456018 94.504055 
L 166.194286 94.504055 
L 197.629157 124.247482 
L 219.932553 124.247482 
L 237.232411 126.632023 
L 251.367425 130.477343 
L 263.318408 139.387292 
L 282.802296 148.551905 
L 290.970679 157.619325 
L 305.105692 165.950694 
L 311.311238 169.130718 
L 322.40555 176.299125 
L 332.10919 180.388951 
L 344.708946 180.388951 
L 352.098147 184.910044 
L 362.008804 210.132378 
L 370.794943 210.132378 
L 381.147356 210.132378 
L 390.278831 210.132378 
L 398.447214 210.132378 
L 407.578689 232.05226 
L 415.747072 232.05226 
L 424.533211 232.05226 
L 432.424212 279.194476 
" style="fill:none;stroke:#ff0000;stroke-linecap:square;stroke-opacity:0.3;"/>
   </g>
   <g id="line2d_71">
    <path clip-path="url(#p9716132c89)" d="M 112.456018 127.875898 
L 166.194286 127.875898 
L 197.629157 157.619325 
L 219.932553 157.619325 
L 237.232411 157.619325 
L 251.367425 157.619325 
L 263.318408 157.619325 
L 282.802296 157.619325 
L 290.970679 165.950694 
L 305.105692 165.950694 
L 311.311238 172.565407 
L 322.40555 172.565407 
L 332.10919 176.299125 
L 344.708946 176.299125 
L 352.098147 176.299125 
L 362.008804 176.299125 
L 370.794943 180.388951 
L 381.147356 184.910044 
L 390.278831 189.964196 
L 398.447214 189.964196 
L 407.578689 202.308833 
L 415.747072 202.308833 
L 424.533211 210.132378 
L 432.424212 210.132378 
L 440.71754 232.05226 
L 449.22227 232.05226 
L 457.792353 232.05226 
L 465.508676 232.05226 
L 474.002807 249.451049 
L 482.317332 249.451049 
L 490.419985 249.451049 
" style="fill:none;stroke:#ff0000;stroke-linecap:square;stroke-opacity:0.3;"/>
   </g>
   <g id="line2d_72">
    <path clip-path="url(#p9716132c89)" d="M 112.456018 81.583427 
L 166.194286 81.583427 
L 197.629157 113.078553 
L 219.932553 113.98197 
L 237.232411 125.423191 
L 251.367425 134.701474 
L 263.318408 142.82198 
L 282.802296 155.166617 
L 290.970679 169.130718 
L 305.105692 180.388951 
L 311.311238 184.910044 
L 322.40555 184.910044 
L 332.10919 184.910044 
L 344.708946 184.910044 
L 352.098147 189.964196 
L 362.008804 202.308833 
L 370.794943 219.707622 
L 381.147356 219.707622 
L 390.278831 219.707622 
L 398.447214 219.707622 
L 407.578689 219.707622 
L 415.747072 232.05226 
L 424.533211 232.05226 
L 432.424212 249.451049 
L 440.71754 279.194476 
L 449.22227 279.194476 
L 457.792353 279.194476 
" style="fill:none;stroke:#ff0000;stroke-linecap:square;stroke-opacity:0.3;"/>
   </g>
   <g id="line2d_73">
    <path clip-path="url(#p9716132c89)" d="M 112.456018 100.733916 
L 166.194286 100.733916 
L 197.629157 130.477343 
L 219.932553 133.246735 
L 237.232411 134.701474 
L 251.367425 146.555699 
L 263.318408 148.551905 
L 282.802296 150.645524 
L 290.970679 162.990162 
L 305.105692 165.950694 
L 311.311238 165.950694 
L 322.40555 169.130718 
L 332.10919 172.565407 
L 344.708946 176.299125 
L 352.098147 176.299125 
L 362.008804 180.388951 
L 370.794943 184.910044 
L 381.147356 184.910044 
L 390.278831 189.964196 
L 398.447214 195.69412 
L 407.578689 195.69412 
L 415.747072 202.308833 
L 424.533211 210.132378 
L 432.424212 210.132378 
L 440.71754 219.707622 
L 449.22227 249.451049 
L 457.792353 249.451049 
L 465.508676 249.451049 
L 474.002807 249.451049 
L 482.317332 249.451049 
L 490.419985 279.194476 
" style="fill:none;stroke:#ff0000;stroke-linecap:square;stroke-opacity:0.3;"/>
   </g>
   <g id="line2d_74">
    <path clip-path="url(#p9716132c89)" d="M 112.456018 91.698436 
L 166.194286 98.768197 
L 197.629157 139.387292 
L 219.932553 148.551905 
L 237.232411 157.619325 
L 251.367425 162.990162 
L 263.318408 162.990162 
L 282.802296 165.950694 
L 290.970679 180.388951 
L 305.105692 189.964196 
L 311.311238 189.964196 
L 322.40555 189.964196 
L 332.10919 189.964196 
L 344.708946 189.964196 
L 352.098147 202.308833 
L 362.008804 202.308833 
L 370.794943 202.308833 
L 381.147356 202.308833 
L 390.278831 210.132378 
L 398.447214 210.132378 
L 407.578689 210.132378 
L 415.747072 210.132378 
L 424.533211 210.132378 
L 432.424212 210.132378 
L 440.71754 210.132378 
L 449.22227 219.707622 
L 457.792353 249.451049 
L 465.508676 279.194476 
L 474.002807 279.194476 
" style="fill:none;stroke:#ff0000;stroke-linecap:square;stroke-opacity:0.3;"/>
   </g>
   <g id="line2d_75">
    <path clip-path="url(#p9716132c89)" d="M 112.456018 89.065051 
L 166.194286 89.065051 
L 197.629157 119.842521 
L 219.932553 123.103129 
L 237.232411 130.477343 
L 251.367425 139.387292 
L 263.318408 150.645524 
L 282.802296 157.619325 
L 290.970679 162.990162 
L 305.105692 176.299125 
L 311.311238 189.964196 
L 322.40555 202.308833 
L 332.10919 210.132378 
L 344.708946 219.707622 
L 352.098147 232.05226 
L 362.008804 232.05226 
L 370.794943 232.05226 
L 381.147356 249.451049 
L 390.278831 249.451049 
" style="fill:none;stroke:#ff0000;stroke-linecap:square;stroke-opacity:0.3;"/>
   </g>
   <g id="line2d_76">
    <path clip-path="url(#p9716132c89)" d="M 112.456018 85.161389 
L 166.194286 87.559259 
L 197.629157 118.808478 
L 219.932553 129.156909 
L 237.232411 141.07028 
L 251.367425 148.551905 
L 263.318408 152.846555 
L 282.802296 155.166617 
L 290.970679 162.990162 
L 305.105692 172.565407 
L 311.311238 176.299125 
L 322.40555 180.388951 
L 332.10919 189.964196 
L 344.708946 189.964196 
L 352.098147 195.69412 
L 362.008804 210.132378 
L 370.794943 219.707622 
L 381.147356 219.707622 
L 390.278831 232.05226 
L 398.447214 232.05226 
L 407.578689 249.451049 
L 415.747072 279.194476 
L 424.533211 279.194476 
" style="fill:none;stroke:#ff0000;stroke-linecap:square;stroke-opacity:0.3;"/>
   </g>
   <g id="line2d_77">
    <path clip-path="url(#p9716132c89)" d="M 112.456018 95.679764 
L 166.194286 95.679764 
L 197.629157 125.423191 
L 219.932553 125.423191 
L 237.232411 125.423191 
L 251.367425 134.701474 
L 263.318408 144.648243 
L 282.802296 155.166617 
L 290.970679 160.220769 
L 305.105692 160.220769 
L 311.311238 160.220769 
L 322.40555 172.565407 
L 332.10919 180.388951 
L 344.708946 195.69412 
L 352.098147 195.69412 
L 362.008804 202.308833 
L 370.794943 202.308833 
L 381.147356 219.707622 
L 390.278831 232.05226 
L 398.447214 249.451049 
L 407.578689 249.451049 
L 415.747072 279.194476 
L 424.533211 279.194476 
L 432.424212 279.194476 
" style="fill:none;stroke:#ff0000;stroke-linecap:square;stroke-opacity:0.3;"/>
   </g>
   <g id="line2d_78">
    <path clip-path="url(#p9716132c89)" d="M 112.456018 84.697485 
L 166.194286 87.559259 
L 197.629157 127.875898 
L 219.932553 160.220769 
L 237.232411 169.130718 
L 251.367425 172.565407 
L 263.318408 180.388951 
L 282.802296 184.910044 
L 290.970679 202.308833 
L 305.105692 210.132378 
L 311.311238 219.707622 
L 322.40555 232.05226 
L 332.10919 249.451049 
L 344.708946 249.451049 
L 352.098147 249.451049 
L 362.008804 249.451049 
L 370.794943 249.451049 
L 381.147356 249.451049 
L 390.278831 249.451049 
L 398.447214 249.451049 
L 407.578689 279.194476 
L 415.747072 279.194476 
L 424.533211 279.194476 
" style="fill:none;stroke:#ff0000;stroke-linecap:square;stroke-opacity:0.3;"/>
   </g>
   <g id="line2d_79">
    <path clip-path="url(#p9716132c89)" d="M 112.456018 90.099094 
L 166.194286 91.158671 
L 197.629157 121.988503 
L 219.932553 124.247482 
L 237.232411 129.156909 
L 251.367425 134.701474 
L 263.318408 141.07028 
L 282.802296 160.220769 
L 290.970679 172.565407 
L 305.105692 172.565407 
L 311.311238 176.299125 
L 322.40555 176.299125 
L 332.10919 184.910044 
L 344.708946 195.69412 
L 352.098147 202.308833 
L 362.008804 219.707622 
L 370.794943 232.05226 
L 381.147356 249.451049 
L 390.278831 279.194476 
L 398.447214 279.194476 
L 407.578689 279.194476 
L 415.747072 279.194476 
L 424.533211 279.194476 
L 432.424212 279.194476 
L 440.71754 279.194476 
" style="fill:none;stroke:#ff0000;stroke-linecap:square;stroke-opacity:0.3;"/>
   </g>
   <g id="line2d_80">
    <path clip-path="url(#p9716132c89)" d="M 112.456018 100.733916 
L 166.194286 108.826494 
L 197.629157 142.82198 
L 219.932553 142.82198 
L 237.232411 146.555699 
L 251.367425 150.645524 
L 263.318408 150.645524 
L 282.802296 152.846555 
L 290.970679 152.846555 
L 305.105692 155.166617 
L 311.311238 155.166617 
L 322.40555 160.220769 
L 332.10919 160.220769 
L 344.708946 169.130718 
L 352.098147 176.299125 
L 362.008804 184.910044 
L 370.794943 189.964196 
L 381.147356 202.308833 
L 390.278831 202.308833 
L 398.447214 202.308833 
L 407.578689 210.132378 
L 415.747072 219.707622 
L 424.533211 219.707622 
L 432.424212 219.707622 
L 440.71754 219.707622 
L 449.22227 232.05226 
L 457.792353 279.194476 
L 465.508676 279.194476 
L 474.002807 279.194476 
L 482.317332 279.194476 
L 490.419985 279.194476 
L 498.291894 279.194476 
" style="fill:none;stroke:#ff0000;stroke-linecap:square;stroke-opacity:0.3;"/>
   </g>
   <g id="line2d_81">
    <path clip-path="url(#p9716132c89)" d="M 112.456018 93.928064 
L 166.194286 99.413483 
L 197.629157 137.767828 
L 219.932553 141.07028 
L 237.232411 142.82198 
L 251.367425 152.846555 
L 263.318408 155.166617 
L 282.802296 162.990162 
L 290.970679 169.130718 
L 305.105692 180.388951 
L 311.311238 184.910044 
L 322.40555 189.964196 
L 332.10919 195.69412 
L 344.708946 195.69412 
L 352.098147 210.132378 
L 362.008804 219.707622 
L 370.794943 219.707622 
L 381.147356 219.707622 
L 390.278831 219.707622 
L 398.447214 219.707622 
L 407.578689 219.707622 
L 415.747072 232.05226 
L 424.533211 249.451049 
L 432.424212 279.194476 
L 440.71754 279.194476 
L 449.22227 279.194476 
" style="fill:none;stroke:#ff0000;stroke-linecap:square;stroke-opacity:0.3;"/>
   </g>
   <g id="line2d_82">
    <path clip-path="url(#p9716132c89)" d="M 112.456018 155.166617 
L 166.194286 155.166617 
L 197.629157 184.910044 
L 219.932553 184.910044 
L 237.232411 184.910044 
L 251.367425 184.910044 
L 263.318408 184.910044 
L 282.802296 184.910044 
L 290.970679 184.910044 
L 305.105692 184.910044 
L 311.311238 184.910044 
L 322.40555 184.910044 
L 332.10919 189.964196 
L 344.708946 189.964196 
L 352.098147 189.964196 
L 362.008804 195.69412 
L 370.794943 195.69412 
L 381.147356 202.308833 
L 390.278831 210.132378 
L 398.447214 219.707622 
L 407.578689 219.707622 
L 415.747072 219.707622 
L 424.533211 219.707622 
L 432.424212 219.707622 
L 440.71754 219.707622 
L 449.22227 219.707622 
L 457.792353 219.707622 
L 465.508676 219.707622 
L 474.002807 219.707622 
L 482.317332 232.05226 
L 490.419985 232.05226 
L 498.291894 232.05226 
L 506.40679 232.05226 
L 514.188981 232.05226 
L 522.051878 249.451049 
L 530.259605 249.451049 
L 538.002009 249.451049 
L 545.913677 249.451049 
L 553.879297 279.194476 
L 561.576384 279.194476 
" style="fill:none;stroke:#ff0000;stroke-linecap:square;stroke-opacity:0.3;"/>
   </g>
   <g id="line2d_83">
    <path clip-path="url(#p9716132c89)" d="M 112.456018 146.555699 
L 166.194286 146.555699 
L 197.629157 176.299125 
L 219.932553 176.299125 
L 237.232411 176.299125 
L 251.367425 176.299125 
L 263.318408 176.299125 
L 282.802296 176.299125 
L 290.970679 176.299125 
L 305.105692 172.565407 
L 311.311238 172.565407 
L 322.40555 176.299125 
L 332.10919 180.388951 
L 344.708946 184.910044 
L 352.098147 189.964196 
L 362.008804 189.964196 
L 370.794943 195.69412 
L 381.147356 195.69412 
L 390.278831 195.69412 
L 398.447214 195.69412 
L 407.578689 195.69412 
L 415.747072 202.308833 
L 424.533211 202.308833 
L 432.424212 202.308833 
L 440.71754 202.308833 
L 449.22227 202.308833 
L 457.792353 202.308833 
L 465.508676 202.308833 
L 474.002807 202.308833 
L 482.317332 210.132378 
L 490.419985 219.707622 
L 498.291894 232.05226 
L 506.40679 279.194476 
L 514.188981 279.194476 
" style="fill:none;stroke:#ff0000;stroke-linecap:square;stroke-opacity:0.3;"/>
   </g>
   <g id="line2d_84">
    <path clip-path="url(#p9716132c89)" d="M 112.456018 80.733682 
L 166.194286 83.335127 
L 197.629157 119.842521 
L 219.932553 124.247482 
L 237.232411 131.839701 
L 251.367425 144.648243 
L 263.318408 157.619325 
L 282.802296 172.565407 
L 290.970679 176.299125 
L 305.105692 176.299125 
L 311.311238 176.299125 
L 322.40555 184.910044 
L 332.10919 189.964196 
L 344.708946 210.132378 
L 352.098147 219.707622 
L 362.008804 219.707622 
L 370.794943 219.707622 
L 381.147356 219.707622 
L 390.278831 232.05226 
L 398.447214 232.05226 
L 407.578689 232.05226 
L 415.747072 232.05226 
L 424.533211 232.05226 
L 432.424212 249.451049 
L 440.71754 249.451049 
L 449.22227 279.194476 
" style="fill:none;stroke:#ff0000;stroke-linecap:square;stroke-opacity:0.3;"/>
   </g>
   <g id="line2d_85">
    <path clip-path="url(#p9716132c89)" d="M 112.456018 115.847946 
L 166.194286 116.812272 
L 197.629157 146.555699 
L 219.932553 146.555699 
L 237.232411 146.555699 
L 251.367425 146.555699 
L 263.318408 146.555699 
L 282.802296 148.551905 
L 290.970679 150.645524 
L 305.105692 155.166617 
L 311.311238 157.619325 
L 322.40555 162.990162 
L 332.10919 162.990162 
L 344.708946 169.130718 
L 352.098147 169.130718 
L 362.008804 169.130718 
L 370.794943 172.565407 
L 381.147356 176.299125 
L 390.278831 184.910044 
L 398.447214 195.69412 
L 407.578689 202.308833 
L 415.747072 232.05226 
L 424.533211 232.05226 
L 432.424212 232.05226 
L 440.71754 232.05226 
L 449.22227 232.05226 
L 457.792353 232.05226 
L 465.508676 232.05226 
L 474.002807 249.451049 
L 482.317332 249.451049 
L 490.419985 249.451049 
L 498.291894 249.451049 
L 506.40679 279.194476 
L 514.188981 279.194476 
L 522.051878 279.194476 
" style="fill:none;stroke:#ff0000;stroke-linecap:square;stroke-opacity:0.3;"/>
   </g>
   <g id="line2d_86">
    <defs>
     <path d="M 3 0 
L -3 -0 
" id="meae162ae13" style="stroke:#000000;"/>
    </defs>
    <g clip-path="url(#p9716132c89)">
     <use style="stroke:#000000;" x="112.456018" xlink:href="#meae162ae13" y="102.004884"/>
     <use style="stroke:#000000;" x="166.194286" xlink:href="#meae162ae13" y="103.930402"/>
     <use style="stroke:#000000;" x="197.629157" xlink:href="#meae162ae13" y="136.515016"/>
     <use style="stroke:#000000;" x="219.932553" xlink:href="#meae162ae13" y="140.817949"/>
     <use style="stroke:#000000;" x="237.232411" xlink:href="#meae162ae13" y="145.42941"/>
     <use style="stroke:#000000;" x="251.367425" xlink:href="#meae162ae13" y="151.654148"/>
     <use style="stroke:#000000;" x="263.318408" xlink:href="#meae162ae13" y="156.13986"/>
     <use style="stroke:#000000;" x="282.802296" xlink:href="#meae162ae13" y="161.941769"/>
     <use style="stroke:#000000;" x="290.970679" xlink:href="#meae162ae13" y="168.754805"/>
     <use style="stroke:#000000;" x="305.105692" xlink:href="#meae162ae13" y="173.934888"/>
     <use style="stroke:#000000;" x="311.311238" xlink:href="#meae162ae13" y="177.188736"/>
     <use style="stroke:#000000;" x="322.40555" xlink:href="#meae162ae13" y="181.535969"/>
     <use style="stroke:#000000;" x="332.10919" xlink:href="#meae162ae13" y="186.077647"/>
     <use style="stroke:#000000;" x="344.708946" xlink:href="#meae162ae13" y="190.975751"/>
     <use style="stroke:#000000;" x="352.098147" xlink:href="#meae162ae13" y="195.884628"/>
     <use style="stroke:#000000;" x="362.008804" xlink:href="#meae162ae13" y="202.308833"/>
     <use style="stroke:#000000;" x="370.794943" xlink:href="#meae162ae13" y="206.435114"/>
     <use style="stroke:#000000;" x="381.147356" xlink:href="#meae162ae13" y="211.543443"/>
     <use style="stroke:#000000;" x="390.278831" xlink:href="#meae162ae13" y="216.311649"/>
     <use style="stroke:#000000;" x="398.447214" xlink:href="#meae162ae13" y="220.677532"/>
     <use style="stroke:#000000;" x="407.578689" xlink:href="#meae162ae13" y="226.824469"/>
     <use style="stroke:#000000;" x="415.747072" xlink:href="#meae162ae13" y="235.647033"/>
     <use style="stroke:#000000;" x="424.533211" xlink:href="#meae162ae13" y="240.874886"/>
     <use style="stroke:#000000;" x="432.424212" xlink:href="#meae162ae13" y="248.977779"/>
     <use style="stroke:#000000;" x="440.71754" xlink:href="#meae162ae13" y="255.90553"/>
     <use style="stroke:#000000;" x="449.22227" xlink:href="#meae162ae13" y="264.426772"/>
     <use style="stroke:#000000;" x="457.792353" xlink:href="#meae162ae13" y="278.504433"/>
     <use style="stroke:#000000;" x="465.508676" xlink:href="#meae162ae13" y="284.43965"/>
     <use style="stroke:#000000;" x="474.002807" xlink:href="#meae162ae13" y="293.728006"/>
     <use style="stroke:#000000;" x="482.317332" xlink:href="#meae162ae13" y="298.042132"/>
     <use style="stroke:#000000;" x="490.419985" xlink:href="#meae162ae13" y="302.468816"/>
     <use style="stroke:#000000;" x="498.291894" xlink:href="#meae162ae13" y="328.108068"/>
     <use style="stroke:#000000;" x="506.40679" xlink:href="#meae162ae13" y="379.028757"/>
     <use style="stroke:#000000;" x="514.188981" xlink:href="#meae162ae13" y="379.028757"/>
     <use style="stroke:#000000;" x="516.636612" xlink:href="#meae162ae13" y="31105"/>
    </g>
   </g>
   <g id="line2d_87">
    <g clip-path="url(#p9716132c89)">
     <use style="stroke:#000000;" x="112.456018" xlink:href="#meae162ae13" y="94.067492"/>
     <use style="stroke:#000000;" x="166.194286" xlink:href="#meae162ae13" y="95.988931"/>
     <use style="stroke:#000000;" x="197.629157" xlink:href="#meae162ae13" y="128.611247"/>
     <use style="stroke:#000000;" x="219.932553" xlink:href="#meae162ae13" y="132.666923"/>
     <use style="stroke:#000000;" x="237.232411" xlink:href="#meae162ae13" y="137.99193"/>
     <use style="stroke:#000000;" x="251.367425" xlink:href="#meae162ae13" y="145.236506"/>
     <use style="stroke:#000000;" x="263.318408" xlink:href="#meae162ae13" y="150.733125"/>
     <use style="stroke:#000000;" x="282.802296" xlink:href="#meae162ae13" y="157.15597"/>
     <use style="stroke:#000000;" x="290.970679" xlink:href="#meae162ae13" y="163.318639"/>
     <use style="stroke:#000000;" x="305.105692" xlink:href="#meae162ae13" y="168.262149"/>
     <use style="stroke:#000000;" x="311.311238" xlink:href="#meae162ae13" y="170.992853"/>
     <use style="stroke:#000000;" x="322.40555" xlink:href="#meae162ae13" y="175.282337"/>
     <use style="stroke:#000000;" x="332.10919" xlink:href="#meae162ae13" y="178.901569"/>
     <use style="stroke:#000000;" x="344.708946" xlink:href="#meae162ae13" y="183.514576"/>
     <use style="stroke:#000000;" x="352.098147" xlink:href="#meae162ae13" y="187.486852"/>
     <use style="stroke:#000000;" x="362.008804" xlink:href="#meae162ae13" y="193.052629"/>
     <use style="stroke:#000000;" x="370.794943" xlink:href="#meae162ae13" y="197.113095"/>
     <use style="stroke:#000000;" x="381.147356" xlink:href="#meae162ae13" y="201.948231"/>
     <use style="stroke:#000000;" x="390.278831" xlink:href="#meae162ae13" y="206.447408"/>
     <use style="stroke:#000000;" x="398.447214" xlink:href="#meae162ae13" y="211.28771"/>
     <use style="stroke:#000000;" x="407.578689" xlink:href="#meae162ae13" y="216.82458"/>
     <use style="stroke:#000000;" x="415.747072" xlink:href="#meae162ae13" y="224.534776"/>
     <use style="stroke:#000000;" x="424.533211" xlink:href="#meae162ae13" y="228.959558"/>
     <use style="stroke:#000000;" x="432.424212" xlink:href="#meae162ae13" y="234.002457"/>
     <use style="stroke:#000000;" x="440.71754" xlink:href="#meae162ae13" y="239.849666"/>
     <use style="stroke:#000000;" x="449.22227" xlink:href="#meae162ae13" y="246.452315"/>
     <use style="stroke:#000000;" x="457.792353" xlink:href="#meae162ae13" y="254.898282"/>
     <use style="stroke:#000000;" x="465.508676" xlink:href="#meae162ae13" y="257.173061"/>
     <use style="stroke:#000000;" x="474.002807" xlink:href="#meae162ae13" y="261.524189"/>
     <use style="stroke:#000000;" x="482.317332" xlink:href="#meae162ae13" y="269.813411"/>
     <use style="stroke:#000000;" x="490.419985" xlink:href="#meae162ae13" y="275.681577"/>
     <use style="stroke:#000000;" x="498.291894" xlink:href="#meae162ae13" y="289.241218"/>
     <use style="stroke:#000000;" x="506.40679" xlink:href="#meae162ae13" y="303.388052"/>
     <use style="stroke:#000000;" x="514.188981" xlink:href="#meae162ae13" y="303.388052"/>
     <use style="stroke:#000000;" x="522.051878" xlink:href="#meae162ae13" y="326.336691"/>
    </g>
   </g>
   <g id="line2d_88">
    <path clip-path="url(#p9716132c89)" d="M 112.456018 157.910065 
L 202.324174 158.393952 
L 242.833252 158.883358 
L 279.776575 159.628095 
L 304.694058 160.385985 
L 323.521079 161.157502 
L 343.110916 162.208256 
L 358.735846 163.285386 
L 371.733794 164.390253 
L 382.862255 165.52432 
L 394.844935 166.985398 
L 405.221111 168.497983 
L 414.371063 170.065841 
L 422.554225 171.693164 
L 429.955516 173.384641 
L 436.711402 175.14554 
L 442.92547 176.981804 
L 448.678212 178.900173 
L 454.033416 180.908335 
L 459.042493 183.01511 
L 463.74748 185.230685 
L 468.183197 187.566913 
L 472.378803 190.037696 
L 476.358963 192.659484 
L 480.144727 195.451945 
L 483.754204 198.438856 
L 486.525472 200.987737 
L 489.20109 203.697636 
L 491.787439 206.590276 
L 494.290286 209.692096 
L 496.714853 213.035726 
L 499.065889 216.662079 
L 501.347724 220.62342 
L 503.564314 224.987996 
L 505.719288 229.847302 
L 507.297098 233.890817 
L 508.843436 238.355375 
L 510.359534 243.338963 
L 511.846551 248.978333 
L 513.305583 255.472603 
L 514.737664 263.128094 
L 515.677896 269.114106 
L 516.606861 276.072663 
L 517.524827 284.382265 
L 518.432051 294.697079 
L 519.328782 308.303383 
L 519.773287 317.163669 
L 520.215259 328.342559 
L 520.654725 343.500767 
L 521.091714 367.149053 
L 521.526292 433 
L 521.526292 433 
" style="fill:none;stroke:#000000;stroke-dasharray:7.4,3.2;stroke-dashoffset:0;stroke-width:2;"/>
   </g>
   <g id="line2d_89">
    <path clip-path="url(#p9716132c89)" d="M 112.456018 97.852922 
L 169.741934 102.018119 
L 202.324174 136.5048 
L 225.194949 136.637405 
L 242.833252 144.391084 
L 257.193078 150.919575 
L 269.304243 155.08048 
L 279.776575 157.967959 
L 289.001193 164.35219 
L 297.244009 169.136016 
L 304.694058 170.872253 
L 311.490539 174.070053 
L 317.738933 176.679185 
L 323.521079 178.714596 
L 333.933106 183.05206 
L 343.110916 186.372473 
L 347.322137 188.46903 
L 358.735846 195.612017 
L 362.195269 197.529305 
L 365.506898 199.158468 
L 377.497528 204.676144 
L 390.271628 211.092838 
L 397.034246 214.916145 
L 403.254009 218.483696 
L 405.221111 219.747346 
L 407.139534 221.170869 
L 409.011631 222.828461 
L 412.62543 226.588529 
L 414.371063 228.425326 
L 416.078256 230.015398 
L 417.748663 231.245581 
L 419.383839 232.178715 
L 425.600041 235.137511 
L 427.079221 236.178993 
L 429.955516 238.604948 
L 434.079264 242.243978 
L 436.711402 244.276314 
L 444.110675 249.700254 
L 446.428075 251.688721 
L 448.678212 253.910906 
L 450.864879 256.448684 
L 457.077525 264.369714 
L 458.066234 265.351788 
L 459.042493 266.140167 
L 460.00661 266.75624 
L 461.899606 267.594702 
L 466.439245 269.059717 
L 468.183197 270.000766 
L 469.888781 271.168405 
L 472.378803 273.211022 
L 480.880192 280.648434 
L 483.045627 282.09138 
L 488.540792 285.230512 
L 489.855811 286.39663 
L 491.148896 287.953706 
L 492.420766 289.946639 
L 493.672108 292.34168 
L 494.903573 295.100188 
L 496.714853 299.812917 
L 499.065889 306.7799 
L 503.564314 320.431481 
L 504.649288 323.165184 
L 505.719288 325.323822 
L 506.774721 326.738135 
L 507.297098 327.143321 
L 507.815978 327.370728 
L 508.331409 327.445142 
L 509.352103 327.243363 
L 510.858382 326.486923 
L 511.846551 326.003093 
L 512.822284 325.782559 
L 513.305583 325.836096 
L 513.785889 326.034755 
L 514.263237 326.407514 
L 514.737664 326.974628 
L 515.677896 328.664356 
L 516.606861 331.040007 
L 517.524827 334.045812 
L 518.881713 339.610297 
L 520.215259 346.191756 
L 523.240459 361.85238 
L 524.501689 366.809141 
L 525.331252 369.303252 
L 526.152033 371.14779 
L 526.964216 372.391308 
L 527.767978 373.121737 
L 528.563492 373.456446 
L 529.350927 373.530641 
L 532.423044 373.505389 
L 536.457773 373.70294 
L 537.874402 373.509595 
L 539.265609 373.063503 
L 541.975297 372.072018 
L 542.967501 371.930904 
L 543.947168 372.047627 
L 544.593468 372.312585 
L 545.234426 372.760744 
L 545.870127 373.42441 
L 546.500658 374.333498 
L 547.436943 376.153249 
L 548.362056 378.495891 
L 549.276259 381.340349 
L 550.478666 385.881145 
L 551.662708 391.224278 
L 553.117776 398.86496 
L 556.502404 417.631756 
L 557.325967 420.566701 
L 557.870189 421.598722 
L 558.140873 421.782049 
L 558.410616 421.72506 
L 558.679424 421.418626 
L 559.21426 420.043492 
L 559.745431 417.675735 
L 560.535425 412.469592 
L 561.576384 403.222334 
L 561.576384 403.222334 
" style="fill:none;stroke:#008000;stroke-dasharray:7.4,3.2;stroke-dashoffset:0;stroke-width:2;"/>
   </g>
   <g id="line2d_90">
    <path clip-path="url(#p9716132c89)" d="M 112.456018 138.8995 
L 166.194286 141.004564 
L 197.629157 143.217211 
L 219.932553 145.548614 
L 237.232411 148.011547 
L 251.367425 150.620534 
L 263.318408 153.391827 
L 282.802296 159.378705 
L 290.970679 162.372761 
L 305.105692 167.976559 
L 311.311238 170.760565 
L 322.40555 175.632588 
L 332.10919 180.420817 
L 344.708946 186.478305 
L 352.098147 190.000975 
L 362.008804 194.783192 
L 370.794943 198.930315 
L 381.147356 204.373127 
L 390.278831 209.638228 
L 398.447214 214.649357 
L 407.578689 220.480678 
L 415.747072 225.811284 
L 424.533211 232.022893 
L 432.424212 238.076333 
L 440.71754 244.81838 
L 449.22227 251.756026 
L 457.792353 258.625143 
L 465.508676 264.942983 
L 474.002807 272.10218 
L 482.317332 280.270592 
L 490.419985 289.108837 
L 498.291894 298.677533 
L 506.40679 310.264669 
L 514.188981 322.830654 
L 522.051878 335.886169 
L 530.259605 349.883962 
L 538.002009 360.475022 
L 545.913677 376.146963 
L 553.879297 402.592642 
L 557.048935 433 
" style="fill:none;stroke:#800080;stroke-dasharray:7.4,3.2;stroke-dashoffset:0;stroke-width:2;"/>
   </g>
   <g id="line2d_91">
    <defs>
     <path d="M 0 3 
C 0.795609 3 1.55874 2.683901 2.12132 2.12132 
C 2.683901 1.55874 3 0.795609 3 0 
C 3 -0.795609 2.683901 -1.55874 2.12132 -2.12132 
C 1.55874 -2.683901 0.795609 -3 0 -3 
C -0.795609 -3 -1.55874 -2.683901 -2.12132 -2.12132 
C -2.683901 -1.55874 -3 -0.795609 -3 0 
C -3 0.795609 -2.683901 1.55874 -2.12132 2.12132 
C -1.55874 2.683901 -0.795609 3 0 3 
z
" id="mf811dce10c" style="stroke:#000000;"/>
    </defs>
    <g clip-path="url(#p9716132c89)">
     <use style="stroke:#000000;" x="112.456018" xlink:href="#mf811dce10c" y="97.852922"/>
     <use style="stroke:#000000;" x="166.194286" xlink:href="#mf811dce10c" y="99.776213"/>
     <use style="stroke:#000000;" x="197.629157" xlink:href="#mf811dce10c" y="132.381412"/>
     <use style="stroke:#000000;" x="219.932553" xlink:href="#mf811dce10c" y="136.549187"/>
     <use style="stroke:#000000;" x="237.232411" xlink:href="#mf811dce10c" y="141.549734"/>
     <use style="stroke:#000000;" x="251.367425" xlink:href="#mf811dce10c" y="148.325462"/>
     <use style="stroke:#000000;" x="263.318408" xlink:href="#mf811dce10c" y="153.351393"/>
     <use style="stroke:#000000;" x="282.802296" xlink:href="#mf811dce10c" y="159.482185"/>
     <use style="stroke:#000000;" x="290.970679" xlink:href="#mf811dce10c" y="165.950694"/>
     <use style="stroke:#000000;" x="305.105692" xlink:href="#mf811dce10c" y="171.004846"/>
     <use style="stroke:#000000;" x="311.311238" xlink:href="#mf811dce10c" y="173.979063"/>
     <use style="stroke:#000000;" x="322.40555" xlink:href="#mf811dce10c" y="178.295331"/>
     <use style="stroke:#000000;" x="332.10919" xlink:href="#mf811dce10c" y="182.339773"/>
     <use style="stroke:#000000;" x="344.708946" xlink:href="#mf811dce10c" y="187.083202"/>
     <use style="stroke:#000000;" x="352.098147" xlink:href="#mf811dce10c" y="191.480632"/>
     <use style="stroke:#000000;" x="362.008804" xlink:href="#mf811dce10c" y="197.431633"/>
     <use style="stroke:#000000;" x="370.794943" xlink:href="#mf811dce10c" y="201.521459"/>
     <use style="stroke:#000000;" x="381.147356" xlink:href="#mf811dce10c" y="206.478197"/>
     <use style="stroke:#000000;" x="390.278831" xlink:href="#mf811dce10c" y="211.096704"/>
     <use style="stroke:#000000;" x="398.447214" xlink:href="#mf811dce10c" y="215.726294"/>
     <use style="stroke:#000000;" x="407.578689" xlink:href="#mf811dce10c" y="221.533885"/>
     <use style="stroke:#000000;" x="415.747072" xlink:href="#mf811dce10c" y="229.732198"/>
     <use style="stroke:#000000;" x="424.533211" xlink:href="#mf811dce10c" y="234.504967"/>
     <use style="stroke:#000000;" x="432.424212" xlink:href="#mf811dce10c" y="240.84013"/>
     <use style="stroke:#000000;" x="440.71754" xlink:href="#mf811dce10c" y="247.130987"/>
     <use style="stroke:#000000;" x="449.22227" xlink:href="#mf811dce10c" y="254.505201"/>
     <use style="stroke:#000000;" x="457.792353" xlink:href="#mf811dce10c" y="265.098138"/>
     <use style="stroke:#000000;" x="465.508676" xlink:href="#mf811dce10c" y="268.676101"/>
     <use style="stroke:#000000;" x="474.002807" xlink:href="#mf811dce10c" y="274.673383"/>
     <use style="stroke:#000000;" x="482.317332" xlink:href="#mf811dce10c" y="281.647183"/>
     <use style="stroke:#000000;" x="490.419985" xlink:href="#mf811dce10c" y="287.01802"/>
     <use style="stroke:#000000;" x="498.291894" xlink:href="#mf811dce10c" y="304.416809"/>
     <use style="stroke:#000000;" x="506.40679" xlink:href="#mf811dce10c" y="326.336691"/>
     <use style="stroke:#000000;" x="514.188981" xlink:href="#mf811dce10c" y="326.336691"/>
     <use style="stroke:#000000;" x="522.051878" xlink:href="#mf811dce10c" y="356.080118"/>
     <use style="stroke:#000000;" x="530.259605" xlink:href="#mf811dce10c" y="373.478907"/>
     <use style="stroke:#000000;" x="538.002009" xlink:href="#mf811dce10c" y="373.478907"/>
     <use style="stroke:#000000;" x="545.913677" xlink:href="#mf811dce10c" y="373.478907"/>
     <use style="stroke:#000000;" x="553.879297" xlink:href="#mf811dce10c" y="403.222334"/>
     <use style="stroke:#000000;" x="561.576384" xlink:href="#mf811dce10c" y="403.222334"/>
    </g>
   </g>
   <g id="patch_3">
    <path d="M 90 378 
L 90 51.84 
" style="fill:none;stroke:#000000;stroke-linecap:square;stroke-linejoin:miter;stroke-width:0.8;"/>
   </g>
   <g id="patch_4">
    <path d="M 648 378 
L 648 51.84 
" style="fill:none;stroke:#000000;stroke-linecap:square;stroke-linejoin:miter;stroke-width:0.8;"/>
   </g>
   <g id="patch_5">
    <path d="M 90 378 
L 648 378 
" style="fill:none;stroke:#000000;stroke-linecap:square;stroke-linejoin:miter;stroke-width:0.8;"/>
   </g>
   <g id="patch_6">
    <path d="M 90 51.84 
L 648 51.84 
" style="fill:none;stroke:#000000;stroke-linecap:square;stroke-linejoin:miter;stroke-width:0.8;"/>
   </g>
   <g id="text_11">
    <!-- Average Pellet Count vs Price Paid by Subject -->
    <g transform="translate(233.11875 45.84)scale(0.12 -0.12)">
     <defs>
      <path d="M 44.28125 53.078125 
L 44.28125 44.578125 
Q 40.484375 46.53125 36.375 47.5 
Q 32.28125 48.484375 27.875 48.484375 
Q 21.1875 48.484375 17.84375 46.4375 
Q 14.5 44.390625 14.5 40.28125 
Q 14.5 37.15625 16.890625 35.375 
Q 19.28125 33.59375 26.515625 31.984375 
L 29.59375 31.296875 
Q 39.15625 29.25 43.1875 25.515625 
Q 47.21875 21.78125 47.21875 15.09375 
Q 47.21875 7.46875 41.1875 3.015625 
Q 35.15625 -1.421875 24.609375 -1.421875 
Q 20.21875 -1.421875 15.453125 -0.5625 
Q 10.6875 0.296875 5.421875 2 
L 5.421875 11.28125 
Q 10.40625 8.6875 15.234375 7.390625 
Q 20.0625 6.109375 24.8125 6.109375 
Q 31.15625 6.109375 34.5625 8.28125 
Q 37.984375 10.453125 37.984375 14.40625 
Q 37.984375 18.0625 35.515625 20.015625 
Q 33.0625 21.96875 24.703125 23.78125 
L 21.578125 24.515625 
Q 13.234375 26.265625 9.515625 29.90625 
Q 5.8125 33.546875 5.8125 39.890625 
Q 5.8125 47.609375 11.28125 51.796875 
Q 16.75 56 26.8125 56 
Q 31.78125 56 36.171875 55.265625 
Q 40.578125 54.546875 44.28125 53.078125 
z
" id="DejaVuSans-115"/>
      <path d="M 48.6875 27.296875 
Q 48.6875 37.203125 44.609375 42.84375 
Q 40.53125 48.484375 33.40625 48.484375 
Q 26.265625 48.484375 22.1875 42.84375 
Q 18.109375 37.203125 18.109375 27.296875 
Q 18.109375 17.390625 22.1875 11.75 
Q 26.265625 6.109375 33.40625 6.109375 
Q 40.53125 6.109375 44.609375 11.75 
Q 48.6875 17.390625 48.6875 27.296875 
z
M 18.109375 46.390625 
Q 20.953125 51.265625 25.265625 53.625 
Q 29.59375 56 35.59375 56 
Q 45.5625 56 51.78125 48.09375 
Q 58.015625 40.1875 58.015625 27.296875 
Q 58.015625 14.40625 51.78125 6.484375 
Q 45.5625 -1.421875 35.59375 -1.421875 
Q 29.59375 -1.421875 25.265625 0.953125 
Q 20.953125 3.328125 18.109375 8.203125 
L 18.109375 0 
L 9.078125 0 
L 9.078125 75.984375 
L 18.109375 75.984375 
z
" id="DejaVuSans-98"/>
      <path d="M 32.171875 -5.078125 
Q 28.375 -14.84375 24.75 -17.8125 
Q 21.140625 -20.796875 15.09375 -20.796875 
L 7.90625 -20.796875 
L 7.90625 -13.28125 
L 13.1875 -13.28125 
Q 16.890625 -13.28125 18.9375 -11.515625 
Q 21 -9.765625 23.484375 -3.21875 
L 25.09375 0.875 
L 2.984375 54.6875 
L 12.5 54.6875 
L 29.59375 11.921875 
L 46.6875 54.6875 
L 56.203125 54.6875 
z
" id="DejaVuSans-121"/>
      <path d="M 53.515625 70.515625 
L 53.515625 60.890625 
Q 47.90625 63.578125 42.921875 64.890625 
Q 37.9375 66.21875 33.296875 66.21875 
Q 25.25 66.21875 20.875 63.09375 
Q 16.5 59.96875 16.5 54.203125 
Q 16.5 49.359375 19.40625 46.890625 
Q 22.3125 44.4375 30.421875 42.921875 
L 36.375 41.703125 
Q 47.40625 39.59375 52.65625 34.296875 
Q 57.90625 29 57.90625 20.125 
Q 57.90625 9.515625 50.796875 4.046875 
Q 43.703125 -1.421875 29.984375 -1.421875 
Q 24.8125 -1.421875 18.96875 -0.25 
Q 13.140625 0.921875 6.890625 3.21875 
L 6.890625 13.375 
Q 12.890625 10.015625 18.65625 8.296875 
Q 24.421875 6.59375 29.984375 6.59375 
Q 38.421875 6.59375 43.015625 9.90625 
Q 47.609375 13.234375 47.609375 19.390625 
Q 47.609375 24.75 44.3125 27.78125 
Q 41.015625 30.8125 33.5 32.328125 
L 27.484375 33.5 
Q 16.453125 35.6875 11.515625 40.375 
Q 6.59375 45.0625 6.59375 53.421875 
Q 6.59375 63.09375 13.40625 68.65625 
Q 20.21875 74.21875 32.171875 74.21875 
Q 37.3125 74.21875 42.625 73.28125 
Q 47.953125 72.359375 53.515625 70.515625 
z
" id="DejaVuSans-83"/>
      <path d="M 9.421875 54.6875 
L 18.40625 54.6875 
L 18.40625 -0.984375 
Q 18.40625 -11.421875 14.421875 -16.109375 
Q 10.453125 -20.796875 1.609375 -20.796875 
L -1.8125 -20.796875 
L -1.8125 -13.1875 
L 0.59375 -13.1875 
Q 5.71875 -13.1875 7.5625 -10.8125 
Q 9.421875 -8.453125 9.421875 -0.984375 
z
M 9.421875 75.984375 
L 18.40625 75.984375 
L 18.40625 64.59375 
L 9.421875 64.59375 
z
" id="DejaVuSans-106"/>
     </defs>
     <use xlink:href="#DejaVuSans-65"/>
     <use x="62.533203" xlink:href="#DejaVuSans-118"/>
     <use x="121.712891" xlink:href="#DejaVuSans-101"/>
     <use x="183.236328" xlink:href="#DejaVuSans-114"/>
     <use x="224.349609" xlink:href="#DejaVuSans-97"/>
     <use x="285.628906" xlink:href="#DejaVuSans-103"/>
     <use x="349.105469" xlink:href="#DejaVuSans-101"/>
     <use x="410.628906" xlink:href="#DejaVuSans-32"/>
     <use x="442.416016" xlink:href="#DejaVuSans-80"/>
     <use x="499.09375" xlink:href="#DejaVuSans-101"/>
     <use x="560.617188" xlink:href="#DejaVuSans-108"/>
     <use x="588.400391" xlink:href="#DejaVuSans-108"/>
     <use x="616.183594" xlink:href="#DejaVuSans-101"/>
     <use x="677.707031" xlink:href="#DejaVuSans-116"/>
     <use x="716.916016" xlink:href="#DejaVuSans-32"/>
     <use x="748.703125" xlink:href="#DejaVuSans-67"/>
     <use x="818.527344" xlink:href="#DejaVuSans-111"/>
     <use x="879.708984" xlink:href="#DejaVuSans-117"/>
     <use x="943.087891" xlink:href="#DejaVuSans-110"/>
     <use x="1006.466797" xlink:href="#DejaVuSans-116"/>
     <use x="1045.675781" xlink:href="#DejaVuSans-32"/>
     <use x="1077.462891" xlink:href="#DejaVuSans-118"/>
     <use x="1136.642578" xlink:href="#DejaVuSans-115"/>
     <use x="1188.742188" xlink:href="#DejaVuSans-32"/>
     <use x="1220.529297" xlink:href="#DejaVuSans-80"/>
     <use x="1279.082031" xlink:href="#DejaVuSans-114"/>
     <use x="1320.195312" xlink:href="#DejaVuSans-105"/>
     <use x="1347.978516" xlink:href="#DejaVuSans-99"/>
     <use x="1402.958984" xlink:href="#DejaVuSans-101"/>
     <use x="1464.482422" xlink:href="#DejaVuSans-32"/>
     <use x="1496.269531" xlink:href="#DejaVuSans-80"/>
     <use x="1552.072266" xlink:href="#DejaVuSans-97"/>
     <use x="1613.351562" xlink:href="#DejaVuSans-105"/>
     <use x="1641.134766" xlink:href="#DejaVuSans-100"/>
     <use x="1704.611328" xlink:href="#DejaVuSans-32"/>
     <use x="1736.398438" xlink:href="#DejaVuSans-98"/>
     <use x="1799.875" xlink:href="#DejaVuSans-121"/>
     <use x="1859.054688" xlink:href="#DejaVuSans-32"/>
     <use x="1890.841797" xlink:href="#DejaVuSans-83"/>
     <use x="1954.318359" xlink:href="#DejaVuSans-117"/>
     <use x="2017.697266" xlink:href="#DejaVuSans-98"/>
     <use x="2081.173828" xlink:href="#DejaVuSans-106"/>
     <use x="2108.957031" xlink:href="#DejaVuSans-101"/>
     <use x="2170.480469" xlink:href="#DejaVuSans-99"/>
     <use x="2225.460938" xlink:href="#DejaVuSans-116"/>
    </g>
   </g>
  </g>
 </g>
 <defs>
  <clipPath id="p9716132c89">
   <rect height="326.16" width="558" x="90" y="51.84"/>
  </clipPath>
 </defs>
</svg>
