<?xml version="1.0" encoding="utf-8" standalone="no"?>
<!DOCTYPE svg PUBLIC "-//W3C//DTD SVG 1.1//EN"
  "http://www.w3.org/Graphics/SVG/1.1/DTD/svg11.dtd">
<!-- Created with matplotlib (https://matplotlib.org/) -->
<svg height="504pt" version="1.1" viewBox="0 0 864 504" width="864pt" xmlns="http://www.w3.org/2000/svg" xmlns:xlink="http://www.w3.org/1999/xlink">
 <metadata>
  <rdf:RDF xmlns:cc="http://creativecommons.org/ns#" xmlns:dc="http://purl.org/dc/elements/1.1/" xmlns:rdf="http://www.w3.org/1999/02/22-rdf-syntax-ns#">
   <cc:Work>
    <dc:type rdf:resource="http://purl.org/dc/dcmitype/StillImage"/>
    <dc:date>2024-10-13T18:12:37.223712</dc:date>
    <dc:format>image/svg+xml</dc:format>
    <dc:creator>
     <cc:Agent>
      <dc:title>Matplotlib v3.3.4, https://matplotlib.org/</dc:title>
     </cc:Agent>
    </dc:creator>
   </cc:Work>
  </rdf:RDF>
 </metadata>
 <defs>
  <style type="text/css">*{stroke-linecap:butt;stroke-linejoin:round;}</style>
 </defs>
 <g id="figure_1">
  <g id="patch_1">
   <path d="M 0 504 
L 864 504 
L 864 0 
L 0 0 
z
" style="fill:#ffffff;"/>
  </g>
  <g id="axes_1">
   <g id="patch_2">
    <path d="M 108 448.56 
L 777.6 448.56 
L 777.6 60.48 
L 108 60.48 
z
" style="fill:#ffffff;"/>
   </g>
   <g id="patch_3">
    <path clip-path="url(#p31769404cb)" d="M 180.061282 448.56 
L 185.546433 448.56 
L 185.546433 250.757966 
L 180.061282 250.757966 
z
" style="fill:#1f77b4;opacity:0.5;stroke:#000000;stroke-linejoin:miter;"/>
   </g>
   <g id="patch_4">
    <path clip-path="url(#p31769404cb)" d="M 191.031584 448.56 
L 196.516734 448.56 
L 196.516734 406.538236 
L 191.031584 406.538236 
z
" style="fill:#1f77b4;opacity:0.5;stroke:#000000;stroke-linejoin:miter;"/>
   </g>
   <g id="patch_5">
    <path clip-path="url(#p31769404cb)" d="M 202.001885 448.56 
L 207.487036 448.56 
L 207.487036 407.985392 
L 202.001885 407.985392 
z
" style="fill:#1f77b4;opacity:0.5;stroke:#000000;stroke-linejoin:miter;"/>
   </g>
   <g id="patch_6">
    <path clip-path="url(#p31769404cb)" d="M 212.972186 448.56 
L 218.457337 448.56 
L 218.457337 402.769121 
L 212.972186 402.769121 
z
" style="fill:#1f77b4;opacity:0.5;stroke:#000000;stroke-linejoin:miter;"/>
   </g>
   <g id="patch_7">
    <path clip-path="url(#p31769404cb)" d="M 223.942488 448.56 
L 229.427638 448.56 
L 229.427638 380.10845 
L 223.942488 380.10845 
z
" style="fill:#1f77b4;opacity:0.5;stroke:#000000;stroke-linejoin:miter;"/>
   </g>
   <g id="patch_8">
    <path clip-path="url(#p31769404cb)" d="M 234.912789 448.56 
L 240.39794 448.56 
L 240.39794 370.939555 
L 234.912789 370.939555 
z
" style="fill:#1f77b4;opacity:0.5;stroke:#000000;stroke-linejoin:miter;"/>
   </g>
   <g id="patch_9">
    <path clip-path="url(#p31769404cb)" d="M 245.883091 448.56 
L 251.368241 448.56 
L 251.368241 228.094075 
L 245.883091 228.094075 
z
" style="fill:#1f77b4;opacity:0.5;stroke:#000000;stroke-linejoin:miter;"/>
   </g>
   <g id="patch_10">
    <path clip-path="url(#p31769404cb)" d="M 256.853392 448.56 
L 262.338543 448.56 
L 262.338543 211.113387 
L 256.853392 211.113387 
z
" style="fill:#1f77b4;opacity:0.5;stroke:#000000;stroke-linejoin:miter;"/>
   </g>
   <g id="patch_11">
    <path clip-path="url(#p31769404cb)" d="M 267.823693 448.56 
L 273.308844 448.56 
L 273.308844 237.946157 
L 267.823693 237.946157 
z
" style="fill:#1f77b4;opacity:0.5;stroke:#000000;stroke-linejoin:miter;"/>
   </g>
   <g id="patch_12">
    <path clip-path="url(#p31769404cb)" d="M 278.793995 448.56 
L 284.279145 448.56 
L 284.279145 262.931809 
L 278.793995 262.931809 
z
" style="fill:#1f77b4;opacity:0.5;stroke:#000000;stroke-linejoin:miter;"/>
   </g>
   <g id="patch_13">
    <path clip-path="url(#p31769404cb)" d="M 289.764296 448.56 
L 295.249447 448.56 
L 295.249447 203.278736 
L 289.764296 203.278736 
z
" style="fill:#1f77b4;opacity:0.5;stroke:#000000;stroke-linejoin:miter;"/>
   </g>
   <g id="patch_14">
    <path clip-path="url(#p31769404cb)" d="M 300.734597 448.56 
L 306.219748 448.56 
L 306.219748 294.630072 
L 300.734597 294.630072 
z
" style="fill:#1f77b4;opacity:0.5;stroke:#000000;stroke-linejoin:miter;"/>
   </g>
   <g id="patch_15">
    <path clip-path="url(#p31769404cb)" d="M 311.704899 448.56 
L 317.190049 448.56 
L 317.190049 251.818658 
L 311.704899 251.818658 
z
" style="fill:#1f77b4;opacity:0.5;stroke:#000000;stroke-linejoin:miter;"/>
   </g>
   <g id="patch_16">
    <path clip-path="url(#p31769404cb)" d="M 322.6752 448.56 
L 328.160351 448.56 
L 328.160351 332.99681 
L 322.6752 332.99681 
z
" style="fill:#1f77b4;opacity:0.5;stroke:#000000;stroke-linejoin:miter;"/>
   </g>
   <g id="patch_17">
    <path clip-path="url(#p31769404cb)" d="M 333.645501 448.56 
L 339.130652 448.56 
L 339.130652 352.464897 
L 333.645501 352.464897 
z
" style="fill:#1f77b4;opacity:0.5;stroke:#000000;stroke-linejoin:miter;"/>
   </g>
   <g id="patch_18">
    <path clip-path="url(#p31769404cb)" d="M 344.615803 448.56 
L 350.100953 448.56 
L 350.100953 243.798265 
L 344.615803 243.798265 
z
" style="fill:#1f77b4;opacity:0.5;stroke:#000000;stroke-linejoin:miter;"/>
   </g>
   <g id="patch_19">
    <path clip-path="url(#p31769404cb)" d="M 355.586104 448.56 
L 361.071255 448.56 
L 361.071255 352.101108 
L 355.586104 352.101108 
z
" style="fill:#1f77b4;opacity:0.5;stroke:#000000;stroke-linejoin:miter;"/>
   </g>
   <g id="patch_20">
    <path clip-path="url(#p31769404cb)" d="M 366.556406 448.56 
L 372.041556 448.56 
L 372.041556 396.907036 
L 366.556406 396.907036 
z
" style="fill:#1f77b4;opacity:0.5;stroke:#000000;stroke-linejoin:miter;"/>
   </g>
   <g id="patch_21">
    <path clip-path="url(#p31769404cb)" d="M 377.526707 448.56 
L 383.011858 448.56 
L 383.011858 237.470333 
L 377.526707 237.470333 
z
" style="fill:#1f77b4;opacity:0.5;stroke:#000000;stroke-linejoin:miter;"/>
   </g>
   <g id="patch_22">
    <path clip-path="url(#p31769404cb)" d="M 388.497008 448.56 
L 393.982159 448.56 
L 393.982159 351.713576 
L 388.497008 351.713576 
z
" style="fill:#1f77b4;opacity:0.5;stroke:#000000;stroke-linejoin:miter;"/>
   </g>
   <g id="patch_23">
    <path clip-path="url(#p31769404cb)" d="M 399.46731 448.56 
L 404.95246 448.56 
L 404.95246 330.829781 
L 399.46731 330.829781 
z
" style="fill:#1f77b4;opacity:0.5;stroke:#000000;stroke-linejoin:miter;"/>
   </g>
   <g id="patch_24">
    <path clip-path="url(#p31769404cb)" d="M 410.437611 448.56 
L 415.922762 448.56 
L 415.922762 363.450362 
L 410.437611 363.450362 
z
" style="fill:#1f77b4;opacity:0.5;stroke:#000000;stroke-linejoin:miter;"/>
   </g>
   <g id="patch_25">
    <path clip-path="url(#p31769404cb)" d="M 421.407912 448.56 
L 426.893063 448.56 
L 426.893063 330.674702 
L 421.407912 330.674702 
z
" style="fill:#1f77b4;opacity:0.5;stroke:#000000;stroke-linejoin:miter;"/>
   </g>
   <g id="patch_26">
    <path clip-path="url(#p31769404cb)" d="M 432.378214 448.56 
L 437.863364 448.56 
L 437.863364 397.07466 
L 432.378214 397.07466 
z
" style="fill:#1f77b4;opacity:0.5;stroke:#000000;stroke-linejoin:miter;"/>
   </g>
   <g id="patch_27">
    <path clip-path="url(#p31769404cb)" d="M 443.348515 448.56 
L 448.833666 448.56 
L 448.833666 430.620219 
L 443.348515 430.620219 
z
" style="fill:#1f77b4;opacity:0.5;stroke:#000000;stroke-linejoin:miter;"/>
   </g>
   <g id="patch_28">
    <path clip-path="url(#p31769404cb)" d="M 454.318816 448.56 
L 459.803967 448.56 
L 459.803967 392.268326 
L 454.318816 392.268326 
z
" style="fill:#1f77b4;opacity:0.5;stroke:#000000;stroke-linejoin:miter;"/>
   </g>
   <g id="patch_29">
    <path clip-path="url(#p31769404cb)" d="M 465.289118 448.56 
L 470.774268 448.56 
L 470.774268 396.06967 
L 465.289118 396.06967 
z
" style="fill:#1f77b4;opacity:0.5;stroke:#000000;stroke-linejoin:miter;"/>
   </g>
   <g id="patch_30">
    <path clip-path="url(#p31769404cb)" d="M 476.259419 448.56 
L 481.74457 448.56 
L 481.74457 350.029575 
L 476.259419 350.029575 
z
" style="fill:#1f77b4;opacity:0.5;stroke:#000000;stroke-linejoin:miter;"/>
   </g>
   <g id="patch_31">
    <path clip-path="url(#p31769404cb)" d="M 487.229721 448.56 
L 492.714871 448.56 
L 492.714871 385.307055 
L 487.229721 385.307055 
z
" style="fill:#1f77b4;opacity:0.5;stroke:#000000;stroke-linejoin:miter;"/>
   </g>
   <g id="patch_32">
    <path clip-path="url(#p31769404cb)" d="M 498.200022 448.56 
L 503.685173 448.56 
L 503.685173 426.758183 
L 498.200022 426.758183 
z
" style="fill:#1f77b4;opacity:0.5;stroke:#000000;stroke-linejoin:miter;"/>
   </g>
   <g id="patch_33">
    <path clip-path="url(#p31769404cb)" d="M 509.170323 448.56 
L 514.655474 448.56 
L 514.655474 345.468256 
L 509.170323 345.468256 
z
" style="fill:#1f77b4;opacity:0.5;stroke:#000000;stroke-linejoin:miter;"/>
   </g>
   <g id="patch_34">
    <path clip-path="url(#p31769404cb)" d="M 520.140625 448.56 
L 525.625775 448.56 
L 525.625775 380.953718 
L 520.140625 380.953718 
z
" style="fill:#1f77b4;opacity:0.5;stroke:#000000;stroke-linejoin:miter;"/>
   </g>
   <g id="patch_35">
    <path clip-path="url(#p31769404cb)" d="M 531.110926 448.56 
L 536.596077 448.56 
L 536.596077 380.97299 
L 531.110926 380.97299 
z
" style="fill:#1f77b4;opacity:0.5;stroke:#000000;stroke-linejoin:miter;"/>
   </g>
   <g id="patch_36">
    <path clip-path="url(#p31769404cb)" d="M 542.081227 448.56 
L 547.566378 448.56 
L 547.566378 412.965197 
L 542.081227 412.965197 
z
" style="fill:#1f77b4;opacity:0.5;stroke:#000000;stroke-linejoin:miter;"/>
   </g>
   <g id="patch_37">
    <path clip-path="url(#p31769404cb)" d="M 553.051529 448.56 
L 558.536679 448.56 
L 558.536679 448.56 
L 553.051529 448.56 
z
" style="fill:#1f77b4;opacity:0.5;stroke:#000000;stroke-linejoin:miter;"/>
   </g>
   <g id="patch_38">
    <path clip-path="url(#p31769404cb)" d="M 564.02183 448.56 
L 569.506981 448.56 
L 569.506981 345.123351 
L 564.02183 345.123351 
z
" style="fill:#1f77b4;opacity:0.5;stroke:#000000;stroke-linejoin:miter;"/>
   </g>
   <g id="patch_39">
    <path clip-path="url(#p31769404cb)" d="M 574.992131 448.56 
L 580.477282 448.56 
L 580.477282 398.403687 
L 574.992131 398.403687 
z
" style="fill:#1f77b4;opacity:0.5;stroke:#000000;stroke-linejoin:miter;"/>
   </g>
   <g id="patch_40">
    <path clip-path="url(#p31769404cb)" d="M 585.962433 448.56 
L 591.447583 448.56 
L 591.447583 365.644449 
L 585.962433 365.644449 
z
" style="fill:#1f77b4;opacity:0.5;stroke:#000000;stroke-linejoin:miter;"/>
   </g>
   <g id="patch_41">
    <path clip-path="url(#p31769404cb)" d="M 596.932734 448.56 
L 602.417885 448.56 
L 602.417885 425.989659 
L 596.932734 425.989659 
z
" style="fill:#1f77b4;opacity:0.5;stroke:#000000;stroke-linejoin:miter;"/>
   </g>
   <g id="patch_42">
    <path clip-path="url(#p31769404cb)" d="M 607.903036 448.56 
L 613.388186 448.56 
L 613.388186 340.365667 
L 607.903036 340.365667 
z
" style="fill:#1f77b4;opacity:0.5;stroke:#000000;stroke-linejoin:miter;"/>
   </g>
   <g id="patch_43">
    <path clip-path="url(#p31769404cb)" d="M 618.873337 448.56 
L 624.358488 448.56 
L 624.358488 388.9743 
L 618.873337 388.9743 
z
" style="fill:#1f77b4;opacity:0.5;stroke:#000000;stroke-linejoin:miter;"/>
   </g>
   <g id="patch_44">
    <path clip-path="url(#p31769404cb)" d="M 629.843638 448.56 
L 635.328789 448.56 
L 635.328789 398.90525 
L 629.843638 398.90525 
z
" style="fill:#1f77b4;opacity:0.5;stroke:#000000;stroke-linejoin:miter;"/>
   </g>
   <g id="patch_45">
    <path clip-path="url(#p31769404cb)" d="M 640.81394 448.56 
L 646.29909 448.56 
L 646.29909 349.2505 
L 640.81394 349.2505 
z
" style="fill:#1f77b4;opacity:0.5;stroke:#000000;stroke-linejoin:miter;"/>
   </g>
   <g id="patch_46">
    <path clip-path="url(#p31769404cb)" d="M 651.784241 448.56 
L 657.269392 448.56 
L 657.269392 448.56 
L 651.784241 448.56 
z
" style="fill:#1f77b4;opacity:0.5;stroke:#000000;stroke-linejoin:miter;"/>
   </g>
   <g id="patch_47">
    <path clip-path="url(#p31769404cb)" d="M 662.754542 448.56 
L 668.239693 448.56 
L 668.239693 377.624643 
L 662.754542 377.624643 
z
" style="fill:#1f77b4;opacity:0.5;stroke:#000000;stroke-linejoin:miter;"/>
   </g>
   <g id="patch_48">
    <path clip-path="url(#p31769404cb)" d="M 673.724844 448.56 
L 679.209994 448.56 
L 679.209994 448.56 
L 673.724844 448.56 
z
" style="fill:#1f77b4;opacity:0.5;stroke:#000000;stroke-linejoin:miter;"/>
   </g>
   <g id="patch_49">
    <path clip-path="url(#p31769404cb)" d="M 684.695145 448.56 
L 690.180296 448.56 
L 690.180296 413.092321 
L 684.695145 413.092321 
z
" style="fill:#1f77b4;opacity:0.5;stroke:#000000;stroke-linejoin:miter;"/>
   </g>
   <g id="patch_50">
    <path clip-path="url(#p31769404cb)" d="M 695.665446 448.56 
L 701.150597 448.56 
L 701.150597 413.092321 
L 695.665446 413.092321 
z
" style="fill:#1f77b4;opacity:0.5;stroke:#000000;stroke-linejoin:miter;"/>
   </g>
   <g id="patch_51">
    <path clip-path="url(#p31769404cb)" d="M 184.449403 448.56 
L 189.934554 448.56 
L 189.934554 274.30546 
L 184.449403 274.30546 
z
" style="fill:#ff7f0e;opacity:0.5;stroke:#000000;stroke-linejoin:miter;"/>
   </g>
   <g id="patch_52">
    <path clip-path="url(#p31769404cb)" d="M 195.419704 448.56 
L 200.904855 448.56 
L 200.904855 398.499832 
L 195.419704 398.499832 
z
" style="fill:#ff7f0e;opacity:0.5;stroke:#000000;stroke-linejoin:miter;"/>
   </g>
   <g id="patch_53">
    <path clip-path="url(#p31769404cb)" d="M 206.390006 448.56 
L 211.875156 448.56 
L 211.875156 369.371997 
L 206.390006 369.371997 
z
" style="fill:#ff7f0e;opacity:0.5;stroke:#000000;stroke-linejoin:miter;"/>
   </g>
   <g id="patch_54">
    <path clip-path="url(#p31769404cb)" d="M 217.360307 448.56 
L 222.845458 448.56 
L 222.845458 337.600515 
L 217.360307 337.600515 
z
" style="fill:#ff7f0e;opacity:0.5;stroke:#000000;stroke-linejoin:miter;"/>
   </g>
   <g id="patch_55">
    <path clip-path="url(#p31769404cb)" d="M 228.330608 448.56 
L 233.815759 448.56 
L 233.815759 304.508016 
L 228.330608 304.508016 
z
" style="fill:#ff7f0e;opacity:0.5;stroke:#000000;stroke-linejoin:miter;"/>
   </g>
   <g id="patch_56">
    <path clip-path="url(#p31769404cb)" d="M 239.30091 448.56 
L 244.78606 448.56 
L 244.78606 197.317465 
L 239.30091 197.317465 
z
" style="fill:#ff7f0e;opacity:0.5;stroke:#000000;stroke-linejoin:miter;"/>
   </g>
   <g id="patch_57">
    <path clip-path="url(#p31769404cb)" d="M 250.271211 448.56 
L 255.756362 448.56 
L 255.756362 167.438777 
L 250.271211 167.438777 
z
" style="fill:#ff7f0e;opacity:0.5;stroke:#000000;stroke-linejoin:miter;"/>
   </g>
   <g id="patch_58">
    <path clip-path="url(#p31769404cb)" d="M 261.241512 448.56 
L 266.726663 448.56 
L 266.726663 78.96 
L 261.241512 78.96 
z
" style="fill:#ff7f0e;opacity:0.5;stroke:#000000;stroke-linejoin:miter;"/>
   </g>
   <g id="patch_59">
    <path clip-path="url(#p31769404cb)" d="M 272.211814 448.56 
L 277.696964 448.56 
L 277.696964 209.923285 
L 272.211814 209.923285 
z
" style="fill:#ff7f0e;opacity:0.5;stroke:#000000;stroke-linejoin:miter;"/>
   </g>
   <g id="patch_60">
    <path clip-path="url(#p31769404cb)" d="M 283.182115 448.56 
L 288.667266 448.56 
L 288.667266 186.59651 
L 283.182115 186.59651 
z
" style="fill:#ff7f0e;opacity:0.5;stroke:#000000;stroke-linejoin:miter;"/>
   </g>
   <g id="patch_61">
    <path clip-path="url(#p31769404cb)" d="M 294.152417 448.56 
L 299.637567 448.56 
L 299.637567 181.779149 
L 294.152417 181.779149 
z
" style="fill:#ff7f0e;opacity:0.5;stroke:#000000;stroke-linejoin:miter;"/>
   </g>
   <g id="patch_62">
    <path clip-path="url(#p31769404cb)" d="M 305.122718 448.56 
L 310.607869 448.56 
L 310.607869 273.5912 
L 305.122718 273.5912 
z
" style="fill:#ff7f0e;opacity:0.5;stroke:#000000;stroke-linejoin:miter;"/>
   </g>
   <g id="patch_63">
    <path clip-path="url(#p31769404cb)" d="M 316.093019 448.56 
L 321.57817 448.56 
L 321.57817 317.775579 
L 316.093019 317.775579 
z
" style="fill:#ff7f0e;opacity:0.5;stroke:#000000;stroke-linejoin:miter;"/>
   </g>
   <g id="patch_64">
    <path clip-path="url(#p31769404cb)" d="M 327.063321 448.56 
L 332.548471 448.56 
L 332.548471 312.375811 
L 327.063321 312.375811 
z
" style="fill:#ff7f0e;opacity:0.5;stroke:#000000;stroke-linejoin:miter;"/>
   </g>
   <g id="patch_65">
    <path clip-path="url(#p31769404cb)" d="M 338.033622 448.56 
L 343.518773 448.56 
L 343.518773 281.820414 
L 338.033622 281.820414 
z
" style="fill:#ff7f0e;opacity:0.5;stroke:#000000;stroke-linejoin:miter;"/>
   </g>
   <g id="patch_66">
    <path clip-path="url(#p31769404cb)" d="M 349.003923 448.56 
L 354.489074 448.56 
L 354.489074 323.033145 
L 349.003923 323.033145 
z
" style="fill:#ff7f0e;opacity:0.5;stroke:#000000;stroke-linejoin:miter;"/>
   </g>
   <g id="patch_67">
    <path clip-path="url(#p31769404cb)" d="M 359.974225 448.56 
L 365.459375 448.56 
L 365.459375 334.581493 
L 359.974225 334.581493 
z
" style="fill:#ff7f0e;opacity:0.5;stroke:#000000;stroke-linejoin:miter;"/>
   </g>
   <g id="patch_68">
    <path clip-path="url(#p31769404cb)" d="M 370.944526 448.56 
L 376.429677 448.56 
L 376.429677 302.111477 
L 370.944526 302.111477 
z
" style="fill:#ff7f0e;opacity:0.5;stroke:#000000;stroke-linejoin:miter;"/>
   </g>
   <g id="patch_69">
    <path clip-path="url(#p31769404cb)" d="M 381.914827 448.56 
L 387.399978 448.56 
L 387.399978 345.088319 
L 381.914827 345.088319 
z
" style="fill:#ff7f0e;opacity:0.5;stroke:#000000;stroke-linejoin:miter;"/>
   </g>
   <g id="patch_70">
    <path clip-path="url(#p31769404cb)" d="M 392.885129 448.56 
L 398.370279 448.56 
L 398.370279 348.58197 
L 392.885129 348.58197 
z
" style="fill:#ff7f0e;opacity:0.5;stroke:#000000;stroke-linejoin:miter;"/>
   </g>
   <g id="patch_71">
    <path clip-path="url(#p31769404cb)" d="M 403.85543 448.56 
L 409.340581 448.56 
L 409.340581 340.370772 
L 403.85543 340.370772 
z
" style="fill:#ff7f0e;opacity:0.5;stroke:#000000;stroke-linejoin:miter;"/>
   </g>
   <g id="patch_72">
    <path clip-path="url(#p31769404cb)" d="M 414.825732 448.56 
L 420.310882 448.56 
L 420.310882 340.328376 
L 414.825732 340.328376 
z
" style="fill:#ff7f0e;opacity:0.5;stroke:#000000;stroke-linejoin:miter;"/>
   </g>
   <g id="patch_73">
    <path clip-path="url(#p31769404cb)" d="M 425.796033 448.56 
L 431.281184 448.56 
L 431.281184 349.170393 
L 425.796033 349.170393 
z
" style="fill:#ff7f0e;opacity:0.5;stroke:#000000;stroke-linejoin:miter;"/>
   </g>
   <g id="patch_74">
    <path clip-path="url(#p31769404cb)" d="M 436.766334 448.56 
L 442.251485 448.56 
L 442.251485 334.909475 
L 436.766334 334.909475 
z
" style="fill:#ff7f0e;opacity:0.5;stroke:#000000;stroke-linejoin:miter;"/>
   </g>
   <g id="patch_75">
    <path clip-path="url(#p31769404cb)" d="M 447.736636 448.56 
L 453.221786 448.56 
L 453.221786 404.934688 
L 447.736636 404.934688 
z
" style="fill:#ff7f0e;opacity:0.5;stroke:#000000;stroke-linejoin:miter;"/>
   </g>
   <g id="patch_76">
    <path clip-path="url(#p31769404cb)" d="M 458.706937 448.56 
L 464.192088 448.56 
L 464.192088 409.987188 
L 458.706937 409.987188 
z
" style="fill:#ff7f0e;opacity:0.5;stroke:#000000;stroke-linejoin:miter;"/>
   </g>
   <g id="patch_77">
    <path clip-path="url(#p31769404cb)" d="M 469.677238 448.56 
L 475.162389 448.56 
L 475.162389 402.059353 
L 469.677238 402.059353 
z
" style="fill:#ff7f0e;opacity:0.5;stroke:#000000;stroke-linejoin:miter;"/>
   </g>
   <g id="patch_78">
    <path clip-path="url(#p31769404cb)" d="M 480.64754 448.56 
L 486.13269 448.56 
L 486.13269 409.795192 
L 480.64754 409.795192 
z
" style="fill:#ff7f0e;opacity:0.5;stroke:#000000;stroke-linejoin:miter;"/>
   </g>
   <g id="patch_79">
    <path clip-path="url(#p31769404cb)" d="M 491.617841 448.56 
L 497.102992 448.56 
L 497.102992 396.573193 
L 491.617841 396.573193 
z
" style="fill:#ff7f0e;opacity:0.5;stroke:#000000;stroke-linejoin:miter;"/>
   </g>
   <g id="patch_80">
    <path clip-path="url(#p31769404cb)" d="M 502.588142 448.56 
L 508.073293 448.56 
L 508.073293 430.525855 
L 502.588142 430.525855 
z
" style="fill:#ff7f0e;opacity:0.5;stroke:#000000;stroke-linejoin:miter;"/>
   </g>
   <g id="patch_81">
    <path clip-path="url(#p31769404cb)" d="M 513.558444 448.56 
L 519.043594 448.56 
L 519.043594 418.195676 
L 513.558444 418.195676 
z
" style="fill:#ff7f0e;opacity:0.5;stroke:#000000;stroke-linejoin:miter;"/>
   </g>
   <g id="patch_82">
    <path clip-path="url(#p31769404cb)" d="M 524.528745 448.56 
L 530.013896 448.56 
L 530.013896 389.312855 
L 524.528745 389.312855 
z
" style="fill:#ff7f0e;opacity:0.5;stroke:#000000;stroke-linejoin:miter;"/>
   </g>
   <g id="patch_83">
    <path clip-path="url(#p31769404cb)" d="M 535.499047 448.56 
L 540.984197 448.56 
L 540.984197 440.801445 
L 535.499047 440.801445 
z
" style="fill:#ff7f0e;opacity:0.5;stroke:#000000;stroke-linejoin:miter;"/>
   </g>
   <g id="patch_84">
    <path clip-path="url(#p31769404cb)" d="M 546.469348 448.56 
L 551.954499 448.56 
L 551.954499 374.418089 
L 546.469348 374.418089 
z
" style="fill:#ff7f0e;opacity:0.5;stroke:#000000;stroke-linejoin:miter;"/>
   </g>
   <g id="patch_85">
    <path clip-path="url(#p31769404cb)" d="M 557.439649 448.56 
L 562.9248 448.56 
L 562.9248 385.10136 
L 557.439649 385.10136 
z
" style="fill:#ff7f0e;opacity:0.5;stroke:#000000;stroke-linejoin:miter;"/>
   </g>
   <g id="patch_86">
    <path clip-path="url(#p31769404cb)" d="M 568.409951 448.56 
L 573.895101 448.56 
L 573.895101 448.56 
L 568.409951 448.56 
z
" style="fill:#ff7f0e;opacity:0.5;stroke:#000000;stroke-linejoin:miter;"/>
   </g>
   <g id="patch_87">
    <path clip-path="url(#p31769404cb)" d="M 579.380252 448.56 
L 584.865403 448.56 
L 584.865403 380.351102 
L 579.380252 380.351102 
z
" style="fill:#ff7f0e;opacity:0.5;stroke:#000000;stroke-linejoin:miter;"/>
   </g>
   <g id="patch_88">
    <path clip-path="url(#p31769404cb)" d="M 590.350553 448.56 
L 595.835704 448.56 
L 595.835704 437.765489 
L 590.350553 437.765489 
z
" style="fill:#ff7f0e;opacity:0.5;stroke:#000000;stroke-linejoin:miter;"/>
   </g>
   <g id="patch_89">
    <path clip-path="url(#p31769404cb)" d="M 601.320855 448.56 
L 606.806005 448.56 
L 606.806005 448.56 
L 601.320855 448.56 
z
" style="fill:#ff7f0e;opacity:0.5;stroke:#000000;stroke-linejoin:miter;"/>
   </g>
   <g id="patch_90">
    <path clip-path="url(#p31769404cb)" d="M 612.291156 448.56 
L 617.776307 448.56 
L 617.776307 448.56 
L 612.291156 448.56 
z
" style="fill:#ff7f0e;opacity:0.5;stroke:#000000;stroke-linejoin:miter;"/>
   </g>
   <g id="patch_91">
    <path clip-path="url(#p31769404cb)" d="M 623.261457 448.56 
L 628.746608 448.56 
L 628.746608 417.525781 
L 623.261457 417.525781 
z
" style="fill:#ff7f0e;opacity:0.5;stroke:#000000;stroke-linejoin:miter;"/>
   </g>
   <g id="patch_92">
    <path clip-path="url(#p31769404cb)" d="M 634.231759 448.56 
L 639.716909 448.56 
L 639.716909 448.56 
L 634.231759 448.56 
z
" style="fill:#ff7f0e;opacity:0.5;stroke:#000000;stroke-linejoin:miter;"/>
   </g>
   <g id="patch_93">
    <path clip-path="url(#p31769404cb)" d="M 645.20206 448.56 
L 650.687211 448.56 
L 650.687211 417.525781 
L 645.20206 417.525781 
z
" style="fill:#ff7f0e;opacity:0.5;stroke:#000000;stroke-linejoin:miter;"/>
   </g>
   <g id="matplotlib.axis_1">
    <g id="xtick_1">
     <g id="line2d_1">
      <path clip-path="url(#p31769404cb)" d="M 184.997918 448.56 
L 184.997918 60.48 
" style="fill:none;stroke:#b0b0b0;stroke-linecap:square;stroke-width:0.8;"/>
     </g>
     <g id="line2d_2">
      <defs>
       <path d="M 0 0 
L 0 3.5 
" id="meae2a2e1c9" style="stroke:#000000;stroke-width:0.8;"/>
      </defs>
      <g>
       <use style="stroke:#000000;stroke-width:0.8;" x="184.997918" xlink:href="#meae2a2e1c9" y="448.56"/>
      </g>
     </g>
     <g id="text_1">
      <!-- 0 -->
      <g transform="translate(181.816668 463.158437)scale(0.1 -0.1)">
       <defs>
        <path d="M 31.78125 66.40625 
Q 24.171875 66.40625 20.328125 58.90625 
Q 16.5 51.421875 16.5 36.375 
Q 16.5 21.390625 20.328125 13.890625 
Q 24.171875 6.390625 31.78125 6.390625 
Q 39.453125 6.390625 43.28125 13.890625 
Q 47.125 21.390625 47.125 36.375 
Q 47.125 51.421875 43.28125 58.90625 
Q 39.453125 66.40625 31.78125 66.40625 
z
M 31.78125 74.21875 
Q 44.046875 74.21875 50.515625 64.515625 
Q 56.984375 54.828125 56.984375 36.375 
Q 56.984375 17.96875 50.515625 8.265625 
Q 44.046875 -1.421875 31.78125 -1.421875 
Q 19.53125 -1.421875 13.0625 8.265625 
Q 6.59375 17.96875 6.59375 36.375 
Q 6.59375 54.828125 13.0625 64.515625 
Q 19.53125 74.21875 31.78125 74.21875 
z
" id="DejaVuSans-48"/>
       </defs>
       <use xlink:href="#DejaVuSans-48"/>
      </g>
     </g>
    </g>
    <g id="xtick_2">
     <g id="line2d_3">
      <path clip-path="url(#p31769404cb)" d="M 294.700932 448.56 
L 294.700932 60.48 
" style="fill:none;stroke:#b0b0b0;stroke-linecap:square;stroke-width:0.8;"/>
     </g>
     <g id="line2d_4">
      <g>
       <use style="stroke:#000000;stroke-width:0.8;" x="294.700932" xlink:href="#meae2a2e1c9" y="448.56"/>
      </g>
     </g>
     <g id="text_2">
      <!-- 10 -->
      <g transform="translate(288.338432 463.158437)scale(0.1 -0.1)">
       <defs>
        <path d="M 12.40625 8.296875 
L 28.515625 8.296875 
L 28.515625 63.921875 
L 10.984375 60.40625 
L 10.984375 69.390625 
L 28.421875 72.90625 
L 38.28125 72.90625 
L 38.28125 8.296875 
L 54.390625 8.296875 
L 54.390625 0 
L 12.40625 0 
z
" id="DejaVuSans-49"/>
       </defs>
       <use xlink:href="#DejaVuSans-49"/>
       <use x="63.623047" xlink:href="#DejaVuSans-48"/>
      </g>
     </g>
    </g>
    <g id="xtick_3">
     <g id="line2d_5">
      <path clip-path="url(#p31769404cb)" d="M 404.403945 448.56 
L 404.403945 60.48 
" style="fill:none;stroke:#b0b0b0;stroke-linecap:square;stroke-width:0.8;"/>
     </g>
     <g id="line2d_6">
      <g>
       <use style="stroke:#000000;stroke-width:0.8;" x="404.403945" xlink:href="#meae2a2e1c9" y="448.56"/>
      </g>
     </g>
     <g id="text_3">
      <!-- 20 -->
      <g transform="translate(398.041445 463.158437)scale(0.1 -0.1)">
       <defs>
        <path d="M 19.1875 8.296875 
L 53.609375 8.296875 
L 53.609375 0 
L 7.328125 0 
L 7.328125 8.296875 
Q 12.9375 14.109375 22.625 23.890625 
Q 32.328125 33.6875 34.8125 36.53125 
Q 39.546875 41.84375 41.421875 45.53125 
Q 43.3125 49.21875 43.3125 52.78125 
Q 43.3125 58.59375 39.234375 62.25 
Q 35.15625 65.921875 28.609375 65.921875 
Q 23.96875 65.921875 18.8125 64.3125 
Q 13.671875 62.703125 7.8125 59.421875 
L 7.8125 69.390625 
Q 13.765625 71.78125 18.9375 73 
Q 24.125 74.21875 28.421875 74.21875 
Q 39.75 74.21875 46.484375 68.546875 
Q 53.21875 62.890625 53.21875 53.421875 
Q 53.21875 48.921875 51.53125 44.890625 
Q 49.859375 40.875 45.40625 35.40625 
Q 44.1875 33.984375 37.640625 27.21875 
Q 31.109375 20.453125 19.1875 8.296875 
z
" id="DejaVuSans-50"/>
       </defs>
       <use xlink:href="#DejaVuSans-50"/>
       <use x="63.623047" xlink:href="#DejaVuSans-48"/>
      </g>
     </g>
    </g>
    <g id="xtick_4">
     <g id="line2d_7">
      <path clip-path="url(#p31769404cb)" d="M 514.106959 448.56 
L 514.106959 60.48 
" style="fill:none;stroke:#b0b0b0;stroke-linecap:square;stroke-width:0.8;"/>
     </g>
     <g id="line2d_8">
      <g>
       <use style="stroke:#000000;stroke-width:0.8;" x="514.106959" xlink:href="#meae2a2e1c9" y="448.56"/>
      </g>
     </g>
     <g id="text_4">
      <!-- 30 -->
      <g transform="translate(507.744459 463.158437)scale(0.1 -0.1)">
       <defs>
        <path d="M 40.578125 39.3125 
Q 47.65625 37.796875 51.625 33 
Q 55.609375 28.21875 55.609375 21.1875 
Q 55.609375 10.40625 48.1875 4.484375 
Q 40.765625 -1.421875 27.09375 -1.421875 
Q 22.515625 -1.421875 17.65625 -0.515625 
Q 12.796875 0.390625 7.625 2.203125 
L 7.625 11.71875 
Q 11.71875 9.328125 16.59375 8.109375 
Q 21.484375 6.890625 26.8125 6.890625 
Q 36.078125 6.890625 40.9375 10.546875 
Q 45.796875 14.203125 45.796875 21.1875 
Q 45.796875 27.640625 41.28125 31.265625 
Q 36.765625 34.90625 28.71875 34.90625 
L 20.21875 34.90625 
L 20.21875 43.015625 
L 29.109375 43.015625 
Q 36.375 43.015625 40.234375 45.921875 
Q 44.09375 48.828125 44.09375 54.296875 
Q 44.09375 59.90625 40.109375 62.90625 
Q 36.140625 65.921875 28.71875 65.921875 
Q 24.65625 65.921875 20.015625 65.03125 
Q 15.375 64.15625 9.8125 62.3125 
L 9.8125 71.09375 
Q 15.4375 72.65625 20.34375 73.4375 
Q 25.25 74.21875 29.59375 74.21875 
Q 40.828125 74.21875 47.359375 69.109375 
Q 53.90625 64.015625 53.90625 55.328125 
Q 53.90625 49.265625 50.4375 45.09375 
Q 46.96875 40.921875 40.578125 39.3125 
z
" id="DejaVuSans-51"/>
       </defs>
       <use xlink:href="#DejaVuSans-51"/>
       <use x="63.623047" xlink:href="#DejaVuSans-48"/>
      </g>
     </g>
    </g>
    <g id="xtick_5">
     <g id="line2d_9">
      <path clip-path="url(#p31769404cb)" d="M 623.809972 448.56 
L 623.809972 60.48 
" style="fill:none;stroke:#b0b0b0;stroke-linecap:square;stroke-width:0.8;"/>
     </g>
     <g id="line2d_10">
      <g>
       <use style="stroke:#000000;stroke-width:0.8;" x="623.809972" xlink:href="#meae2a2e1c9" y="448.56"/>
      </g>
     </g>
     <g id="text_5">
      <!-- 40 -->
      <g transform="translate(617.447472 463.158437)scale(0.1 -0.1)">
       <defs>
        <path d="M 37.796875 64.3125 
L 12.890625 25.390625 
L 37.796875 25.390625 
z
M 35.203125 72.90625 
L 47.609375 72.90625 
L 47.609375 25.390625 
L 58.015625 25.390625 
L 58.015625 17.1875 
L 47.609375 17.1875 
L 47.609375 0 
L 37.796875 0 
L 37.796875 17.1875 
L 4.890625 17.1875 
L 4.890625 26.703125 
z
" id="DejaVuSans-52"/>
       </defs>
       <use xlink:href="#DejaVuSans-52"/>
       <use x="63.623047" xlink:href="#DejaVuSans-48"/>
      </g>
     </g>
    </g>
    <g id="xtick_6">
     <g id="line2d_11">
      <path clip-path="url(#p31769404cb)" d="M 733.512986 448.56 
L 733.512986 60.48 
" style="fill:none;stroke:#b0b0b0;stroke-linecap:square;stroke-width:0.8;"/>
     </g>
     <g id="line2d_12">
      <g>
       <use style="stroke:#000000;stroke-width:0.8;" x="733.512986" xlink:href="#meae2a2e1c9" y="448.56"/>
      </g>
     </g>
     <g id="text_6">
      <!-- 50 -->
      <g transform="translate(727.150486 463.158437)scale(0.1 -0.1)">
       <defs>
        <path d="M 10.796875 72.90625 
L 49.515625 72.90625 
L 49.515625 64.59375 
L 19.828125 64.59375 
L 19.828125 46.734375 
Q 21.96875 47.46875 24.109375 47.828125 
Q 26.265625 48.1875 28.421875 48.1875 
Q 40.625 48.1875 47.75 41.5 
Q 54.890625 34.8125 54.890625 23.390625 
Q 54.890625 11.625 47.5625 5.09375 
Q 40.234375 -1.421875 26.90625 -1.421875 
Q 22.3125 -1.421875 17.546875 -0.640625 
Q 12.796875 0.140625 7.71875 1.703125 
L 7.71875 11.625 
Q 12.109375 9.234375 16.796875 8.0625 
Q 21.484375 6.890625 26.703125 6.890625 
Q 35.15625 6.890625 40.078125 11.328125 
Q 45.015625 15.765625 45.015625 23.390625 
Q 45.015625 31 40.078125 35.4375 
Q 35.15625 39.890625 26.703125 39.890625 
Q 22.75 39.890625 18.8125 39.015625 
Q 14.890625 38.140625 10.796875 36.28125 
z
" id="DejaVuSans-53"/>
       </defs>
       <use xlink:href="#DejaVuSans-53"/>
       <use x="63.623047" xlink:href="#DejaVuSans-48"/>
      </g>
     </g>
    </g>
    <g id="text_7">
     <!-- Block_Pellet_Count -->
     <g transform="translate(395.703125 476.836563)scale(0.1 -0.1)">
      <defs>
       <path d="M 19.671875 34.8125 
L 19.671875 8.109375 
L 35.5 8.109375 
Q 43.453125 8.109375 47.28125 11.40625 
Q 51.125 14.703125 51.125 21.484375 
Q 51.125 28.328125 47.28125 31.5625 
Q 43.453125 34.8125 35.5 34.8125 
z
M 19.671875 64.796875 
L 19.671875 42.828125 
L 34.28125 42.828125 
Q 41.5 42.828125 45.03125 45.53125 
Q 48.578125 48.25 48.578125 53.8125 
Q 48.578125 59.328125 45.03125 62.0625 
Q 41.5 64.796875 34.28125 64.796875 
z
M 9.8125 72.90625 
L 35.015625 72.90625 
Q 46.296875 72.90625 52.390625 68.21875 
Q 58.5 63.53125 58.5 54.890625 
Q 58.5 48.1875 55.375 44.234375 
Q 52.25 40.28125 46.1875 39.3125 
Q 53.46875 37.75 57.5 32.78125 
Q 61.53125 27.828125 61.53125 20.40625 
Q 61.53125 10.640625 54.890625 5.3125 
Q 48.25 0 35.984375 0 
L 9.8125 0 
z
" id="DejaVuSans-66"/>
       <path d="M 9.421875 75.984375 
L 18.40625 75.984375 
L 18.40625 0 
L 9.421875 0 
z
" id="DejaVuSans-108"/>
       <path d="M 30.609375 48.390625 
Q 23.390625 48.390625 19.1875 42.75 
Q 14.984375 37.109375 14.984375 27.296875 
Q 14.984375 17.484375 19.15625 11.84375 
Q 23.34375 6.203125 30.609375 6.203125 
Q 37.796875 6.203125 41.984375 11.859375 
Q 46.1875 17.53125 46.1875 27.296875 
Q 46.1875 37.015625 41.984375 42.703125 
Q 37.796875 48.390625 30.609375 48.390625 
z
M 30.609375 56 
Q 42.328125 56 49.015625 48.375 
Q 55.71875 40.765625 55.71875 27.296875 
Q 55.71875 13.875 49.015625 6.21875 
Q 42.328125 -1.421875 30.609375 -1.421875 
Q 18.84375 -1.421875 12.171875 6.21875 
Q 5.515625 13.875 5.515625 27.296875 
Q 5.515625 40.765625 12.171875 48.375 
Q 18.84375 56 30.609375 56 
z
" id="DejaVuSans-111"/>
       <path d="M 48.78125 52.59375 
L 48.78125 44.1875 
Q 44.96875 46.296875 41.140625 47.34375 
Q 37.3125 48.390625 33.40625 48.390625 
Q 24.65625 48.390625 19.8125 42.84375 
Q 14.984375 37.3125 14.984375 27.296875 
Q 14.984375 17.28125 19.8125 11.734375 
Q 24.65625 6.203125 33.40625 6.203125 
Q 37.3125 6.203125 41.140625 7.25 
Q 44.96875 8.296875 48.78125 10.40625 
L 48.78125 2.09375 
Q 45.015625 0.34375 40.984375 -0.53125 
Q 36.96875 -1.421875 32.421875 -1.421875 
Q 20.0625 -1.421875 12.78125 6.34375 
Q 5.515625 14.109375 5.515625 27.296875 
Q 5.515625 40.671875 12.859375 48.328125 
Q 20.21875 56 33.015625 56 
Q 37.15625 56 41.109375 55.140625 
Q 45.0625 54.296875 48.78125 52.59375 
z
" id="DejaVuSans-99"/>
       <path d="M 9.078125 75.984375 
L 18.109375 75.984375 
L 18.109375 31.109375 
L 44.921875 54.6875 
L 56.390625 54.6875 
L 27.390625 29.109375 
L 57.625 0 
L 45.90625 0 
L 18.109375 26.703125 
L 18.109375 0 
L 9.078125 0 
z
" id="DejaVuSans-107"/>
       <path d="M 50.984375 -16.609375 
L 50.984375 -23.578125 
L -0.984375 -23.578125 
L -0.984375 -16.609375 
z
" id="DejaVuSans-95"/>
       <path d="M 19.671875 64.796875 
L 19.671875 37.40625 
L 32.078125 37.40625 
Q 38.96875 37.40625 42.71875 40.96875 
Q 46.484375 44.53125 46.484375 51.125 
Q 46.484375 57.671875 42.71875 61.234375 
Q 38.96875 64.796875 32.078125 64.796875 
z
M 9.8125 72.90625 
L 32.078125 72.90625 
Q 44.34375 72.90625 50.609375 67.359375 
Q 56.890625 61.8125 56.890625 51.125 
Q 56.890625 40.328125 50.609375 34.8125 
Q 44.34375 29.296875 32.078125 29.296875 
L 19.671875 29.296875 
L 19.671875 0 
L 9.8125 0 
z
" id="DejaVuSans-80"/>
       <path d="M 56.203125 29.59375 
L 56.203125 25.203125 
L 14.890625 25.203125 
Q 15.484375 15.921875 20.484375 11.0625 
Q 25.484375 6.203125 34.421875 6.203125 
Q 39.59375 6.203125 44.453125 7.46875 
Q 49.3125 8.734375 54.109375 11.28125 
L 54.109375 2.78125 
Q 49.265625 0.734375 44.1875 -0.34375 
Q 39.109375 -1.421875 33.890625 -1.421875 
Q 20.796875 -1.421875 13.15625 6.1875 
Q 5.515625 13.8125 5.515625 26.8125 
Q 5.515625 40.234375 12.765625 48.109375 
Q 20.015625 56 32.328125 56 
Q 43.359375 56 49.78125 48.890625 
Q 56.203125 41.796875 56.203125 29.59375 
z
M 47.21875 32.234375 
Q 47.125 39.59375 43.09375 43.984375 
Q 39.0625 48.390625 32.421875 48.390625 
Q 24.90625 48.390625 20.390625 44.140625 
Q 15.875 39.890625 15.1875 32.171875 
z
" id="DejaVuSans-101"/>
       <path d="M 18.3125 70.21875 
L 18.3125 54.6875 
L 36.8125 54.6875 
L 36.8125 47.703125 
L 18.3125 47.703125 
L 18.3125 18.015625 
Q 18.3125 11.328125 20.140625 9.421875 
Q 21.96875 7.515625 27.59375 7.515625 
L 36.8125 7.515625 
L 36.8125 0 
L 27.59375 0 
Q 17.1875 0 13.234375 3.875 
Q 9.28125 7.765625 9.28125 18.015625 
L 9.28125 47.703125 
L 2.6875 47.703125 
L 2.6875 54.6875 
L 9.28125 54.6875 
L 9.28125 70.21875 
z
" id="DejaVuSans-116"/>
       <path d="M 64.40625 67.28125 
L 64.40625 56.890625 
Q 59.421875 61.53125 53.78125 63.8125 
Q 48.140625 66.109375 41.796875 66.109375 
Q 29.296875 66.109375 22.65625 58.46875 
Q 16.015625 50.828125 16.015625 36.375 
Q 16.015625 21.96875 22.65625 14.328125 
Q 29.296875 6.6875 41.796875 6.6875 
Q 48.140625 6.6875 53.78125 8.984375 
Q 59.421875 11.28125 64.40625 15.921875 
L 64.40625 5.609375 
Q 59.234375 2.09375 53.4375 0.328125 
Q 47.65625 -1.421875 41.21875 -1.421875 
Q 24.65625 -1.421875 15.125 8.703125 
Q 5.609375 18.84375 5.609375 36.375 
Q 5.609375 53.953125 15.125 64.078125 
Q 24.65625 74.21875 41.21875 74.21875 
Q 47.75 74.21875 53.53125 72.484375 
Q 59.328125 70.75 64.40625 67.28125 
z
" id="DejaVuSans-67"/>
       <path d="M 8.5 21.578125 
L 8.5 54.6875 
L 17.484375 54.6875 
L 17.484375 21.921875 
Q 17.484375 14.15625 20.5 10.265625 
Q 23.53125 6.390625 29.59375 6.390625 
Q 36.859375 6.390625 41.078125 11.03125 
Q 45.3125 15.671875 45.3125 23.6875 
L 45.3125 54.6875 
L 54.296875 54.6875 
L 54.296875 0 
L 45.3125 0 
L 45.3125 8.40625 
Q 42.046875 3.421875 37.71875 1 
Q 33.40625 -1.421875 27.6875 -1.421875 
Q 18.265625 -1.421875 13.375 4.4375 
Q 8.5 10.296875 8.5 21.578125 
z
M 31.109375 56 
z
" id="DejaVuSans-117"/>
       <path d="M 54.890625 33.015625 
L 54.890625 0 
L 45.90625 0 
L 45.90625 32.71875 
Q 45.90625 40.484375 42.875 44.328125 
Q 39.84375 48.1875 33.796875 48.1875 
Q 26.515625 48.1875 22.3125 43.546875 
Q 18.109375 38.921875 18.109375 30.90625 
L 18.109375 0 
L 9.078125 0 
L 9.078125 54.6875 
L 18.109375 54.6875 
L 18.109375 46.1875 
Q 21.34375 51.125 25.703125 53.5625 
Q 30.078125 56 35.796875 56 
Q 45.21875 56 50.046875 50.171875 
Q 54.890625 44.34375 54.890625 33.015625 
z
" id="DejaVuSans-110"/>
      </defs>
      <use xlink:href="#DejaVuSans-66"/>
      <use x="68.603516" xlink:href="#DejaVuSans-108"/>
      <use x="96.386719" xlink:href="#DejaVuSans-111"/>
      <use x="157.568359" xlink:href="#DejaVuSans-99"/>
      <use x="212.548828" xlink:href="#DejaVuSans-107"/>
      <use x="270.458984" xlink:href="#DejaVuSans-95"/>
      <use x="320.458984" xlink:href="#DejaVuSans-80"/>
      <use x="377.136719" xlink:href="#DejaVuSans-101"/>
      <use x="438.660156" xlink:href="#DejaVuSans-108"/>
      <use x="466.443359" xlink:href="#DejaVuSans-108"/>
      <use x="494.226562" xlink:href="#DejaVuSans-101"/>
      <use x="555.75" xlink:href="#DejaVuSans-116"/>
      <use x="594.958984" xlink:href="#DejaVuSans-95"/>
      <use x="644.958984" xlink:href="#DejaVuSans-67"/>
      <use x="714.783203" xlink:href="#DejaVuSans-111"/>
      <use x="775.964844" xlink:href="#DejaVuSans-117"/>
      <use x="839.34375" xlink:href="#DejaVuSans-110"/>
      <use x="902.722656" xlink:href="#DejaVuSans-116"/>
     </g>
    </g>
   </g>
   <g id="matplotlib.axis_2">
    <g id="ytick_1">
     <g id="line2d_13">
      <path clip-path="url(#p31769404cb)" d="M 108 448.56 
L 777.6 448.56 
" style="fill:none;stroke:#b0b0b0;stroke-linecap:square;stroke-width:0.8;"/>
     </g>
     <g id="line2d_14">
      <defs>
       <path d="M 0 0 
L -3.5 0 
" id="ma260168486" style="stroke:#000000;stroke-width:0.8;"/>
      </defs>
      <g>
       <use style="stroke:#000000;stroke-width:0.8;" x="108" xlink:href="#ma260168486" y="448.56"/>
      </g>
     </g>
     <g id="text_8">
      <!-- 0.00 -->
      <g transform="translate(78.734375 452.359219)scale(0.1 -0.1)">
       <defs>
        <path d="M 10.6875 12.40625 
L 21 12.40625 
L 21 0 
L 10.6875 0 
z
" id="DejaVuSans-46"/>
       </defs>
       <use xlink:href="#DejaVuSans-48"/>
       <use x="63.623047" xlink:href="#DejaVuSans-46"/>
       <use x="95.410156" xlink:href="#DejaVuSans-48"/>
       <use x="159.033203" xlink:href="#DejaVuSans-48"/>
      </g>
     </g>
    </g>
    <g id="ytick_2">
     <g id="line2d_15">
      <path clip-path="url(#p31769404cb)" d="M 108 403.870725 
L 777.6 403.870725 
" style="fill:none;stroke:#b0b0b0;stroke-linecap:square;stroke-width:0.8;"/>
     </g>
     <g id="line2d_16">
      <g>
       <use style="stroke:#000000;stroke-width:0.8;" x="108" xlink:href="#ma260168486" y="403.870725"/>
      </g>
     </g>
     <g id="text_9">
      <!-- 0.01 -->
      <g transform="translate(78.734375 407.669944)scale(0.1 -0.1)">
       <use xlink:href="#DejaVuSans-48"/>
       <use x="63.623047" xlink:href="#DejaVuSans-46"/>
       <use x="95.410156" xlink:href="#DejaVuSans-48"/>
       <use x="159.033203" xlink:href="#DejaVuSans-49"/>
      </g>
     </g>
    </g>
    <g id="ytick_3">
     <g id="line2d_17">
      <path clip-path="url(#p31769404cb)" d="M 108 359.18145 
L 777.6 359.18145 
" style="fill:none;stroke:#b0b0b0;stroke-linecap:square;stroke-width:0.8;"/>
     </g>
     <g id="line2d_18">
      <g>
       <use style="stroke:#000000;stroke-width:0.8;" x="108" xlink:href="#ma260168486" y="359.18145"/>
      </g>
     </g>
     <g id="text_10">
      <!-- 0.02 -->
      <g transform="translate(78.734375 362.980668)scale(0.1 -0.1)">
       <use xlink:href="#DejaVuSans-48"/>
       <use x="63.623047" xlink:href="#DejaVuSans-46"/>
       <use x="95.410156" xlink:href="#DejaVuSans-48"/>
       <use x="159.033203" xlink:href="#DejaVuSans-50"/>
      </g>
     </g>
    </g>
    <g id="ytick_4">
     <g id="line2d_19">
      <path clip-path="url(#p31769404cb)" d="M 108 314.492174 
L 777.6 314.492174 
" style="fill:none;stroke:#b0b0b0;stroke-linecap:square;stroke-width:0.8;"/>
     </g>
     <g id="line2d_20">
      <g>
       <use style="stroke:#000000;stroke-width:0.8;" x="108" xlink:href="#ma260168486" y="314.492174"/>
      </g>
     </g>
     <g id="text_11">
      <!-- 0.03 -->
      <g transform="translate(78.734375 318.291393)scale(0.1 -0.1)">
       <use xlink:href="#DejaVuSans-48"/>
       <use x="63.623047" xlink:href="#DejaVuSans-46"/>
       <use x="95.410156" xlink:href="#DejaVuSans-48"/>
       <use x="159.033203" xlink:href="#DejaVuSans-51"/>
      </g>
     </g>
    </g>
    <g id="ytick_5">
     <g id="line2d_21">
      <path clip-path="url(#p31769404cb)" d="M 108 269.802899 
L 777.6 269.802899 
" style="fill:none;stroke:#b0b0b0;stroke-linecap:square;stroke-width:0.8;"/>
     </g>
     <g id="line2d_22">
      <g>
       <use style="stroke:#000000;stroke-width:0.8;" x="108" xlink:href="#ma260168486" y="269.802899"/>
      </g>
     </g>
     <g id="text_12">
      <!-- 0.04 -->
      <g transform="translate(78.734375 273.602118)scale(0.1 -0.1)">
       <use xlink:href="#DejaVuSans-48"/>
       <use x="63.623047" xlink:href="#DejaVuSans-46"/>
       <use x="95.410156" xlink:href="#DejaVuSans-48"/>
       <use x="159.033203" xlink:href="#DejaVuSans-52"/>
      </g>
     </g>
    </g>
    <g id="ytick_6">
     <g id="line2d_23">
      <path clip-path="url(#p31769404cb)" d="M 108 225.113624 
L 777.6 225.113624 
" style="fill:none;stroke:#b0b0b0;stroke-linecap:square;stroke-width:0.8;"/>
     </g>
     <g id="line2d_24">
      <g>
       <use style="stroke:#000000;stroke-width:0.8;" x="108" xlink:href="#ma260168486" y="225.113624"/>
      </g>
     </g>
     <g id="text_13">
      <!-- 0.05 -->
      <g transform="translate(78.734375 228.912843)scale(0.1 -0.1)">
       <use xlink:href="#DejaVuSans-48"/>
       <use x="63.623047" xlink:href="#DejaVuSans-46"/>
       <use x="95.410156" xlink:href="#DejaVuSans-48"/>
       <use x="159.033203" xlink:href="#DejaVuSans-53"/>
      </g>
     </g>
    </g>
    <g id="ytick_7">
     <g id="line2d_25">
      <path clip-path="url(#p31769404cb)" d="M 108 180.424349 
L 777.6 180.424349 
" style="fill:none;stroke:#b0b0b0;stroke-linecap:square;stroke-width:0.8;"/>
     </g>
     <g id="line2d_26">
      <g>
       <use style="stroke:#000000;stroke-width:0.8;" x="108" xlink:href="#ma260168486" y="180.424349"/>
      </g>
     </g>
     <g id="text_14">
      <!-- 0.06 -->
      <g transform="translate(78.734375 184.223568)scale(0.1 -0.1)">
       <defs>
        <path d="M 33.015625 40.375 
Q 26.375 40.375 22.484375 35.828125 
Q 18.609375 31.296875 18.609375 23.390625 
Q 18.609375 15.53125 22.484375 10.953125 
Q 26.375 6.390625 33.015625 6.390625 
Q 39.65625 6.390625 43.53125 10.953125 
Q 47.40625 15.53125 47.40625 23.390625 
Q 47.40625 31.296875 43.53125 35.828125 
Q 39.65625 40.375 33.015625 40.375 
z
M 52.59375 71.296875 
L 52.59375 62.3125 
Q 48.875 64.0625 45.09375 64.984375 
Q 41.3125 65.921875 37.59375 65.921875 
Q 27.828125 65.921875 22.671875 59.328125 
Q 17.53125 52.734375 16.796875 39.40625 
Q 19.671875 43.65625 24.015625 45.921875 
Q 28.375 48.1875 33.59375 48.1875 
Q 44.578125 48.1875 50.953125 41.515625 
Q 57.328125 34.859375 57.328125 23.390625 
Q 57.328125 12.15625 50.6875 5.359375 
Q 44.046875 -1.421875 33.015625 -1.421875 
Q 20.359375 -1.421875 13.671875 8.265625 
Q 6.984375 17.96875 6.984375 36.375 
Q 6.984375 53.65625 15.1875 63.9375 
Q 23.390625 74.21875 37.203125 74.21875 
Q 40.921875 74.21875 44.703125 73.484375 
Q 48.484375 72.75 52.59375 71.296875 
z
" id="DejaVuSans-54"/>
       </defs>
       <use xlink:href="#DejaVuSans-48"/>
       <use x="63.623047" xlink:href="#DejaVuSans-46"/>
       <use x="95.410156" xlink:href="#DejaVuSans-48"/>
       <use x="159.033203" xlink:href="#DejaVuSans-54"/>
      </g>
     </g>
    </g>
    <g id="ytick_8">
     <g id="line2d_27">
      <path clip-path="url(#p31769404cb)" d="M 108 135.735074 
L 777.6 135.735074 
" style="fill:none;stroke:#b0b0b0;stroke-linecap:square;stroke-width:0.8;"/>
     </g>
     <g id="line2d_28">
      <g>
       <use style="stroke:#000000;stroke-width:0.8;" x="108" xlink:href="#ma260168486" y="135.735074"/>
      </g>
     </g>
     <g id="text_15">
      <!-- 0.07 -->
      <g transform="translate(78.734375 139.534292)scale(0.1 -0.1)">
       <defs>
        <path d="M 8.203125 72.90625 
L 55.078125 72.90625 
L 55.078125 68.703125 
L 28.609375 0 
L 18.3125 0 
L 43.21875 64.59375 
L 8.203125 64.59375 
z
" id="DejaVuSans-55"/>
       </defs>
       <use xlink:href="#DejaVuSans-48"/>
       <use x="63.623047" xlink:href="#DejaVuSans-46"/>
       <use x="95.410156" xlink:href="#DejaVuSans-48"/>
       <use x="159.033203" xlink:href="#DejaVuSans-55"/>
      </g>
     </g>
    </g>
    <g id="ytick_9">
     <g id="line2d_29">
      <path clip-path="url(#p31769404cb)" d="M 108 91.045798 
L 777.6 91.045798 
" style="fill:none;stroke:#b0b0b0;stroke-linecap:square;stroke-width:0.8;"/>
     </g>
     <g id="line2d_30">
      <g>
       <use style="stroke:#000000;stroke-width:0.8;" x="108" xlink:href="#ma260168486" y="91.045798"/>
      </g>
     </g>
     <g id="text_16">
      <!-- 0.08 -->
      <g transform="translate(78.734375 94.845017)scale(0.1 -0.1)">
       <defs>
        <path d="M 31.78125 34.625 
Q 24.75 34.625 20.71875 30.859375 
Q 16.703125 27.09375 16.703125 20.515625 
Q 16.703125 13.921875 20.71875 10.15625 
Q 24.75 6.390625 31.78125 6.390625 
Q 38.8125 6.390625 42.859375 10.171875 
Q 46.921875 13.96875 46.921875 20.515625 
Q 46.921875 27.09375 42.890625 30.859375 
Q 38.875 34.625 31.78125 34.625 
z
M 21.921875 38.8125 
Q 15.578125 40.375 12.03125 44.71875 
Q 8.5 49.078125 8.5 55.328125 
Q 8.5 64.0625 14.71875 69.140625 
Q 20.953125 74.21875 31.78125 74.21875 
Q 42.671875 74.21875 48.875 69.140625 
Q 55.078125 64.0625 55.078125 55.328125 
Q 55.078125 49.078125 51.53125 44.71875 
Q 48 40.375 41.703125 38.8125 
Q 48.828125 37.15625 52.796875 32.3125 
Q 56.78125 27.484375 56.78125 20.515625 
Q 56.78125 9.90625 50.3125 4.234375 
Q 43.84375 -1.421875 31.78125 -1.421875 
Q 19.734375 -1.421875 13.25 4.234375 
Q 6.78125 9.90625 6.78125 20.515625 
Q 6.78125 27.484375 10.78125 32.3125 
Q 14.796875 37.15625 21.921875 38.8125 
z
M 18.3125 54.390625 
Q 18.3125 48.734375 21.84375 45.5625 
Q 25.390625 42.390625 31.78125 42.390625 
Q 38.140625 42.390625 41.71875 45.5625 
Q 45.3125 48.734375 45.3125 54.390625 
Q 45.3125 60.0625 41.71875 63.234375 
Q 38.140625 66.40625 31.78125 66.40625 
Q 25.390625 66.40625 21.84375 63.234375 
Q 18.3125 60.0625 18.3125 54.390625 
z
" id="DejaVuSans-56"/>
       </defs>
       <use xlink:href="#DejaVuSans-48"/>
       <use x="63.623047" xlink:href="#DejaVuSans-46"/>
       <use x="95.410156" xlink:href="#DejaVuSans-48"/>
       <use x="159.033203" xlink:href="#DejaVuSans-56"/>
      </g>
     </g>
    </g>
    <g id="text_17">
     <!-- Average Frequency -->
     <g transform="translate(72.654687 302.471563)rotate(-90)scale(0.1 -0.1)">
      <defs>
       <path d="M 34.1875 63.1875 
L 20.796875 26.90625 
L 47.609375 26.90625 
z
M 28.609375 72.90625 
L 39.796875 72.90625 
L 67.578125 0 
L 57.328125 0 
L 50.6875 18.703125 
L 17.828125 18.703125 
L 11.1875 0 
L 0.78125 0 
z
" id="DejaVuSans-65"/>
       <path d="M 2.984375 54.6875 
L 12.5 54.6875 
L 29.59375 8.796875 
L 46.6875 54.6875 
L 56.203125 54.6875 
L 35.6875 0 
L 23.484375 0 
z
" id="DejaVuSans-118"/>
       <path d="M 41.109375 46.296875 
Q 39.59375 47.171875 37.8125 47.578125 
Q 36.03125 48 33.890625 48 
Q 26.265625 48 22.1875 43.046875 
Q 18.109375 38.09375 18.109375 28.8125 
L 18.109375 0 
L 9.078125 0 
L 9.078125 54.6875 
L 18.109375 54.6875 
L 18.109375 46.1875 
Q 20.953125 51.171875 25.484375 53.578125 
Q 30.03125 56 36.53125 56 
Q 37.453125 56 38.578125 55.875 
Q 39.703125 55.765625 41.0625 55.515625 
z
" id="DejaVuSans-114"/>
       <path d="M 34.28125 27.484375 
Q 23.390625 27.484375 19.1875 25 
Q 14.984375 22.515625 14.984375 16.5 
Q 14.984375 11.71875 18.140625 8.90625 
Q 21.296875 6.109375 26.703125 6.109375 
Q 34.1875 6.109375 38.703125 11.40625 
Q 43.21875 16.703125 43.21875 25.484375 
L 43.21875 27.484375 
z
M 52.203125 31.203125 
L 52.203125 0 
L 43.21875 0 
L 43.21875 8.296875 
Q 40.140625 3.328125 35.546875 0.953125 
Q 30.953125 -1.421875 24.3125 -1.421875 
Q 15.921875 -1.421875 10.953125 3.296875 
Q 6 8.015625 6 15.921875 
Q 6 25.140625 12.171875 29.828125 
Q 18.359375 34.515625 30.609375 34.515625 
L 43.21875 34.515625 
L 43.21875 35.40625 
Q 43.21875 41.609375 39.140625 45 
Q 35.0625 48.390625 27.6875 48.390625 
Q 23 48.390625 18.546875 47.265625 
Q 14.109375 46.140625 10.015625 43.890625 
L 10.015625 52.203125 
Q 14.9375 54.109375 19.578125 55.046875 
Q 24.21875 56 28.609375 56 
Q 40.484375 56 46.34375 49.84375 
Q 52.203125 43.703125 52.203125 31.203125 
z
" id="DejaVuSans-97"/>
       <path d="M 45.40625 27.984375 
Q 45.40625 37.75 41.375 43.109375 
Q 37.359375 48.484375 30.078125 48.484375 
Q 22.859375 48.484375 18.828125 43.109375 
Q 14.796875 37.75 14.796875 27.984375 
Q 14.796875 18.265625 18.828125 12.890625 
Q 22.859375 7.515625 30.078125 7.515625 
Q 37.359375 7.515625 41.375 12.890625 
Q 45.40625 18.265625 45.40625 27.984375 
z
M 54.390625 6.78125 
Q 54.390625 -7.171875 48.1875 -13.984375 
Q 42 -20.796875 29.203125 -20.796875 
Q 24.46875 -20.796875 20.265625 -20.09375 
Q 16.0625 -19.390625 12.109375 -17.921875 
L 12.109375 -9.1875 
Q 16.0625 -11.328125 19.921875 -12.34375 
Q 23.78125 -13.375 27.78125 -13.375 
Q 36.625 -13.375 41.015625 -8.765625 
Q 45.40625 -4.15625 45.40625 5.171875 
L 45.40625 9.625 
Q 42.625 4.78125 38.28125 2.390625 
Q 33.9375 0 27.875 0 
Q 17.828125 0 11.671875 7.65625 
Q 5.515625 15.328125 5.515625 27.984375 
Q 5.515625 40.671875 11.671875 48.328125 
Q 17.828125 56 27.875 56 
Q 33.9375 56 38.28125 53.609375 
Q 42.625 51.21875 45.40625 46.390625 
L 45.40625 54.6875 
L 54.390625 54.6875 
z
" id="DejaVuSans-103"/>
       <path id="DejaVuSans-32"/>
       <path d="M 9.8125 72.90625 
L 51.703125 72.90625 
L 51.703125 64.59375 
L 19.671875 64.59375 
L 19.671875 43.109375 
L 48.578125 43.109375 
L 48.578125 34.8125 
L 19.671875 34.8125 
L 19.671875 0 
L 9.8125 0 
z
" id="DejaVuSans-70"/>
       <path d="M 14.796875 27.296875 
Q 14.796875 17.390625 18.875 11.75 
Q 22.953125 6.109375 30.078125 6.109375 
Q 37.203125 6.109375 41.296875 11.75 
Q 45.40625 17.390625 45.40625 27.296875 
Q 45.40625 37.203125 41.296875 42.84375 
Q 37.203125 48.484375 30.078125 48.484375 
Q 22.953125 48.484375 18.875 42.84375 
Q 14.796875 37.203125 14.796875 27.296875 
z
M 45.40625 8.203125 
Q 42.578125 3.328125 38.25 0.953125 
Q 33.9375 -1.421875 27.875 -1.421875 
Q 17.96875 -1.421875 11.734375 6.484375 
Q 5.515625 14.40625 5.515625 27.296875 
Q 5.515625 40.1875 11.734375 48.09375 
Q 17.96875 56 27.875 56 
Q 33.9375 56 38.25 53.625 
Q 42.578125 51.265625 45.40625 46.390625 
L 45.40625 54.6875 
L 54.390625 54.6875 
L 54.390625 -20.796875 
L 45.40625 -20.796875 
z
" id="DejaVuSans-113"/>
       <path d="M 32.171875 -5.078125 
Q 28.375 -14.84375 24.75 -17.8125 
Q 21.140625 -20.796875 15.09375 -20.796875 
L 7.90625 -20.796875 
L 7.90625 -13.28125 
L 13.1875 -13.28125 
Q 16.890625 -13.28125 18.9375 -11.515625 
Q 21 -9.765625 23.484375 -3.21875 
L 25.09375 0.875 
L 2.984375 54.6875 
L 12.5 54.6875 
L 29.59375 11.921875 
L 46.6875 54.6875 
L 56.203125 54.6875 
z
" id="DejaVuSans-121"/>
      </defs>
      <use xlink:href="#DejaVuSans-65"/>
      <use x="62.533203" xlink:href="#DejaVuSans-118"/>
      <use x="121.712891" xlink:href="#DejaVuSans-101"/>
      <use x="183.236328" xlink:href="#DejaVuSans-114"/>
      <use x="224.349609" xlink:href="#DejaVuSans-97"/>
      <use x="285.628906" xlink:href="#DejaVuSans-103"/>
      <use x="349.105469" xlink:href="#DejaVuSans-101"/>
      <use x="410.628906" xlink:href="#DejaVuSans-32"/>
      <use x="442.416016" xlink:href="#DejaVuSans-70"/>
      <use x="492.685547" xlink:href="#DejaVuSans-114"/>
      <use x="531.548828" xlink:href="#DejaVuSans-101"/>
      <use x="593.072266" xlink:href="#DejaVuSans-113"/>
      <use x="656.548828" xlink:href="#DejaVuSans-117"/>
      <use x="719.927734" xlink:href="#DejaVuSans-101"/>
      <use x="781.451172" xlink:href="#DejaVuSans-110"/>
      <use x="844.830078" xlink:href="#DejaVuSans-99"/>
      <use x="899.810547" xlink:href="#DejaVuSans-121"/>
     </g>
    </g>
   </g>
   <g id="line2d_31">
    <path clip-path="url(#p31769404cb)" d="M 138.436364 447.757175 
L 141.495295 447.133529 
L 144.554226 446.120781 
L 147.613157 444.545559 
L 150.672088 442.200338 
L 153.731019 438.860761 
L 156.78995 434.31673 
L 159.848881 428.41617 
L 162.907812 421.115833 
L 165.966743 412.528706 
L 169.025674 402.954388 
L 175.143536 382.936673 
L 178.202467 373.831509 
L 181.261398 366.234149 
L 184.320329 360.670936 
L 187.37926 357.432077 
L 190.438191 356.519914 
L 193.497122 357.649219 
L 196.556053 360.297795 
L 202.673915 367.411183 
L 205.732846 370.468734 
L 208.791777 372.38419 
L 211.850708 372.707312 
L 214.909639 371.116461 
L 217.96857 367.396222 
L 221.027501 361.409912 
L 224.086432 353.080418 
L 227.145363 342.3877 
L 230.204294 329.38425 
L 233.263225 314.222829 
L 236.322156 297.185868 
L 239.381087 278.704152 
L 248.55788 220.892757 
L 251.616811 203.293181 
L 254.675742 187.707598 
L 257.734673 174.66803 
L 260.793604 164.517972 
L 263.852535 157.392281 
L 266.911466 153.222974 
L 269.970397 151.767388 
L 273.029328 152.652486 
L 276.088259 155.428055 
L 279.14719 159.621554 
L 282.206122 164.788141 
L 285.265053 170.550563 
L 291.382915 182.833026 
L 300.559708 201.856298 
L 303.618639 208.509176 
L 306.67757 215.461071 
L 309.736501 222.767414 
L 315.854363 238.374805 
L 321.972225 254.501387 
L 325.031156 262.250644 
L 328.090087 269.489598 
L 331.149018 276.044411 
L 334.207949 281.82773 
L 337.26688 286.858301 
L 340.325811 291.256367 
L 343.384742 295.213524 
L 358.679397 313.849389 
L 361.738328 317.338378 
L 364.797259 320.42628 
L 367.85619 322.988518 
L 370.915121 324.993577 
L 373.974052 326.520743 
L 383.150845 330.278935 
L 386.209776 332.051516 
L 389.268707 334.3778 
L 392.327638 337.311946 
L 395.386569 340.823166 
L 398.4455 344.816182 
L 401.504431 349.160282 
L 407.622293 358.375001 
L 416.799086 372.262542 
L 425.975879 385.696237 
L 429.03481 389.979082 
L 432.093741 394.03362 
L 435.152672 397.726399 
L 438.211603 400.904831 
L 441.270534 403.420501 
L 444.329466 405.1547 
L 447.388397 406.040614 
L 450.447328 406.077706 
L 453.506259 405.33593 
L 456.56519 403.949813 
L 459.624121 402.104429 
L 465.741983 397.911477 
L 468.800914 396.005229 
L 471.859845 394.481313 
L 474.918776 393.475498 
L 477.977707 393.062406 
L 481.036638 393.247964 
L 484.095569 393.969194 
L 487.1545 395.102864 
L 496.331293 399.266741 
L 499.390224 400.37038 
L 502.449155 401.171821 
L 505.508086 401.676203 
L 511.625948 402.141655 
L 514.684879 402.38326 
L 517.74381 402.835896 
L 520.802741 403.627187 
L 523.861672 404.83969 
L 526.920603 406.500852 
L 529.979534 408.581789 
L 533.038465 411.003222 
L 542.215258 419.007316 
L 545.274189 421.418783 
L 548.33312 423.469786 
L 551.392051 425.063227 
L 554.450982 426.146084 
L 557.509913 426.714576 
L 560.568844 426.812815 
L 563.627775 426.524772 
L 566.686706 425.960849 
L 578.92243 423.196107 
L 581.981361 422.777405 
L 585.040292 422.531048 
L 588.099223 422.444344 
L 594.217085 422.634405 
L 600.334947 423.114085 
L 606.45281 423.802435 
L 609.511741 424.261999 
L 612.570672 424.833977 
L 615.629603 425.540189 
L 618.688534 426.388912 
L 624.806396 428.45826 
L 637.04212 433.039772 
L 643.159982 434.979783 
L 649.277844 436.529369 
L 655.395706 437.717916 
L 661.513568 438.634202 
L 670.690361 439.729186 
L 682.926085 440.943547 
L 692.102878 441.868992 
L 698.22074 442.717086 
L 704.338602 443.828893 
L 716.574326 446.310793 
L 722.692188 447.276974 
L 728.81005 447.921897 
L 734.927912 448.284577 
L 744.104705 448.500524 
L 747.163636 448.526856 
L 747.163636 448.526856 
" style="fill:none;stroke:#0000ff;stroke-dasharray:5.55,2.4;stroke-dashoffset:0;stroke-width:1.5;"/>
   </g>
   <g id="line2d_32">
    <path clip-path="url(#p31769404cb)" d="M 149.160734 447.593041 
L 151.836247 446.709234 
L 154.511759 445.189001 
L 157.187272 442.716218 
L 159.862785 438.91636 
L 162.538298 433.406678 
L 165.21381 425.880329 
L 167.889323 416.214343 
L 170.564836 404.575708 
L 173.240348 391.48808 
L 178.591374 364.683831 
L 181.266886 353.22399 
L 183.942399 344.390718 
L 186.617912 338.715184 
L 189.293424 336.184161 
L 191.968937 336.244081 
L 194.64445 337.932871 
L 197.319962 340.094758 
L 199.995475 341.610204 
L 202.670988 341.576582 
L 205.346501 339.400685 
L 208.022013 334.798665 
L 210.697526 327.728147 
L 213.373039 318.291958 
L 216.048551 306.651594 
L 218.724064 292.975807 
L 221.399577 277.432192 
L 224.075089 260.213465 
L 226.750602 241.579272 
L 232.101627 201.621153 
L 237.452653 161.621324 
L 240.128165 143.074766 
L 242.803678 126.209617 
L 245.479191 111.458621 
L 248.154704 99.173026 
L 250.830216 89.637769 
L 253.505729 83.077126 
L 256.181242 79.635364 
L 258.856754 79.332223 
L 261.532267 82.010998 
L 264.20778 87.307817 
L 266.883292 94.667705 
L 269.558805 103.416369 
L 280.260856 140.970197 
L 285.611881 158.924239 
L 288.287394 168.414142 
L 290.962907 178.671465 
L 293.638419 189.901075 
L 296.313932 202.160974 
L 298.989445 215.349561 
L 309.691495 270.765781 
L 312.367008 283.025976 
L 315.042521 293.799431 
L 317.718033 302.841277 
L 320.393546 310.068373 
L 323.069059 315.560326 
L 325.744572 319.533367 
L 328.420084 322.294188 
L 331.095597 324.185491 
L 333.77111 325.535478 
L 344.47316 329.934983 
L 349.824186 332.676384 
L 357.850724 337.120209 
L 360.526236 338.679112 
L 363.201749 340.371731 
L 365.877262 342.290819 
L 368.552775 344.519741 
L 371.228287 347.102987 
L 373.9038 350.024222 
L 379.254825 356.49285 
L 381.930338 359.738822 
L 384.605851 362.783381 
L 387.281363 365.512291 
L 389.956876 367.870233 
L 392.632389 369.862553 
L 395.307901 371.54158 
L 397.983414 372.983133 
L 403.334439 375.424103 
L 408.685465 377.434534 
L 411.360978 378.220228 
L 414.03649 378.800754 
L 416.712003 379.151152 
L 419.387516 379.286306 
L 427.414054 379.306137 
L 430.089566 379.672588 
L 432.765079 380.469282 
L 435.440592 381.782993 
L 438.116104 383.622329 
L 440.791617 385.911833 
L 446.142643 391.218669 
L 448.818155 393.86326 
L 451.493668 396.286012 
L 454.169181 398.389401 
L 456.844693 400.137078 
L 459.520206 401.543338 
L 462.195719 402.653481 
L 464.871231 403.523535 
L 467.546744 404.206267 
L 472.897769 405.186403 
L 480.924307 406.435111 
L 483.59982 407.073829 
L 486.275333 407.9617 
L 488.950846 409.160346 
L 491.626358 410.693342 
L 494.301871 412.535642 
L 499.652896 416.818438 
L 505.003922 421.118369 
L 507.679434 423.013627 
L 510.354947 424.666306 
L 513.03046 426.071319 
L 515.705972 427.250601 
L 518.381485 428.234348 
L 521.056998 429.042023 
L 523.73251 429.669394 
L 526.408023 430.086211 
L 529.083536 430.246102 
L 531.759049 430.106539 
L 534.434561 429.653139 
L 537.110074 428.920466 
L 545.136612 426.217977 
L 547.812125 425.701141 
L 550.487637 425.625056 
L 553.16315 426.054521 
L 555.838663 426.971033 
L 558.514175 428.276481 
L 566.540714 432.889959 
L 569.216226 434.15153 
L 571.891739 435.150249 
L 574.567252 435.916961 
L 582.59379 437.779708 
L 585.269302 438.574789 
L 587.944815 439.530426 
L 593.29584 441.777808 
L 598.646866 443.969819 
L 601.322378 444.850559 
L 603.997891 445.519483 
L 606.673404 445.959534 
L 609.348917 446.181223 
L 612.024429 446.218263 
L 617.375455 445.943605 
L 625.401993 445.409371 
L 630.753018 445.256389 
L 638.779556 445.265648 
L 644.130581 445.452206 
L 649.481607 445.894382 
L 657.508145 446.951143 
L 662.85917 447.639057 
L 668.210196 448.124663 
L 673.561221 448.390928 
L 681.587759 448.531824 
L 681.587759 448.531824 
" style="fill:none;stroke:#ff0000;stroke-dasharray:5.55,2.4;stroke-dashoffset:0;stroke-width:1.5;"/>
   </g>
   <g id="patch_94">
    <path d="M 108 448.56 
L 108 60.48 
" style="fill:none;stroke:#000000;stroke-linecap:square;stroke-linejoin:miter;stroke-width:0.8;"/>
   </g>
   <g id="patch_95">
    <path d="M 777.6 448.56 
L 777.6 60.48 
" style="fill:none;stroke:#000000;stroke-linecap:square;stroke-linejoin:miter;stroke-width:0.8;"/>
   </g>
   <g id="patch_96">
    <path d="M 108 448.56 
L 777.6 448.56 
" style="fill:none;stroke:#000000;stroke-linecap:square;stroke-linejoin:miter;stroke-width:0.8;"/>
   </g>
   <g id="patch_97">
    <path d="M 108 60.48 
L 777.6 60.48 
" style="fill:none;stroke:#000000;stroke-linecap:square;stroke-linejoin:miter;stroke-width:0.8;"/>
   </g>
   <g id="text_18">
    <!-- Average Normalized Histograms and KDE of Block_Pellet_Counts -->
    <g transform="translate(249.3825 54.48)scale(0.12 -0.12)">
     <defs>
      <path d="M 9.8125 72.90625 
L 23.09375 72.90625 
L 55.421875 11.921875 
L 55.421875 72.90625 
L 64.984375 72.90625 
L 64.984375 0 
L 51.703125 0 
L 19.390625 60.984375 
L 19.390625 0 
L 9.8125 0 
z
" id="DejaVuSans-78"/>
      <path d="M 52 44.1875 
Q 55.375 50.25 60.0625 53.125 
Q 64.75 56 71.09375 56 
Q 79.640625 56 84.28125 50.015625 
Q 88.921875 44.046875 88.921875 33.015625 
L 88.921875 0 
L 79.890625 0 
L 79.890625 32.71875 
Q 79.890625 40.578125 77.09375 44.375 
Q 74.3125 48.1875 68.609375 48.1875 
Q 61.625 48.1875 57.5625 43.546875 
Q 53.515625 38.921875 53.515625 30.90625 
L 53.515625 0 
L 44.484375 0 
L 44.484375 32.71875 
Q 44.484375 40.625 41.703125 44.40625 
Q 38.921875 48.1875 33.109375 48.1875 
Q 26.21875 48.1875 22.15625 43.53125 
Q 18.109375 38.875 18.109375 30.90625 
L 18.109375 0 
L 9.078125 0 
L 9.078125 54.6875 
L 18.109375 54.6875 
L 18.109375 46.1875 
Q 21.1875 51.21875 25.484375 53.609375 
Q 29.78125 56 35.6875 56 
Q 41.65625 56 45.828125 52.96875 
Q 50 49.953125 52 44.1875 
z
" id="DejaVuSans-109"/>
      <path d="M 9.421875 54.6875 
L 18.40625 54.6875 
L 18.40625 0 
L 9.421875 0 
z
M 9.421875 75.984375 
L 18.40625 75.984375 
L 18.40625 64.59375 
L 9.421875 64.59375 
z
" id="DejaVuSans-105"/>
      <path d="M 5.515625 54.6875 
L 48.1875 54.6875 
L 48.1875 46.484375 
L 14.40625 7.171875 
L 48.1875 7.171875 
L 48.1875 0 
L 4.296875 0 
L 4.296875 8.203125 
L 38.09375 47.515625 
L 5.515625 47.515625 
z
" id="DejaVuSans-122"/>
      <path d="M 45.40625 46.390625 
L 45.40625 75.984375 
L 54.390625 75.984375 
L 54.390625 0 
L 45.40625 0 
L 45.40625 8.203125 
Q 42.578125 3.328125 38.25 0.953125 
Q 33.9375 -1.421875 27.875 -1.421875 
Q 17.96875 -1.421875 11.734375 6.484375 
Q 5.515625 14.40625 5.515625 27.296875 
Q 5.515625 40.1875 11.734375 48.09375 
Q 17.96875 56 27.875 56 
Q 33.9375 56 38.25 53.625 
Q 42.578125 51.265625 45.40625 46.390625 
z
M 14.796875 27.296875 
Q 14.796875 17.390625 18.875 11.75 
Q 22.953125 6.109375 30.078125 6.109375 
Q 37.203125 6.109375 41.296875 11.75 
Q 45.40625 17.390625 45.40625 27.296875 
Q 45.40625 37.203125 41.296875 42.84375 
Q 37.203125 48.484375 30.078125 48.484375 
Q 22.953125 48.484375 18.875 42.84375 
Q 14.796875 37.203125 14.796875 27.296875 
z
" id="DejaVuSans-100"/>
      <path d="M 9.8125 72.90625 
L 19.671875 72.90625 
L 19.671875 43.015625 
L 55.515625 43.015625 
L 55.515625 72.90625 
L 65.375 72.90625 
L 65.375 0 
L 55.515625 0 
L 55.515625 34.71875 
L 19.671875 34.71875 
L 19.671875 0 
L 9.8125 0 
z
" id="DejaVuSans-72"/>
      <path d="M 44.28125 53.078125 
L 44.28125 44.578125 
Q 40.484375 46.53125 36.375 47.5 
Q 32.28125 48.484375 27.875 48.484375 
Q 21.1875 48.484375 17.84375 46.4375 
Q 14.5 44.390625 14.5 40.28125 
Q 14.5 37.15625 16.890625 35.375 
Q 19.28125 33.59375 26.515625 31.984375 
L 29.59375 31.296875 
Q 39.15625 29.25 43.1875 25.515625 
Q 47.21875 21.78125 47.21875 15.09375 
Q 47.21875 7.46875 41.1875 3.015625 
Q 35.15625 -1.421875 24.609375 -1.421875 
Q 20.21875 -1.421875 15.453125 -0.5625 
Q 10.6875 0.296875 5.421875 2 
L 5.421875 11.28125 
Q 10.40625 8.6875 15.234375 7.390625 
Q 20.0625 6.109375 24.8125 6.109375 
Q 31.15625 6.109375 34.5625 8.28125 
Q 37.984375 10.453125 37.984375 14.40625 
Q 37.984375 18.0625 35.515625 20.015625 
Q 33.0625 21.96875 24.703125 23.78125 
L 21.578125 24.515625 
Q 13.234375 26.265625 9.515625 29.90625 
Q 5.8125 33.546875 5.8125 39.890625 
Q 5.8125 47.609375 11.28125 51.796875 
Q 16.75 56 26.8125 56 
Q 31.78125 56 36.171875 55.265625 
Q 40.578125 54.546875 44.28125 53.078125 
z
" id="DejaVuSans-115"/>
      <path d="M 9.8125 72.90625 
L 19.671875 72.90625 
L 19.671875 42.09375 
L 52.390625 72.90625 
L 65.09375 72.90625 
L 28.90625 38.921875 
L 67.671875 0 
L 54.6875 0 
L 19.671875 35.109375 
L 19.671875 0 
L 9.8125 0 
z
" id="DejaVuSans-75"/>
      <path d="M 19.671875 64.796875 
L 19.671875 8.109375 
L 31.59375 8.109375 
Q 46.6875 8.109375 53.6875 14.9375 
Q 60.6875 21.78125 60.6875 36.53125 
Q 60.6875 51.171875 53.6875 57.984375 
Q 46.6875 64.796875 31.59375 64.796875 
z
M 9.8125 72.90625 
L 30.078125 72.90625 
Q 51.265625 72.90625 61.171875 64.09375 
Q 71.09375 55.28125 71.09375 36.53125 
Q 71.09375 17.671875 61.125 8.828125 
Q 51.171875 0 30.078125 0 
L 9.8125 0 
z
" id="DejaVuSans-68"/>
      <path d="M 9.8125 72.90625 
L 55.90625 72.90625 
L 55.90625 64.59375 
L 19.671875 64.59375 
L 19.671875 43.015625 
L 54.390625 43.015625 
L 54.390625 34.71875 
L 19.671875 34.71875 
L 19.671875 8.296875 
L 56.78125 8.296875 
L 56.78125 0 
L 9.8125 0 
z
" id="DejaVuSans-69"/>
      <path d="M 37.109375 75.984375 
L 37.109375 68.5 
L 28.515625 68.5 
Q 23.6875 68.5 21.796875 66.546875 
Q 19.921875 64.59375 19.921875 59.515625 
L 19.921875 54.6875 
L 34.71875 54.6875 
L 34.71875 47.703125 
L 19.921875 47.703125 
L 19.921875 0 
L 10.890625 0 
L 10.890625 47.703125 
L 2.296875 47.703125 
L 2.296875 54.6875 
L 10.890625 54.6875 
L 10.890625 58.5 
Q 10.890625 67.625 15.140625 71.796875 
Q 19.390625 75.984375 28.609375 75.984375 
z
" id="DejaVuSans-102"/>
     </defs>
     <use xlink:href="#DejaVuSans-65"/>
     <use x="62.533203" xlink:href="#DejaVuSans-118"/>
     <use x="121.712891" xlink:href="#DejaVuSans-101"/>
     <use x="183.236328" xlink:href="#DejaVuSans-114"/>
     <use x="224.349609" xlink:href="#DejaVuSans-97"/>
     <use x="285.628906" xlink:href="#DejaVuSans-103"/>
     <use x="349.105469" xlink:href="#DejaVuSans-101"/>
     <use x="410.628906" xlink:href="#DejaVuSans-32"/>
     <use x="442.416016" xlink:href="#DejaVuSans-78"/>
     <use x="517.220703" xlink:href="#DejaVuSans-111"/>
     <use x="578.402344" xlink:href="#DejaVuSans-114"/>
     <use x="617.765625" xlink:href="#DejaVuSans-109"/>
     <use x="715.177734" xlink:href="#DejaVuSans-97"/>
     <use x="776.457031" xlink:href="#DejaVuSans-108"/>
     <use x="804.240234" xlink:href="#DejaVuSans-105"/>
     <use x="832.023438" xlink:href="#DejaVuSans-122"/>
     <use x="884.513672" xlink:href="#DejaVuSans-101"/>
     <use x="946.037109" xlink:href="#DejaVuSans-100"/>
     <use x="1009.513672" xlink:href="#DejaVuSans-32"/>
     <use x="1041.300781" xlink:href="#DejaVuSans-72"/>
     <use x="1116.496094" xlink:href="#DejaVuSans-105"/>
     <use x="1144.279297" xlink:href="#DejaVuSans-115"/>
     <use x="1196.378906" xlink:href="#DejaVuSans-116"/>
     <use x="1235.587891" xlink:href="#DejaVuSans-111"/>
     <use x="1296.769531" xlink:href="#DejaVuSans-103"/>
     <use x="1360.246094" xlink:href="#DejaVuSans-114"/>
     <use x="1401.359375" xlink:href="#DejaVuSans-97"/>
     <use x="1462.638672" xlink:href="#DejaVuSans-109"/>
     <use x="1560.050781" xlink:href="#DejaVuSans-115"/>
     <use x="1612.150391" xlink:href="#DejaVuSans-32"/>
     <use x="1643.9375" xlink:href="#DejaVuSans-97"/>
     <use x="1705.216797" xlink:href="#DejaVuSans-110"/>
     <use x="1768.595703" xlink:href="#DejaVuSans-100"/>
     <use x="1832.072266" xlink:href="#DejaVuSans-32"/>
     <use x="1863.859375" xlink:href="#DejaVuSans-75"/>
     <use x="1929.435547" xlink:href="#DejaVuSans-68"/>
     <use x="2006.4375" xlink:href="#DejaVuSans-69"/>
     <use x="2069.621094" xlink:href="#DejaVuSans-32"/>
     <use x="2101.408203" xlink:href="#DejaVuSans-111"/>
     <use x="2162.589844" xlink:href="#DejaVuSans-102"/>
     <use x="2197.794922" xlink:href="#DejaVuSans-32"/>
     <use x="2229.582031" xlink:href="#DejaVuSans-66"/>
     <use x="2298.185547" xlink:href="#DejaVuSans-108"/>
     <use x="2325.96875" xlink:href="#DejaVuSans-111"/>
     <use x="2387.150391" xlink:href="#DejaVuSans-99"/>
     <use x="2442.130859" xlink:href="#DejaVuSans-107"/>
     <use x="2500.041016" xlink:href="#DejaVuSans-95"/>
     <use x="2550.041016" xlink:href="#DejaVuSans-80"/>
     <use x="2606.71875" xlink:href="#DejaVuSans-101"/>
     <use x="2668.242188" xlink:href="#DejaVuSans-108"/>
     <use x="2696.025391" xlink:href="#DejaVuSans-108"/>
     <use x="2723.808594" xlink:href="#DejaVuSans-101"/>
     <use x="2785.332031" xlink:href="#DejaVuSans-116"/>
     <use x="2824.541016" xlink:href="#DejaVuSans-95"/>
     <use x="2874.541016" xlink:href="#DejaVuSans-67"/>
     <use x="2944.365234" xlink:href="#DejaVuSans-111"/>
     <use x="3005.546875" xlink:href="#DejaVuSans-117"/>
     <use x="3068.925781" xlink:href="#DejaVuSans-110"/>
     <use x="3132.304688" xlink:href="#DejaVuSans-116"/>
     <use x="3171.513672" xlink:href="#DejaVuSans-115"/>
    </g>
   </g>
   <g id="legend_1">
    <g id="patch_98">
     <path d="M 607.5875 128.305 
L 770.6 128.305 
Q 772.6 128.305 772.6 126.305 
L 772.6 67.48 
Q 772.6 65.48 770.6 65.48 
L 607.5875 65.48 
Q 605.5875 65.48 605.5875 67.48 
L 605.5875 126.305 
Q 605.5875 128.305 607.5875 128.305 
z
" style="fill:#ffffff;opacity:0.8;stroke:#cccccc;stroke-linejoin:miter;"/>
    </g>
    <g id="line2d_33">
     <path d="M 609.5875 73.578438 
L 629.5875 73.578438 
" style="fill:none;stroke:#0000ff;stroke-dasharray:5.55,2.4;stroke-dashoffset:0;stroke-width:1.5;"/>
    </g>
    <g id="line2d_34"/>
    <g id="text_19">
     <!-- KDE for result_df -->
     <g transform="translate(637.5875 77.078438)scale(0.1 -0.1)">
      <use xlink:href="#DejaVuSans-75"/>
      <use x="65.576172" xlink:href="#DejaVuSans-68"/>
      <use x="142.578125" xlink:href="#DejaVuSans-69"/>
      <use x="205.761719" xlink:href="#DejaVuSans-32"/>
      <use x="237.548828" xlink:href="#DejaVuSans-102"/>
      <use x="272.753906" xlink:href="#DejaVuSans-111"/>
      <use x="333.935547" xlink:href="#DejaVuSans-114"/>
      <use x="375.048828" xlink:href="#DejaVuSans-32"/>
      <use x="406.835938" xlink:href="#DejaVuSans-114"/>
      <use x="445.699219" xlink:href="#DejaVuSans-101"/>
      <use x="507.222656" xlink:href="#DejaVuSans-115"/>
      <use x="559.322266" xlink:href="#DejaVuSans-117"/>
      <use x="622.701172" xlink:href="#DejaVuSans-108"/>
      <use x="650.484375" xlink:href="#DejaVuSans-116"/>
      <use x="689.693359" xlink:href="#DejaVuSans-95"/>
      <use x="739.693359" xlink:href="#DejaVuSans-100"/>
      <use x="803.169922" xlink:href="#DejaVuSans-102"/>
     </g>
    </g>
    <g id="line2d_35">
     <path d="M 609.5875 88.534688 
L 629.5875 88.534688 
" style="fill:none;stroke:#ff0000;stroke-dasharray:5.55,2.4;stroke-dashoffset:0;stroke-width:1.5;"/>
    </g>
    <g id="line2d_36"/>
    <g id="text_20">
     <!-- KDE for result_df2 -->
     <g transform="translate(637.5875 92.034688)scale(0.1 -0.1)">
      <use xlink:href="#DejaVuSans-75"/>
      <use x="65.576172" xlink:href="#DejaVuSans-68"/>
      <use x="142.578125" xlink:href="#DejaVuSans-69"/>
      <use x="205.761719" xlink:href="#DejaVuSans-32"/>
      <use x="237.548828" xlink:href="#DejaVuSans-102"/>
      <use x="272.753906" xlink:href="#DejaVuSans-111"/>
      <use x="333.935547" xlink:href="#DejaVuSans-114"/>
      <use x="375.048828" xlink:href="#DejaVuSans-32"/>
      <use x="406.835938" xlink:href="#DejaVuSans-114"/>
      <use x="445.699219" xlink:href="#DejaVuSans-101"/>
      <use x="507.222656" xlink:href="#DejaVuSans-115"/>
      <use x="559.322266" xlink:href="#DejaVuSans-117"/>
      <use x="622.701172" xlink:href="#DejaVuSans-108"/>
      <use x="650.484375" xlink:href="#DejaVuSans-116"/>
      <use x="689.693359" xlink:href="#DejaVuSans-95"/>
      <use x="739.693359" xlink:href="#DejaVuSans-100"/>
      <use x="803.169922" xlink:href="#DejaVuSans-102"/>
      <use x="838.375" xlink:href="#DejaVuSans-50"/>
     </g>
    </g>
    <g id="patch_99">
     <path d="M 609.5875 106.990938 
L 629.5875 106.990938 
L 629.5875 99.990938 
L 609.5875 99.990938 
z
" style="fill:#1f77b4;opacity:0.5;stroke:#000000;stroke-linejoin:miter;"/>
    </g>
    <g id="text_21">
     <!-- Histogram from result_df -->
     <g transform="translate(637.5875 106.990938)scale(0.1 -0.1)">
      <use xlink:href="#DejaVuSans-72"/>
      <use x="75.195312" xlink:href="#DejaVuSans-105"/>
      <use x="102.978516" xlink:href="#DejaVuSans-115"/>
      <use x="155.078125" xlink:href="#DejaVuSans-116"/>
      <use x="194.287109" xlink:href="#DejaVuSans-111"/>
      <use x="255.46875" xlink:href="#DejaVuSans-103"/>
      <use x="318.945312" xlink:href="#DejaVuSans-114"/>
      <use x="360.058594" xlink:href="#DejaVuSans-97"/>
      <use x="421.337891" xlink:href="#DejaVuSans-109"/>
      <use x="518.75" xlink:href="#DejaVuSans-32"/>
      <use x="550.537109" xlink:href="#DejaVuSans-102"/>
      <use x="585.742188" xlink:href="#DejaVuSans-114"/>
      <use x="624.605469" xlink:href="#DejaVuSans-111"/>
      <use x="685.787109" xlink:href="#DejaVuSans-109"/>
      <use x="783.199219" xlink:href="#DejaVuSans-32"/>
      <use x="814.986328" xlink:href="#DejaVuSans-114"/>
      <use x="853.849609" xlink:href="#DejaVuSans-101"/>
      <use x="915.373047" xlink:href="#DejaVuSans-115"/>
      <use x="967.472656" xlink:href="#DejaVuSans-117"/>
      <use x="1030.851562" xlink:href="#DejaVuSans-108"/>
      <use x="1058.634766" xlink:href="#DejaVuSans-116"/>
      <use x="1097.84375" xlink:href="#DejaVuSans-95"/>
      <use x="1147.84375" xlink:href="#DejaVuSans-100"/>
      <use x="1211.320312" xlink:href="#DejaVuSans-102"/>
     </g>
    </g>
    <g id="patch_100">
     <path d="M 609.5875 121.947188 
L 629.5875 121.947188 
L 629.5875 114.947188 
L 609.5875 114.947188 
z
" style="fill:#ff7f0e;opacity:0.5;stroke:#000000;stroke-linejoin:miter;"/>
    </g>
    <g id="text_22">
     <!-- Histogram from result_df2 -->
     <g transform="translate(637.5875 121.947188)scale(0.1 -0.1)">
      <use xlink:href="#DejaVuSans-72"/>
      <use x="75.195312" xlink:href="#DejaVuSans-105"/>
      <use x="102.978516" xlink:href="#DejaVuSans-115"/>
      <use x="155.078125" xlink:href="#DejaVuSans-116"/>
      <use x="194.287109" xlink:href="#DejaVuSans-111"/>
      <use x="255.46875" xlink:href="#DejaVuSans-103"/>
      <use x="318.945312" xlink:href="#DejaVuSans-114"/>
      <use x="360.058594" xlink:href="#DejaVuSans-97"/>
      <use x="421.337891" xlink:href="#DejaVuSans-109"/>
      <use x="518.75" xlink:href="#DejaVuSans-32"/>
      <use x="550.537109" xlink:href="#DejaVuSans-102"/>
      <use x="585.742188" xlink:href="#DejaVuSans-114"/>
      <use x="624.605469" xlink:href="#DejaVuSans-111"/>
      <use x="685.787109" xlink:href="#DejaVuSans-109"/>
      <use x="783.199219" xlink:href="#DejaVuSans-32"/>
      <use x="814.986328" xlink:href="#DejaVuSans-114"/>
      <use x="853.849609" xlink:href="#DejaVuSans-101"/>
      <use x="915.373047" xlink:href="#DejaVuSans-115"/>
      <use x="967.472656" xlink:href="#DejaVuSans-117"/>
      <use x="1030.851562" xlink:href="#DejaVuSans-108"/>
      <use x="1058.634766" xlink:href="#DejaVuSans-116"/>
      <use x="1097.84375" xlink:href="#DejaVuSans-95"/>
      <use x="1147.84375" xlink:href="#DejaVuSans-100"/>
      <use x="1211.320312" xlink:href="#DejaVuSans-102"/>
      <use x="1246.525391" xlink:href="#DejaVuSans-50"/>
     </g>
    </g>
   </g>
  </g>
 </g>
 <defs>
  <clipPath id="p31769404cb">
   <rect height="388.08" width="669.6" x="108" y="60.48"/>
  </clipPath>
 </defs>
</svg>
