<?xml version="1.0" encoding="utf-8" standalone="no"?>
<!DOCTYPE svg PUBLIC "-//W3C//DTD SVG 1.1//EN"
  "http://www.w3.org/Graphics/SVG/1.1/DTD/svg11.dtd">
<!-- Created with matplotlib (https://matplotlib.org/) -->
<svg height="504pt" version="1.1" viewBox="0 0 864 504" width="864pt" xmlns="http://www.w3.org/2000/svg" xmlns:xlink="http://www.w3.org/1999/xlink">
 <metadata>
  <rdf:RDF xmlns:cc="http://creativecommons.org/ns#" xmlns:dc="http://purl.org/dc/elements/1.1/" xmlns:rdf="http://www.w3.org/1999/02/22-rdf-syntax-ns#">
   <cc:Work>
    <dc:type rdf:resource="http://purl.org/dc/dcmitype/StillImage"/>
    <dc:date>2024-10-13T22:10:30.247117</dc:date>
    <dc:format>image/svg+xml</dc:format>
    <dc:creator>
     <cc:Agent>
      <dc:title>Matplotlib v3.3.4, https://matplotlib.org/</dc:title>
     </cc:Agent>
    </dc:creator>
   </cc:Work>
  </rdf:RDF>
 </metadata>
 <defs>
  <style type="text/css">*{stroke-linecap:butt;stroke-linejoin:round;}</style>
 </defs>
 <g id="figure_1">
  <g id="patch_1">
   <path d="M 0 504 
L 864 504 
L 864 0 
L 0 0 
z
" style="fill:#ffffff;"/>
  </g>
  <g id="axes_1">
   <g id="patch_2">
    <path d="M 108 448.56 
L 777.6 448.56 
L 777.6 60.48 
L 108 60.48 
z
" style="fill:#ffffff;"/>
   </g>
   <g id="patch_3">
    <path clip-path="url(#pcd9fdc4572)" d="M 115.3656 448.56 
L 122.0616 448.56 
L 122.0616 173.808541 
L 115.3656 173.808541 
z
" style="fill:#1f77b4;opacity:0.5;stroke:#000000;stroke-linejoin:miter;"/>
   </g>
   <g id="patch_4">
    <path clip-path="url(#pcd9fdc4572)" d="M 128.7576 448.56 
L 135.4536 448.56 
L 135.4536 180.366913 
L 128.7576 180.366913 
z
" style="fill:#1f77b4;opacity:0.5;stroke:#000000;stroke-linejoin:miter;"/>
   </g>
   <g id="patch_5">
    <path clip-path="url(#pcd9fdc4572)" d="M 142.1496 448.56 
L 148.8456 448.56 
L 148.8456 318.186154 
L 142.1496 318.186154 
z
" style="fill:#1f77b4;opacity:0.5;stroke:#000000;stroke-linejoin:miter;"/>
   </g>
   <g id="patch_6">
    <path clip-path="url(#pcd9fdc4572)" d="M 155.5416 448.56 
L 162.2376 448.56 
L 162.2376 321.315123 
L 155.5416 321.315123 
z
" style="fill:#1f77b4;opacity:0.5;stroke:#000000;stroke-linejoin:miter;"/>
   </g>
   <g id="patch_7">
    <path clip-path="url(#pcd9fdc4572)" d="M 168.9336 448.56 
L 175.6296 448.56 
L 175.6296 331.319164 
L 168.9336 331.319164 
z
" style="fill:#1f77b4;opacity:0.5;stroke:#000000;stroke-linejoin:miter;"/>
   </g>
   <g id="patch_8">
    <path clip-path="url(#pcd9fdc4572)" d="M 182.3256 448.56 
L 189.0216 448.56 
L 189.0216 341.524706 
L 182.3256 341.524706 
z
" style="fill:#1f77b4;opacity:0.5;stroke:#000000;stroke-linejoin:miter;"/>
   </g>
   <g id="patch_9">
    <path clip-path="url(#pcd9fdc4572)" d="M 195.7176 448.56 
L 202.4136 448.56 
L 202.4136 349.940654 
L 195.7176 349.940654 
z
" style="fill:#1f77b4;opacity:0.5;stroke:#000000;stroke-linejoin:miter;"/>
   </g>
   <g id="patch_10">
    <path clip-path="url(#pcd9fdc4572)" d="M 209.1096 448.56 
L 215.8056 448.56 
L 215.8056 357.294395 
L 209.1096 357.294395 
z
" style="fill:#1f77b4;opacity:0.5;stroke:#000000;stroke-linejoin:miter;"/>
   </g>
   <g id="patch_11">
    <path clip-path="url(#pcd9fdc4572)" d="M 222.5016 448.56 
L 229.1976 448.56 
L 229.1976 365.331327 
L 222.5016 365.331327 
z
" style="fill:#1f77b4;opacity:0.5;stroke:#000000;stroke-linejoin:miter;"/>
   </g>
   <g id="patch_12">
    <path clip-path="url(#pcd9fdc4572)" d="M 235.8936 448.56 
L 242.5896 448.56 
L 242.5896 371.76406 
L 235.8936 371.76406 
z
" style="fill:#1f77b4;opacity:0.5;stroke:#000000;stroke-linejoin:miter;"/>
   </g>
   <g id="patch_13">
    <path clip-path="url(#pcd9fdc4572)" d="M 249.2856 448.56 
L 255.9816 448.56 
L 255.9816 378.672811 
L 249.2856 378.672811 
z
" style="fill:#1f77b4;opacity:0.5;stroke:#000000;stroke-linejoin:miter;"/>
   </g>
   <g id="patch_14">
    <path clip-path="url(#pcd9fdc4572)" d="M 262.6776 448.56 
L 269.3736 448.56 
L 269.3736 384.264683 
L 262.6776 384.264683 
z
" style="fill:#1f77b4;opacity:0.5;stroke:#000000;stroke-linejoin:miter;"/>
   </g>
   <g id="patch_15">
    <path clip-path="url(#pcd9fdc4572)" d="M 276.0696 448.56 
L 282.7656 448.56 
L 282.7656 388.10464 
L 276.0696 388.10464 
z
" style="fill:#1f77b4;opacity:0.5;stroke:#000000;stroke-linejoin:miter;"/>
   </g>
   <g id="patch_16">
    <path clip-path="url(#pcd9fdc4572)" d="M 289.4616 448.56 
L 296.1576 448.56 
L 296.1576 395.146125 
L 289.4616 395.146125 
z
" style="fill:#1f77b4;opacity:0.5;stroke:#000000;stroke-linejoin:miter;"/>
   </g>
   <g id="patch_17">
    <path clip-path="url(#pcd9fdc4572)" d="M 302.8536 448.56 
L 309.5496 448.56 
L 309.5496 398.306033 
L 302.8536 398.306033 
z
" style="fill:#1f77b4;opacity:0.5;stroke:#000000;stroke-linejoin:miter;"/>
   </g>
   <g id="patch_18">
    <path clip-path="url(#pcd9fdc4572)" d="M 316.2456 448.56 
L 322.9416 448.56 
L 322.9416 399.744084 
L 316.2456 399.744084 
z
" style="fill:#1f77b4;opacity:0.5;stroke:#000000;stroke-linejoin:miter;"/>
   </g>
   <g id="patch_19">
    <path clip-path="url(#pcd9fdc4572)" d="M 329.6376 448.56 
L 336.3336 448.56 
L 336.3336 405.408167 
L 329.6376 405.408167 
z
" style="fill:#1f77b4;opacity:0.5;stroke:#000000;stroke-linejoin:miter;"/>
   </g>
   <g id="patch_20">
    <path clip-path="url(#pcd9fdc4572)" d="M 343.0296 448.56 
L 349.7256 448.56 
L 349.7256 408.714808 
L 343.0296 408.714808 
z
" style="fill:#1f77b4;opacity:0.5;stroke:#000000;stroke-linejoin:miter;"/>
   </g>
   <g id="patch_21">
    <path clip-path="url(#pcd9fdc4572)" d="M 356.4216 448.56 
L 363.1176 448.56 
L 363.1176 412.113734 
L 356.4216 412.113734 
z
" style="fill:#1f77b4;opacity:0.5;stroke:#000000;stroke-linejoin:miter;"/>
   </g>
   <g id="patch_22">
    <path clip-path="url(#pcd9fdc4572)" d="M 369.8136 448.56 
L 376.5096 448.56 
L 376.5096 414.069666 
L 369.8136 414.069666 
z
" style="fill:#1f77b4;opacity:0.5;stroke:#000000;stroke-linejoin:miter;"/>
   </g>
   <g id="patch_23">
    <path clip-path="url(#pcd9fdc4572)" d="M 383.2056 448.56 
L 389.9016 448.56 
L 389.9016 417.619145 
L 383.2056 417.619145 
z
" style="fill:#1f77b4;opacity:0.5;stroke:#000000;stroke-linejoin:miter;"/>
   </g>
   <g id="patch_24">
    <path clip-path="url(#pcd9fdc4572)" d="M 396.5976 448.56 
L 403.2936 448.56 
L 403.2936 419.127386 
L 396.5976 419.127386 
z
" style="fill:#1f77b4;opacity:0.5;stroke:#000000;stroke-linejoin:miter;"/>
   </g>
   <g id="patch_25">
    <path clip-path="url(#pcd9fdc4572)" d="M 409.9896 448.56 
L 416.6856 448.56 
L 416.6856 419.785466 
L 409.9896 419.785466 
z
" style="fill:#1f77b4;opacity:0.5;stroke:#000000;stroke-linejoin:miter;"/>
   </g>
   <g id="patch_26">
    <path clip-path="url(#pcd9fdc4572)" d="M 423.3816 448.56 
L 430.0776 448.56 
L 430.0776 421.443401 
L 423.3816 421.443401 
z
" style="fill:#1f77b4;opacity:0.5;stroke:#000000;stroke-linejoin:miter;"/>
   </g>
   <g id="patch_27">
    <path clip-path="url(#pcd9fdc4572)" d="M 436.7736 448.56 
L 443.4696 448.56 
L 443.4696 424.004702 
L 436.7736 424.004702 
z
" style="fill:#1f77b4;opacity:0.5;stroke:#000000;stroke-linejoin:miter;"/>
   </g>
   <g id="patch_28">
    <path clip-path="url(#pcd9fdc4572)" d="M 450.1656 448.56 
L 456.8616 448.56 
L 456.8616 427.168455 
L 450.1656 427.168455 
z
" style="fill:#1f77b4;opacity:0.5;stroke:#000000;stroke-linejoin:miter;"/>
   </g>
   <g id="patch_29">
    <path clip-path="url(#pcd9fdc4572)" d="M 463.5576 448.56 
L 470.2536 448.56 
L 470.2536 428.887492 
L 463.5576 428.887492 
z
" style="fill:#1f77b4;opacity:0.5;stroke:#000000;stroke-linejoin:miter;"/>
   </g>
   <g id="patch_30">
    <path clip-path="url(#pcd9fdc4572)" d="M 476.9496 448.56 
L 483.6456 448.56 
L 483.6456 429.268126 
L 476.9496 429.268126 
z
" style="fill:#1f77b4;opacity:0.5;stroke:#000000;stroke-linejoin:miter;"/>
   </g>
   <g id="patch_31">
    <path clip-path="url(#pcd9fdc4572)" d="M 490.3416 448.56 
L 497.0376 448.56 
L 497.0376 431.78388 
L 490.3416 431.78388 
z
" style="fill:#1f77b4;opacity:0.5;stroke:#000000;stroke-linejoin:miter;"/>
   </g>
   <g id="patch_32">
    <path clip-path="url(#pcd9fdc4572)" d="M 503.7336 448.56 
L 510.4296 448.56 
L 510.4296 433.81317 
L 503.7336 433.81317 
z
" style="fill:#1f77b4;opacity:0.5;stroke:#000000;stroke-linejoin:miter;"/>
   </g>
   <g id="patch_33">
    <path clip-path="url(#pcd9fdc4572)" d="M 517.1256 448.56 
L 523.8216 448.56 
L 523.8216 434.775146 
L 517.1256 434.775146 
z
" style="fill:#1f77b4;opacity:0.5;stroke:#000000;stroke-linejoin:miter;"/>
   </g>
   <g id="patch_34">
    <path clip-path="url(#pcd9fdc4572)" d="M 530.5176 448.56 
L 537.2136 448.56 
L 537.2136 436.057901 
L 530.5176 436.057901 
z
" style="fill:#1f77b4;opacity:0.5;stroke:#000000;stroke-linejoin:miter;"/>
   </g>
   <g id="patch_35">
    <path clip-path="url(#pcd9fdc4572)" d="M 543.9096 448.56 
L 550.6056 448.56 
L 550.6056 436.595459 
L 543.9096 436.595459 
z
" style="fill:#1f77b4;opacity:0.5;stroke:#000000;stroke-linejoin:miter;"/>
   </g>
   <g id="patch_36">
    <path clip-path="url(#pcd9fdc4572)" d="M 557.3016 448.56 
L 563.9976 448.56 
L 563.9976 438.805926 
L 557.3016 438.805926 
z
" style="fill:#1f77b4;opacity:0.5;stroke:#000000;stroke-linejoin:miter;"/>
   </g>
   <g id="patch_37">
    <path clip-path="url(#pcd9fdc4572)" d="M 570.6936 448.56 
L 577.3896 448.56 
L 577.3896 439.677816 
L 570.6936 439.677816 
z
" style="fill:#1f77b4;opacity:0.5;stroke:#000000;stroke-linejoin:miter;"/>
   </g>
   <g id="patch_38">
    <path clip-path="url(#pcd9fdc4572)" d="M 584.0856 448.56 
L 590.7816 448.56 
L 590.7816 441.752301 
L 584.0856 441.752301 
z
" style="fill:#1f77b4;opacity:0.5;stroke:#000000;stroke-linejoin:miter;"/>
   </g>
   <g id="patch_39">
    <path clip-path="url(#pcd9fdc4572)" d="M 597.4776 448.56 
L 604.1736 448.56 
L 604.1736 442.155026 
L 597.4776 442.155026 
z
" style="fill:#1f77b4;opacity:0.5;stroke:#000000;stroke-linejoin:miter;"/>
   </g>
   <g id="patch_40">
    <path clip-path="url(#pcd9fdc4572)" d="M 610.8696 448.56 
L 617.5656 448.56 
L 617.5656 443.967199 
L 610.8696 443.967199 
z
" style="fill:#1f77b4;opacity:0.5;stroke:#000000;stroke-linejoin:miter;"/>
   </g>
   <g id="patch_41">
    <path clip-path="url(#pcd9fdc4572)" d="M 624.2616 448.56 
L 630.9576 448.56 
L 630.9576 445.023568 
L 624.2616 445.023568 
z
" style="fill:#1f77b4;opacity:0.5;stroke:#000000;stroke-linejoin:miter;"/>
   </g>
   <g id="patch_42">
    <path clip-path="url(#pcd9fdc4572)" d="M 637.6536 448.56 
L 644.3496 448.56 
L 644.3496 445.737168 
L 637.6536 445.737168 
z
" style="fill:#1f77b4;opacity:0.5;stroke:#000000;stroke-linejoin:miter;"/>
   </g>
   <g id="patch_43">
    <path clip-path="url(#pcd9fdc4572)" d="M 651.0456 448.56 
L 657.7416 448.56 
L 657.7416 446.450768 
L 651.0456 446.450768 
z
" style="fill:#1f77b4;opacity:0.5;stroke:#000000;stroke-linejoin:miter;"/>
   </g>
   <g id="patch_44">
    <path clip-path="url(#pcd9fdc4572)" d="M 664.4376 448.56 
L 671.1336 448.56 
L 671.1336 446.450768 
L 664.4376 446.450768 
z
" style="fill:#1f77b4;opacity:0.5;stroke:#000000;stroke-linejoin:miter;"/>
   </g>
   <g id="patch_45">
    <path clip-path="url(#pcd9fdc4572)" d="M 677.8296 448.56 
L 684.5256 448.56 
L 684.5256 447.484884 
L 677.8296 447.484884 
z
" style="fill:#1f77b4;opacity:0.5;stroke:#000000;stroke-linejoin:miter;"/>
   </g>
   <g id="patch_46">
    <path clip-path="url(#pcd9fdc4572)" d="M 691.2216 448.56 
L 697.9176 448.56 
L 697.9176 447.484884 
L 691.2216 447.484884 
z
" style="fill:#1f77b4;opacity:0.5;stroke:#000000;stroke-linejoin:miter;"/>
   </g>
   <g id="patch_47">
    <path clip-path="url(#pcd9fdc4572)" d="M 704.6136 448.56 
L 711.3096 448.56 
L 711.3096 448.022442 
L 704.6136 448.022442 
z
" style="fill:#1f77b4;opacity:0.5;stroke:#000000;stroke-linejoin:miter;"/>
   </g>
   <g id="patch_48">
    <path clip-path="url(#pcd9fdc4572)" d="M 120.7224 448.56 
L 127.4184 448.56 
L 127.4184 78.96 
L 120.7224 78.96 
z
" style="fill:#ff7f0e;opacity:0.5;stroke:#000000;stroke-linejoin:miter;"/>
   </g>
   <g id="patch_49">
    <path clip-path="url(#pcd9fdc4572)" d="M 134.1144 448.56 
L 140.8104 448.56 
L 140.8104 95.881539 
L 134.1144 95.881539 
z
" style="fill:#ff7f0e;opacity:0.5;stroke:#000000;stroke-linejoin:miter;"/>
   </g>
   <g id="patch_50">
    <path clip-path="url(#pcd9fdc4572)" d="M 147.5064 448.56 
L 154.2024 448.56 
L 154.2024 284.566066 
L 147.5064 284.566066 
z
" style="fill:#ff7f0e;opacity:0.5;stroke:#000000;stroke-linejoin:miter;"/>
   </g>
   <g id="patch_51">
    <path clip-path="url(#pcd9fdc4572)" d="M 160.8984 448.56 
L 167.5944 448.56 
L 167.5944 301.049945 
L 160.8984 301.049945 
z
" style="fill:#ff7f0e;opacity:0.5;stroke:#000000;stroke-linejoin:miter;"/>
   </g>
   <g id="patch_52">
    <path clip-path="url(#pcd9fdc4572)" d="M 174.2904 448.56 
L 180.9864 448.56 
L 180.9864 316.45927 
L 174.2904 316.45927 
z
" style="fill:#ff7f0e;opacity:0.5;stroke:#000000;stroke-linejoin:miter;"/>
   </g>
   <g id="patch_53">
    <path clip-path="url(#pcd9fdc4572)" d="M 187.6824 448.56 
L 194.3784 448.56 
L 194.3784 334.571107 
L 187.6824 334.571107 
z
" style="fill:#ff7f0e;opacity:0.5;stroke:#000000;stroke-linejoin:miter;"/>
   </g>
   <g id="patch_54">
    <path clip-path="url(#pcd9fdc4572)" d="M 201.0744 448.56 
L 207.7704 448.56 
L 207.7704 346.351351 
L 201.0744 346.351351 
z
" style="fill:#ff7f0e;opacity:0.5;stroke:#000000;stroke-linejoin:miter;"/>
   </g>
   <g id="patch_55">
    <path clip-path="url(#pcd9fdc4572)" d="M 214.4664 448.56 
L 221.1624 448.56 
L 221.1624 358.990745 
L 214.4664 358.990745 
z
" style="fill:#ff7f0e;opacity:0.5;stroke:#000000;stroke-linejoin:miter;"/>
   </g>
   <g id="patch_56">
    <path clip-path="url(#pcd9fdc4572)" d="M 227.8584 448.56 
L 234.5544 448.56 
L 234.5544 371.16834 
L 227.8584 371.16834 
z
" style="fill:#ff7f0e;opacity:0.5;stroke:#000000;stroke-linejoin:miter;"/>
   </g>
   <g id="patch_57">
    <path clip-path="url(#pcd9fdc4572)" d="M 241.2504 448.56 
L 247.9464 448.56 
L 247.9464 378.982456 
L 241.2504 378.982456 
z
" style="fill:#ff7f0e;opacity:0.5;stroke:#000000;stroke-linejoin:miter;"/>
   </g>
   <g id="patch_58">
    <path clip-path="url(#pcd9fdc4572)" d="M 254.6424 448.56 
L 261.3384 448.56 
L 261.3384 383.624117 
L 254.6424 383.624117 
z
" style="fill:#ff7f0e;opacity:0.5;stroke:#000000;stroke-linejoin:miter;"/>
   </g>
   <g id="patch_59">
    <path clip-path="url(#pcd9fdc4572)" d="M 268.0344 448.56 
L 274.7304 448.56 
L 274.7304 389.543477 
L 268.0344 389.543477 
z
" style="fill:#ff7f0e;opacity:0.5;stroke:#000000;stroke-linejoin:miter;"/>
   </g>
   <g id="patch_60">
    <path clip-path="url(#pcd9fdc4572)" d="M 281.4264 448.56 
L 288.1224 448.56 
L 288.1224 394.961096 
L 281.4264 394.961096 
z
" style="fill:#ff7f0e;opacity:0.5;stroke:#000000;stroke-linejoin:miter;"/>
   </g>
   <g id="patch_61">
    <path clip-path="url(#pcd9fdc4572)" d="M 294.8184 448.56 
L 301.5144 448.56 
L 301.5144 400.120845 
L 294.8184 400.120845 
z
" style="fill:#ff7f0e;opacity:0.5;stroke:#000000;stroke-linejoin:miter;"/>
   </g>
   <g id="patch_62">
    <path clip-path="url(#pcd9fdc4572)" d="M 308.2104 448.56 
L 314.9064 448.56 
L 314.9064 404.691523 
L 308.2104 404.691523 
z
" style="fill:#ff7f0e;opacity:0.5;stroke:#000000;stroke-linejoin:miter;"/>
   </g>
   <g id="patch_63">
    <path clip-path="url(#pcd9fdc4572)" d="M 321.6024 448.56 
L 328.2984 448.56 
L 328.2984 410.042554 
L 321.6024 410.042554 
z
" style="fill:#ff7f0e;opacity:0.5;stroke:#000000;stroke-linejoin:miter;"/>
   </g>
   <g id="patch_64">
    <path clip-path="url(#pcd9fdc4572)" d="M 334.9944 448.56 
L 341.6904 448.56 
L 341.6904 413.305154 
L 334.9944 413.305154 
z
" style="fill:#ff7f0e;opacity:0.5;stroke:#000000;stroke-linejoin:miter;"/>
   </g>
   <g id="patch_65">
    <path clip-path="url(#pcd9fdc4572)" d="M 348.3864 448.56 
L 355.0824 448.56 
L 355.0824 417.112783 
L 348.3864 417.112783 
z
" style="fill:#ff7f0e;opacity:0.5;stroke:#000000;stroke-linejoin:miter;"/>
   </g>
   <g id="patch_66">
    <path clip-path="url(#pcd9fdc4572)" d="M 361.7784 448.56 
L 368.4744 448.56 
L 368.4744 420.280922 
L 361.7784 420.280922 
z
" style="fill:#ff7f0e;opacity:0.5;stroke:#000000;stroke-linejoin:miter;"/>
   </g>
   <g id="patch_67">
    <path clip-path="url(#pcd9fdc4572)" d="M 375.1704 448.56 
L 381.8664 448.56 
L 381.8664 423.202904 
L 375.1704 423.202904 
z
" style="fill:#ff7f0e;opacity:0.5;stroke:#000000;stroke-linejoin:miter;"/>
   </g>
   <g id="patch_68">
    <path clip-path="url(#pcd9fdc4572)" d="M 388.5624 448.56 
L 395.2584 448.56 
L 395.2584 426.387388 
L 388.5624 426.387388 
z
" style="fill:#ff7f0e;opacity:0.5;stroke:#000000;stroke-linejoin:miter;"/>
   </g>
   <g id="patch_69">
    <path clip-path="url(#pcd9fdc4572)" d="M 401.9544 448.56 
L 408.6504 448.56 
L 408.6504 429.964987 
L 401.9544 429.964987 
z
" style="fill:#ff7f0e;opacity:0.5;stroke:#000000;stroke-linejoin:miter;"/>
   </g>
   <g id="patch_70">
    <path clip-path="url(#pcd9fdc4572)" d="M 415.3464 448.56 
L 422.0424 448.56 
L 422.0424 431.654638 
L 415.3464 431.654638 
z
" style="fill:#ff7f0e;opacity:0.5;stroke:#000000;stroke-linejoin:miter;"/>
   </g>
   <g id="patch_71">
    <path clip-path="url(#pcd9fdc4572)" d="M 428.7384 448.56 
L 435.4344 448.56 
L 435.4344 433.717788 
L 428.7384 433.717788 
z
" style="fill:#ff7f0e;opacity:0.5;stroke:#000000;stroke-linejoin:miter;"/>
   </g>
   <g id="patch_72">
    <path clip-path="url(#pcd9fdc4572)" d="M 442.1304 448.56 
L 448.8264 448.56 
L 448.8264 435.494665 
L 442.1304 435.494665 
z
" style="fill:#ff7f0e;opacity:0.5;stroke:#000000;stroke-linejoin:miter;"/>
   </g>
   <g id="patch_73">
    <path clip-path="url(#pcd9fdc4572)" d="M 455.5224 448.56 
L 462.2184 448.56 
L 462.2184 437.209768 
L 455.5224 437.209768 
z
" style="fill:#ff7f0e;opacity:0.5;stroke:#000000;stroke-linejoin:miter;"/>
   </g>
   <g id="patch_74">
    <path clip-path="url(#pcd9fdc4572)" d="M 468.9144 448.56 
L 475.6104 448.56 
L 475.6104 439.394997 
L 468.9144 439.394997 
z
" style="fill:#ff7f0e;opacity:0.5;stroke:#000000;stroke-linejoin:miter;"/>
   </g>
   <g id="patch_75">
    <path clip-path="url(#pcd9fdc4572)" d="M 482.3064 448.56 
L 489.0024 448.56 
L 489.0024 439.965064 
L 482.3064 439.965064 
z
" style="fill:#ff7f0e;opacity:0.5;stroke:#000000;stroke-linejoin:miter;"/>
   </g>
   <g id="patch_76">
    <path clip-path="url(#pcd9fdc4572)" d="M 495.6984 448.56 
L 502.3944 448.56 
L 502.3944 440.853915 
L 495.6984 440.853915 
z
" style="fill:#ff7f0e;opacity:0.5;stroke:#000000;stroke-linejoin:miter;"/>
   </g>
   <g id="patch_77">
    <path clip-path="url(#pcd9fdc4572)" d="M 509.0904 448.56 
L 515.7864 448.56 
L 515.7864 442.114966 
L 509.0904 442.114966 
z
" style="fill:#ff7f0e;opacity:0.5;stroke:#000000;stroke-linejoin:miter;"/>
   </g>
   <g id="patch_78">
    <path clip-path="url(#pcd9fdc4572)" d="M 522.4824 448.56 
L 529.1784 448.56 
L 529.1784 442.808038 
L 522.4824 442.808038 
z
" style="fill:#ff7f0e;opacity:0.5;stroke:#000000;stroke-linejoin:miter;"/>
   </g>
   <g id="patch_79">
    <path clip-path="url(#pcd9fdc4572)" d="M 535.8744 448.56 
L 542.5704 448.56 
L 542.5704 444.555764 
L 535.8744 444.555764 
z
" style="fill:#ff7f0e;opacity:0.5;stroke:#000000;stroke-linejoin:miter;"/>
   </g>
   <g id="patch_80">
    <path clip-path="url(#pcd9fdc4572)" d="M 549.2664 448.56 
L 555.9624 448.56 
L 555.9624 445.982172 
L 549.2664 445.982172 
z
" style="fill:#ff7f0e;opacity:0.5;stroke:#000000;stroke-linejoin:miter;"/>
   </g>
   <g id="patch_81">
    <path clip-path="url(#pcd9fdc4572)" d="M 562.6584 448.56 
L 569.3544 448.56 
L 569.3544 445.982172 
L 562.6584 445.982172 
z
" style="fill:#ff7f0e;opacity:0.5;stroke:#000000;stroke-linejoin:miter;"/>
   </g>
   <g id="patch_82">
    <path clip-path="url(#pcd9fdc4572)" d="M 576.0504 448.56 
L 582.7464 448.56 
L 582.7464 447.253272 
L 576.0504 447.253272 
z
" style="fill:#ff7f0e;opacity:0.5;stroke:#000000;stroke-linejoin:miter;"/>
   </g>
   <g id="patch_83">
    <path clip-path="url(#pcd9fdc4572)" d="M 589.4424 448.56 
L 596.1384 448.56 
L 596.1384 447.54312 
L 589.4424 447.54312 
z
" style="fill:#ff7f0e;opacity:0.5;stroke:#000000;stroke-linejoin:miter;"/>
   </g>
   <g id="patch_84">
    <path clip-path="url(#pcd9fdc4572)" d="M 602.8344 448.56 
L 609.5304 448.56 
L 609.5304 447.54312 
L 602.8344 447.54312 
z
" style="fill:#ff7f0e;opacity:0.5;stroke:#000000;stroke-linejoin:miter;"/>
   </g>
   <g id="patch_85">
    <path clip-path="url(#pcd9fdc4572)" d="M 616.2264 448.56 
L 622.9224 448.56 
L 622.9224 447.54312 
L 616.2264 447.54312 
z
" style="fill:#ff7f0e;opacity:0.5;stroke:#000000;stroke-linejoin:miter;"/>
   </g>
   <g id="patch_86">
    <path clip-path="url(#pcd9fdc4572)" d="M 629.6184 448.56 
L 636.3144 448.56 
L 636.3144 448.05156 
L 629.6184 448.05156 
z
" style="fill:#ff7f0e;opacity:0.5;stroke:#000000;stroke-linejoin:miter;"/>
   </g>
   <g id="patch_87">
    <path clip-path="url(#pcd9fdc4572)" d="M 643.0104 448.56 
L 649.7064 448.56 
L 649.7064 448.05156 
L 643.0104 448.05156 
z
" style="fill:#ff7f0e;opacity:0.5;stroke:#000000;stroke-linejoin:miter;"/>
   </g>
   <g id="matplotlib.axis_1">
    <g id="xtick_1">
     <g id="line2d_1">
      <path clip-path="url(#pcd9fdc4572)" d="M 108 448.56 
L 108 60.48 
" style="fill:none;stroke:#b0b0b0;stroke-linecap:square;stroke-width:0.8;"/>
     </g>
     <g id="line2d_2">
      <defs>
       <path d="M 0 0 
L 0 3.5 
" id="m366a34cd2d" style="stroke:#000000;stroke-width:0.8;"/>
      </defs>
      <g>
       <use style="stroke:#000000;stroke-width:0.8;" x="108" xlink:href="#m366a34cd2d" y="448.56"/>
      </g>
     </g>
     <g id="text_1">
      <!-- 0 -->
      <g transform="translate(104.81875 463.158437)scale(0.1 -0.1)">
       <defs>
        <path d="M 31.78125 66.40625 
Q 24.171875 66.40625 20.328125 58.90625 
Q 16.5 51.421875 16.5 36.375 
Q 16.5 21.390625 20.328125 13.890625 
Q 24.171875 6.390625 31.78125 6.390625 
Q 39.453125 6.390625 43.28125 13.890625 
Q 47.125 21.390625 47.125 36.375 
Q 47.125 51.421875 43.28125 58.90625 
Q 39.453125 66.40625 31.78125 66.40625 
z
M 31.78125 74.21875 
Q 44.046875 74.21875 50.515625 64.515625 
Q 56.984375 54.828125 56.984375 36.375 
Q 56.984375 17.96875 50.515625 8.265625 
Q 44.046875 -1.421875 31.78125 -1.421875 
Q 19.53125 -1.421875 13.0625 8.265625 
Q 6.59375 17.96875 6.59375 36.375 
Q 6.59375 54.828125 13.0625 64.515625 
Q 19.53125 74.21875 31.78125 74.21875 
z
" id="DejaVuSans-48"/>
       </defs>
       <use xlink:href="#DejaVuSans-48"/>
      </g>
     </g>
    </g>
    <g id="xtick_2">
     <g id="line2d_3">
      <path clip-path="url(#pcd9fdc4572)" d="M 241.92 448.56 
L 241.92 60.48 
" style="fill:none;stroke:#b0b0b0;stroke-linecap:square;stroke-width:0.8;"/>
     </g>
     <g id="line2d_4">
      <g>
       <use style="stroke:#000000;stroke-width:0.8;" x="241.92" xlink:href="#m366a34cd2d" y="448.56"/>
      </g>
     </g>
     <g id="text_2">
      <!-- 10 -->
      <g transform="translate(235.5575 463.158437)scale(0.1 -0.1)">
       <defs>
        <path d="M 12.40625 8.296875 
L 28.515625 8.296875 
L 28.515625 63.921875 
L 10.984375 60.40625 
L 10.984375 69.390625 
L 28.421875 72.90625 
L 38.28125 72.90625 
L 38.28125 8.296875 
L 54.390625 8.296875 
L 54.390625 0 
L 12.40625 0 
z
" id="DejaVuSans-49"/>
       </defs>
       <use xlink:href="#DejaVuSans-49"/>
       <use x="63.623047" xlink:href="#DejaVuSans-48"/>
      </g>
     </g>
    </g>
    <g id="xtick_3">
     <g id="line2d_5">
      <path clip-path="url(#pcd9fdc4572)" d="M 375.84 448.56 
L 375.84 60.48 
" style="fill:none;stroke:#b0b0b0;stroke-linecap:square;stroke-width:0.8;"/>
     </g>
     <g id="line2d_6">
      <g>
       <use style="stroke:#000000;stroke-width:0.8;" x="375.84" xlink:href="#m366a34cd2d" y="448.56"/>
      </g>
     </g>
     <g id="text_3">
      <!-- 20 -->
      <g transform="translate(369.4775 463.158437)scale(0.1 -0.1)">
       <defs>
        <path d="M 19.1875 8.296875 
L 53.609375 8.296875 
L 53.609375 0 
L 7.328125 0 
L 7.328125 8.296875 
Q 12.9375 14.109375 22.625 23.890625 
Q 32.328125 33.6875 34.8125 36.53125 
Q 39.546875 41.84375 41.421875 45.53125 
Q 43.3125 49.21875 43.3125 52.78125 
Q 43.3125 58.59375 39.234375 62.25 
Q 35.15625 65.921875 28.609375 65.921875 
Q 23.96875 65.921875 18.8125 64.3125 
Q 13.671875 62.703125 7.8125 59.421875 
L 7.8125 69.390625 
Q 13.765625 71.78125 18.9375 73 
Q 24.125 74.21875 28.421875 74.21875 
Q 39.75 74.21875 46.484375 68.546875 
Q 53.21875 62.890625 53.21875 53.421875 
Q 53.21875 48.921875 51.53125 44.890625 
Q 49.859375 40.875 45.40625 35.40625 
Q 44.1875 33.984375 37.640625 27.21875 
Q 31.109375 20.453125 19.1875 8.296875 
z
" id="DejaVuSans-50"/>
       </defs>
       <use xlink:href="#DejaVuSans-50"/>
       <use x="63.623047" xlink:href="#DejaVuSans-48"/>
      </g>
     </g>
    </g>
    <g id="xtick_4">
     <g id="line2d_7">
      <path clip-path="url(#pcd9fdc4572)" d="M 509.76 448.56 
L 509.76 60.48 
" style="fill:none;stroke:#b0b0b0;stroke-linecap:square;stroke-width:0.8;"/>
     </g>
     <g id="line2d_8">
      <g>
       <use style="stroke:#000000;stroke-width:0.8;" x="509.76" xlink:href="#m366a34cd2d" y="448.56"/>
      </g>
     </g>
     <g id="text_4">
      <!-- 30 -->
      <g transform="translate(503.3975 463.158437)scale(0.1 -0.1)">
       <defs>
        <path d="M 40.578125 39.3125 
Q 47.65625 37.796875 51.625 33 
Q 55.609375 28.21875 55.609375 21.1875 
Q 55.609375 10.40625 48.1875 4.484375 
Q 40.765625 -1.421875 27.09375 -1.421875 
Q 22.515625 -1.421875 17.65625 -0.515625 
Q 12.796875 0.390625 7.625 2.203125 
L 7.625 11.71875 
Q 11.71875 9.328125 16.59375 8.109375 
Q 21.484375 6.890625 26.8125 6.890625 
Q 36.078125 6.890625 40.9375 10.546875 
Q 45.796875 14.203125 45.796875 21.1875 
Q 45.796875 27.640625 41.28125 31.265625 
Q 36.765625 34.90625 28.71875 34.90625 
L 20.21875 34.90625 
L 20.21875 43.015625 
L 29.109375 43.015625 
Q 36.375 43.015625 40.234375 45.921875 
Q 44.09375 48.828125 44.09375 54.296875 
Q 44.09375 59.90625 40.109375 62.90625 
Q 36.140625 65.921875 28.71875 65.921875 
Q 24.65625 65.921875 20.015625 65.03125 
Q 15.375 64.15625 9.8125 62.3125 
L 9.8125 71.09375 
Q 15.4375 72.65625 20.34375 73.4375 
Q 25.25 74.21875 29.59375 74.21875 
Q 40.828125 74.21875 47.359375 69.109375 
Q 53.90625 64.015625 53.90625 55.328125 
Q 53.90625 49.265625 50.4375 45.09375 
Q 46.96875 40.921875 40.578125 39.3125 
z
" id="DejaVuSans-51"/>
       </defs>
       <use xlink:href="#DejaVuSans-51"/>
       <use x="63.623047" xlink:href="#DejaVuSans-48"/>
      </g>
     </g>
    </g>
    <g id="xtick_5">
     <g id="line2d_9">
      <path clip-path="url(#pcd9fdc4572)" d="M 643.68 448.56 
L 643.68 60.48 
" style="fill:none;stroke:#b0b0b0;stroke-linecap:square;stroke-width:0.8;"/>
     </g>
     <g id="line2d_10">
      <g>
       <use style="stroke:#000000;stroke-width:0.8;" x="643.68" xlink:href="#m366a34cd2d" y="448.56"/>
      </g>
     </g>
     <g id="text_5">
      <!-- 40 -->
      <g transform="translate(637.3175 463.158437)scale(0.1 -0.1)">
       <defs>
        <path d="M 37.796875 64.3125 
L 12.890625 25.390625 
L 37.796875 25.390625 
z
M 35.203125 72.90625 
L 47.609375 72.90625 
L 47.609375 25.390625 
L 58.015625 25.390625 
L 58.015625 17.1875 
L 47.609375 17.1875 
L 47.609375 0 
L 37.796875 0 
L 37.796875 17.1875 
L 4.890625 17.1875 
L 4.890625 26.703125 
z
" id="DejaVuSans-52"/>
       </defs>
       <use xlink:href="#DejaVuSans-52"/>
       <use x="63.623047" xlink:href="#DejaVuSans-48"/>
      </g>
     </g>
    </g>
    <g id="xtick_6">
     <g id="line2d_11">
      <path clip-path="url(#pcd9fdc4572)" d="M 777.6 448.56 
L 777.6 60.48 
" style="fill:none;stroke:#b0b0b0;stroke-linecap:square;stroke-width:0.8;"/>
     </g>
     <g id="line2d_12">
      <g>
       <use style="stroke:#000000;stroke-width:0.8;" x="777.6" xlink:href="#m366a34cd2d" y="448.56"/>
      </g>
     </g>
     <g id="text_6">
      <!-- 50 -->
      <g transform="translate(771.2375 463.158437)scale(0.1 -0.1)">
       <defs>
        <path d="M 10.796875 72.90625 
L 49.515625 72.90625 
L 49.515625 64.59375 
L 19.828125 64.59375 
L 19.828125 46.734375 
Q 21.96875 47.46875 24.109375 47.828125 
Q 26.265625 48.1875 28.421875 48.1875 
Q 40.625 48.1875 47.75 41.5 
Q 54.890625 34.8125 54.890625 23.390625 
Q 54.890625 11.625 47.5625 5.09375 
Q 40.234375 -1.421875 26.90625 -1.421875 
Q 22.3125 -1.421875 17.546875 -0.640625 
Q 12.796875 0.140625 7.71875 1.703125 
L 7.71875 11.625 
Q 12.109375 9.234375 16.796875 8.0625 
Q 21.484375 6.890625 26.703125 6.890625 
Q 35.15625 6.890625 40.078125 11.328125 
Q 45.015625 15.765625 45.015625 23.390625 
Q 45.015625 31 40.078125 35.4375 
Q 35.15625 39.890625 26.703125 39.890625 
Q 22.75 39.890625 18.8125 39.015625 
Q 14.890625 38.140625 10.796875 36.28125 
z
" id="DejaVuSans-53"/>
       </defs>
       <use xlink:href="#DejaVuSans-53"/>
       <use x="63.623047" xlink:href="#DejaVuSans-48"/>
      </g>
     </g>
    </g>
    <g id="text_7">
     <!-- Pellet Price -->
     <g transform="translate(415.288281 476.836563)scale(0.1 -0.1)">
      <defs>
       <path d="M 19.671875 64.796875 
L 19.671875 37.40625 
L 32.078125 37.40625 
Q 38.96875 37.40625 42.71875 40.96875 
Q 46.484375 44.53125 46.484375 51.125 
Q 46.484375 57.671875 42.71875 61.234375 
Q 38.96875 64.796875 32.078125 64.796875 
z
M 9.8125 72.90625 
L 32.078125 72.90625 
Q 44.34375 72.90625 50.609375 67.359375 
Q 56.890625 61.8125 56.890625 51.125 
Q 56.890625 40.328125 50.609375 34.8125 
Q 44.34375 29.296875 32.078125 29.296875 
L 19.671875 29.296875 
L 19.671875 0 
L 9.8125 0 
z
" id="DejaVuSans-80"/>
       <path d="M 56.203125 29.59375 
L 56.203125 25.203125 
L 14.890625 25.203125 
Q 15.484375 15.921875 20.484375 11.0625 
Q 25.484375 6.203125 34.421875 6.203125 
Q 39.59375 6.203125 44.453125 7.46875 
Q 49.3125 8.734375 54.109375 11.28125 
L 54.109375 2.78125 
Q 49.265625 0.734375 44.1875 -0.34375 
Q 39.109375 -1.421875 33.890625 -1.421875 
Q 20.796875 -1.421875 13.15625 6.1875 
Q 5.515625 13.8125 5.515625 26.8125 
Q 5.515625 40.234375 12.765625 48.109375 
Q 20.015625 56 32.328125 56 
Q 43.359375 56 49.78125 48.890625 
Q 56.203125 41.796875 56.203125 29.59375 
z
M 47.21875 32.234375 
Q 47.125 39.59375 43.09375 43.984375 
Q 39.0625 48.390625 32.421875 48.390625 
Q 24.90625 48.390625 20.390625 44.140625 
Q 15.875 39.890625 15.1875 32.171875 
z
" id="DejaVuSans-101"/>
       <path d="M 9.421875 75.984375 
L 18.40625 75.984375 
L 18.40625 0 
L 9.421875 0 
z
" id="DejaVuSans-108"/>
       <path d="M 18.3125 70.21875 
L 18.3125 54.6875 
L 36.8125 54.6875 
L 36.8125 47.703125 
L 18.3125 47.703125 
L 18.3125 18.015625 
Q 18.3125 11.328125 20.140625 9.421875 
Q 21.96875 7.515625 27.59375 7.515625 
L 36.8125 7.515625 
L 36.8125 0 
L 27.59375 0 
Q 17.1875 0 13.234375 3.875 
Q 9.28125 7.765625 9.28125 18.015625 
L 9.28125 47.703125 
L 2.6875 47.703125 
L 2.6875 54.6875 
L 9.28125 54.6875 
L 9.28125 70.21875 
z
" id="DejaVuSans-116"/>
       <path id="DejaVuSans-32"/>
       <path d="M 41.109375 46.296875 
Q 39.59375 47.171875 37.8125 47.578125 
Q 36.03125 48 33.890625 48 
Q 26.265625 48 22.1875 43.046875 
Q 18.109375 38.09375 18.109375 28.8125 
L 18.109375 0 
L 9.078125 0 
L 9.078125 54.6875 
L 18.109375 54.6875 
L 18.109375 46.1875 
Q 20.953125 51.171875 25.484375 53.578125 
Q 30.03125 56 36.53125 56 
Q 37.453125 56 38.578125 55.875 
Q 39.703125 55.765625 41.0625 55.515625 
z
" id="DejaVuSans-114"/>
       <path d="M 9.421875 54.6875 
L 18.40625 54.6875 
L 18.40625 0 
L 9.421875 0 
z
M 9.421875 75.984375 
L 18.40625 75.984375 
L 18.40625 64.59375 
L 9.421875 64.59375 
z
" id="DejaVuSans-105"/>
       <path d="M 48.78125 52.59375 
L 48.78125 44.1875 
Q 44.96875 46.296875 41.140625 47.34375 
Q 37.3125 48.390625 33.40625 48.390625 
Q 24.65625 48.390625 19.8125 42.84375 
Q 14.984375 37.3125 14.984375 27.296875 
Q 14.984375 17.28125 19.8125 11.734375 
Q 24.65625 6.203125 33.40625 6.203125 
Q 37.3125 6.203125 41.140625 7.25 
Q 44.96875 8.296875 48.78125 10.40625 
L 48.78125 2.09375 
Q 45.015625 0.34375 40.984375 -0.53125 
Q 36.96875 -1.421875 32.421875 -1.421875 
Q 20.0625 -1.421875 12.78125 6.34375 
Q 5.515625 14.109375 5.515625 27.296875 
Q 5.515625 40.671875 12.859375 48.328125 
Q 20.21875 56 33.015625 56 
Q 37.15625 56 41.109375 55.140625 
Q 45.0625 54.296875 48.78125 52.59375 
z
" id="DejaVuSans-99"/>
      </defs>
      <use xlink:href="#DejaVuSans-80"/>
      <use x="56.677734" xlink:href="#DejaVuSans-101"/>
      <use x="118.201172" xlink:href="#DejaVuSans-108"/>
      <use x="145.984375" xlink:href="#DejaVuSans-108"/>
      <use x="173.767578" xlink:href="#DejaVuSans-101"/>
      <use x="235.291016" xlink:href="#DejaVuSans-116"/>
      <use x="274.5" xlink:href="#DejaVuSans-32"/>
      <use x="306.287109" xlink:href="#DejaVuSans-80"/>
      <use x="364.839844" xlink:href="#DejaVuSans-114"/>
      <use x="405.953125" xlink:href="#DejaVuSans-105"/>
      <use x="433.736328" xlink:href="#DejaVuSans-99"/>
      <use x="488.716797" xlink:href="#DejaVuSans-101"/>
     </g>
    </g>
   </g>
   <g id="matplotlib.axis_2">
    <g id="ytick_1">
     <g id="line2d_13">
      <path clip-path="url(#pcd9fdc4572)" d="M 108 448.56 
L 777.6 448.56 
" style="fill:none;stroke:#b0b0b0;stroke-linecap:square;stroke-width:0.8;"/>
     </g>
     <g id="line2d_14">
      <defs>
       <path d="M 0 0 
L -3.5 0 
" id="ma788ce108b" style="stroke:#000000;stroke-width:0.8;"/>
      </defs>
      <g>
       <use style="stroke:#000000;stroke-width:0.8;" x="108" xlink:href="#ma788ce108b" y="448.56"/>
      </g>
     </g>
     <g id="text_8">
      <!-- 0.00 -->
      <g transform="translate(78.734375 452.359219)scale(0.1 -0.1)">
       <defs>
        <path d="M 10.6875 12.40625 
L 21 12.40625 
L 21 0 
L 10.6875 0 
z
" id="DejaVuSans-46"/>
       </defs>
       <use xlink:href="#DejaVuSans-48"/>
       <use x="63.623047" xlink:href="#DejaVuSans-46"/>
       <use x="95.410156" xlink:href="#DejaVuSans-48"/>
       <use x="159.033203" xlink:href="#DejaVuSans-48"/>
      </g>
     </g>
    </g>
    <g id="ytick_2">
     <g id="line2d_15">
      <path clip-path="url(#pcd9fdc4572)" d="M 108 404.630765 
L 777.6 404.630765 
" style="fill:none;stroke:#b0b0b0;stroke-linecap:square;stroke-width:0.8;"/>
     </g>
     <g id="line2d_16">
      <g>
       <use style="stroke:#000000;stroke-width:0.8;" x="108" xlink:href="#ma788ce108b" y="404.630765"/>
      </g>
     </g>
     <g id="text_9">
      <!-- 0.02 -->
      <g transform="translate(78.734375 408.429984)scale(0.1 -0.1)">
       <use xlink:href="#DejaVuSans-48"/>
       <use x="63.623047" xlink:href="#DejaVuSans-46"/>
       <use x="95.410156" xlink:href="#DejaVuSans-48"/>
       <use x="159.033203" xlink:href="#DejaVuSans-50"/>
      </g>
     </g>
    </g>
    <g id="ytick_3">
     <g id="line2d_17">
      <path clip-path="url(#pcd9fdc4572)" d="M 108 360.701531 
L 777.6 360.701531 
" style="fill:none;stroke:#b0b0b0;stroke-linecap:square;stroke-width:0.8;"/>
     </g>
     <g id="line2d_18">
      <g>
       <use style="stroke:#000000;stroke-width:0.8;" x="108" xlink:href="#ma788ce108b" y="360.701531"/>
      </g>
     </g>
     <g id="text_10">
      <!-- 0.04 -->
      <g transform="translate(78.734375 364.500749)scale(0.1 -0.1)">
       <use xlink:href="#DejaVuSans-48"/>
       <use x="63.623047" xlink:href="#DejaVuSans-46"/>
       <use x="95.410156" xlink:href="#DejaVuSans-48"/>
       <use x="159.033203" xlink:href="#DejaVuSans-52"/>
      </g>
     </g>
    </g>
    <g id="ytick_4">
     <g id="line2d_19">
      <path clip-path="url(#pcd9fdc4572)" d="M 108 316.772296 
L 777.6 316.772296 
" style="fill:none;stroke:#b0b0b0;stroke-linecap:square;stroke-width:0.8;"/>
     </g>
     <g id="line2d_20">
      <g>
       <use style="stroke:#000000;stroke-width:0.8;" x="108" xlink:href="#ma788ce108b" y="316.772296"/>
      </g>
     </g>
     <g id="text_11">
      <!-- 0.06 -->
      <g transform="translate(78.734375 320.571515)scale(0.1 -0.1)">
       <defs>
        <path d="M 33.015625 40.375 
Q 26.375 40.375 22.484375 35.828125 
Q 18.609375 31.296875 18.609375 23.390625 
Q 18.609375 15.53125 22.484375 10.953125 
Q 26.375 6.390625 33.015625 6.390625 
Q 39.65625 6.390625 43.53125 10.953125 
Q 47.40625 15.53125 47.40625 23.390625 
Q 47.40625 31.296875 43.53125 35.828125 
Q 39.65625 40.375 33.015625 40.375 
z
M 52.59375 71.296875 
L 52.59375 62.3125 
Q 48.875 64.0625 45.09375 64.984375 
Q 41.3125 65.921875 37.59375 65.921875 
Q 27.828125 65.921875 22.671875 59.328125 
Q 17.53125 52.734375 16.796875 39.40625 
Q 19.671875 43.65625 24.015625 45.921875 
Q 28.375 48.1875 33.59375 48.1875 
Q 44.578125 48.1875 50.953125 41.515625 
Q 57.328125 34.859375 57.328125 23.390625 
Q 57.328125 12.15625 50.6875 5.359375 
Q 44.046875 -1.421875 33.015625 -1.421875 
Q 20.359375 -1.421875 13.671875 8.265625 
Q 6.984375 17.96875 6.984375 36.375 
Q 6.984375 53.65625 15.1875 63.9375 
Q 23.390625 74.21875 37.203125 74.21875 
Q 40.921875 74.21875 44.703125 73.484375 
Q 48.484375 72.75 52.59375 71.296875 
z
" id="DejaVuSans-54"/>
       </defs>
       <use xlink:href="#DejaVuSans-48"/>
       <use x="63.623047" xlink:href="#DejaVuSans-46"/>
       <use x="95.410156" xlink:href="#DejaVuSans-48"/>
       <use x="159.033203" xlink:href="#DejaVuSans-54"/>
      </g>
     </g>
    </g>
    <g id="ytick_5">
     <g id="line2d_21">
      <path clip-path="url(#pcd9fdc4572)" d="M 108 272.843061 
L 777.6 272.843061 
" style="fill:none;stroke:#b0b0b0;stroke-linecap:square;stroke-width:0.8;"/>
     </g>
     <g id="line2d_22">
      <g>
       <use style="stroke:#000000;stroke-width:0.8;" x="108" xlink:href="#ma788ce108b" y="272.843061"/>
      </g>
     </g>
     <g id="text_12">
      <!-- 0.08 -->
      <g transform="translate(78.734375 276.64228)scale(0.1 -0.1)">
       <defs>
        <path d="M 31.78125 34.625 
Q 24.75 34.625 20.71875 30.859375 
Q 16.703125 27.09375 16.703125 20.515625 
Q 16.703125 13.921875 20.71875 10.15625 
Q 24.75 6.390625 31.78125 6.390625 
Q 38.8125 6.390625 42.859375 10.171875 
Q 46.921875 13.96875 46.921875 20.515625 
Q 46.921875 27.09375 42.890625 30.859375 
Q 38.875 34.625 31.78125 34.625 
z
M 21.921875 38.8125 
Q 15.578125 40.375 12.03125 44.71875 
Q 8.5 49.078125 8.5 55.328125 
Q 8.5 64.0625 14.71875 69.140625 
Q 20.953125 74.21875 31.78125 74.21875 
Q 42.671875 74.21875 48.875 69.140625 
Q 55.078125 64.0625 55.078125 55.328125 
Q 55.078125 49.078125 51.53125 44.71875 
Q 48 40.375 41.703125 38.8125 
Q 48.828125 37.15625 52.796875 32.3125 
Q 56.78125 27.484375 56.78125 20.515625 
Q 56.78125 9.90625 50.3125 4.234375 
Q 43.84375 -1.421875 31.78125 -1.421875 
Q 19.734375 -1.421875 13.25 4.234375 
Q 6.78125 9.90625 6.78125 20.515625 
Q 6.78125 27.484375 10.78125 32.3125 
Q 14.796875 37.15625 21.921875 38.8125 
z
M 18.3125 54.390625 
Q 18.3125 48.734375 21.84375 45.5625 
Q 25.390625 42.390625 31.78125 42.390625 
Q 38.140625 42.390625 41.71875 45.5625 
Q 45.3125 48.734375 45.3125 54.390625 
Q 45.3125 60.0625 41.71875 63.234375 
Q 38.140625 66.40625 31.78125 66.40625 
Q 25.390625 66.40625 21.84375 63.234375 
Q 18.3125 60.0625 18.3125 54.390625 
z
" id="DejaVuSans-56"/>
       </defs>
       <use xlink:href="#DejaVuSans-48"/>
       <use x="63.623047" xlink:href="#DejaVuSans-46"/>
       <use x="95.410156" xlink:href="#DejaVuSans-48"/>
       <use x="159.033203" xlink:href="#DejaVuSans-56"/>
      </g>
     </g>
    </g>
    <g id="ytick_6">
     <g id="line2d_23">
      <path clip-path="url(#pcd9fdc4572)" d="M 108 228.913827 
L 777.6 228.913827 
" style="fill:none;stroke:#b0b0b0;stroke-linecap:square;stroke-width:0.8;"/>
     </g>
     <g id="line2d_24">
      <g>
       <use style="stroke:#000000;stroke-width:0.8;" x="108" xlink:href="#ma788ce108b" y="228.913827"/>
      </g>
     </g>
     <g id="text_13">
      <!-- 0.10 -->
      <g transform="translate(78.734375 232.713045)scale(0.1 -0.1)">
       <use xlink:href="#DejaVuSans-48"/>
       <use x="63.623047" xlink:href="#DejaVuSans-46"/>
       <use x="95.410156" xlink:href="#DejaVuSans-49"/>
       <use x="159.033203" xlink:href="#DejaVuSans-48"/>
      </g>
     </g>
    </g>
    <g id="ytick_7">
     <g id="line2d_25">
      <path clip-path="url(#pcd9fdc4572)" d="M 108 184.984592 
L 777.6 184.984592 
" style="fill:none;stroke:#b0b0b0;stroke-linecap:square;stroke-width:0.8;"/>
     </g>
     <g id="line2d_26">
      <g>
       <use style="stroke:#000000;stroke-width:0.8;" x="108" xlink:href="#ma788ce108b" y="184.984592"/>
      </g>
     </g>
     <g id="text_14">
      <!-- 0.12 -->
      <g transform="translate(78.734375 188.783811)scale(0.1 -0.1)">
       <use xlink:href="#DejaVuSans-48"/>
       <use x="63.623047" xlink:href="#DejaVuSans-46"/>
       <use x="95.410156" xlink:href="#DejaVuSans-49"/>
       <use x="159.033203" xlink:href="#DejaVuSans-50"/>
      </g>
     </g>
    </g>
    <g id="ytick_8">
     <g id="line2d_27">
      <path clip-path="url(#pcd9fdc4572)" d="M 108 141.055357 
L 777.6 141.055357 
" style="fill:none;stroke:#b0b0b0;stroke-linecap:square;stroke-width:0.8;"/>
     </g>
     <g id="line2d_28">
      <g>
       <use style="stroke:#000000;stroke-width:0.8;" x="108" xlink:href="#ma788ce108b" y="141.055357"/>
      </g>
     </g>
     <g id="text_15">
      <!-- 0.14 -->
      <g transform="translate(78.734375 144.854576)scale(0.1 -0.1)">
       <use xlink:href="#DejaVuSans-48"/>
       <use x="63.623047" xlink:href="#DejaVuSans-46"/>
       <use x="95.410156" xlink:href="#DejaVuSans-49"/>
       <use x="159.033203" xlink:href="#DejaVuSans-52"/>
      </g>
     </g>
    </g>
    <g id="ytick_9">
     <g id="line2d_29">
      <path clip-path="url(#pcd9fdc4572)" d="M 108 97.126123 
L 777.6 97.126123 
" style="fill:none;stroke:#b0b0b0;stroke-linecap:square;stroke-width:0.8;"/>
     </g>
     <g id="line2d_30">
      <g>
       <use style="stroke:#000000;stroke-width:0.8;" x="108" xlink:href="#ma788ce108b" y="97.126123"/>
      </g>
     </g>
     <g id="text_16">
      <!-- 0.16 -->
      <g transform="translate(78.734375 100.925342)scale(0.1 -0.1)">
       <use xlink:href="#DejaVuSans-48"/>
       <use x="63.623047" xlink:href="#DejaVuSans-46"/>
       <use x="95.410156" xlink:href="#DejaVuSans-49"/>
       <use x="159.033203" xlink:href="#DejaVuSans-54"/>
      </g>
     </g>
    </g>
    <g id="text_17">
     <!-- Average Frequency -->
     <g transform="translate(72.654687 302.471563)rotate(-90)scale(0.1 -0.1)">
      <defs>
       <path d="M 34.1875 63.1875 
L 20.796875 26.90625 
L 47.609375 26.90625 
z
M 28.609375 72.90625 
L 39.796875 72.90625 
L 67.578125 0 
L 57.328125 0 
L 50.6875 18.703125 
L 17.828125 18.703125 
L 11.1875 0 
L 0.78125 0 
z
" id="DejaVuSans-65"/>
       <path d="M 2.984375 54.6875 
L 12.5 54.6875 
L 29.59375 8.796875 
L 46.6875 54.6875 
L 56.203125 54.6875 
L 35.6875 0 
L 23.484375 0 
z
" id="DejaVuSans-118"/>
       <path d="M 34.28125 27.484375 
Q 23.390625 27.484375 19.1875 25 
Q 14.984375 22.515625 14.984375 16.5 
Q 14.984375 11.71875 18.140625 8.90625 
Q 21.296875 6.109375 26.703125 6.109375 
Q 34.1875 6.109375 38.703125 11.40625 
Q 43.21875 16.703125 43.21875 25.484375 
L 43.21875 27.484375 
z
M 52.203125 31.203125 
L 52.203125 0 
L 43.21875 0 
L 43.21875 8.296875 
Q 40.140625 3.328125 35.546875 0.953125 
Q 30.953125 -1.421875 24.3125 -1.421875 
Q 15.921875 -1.421875 10.953125 3.296875 
Q 6 8.015625 6 15.921875 
Q 6 25.140625 12.171875 29.828125 
Q 18.359375 34.515625 30.609375 34.515625 
L 43.21875 34.515625 
L 43.21875 35.40625 
Q 43.21875 41.609375 39.140625 45 
Q 35.0625 48.390625 27.6875 48.390625 
Q 23 48.390625 18.546875 47.265625 
Q 14.109375 46.140625 10.015625 43.890625 
L 10.015625 52.203125 
Q 14.9375 54.109375 19.578125 55.046875 
Q 24.21875 56 28.609375 56 
Q 40.484375 56 46.34375 49.84375 
Q 52.203125 43.703125 52.203125 31.203125 
z
" id="DejaVuSans-97"/>
       <path d="M 45.40625 27.984375 
Q 45.40625 37.75 41.375 43.109375 
Q 37.359375 48.484375 30.078125 48.484375 
Q 22.859375 48.484375 18.828125 43.109375 
Q 14.796875 37.75 14.796875 27.984375 
Q 14.796875 18.265625 18.828125 12.890625 
Q 22.859375 7.515625 30.078125 7.515625 
Q 37.359375 7.515625 41.375 12.890625 
Q 45.40625 18.265625 45.40625 27.984375 
z
M 54.390625 6.78125 
Q 54.390625 -7.171875 48.1875 -13.984375 
Q 42 -20.796875 29.203125 -20.796875 
Q 24.46875 -20.796875 20.265625 -20.09375 
Q 16.0625 -19.390625 12.109375 -17.921875 
L 12.109375 -9.1875 
Q 16.0625 -11.328125 19.921875 -12.34375 
Q 23.78125 -13.375 27.78125 -13.375 
Q 36.625 -13.375 41.015625 -8.765625 
Q 45.40625 -4.15625 45.40625 5.171875 
L 45.40625 9.625 
Q 42.625 4.78125 38.28125 2.390625 
Q 33.9375 0 27.875 0 
Q 17.828125 0 11.671875 7.65625 
Q 5.515625 15.328125 5.515625 27.984375 
Q 5.515625 40.671875 11.671875 48.328125 
Q 17.828125 56 27.875 56 
Q 33.9375 56 38.28125 53.609375 
Q 42.625 51.21875 45.40625 46.390625 
L 45.40625 54.6875 
L 54.390625 54.6875 
z
" id="DejaVuSans-103"/>
       <path d="M 9.8125 72.90625 
L 51.703125 72.90625 
L 51.703125 64.59375 
L 19.671875 64.59375 
L 19.671875 43.109375 
L 48.578125 43.109375 
L 48.578125 34.8125 
L 19.671875 34.8125 
L 19.671875 0 
L 9.8125 0 
z
" id="DejaVuSans-70"/>
       <path d="M 14.796875 27.296875 
Q 14.796875 17.390625 18.875 11.75 
Q 22.953125 6.109375 30.078125 6.109375 
Q 37.203125 6.109375 41.296875 11.75 
Q 45.40625 17.390625 45.40625 27.296875 
Q 45.40625 37.203125 41.296875 42.84375 
Q 37.203125 48.484375 30.078125 48.484375 
Q 22.953125 48.484375 18.875 42.84375 
Q 14.796875 37.203125 14.796875 27.296875 
z
M 45.40625 8.203125 
Q 42.578125 3.328125 38.25 0.953125 
Q 33.9375 -1.421875 27.875 -1.421875 
Q 17.96875 -1.421875 11.734375 6.484375 
Q 5.515625 14.40625 5.515625 27.296875 
Q 5.515625 40.1875 11.734375 48.09375 
Q 17.96875 56 27.875 56 
Q 33.9375 56 38.25 53.625 
Q 42.578125 51.265625 45.40625 46.390625 
L 45.40625 54.6875 
L 54.390625 54.6875 
L 54.390625 -20.796875 
L 45.40625 -20.796875 
z
" id="DejaVuSans-113"/>
       <path d="M 8.5 21.578125 
L 8.5 54.6875 
L 17.484375 54.6875 
L 17.484375 21.921875 
Q 17.484375 14.15625 20.5 10.265625 
Q 23.53125 6.390625 29.59375 6.390625 
Q 36.859375 6.390625 41.078125 11.03125 
Q 45.3125 15.671875 45.3125 23.6875 
L 45.3125 54.6875 
L 54.296875 54.6875 
L 54.296875 0 
L 45.3125 0 
L 45.3125 8.40625 
Q 42.046875 3.421875 37.71875 1 
Q 33.40625 -1.421875 27.6875 -1.421875 
Q 18.265625 -1.421875 13.375 4.4375 
Q 8.5 10.296875 8.5 21.578125 
z
M 31.109375 56 
z
" id="DejaVuSans-117"/>
       <path d="M 54.890625 33.015625 
L 54.890625 0 
L 45.90625 0 
L 45.90625 32.71875 
Q 45.90625 40.484375 42.875 44.328125 
Q 39.84375 48.1875 33.796875 48.1875 
Q 26.515625 48.1875 22.3125 43.546875 
Q 18.109375 38.921875 18.109375 30.90625 
L 18.109375 0 
L 9.078125 0 
L 9.078125 54.6875 
L 18.109375 54.6875 
L 18.109375 46.1875 
Q 21.34375 51.125 25.703125 53.5625 
Q 30.078125 56 35.796875 56 
Q 45.21875 56 50.046875 50.171875 
Q 54.890625 44.34375 54.890625 33.015625 
z
" id="DejaVuSans-110"/>
       <path d="M 32.171875 -5.078125 
Q 28.375 -14.84375 24.75 -17.8125 
Q 21.140625 -20.796875 15.09375 -20.796875 
L 7.90625 -20.796875 
L 7.90625 -13.28125 
L 13.1875 -13.28125 
Q 16.890625 -13.28125 18.9375 -11.515625 
Q 21 -9.765625 23.484375 -3.21875 
L 25.09375 0.875 
L 2.984375 54.6875 
L 12.5 54.6875 
L 29.59375 11.921875 
L 46.6875 54.6875 
L 56.203125 54.6875 
z
" id="DejaVuSans-121"/>
      </defs>
      <use xlink:href="#DejaVuSans-65"/>
      <use x="62.533203" xlink:href="#DejaVuSans-118"/>
      <use x="121.712891" xlink:href="#DejaVuSans-101"/>
      <use x="183.236328" xlink:href="#DejaVuSans-114"/>
      <use x="224.349609" xlink:href="#DejaVuSans-97"/>
      <use x="285.628906" xlink:href="#DejaVuSans-103"/>
      <use x="349.105469" xlink:href="#DejaVuSans-101"/>
      <use x="410.628906" xlink:href="#DejaVuSans-32"/>
      <use x="442.416016" xlink:href="#DejaVuSans-70"/>
      <use x="492.685547" xlink:href="#DejaVuSans-114"/>
      <use x="531.548828" xlink:href="#DejaVuSans-101"/>
      <use x="593.072266" xlink:href="#DejaVuSans-113"/>
      <use x="656.548828" xlink:href="#DejaVuSans-117"/>
      <use x="719.927734" xlink:href="#DejaVuSans-101"/>
      <use x="781.451172" xlink:href="#DejaVuSans-110"/>
      <use x="844.830078" xlink:href="#DejaVuSans-99"/>
      <use x="899.810547" xlink:href="#DejaVuSans-121"/>
     </g>
    </g>
   </g>
   <g id="line2d_31">
    <path clip-path="url(#pcd9fdc4572)" d="M 92.36744 446.721655 
L 95.62019 443.780008 
L 98.872939 437.437026 
L 102.125689 425.369056 
L 105.378438 405.157819 
L 108.631187 375.444147 
L 111.883937 337.225704 
L 118.389435 252.844183 
L 121.642185 218.364644 
L 124.894934 194.754589 
L 128.147683 183.204788 
L 131.400433 183.00251 
L 134.653182 192.455089 
L 137.905931 209.212745 
L 141.158681 230.222699 
L 144.41143 252.023948 
L 147.664179 271.551368 
L 150.916929 286.936876 
L 154.169678 297.783192 
L 157.422427 304.846492 
L 160.675177 309.407386 
L 163.927926 312.667988 
L 170.433425 318.061008 
L 176.938923 323.511762 
L 193.20267 337.605276 
L 199.708169 342.828149 
L 206.213667 347.659434 
L 212.719166 352.181177 
L 225.730164 360.896638 
L 235.488412 367.08719 
L 245.24666 372.848297 
L 251.752158 376.479187 
L 258.257657 379.902072 
L 264.763156 383.048531 
L 271.268654 385.826732 
L 281.026902 389.784975 
L 287.532401 392.741926 
L 294.0379 395.714837 
L 297.290649 397.045852 
L 300.543398 398.227348 
L 303.796148 399.252147 
L 310.301646 400.940079 
L 320.059894 403.313099 
L 323.312644 404.271155 
L 329.818142 406.521738 
L 339.57639 409.978478 
L 346.081889 411.990557 
L 355.840137 414.670481 
L 362.345636 416.219159 
L 372.103884 418.20176 
L 391.62038 421.975738 
L 398.125879 422.817556 
L 407.884127 423.673998 
L 417.642375 424.498757 
L 424.147873 425.24651 
L 430.653372 426.170988 
L 440.41162 427.869535 
L 456.675367 430.987294 
L 463.180865 431.945424 
L 469.686364 432.629505 
L 482.697362 433.704047 
L 489.20286 434.50707 
L 508.719356 437.322537 
L 515.224855 438.016199 
L 524.983103 438.826937 
L 537.9941 439.662447 
L 551.005098 440.449509 
L 599.796338 444.468616 
L 609.554586 445.13398 
L 622.565583 446.057606 
L 632.323831 446.511718 
L 648.587578 446.970582 
L 726.653562 448.508602 
L 739.66456 448.557891 
L 739.66456 448.557891 
" style="fill:none;stroke:#0000ff;stroke-dasharray:5.55,2.4;stroke-dashoffset:0;stroke-width:1.5;"/>
   </g>
   <g id="line2d_32">
    <path clip-path="url(#pcd9fdc4572)" d="M 98.328347 445.645495 
L 101.184705 440.259432 
L 104.041064 427.948779 
L 106.897422 403.9002 
L 109.75378 363.986433 
L 112.610139 308.168339 
L 115.466497 243.16694 
L 118.322855 181.194568 
L 121.179214 134.004814 
L 124.035572 106.403052 
L 126.89193 95.180701 
L 129.748289 94.556666 
L 132.604647 102.229681 
L 135.461005 119.660879 
L 138.317364 147.274147 
L 144.03008 214.298768 
L 146.886439 242.049929 
L 149.742797 262.711358 
L 152.599155 276.835972 
L 155.455514 285.609906 
L 158.311872 290.747414 
L 161.16823 294.456723 
L 164.024589 298.356974 
L 166.880947 302.549687 
L 169.737305 306.308784 
L 172.593663 309.550753 
L 175.450022 313.069569 
L 178.30638 317.354502 
L 181.162738 321.855606 
L 184.019097 325.769406 
L 189.731813 332.471052 
L 192.588172 336.030895 
L 195.44453 339.276042 
L 198.300888 341.901468 
L 201.157247 344.370582 
L 204.013605 347.288488 
L 206.869963 350.55403 
L 209.726322 353.566183 
L 215.439038 358.701889 
L 221.151755 364.621238 
L 224.008113 367.186513 
L 229.72083 371.491618 
L 232.577188 373.791921 
L 235.433547 375.884446 
L 238.289905 377.484732 
L 244.002621 380.20816 
L 246.85898 381.661334 
L 249.715338 382.84334 
L 255.428055 384.672624 
L 258.284413 385.981664 
L 261.140771 387.437248 
L 263.99713 388.672804 
L 269.709846 390.82308 
L 275.422563 393.472298 
L 283.991638 396.594975 
L 289.704355 399.169091 
L 298.27343 402.248954 
L 301.129788 403.447347 
L 303.986146 404.472077 
L 309.698863 406.33293 
L 315.411579 408.793372 
L 318.267938 409.836008 
L 323.980654 411.644492 
L 326.837013 412.617347 
L 329.693371 413.466431 
L 335.406088 414.768313 
L 346.831521 417.873598 
L 352.544238 419.307192 
L 355.400596 420.07292 
L 372.538746 423.734213 
L 375.395104 424.263426 
L 381.107821 425.645108 
L 395.389612 429.161471 
L 398.245971 429.87571 
L 406.815046 431.605738 
L 412.527762 432.492071 
L 418.240479 433.296204 
L 423.953196 434.256598 
L 458.229495 439.086871 
L 463.942212 439.98906 
L 469.654929 440.65482 
L 475.367645 441.148275 
L 498.218512 442.548368 
L 506.787587 443.133564 
L 523.925737 444.15908 
L 549.632962 446.514544 
L 558.202037 446.74665 
L 563.914753 446.878655 
L 586.76562 447.849083 
L 598.191053 447.94499 
L 621.04192 448.054498 
L 635.323711 448.246396 
L 649.605503 448.392849 
L 663.887295 448.553262 
L 666.743653 448.557634 
L 666.743653 448.557634 
" style="fill:none;stroke:#ff0000;stroke-dasharray:5.55,2.4;stroke-dashoffset:0;stroke-width:1.5;"/>
   </g>
   <g id="patch_88">
    <path d="M 108 448.56 
L 108 60.48 
" style="fill:none;stroke:#000000;stroke-linecap:square;stroke-linejoin:miter;stroke-width:0.8;"/>
   </g>
   <g id="patch_89">
    <path d="M 777.6 448.56 
L 777.6 60.48 
" style="fill:none;stroke:#000000;stroke-linecap:square;stroke-linejoin:miter;stroke-width:0.8;"/>
   </g>
   <g id="patch_90">
    <path d="M 108 448.56 
L 777.6 448.56 
" style="fill:none;stroke:#000000;stroke-linecap:square;stroke-linejoin:miter;stroke-width:0.8;"/>
   </g>
   <g id="patch_91">
    <path d="M 108 60.48 
L 777.6 60.48 
" style="fill:none;stroke:#000000;stroke-linecap:square;stroke-linejoin:miter;stroke-width:0.8;"/>
   </g>
   <g id="text_18">
    <!-- Average Normalized Histograms and KDE of Pellet Price -->
    <g transform="translate(276.010313 54.48)scale(0.12 -0.12)">
     <defs>
      <path d="M 9.8125 72.90625 
L 23.09375 72.90625 
L 55.421875 11.921875 
L 55.421875 72.90625 
L 64.984375 72.90625 
L 64.984375 0 
L 51.703125 0 
L 19.390625 60.984375 
L 19.390625 0 
L 9.8125 0 
z
" id="DejaVuSans-78"/>
      <path d="M 30.609375 48.390625 
Q 23.390625 48.390625 19.1875 42.75 
Q 14.984375 37.109375 14.984375 27.296875 
Q 14.984375 17.484375 19.15625 11.84375 
Q 23.34375 6.203125 30.609375 6.203125 
Q 37.796875 6.203125 41.984375 11.859375 
Q 46.1875 17.53125 46.1875 27.296875 
Q 46.1875 37.015625 41.984375 42.703125 
Q 37.796875 48.390625 30.609375 48.390625 
z
M 30.609375 56 
Q 42.328125 56 49.015625 48.375 
Q 55.71875 40.765625 55.71875 27.296875 
Q 55.71875 13.875 49.015625 6.21875 
Q 42.328125 -1.421875 30.609375 -1.421875 
Q 18.84375 -1.421875 12.171875 6.21875 
Q 5.515625 13.875 5.515625 27.296875 
Q 5.515625 40.765625 12.171875 48.375 
Q 18.84375 56 30.609375 56 
z
" id="DejaVuSans-111"/>
      <path d="M 52 44.1875 
Q 55.375 50.25 60.0625 53.125 
Q 64.75 56 71.09375 56 
Q 79.640625 56 84.28125 50.015625 
Q 88.921875 44.046875 88.921875 33.015625 
L 88.921875 0 
L 79.890625 0 
L 79.890625 32.71875 
Q 79.890625 40.578125 77.09375 44.375 
Q 74.3125 48.1875 68.609375 48.1875 
Q 61.625 48.1875 57.5625 43.546875 
Q 53.515625 38.921875 53.515625 30.90625 
L 53.515625 0 
L 44.484375 0 
L 44.484375 32.71875 
Q 44.484375 40.625 41.703125 44.40625 
Q 38.921875 48.1875 33.109375 48.1875 
Q 26.21875 48.1875 22.15625 43.53125 
Q 18.109375 38.875 18.109375 30.90625 
L 18.109375 0 
L 9.078125 0 
L 9.078125 54.6875 
L 18.109375 54.6875 
L 18.109375 46.1875 
Q 21.1875 51.21875 25.484375 53.609375 
Q 29.78125 56 35.6875 56 
Q 41.65625 56 45.828125 52.96875 
Q 50 49.953125 52 44.1875 
z
" id="DejaVuSans-109"/>
      <path d="M 5.515625 54.6875 
L 48.1875 54.6875 
L 48.1875 46.484375 
L 14.40625 7.171875 
L 48.1875 7.171875 
L 48.1875 0 
L 4.296875 0 
L 4.296875 8.203125 
L 38.09375 47.515625 
L 5.515625 47.515625 
z
" id="DejaVuSans-122"/>
      <path d="M 45.40625 46.390625 
L 45.40625 75.984375 
L 54.390625 75.984375 
L 54.390625 0 
L 45.40625 0 
L 45.40625 8.203125 
Q 42.578125 3.328125 38.25 0.953125 
Q 33.9375 -1.421875 27.875 -1.421875 
Q 17.96875 -1.421875 11.734375 6.484375 
Q 5.515625 14.40625 5.515625 27.296875 
Q 5.515625 40.1875 11.734375 48.09375 
Q 17.96875 56 27.875 56 
Q 33.9375 56 38.25 53.625 
Q 42.578125 51.265625 45.40625 46.390625 
z
M 14.796875 27.296875 
Q 14.796875 17.390625 18.875 11.75 
Q 22.953125 6.109375 30.078125 6.109375 
Q 37.203125 6.109375 41.296875 11.75 
Q 45.40625 17.390625 45.40625 27.296875 
Q 45.40625 37.203125 41.296875 42.84375 
Q 37.203125 48.484375 30.078125 48.484375 
Q 22.953125 48.484375 18.875 42.84375 
Q 14.796875 37.203125 14.796875 27.296875 
z
" id="DejaVuSans-100"/>
      <path d="M 9.8125 72.90625 
L 19.671875 72.90625 
L 19.671875 43.015625 
L 55.515625 43.015625 
L 55.515625 72.90625 
L 65.375 72.90625 
L 65.375 0 
L 55.515625 0 
L 55.515625 34.71875 
L 19.671875 34.71875 
L 19.671875 0 
L 9.8125 0 
z
" id="DejaVuSans-72"/>
      <path d="M 44.28125 53.078125 
L 44.28125 44.578125 
Q 40.484375 46.53125 36.375 47.5 
Q 32.28125 48.484375 27.875 48.484375 
Q 21.1875 48.484375 17.84375 46.4375 
Q 14.5 44.390625 14.5 40.28125 
Q 14.5 37.15625 16.890625 35.375 
Q 19.28125 33.59375 26.515625 31.984375 
L 29.59375 31.296875 
Q 39.15625 29.25 43.1875 25.515625 
Q 47.21875 21.78125 47.21875 15.09375 
Q 47.21875 7.46875 41.1875 3.015625 
Q 35.15625 -1.421875 24.609375 -1.421875 
Q 20.21875 -1.421875 15.453125 -0.5625 
Q 10.6875 0.296875 5.421875 2 
L 5.421875 11.28125 
Q 10.40625 8.6875 15.234375 7.390625 
Q 20.0625 6.109375 24.8125 6.109375 
Q 31.15625 6.109375 34.5625 8.28125 
Q 37.984375 10.453125 37.984375 14.40625 
Q 37.984375 18.0625 35.515625 20.015625 
Q 33.0625 21.96875 24.703125 23.78125 
L 21.578125 24.515625 
Q 13.234375 26.265625 9.515625 29.90625 
Q 5.8125 33.546875 5.8125 39.890625 
Q 5.8125 47.609375 11.28125 51.796875 
Q 16.75 56 26.8125 56 
Q 31.78125 56 36.171875 55.265625 
Q 40.578125 54.546875 44.28125 53.078125 
z
" id="DejaVuSans-115"/>
      <path d="M 9.8125 72.90625 
L 19.671875 72.90625 
L 19.671875 42.09375 
L 52.390625 72.90625 
L 65.09375 72.90625 
L 28.90625 38.921875 
L 67.671875 0 
L 54.6875 0 
L 19.671875 35.109375 
L 19.671875 0 
L 9.8125 0 
z
" id="DejaVuSans-75"/>
      <path d="M 19.671875 64.796875 
L 19.671875 8.109375 
L 31.59375 8.109375 
Q 46.6875 8.109375 53.6875 14.9375 
Q 60.6875 21.78125 60.6875 36.53125 
Q 60.6875 51.171875 53.6875 57.984375 
Q 46.6875 64.796875 31.59375 64.796875 
z
M 9.8125 72.90625 
L 30.078125 72.90625 
Q 51.265625 72.90625 61.171875 64.09375 
Q 71.09375 55.28125 71.09375 36.53125 
Q 71.09375 17.671875 61.125 8.828125 
Q 51.171875 0 30.078125 0 
L 9.8125 0 
z
" id="DejaVuSans-68"/>
      <path d="M 9.8125 72.90625 
L 55.90625 72.90625 
L 55.90625 64.59375 
L 19.671875 64.59375 
L 19.671875 43.015625 
L 54.390625 43.015625 
L 54.390625 34.71875 
L 19.671875 34.71875 
L 19.671875 8.296875 
L 56.78125 8.296875 
L 56.78125 0 
L 9.8125 0 
z
" id="DejaVuSans-69"/>
      <path d="M 37.109375 75.984375 
L 37.109375 68.5 
L 28.515625 68.5 
Q 23.6875 68.5 21.796875 66.546875 
Q 19.921875 64.59375 19.921875 59.515625 
L 19.921875 54.6875 
L 34.71875 54.6875 
L 34.71875 47.703125 
L 19.921875 47.703125 
L 19.921875 0 
L 10.890625 0 
L 10.890625 47.703125 
L 2.296875 47.703125 
L 2.296875 54.6875 
L 10.890625 54.6875 
L 10.890625 58.5 
Q 10.890625 67.625 15.140625 71.796875 
Q 19.390625 75.984375 28.609375 75.984375 
z
" id="DejaVuSans-102"/>
     </defs>
     <use xlink:href="#DejaVuSans-65"/>
     <use x="62.533203" xlink:href="#DejaVuSans-118"/>
     <use x="121.712891" xlink:href="#DejaVuSans-101"/>
     <use x="183.236328" xlink:href="#DejaVuSans-114"/>
     <use x="224.349609" xlink:href="#DejaVuSans-97"/>
     <use x="285.628906" xlink:href="#DejaVuSans-103"/>
     <use x="349.105469" xlink:href="#DejaVuSans-101"/>
     <use x="410.628906" xlink:href="#DejaVuSans-32"/>
     <use x="442.416016" xlink:href="#DejaVuSans-78"/>
     <use x="517.220703" xlink:href="#DejaVuSans-111"/>
     <use x="578.402344" xlink:href="#DejaVuSans-114"/>
     <use x="617.765625" xlink:href="#DejaVuSans-109"/>
     <use x="715.177734" xlink:href="#DejaVuSans-97"/>
     <use x="776.457031" xlink:href="#DejaVuSans-108"/>
     <use x="804.240234" xlink:href="#DejaVuSans-105"/>
     <use x="832.023438" xlink:href="#DejaVuSans-122"/>
     <use x="884.513672" xlink:href="#DejaVuSans-101"/>
     <use x="946.037109" xlink:href="#DejaVuSans-100"/>
     <use x="1009.513672" xlink:href="#DejaVuSans-32"/>
     <use x="1041.300781" xlink:href="#DejaVuSans-72"/>
     <use x="1116.496094" xlink:href="#DejaVuSans-105"/>
     <use x="1144.279297" xlink:href="#DejaVuSans-115"/>
     <use x="1196.378906" xlink:href="#DejaVuSans-116"/>
     <use x="1235.587891" xlink:href="#DejaVuSans-111"/>
     <use x="1296.769531" xlink:href="#DejaVuSans-103"/>
     <use x="1360.246094" xlink:href="#DejaVuSans-114"/>
     <use x="1401.359375" xlink:href="#DejaVuSans-97"/>
     <use x="1462.638672" xlink:href="#DejaVuSans-109"/>
     <use x="1560.050781" xlink:href="#DejaVuSans-115"/>
     <use x="1612.150391" xlink:href="#DejaVuSans-32"/>
     <use x="1643.9375" xlink:href="#DejaVuSans-97"/>
     <use x="1705.216797" xlink:href="#DejaVuSans-110"/>
     <use x="1768.595703" xlink:href="#DejaVuSans-100"/>
     <use x="1832.072266" xlink:href="#DejaVuSans-32"/>
     <use x="1863.859375" xlink:href="#DejaVuSans-75"/>
     <use x="1929.435547" xlink:href="#DejaVuSans-68"/>
     <use x="2006.4375" xlink:href="#DejaVuSans-69"/>
     <use x="2069.621094" xlink:href="#DejaVuSans-32"/>
     <use x="2101.408203" xlink:href="#DejaVuSans-111"/>
     <use x="2162.589844" xlink:href="#DejaVuSans-102"/>
     <use x="2197.794922" xlink:href="#DejaVuSans-32"/>
     <use x="2229.582031" xlink:href="#DejaVuSans-80"/>
     <use x="2286.259766" xlink:href="#DejaVuSans-101"/>
     <use x="2347.783203" xlink:href="#DejaVuSans-108"/>
     <use x="2375.566406" xlink:href="#DejaVuSans-108"/>
     <use x="2403.349609" xlink:href="#DejaVuSans-101"/>
     <use x="2464.873047" xlink:href="#DejaVuSans-116"/>
     <use x="2504.082031" xlink:href="#DejaVuSans-32"/>
     <use x="2535.869141" xlink:href="#DejaVuSans-80"/>
     <use x="2594.421875" xlink:href="#DejaVuSans-114"/>
     <use x="2635.535156" xlink:href="#DejaVuSans-105"/>
     <use x="2663.318359" xlink:href="#DejaVuSans-99"/>
     <use x="2718.298828" xlink:href="#DejaVuSans-101"/>
    </g>
   </g>
   <g id="legend_1">
    <g id="patch_92">
     <path d="M 607.5875 128.305 
L 770.6 128.305 
Q 772.6 128.305 772.6 126.305 
L 772.6 67.48 
Q 772.6 65.48 770.6 65.48 
L 607.5875 65.48 
Q 605.5875 65.48 605.5875 67.48 
L 605.5875 126.305 
Q 605.5875 128.305 607.5875 128.305 
z
" style="fill:#ffffff;opacity:0.8;stroke:#cccccc;stroke-linejoin:miter;"/>
    </g>
    <g id="line2d_33">
     <path d="M 609.5875 73.578438 
L 629.5875 73.578438 
" style="fill:none;stroke:#0000ff;stroke-dasharray:5.55,2.4;stroke-dashoffset:0;stroke-width:1.5;"/>
    </g>
    <g id="line2d_34"/>
    <g id="text_19">
     <!-- KDE for result_df -->
     <g transform="translate(637.5875 77.078438)scale(0.1 -0.1)">
      <defs>
       <path d="M 50.984375 -16.609375 
L 50.984375 -23.578125 
L -0.984375 -23.578125 
L -0.984375 -16.609375 
z
" id="DejaVuSans-95"/>
      </defs>
      <use xlink:href="#DejaVuSans-75"/>
      <use x="65.576172" xlink:href="#DejaVuSans-68"/>
      <use x="142.578125" xlink:href="#DejaVuSans-69"/>
      <use x="205.761719" xlink:href="#DejaVuSans-32"/>
      <use x="237.548828" xlink:href="#DejaVuSans-102"/>
      <use x="272.753906" xlink:href="#DejaVuSans-111"/>
      <use x="333.935547" xlink:href="#DejaVuSans-114"/>
      <use x="375.048828" xlink:href="#DejaVuSans-32"/>
      <use x="406.835938" xlink:href="#DejaVuSans-114"/>
      <use x="445.699219" xlink:href="#DejaVuSans-101"/>
      <use x="507.222656" xlink:href="#DejaVuSans-115"/>
      <use x="559.322266" xlink:href="#DejaVuSans-117"/>
      <use x="622.701172" xlink:href="#DejaVuSans-108"/>
      <use x="650.484375" xlink:href="#DejaVuSans-116"/>
      <use x="689.693359" xlink:href="#DejaVuSans-95"/>
      <use x="739.693359" xlink:href="#DejaVuSans-100"/>
      <use x="803.169922" xlink:href="#DejaVuSans-102"/>
     </g>
    </g>
    <g id="line2d_35">
     <path d="M 609.5875 88.534688 
L 629.5875 88.534688 
" style="fill:none;stroke:#ff0000;stroke-dasharray:5.55,2.4;stroke-dashoffset:0;stroke-width:1.5;"/>
    </g>
    <g id="line2d_36"/>
    <g id="text_20">
     <!-- KDE for result_df2 -->
     <g transform="translate(637.5875 92.034688)scale(0.1 -0.1)">
      <use xlink:href="#DejaVuSans-75"/>
      <use x="65.576172" xlink:href="#DejaVuSans-68"/>
      <use x="142.578125" xlink:href="#DejaVuSans-69"/>
      <use x="205.761719" xlink:href="#DejaVuSans-32"/>
      <use x="237.548828" xlink:href="#DejaVuSans-102"/>
      <use x="272.753906" xlink:href="#DejaVuSans-111"/>
      <use x="333.935547" xlink:href="#DejaVuSans-114"/>
      <use x="375.048828" xlink:href="#DejaVuSans-32"/>
      <use x="406.835938" xlink:href="#DejaVuSans-114"/>
      <use x="445.699219" xlink:href="#DejaVuSans-101"/>
      <use x="507.222656" xlink:href="#DejaVuSans-115"/>
      <use x="559.322266" xlink:href="#DejaVuSans-117"/>
      <use x="622.701172" xlink:href="#DejaVuSans-108"/>
      <use x="650.484375" xlink:href="#DejaVuSans-116"/>
      <use x="689.693359" xlink:href="#DejaVuSans-95"/>
      <use x="739.693359" xlink:href="#DejaVuSans-100"/>
      <use x="803.169922" xlink:href="#DejaVuSans-102"/>
      <use x="838.375" xlink:href="#DejaVuSans-50"/>
     </g>
    </g>
    <g id="patch_93">
     <path d="M 609.5875 106.990938 
L 629.5875 106.990938 
L 629.5875 99.990938 
L 609.5875 99.990938 
z
" style="fill:#1f77b4;opacity:0.5;stroke:#000000;stroke-linejoin:miter;"/>
    </g>
    <g id="text_21">
     <!-- Histogram from result_df -->
     <g transform="translate(637.5875 106.990938)scale(0.1 -0.1)">
      <use xlink:href="#DejaVuSans-72"/>
      <use x="75.195312" xlink:href="#DejaVuSans-105"/>
      <use x="102.978516" xlink:href="#DejaVuSans-115"/>
      <use x="155.078125" xlink:href="#DejaVuSans-116"/>
      <use x="194.287109" xlink:href="#DejaVuSans-111"/>
      <use x="255.46875" xlink:href="#DejaVuSans-103"/>
      <use x="318.945312" xlink:href="#DejaVuSans-114"/>
      <use x="360.058594" xlink:href="#DejaVuSans-97"/>
      <use x="421.337891" xlink:href="#DejaVuSans-109"/>
      <use x="518.75" xlink:href="#DejaVuSans-32"/>
      <use x="550.537109" xlink:href="#DejaVuSans-102"/>
      <use x="585.742188" xlink:href="#DejaVuSans-114"/>
      <use x="624.605469" xlink:href="#DejaVuSans-111"/>
      <use x="685.787109" xlink:href="#DejaVuSans-109"/>
      <use x="783.199219" xlink:href="#DejaVuSans-32"/>
      <use x="814.986328" xlink:href="#DejaVuSans-114"/>
      <use x="853.849609" xlink:href="#DejaVuSans-101"/>
      <use x="915.373047" xlink:href="#DejaVuSans-115"/>
      <use x="967.472656" xlink:href="#DejaVuSans-117"/>
      <use x="1030.851562" xlink:href="#DejaVuSans-108"/>
      <use x="1058.634766" xlink:href="#DejaVuSans-116"/>
      <use x="1097.84375" xlink:href="#DejaVuSans-95"/>
      <use x="1147.84375" xlink:href="#DejaVuSans-100"/>
      <use x="1211.320312" xlink:href="#DejaVuSans-102"/>
     </g>
    </g>
    <g id="patch_94">
     <path d="M 609.5875 121.947188 
L 629.5875 121.947188 
L 629.5875 114.947188 
L 609.5875 114.947188 
z
" style="fill:#ff7f0e;opacity:0.5;stroke:#000000;stroke-linejoin:miter;"/>
    </g>
    <g id="text_22">
     <!-- Histogram from result_df2 -->
     <g transform="translate(637.5875 121.947188)scale(0.1 -0.1)">
      <use xlink:href="#DejaVuSans-72"/>
      <use x="75.195312" xlink:href="#DejaVuSans-105"/>
      <use x="102.978516" xlink:href="#DejaVuSans-115"/>
      <use x="155.078125" xlink:href="#DejaVuSans-116"/>
      <use x="194.287109" xlink:href="#DejaVuSans-111"/>
      <use x="255.46875" xlink:href="#DejaVuSans-103"/>
      <use x="318.945312" xlink:href="#DejaVuSans-114"/>
      <use x="360.058594" xlink:href="#DejaVuSans-97"/>
      <use x="421.337891" xlink:href="#DejaVuSans-109"/>
      <use x="518.75" xlink:href="#DejaVuSans-32"/>
      <use x="550.537109" xlink:href="#DejaVuSans-102"/>
      <use x="585.742188" xlink:href="#DejaVuSans-114"/>
      <use x="624.605469" xlink:href="#DejaVuSans-111"/>
      <use x="685.787109" xlink:href="#DejaVuSans-109"/>
      <use x="783.199219" xlink:href="#DejaVuSans-32"/>
      <use x="814.986328" xlink:href="#DejaVuSans-114"/>
      <use x="853.849609" xlink:href="#DejaVuSans-101"/>
      <use x="915.373047" xlink:href="#DejaVuSans-115"/>
      <use x="967.472656" xlink:href="#DejaVuSans-117"/>
      <use x="1030.851562" xlink:href="#DejaVuSans-108"/>
      <use x="1058.634766" xlink:href="#DejaVuSans-116"/>
      <use x="1097.84375" xlink:href="#DejaVuSans-95"/>
      <use x="1147.84375" xlink:href="#DejaVuSans-100"/>
      <use x="1211.320312" xlink:href="#DejaVuSans-102"/>
      <use x="1246.525391" xlink:href="#DejaVuSans-50"/>
     </g>
    </g>
   </g>
  </g>
 </g>
 <defs>
  <clipPath id="pcd9fdc4572">
   <rect height="388.08" width="669.6" x="108" y="60.48"/>
  </clipPath>
 </defs>
</svg>
