<?xml version="1.0" encoding="utf-8" standalone="no"?>
<!DOCTYPE svg PUBLIC "-//W3C//DTD SVG 1.1//EN"
  "http://www.w3.org/Graphics/SVG/1.1/DTD/svg11.dtd">
<!-- Created with matplotlib (https://matplotlib.org/) -->
<svg height="282.72pt" version="1.1" viewBox="0 0 454.08 282.72" width="454.08pt" xmlns="http://www.w3.org/2000/svg" xmlns:xlink="http://www.w3.org/1999/xlink">
 <defs>
  <style type="text/css">
*{stroke-linecap:butt;stroke-linejoin:round;}
  </style>
 </defs>
 <g id="figure_1">
  <g id="patch_1">
   <path d="M 0 282.72 
L 454.08 282.72 
L 454.08 0 
L 0 0 
z
" style="fill:#ffffff;"/>
  </g>
  <g id="axes_1">
   <g id="patch_2">
    <path d="M 44.12 241.72 
L 318.94 241.72 
L 318.94 25.92 
L 44.12 25.92 
z
" style="fill:#ffffff;"/>
   </g>
   <g id="patch_3">
    <path clip-path="url(#p4e91bfe471)" d="M 80.416981 241.72 
L 80.416981 25.92 
L 142.640377 25.92 
L 142.640377 241.72 
z
" style="fill:#808080;opacity:0.2;stroke:#808080;stroke-linejoin:miter;"/>
   </g>
   <g id="patch_4">
    <path clip-path="url(#p4e91bfe471)" d="M 204.863774 241.72 
L 204.863774 25.92 
L 267.08717 25.92 
L 267.08717 241.72 
z
" style="fill:#808080;opacity:0.2;stroke:#808080;stroke-linejoin:miter;"/>
   </g>
   <g id="PolyCollection_1">
    <defs>
     <path d="M 49.305283 -75.224312 
L 49.305283 -148.441481 
L 54.490566 -117.04414 
L 59.675849 -100.983734 
L 64.861132 -189.33876 
L 70.046415 -161.928446 
L 75.231698 -93.493291 
L 80.416981 -94.518791 
L 85.602264 -114.898325 
L 90.787547 -93.057601 
L 95.97283 -93.093931 
L 101.158113 -101.383447 
L 106.343396 -101.960201 
L 111.528679 -85.272125 
L 116.713962 -71.139094 
L 121.899245 -72.780604 
L 127.084528 -94.708684 
L 132.269811 -76.849825 
L 137.455094 -108.937223 
L 142.640377 -66.32588 
L 147.82566 -64.587733 
L 153.010943 -94.127841 
L 158.196226 -67.891693 
L 163.381509 -69.753022 
L 168.566792 -62.27672 
L 173.752075 -71.066563 
L 178.937359 -56.301162 
L 184.122642 -63.230161 
L 189.307925 -63.843396 
L 194.493208 -62.152987 
L 199.678491 -70.751285 
L 204.863774 -80.597599 
L 210.049057 -94.270382 
L 215.23434 -91.245443 
L 220.419623 -80.478607 
L 225.604906 -77.542487 
L 230.790189 -90.547516 
L 235.975472 -78.867894 
L 241.160755 -75.005234 
L 246.346038 -67.304445 
L 251.531321 -78.79575 
L 256.716604 -74.075802 
L 261.901887 -75.11584 
L 267.08717 -81.633304 
L 272.272453 -80.499 
L 277.457736 -70.773931 
L 282.643019 -80.544456 
L 287.828302 -53.407246 
L 293.013585 -91.519196 
L 293.013585 -64.433964 
L 293.013585 -64.433964 
L 287.828302 -50.905758 
L 282.643019 -66.278399 
L 277.457736 -60.798297 
L 272.272453 -63.272496 
L 267.08717 -68.545937 
L 261.901887 -61.600516 
L 256.716604 -63.975918 
L 251.531321 -66.37464 
L 246.346038 -59.645876 
L 241.160755 -59.665704 
L 235.975472 -63.314949 
L 230.790189 -70.837043 
L 225.604906 -64.791571 
L 220.419623 -66.117329 
L 215.23434 -74.884398 
L 210.049057 -72.027709 
L 204.863774 -59.307899 
L 199.678491 -58.903282 
L 194.493208 -52.418552 
L 189.307925 -54.613463 
L 184.122642 -57.682674 
L 178.937359 -51.791288 
L 173.752075 -58.523015 
L 168.566792 -55.411282 
L 163.381509 -56.915396 
L 158.196226 -60.298983 
L 153.010943 -58.886182 
L 147.82566 -58.554819 
L 142.640377 -59.731405 
L 137.455094 -77.337523 
L 132.269811 -63.334355 
L 127.084528 -68.268998 
L 121.899245 -61.977711 
L 116.713962 -62.841071 
L 111.528679 -71.710225 
L 106.343396 -80.945069 
L 101.158113 -83.328352 
L 95.97283 -77.483424 
L 90.787547 -79.331971 
L 85.602264 -86.548051 
L 80.416981 -79.579103 
L 75.231698 -80.495173 
L 70.046415 -119.349434 
L 64.861132 -140.280648 
L 59.675849 -65.196504 
L 54.490566 -90.484731 
L 49.305283 -75.224312 
z
" id="ma6fccc8358" style="stroke:#1f77b4;stroke-opacity:0.3;"/>
    </defs>
    <g clip-path="url(#p4e91bfe471)">
     <use style="fill:#1f77b4;fill-opacity:0.3;stroke:#1f77b4;stroke-opacity:0.3;" x="0" xlink:href="#ma6fccc8358" y="282.72"/>
    </g>
   </g>
   <g id="PolyCollection_2">
    <defs>
     <path d="M 49.305283 -91.598265 
L 49.305283 -118.733262 
L 54.490566 -246.990909 
L 59.675849 -102.98897 
L 64.861132 -142.696797 
L 70.046415 -116.560584 
L 75.231698 -104.122483 
L 80.416981 -101.640623 
L 85.602264 -104.662302 
L 90.787547 -92.039513 
L 95.97283 -90.103165 
L 101.158113 -92.265766 
L 106.343396 -95.519935 
L 111.528679 -97.239607 
L 116.713962 -99.642718 
L 121.899245 -65.927185 
L 127.084528 -77.263183 
L 132.269811 -65.042233 
L 137.455094 -73.537936 
L 142.640377 -67.326793 
L 147.82566 -80.490789 
L 153.010943 -89.560434 
L 158.196226 -83.960837 
L 163.381509 -74.906853 
L 168.566792 -65.836431 
L 173.752075 -75.929178 
L 178.937359 -56.083537 
L 184.122642 -64.25195 
L 189.307925 -66.101019 
L 194.493208 -52.247202 
L 199.678491 -63.899276 
L 204.863774 -79.692596 
L 210.049057 -74.452611 
L 215.23434 -73.305657 
L 220.419623 -84.484505 
L 225.604906 -85.272595 
L 230.790189 -77.722027 
L 235.975472 -68.072295 
L 241.160755 -86.518673 
L 246.346038 -78.368918 
L 251.531321 -70.433046 
L 256.716604 -65.632124 
L 261.901887 -73.665148 
L 267.08717 -70.532757 
L 272.272453 -65.208291 
L 277.457736 -87.574954 
L 282.643019 -74.903708 
L 287.828302 -60.003389 
L 293.013585 -100.190057 
L 293.013585 -59.009376 
L 293.013585 -59.009376 
L 287.828302 -53.966581 
L 282.643019 -61.566986 
L 277.457736 -64.180223 
L 272.272453 -58.185329 
L 267.08717 -61.492114 
L 261.901887 -63.50041 
L 256.716604 -59.248187 
L 251.531321 -59.94189 
L 246.346038 -64.938395 
L 241.160755 -70.306567 
L 235.975472 -57.775728 
L 230.790189 -67.173565 
L 225.604906 -70.978726 
L 220.419623 -71.766532 
L 215.23434 -60.817267 
L 210.049057 -64.257363 
L 204.863774 -65.675748 
L 199.678491 -58.153012 
L 194.493208 -50.809091 
L 189.307925 -56.933058 
L 184.122642 -54.711932 
L 178.937359 -53.077147 
L 173.752075 -57.480061 
L 168.566792 -57.822571 
L 163.381509 -57.623622 
L 158.196226 -62.371918 
L 153.010943 -65.635012 
L 147.82566 -65.971321 
L 142.640377 -57.24354 
L 137.455094 -61.715272 
L 132.269811 -56.088094 
L 127.084528 -64.705533 
L 121.899245 -59.22798 
L 116.713962 -75.318568 
L 111.528679 -77.957195 
L 106.343396 -79.363466 
L 101.158113 -74.866765 
L 95.97283 -72.403399 
L 90.787547 -78.293467 
L 85.602264 -86.909164 
L 80.416981 -85.807461 
L 75.231698 -85.616163 
L 70.046415 -90.519193 
L 64.861132 -106.251805 
L 59.675849 -84.004642 
L 54.490566 -114.875449 
L 49.305283 -91.598265 
z
" id="m8c6cf670a8" style="stroke:#ff7f0e;stroke-opacity:0.3;"/>
    </defs>
    <g clip-path="url(#p4e91bfe471)">
     <use style="fill:#ff7f0e;fill-opacity:0.3;stroke:#ff7f0e;stroke-opacity:0.3;" x="0" xlink:href="#m8c6cf670a8" y="282.72"/>
    </g>
   </g>
   <g id="PolyCollection_3">
    <defs>
     <path d="M 54.490566 -53.542069 
L 54.490566 -109.71637 
L 59.675849 -113.845373 
L 64.861132 -111.033344 
L 70.046415 -131.309013 
L 75.231698 -118.030206 
L 80.416981 -106.487423 
L 85.602264 -97.73568 
L 90.787547 -75.389693 
L 95.97283 -82.135644 
L 101.158113 -80.081081 
L 106.343396 -89.089519 
L 111.528679 -86.541192 
L 116.713962 -81.564225 
L 121.899245 -62.353413 
L 127.084528 -69.621293 
L 132.269811 -74.154649 
L 137.455094 -81.236423 
L 142.640377 -76.078036 
L 147.82566 -108.515503 
L 153.010943 -67.22954 
L 158.196226 -66.079679 
L 163.381509 -78.954466 
L 168.566792 -69.776245 
L 173.752075 -71.576962 
L 178.937359 -60.615867 
L 184.122642 -70.113158 
L 189.307925 -83.826745 
L 194.493208 -56.024881 
L 199.678491 -60.771096 
L 204.863774 -68.384736 
L 210.049057 -67.468667 
L 215.23434 -67.268117 
L 220.419623 -66.066502 
L 225.604906 -66.675182 
L 230.790189 -72.076267 
L 235.975472 -61.572294 
L 241.160755 -63.595493 
L 246.346038 -59.603368 
L 251.531321 -70.550842 
L 256.716604 -62.702393 
L 261.901887 -61.507976 
L 267.08717 -62.644192 
L 272.272453 -66.675679 
L 277.457736 -71.317466 
L 282.643019 -56.028955 
L 287.828302 -64.687871 
L 293.013585 -75.143718 
L 293.013585 -55.54761 
L 293.013585 -55.54761 
L 287.828302 -53.688491 
L 282.643019 -52.43228 
L 277.457736 -56.202202 
L 272.272453 -58.321457 
L 267.08717 -54.259797 
L 261.901887 -56.978702 
L 256.716604 -56.243568 
L 251.531321 -61.251142 
L 246.346038 -53.959946 
L 241.160755 -57.895246 
L 235.975472 -55.198151 
L 230.790189 -58.209806 
L 225.604906 -57.106366 
L 220.419623 -58.805192 
L 215.23434 -58.267208 
L 210.049057 -59.756444 
L 204.863774 -60.167643 
L 199.678491 -55.168369 
L 194.493208 -53.267194 
L 189.307925 -56.302585 
L 184.122642 -57.051422 
L 178.937359 -56.124632 
L 173.752075 -57.668196 
L 168.566792 -57.697274 
L 163.381509 -63.449351 
L 158.196226 -59.21238 
L 153.010943 -59.150066 
L 147.82566 -71.243672 
L 142.640377 -65.29048 
L 137.455094 -65.986796 
L 132.269811 -61.664745 
L 127.084528 -57.975237 
L 121.899245 -57.846621 
L 116.713962 -67.279576 
L 111.528679 -72.835272 
L 106.343396 -72.811536 
L 101.158113 -66.984004 
L 95.97283 -71.732588 
L 90.787547 -69.105154 
L 85.602264 -80.029201 
L 80.416981 -84.017549 
L 75.231698 -91.310064 
L 70.046415 -98.007222 
L 64.861132 -80.539602 
L 59.675849 -55.699292 
L 54.490566 -53.542069 
z
" id="m3e3e0160ea" style="stroke:#2ca02c;stroke-opacity:0.3;"/>
    </defs>
    <g clip-path="url(#p4e91bfe471)">
     <use style="fill:#2ca02c;fill-opacity:0.3;stroke:#2ca02c;stroke-opacity:0.3;" x="0" xlink:href="#m3e3e0160ea" y="282.72"/>
    </g>
   </g>
   <g id="PolyCollection_4">
    <defs>
     <path d="M 44.12 -52.425779 
L 44.12 -85.01443 
L 49.305283 -108.255649 
L 54.490566 -83.520929 
L 59.675849 -101.332479 
L 64.861132 -142.10703 
L 70.046415 -143.052161 
L 75.231698 -139.354808 
L 80.416981 -108.158397 
L 85.602264 -96.993371 
L 90.787547 -79.670788 
L 95.97283 -74.987661 
L 101.158113 -76.344677 
L 106.343396 -73.533832 
L 111.528679 -70.632739 
L 116.713962 -70.624658 
L 121.899245 -62.096951 
L 127.084528 -63.339706 
L 132.269811 -63.317532 
L 137.455094 -68.621584 
L 142.640377 -65.261606 
L 147.82566 -64.162215 
L 153.010943 -70.616623 
L 158.196226 -57.252891 
L 163.381509 -55.620479 
L 168.566792 -63.013158 
L 173.752075 -96.9665 
L 178.937359 -66.433436 
L 184.122642 -85.724416 
L 189.307925 -57.675385 
L 194.493208 -56.959511 
L 199.678491 -61.053184 
L 204.863774 -56.180564 
L 210.049057 -70.760675 
L 215.23434 -59.60035 
L 220.419623 -62.550215 
L 225.604906 -60.75685 
L 230.790189 -57.668163 
L 235.975472 -58.15899 
L 241.160755 -58.656635 
L 246.346038 -60.654096 
L 251.531321 -58.178789 
L 256.716604 -75.934011 
L 261.901887 -75.486368 
L 267.08717 -63.576426 
L 272.272453 -79.473285 
L 277.457736 -67.907075 
L 282.643019 -59.464336 
L 287.828302 -66.391964 
L 293.013585 -75.474139 
L 293.013585 -59.140537 
L 293.013585 -59.140537 
L 287.828302 -54.941009 
L 282.643019 -52.828628 
L 277.457736 -55.172674 
L 272.272453 -63.044899 
L 267.08717 -54.778322 
L 261.901887 -62.134048 
L 256.716604 -60.672052 
L 251.531321 -52.268912 
L 246.346038 -55.21746 
L 241.160755 -54.073691 
L 235.975472 -53.287217 
L 230.790189 -54.394778 
L 225.604906 -55.933864 
L 220.419623 -57.287658 
L 215.23434 -55.003792 
L 210.049057 -58.631295 
L 204.863774 -53.038768 
L 199.678491 -55.081418 
L 194.493208 -52.811116 
L 189.307925 -54.292996 
L 184.122642 -59.851308 
L 178.937359 -58.867537 
L 173.752075 -55.328598 
L 168.566792 -57.934955 
L 163.381509 -52.815082 
L 158.196226 -54.84055 
L 153.010943 -59.272634 
L 147.82566 -57.030776 
L 142.640377 -58.099087 
L 137.455094 -60.657316 
L 132.269811 -56.015238 
L 127.084528 -59.065004 
L 121.899245 -57.051497 
L 116.713962 -62.155381 
L 111.528679 -62.936147 
L 106.343396 -64.69176 
L 101.158113 -65.749654 
L 95.97283 -66.022325 
L 90.787547 -69.863824 
L 85.602264 -84.109577 
L 80.416981 -88.221895 
L 75.231698 -101.962874 
L 70.046415 -106.455207 
L 64.861132 -86.957211 
L 59.675849 -71.280893 
L 54.490566 -67.088689 
L 49.305283 -66.65812 
L 44.12 -52.425779 
z
" id="mce96da2399" style="stroke:#d62728;stroke-opacity:0.3;"/>
    </defs>
    <g clip-path="url(#p4e91bfe471)">
     <use style="fill:#d62728;fill-opacity:0.3;stroke:#d62728;stroke-opacity:0.3;" x="0" xlink:href="#mce96da2399" y="282.72"/>
    </g>
   </g>
   <g id="matplotlib.axis_1">
    <g id="xtick_1">
     <g id="line2d_1">
      <defs>
       <path d="M 0 0 
L 0 3.5 
" id="md635258b4d" style="stroke:#000000;stroke-width:0.8;"/>
      </defs>
      <g>
       <use style="stroke:#000000;stroke-width:0.8;" x="44.12" xlink:href="#md635258b4d" y="241.72"/>
      </g>
     </g>
     <g id="text_1">
      <!-- 0 -->
      <defs>
       <path d="M 31.78125 66.40625 
Q 24.171875 66.40625 20.328125 58.90625 
Q 16.5 51.421875 16.5 36.375 
Q 16.5 21.390625 20.328125 13.890625 
Q 24.171875 6.390625 31.78125 6.390625 
Q 39.453125 6.390625 43.28125 13.890625 
Q 47.125 21.390625 47.125 36.375 
Q 47.125 51.421875 43.28125 58.90625 
Q 39.453125 66.40625 31.78125 66.40625 
z
M 31.78125 74.21875 
Q 44.046875 74.21875 50.515625 64.515625 
Q 56.984375 54.828125 56.984375 36.375 
Q 56.984375 17.96875 50.515625 8.265625 
Q 44.046875 -1.421875 31.78125 -1.421875 
Q 19.53125 -1.421875 13.0625 8.265625 
Q 6.59375 17.96875 6.59375 36.375 
Q 6.59375 54.828125 13.0625 64.515625 
Q 19.53125 74.21875 31.78125 74.21875 
z
" id="DejaVuSans-48"/>
      </defs>
      <g transform="translate(40.93875 256.318438)scale(0.1 -0.1)">
       <use xlink:href="#DejaVuSans-48"/>
      </g>
     </g>
    </g>
    <g id="xtick_2">
     <g id="line2d_2">
      <g>
       <use style="stroke:#000000;stroke-width:0.8;" x="106.343396" xlink:href="#md635258b4d" y="241.72"/>
      </g>
     </g>
     <g id="text_2">
      <!-- 12 -->
      <defs>
       <path d="M 12.40625 8.296875 
L 28.515625 8.296875 
L 28.515625 63.921875 
L 10.984375 60.40625 
L 10.984375 69.390625 
L 28.421875 72.90625 
L 38.28125 72.90625 
L 38.28125 8.296875 
L 54.390625 8.296875 
L 54.390625 0 
L 12.40625 0 
z
" id="DejaVuSans-49"/>
       <path d="M 19.1875 8.296875 
L 53.609375 8.296875 
L 53.609375 0 
L 7.328125 0 
L 7.328125 8.296875 
Q 12.9375 14.109375 22.625 23.890625 
Q 32.328125 33.6875 34.8125 36.53125 
Q 39.546875 41.84375 41.421875 45.53125 
Q 43.3125 49.21875 43.3125 52.78125 
Q 43.3125 58.59375 39.234375 62.25 
Q 35.15625 65.921875 28.609375 65.921875 
Q 23.96875 65.921875 18.8125 64.3125 
Q 13.671875 62.703125 7.8125 59.421875 
L 7.8125 69.390625 
Q 13.765625 71.78125 18.9375 73 
Q 24.125 74.21875 28.421875 74.21875 
Q 39.75 74.21875 46.484375 68.546875 
Q 53.21875 62.890625 53.21875 53.421875 
Q 53.21875 48.921875 51.53125 44.890625 
Q 49.859375 40.875 45.40625 35.40625 
Q 44.1875 33.984375 37.640625 27.21875 
Q 31.109375 20.453125 19.1875 8.296875 
z
" id="DejaVuSans-50"/>
      </defs>
      <g transform="translate(99.980896 256.318438)scale(0.1 -0.1)">
       <use xlink:href="#DejaVuSans-49"/>
       <use x="63.623047" xlink:href="#DejaVuSans-50"/>
      </g>
     </g>
    </g>
    <g id="xtick_3">
     <g id="line2d_3">
      <g>
       <use style="stroke:#000000;stroke-width:0.8;" x="168.566792" xlink:href="#md635258b4d" y="241.72"/>
      </g>
     </g>
     <g id="text_3">
      <!-- 24 -->
      <defs>
       <path d="M 37.796875 64.3125 
L 12.890625 25.390625 
L 37.796875 25.390625 
z
M 35.203125 72.90625 
L 47.609375 72.90625 
L 47.609375 25.390625 
L 58.015625 25.390625 
L 58.015625 17.1875 
L 47.609375 17.1875 
L 47.609375 0 
L 37.796875 0 
L 37.796875 17.1875 
L 4.890625 17.1875 
L 4.890625 26.703125 
z
" id="DejaVuSans-52"/>
      </defs>
      <g transform="translate(162.204292 256.318438)scale(0.1 -0.1)">
       <use xlink:href="#DejaVuSans-50"/>
       <use x="63.623047" xlink:href="#DejaVuSans-52"/>
      </g>
     </g>
    </g>
    <g id="xtick_4">
     <g id="line2d_4">
      <g>
       <use style="stroke:#000000;stroke-width:0.8;" x="230.790189" xlink:href="#md635258b4d" y="241.72"/>
      </g>
     </g>
     <g id="text_4">
      <!-- 36 -->
      <defs>
       <path d="M 40.578125 39.3125 
Q 47.65625 37.796875 51.625 33 
Q 55.609375 28.21875 55.609375 21.1875 
Q 55.609375 10.40625 48.1875 4.484375 
Q 40.765625 -1.421875 27.09375 -1.421875 
Q 22.515625 -1.421875 17.65625 -0.515625 
Q 12.796875 0.390625 7.625 2.203125 
L 7.625 11.71875 
Q 11.71875 9.328125 16.59375 8.109375 
Q 21.484375 6.890625 26.8125 6.890625 
Q 36.078125 6.890625 40.9375 10.546875 
Q 45.796875 14.203125 45.796875 21.1875 
Q 45.796875 27.640625 41.28125 31.265625 
Q 36.765625 34.90625 28.71875 34.90625 
L 20.21875 34.90625 
L 20.21875 43.015625 
L 29.109375 43.015625 
Q 36.375 43.015625 40.234375 45.921875 
Q 44.09375 48.828125 44.09375 54.296875 
Q 44.09375 59.90625 40.109375 62.90625 
Q 36.140625 65.921875 28.71875 65.921875 
Q 24.65625 65.921875 20.015625 65.03125 
Q 15.375 64.15625 9.8125 62.3125 
L 9.8125 71.09375 
Q 15.4375 72.65625 20.34375 73.4375 
Q 25.25 74.21875 29.59375 74.21875 
Q 40.828125 74.21875 47.359375 69.109375 
Q 53.90625 64.015625 53.90625 55.328125 
Q 53.90625 49.265625 50.4375 45.09375 
Q 46.96875 40.921875 40.578125 39.3125 
z
" id="DejaVuSans-51"/>
       <path d="M 33.015625 40.375 
Q 26.375 40.375 22.484375 35.828125 
Q 18.609375 31.296875 18.609375 23.390625 
Q 18.609375 15.53125 22.484375 10.953125 
Q 26.375 6.390625 33.015625 6.390625 
Q 39.65625 6.390625 43.53125 10.953125 
Q 47.40625 15.53125 47.40625 23.390625 
Q 47.40625 31.296875 43.53125 35.828125 
Q 39.65625 40.375 33.015625 40.375 
z
M 52.59375 71.296875 
L 52.59375 62.3125 
Q 48.875 64.0625 45.09375 64.984375 
Q 41.3125 65.921875 37.59375 65.921875 
Q 27.828125 65.921875 22.671875 59.328125 
Q 17.53125 52.734375 16.796875 39.40625 
Q 19.671875 43.65625 24.015625 45.921875 
Q 28.375 48.1875 33.59375 48.1875 
Q 44.578125 48.1875 50.953125 41.515625 
Q 57.328125 34.859375 57.328125 23.390625 
Q 57.328125 12.15625 50.6875 5.359375 
Q 44.046875 -1.421875 33.015625 -1.421875 
Q 20.359375 -1.421875 13.671875 8.265625 
Q 6.984375 17.96875 6.984375 36.375 
Q 6.984375 53.65625 15.1875 63.9375 
Q 23.390625 74.21875 37.203125 74.21875 
Q 40.921875 74.21875 44.703125 73.484375 
Q 48.484375 72.75 52.59375 71.296875 
z
" id="DejaVuSans-54"/>
      </defs>
      <g transform="translate(224.427689 256.318438)scale(0.1 -0.1)">
       <use xlink:href="#DejaVuSans-51"/>
       <use x="63.623047" xlink:href="#DejaVuSans-54"/>
      </g>
     </g>
    </g>
    <g id="xtick_5">
     <g id="line2d_5">
      <g>
       <use style="stroke:#000000;stroke-width:0.8;" x="293.013585" xlink:href="#md635258b4d" y="241.72"/>
      </g>
     </g>
     <g id="text_5">
      <!-- 48 -->
      <defs>
       <path d="M 31.78125 34.625 
Q 24.75 34.625 20.71875 30.859375 
Q 16.703125 27.09375 16.703125 20.515625 
Q 16.703125 13.921875 20.71875 10.15625 
Q 24.75 6.390625 31.78125 6.390625 
Q 38.8125 6.390625 42.859375 10.171875 
Q 46.921875 13.96875 46.921875 20.515625 
Q 46.921875 27.09375 42.890625 30.859375 
Q 38.875 34.625 31.78125 34.625 
z
M 21.921875 38.8125 
Q 15.578125 40.375 12.03125 44.71875 
Q 8.5 49.078125 8.5 55.328125 
Q 8.5 64.0625 14.71875 69.140625 
Q 20.953125 74.21875 31.78125 74.21875 
Q 42.671875 74.21875 48.875 69.140625 
Q 55.078125 64.0625 55.078125 55.328125 
Q 55.078125 49.078125 51.53125 44.71875 
Q 48 40.375 41.703125 38.8125 
Q 48.828125 37.15625 52.796875 32.3125 
Q 56.78125 27.484375 56.78125 20.515625 
Q 56.78125 9.90625 50.3125 4.234375 
Q 43.84375 -1.421875 31.78125 -1.421875 
Q 19.734375 -1.421875 13.25 4.234375 
Q 6.78125 9.90625 6.78125 20.515625 
Q 6.78125 27.484375 10.78125 32.3125 
Q 14.796875 37.15625 21.921875 38.8125 
z
M 18.3125 54.390625 
Q 18.3125 48.734375 21.84375 45.5625 
Q 25.390625 42.390625 31.78125 42.390625 
Q 38.140625 42.390625 41.71875 45.5625 
Q 45.3125 48.734375 45.3125 54.390625 
Q 45.3125 60.0625 41.71875 63.234375 
Q 38.140625 66.40625 31.78125 66.40625 
Q 25.390625 66.40625 21.84375 63.234375 
Q 18.3125 60.0625 18.3125 54.390625 
z
" id="DejaVuSans-56"/>
      </defs>
      <g transform="translate(286.651085 256.318438)scale(0.1 -0.1)">
       <use xlink:href="#DejaVuSans-52"/>
       <use x="63.623047" xlink:href="#DejaVuSans-56"/>
      </g>
     </g>
    </g>
    <g id="text_6">
     <!-- Hours since 12PM on first day -->
     <defs>
      <path d="M 9.8125 72.90625 
L 19.671875 72.90625 
L 19.671875 43.015625 
L 55.515625 43.015625 
L 55.515625 72.90625 
L 65.375 72.90625 
L 65.375 0 
L 55.515625 0 
L 55.515625 34.71875 
L 19.671875 34.71875 
L 19.671875 0 
L 9.8125 0 
z
" id="DejaVuSans-72"/>
      <path d="M 30.609375 48.390625 
Q 23.390625 48.390625 19.1875 42.75 
Q 14.984375 37.109375 14.984375 27.296875 
Q 14.984375 17.484375 19.15625 11.84375 
Q 23.34375 6.203125 30.609375 6.203125 
Q 37.796875 6.203125 41.984375 11.859375 
Q 46.1875 17.53125 46.1875 27.296875 
Q 46.1875 37.015625 41.984375 42.703125 
Q 37.796875 48.390625 30.609375 48.390625 
z
M 30.609375 56 
Q 42.328125 56 49.015625 48.375 
Q 55.71875 40.765625 55.71875 27.296875 
Q 55.71875 13.875 49.015625 6.21875 
Q 42.328125 -1.421875 30.609375 -1.421875 
Q 18.84375 -1.421875 12.171875 6.21875 
Q 5.515625 13.875 5.515625 27.296875 
Q 5.515625 40.765625 12.171875 48.375 
Q 18.84375 56 30.609375 56 
z
" id="DejaVuSans-111"/>
      <path d="M 8.5 21.578125 
L 8.5 54.6875 
L 17.484375 54.6875 
L 17.484375 21.921875 
Q 17.484375 14.15625 20.5 10.265625 
Q 23.53125 6.390625 29.59375 6.390625 
Q 36.859375 6.390625 41.078125 11.03125 
Q 45.3125 15.671875 45.3125 23.6875 
L 45.3125 54.6875 
L 54.296875 54.6875 
L 54.296875 0 
L 45.3125 0 
L 45.3125 8.40625 
Q 42.046875 3.421875 37.71875 1 
Q 33.40625 -1.421875 27.6875 -1.421875 
Q 18.265625 -1.421875 13.375 4.4375 
Q 8.5 10.296875 8.5 21.578125 
z
M 31.109375 56 
z
" id="DejaVuSans-117"/>
      <path d="M 41.109375 46.296875 
Q 39.59375 47.171875 37.8125 47.578125 
Q 36.03125 48 33.890625 48 
Q 26.265625 48 22.1875 43.046875 
Q 18.109375 38.09375 18.109375 28.8125 
L 18.109375 0 
L 9.078125 0 
L 9.078125 54.6875 
L 18.109375 54.6875 
L 18.109375 46.1875 
Q 20.953125 51.171875 25.484375 53.578125 
Q 30.03125 56 36.53125 56 
Q 37.453125 56 38.578125 55.875 
Q 39.703125 55.765625 41.0625 55.515625 
z
" id="DejaVuSans-114"/>
      <path d="M 44.28125 53.078125 
L 44.28125 44.578125 
Q 40.484375 46.53125 36.375 47.5 
Q 32.28125 48.484375 27.875 48.484375 
Q 21.1875 48.484375 17.84375 46.4375 
Q 14.5 44.390625 14.5 40.28125 
Q 14.5 37.15625 16.890625 35.375 
Q 19.28125 33.59375 26.515625 31.984375 
L 29.59375 31.296875 
Q 39.15625 29.25 43.1875 25.515625 
Q 47.21875 21.78125 47.21875 15.09375 
Q 47.21875 7.46875 41.1875 3.015625 
Q 35.15625 -1.421875 24.609375 -1.421875 
Q 20.21875 -1.421875 15.453125 -0.5625 
Q 10.6875 0.296875 5.421875 2 
L 5.421875 11.28125 
Q 10.40625 8.6875 15.234375 7.390625 
Q 20.0625 6.109375 24.8125 6.109375 
Q 31.15625 6.109375 34.5625 8.28125 
Q 37.984375 10.453125 37.984375 14.40625 
Q 37.984375 18.0625 35.515625 20.015625 
Q 33.0625 21.96875 24.703125 23.78125 
L 21.578125 24.515625 
Q 13.234375 26.265625 9.515625 29.90625 
Q 5.8125 33.546875 5.8125 39.890625 
Q 5.8125 47.609375 11.28125 51.796875 
Q 16.75 56 26.8125 56 
Q 31.78125 56 36.171875 55.265625 
Q 40.578125 54.546875 44.28125 53.078125 
z
" id="DejaVuSans-115"/>
      <path id="DejaVuSans-32"/>
      <path d="M 9.421875 54.6875 
L 18.40625 54.6875 
L 18.40625 0 
L 9.421875 0 
z
M 9.421875 75.984375 
L 18.40625 75.984375 
L 18.40625 64.59375 
L 9.421875 64.59375 
z
" id="DejaVuSans-105"/>
      <path d="M 54.890625 33.015625 
L 54.890625 0 
L 45.90625 0 
L 45.90625 32.71875 
Q 45.90625 40.484375 42.875 44.328125 
Q 39.84375 48.1875 33.796875 48.1875 
Q 26.515625 48.1875 22.3125 43.546875 
Q 18.109375 38.921875 18.109375 30.90625 
L 18.109375 0 
L 9.078125 0 
L 9.078125 54.6875 
L 18.109375 54.6875 
L 18.109375 46.1875 
Q 21.34375 51.125 25.703125 53.5625 
Q 30.078125 56 35.796875 56 
Q 45.21875 56 50.046875 50.171875 
Q 54.890625 44.34375 54.890625 33.015625 
z
" id="DejaVuSans-110"/>
      <path d="M 48.78125 52.59375 
L 48.78125 44.1875 
Q 44.96875 46.296875 41.140625 47.34375 
Q 37.3125 48.390625 33.40625 48.390625 
Q 24.65625 48.390625 19.8125 42.84375 
Q 14.984375 37.3125 14.984375 27.296875 
Q 14.984375 17.28125 19.8125 11.734375 
Q 24.65625 6.203125 33.40625 6.203125 
Q 37.3125 6.203125 41.140625 7.25 
Q 44.96875 8.296875 48.78125 10.40625 
L 48.78125 2.09375 
Q 45.015625 0.34375 40.984375 -0.53125 
Q 36.96875 -1.421875 32.421875 -1.421875 
Q 20.0625 -1.421875 12.78125 6.34375 
Q 5.515625 14.109375 5.515625 27.296875 
Q 5.515625 40.671875 12.859375 48.328125 
Q 20.21875 56 33.015625 56 
Q 37.15625 56 41.109375 55.140625 
Q 45.0625 54.296875 48.78125 52.59375 
z
" id="DejaVuSans-99"/>
      <path d="M 56.203125 29.59375 
L 56.203125 25.203125 
L 14.890625 25.203125 
Q 15.484375 15.921875 20.484375 11.0625 
Q 25.484375 6.203125 34.421875 6.203125 
Q 39.59375 6.203125 44.453125 7.46875 
Q 49.3125 8.734375 54.109375 11.28125 
L 54.109375 2.78125 
Q 49.265625 0.734375 44.1875 -0.34375 
Q 39.109375 -1.421875 33.890625 -1.421875 
Q 20.796875 -1.421875 13.15625 6.1875 
Q 5.515625 13.8125 5.515625 26.8125 
Q 5.515625 40.234375 12.765625 48.109375 
Q 20.015625 56 32.328125 56 
Q 43.359375 56 49.78125 48.890625 
Q 56.203125 41.796875 56.203125 29.59375 
z
M 47.21875 32.234375 
Q 47.125 39.59375 43.09375 43.984375 
Q 39.0625 48.390625 32.421875 48.390625 
Q 24.90625 48.390625 20.390625 44.140625 
Q 15.875 39.890625 15.1875 32.171875 
z
" id="DejaVuSans-101"/>
      <path d="M 19.671875 64.796875 
L 19.671875 37.40625 
L 32.078125 37.40625 
Q 38.96875 37.40625 42.71875 40.96875 
Q 46.484375 44.53125 46.484375 51.125 
Q 46.484375 57.671875 42.71875 61.234375 
Q 38.96875 64.796875 32.078125 64.796875 
z
M 9.8125 72.90625 
L 32.078125 72.90625 
Q 44.34375 72.90625 50.609375 67.359375 
Q 56.890625 61.8125 56.890625 51.125 
Q 56.890625 40.328125 50.609375 34.8125 
Q 44.34375 29.296875 32.078125 29.296875 
L 19.671875 29.296875 
L 19.671875 0 
L 9.8125 0 
z
" id="DejaVuSans-80"/>
      <path d="M 9.8125 72.90625 
L 24.515625 72.90625 
L 43.109375 23.296875 
L 61.8125 72.90625 
L 76.515625 72.90625 
L 76.515625 0 
L 66.890625 0 
L 66.890625 64.015625 
L 48.09375 14.015625 
L 38.1875 14.015625 
L 19.390625 64.015625 
L 19.390625 0 
L 9.8125 0 
z
" id="DejaVuSans-77"/>
      <path d="M 37.109375 75.984375 
L 37.109375 68.5 
L 28.515625 68.5 
Q 23.6875 68.5 21.796875 66.546875 
Q 19.921875 64.59375 19.921875 59.515625 
L 19.921875 54.6875 
L 34.71875 54.6875 
L 34.71875 47.703125 
L 19.921875 47.703125 
L 19.921875 0 
L 10.890625 0 
L 10.890625 47.703125 
L 2.296875 47.703125 
L 2.296875 54.6875 
L 10.890625 54.6875 
L 10.890625 58.5 
Q 10.890625 67.625 15.140625 71.796875 
Q 19.390625 75.984375 28.609375 75.984375 
z
" id="DejaVuSans-102"/>
      <path d="M 18.3125 70.21875 
L 18.3125 54.6875 
L 36.8125 54.6875 
L 36.8125 47.703125 
L 18.3125 47.703125 
L 18.3125 18.015625 
Q 18.3125 11.328125 20.140625 9.421875 
Q 21.96875 7.515625 27.59375 7.515625 
L 36.8125 7.515625 
L 36.8125 0 
L 27.59375 0 
Q 17.1875 0 13.234375 3.875 
Q 9.28125 7.765625 9.28125 18.015625 
L 9.28125 47.703125 
L 2.6875 47.703125 
L 2.6875 54.6875 
L 9.28125 54.6875 
L 9.28125 70.21875 
z
" id="DejaVuSans-116"/>
      <path d="M 45.40625 46.390625 
L 45.40625 75.984375 
L 54.390625 75.984375 
L 54.390625 0 
L 45.40625 0 
L 45.40625 8.203125 
Q 42.578125 3.328125 38.25 0.953125 
Q 33.9375 -1.421875 27.875 -1.421875 
Q 17.96875 -1.421875 11.734375 6.484375 
Q 5.515625 14.40625 5.515625 27.296875 
Q 5.515625 40.1875 11.734375 48.09375 
Q 17.96875 56 27.875 56 
Q 33.9375 56 38.25 53.625 
Q 42.578125 51.265625 45.40625 46.390625 
z
M 14.796875 27.296875 
Q 14.796875 17.390625 18.875 11.75 
Q 22.953125 6.109375 30.078125 6.109375 
Q 37.203125 6.109375 41.296875 11.75 
Q 45.40625 17.390625 45.40625 27.296875 
Q 45.40625 37.203125 41.296875 42.84375 
Q 37.203125 48.484375 30.078125 48.484375 
Q 22.953125 48.484375 18.875 42.84375 
Q 14.796875 37.203125 14.796875 27.296875 
z
" id="DejaVuSans-100"/>
      <path d="M 34.28125 27.484375 
Q 23.390625 27.484375 19.1875 25 
Q 14.984375 22.515625 14.984375 16.5 
Q 14.984375 11.71875 18.140625 8.90625 
Q 21.296875 6.109375 26.703125 6.109375 
Q 34.1875 6.109375 38.703125 11.40625 
Q 43.21875 16.703125 43.21875 25.484375 
L 43.21875 27.484375 
z
M 52.203125 31.203125 
L 52.203125 0 
L 43.21875 0 
L 43.21875 8.296875 
Q 40.140625 3.328125 35.546875 0.953125 
Q 30.953125 -1.421875 24.3125 -1.421875 
Q 15.921875 -1.421875 10.953125 3.296875 
Q 6 8.015625 6 15.921875 
Q 6 25.140625 12.171875 29.828125 
Q 18.359375 34.515625 30.609375 34.515625 
L 43.21875 34.515625 
L 43.21875 35.40625 
Q 43.21875 41.609375 39.140625 45 
Q 35.0625 48.390625 27.6875 48.390625 
Q 23 48.390625 18.546875 47.265625 
Q 14.109375 46.140625 10.015625 43.890625 
L 10.015625 52.203125 
Q 14.9375 54.109375 19.578125 55.046875 
Q 24.21875 56 28.609375 56 
Q 40.484375 56 46.34375 49.84375 
Q 52.203125 43.703125 52.203125 31.203125 
z
" id="DejaVuSans-97"/>
      <path d="M 32.171875 -5.078125 
Q 28.375 -14.84375 24.75 -17.8125 
Q 21.140625 -20.796875 15.09375 -20.796875 
L 7.90625 -20.796875 
L 7.90625 -13.28125 
L 13.1875 -13.28125 
Q 16.890625 -13.28125 18.9375 -11.515625 
Q 21 -9.765625 23.484375 -3.21875 
L 25.09375 0.875 
L 2.984375 54.6875 
L 12.5 54.6875 
L 29.59375 11.921875 
L 46.6875 54.6875 
L 56.203125 54.6875 
z
" id="DejaVuSans-121"/>
     </defs>
     <g transform="translate(107.06125 269.996563)scale(0.1 -0.1)">
      <use xlink:href="#DejaVuSans-72"/>
      <use x="75.195312" xlink:href="#DejaVuSans-111"/>
      <use x="136.376953" xlink:href="#DejaVuSans-117"/>
      <use x="199.755859" xlink:href="#DejaVuSans-114"/>
      <use x="240.869141" xlink:href="#DejaVuSans-115"/>
      <use x="292.96875" xlink:href="#DejaVuSans-32"/>
      <use x="324.755859" xlink:href="#DejaVuSans-115"/>
      <use x="376.855469" xlink:href="#DejaVuSans-105"/>
      <use x="404.638672" xlink:href="#DejaVuSans-110"/>
      <use x="468.017578" xlink:href="#DejaVuSans-99"/>
      <use x="522.998047" xlink:href="#DejaVuSans-101"/>
      <use x="584.521484" xlink:href="#DejaVuSans-32"/>
      <use x="616.308594" xlink:href="#DejaVuSans-49"/>
      <use x="679.931641" xlink:href="#DejaVuSans-50"/>
      <use x="743.554688" xlink:href="#DejaVuSans-80"/>
      <use x="803.857422" xlink:href="#DejaVuSans-77"/>
      <use x="890.136719" xlink:href="#DejaVuSans-32"/>
      <use x="921.923828" xlink:href="#DejaVuSans-111"/>
      <use x="983.105469" xlink:href="#DejaVuSans-110"/>
      <use x="1046.484375" xlink:href="#DejaVuSans-32"/>
      <use x="1078.271484" xlink:href="#DejaVuSans-102"/>
      <use x="1113.476562" xlink:href="#DejaVuSans-105"/>
      <use x="1141.259766" xlink:href="#DejaVuSans-114"/>
      <use x="1182.373047" xlink:href="#DejaVuSans-115"/>
      <use x="1234.472656" xlink:href="#DejaVuSans-116"/>
      <use x="1273.681641" xlink:href="#DejaVuSans-32"/>
      <use x="1305.46875" xlink:href="#DejaVuSans-100"/>
      <use x="1368.945312" xlink:href="#DejaVuSans-97"/>
      <use x="1430.224609" xlink:href="#DejaVuSans-121"/>
     </g>
    </g>
   </g>
   <g id="matplotlib.axis_2">
    <g id="ytick_1">
     <g id="line2d_6">
      <defs>
       <path d="M 0 0 
L -3.5 0 
" id="m3df8bc2180" style="stroke:#000000;stroke-width:0.8;"/>
      </defs>
      <g>
       <use style="stroke:#000000;stroke-width:0.8;" x="44.12" xlink:href="#m3df8bc2180" y="238.274789"/>
      </g>
     </g>
     <g id="text_7">
      <!-- 0 -->
      <g transform="translate(30.7575 242.074008)scale(0.1 -0.1)">
       <use xlink:href="#DejaVuSans-48"/>
      </g>
     </g>
    </g>
    <g id="ytick_2">
     <g id="line2d_7">
      <g>
       <use style="stroke:#000000;stroke-width:0.8;" x="44.12" xlink:href="#m3df8bc2180" y="198.291984"/>
      </g>
     </g>
     <g id="text_8">
      <!-- 5 -->
      <defs>
       <path d="M 10.796875 72.90625 
L 49.515625 72.90625 
L 49.515625 64.59375 
L 19.828125 64.59375 
L 19.828125 46.734375 
Q 21.96875 47.46875 24.109375 47.828125 
Q 26.265625 48.1875 28.421875 48.1875 
Q 40.625 48.1875 47.75 41.5 
Q 54.890625 34.8125 54.890625 23.390625 
Q 54.890625 11.625 47.5625 5.09375 
Q 40.234375 -1.421875 26.90625 -1.421875 
Q 22.3125 -1.421875 17.546875 -0.640625 
Q 12.796875 0.140625 7.71875 1.703125 
L 7.71875 11.625 
Q 12.109375 9.234375 16.796875 8.0625 
Q 21.484375 6.890625 26.703125 6.890625 
Q 35.15625 6.890625 40.078125 11.328125 
Q 45.015625 15.765625 45.015625 23.390625 
Q 45.015625 31 40.078125 35.4375 
Q 35.15625 39.890625 26.703125 39.890625 
Q 22.75 39.890625 18.8125 39.015625 
Q 14.890625 38.140625 10.796875 36.28125 
z
" id="DejaVuSans-53"/>
      </defs>
      <g transform="translate(30.7575 202.091203)scale(0.1 -0.1)">
       <use xlink:href="#DejaVuSans-53"/>
      </g>
     </g>
    </g>
    <g id="ytick_3">
     <g id="line2d_8">
      <g>
       <use style="stroke:#000000;stroke-width:0.8;" x="44.12" xlink:href="#m3df8bc2180" y="158.309179"/>
      </g>
     </g>
     <g id="text_9">
      <!-- 10 -->
      <g transform="translate(24.395 162.108398)scale(0.1 -0.1)">
       <use xlink:href="#DejaVuSans-49"/>
       <use x="63.623047" xlink:href="#DejaVuSans-48"/>
      </g>
     </g>
    </g>
    <g id="ytick_4">
     <g id="line2d_9">
      <g>
       <use style="stroke:#000000;stroke-width:0.8;" x="44.12" xlink:href="#m3df8bc2180" y="118.326375"/>
      </g>
     </g>
     <g id="text_10">
      <!-- 15 -->
      <g transform="translate(24.395 122.125593)scale(0.1 -0.1)">
       <use xlink:href="#DejaVuSans-49"/>
       <use x="63.623047" xlink:href="#DejaVuSans-53"/>
      </g>
     </g>
    </g>
    <g id="ytick_5">
     <g id="line2d_10">
      <g>
       <use style="stroke:#000000;stroke-width:0.8;" x="44.12" xlink:href="#m3df8bc2180" y="78.34357"/>
      </g>
     </g>
     <g id="text_11">
      <!-- 20 -->
      <g transform="translate(24.395 82.142789)scale(0.1 -0.1)">
       <use xlink:href="#DejaVuSans-50"/>
       <use x="63.623047" xlink:href="#DejaVuSans-48"/>
      </g>
     </g>
    </g>
    <g id="ytick_6">
     <g id="line2d_11">
      <g>
       <use style="stroke:#000000;stroke-width:0.8;" x="44.12" xlink:href="#m3df8bc2180" y="38.360765"/>
      </g>
     </g>
     <g id="text_12">
      <!-- 25 -->
      <g transform="translate(24.395 42.159984)scale(0.1 -0.1)">
       <use xlink:href="#DejaVuSans-50"/>
       <use x="63.623047" xlink:href="#DejaVuSans-53"/>
      </g>
     </g>
    </g>
    <g id="text_13">
     <!-- Retrieval time -->
     <defs>
      <path d="M 44.390625 34.1875 
Q 47.5625 33.109375 50.5625 29.59375 
Q 53.5625 26.078125 56.59375 19.921875 
L 66.609375 0 
L 56 0 
L 46.6875 18.703125 
Q 43.0625 26.03125 39.671875 28.421875 
Q 36.28125 30.8125 30.421875 30.8125 
L 19.671875 30.8125 
L 19.671875 0 
L 9.8125 0 
L 9.8125 72.90625 
L 32.078125 72.90625 
Q 44.578125 72.90625 50.734375 67.671875 
Q 56.890625 62.453125 56.890625 51.90625 
Q 56.890625 45.015625 53.6875 40.46875 
Q 50.484375 35.9375 44.390625 34.1875 
z
M 19.671875 64.796875 
L 19.671875 38.921875 
L 32.078125 38.921875 
Q 39.203125 38.921875 42.84375 42.21875 
Q 46.484375 45.515625 46.484375 51.90625 
Q 46.484375 58.296875 42.84375 61.546875 
Q 39.203125 64.796875 32.078125 64.796875 
z
" id="DejaVuSans-82"/>
      <path d="M 2.984375 54.6875 
L 12.5 54.6875 
L 29.59375 8.796875 
L 46.6875 54.6875 
L 56.203125 54.6875 
L 35.6875 0 
L 23.484375 0 
z
" id="DejaVuSans-118"/>
      <path d="M 9.421875 75.984375 
L 18.40625 75.984375 
L 18.40625 0 
L 9.421875 0 
z
" id="DejaVuSans-108"/>
      <path d="M 52 44.1875 
Q 55.375 50.25 60.0625 53.125 
Q 64.75 56 71.09375 56 
Q 79.640625 56 84.28125 50.015625 
Q 88.921875 44.046875 88.921875 33.015625 
L 88.921875 0 
L 79.890625 0 
L 79.890625 32.71875 
Q 79.890625 40.578125 77.09375 44.375 
Q 74.3125 48.1875 68.609375 48.1875 
Q 61.625 48.1875 57.5625 43.546875 
Q 53.515625 38.921875 53.515625 30.90625 
L 53.515625 0 
L 44.484375 0 
L 44.484375 32.71875 
Q 44.484375 40.625 41.703125 44.40625 
Q 38.921875 48.1875 33.109375 48.1875 
Q 26.21875 48.1875 22.15625 43.53125 
Q 18.109375 38.875 18.109375 30.90625 
L 18.109375 0 
L 9.078125 0 
L 9.078125 54.6875 
L 18.109375 54.6875 
L 18.109375 46.1875 
Q 21.1875 51.21875 25.484375 53.609375 
Q 29.78125 56 35.6875 56 
Q 41.65625 56 45.828125 52.96875 
Q 50 49.953125 52 44.1875 
z
" id="DejaVuSans-109"/>
     </defs>
     <g transform="translate(18.315313 168.924688)rotate(-90)scale(0.1 -0.1)">
      <use xlink:href="#DejaVuSans-82"/>
      <use x="64.982422" xlink:href="#DejaVuSans-101"/>
      <use x="126.505859" xlink:href="#DejaVuSans-116"/>
      <use x="165.714844" xlink:href="#DejaVuSans-114"/>
      <use x="206.828125" xlink:href="#DejaVuSans-105"/>
      <use x="234.611328" xlink:href="#DejaVuSans-101"/>
      <use x="296.134766" xlink:href="#DejaVuSans-118"/>
      <use x="355.314453" xlink:href="#DejaVuSans-97"/>
      <use x="416.59375" xlink:href="#DejaVuSans-108"/>
      <use x="444.376953" xlink:href="#DejaVuSans-32"/>
      <use x="476.164062" xlink:href="#DejaVuSans-116"/>
      <use x="515.373047" xlink:href="#DejaVuSans-105"/>
      <use x="543.15625" xlink:href="#DejaVuSans-109"/>
      <use x="640.568359" xlink:href="#DejaVuSans-101"/>
     </g>
    </g>
   </g>
   <g id="line2d_12">
    <path clip-path="url(#p4e91bfe471)" d="M 44.12 219.993762 
L 49.305283 170.887103 
L 54.490566 178.955564 
L 59.675849 199.629881 
L 64.861132 117.910296 
L 70.046415 142.08106 
L 75.231698 195.725768 
L 80.416981 195.671053 
L 85.602264 181.996812 
L 90.787547 196.525214 
L 95.97283 197.431322 
L 101.158113 190.3641 
L 106.343396 191.267365 
L 111.528679 204.228825 
L 116.713962 215.729917 
L 121.899245 215.340843 
L 127.084528 201.231159 
L 132.269811 212.62791 
L 137.455094 189.582627 
L 142.640377 219.691357 
L 147.82566 221.148724 
L 153.010943 206.212989 
L 158.196226 218.624662 
L 163.381509 219.385791 
L 168.566792 223.875999 
L 173.752075 217.925211 
L 178.937359 228.673775 
L 184.122642 222.263583 
L 189.307925 223.49157 
L 194.493208 225.43423 
L 199.678491 217.892716 
L 204.863774 212.767251 
L 210.049057 199.570955 
L 215.23434 199.65508 
L 220.419623 209.422032 
L 225.604906 211.552971 
L 230.790189 202.02772 
L 235.975472 211.628579 
L 241.160755 215.384531 
L 246.346038 219.24484 
L 251.531321 210.134805 
L 256.716604 213.69414 
L 261.901887 214.361822 
L 267.08717 207.63038 
L 272.272453 210.834252 
L 277.457736 216.933886 
L 282.643019 209.308572 
L 287.828302 230.563498 
L 293.013585 204.74342 
" style="fill:none;stroke:#1f77b4;stroke-linecap:square;stroke-width:1.5;"/>
   </g>
   <g id="line2d_13">
    <path clip-path="url(#p4e91bfe471)" d="M 44.12 150.760426 
L 49.305283 177.554236 
L 54.490566 101.786821 
L 59.675849 189.223194 
L 64.861132 158.245699 
L 70.046415 179.180112 
L 75.231698 187.850677 
L 80.416981 188.995958 
L 85.602264 186.934267 
L 90.787547 197.55351 
L 95.97283 201.466718 
L 101.158113 199.153735 
L 106.343396 195.2783 
L 111.528679 195.121599 
L 116.713962 195.239357 
L 121.899245 220.142418 
L 127.084528 211.735642 
L 132.269811 222.154836 
L 137.455094 215.093396 
L 142.640377 220.434833 
L 147.82566 209.488945 
L 153.010943 205.122277 
L 158.196226 209.553622 
L 163.381509 216.454763 
L 168.566792 220.890499 
L 173.752075 216.01538 
L 178.937359 228.139658 
L 184.122642 223.238059 
L 189.307925 221.202962 
L 194.493208 231.191854 
L 199.678491 221.693856 
L 204.863774 210.035828 
L 210.049057 213.365013 
L 215.23434 215.658538 
L 220.419623 204.594481 
L 225.604906 204.594339 
L 230.790189 210.272204 
L 235.975472 219.795989 
L 241.160755 204.30738 
L 246.346038 211.066344 
L 251.531321 217.532532 
L 256.716604 220.279845 
L 261.901887 214.137221 
L 267.08717 216.707565 
L 272.272453 221.02319 
L 277.457736 206.842411 
L 282.643019 214.484653 
L 287.828302 225.735015 
L 293.013585 203.120284 
" style="fill:none;stroke:#ff7f0e;stroke-linecap:square;stroke-width:1.5;"/>
   </g>
   <g id="line2d_14">
    <path clip-path="url(#p4e91bfe471)" d="M 54.490566 201.090781 
L 59.675849 197.947667 
L 64.861132 186.933527 
L 70.046415 168.061883 
L 75.231698 178.049865 
L 80.416981 187.467514 
L 85.602264 193.837559 
L 90.787547 210.472577 
L 95.97283 205.785884 
L 101.158113 209.187457 
L 106.343396 201.769472 
L 111.528679 203.031768 
L 116.713962 208.298099 
L 121.899245 222.619983 
L 127.084528 218.921735 
L 132.269811 214.810303 
L 137.455094 209.10839 
L 142.640377 212.035742 
L 147.82566 192.840413 
L 153.010943 219.530197 
L 158.196226 220.07397 
L 163.381509 211.518092 
L 168.566792 218.98324 
L 173.752075 218.097421 
L 178.937359 224.34975 
L 184.122642 219.13771 
L 189.307925 212.655335 
L 194.493208 228.073963 
L 199.678491 224.750267 
L 204.863774 218.443811 
L 210.049057 219.107445 
L 215.23434 219.952337 
L 220.419623 220.284153 
L 225.604906 220.829226 
L 230.790189 217.576964 
L 235.975472 224.334778 
L 241.160755 221.97463 
L 246.346038 225.938343 
L 251.531321 216.819008 
L 256.716604 223.247019 
L 261.901887 223.476661 
L 267.08717 224.268005 
L 272.272453 220.221432 
L 277.457736 218.960166 
L 282.643019 228.489382 
L 287.828302 223.531819 
L 293.013585 217.374336 
" style="fill:none;stroke:#2ca02c;stroke-linecap:square;stroke-width:1.5;"/>
   </g>
   <g id="line2d_15">
    <path clip-path="url(#p4e91bfe471)" d="M 44.12 213.999895 
L 49.305283 195.263115 
L 54.490566 207.415191 
L 59.675849 196.413314 
L 64.861132 168.187879 
L 70.046415 157.966316 
L 75.231698 162.061159 
L 80.416981 184.529854 
L 85.602264 192.168526 
L 90.787547 207.952694 
L 95.97283 212.215007 
L 101.158113 211.672835 
L 106.343396 213.607204 
L 111.528679 215.935557 
L 116.713962 216.329981 
L 121.899245 223.145776 
L 127.084528 221.517645 
L 132.269811 223.053615 
L 137.455094 218.08055 
L 142.640377 221.039653 
L 147.82566 222.123505 
L 153.010943 217.775371 
L 158.196226 226.673279 
L 163.381509 228.502219 
L 168.566792 222.245944 
L 173.752075 206.572451 
L 178.937359 220.069514 
L 184.122642 209.932138 
L 189.307925 226.735809 
L 194.493208 227.834686 
L 199.678491 224.652699 
L 204.863774 228.110334 
L 210.049057 218.024015 
L 215.23434 225.417929 
L 220.419623 222.801064 
L 225.604906 224.374643 
L 230.790189 226.68853 
L 235.975472 226.996897 
L 241.160755 226.354837 
L 246.346038 224.784222 
L 251.531321 227.496149 
L 256.716604 214.416969 
L 261.901887 213.909792 
L 267.08717 223.542626 
L 272.272453 211.460908 
L 277.457736 221.180125 
L 282.643019 226.573518 
L 287.828302 222.053513 
L 293.013585 215.412662 
" style="fill:none;stroke:#d62728;stroke-linecap:square;stroke-width:1.5;"/>
   </g>
   <g id="patch_5">
    <path d="M 44.12 241.72 
L 44.12 25.92 
" style="fill:none;stroke:#000000;stroke-linecap:square;stroke-linejoin:miter;stroke-width:0.8;"/>
   </g>
   <g id="patch_6">
    <path d="M 318.94 241.72 
L 318.94 25.92 
" style="fill:none;stroke:#000000;stroke-linecap:square;stroke-linejoin:miter;stroke-width:0.8;"/>
   </g>
   <g id="patch_7">
    <path d="M 44.12 241.72 
L 318.94 241.72 
" style="fill:none;stroke:#000000;stroke-linecap:square;stroke-linejoin:miter;stroke-width:0.8;"/>
   </g>
   <g id="patch_8">
    <path d="M 44.12 25.92 
L 318.94 25.92 
" style="fill:none;stroke:#000000;stroke-linecap:square;stroke-linejoin:miter;stroke-width:0.8;"/>
   </g>
   <g id="text_14">
    <!-- Average Plot of Retrieval time -->
    <defs>
     <path d="M 34.1875 63.1875 
L 20.796875 26.90625 
L 47.609375 26.90625 
z
M 28.609375 72.90625 
L 39.796875 72.90625 
L 67.578125 0 
L 57.328125 0 
L 50.6875 18.703125 
L 17.828125 18.703125 
L 11.1875 0 
L 0.78125 0 
z
" id="DejaVuSans-65"/>
     <path d="M 45.40625 27.984375 
Q 45.40625 37.75 41.375 43.109375 
Q 37.359375 48.484375 30.078125 48.484375 
Q 22.859375 48.484375 18.828125 43.109375 
Q 14.796875 37.75 14.796875 27.984375 
Q 14.796875 18.265625 18.828125 12.890625 
Q 22.859375 7.515625 30.078125 7.515625 
Q 37.359375 7.515625 41.375 12.890625 
Q 45.40625 18.265625 45.40625 27.984375 
z
M 54.390625 6.78125 
Q 54.390625 -7.171875 48.1875 -13.984375 
Q 42 -20.796875 29.203125 -20.796875 
Q 24.46875 -20.796875 20.265625 -20.09375 
Q 16.0625 -19.390625 12.109375 -17.921875 
L 12.109375 -9.1875 
Q 16.0625 -11.328125 19.921875 -12.34375 
Q 23.78125 -13.375 27.78125 -13.375 
Q 36.625 -13.375 41.015625 -8.765625 
Q 45.40625 -4.15625 45.40625 5.171875 
L 45.40625 9.625 
Q 42.625 4.78125 38.28125 2.390625 
Q 33.9375 0 27.875 0 
Q 17.828125 0 11.671875 7.65625 
Q 5.515625 15.328125 5.515625 27.984375 
Q 5.515625 40.671875 11.671875 48.328125 
Q 17.828125 56 27.875 56 
Q 33.9375 56 38.28125 53.609375 
Q 42.625 51.21875 45.40625 46.390625 
L 45.40625 54.6875 
L 54.390625 54.6875 
z
" id="DejaVuSans-103"/>
    </defs>
    <g transform="translate(91.952813 19.92)scale(0.12 -0.12)">
     <use xlink:href="#DejaVuSans-65"/>
     <use x="62.533203" xlink:href="#DejaVuSans-118"/>
     <use x="121.712891" xlink:href="#DejaVuSans-101"/>
     <use x="183.236328" xlink:href="#DejaVuSans-114"/>
     <use x="224.349609" xlink:href="#DejaVuSans-97"/>
     <use x="285.628906" xlink:href="#DejaVuSans-103"/>
     <use x="349.105469" xlink:href="#DejaVuSans-101"/>
     <use x="410.628906" xlink:href="#DejaVuSans-32"/>
     <use x="442.416016" xlink:href="#DejaVuSans-80"/>
     <use x="502.71875" xlink:href="#DejaVuSans-108"/>
     <use x="530.501953" xlink:href="#DejaVuSans-111"/>
     <use x="591.683594" xlink:href="#DejaVuSans-116"/>
     <use x="630.892578" xlink:href="#DejaVuSans-32"/>
     <use x="662.679688" xlink:href="#DejaVuSans-111"/>
     <use x="723.861328" xlink:href="#DejaVuSans-102"/>
     <use x="759.066406" xlink:href="#DejaVuSans-32"/>
     <use x="790.853516" xlink:href="#DejaVuSans-82"/>
     <use x="855.835938" xlink:href="#DejaVuSans-101"/>
     <use x="917.359375" xlink:href="#DejaVuSans-116"/>
     <use x="956.568359" xlink:href="#DejaVuSans-114"/>
     <use x="997.681641" xlink:href="#DejaVuSans-105"/>
     <use x="1025.464844" xlink:href="#DejaVuSans-101"/>
     <use x="1086.988281" xlink:href="#DejaVuSans-118"/>
     <use x="1146.167969" xlink:href="#DejaVuSans-97"/>
     <use x="1207.447266" xlink:href="#DejaVuSans-108"/>
     <use x="1235.230469" xlink:href="#DejaVuSans-32"/>
     <use x="1267.017578" xlink:href="#DejaVuSans-116"/>
     <use x="1306.226562" xlink:href="#DejaVuSans-105"/>
     <use x="1334.009766" xlink:href="#DejaVuSans-109"/>
     <use x="1431.421875" xlink:href="#DejaVuSans-101"/>
    </g>
   </g>
   <g id="legend_1">
    <g id="patch_9">
     <path d="M 325.94 108.423125 
L 441.561875 108.423125 
Q 443.561875 108.423125 443.561875 106.423125 
L 443.561875 32.92 
Q 443.561875 30.92 441.561875 30.92 
L 325.94 30.92 
Q 323.94 30.92 323.94 32.92 
L 323.94 106.423125 
Q 323.94 108.423125 325.94 108.423125 
z
" style="fill:#ffffff;opacity:0.8;stroke:#cccccc;stroke-linejoin:miter;"/>
    </g>
    <g id="line2d_16">
     <path d="M 327.94 39.018438 
L 347.94 39.018438 
" style="fill:none;stroke:#1f77b4;stroke-linecap:square;stroke-width:1.5;"/>
    </g>
    <g id="line2d_17"/>
    <g id="text_15">
     <!-- F_SHAM (±SEM) -->
     <defs>
      <path d="M 9.8125 72.90625 
L 51.703125 72.90625 
L 51.703125 64.59375 
L 19.671875 64.59375 
L 19.671875 43.109375 
L 48.578125 43.109375 
L 48.578125 34.8125 
L 19.671875 34.8125 
L 19.671875 0 
L 9.8125 0 
z
" id="DejaVuSans-70"/>
      <path d="M 50.984375 -16.609375 
L 50.984375 -23.578125 
L -0.984375 -23.578125 
L -0.984375 -16.609375 
z
" id="DejaVuSans-95"/>
      <path d="M 53.515625 70.515625 
L 53.515625 60.890625 
Q 47.90625 63.578125 42.921875 64.890625 
Q 37.9375 66.21875 33.296875 66.21875 
Q 25.25 66.21875 20.875 63.09375 
Q 16.5 59.96875 16.5 54.203125 
Q 16.5 49.359375 19.40625 46.890625 
Q 22.3125 44.4375 30.421875 42.921875 
L 36.375 41.703125 
Q 47.40625 39.59375 52.65625 34.296875 
Q 57.90625 29 57.90625 20.125 
Q 57.90625 9.515625 50.796875 4.046875 
Q 43.703125 -1.421875 29.984375 -1.421875 
Q 24.8125 -1.421875 18.96875 -0.25 
Q 13.140625 0.921875 6.890625 3.21875 
L 6.890625 13.375 
Q 12.890625 10.015625 18.65625 8.296875 
Q 24.421875 6.59375 29.984375 6.59375 
Q 38.421875 6.59375 43.015625 9.90625 
Q 47.609375 13.234375 47.609375 19.390625 
Q 47.609375 24.75 44.3125 27.78125 
Q 41.015625 30.8125 33.5 32.328125 
L 27.484375 33.5 
Q 16.453125 35.6875 11.515625 40.375 
Q 6.59375 45.0625 6.59375 53.421875 
Q 6.59375 63.09375 13.40625 68.65625 
Q 20.21875 74.21875 32.171875 74.21875 
Q 37.3125 74.21875 42.625 73.28125 
Q 47.953125 72.359375 53.515625 70.515625 
z
" id="DejaVuSans-83"/>
      <path d="M 31 75.875 
Q 24.46875 64.65625 21.28125 53.65625 
Q 18.109375 42.671875 18.109375 31.390625 
Q 18.109375 20.125 21.3125 9.0625 
Q 24.515625 -2 31 -13.1875 
L 23.1875 -13.1875 
Q 15.875 -1.703125 12.234375 9.375 
Q 8.59375 20.453125 8.59375 31.390625 
Q 8.59375 42.28125 12.203125 53.3125 
Q 15.828125 64.359375 23.1875 75.875 
z
" id="DejaVuSans-40"/>
      <path d="M 46 62.703125 
L 46 43.796875 
L 73.1875 43.796875 
L 73.1875 35.5 
L 46 35.5 
L 46 16.609375 
L 37.796875 16.609375 
L 37.796875 35.5 
L 10.59375 35.5 
L 10.59375 43.796875 
L 37.796875 43.796875 
L 37.796875 62.703125 
z
M 10.59375 8.296875 
L 73.1875 8.296875 
L 73.1875 0 
L 10.59375 0 
z
" id="DejaVuSans-177"/>
      <path d="M 9.8125 72.90625 
L 55.90625 72.90625 
L 55.90625 64.59375 
L 19.671875 64.59375 
L 19.671875 43.015625 
L 54.390625 43.015625 
L 54.390625 34.71875 
L 19.671875 34.71875 
L 19.671875 8.296875 
L 56.78125 8.296875 
L 56.78125 0 
L 9.8125 0 
z
" id="DejaVuSans-69"/>
      <path d="M 8.015625 75.875 
L 15.828125 75.875 
Q 23.140625 64.359375 26.78125 53.3125 
Q 30.421875 42.28125 30.421875 31.390625 
Q 30.421875 20.453125 26.78125 9.375 
Q 23.140625 -1.703125 15.828125 -13.1875 
L 8.015625 -13.1875 
Q 14.5 -2 17.703125 9.0625 
Q 20.90625 20.125 20.90625 31.390625 
Q 20.90625 42.671875 17.703125 53.65625 
Q 14.5 64.65625 8.015625 75.875 
z
" id="DejaVuSans-41"/>
     </defs>
     <g transform="translate(355.94 42.518438)scale(0.1 -0.1)">
      <use xlink:href="#DejaVuSans-70"/>
      <use x="57.519531" xlink:href="#DejaVuSans-95"/>
      <use x="107.519531" xlink:href="#DejaVuSans-83"/>
      <use x="170.996094" xlink:href="#DejaVuSans-72"/>
      <use x="246.191406" xlink:href="#DejaVuSans-65"/>
      <use x="314.599609" xlink:href="#DejaVuSans-77"/>
      <use x="400.878906" xlink:href="#DejaVuSans-32"/>
      <use x="432.666016" xlink:href="#DejaVuSans-40"/>
      <use x="471.679688" xlink:href="#DejaVuSans-177"/>
      <use x="555.46875" xlink:href="#DejaVuSans-83"/>
      <use x="618.945312" xlink:href="#DejaVuSans-69"/>
      <use x="682.128906" xlink:href="#DejaVuSans-77"/>
      <use x="768.408203" xlink:href="#DejaVuSans-41"/>
     </g>
    </g>
    <g id="line2d_18">
     <path d="M 327.94 53.974688 
L 347.94 53.974688 
" style="fill:none;stroke:#ff7f0e;stroke-linecap:square;stroke-width:1.5;"/>
    </g>
    <g id="line2d_19"/>
    <g id="text_16">
     <!-- F_SNI (±SEM) -->
     <defs>
      <path d="M 9.8125 72.90625 
L 23.09375 72.90625 
L 55.421875 11.921875 
L 55.421875 72.90625 
L 64.984375 72.90625 
L 64.984375 0 
L 51.703125 0 
L 19.390625 60.984375 
L 19.390625 0 
L 9.8125 0 
z
" id="DejaVuSans-78"/>
      <path d="M 9.8125 72.90625 
L 19.671875 72.90625 
L 19.671875 0 
L 9.8125 0 
z
" id="DejaVuSans-73"/>
     </defs>
     <g transform="translate(355.94 57.474688)scale(0.1 -0.1)">
      <use xlink:href="#DejaVuSans-70"/>
      <use x="57.519531" xlink:href="#DejaVuSans-95"/>
      <use x="107.519531" xlink:href="#DejaVuSans-83"/>
      <use x="170.996094" xlink:href="#DejaVuSans-78"/>
      <use x="245.800781" xlink:href="#DejaVuSans-73"/>
      <use x="275.292969" xlink:href="#DejaVuSans-32"/>
      <use x="307.080078" xlink:href="#DejaVuSans-40"/>
      <use x="346.09375" xlink:href="#DejaVuSans-177"/>
      <use x="429.882812" xlink:href="#DejaVuSans-83"/>
      <use x="493.359375" xlink:href="#DejaVuSans-69"/>
      <use x="556.542969" xlink:href="#DejaVuSans-77"/>
      <use x="642.822266" xlink:href="#DejaVuSans-41"/>
     </g>
    </g>
    <g id="line2d_20">
     <path d="M 327.94 68.930937 
L 347.94 68.930937 
" style="fill:none;stroke:#2ca02c;stroke-linecap:square;stroke-width:1.5;"/>
    </g>
    <g id="line2d_21"/>
    <g id="text_17">
     <!-- M_SHAM (±SEM) -->
     <g transform="translate(355.94 72.430937)scale(0.1 -0.1)">
      <use xlink:href="#DejaVuSans-77"/>
      <use x="86.279297" xlink:href="#DejaVuSans-95"/>
      <use x="136.279297" xlink:href="#DejaVuSans-83"/>
      <use x="199.755859" xlink:href="#DejaVuSans-72"/>
      <use x="274.951172" xlink:href="#DejaVuSans-65"/>
      <use x="343.359375" xlink:href="#DejaVuSans-77"/>
      <use x="429.638672" xlink:href="#DejaVuSans-32"/>
      <use x="461.425781" xlink:href="#DejaVuSans-40"/>
      <use x="500.439453" xlink:href="#DejaVuSans-177"/>
      <use x="584.228516" xlink:href="#DejaVuSans-83"/>
      <use x="647.705078" xlink:href="#DejaVuSans-69"/>
      <use x="710.888672" xlink:href="#DejaVuSans-77"/>
      <use x="797.167969" xlink:href="#DejaVuSans-41"/>
     </g>
    </g>
    <g id="line2d_22">
     <path d="M 327.94 83.887188 
L 347.94 83.887188 
" style="fill:none;stroke:#d62728;stroke-linecap:square;stroke-width:1.5;"/>
    </g>
    <g id="line2d_23"/>
    <g id="text_18">
     <!-- M_SNI (±SEM) -->
     <g transform="translate(355.94 87.387188)scale(0.1 -0.1)">
      <use xlink:href="#DejaVuSans-77"/>
      <use x="86.279297" xlink:href="#DejaVuSans-95"/>
      <use x="136.279297" xlink:href="#DejaVuSans-83"/>
      <use x="199.755859" xlink:href="#DejaVuSans-78"/>
      <use x="274.560547" xlink:href="#DejaVuSans-73"/>
      <use x="304.052734" xlink:href="#DejaVuSans-32"/>
      <use x="335.839844" xlink:href="#DejaVuSans-40"/>
      <use x="374.853516" xlink:href="#DejaVuSans-177"/>
      <use x="458.642578" xlink:href="#DejaVuSans-83"/>
      <use x="522.119141" xlink:href="#DejaVuSans-69"/>
      <use x="585.302734" xlink:href="#DejaVuSans-77"/>
      <use x="671.582031" xlink:href="#DejaVuSans-41"/>
     </g>
    </g>
    <g id="patch_10">
     <path d="M 327.94 102.343437 
L 347.94 102.343437 
L 347.94 95.343437 
L 327.94 95.343437 
z
" style="fill:#808080;opacity:0.2;stroke:#808080;stroke-linejoin:miter;"/>
    </g>
    <g id="text_19">
     <!-- lights off -->
     <defs>
      <path d="M 54.890625 33.015625 
L 54.890625 0 
L 45.90625 0 
L 45.90625 32.71875 
Q 45.90625 40.484375 42.875 44.328125 
Q 39.84375 48.1875 33.796875 48.1875 
Q 26.515625 48.1875 22.3125 43.546875 
Q 18.109375 38.921875 18.109375 30.90625 
L 18.109375 0 
L 9.078125 0 
L 9.078125 75.984375 
L 18.109375 75.984375 
L 18.109375 46.1875 
Q 21.34375 51.125 25.703125 53.5625 
Q 30.078125 56 35.796875 56 
Q 45.21875 56 50.046875 50.171875 
Q 54.890625 44.34375 54.890625 33.015625 
z
" id="DejaVuSans-104"/>
     </defs>
     <g transform="translate(355.94 102.343437)scale(0.1 -0.1)">
      <use xlink:href="#DejaVuSans-108"/>
      <use x="27.783203" xlink:href="#DejaVuSans-105"/>
      <use x="55.566406" xlink:href="#DejaVuSans-103"/>
      <use x="119.042969" xlink:href="#DejaVuSans-104"/>
      <use x="182.421875" xlink:href="#DejaVuSans-116"/>
      <use x="221.630859" xlink:href="#DejaVuSans-115"/>
      <use x="273.730469" xlink:href="#DejaVuSans-32"/>
      <use x="305.517578" xlink:href="#DejaVuSans-111"/>
      <use x="366.699219" xlink:href="#DejaVuSans-102"/>
      <use x="401.904297" xlink:href="#DejaVuSans-102"/>
     </g>
    </g>
   </g>
  </g>
 </g>
 <defs>
  <clipPath id="p4e91bfe471">
   <rect height="215.8" width="274.82" x="44.12" y="25.92"/>
  </clipPath>
 </defs>
</svg>
