<?xml version="1.0" encoding="utf-8" standalone="no"?>
<!DOCTYPE svg PUBLIC "-//W3C//DTD SVG 1.1//EN"
  "http://www.w3.org/Graphics/SVG/1.1/DTD/svg11.dtd">
<!-- Created with matplotlib (https://matplotlib.org/) -->
<svg height="282.72pt" version="1.1" viewBox="0 0 454.08 282.72" width="454.08pt" xmlns="http://www.w3.org/2000/svg" xmlns:xlink="http://www.w3.org/1999/xlink">
 <defs>
  <style type="text/css">
*{stroke-linecap:butt;stroke-linejoin:round;}
  </style>
 </defs>
 <g id="figure_1">
  <g id="patch_1">
   <path d="M 0 282.72 
L 454.08 282.72 
L 454.08 0 
L 0 0 
z
" style="fill:#ffffff;"/>
  </g>
  <g id="axes_1">
   <g id="patch_2">
    <path d="M 50.48 241.72 
L 318.94 241.72 
L 318.94 25.92 
L 50.48 25.92 
z
" style="fill:#ffffff;"/>
   </g>
   <g id="patch_3">
    <path clip-path="url(#p3b43f4d341)" d="M 85.936981 241.72 
L 85.936981 25.92 
L 146.720377 25.92 
L 146.720377 241.72 
z
" style="fill:#808080;opacity:0.2;stroke:#808080;stroke-linejoin:miter;"/>
   </g>
   <g id="patch_4">
    <path clip-path="url(#p3b43f4d341)" d="M 207.503774 241.72 
L 207.503774 25.92 
L 268.28717 25.92 
L 268.28717 241.72 
z
" style="fill:#808080;opacity:0.2;stroke:#808080;stroke-linejoin:miter;"/>
   </g>
   <g id="PolyCollection_1">
    <defs>
     <path d="M 50.48 -70.391446 
L 50.48 -150.186448 
L 55.545283 -137.93257 
L 60.610566 -188.888469 
L 65.675849 -171.751238 
L 70.741132 -190.587293 
L 75.806415 -191.093558 
L 80.871698 -180.798856 
L 85.936981 -193.79709 
L 91.002264 -205.553515 
L 96.067547 -193.333705 
L 101.13283 -214.708504 
L 106.198113 -213.288749 
L 111.263396 -216.178967 
L 116.328679 -212.610594 
L 121.393962 -218.735977 
L 126.459245 -214.573635 
L 131.524528 -213.542761 
L 136.589811 -206.947797 
L 141.655094 -211.705288 
L 146.720377 -224.16887 
L 151.78566 -206.799936 
L 156.850943 -201.121978 
L 161.916226 -208.436785 
L 166.981509 -209.047847 
L 172.046792 -209.43396 
L 177.112075 -211.727301 
L 182.177359 -212.109007 
L 187.242642 -190.626014 
L 192.307925 -219.523008 
L 197.373208 -214.918248 
L 202.438491 -222.705828 
L 207.503774 -223.816643 
L 212.569057 -193.777986 
L 217.63434 -208.608297 
L 222.699623 -189.697717 
L 227.764906 -204.424784 
L 232.830189 -192.415585 
L 237.895472 -199.023881 
L 242.960755 -208.790881 
L 248.026038 -201.726135 
L 253.091321 -210.364635 
L 258.156604 -200.885834 
L 263.221887 -195.926443 
L 268.28717 -194.040503 
L 273.352453 -183.360923 
L 278.417736 -211.054453 
L 283.483019 -198.165047 
L 288.548302 -209.439647 
L 293.613585 -189.084804 
L 293.613585 -165.548469 
L 293.613585 -165.548469 
L 288.548302 -182.952113 
L 283.483019 -172.91649 
L 278.417736 -188.138156 
L 273.352453 -157.739763 
L 268.28717 -174.130805 
L 263.221887 -173.931693 
L 258.156604 -181.581358 
L 253.091321 -193.268403 
L 248.026038 -178.264857 
L 242.960755 -189.937983 
L 237.895472 -178.151227 
L 232.830189 -174.814318 
L 227.764906 -188.998408 
L 222.699623 -175.237415 
L 217.63434 -194.836881 
L 212.569057 -175.880876 
L 207.503774 -206.650374 
L 202.438491 -206.28443 
L 197.373208 -200.489428 
L 192.307925 -203.873922 
L 187.242642 -168.57477 
L 182.177359 -191.82931 
L 177.112075 -185.667412 
L 172.046792 -184.415616 
L 166.981509 -189.489298 
L 161.916226 -187.326025 
L 156.850943 -176.828001 
L 151.78566 -191.753888 
L 146.720377 -209.616495 
L 141.655094 -195.464636 
L 136.589811 -194.427186 
L 131.524528 -196.070906 
L 126.459245 -196.996373 
L 121.393962 -205.35936 
L 116.328679 -200.220545 
L 111.263396 -205.147661 
L 106.198113 -202.230749 
L 101.13283 -204.103659 
L 96.067547 -176.02367 
L 91.002264 -191.298763 
L 85.936981 -176.183063 
L 80.871698 -160.795568 
L 75.806415 -169.434806 
L 70.741132 -169.844634 
L 65.675849 -134.90986 
L 60.610566 -155.688162 
L 55.545283 -77.253086 
L 50.48 -70.391446 
z
" id="ma9f7a6d27f" style="stroke:#1f77b4;stroke-opacity:0.3;"/>
    </defs>
    <g clip-path="url(#p3b43f4d341)">
     <use style="fill:#1f77b4;fill-opacity:0.3;stroke:#1f77b4;stroke-opacity:0.3;" x="0" xlink:href="#ma9f7a6d27f" y="282.72"/>
    </g>
   </g>
   <g id="PolyCollection_2">
    <defs>
     <path d="M 50.48 -78.148062 
L 50.48 -116.505574 
L 55.545283 -99.41342 
L 60.610566 -153.679059 
L 65.675849 -164.787155 
L 70.741132 -181.79122 
L 75.806415 -178.916074 
L 80.871698 -188.379973 
L 85.936981 -188.78055 
L 91.002264 -188.781188 
L 96.067547 -203.673261 
L 101.13283 -208.471791 
L 106.198113 -202.932133 
L 111.263396 -206.885884 
L 116.328679 -203.021375 
L 121.393962 -212.231237 
L 126.459245 -231.354601 
L 131.524528 -215.476882 
L 136.589811 -218.876638 
L 141.655094 -221.348752 
L 146.720377 -208.049669 
L 151.78566 -222.89633 
L 156.850943 -225.005515 
L 161.916226 -207.919139 
L 166.981509 -222.133542 
L 172.046792 -228.050897 
L 177.112075 -217.695903 
L 182.177359 -230.094807 
L 187.242642 -219.485081 
L 192.307925 -219.233536 
L 197.373208 -228.564446 
L 202.438491 -226.632541 
L 207.503774 -214.131759 
L 212.569057 -222.72514 
L 217.63434 -200.922604 
L 222.699623 -209.72176 
L 227.764906 -206.650336 
L 232.830189 -189.96043 
L 237.895472 -217.988018 
L 242.960755 -215.102987 
L 248.026038 -209.587367 
L 253.091321 -221.823457 
L 258.156604 -200.585787 
L 263.221887 -196.41847 
L 268.28717 -199.915959 
L 273.352453 -210.213463 
L 278.417736 -199.949714 
L 283.483019 -214.610906 
L 288.548302 -214.079891 
L 293.613585 -212.347105 
L 293.613585 -188.63127 
L 293.613585 -188.63127 
L 288.548302 -195.24945 
L 283.483019 -192.141837 
L 278.417736 -171.725427 
L 273.352453 -193.553009 
L 268.28717 -179.030924 
L 263.221887 -173.445826 
L 258.156604 -180.286447 
L 253.091321 -204.477117 
L 248.026038 -194.079613 
L 242.960755 -201.899805 
L 237.895472 -199.443109 
L 232.830189 -170.823893 
L 227.764906 -193.283932 
L 222.699623 -192.42222 
L 217.63434 -183.250569 
L 212.569057 -206.963691 
L 207.503774 -201.588963 
L 202.438491 -212.150406 
L 197.373208 -216.584782 
L 192.307925 -205.639803 
L 187.242642 -200.952509 
L 182.177359 -213.29568 
L 177.112075 -198.48212 
L 172.046792 -214.296651 
L 166.981509 -197.694081 
L 161.916226 -183.879124 
L 156.850943 -208.52848 
L 151.78566 -203.977144 
L 146.720377 -187.572801 
L 141.655094 -207.012313 
L 136.589811 -207.675253 
L 131.524528 -196.809227 
L 126.459245 -220.397795 
L 121.393962 -199.477059 
L 116.328679 -188.629544 
L 111.263396 -193.649222 
L 106.198113 -185.848295 
L 101.13283 -194.680412 
L 96.067547 -188.294062 
L 91.002264 -175.007832 
L 85.936981 -170.353748 
L 80.871698 -166.622352 
L 75.806415 -155.062831 
L 70.741132 -159.656531 
L 65.675849 -131.57917 
L 60.610566 -127.772456 
L 55.545283 -66.806047 
L 50.48 -78.148062 
z
" id="m495adee80c" style="stroke:#ff7f0e;stroke-opacity:0.3;"/>
    </defs>
    <g clip-path="url(#p3b43f4d341)">
     <use style="fill:#ff7f0e;fill-opacity:0.3;stroke:#ff7f0e;stroke-opacity:0.3;" x="0" xlink:href="#m495adee80c" y="282.72"/>
    </g>
   </g>
   <g id="PolyCollection_3">
    <defs>
     <path d="M 55.545283 -56.185409 
L 55.545283 -67.853552 
L 60.610566 -182.266316 
L 65.675849 -191.892807 
L 70.741132 -176.143069 
L 75.806415 -182.925448 
L 80.871698 -189.969924 
L 85.936981 -188.575077 
L 91.002264 -195.337856 
L 96.067547 -200.130463 
L 101.13283 -208.595451 
L 106.198113 -203.424881 
L 111.263396 -208.339596 
L 116.328679 -211.840024 
L 121.393962 -214.818778 
L 126.459245 -234.84257 
L 131.524528 -219.113985 
L 136.589811 -210.810623 
L 141.655094 -208.291759 
L 146.720377 -211.587039 
L 151.78566 -220.422243 
L 156.850943 -209.814681 
L 161.916226 -221.80037 
L 166.981509 -214.588872 
L 172.046792 -210.109621 
L 177.112075 -213.064449 
L 182.177359 -222.923527 
L 187.242642 -218.809885 
L 192.307925 -211.076172 
L 197.373208 -226.580678 
L 202.438491 -233.293385 
L 207.503774 -224.517264 
L 212.569057 -209.751363 
L 217.63434 -211.604415 
L 222.699623 -207.40666 
L 227.764906 -204.125889 
L 232.830189 -208.937578 
L 237.895472 -223.493558 
L 242.960755 -201.594824 
L 248.026038 -216.777 
L 253.091321 -224.718842 
L 258.156604 -212.377687 
L 263.221887 -198.567906 
L 268.28717 -195.581588 
L 273.352453 -218.877144 
L 278.417736 -217.389854 
L 283.483019 -228.051704 
L 288.548302 -210.409167 
L 293.613585 -205.352267 
L 293.613585 -179.414612 
L 293.613585 -179.414612 
L 288.548302 -187.902026 
L 283.483019 -207.119587 
L 278.417736 -193.43615 
L 273.352453 -204.776788 
L 268.28717 -179.952361 
L 263.221887 -179.62326 
L 258.156604 -197.168435 
L 253.091321 -212.01846 
L 248.026038 -205.859375 
L 242.960755 -182.765465 
L 237.895472 -210.266921 
L 232.830189 -194.758088 
L 227.764906 -187.278571 
L 222.699623 -191.396321 
L 217.63434 -198.139696 
L 212.569057 -196.624051 
L 207.503774 -212.042324 
L 202.438491 -218.214592 
L 197.373208 -212.147682 
L 192.307925 -188.894615 
L 187.242642 -201.507125 
L 182.177359 -201.053272 
L 177.112075 -190.494678 
L 172.046792 -184.772777 
L 166.981509 -194.270327 
L 161.916226 -202.550256 
L 156.850943 -185.12739 
L 151.78566 -202.915836 
L 146.720377 -194.481649 
L 141.655094 -191.565653 
L 136.589811 -194.642047 
L 131.524528 -204.408114 
L 126.459245 -221.354509 
L 121.393962 -198.890382 
L 116.328679 -194.626747 
L 111.263396 -196.733999 
L 106.198113 -186.376669 
L 101.13283 -195.612408 
L 96.067547 -185.134203 
L 91.002264 -176.991439 
L 85.936981 -168.570601 
L 80.871698 -168.250057 
L 75.806415 -163.710169 
L 70.741132 -152.845393 
L 65.675849 -157.753612 
L 60.610566 -121.690906 
L 55.545283 -56.185409 
z
" id="m2a1602e641" style="stroke:#2ca02c;stroke-opacity:0.3;"/>
    </defs>
    <g clip-path="url(#p3b43f4d341)">
     <use style="fill:#2ca02c;fill-opacity:0.3;stroke:#2ca02c;stroke-opacity:0.3;" x="0" xlink:href="#m2a1602e641" y="282.72"/>
    </g>
   </g>
   <g id="PolyCollection_4">
    <defs>
     <path d="M 50.48 -76.587776 
L 50.48 -112.972825 
L 55.545283 -155.624123 
L 60.610566 -169.768903 
L 65.675849 -163.77681 
L 70.741132 -181.830532 
L 75.806415 -166.345968 
L 80.871698 -173.847282 
L 85.936981 -166.632959 
L 91.002264 -177.446949 
L 96.067547 -191.464298 
L 101.13283 -198.08992 
L 106.198113 -204.49874 
L 111.263396 -210.06179 
L 116.328679 -192.615816 
L 121.393962 -203.524106 
L 126.459245 -204.449336 
L 131.524528 -214.247185 
L 136.589811 -207.781986 
L 141.655094 -202.376179 
L 146.720377 -210.221025 
L 151.78566 -196.643019 
L 156.850943 -213.571571 
L 161.916226 -222.49659 
L 166.981509 -221.612685 
L 172.046792 -199.302197 
L 177.112075 -213.568443 
L 182.177359 -183.669751 
L 187.242642 -207.825547 
L 192.307925 -219.019142 
L 197.373208 -229.177137 
L 202.438491 -227.653162 
L 207.503774 -223.914199 
L 212.569057 -209.677185 
L 217.63434 -216.99623 
L 222.699623 -216.972549 
L 227.764906 -208.650492 
L 232.830189 -212.615446 
L 237.895472 -215.385323 
L 242.960755 -226.276124 
L 248.026038 -215.945338 
L 253.091321 -207.204542 
L 258.156604 -213.742128 
L 263.221887 -207.675416 
L 268.28717 -208.886914 
L 273.352453 -221.063333 
L 278.417736 -199.695278 
L 283.483019 -219.43638 
L 288.548302 -183.290688 
L 293.613585 -201.299198 
L 293.613585 -176.703849 
L 293.613585 -176.703849 
L 288.548302 -150.459589 
L 283.483019 -196.723819 
L 278.417736 -174.952112 
L 273.352453 -197.542587 
L 268.28717 -188.28088 
L 263.221887 -189.868844 
L 258.156604 -195.547792 
L 253.091321 -186.923878 
L 248.026038 -199.314148 
L 242.960755 -213.659903 
L 237.895472 -196.88421 
L 232.830189 -193.470215 
L 227.764906 -188.136173 
L 222.699623 -203.577089 
L 217.63434 -200.374566 
L 212.569057 -195.171857 
L 207.503774 -211.967751 
L 202.438491 -217.376567 
L 197.373208 -217.884252 
L 192.307925 -203.381157 
L 187.242642 -184.565645 
L 182.177359 -154.391155 
L 177.112075 -184.778247 
L 172.046792 -170.651764 
L 166.981509 -193.419964 
L 161.916226 -198.870719 
L 156.850943 -187.687997 
L 151.78566 -168.699795 
L 146.720377 -186.406759 
L 141.655094 -178.240188 
L 136.589811 -185.784969 
L 131.524528 -190.566643 
L 126.459245 -179.087463 
L 121.393962 -182.741417 
L 116.328679 -170.480492 
L 111.263396 -192.91393 
L 106.198113 -184.959056 
L 101.13283 -178.212767 
L 96.067547 -170.504672 
L 91.002264 -156.230597 
L 85.936981 -144.757352 
L 80.871698 -149.088533 
L 75.806415 -141.760171 
L 70.741132 -160.099819 
L 65.675849 -119.330079 
L 60.610566 -126.207476 
L 55.545283 -97.928233 
L 50.48 -76.587776 
z
" id="mb393d69aa5" style="stroke:#d62728;stroke-opacity:0.3;"/>
    </defs>
    <g clip-path="url(#p3b43f4d341)">
     <use style="fill:#d62728;fill-opacity:0.3;stroke:#d62728;stroke-opacity:0.3;" x="0" xlink:href="#mb393d69aa5" y="282.72"/>
    </g>
   </g>
   <g id="matplotlib.axis_1">
    <g id="xtick_1">
     <g id="line2d_1">
      <defs>
       <path d="M 0 0 
L 0 3.5 
" id="mc78c2ccaad" style="stroke:#000000;stroke-width:0.8;"/>
      </defs>
      <g>
       <use style="stroke:#000000;stroke-width:0.8;" x="50.48" xlink:href="#mc78c2ccaad" y="241.72"/>
      </g>
     </g>
     <g id="text_1">
      <!-- 0 -->
      <defs>
       <path d="M 31.78125 66.40625 
Q 24.171875 66.40625 20.328125 58.90625 
Q 16.5 51.421875 16.5 36.375 
Q 16.5 21.390625 20.328125 13.890625 
Q 24.171875 6.390625 31.78125 6.390625 
Q 39.453125 6.390625 43.28125 13.890625 
Q 47.125 21.390625 47.125 36.375 
Q 47.125 51.421875 43.28125 58.90625 
Q 39.453125 66.40625 31.78125 66.40625 
z
M 31.78125 74.21875 
Q 44.046875 74.21875 50.515625 64.515625 
Q 56.984375 54.828125 56.984375 36.375 
Q 56.984375 17.96875 50.515625 8.265625 
Q 44.046875 -1.421875 31.78125 -1.421875 
Q 19.53125 -1.421875 13.0625 8.265625 
Q 6.59375 17.96875 6.59375 36.375 
Q 6.59375 54.828125 13.0625 64.515625 
Q 19.53125 74.21875 31.78125 74.21875 
z
" id="DejaVuSans-48"/>
      </defs>
      <g transform="translate(47.29875 256.318438)scale(0.1 -0.1)">
       <use xlink:href="#DejaVuSans-48"/>
      </g>
     </g>
    </g>
    <g id="xtick_2">
     <g id="line2d_2">
      <g>
       <use style="stroke:#000000;stroke-width:0.8;" x="111.263396" xlink:href="#mc78c2ccaad" y="241.72"/>
      </g>
     </g>
     <g id="text_2">
      <!-- 12 -->
      <defs>
       <path d="M 12.40625 8.296875 
L 28.515625 8.296875 
L 28.515625 63.921875 
L 10.984375 60.40625 
L 10.984375 69.390625 
L 28.421875 72.90625 
L 38.28125 72.90625 
L 38.28125 8.296875 
L 54.390625 8.296875 
L 54.390625 0 
L 12.40625 0 
z
" id="DejaVuSans-49"/>
       <path d="M 19.1875 8.296875 
L 53.609375 8.296875 
L 53.609375 0 
L 7.328125 0 
L 7.328125 8.296875 
Q 12.9375 14.109375 22.625 23.890625 
Q 32.328125 33.6875 34.8125 36.53125 
Q 39.546875 41.84375 41.421875 45.53125 
Q 43.3125 49.21875 43.3125 52.78125 
Q 43.3125 58.59375 39.234375 62.25 
Q 35.15625 65.921875 28.609375 65.921875 
Q 23.96875 65.921875 18.8125 64.3125 
Q 13.671875 62.703125 7.8125 59.421875 
L 7.8125 69.390625 
Q 13.765625 71.78125 18.9375 73 
Q 24.125 74.21875 28.421875 74.21875 
Q 39.75 74.21875 46.484375 68.546875 
Q 53.21875 62.890625 53.21875 53.421875 
Q 53.21875 48.921875 51.53125 44.890625 
Q 49.859375 40.875 45.40625 35.40625 
Q 44.1875 33.984375 37.640625 27.21875 
Q 31.109375 20.453125 19.1875 8.296875 
z
" id="DejaVuSans-50"/>
      </defs>
      <g transform="translate(104.900896 256.318438)scale(0.1 -0.1)">
       <use xlink:href="#DejaVuSans-49"/>
       <use x="63.623047" xlink:href="#DejaVuSans-50"/>
      </g>
     </g>
    </g>
    <g id="xtick_3">
     <g id="line2d_3">
      <g>
       <use style="stroke:#000000;stroke-width:0.8;" x="172.046792" xlink:href="#mc78c2ccaad" y="241.72"/>
      </g>
     </g>
     <g id="text_3">
      <!-- 24 -->
      <defs>
       <path d="M 37.796875 64.3125 
L 12.890625 25.390625 
L 37.796875 25.390625 
z
M 35.203125 72.90625 
L 47.609375 72.90625 
L 47.609375 25.390625 
L 58.015625 25.390625 
L 58.015625 17.1875 
L 47.609375 17.1875 
L 47.609375 0 
L 37.796875 0 
L 37.796875 17.1875 
L 4.890625 17.1875 
L 4.890625 26.703125 
z
" id="DejaVuSans-52"/>
      </defs>
      <g transform="translate(165.684292 256.318438)scale(0.1 -0.1)">
       <use xlink:href="#DejaVuSans-50"/>
       <use x="63.623047" xlink:href="#DejaVuSans-52"/>
      </g>
     </g>
    </g>
    <g id="xtick_4">
     <g id="line2d_4">
      <g>
       <use style="stroke:#000000;stroke-width:0.8;" x="232.830189" xlink:href="#mc78c2ccaad" y="241.72"/>
      </g>
     </g>
     <g id="text_4">
      <!-- 36 -->
      <defs>
       <path d="M 40.578125 39.3125 
Q 47.65625 37.796875 51.625 33 
Q 55.609375 28.21875 55.609375 21.1875 
Q 55.609375 10.40625 48.1875 4.484375 
Q 40.765625 -1.421875 27.09375 -1.421875 
Q 22.515625 -1.421875 17.65625 -0.515625 
Q 12.796875 0.390625 7.625 2.203125 
L 7.625 11.71875 
Q 11.71875 9.328125 16.59375 8.109375 
Q 21.484375 6.890625 26.8125 6.890625 
Q 36.078125 6.890625 40.9375 10.546875 
Q 45.796875 14.203125 45.796875 21.1875 
Q 45.796875 27.640625 41.28125 31.265625 
Q 36.765625 34.90625 28.71875 34.90625 
L 20.21875 34.90625 
L 20.21875 43.015625 
L 29.109375 43.015625 
Q 36.375 43.015625 40.234375 45.921875 
Q 44.09375 48.828125 44.09375 54.296875 
Q 44.09375 59.90625 40.109375 62.90625 
Q 36.140625 65.921875 28.71875 65.921875 
Q 24.65625 65.921875 20.015625 65.03125 
Q 15.375 64.15625 9.8125 62.3125 
L 9.8125 71.09375 
Q 15.4375 72.65625 20.34375 73.4375 
Q 25.25 74.21875 29.59375 74.21875 
Q 40.828125 74.21875 47.359375 69.109375 
Q 53.90625 64.015625 53.90625 55.328125 
Q 53.90625 49.265625 50.4375 45.09375 
Q 46.96875 40.921875 40.578125 39.3125 
z
" id="DejaVuSans-51"/>
       <path d="M 33.015625 40.375 
Q 26.375 40.375 22.484375 35.828125 
Q 18.609375 31.296875 18.609375 23.390625 
Q 18.609375 15.53125 22.484375 10.953125 
Q 26.375 6.390625 33.015625 6.390625 
Q 39.65625 6.390625 43.53125 10.953125 
Q 47.40625 15.53125 47.40625 23.390625 
Q 47.40625 31.296875 43.53125 35.828125 
Q 39.65625 40.375 33.015625 40.375 
z
M 52.59375 71.296875 
L 52.59375 62.3125 
Q 48.875 64.0625 45.09375 64.984375 
Q 41.3125 65.921875 37.59375 65.921875 
Q 27.828125 65.921875 22.671875 59.328125 
Q 17.53125 52.734375 16.796875 39.40625 
Q 19.671875 43.65625 24.015625 45.921875 
Q 28.375 48.1875 33.59375 48.1875 
Q 44.578125 48.1875 50.953125 41.515625 
Q 57.328125 34.859375 57.328125 23.390625 
Q 57.328125 12.15625 50.6875 5.359375 
Q 44.046875 -1.421875 33.015625 -1.421875 
Q 20.359375 -1.421875 13.671875 8.265625 
Q 6.984375 17.96875 6.984375 36.375 
Q 6.984375 53.65625 15.1875 63.9375 
Q 23.390625 74.21875 37.203125 74.21875 
Q 40.921875 74.21875 44.703125 73.484375 
Q 48.484375 72.75 52.59375 71.296875 
z
" id="DejaVuSans-54"/>
      </defs>
      <g transform="translate(226.467689 256.318438)scale(0.1 -0.1)">
       <use xlink:href="#DejaVuSans-51"/>
       <use x="63.623047" xlink:href="#DejaVuSans-54"/>
      </g>
     </g>
    </g>
    <g id="xtick_5">
     <g id="line2d_5">
      <g>
       <use style="stroke:#000000;stroke-width:0.8;" x="293.613585" xlink:href="#mc78c2ccaad" y="241.72"/>
      </g>
     </g>
     <g id="text_5">
      <!-- 48 -->
      <defs>
       <path d="M 31.78125 34.625 
Q 24.75 34.625 20.71875 30.859375 
Q 16.703125 27.09375 16.703125 20.515625 
Q 16.703125 13.921875 20.71875 10.15625 
Q 24.75 6.390625 31.78125 6.390625 
Q 38.8125 6.390625 42.859375 10.171875 
Q 46.921875 13.96875 46.921875 20.515625 
Q 46.921875 27.09375 42.890625 30.859375 
Q 38.875 34.625 31.78125 34.625 
z
M 21.921875 38.8125 
Q 15.578125 40.375 12.03125 44.71875 
Q 8.5 49.078125 8.5 55.328125 
Q 8.5 64.0625 14.71875 69.140625 
Q 20.953125 74.21875 31.78125 74.21875 
Q 42.671875 74.21875 48.875 69.140625 
Q 55.078125 64.0625 55.078125 55.328125 
Q 55.078125 49.078125 51.53125 44.71875 
Q 48 40.375 41.703125 38.8125 
Q 48.828125 37.15625 52.796875 32.3125 
Q 56.78125 27.484375 56.78125 20.515625 
Q 56.78125 9.90625 50.3125 4.234375 
Q 43.84375 -1.421875 31.78125 -1.421875 
Q 19.734375 -1.421875 13.25 4.234375 
Q 6.78125 9.90625 6.78125 20.515625 
Q 6.78125 27.484375 10.78125 32.3125 
Q 14.796875 37.15625 21.921875 38.8125 
z
M 18.3125 54.390625 
Q 18.3125 48.734375 21.84375 45.5625 
Q 25.390625 42.390625 31.78125 42.390625 
Q 38.140625 42.390625 41.71875 45.5625 
Q 45.3125 48.734375 45.3125 54.390625 
Q 45.3125 60.0625 41.71875 63.234375 
Q 38.140625 66.40625 31.78125 66.40625 
Q 25.390625 66.40625 21.84375 63.234375 
Q 18.3125 60.0625 18.3125 54.390625 
z
" id="DejaVuSans-56"/>
      </defs>
      <g transform="translate(287.251085 256.318438)scale(0.1 -0.1)">
       <use xlink:href="#DejaVuSans-52"/>
       <use x="63.623047" xlink:href="#DejaVuSans-56"/>
      </g>
     </g>
    </g>
    <g id="text_6">
     <!-- Hours since 12PM on first day -->
     <defs>
      <path d="M 9.8125 72.90625 
L 19.671875 72.90625 
L 19.671875 43.015625 
L 55.515625 43.015625 
L 55.515625 72.90625 
L 65.375 72.90625 
L 65.375 0 
L 55.515625 0 
L 55.515625 34.71875 
L 19.671875 34.71875 
L 19.671875 0 
L 9.8125 0 
z
" id="DejaVuSans-72"/>
      <path d="M 30.609375 48.390625 
Q 23.390625 48.390625 19.1875 42.75 
Q 14.984375 37.109375 14.984375 27.296875 
Q 14.984375 17.484375 19.15625 11.84375 
Q 23.34375 6.203125 30.609375 6.203125 
Q 37.796875 6.203125 41.984375 11.859375 
Q 46.1875 17.53125 46.1875 27.296875 
Q 46.1875 37.015625 41.984375 42.703125 
Q 37.796875 48.390625 30.609375 48.390625 
z
M 30.609375 56 
Q 42.328125 56 49.015625 48.375 
Q 55.71875 40.765625 55.71875 27.296875 
Q 55.71875 13.875 49.015625 6.21875 
Q 42.328125 -1.421875 30.609375 -1.421875 
Q 18.84375 -1.421875 12.171875 6.21875 
Q 5.515625 13.875 5.515625 27.296875 
Q 5.515625 40.765625 12.171875 48.375 
Q 18.84375 56 30.609375 56 
z
" id="DejaVuSans-111"/>
      <path d="M 8.5 21.578125 
L 8.5 54.6875 
L 17.484375 54.6875 
L 17.484375 21.921875 
Q 17.484375 14.15625 20.5 10.265625 
Q 23.53125 6.390625 29.59375 6.390625 
Q 36.859375 6.390625 41.078125 11.03125 
Q 45.3125 15.671875 45.3125 23.6875 
L 45.3125 54.6875 
L 54.296875 54.6875 
L 54.296875 0 
L 45.3125 0 
L 45.3125 8.40625 
Q 42.046875 3.421875 37.71875 1 
Q 33.40625 -1.421875 27.6875 -1.421875 
Q 18.265625 -1.421875 13.375 4.4375 
Q 8.5 10.296875 8.5 21.578125 
z
M 31.109375 56 
z
" id="DejaVuSans-117"/>
      <path d="M 41.109375 46.296875 
Q 39.59375 47.171875 37.8125 47.578125 
Q 36.03125 48 33.890625 48 
Q 26.265625 48 22.1875 43.046875 
Q 18.109375 38.09375 18.109375 28.8125 
L 18.109375 0 
L 9.078125 0 
L 9.078125 54.6875 
L 18.109375 54.6875 
L 18.109375 46.1875 
Q 20.953125 51.171875 25.484375 53.578125 
Q 30.03125 56 36.53125 56 
Q 37.453125 56 38.578125 55.875 
Q 39.703125 55.765625 41.0625 55.515625 
z
" id="DejaVuSans-114"/>
      <path d="M 44.28125 53.078125 
L 44.28125 44.578125 
Q 40.484375 46.53125 36.375 47.5 
Q 32.28125 48.484375 27.875 48.484375 
Q 21.1875 48.484375 17.84375 46.4375 
Q 14.5 44.390625 14.5 40.28125 
Q 14.5 37.15625 16.890625 35.375 
Q 19.28125 33.59375 26.515625 31.984375 
L 29.59375 31.296875 
Q 39.15625 29.25 43.1875 25.515625 
Q 47.21875 21.78125 47.21875 15.09375 
Q 47.21875 7.46875 41.1875 3.015625 
Q 35.15625 -1.421875 24.609375 -1.421875 
Q 20.21875 -1.421875 15.453125 -0.5625 
Q 10.6875 0.296875 5.421875 2 
L 5.421875 11.28125 
Q 10.40625 8.6875 15.234375 7.390625 
Q 20.0625 6.109375 24.8125 6.109375 
Q 31.15625 6.109375 34.5625 8.28125 
Q 37.984375 10.453125 37.984375 14.40625 
Q 37.984375 18.0625 35.515625 20.015625 
Q 33.0625 21.96875 24.703125 23.78125 
L 21.578125 24.515625 
Q 13.234375 26.265625 9.515625 29.90625 
Q 5.8125 33.546875 5.8125 39.890625 
Q 5.8125 47.609375 11.28125 51.796875 
Q 16.75 56 26.8125 56 
Q 31.78125 56 36.171875 55.265625 
Q 40.578125 54.546875 44.28125 53.078125 
z
" id="DejaVuSans-115"/>
      <path id="DejaVuSans-32"/>
      <path d="M 9.421875 54.6875 
L 18.40625 54.6875 
L 18.40625 0 
L 9.421875 0 
z
M 9.421875 75.984375 
L 18.40625 75.984375 
L 18.40625 64.59375 
L 9.421875 64.59375 
z
" id="DejaVuSans-105"/>
      <path d="M 54.890625 33.015625 
L 54.890625 0 
L 45.90625 0 
L 45.90625 32.71875 
Q 45.90625 40.484375 42.875 44.328125 
Q 39.84375 48.1875 33.796875 48.1875 
Q 26.515625 48.1875 22.3125 43.546875 
Q 18.109375 38.921875 18.109375 30.90625 
L 18.109375 0 
L 9.078125 0 
L 9.078125 54.6875 
L 18.109375 54.6875 
L 18.109375 46.1875 
Q 21.34375 51.125 25.703125 53.5625 
Q 30.078125 56 35.796875 56 
Q 45.21875 56 50.046875 50.171875 
Q 54.890625 44.34375 54.890625 33.015625 
z
" id="DejaVuSans-110"/>
      <path d="M 48.78125 52.59375 
L 48.78125 44.1875 
Q 44.96875 46.296875 41.140625 47.34375 
Q 37.3125 48.390625 33.40625 48.390625 
Q 24.65625 48.390625 19.8125 42.84375 
Q 14.984375 37.3125 14.984375 27.296875 
Q 14.984375 17.28125 19.8125 11.734375 
Q 24.65625 6.203125 33.40625 6.203125 
Q 37.3125 6.203125 41.140625 7.25 
Q 44.96875 8.296875 48.78125 10.40625 
L 48.78125 2.09375 
Q 45.015625 0.34375 40.984375 -0.53125 
Q 36.96875 -1.421875 32.421875 -1.421875 
Q 20.0625 -1.421875 12.78125 6.34375 
Q 5.515625 14.109375 5.515625 27.296875 
Q 5.515625 40.671875 12.859375 48.328125 
Q 20.21875 56 33.015625 56 
Q 37.15625 56 41.109375 55.140625 
Q 45.0625 54.296875 48.78125 52.59375 
z
" id="DejaVuSans-99"/>
      <path d="M 56.203125 29.59375 
L 56.203125 25.203125 
L 14.890625 25.203125 
Q 15.484375 15.921875 20.484375 11.0625 
Q 25.484375 6.203125 34.421875 6.203125 
Q 39.59375 6.203125 44.453125 7.46875 
Q 49.3125 8.734375 54.109375 11.28125 
L 54.109375 2.78125 
Q 49.265625 0.734375 44.1875 -0.34375 
Q 39.109375 -1.421875 33.890625 -1.421875 
Q 20.796875 -1.421875 13.15625 6.1875 
Q 5.515625 13.8125 5.515625 26.8125 
Q 5.515625 40.234375 12.765625 48.109375 
Q 20.015625 56 32.328125 56 
Q 43.359375 56 49.78125 48.890625 
Q 56.203125 41.796875 56.203125 29.59375 
z
M 47.21875 32.234375 
Q 47.125 39.59375 43.09375 43.984375 
Q 39.0625 48.390625 32.421875 48.390625 
Q 24.90625 48.390625 20.390625 44.140625 
Q 15.875 39.890625 15.1875 32.171875 
z
" id="DejaVuSans-101"/>
      <path d="M 19.671875 64.796875 
L 19.671875 37.40625 
L 32.078125 37.40625 
Q 38.96875 37.40625 42.71875 40.96875 
Q 46.484375 44.53125 46.484375 51.125 
Q 46.484375 57.671875 42.71875 61.234375 
Q 38.96875 64.796875 32.078125 64.796875 
z
M 9.8125 72.90625 
L 32.078125 72.90625 
Q 44.34375 72.90625 50.609375 67.359375 
Q 56.890625 61.8125 56.890625 51.125 
Q 56.890625 40.328125 50.609375 34.8125 
Q 44.34375 29.296875 32.078125 29.296875 
L 19.671875 29.296875 
L 19.671875 0 
L 9.8125 0 
z
" id="DejaVuSans-80"/>
      <path d="M 9.8125 72.90625 
L 24.515625 72.90625 
L 43.109375 23.296875 
L 61.8125 72.90625 
L 76.515625 72.90625 
L 76.515625 0 
L 66.890625 0 
L 66.890625 64.015625 
L 48.09375 14.015625 
L 38.1875 14.015625 
L 19.390625 64.015625 
L 19.390625 0 
L 9.8125 0 
z
" id="DejaVuSans-77"/>
      <path d="M 37.109375 75.984375 
L 37.109375 68.5 
L 28.515625 68.5 
Q 23.6875 68.5 21.796875 66.546875 
Q 19.921875 64.59375 19.921875 59.515625 
L 19.921875 54.6875 
L 34.71875 54.6875 
L 34.71875 47.703125 
L 19.921875 47.703125 
L 19.921875 0 
L 10.890625 0 
L 10.890625 47.703125 
L 2.296875 47.703125 
L 2.296875 54.6875 
L 10.890625 54.6875 
L 10.890625 58.5 
Q 10.890625 67.625 15.140625 71.796875 
Q 19.390625 75.984375 28.609375 75.984375 
z
" id="DejaVuSans-102"/>
      <path d="M 18.3125 70.21875 
L 18.3125 54.6875 
L 36.8125 54.6875 
L 36.8125 47.703125 
L 18.3125 47.703125 
L 18.3125 18.015625 
Q 18.3125 11.328125 20.140625 9.421875 
Q 21.96875 7.515625 27.59375 7.515625 
L 36.8125 7.515625 
L 36.8125 0 
L 27.59375 0 
Q 17.1875 0 13.234375 3.875 
Q 9.28125 7.765625 9.28125 18.015625 
L 9.28125 47.703125 
L 2.6875 47.703125 
L 2.6875 54.6875 
L 9.28125 54.6875 
L 9.28125 70.21875 
z
" id="DejaVuSans-116"/>
      <path d="M 45.40625 46.390625 
L 45.40625 75.984375 
L 54.390625 75.984375 
L 54.390625 0 
L 45.40625 0 
L 45.40625 8.203125 
Q 42.578125 3.328125 38.25 0.953125 
Q 33.9375 -1.421875 27.875 -1.421875 
Q 17.96875 -1.421875 11.734375 6.484375 
Q 5.515625 14.40625 5.515625 27.296875 
Q 5.515625 40.1875 11.734375 48.09375 
Q 17.96875 56 27.875 56 
Q 33.9375 56 38.25 53.625 
Q 42.578125 51.265625 45.40625 46.390625 
z
M 14.796875 27.296875 
Q 14.796875 17.390625 18.875 11.75 
Q 22.953125 6.109375 30.078125 6.109375 
Q 37.203125 6.109375 41.296875 11.75 
Q 45.40625 17.390625 45.40625 27.296875 
Q 45.40625 37.203125 41.296875 42.84375 
Q 37.203125 48.484375 30.078125 48.484375 
Q 22.953125 48.484375 18.875 42.84375 
Q 14.796875 37.203125 14.796875 27.296875 
z
" id="DejaVuSans-100"/>
      <path d="M 34.28125 27.484375 
Q 23.390625 27.484375 19.1875 25 
Q 14.984375 22.515625 14.984375 16.5 
Q 14.984375 11.71875 18.140625 8.90625 
Q 21.296875 6.109375 26.703125 6.109375 
Q 34.1875 6.109375 38.703125 11.40625 
Q 43.21875 16.703125 43.21875 25.484375 
L 43.21875 27.484375 
z
M 52.203125 31.203125 
L 52.203125 0 
L 43.21875 0 
L 43.21875 8.296875 
Q 40.140625 3.328125 35.546875 0.953125 
Q 30.953125 -1.421875 24.3125 -1.421875 
Q 15.921875 -1.421875 10.953125 3.296875 
Q 6 8.015625 6 15.921875 
Q 6 25.140625 12.171875 29.828125 
Q 18.359375 34.515625 30.609375 34.515625 
L 43.21875 34.515625 
L 43.21875 35.40625 
Q 43.21875 41.609375 39.140625 45 
Q 35.0625 48.390625 27.6875 48.390625 
Q 23 48.390625 18.546875 47.265625 
Q 14.109375 46.140625 10.015625 43.890625 
L 10.015625 52.203125 
Q 14.9375 54.109375 19.578125 55.046875 
Q 24.21875 56 28.609375 56 
Q 40.484375 56 46.34375 49.84375 
Q 52.203125 43.703125 52.203125 31.203125 
z
" id="DejaVuSans-97"/>
      <path d="M 32.171875 -5.078125 
Q 28.375 -14.84375 24.75 -17.8125 
Q 21.140625 -20.796875 15.09375 -20.796875 
L 7.90625 -20.796875 
L 7.90625 -13.28125 
L 13.1875 -13.28125 
Q 16.890625 -13.28125 18.9375 -11.515625 
Q 21 -9.765625 23.484375 -3.21875 
L 25.09375 0.875 
L 2.984375 54.6875 
L 12.5 54.6875 
L 29.59375 11.921875 
L 46.6875 54.6875 
L 56.203125 54.6875 
z
" id="DejaVuSans-121"/>
     </defs>
     <g transform="translate(110.24125 269.996563)scale(0.1 -0.1)">
      <use xlink:href="#DejaVuSans-72"/>
      <use x="75.195312" xlink:href="#DejaVuSans-111"/>
      <use x="136.376953" xlink:href="#DejaVuSans-117"/>
      <use x="199.755859" xlink:href="#DejaVuSans-114"/>
      <use x="240.869141" xlink:href="#DejaVuSans-115"/>
      <use x="292.96875" xlink:href="#DejaVuSans-32"/>
      <use x="324.755859" xlink:href="#DejaVuSans-115"/>
      <use x="376.855469" xlink:href="#DejaVuSans-105"/>
      <use x="404.638672" xlink:href="#DejaVuSans-110"/>
      <use x="468.017578" xlink:href="#DejaVuSans-99"/>
      <use x="522.998047" xlink:href="#DejaVuSans-101"/>
      <use x="584.521484" xlink:href="#DejaVuSans-32"/>
      <use x="616.308594" xlink:href="#DejaVuSans-49"/>
      <use x="679.931641" xlink:href="#DejaVuSans-50"/>
      <use x="743.554688" xlink:href="#DejaVuSans-80"/>
      <use x="803.857422" xlink:href="#DejaVuSans-77"/>
      <use x="890.136719" xlink:href="#DejaVuSans-32"/>
      <use x="921.923828" xlink:href="#DejaVuSans-111"/>
      <use x="983.105469" xlink:href="#DejaVuSans-110"/>
      <use x="1046.484375" xlink:href="#DejaVuSans-32"/>
      <use x="1078.271484" xlink:href="#DejaVuSans-102"/>
      <use x="1113.476562" xlink:href="#DejaVuSans-105"/>
      <use x="1141.259766" xlink:href="#DejaVuSans-114"/>
      <use x="1182.373047" xlink:href="#DejaVuSans-115"/>
      <use x="1234.472656" xlink:href="#DejaVuSans-116"/>
      <use x="1273.681641" xlink:href="#DejaVuSans-32"/>
      <use x="1305.46875" xlink:href="#DejaVuSans-100"/>
      <use x="1368.945312" xlink:href="#DejaVuSans-97"/>
      <use x="1430.224609" xlink:href="#DejaVuSans-121"/>
     </g>
    </g>
   </g>
   <g id="matplotlib.axis_2">
    <g id="ytick_1">
     <g id="line2d_6">
      <defs>
       <path d="M 0 0 
L -3.5 0 
" id="ma43c63f2d1" style="stroke:#000000;stroke-width:0.8;"/>
      </defs>
      <g>
       <use style="stroke:#000000;stroke-width:0.8;" x="50.48" xlink:href="#ma43c63f2d1" y="231.910909"/>
      </g>
     </g>
     <g id="text_7">
      <!-- 0 -->
      <g transform="translate(37.1175 235.710128)scale(0.1 -0.1)">
       <use xlink:href="#DejaVuSans-48"/>
      </g>
     </g>
    </g>
    <g id="ytick_2">
     <g id="line2d_7">
      <g>
       <use style="stroke:#000000;stroke-width:0.8;" x="50.48" xlink:href="#ma43c63f2d1" y="192.674545"/>
      </g>
     </g>
     <g id="text_8">
      <!-- 20 -->
      <g transform="translate(30.755 196.473764)scale(0.1 -0.1)">
       <use xlink:href="#DejaVuSans-50"/>
       <use x="63.623047" xlink:href="#DejaVuSans-48"/>
      </g>
     </g>
    </g>
    <g id="ytick_3">
     <g id="line2d_8">
      <g>
       <use style="stroke:#000000;stroke-width:0.8;" x="50.48" xlink:href="#ma43c63f2d1" y="153.438182"/>
      </g>
     </g>
     <g id="text_9">
      <!-- 40 -->
      <g transform="translate(30.755 157.237401)scale(0.1 -0.1)">
       <use xlink:href="#DejaVuSans-52"/>
       <use x="63.623047" xlink:href="#DejaVuSans-48"/>
      </g>
     </g>
    </g>
    <g id="ytick_4">
     <g id="line2d_9">
      <g>
       <use style="stroke:#000000;stroke-width:0.8;" x="50.48" xlink:href="#ma43c63f2d1" y="114.201818"/>
      </g>
     </g>
     <g id="text_10">
      <!-- 60 -->
      <g transform="translate(30.755 118.001037)scale(0.1 -0.1)">
       <use xlink:href="#DejaVuSans-54"/>
       <use x="63.623047" xlink:href="#DejaVuSans-48"/>
      </g>
     </g>
    </g>
    <g id="ytick_5">
     <g id="line2d_10">
      <g>
       <use style="stroke:#000000;stroke-width:0.8;" x="50.48" xlink:href="#ma43c63f2d1" y="74.965455"/>
      </g>
     </g>
     <g id="text_11">
      <!-- 80 -->
      <g transform="translate(30.755 78.764673)scale(0.1 -0.1)">
       <use xlink:href="#DejaVuSans-56"/>
       <use x="63.623047" xlink:href="#DejaVuSans-48"/>
      </g>
     </g>
    </g>
    <g id="ytick_6">
     <g id="line2d_11">
      <g>
       <use style="stroke:#000000;stroke-width:0.8;" x="50.48" xlink:href="#ma43c63f2d1" y="35.729091"/>
      </g>
     </g>
     <g id="text_12">
      <!-- 100 -->
      <g transform="translate(24.3925 39.52831)scale(0.1 -0.1)">
       <use xlink:href="#DejaVuSans-49"/>
       <use x="63.623047" xlink:href="#DejaVuSans-48"/>
       <use x="127.246094" xlink:href="#DejaVuSans-48"/>
      </g>
     </g>
    </g>
    <g id="text_13">
     <!-- Poke bias (correct %) -->
     <defs>
      <path d="M 9.078125 75.984375 
L 18.109375 75.984375 
L 18.109375 31.109375 
L 44.921875 54.6875 
L 56.390625 54.6875 
L 27.390625 29.109375 
L 57.625 0 
L 45.90625 0 
L 18.109375 26.703125 
L 18.109375 0 
L 9.078125 0 
z
" id="DejaVuSans-107"/>
      <path d="M 48.6875 27.296875 
Q 48.6875 37.203125 44.609375 42.84375 
Q 40.53125 48.484375 33.40625 48.484375 
Q 26.265625 48.484375 22.1875 42.84375 
Q 18.109375 37.203125 18.109375 27.296875 
Q 18.109375 17.390625 22.1875 11.75 
Q 26.265625 6.109375 33.40625 6.109375 
Q 40.53125 6.109375 44.609375 11.75 
Q 48.6875 17.390625 48.6875 27.296875 
z
M 18.109375 46.390625 
Q 20.953125 51.265625 25.265625 53.625 
Q 29.59375 56 35.59375 56 
Q 45.5625 56 51.78125 48.09375 
Q 58.015625 40.1875 58.015625 27.296875 
Q 58.015625 14.40625 51.78125 6.484375 
Q 45.5625 -1.421875 35.59375 -1.421875 
Q 29.59375 -1.421875 25.265625 0.953125 
Q 20.953125 3.328125 18.109375 8.203125 
L 18.109375 0 
L 9.078125 0 
L 9.078125 75.984375 
L 18.109375 75.984375 
z
" id="DejaVuSans-98"/>
      <path d="M 31 75.875 
Q 24.46875 64.65625 21.28125 53.65625 
Q 18.109375 42.671875 18.109375 31.390625 
Q 18.109375 20.125 21.3125 9.0625 
Q 24.515625 -2 31 -13.1875 
L 23.1875 -13.1875 
Q 15.875 -1.703125 12.234375 9.375 
Q 8.59375 20.453125 8.59375 31.390625 
Q 8.59375 42.28125 12.203125 53.3125 
Q 15.828125 64.359375 23.1875 75.875 
z
" id="DejaVuSans-40"/>
      <path d="M 72.703125 32.078125 
Q 68.453125 32.078125 66.03125 28.46875 
Q 63.625 24.859375 63.625 18.40625 
Q 63.625 12.0625 66.03125 8.421875 
Q 68.453125 4.78125 72.703125 4.78125 
Q 76.859375 4.78125 79.265625 8.421875 
Q 81.6875 12.0625 81.6875 18.40625 
Q 81.6875 24.8125 79.265625 28.4375 
Q 76.859375 32.078125 72.703125 32.078125 
z
M 72.703125 38.28125 
Q 80.421875 38.28125 84.953125 32.90625 
Q 89.5 27.546875 89.5 18.40625 
Q 89.5 9.28125 84.9375 3.921875 
Q 80.375 -1.421875 72.703125 -1.421875 
Q 64.890625 -1.421875 60.34375 3.921875 
Q 55.8125 9.28125 55.8125 18.40625 
Q 55.8125 27.59375 60.375 32.9375 
Q 64.9375 38.28125 72.703125 38.28125 
z
M 22.3125 68.015625 
Q 18.109375 68.015625 15.6875 64.375 
Q 13.28125 60.75 13.28125 54.390625 
Q 13.28125 47.953125 15.671875 44.328125 
Q 18.0625 40.71875 22.3125 40.71875 
Q 26.5625 40.71875 28.96875 44.328125 
Q 31.390625 47.953125 31.390625 54.390625 
Q 31.390625 60.6875 28.953125 64.34375 
Q 26.515625 68.015625 22.3125 68.015625 
z
M 66.40625 74.21875 
L 74.21875 74.21875 
L 28.609375 -1.421875 
L 20.796875 -1.421875 
z
M 22.3125 74.21875 
Q 30.03125 74.21875 34.609375 68.875 
Q 39.203125 63.53125 39.203125 54.390625 
Q 39.203125 45.171875 34.640625 39.84375 
Q 30.078125 34.515625 22.3125 34.515625 
Q 14.546875 34.515625 10.03125 39.859375 
Q 5.515625 45.21875 5.515625 54.390625 
Q 5.515625 63.484375 10.046875 68.84375 
Q 14.59375 74.21875 22.3125 74.21875 
z
" id="DejaVuSans-37"/>
      <path d="M 8.015625 75.875 
L 15.828125 75.875 
Q 23.140625 64.359375 26.78125 53.3125 
Q 30.421875 42.28125 30.421875 31.390625 
Q 30.421875 20.453125 26.78125 9.375 
Q 23.140625 -1.703125 15.828125 -13.1875 
L 8.015625 -13.1875 
Q 14.5 -2 17.703125 9.0625 
Q 20.90625 20.125 20.90625 31.390625 
Q 20.90625 42.671875 17.703125 53.65625 
Q 14.5 64.65625 8.015625 75.875 
z
" id="DejaVuSans-41"/>
     </defs>
     <g transform="translate(18.312812 186.660625)rotate(-90)scale(0.1 -0.1)">
      <use xlink:href="#DejaVuSans-80"/>
      <use x="56.677734" xlink:href="#DejaVuSans-111"/>
      <use x="117.859375" xlink:href="#DejaVuSans-107"/>
      <use x="172.144531" xlink:href="#DejaVuSans-101"/>
      <use x="233.667969" xlink:href="#DejaVuSans-32"/>
      <use x="265.455078" xlink:href="#DejaVuSans-98"/>
      <use x="328.931641" xlink:href="#DejaVuSans-105"/>
      <use x="356.714844" xlink:href="#DejaVuSans-97"/>
      <use x="417.994141" xlink:href="#DejaVuSans-115"/>
      <use x="470.09375" xlink:href="#DejaVuSans-32"/>
      <use x="501.880859" xlink:href="#DejaVuSans-40"/>
      <use x="540.894531" xlink:href="#DejaVuSans-99"/>
      <use x="595.875" xlink:href="#DejaVuSans-111"/>
      <use x="657.056641" xlink:href="#DejaVuSans-114"/>
      <use x="696.419922" xlink:href="#DejaVuSans-114"/>
      <use x="735.283203" xlink:href="#DejaVuSans-101"/>
      <use x="796.806641" xlink:href="#DejaVuSans-99"/>
      <use x="851.787109" xlink:href="#DejaVuSans-116"/>
      <use x="890.996094" xlink:href="#DejaVuSans-32"/>
      <use x="922.783203" xlink:href="#DejaVuSans-37"/>
      <use x="1017.802734" xlink:href="#DejaVuSans-41"/>
     </g>
    </g>
   </g>
   <g id="line2d_12">
    <path clip-path="url(#p3b43f4d341)" d="M 50.48 172.431053 
L 55.545283 175.127172 
L 60.610566 110.431685 
L 65.675849 129.389451 
L 70.741132 102.504036 
L 75.806415 102.455818 
L 80.871698 111.922788 
L 85.936981 97.729924 
L 91.002264 84.293861 
L 96.067547 98.041312 
L 101.13283 73.313918 
L 106.198113 74.960251 
L 111.263396 72.056686 
L 116.328679 76.304431 
L 121.393962 70.672331 
L 126.459245 76.934996 
L 131.524528 77.913167 
L 136.589811 82.032509 
L 141.655094 79.135038 
L 146.720377 65.827317 
L 151.78566 83.443088 
L 156.850943 93.74501 
L 161.916226 84.838595 
L 166.981509 83.451427 
L 172.046792 85.795212 
L 177.112075 84.022644 
L 182.177359 80.750841 
L 187.242642 103.119608 
L 192.307925 71.021535 
L 197.373208 75.016162 
L 202.438491 68.224871 
L 207.503774 67.486492 
L 212.569057 97.890569 
L 217.63434 80.997411 
L 222.699623 100.252434 
L 227.764906 86.008404 
L 232.830189 99.105049 
L 237.895472 94.132446 
L 242.960755 83.355568 
L 248.026038 92.724504 
L 253.091321 80.903481 
L 258.156604 91.486404 
L 263.221887 97.790932 
L 268.28717 98.634346 
L 273.352453 112.169657 
L 278.417736 83.123696 
L 283.483019 97.179232 
L 288.548302 86.52412 
L 293.613585 105.403363 
" style="fill:none;stroke:#1f77b4;stroke-linecap:square;stroke-width:1.5;"/>
   </g>
   <g id="line2d_13">
    <path clip-path="url(#p3b43f4d341)" d="M 50.48 185.393182 
L 55.545283 199.610266 
L 60.610566 141.994242 
L 65.675849 134.536837 
L 70.741132 111.996124 
L 75.806415 115.730547 
L 80.871698 105.218837 
L 85.936981 103.152851 
L 91.002264 100.82549 
L 96.067547 86.736339 
L 101.13283 81.143899 
L 106.198113 88.329786 
L 111.263396 82.452447 
L 116.328679 86.89454 
L 121.393962 76.865852 
L 126.459245 56.843802 
L 131.524528 76.576945 
L 136.589811 69.444054 
L 141.655094 68.539467 
L 146.720377 84.908765 
L 151.78566 69.283263 
L 156.850943 65.953003 
L 161.916226 86.820869 
L 166.981509 72.806188 
L 172.046792 61.546226 
L 177.112075 74.630988 
L 182.177359 61.024757 
L 187.242642 72.501205 
L 192.307925 70.28333 
L 197.373208 60.145386 
L 202.438491 63.328526 
L 207.503774 74.859639 
L 212.569057 67.875585 
L 217.63434 90.633413 
L 222.699623 81.64801 
L 227.764906 82.752866 
L 232.830189 102.327839 
L 237.895472 74.004436 
L 242.960755 74.218604 
L 248.026038 80.88651 
L 253.091321 69.569713 
L 258.156604 92.283883 
L 263.221887 97.787852 
L 268.28717 93.246559 
L 273.352453 80.836764 
L 278.417736 96.88243 
L 283.483019 79.343628 
L 288.548302 78.055329 
L 293.613585 82.230813 
" style="fill:none;stroke:#ff7f0e;stroke-linecap:square;stroke-width:1.5;"/>
   </g>
   <g id="line2d_14">
    <path clip-path="url(#p3b43f4d341)" d="M 50.48 133.82 
L 55.545283 220.700519 
L 60.610566 130.741389 
L 65.675849 107.896791 
L 70.741132 118.225769 
L 75.806415 109.402191 
L 80.871698 103.61001 
L 85.936981 104.147161 
L 91.002264 96.555352 
L 96.067547 90.087667 
L 101.13283 80.616071 
L 106.198113 87.819225 
L 111.263396 80.183202 
L 116.328679 79.486614 
L 121.393962 75.86542 
L 126.459245 54.621461 
L 131.524528 70.958951 
L 136.589811 79.993665 
L 141.655094 82.791294 
L 146.720377 79.685656 
L 151.78566 71.050961 
L 156.850943 85.248964 
L 161.916226 70.544687 
L 166.981509 78.290401 
L 172.046792 85.278801 
L 177.112075 80.940437 
L 182.177359 70.7316 
L 187.242642 72.561495 
L 192.307925 82.734606 
L 197.373208 63.35582 
L 202.438491 56.966012 
L 207.503774 64.440206 
L 212.569057 79.532293 
L 217.63434 77.847944 
L 222.699623 83.318509 
L 227.764906 87.01777 
L 232.830189 80.872167 
L 237.895472 65.839761 
L 242.960755 90.539856 
L 248.026038 71.401812 
L 253.091321 64.351349 
L 258.156604 77.946939 
L 263.221887 93.624417 
L 268.28717 94.953025 
L 273.352453 70.893034 
L 278.417736 77.306998 
L 283.483019 65.134355 
L 288.548302 83.564404 
L 293.613585 90.33656 
" style="fill:none;stroke:#2ca02c;stroke-linecap:square;stroke-width:1.5;"/>
   </g>
   <g id="line2d_15">
    <path clip-path="url(#p3b43f4d341)" d="M 50.48 187.939699 
L 55.545283 155.943822 
L 60.610566 134.731811 
L 65.675849 141.166556 
L 70.741132 111.754824 
L 75.806415 128.66693 
L 80.871698 121.252092 
L 85.936981 127.024844 
L 91.002264 115.881227 
L 96.067547 101.735515 
L 101.13283 94.568656 
L 106.198113 87.991102 
L 111.263396 81.23214 
L 116.328679 101.171846 
L 121.393962 89.587239 
L 126.459245 90.9516 
L 131.524528 80.313086 
L 136.589811 85.936523 
L 141.655094 92.411817 
L 146.720377 84.406108 
L 151.78566 100.048593 
L 156.850943 82.090216 
L 161.916226 72.036346 
L 166.981509 75.203675 
L 172.046792 97.74302 
L 177.112075 83.546655 
L 182.177359 113.689547 
L 187.242642 86.524404 
L 192.307925 71.519851 
L 197.373208 59.189305 
L 202.438491 60.205135 
L 207.503774 64.779025 
L 212.569057 80.295479 
L 217.63434 74.034602 
L 222.699623 72.445181 
L 227.764906 84.326668 
L 232.830189 79.67717 
L 237.895472 76.585234 
L 242.960755 62.751987 
L 248.026038 75.090257 
L 253.091321 85.65579 
L 258.156604 78.07504 
L 263.221887 83.94787 
L 268.28717 84.136103 
L 273.352453 73.41704 
L 278.417736 95.396305 
L 283.483019 74.6399 
L 288.548302 115.844861 
L 293.613585 93.718476 
" style="fill:none;stroke:#d62728;stroke-linecap:square;stroke-width:1.5;"/>
   </g>
   <g id="line2d_16">
    <path clip-path="url(#p3b43f4d341)" d="M 50.48 133.82 
L 318.94 133.82 
" style="fill:none;stroke:#808080;stroke-dasharray:5.55,2.4;stroke-dashoffset:0;stroke-width:1.5;"/>
   </g>
   <g id="patch_5">
    <path d="M 50.48 241.72 
L 50.48 25.92 
" style="fill:none;stroke:#000000;stroke-linecap:square;stroke-linejoin:miter;stroke-width:0.8;"/>
   </g>
   <g id="patch_6">
    <path d="M 318.94 241.72 
L 318.94 25.92 
" style="fill:none;stroke:#000000;stroke-linecap:square;stroke-linejoin:miter;stroke-width:0.8;"/>
   </g>
   <g id="patch_7">
    <path d="M 50.48 241.72 
L 318.94 241.72 
" style="fill:none;stroke:#000000;stroke-linecap:square;stroke-linejoin:miter;stroke-width:0.8;"/>
   </g>
   <g id="patch_8">
    <path d="M 50.48 25.92 
L 318.94 25.92 
" style="fill:none;stroke:#000000;stroke-linecap:square;stroke-linejoin:miter;stroke-width:0.8;"/>
   </g>
   <g id="text_14">
    <!-- Average Plot of Poke bias (correct %) -->
    <defs>
     <path d="M 34.1875 63.1875 
L 20.796875 26.90625 
L 47.609375 26.90625 
z
M 28.609375 72.90625 
L 39.796875 72.90625 
L 67.578125 0 
L 57.328125 0 
L 50.6875 18.703125 
L 17.828125 18.703125 
L 11.1875 0 
L 0.78125 0 
z
" id="DejaVuSans-65"/>
     <path d="M 2.984375 54.6875 
L 12.5 54.6875 
L 29.59375 8.796875 
L 46.6875 54.6875 
L 56.203125 54.6875 
L 35.6875 0 
L 23.484375 0 
z
" id="DejaVuSans-118"/>
     <path d="M 45.40625 27.984375 
Q 45.40625 37.75 41.375 43.109375 
Q 37.359375 48.484375 30.078125 48.484375 
Q 22.859375 48.484375 18.828125 43.109375 
Q 14.796875 37.75 14.796875 27.984375 
Q 14.796875 18.265625 18.828125 12.890625 
Q 22.859375 7.515625 30.078125 7.515625 
Q 37.359375 7.515625 41.375 12.890625 
Q 45.40625 18.265625 45.40625 27.984375 
z
M 54.390625 6.78125 
Q 54.390625 -7.171875 48.1875 -13.984375 
Q 42 -20.796875 29.203125 -20.796875 
Q 24.46875 -20.796875 20.265625 -20.09375 
Q 16.0625 -19.390625 12.109375 -17.921875 
L 12.109375 -9.1875 
Q 16.0625 -11.328125 19.921875 -12.34375 
Q 23.78125 -13.375 27.78125 -13.375 
Q 36.625 -13.375 41.015625 -8.765625 
Q 45.40625 -4.15625 45.40625 5.171875 
L 45.40625 9.625 
Q 42.625 4.78125 38.28125 2.390625 
Q 33.9375 0 27.875 0 
Q 17.828125 0 11.671875 7.65625 
Q 5.515625 15.328125 5.515625 27.984375 
Q 5.515625 40.671875 11.671875 48.328125 
Q 17.828125 56 27.875 56 
Q 33.9375 56 38.28125 53.609375 
Q 42.625 51.21875 45.40625 46.390625 
L 45.40625 54.6875 
L 54.390625 54.6875 
z
" id="DejaVuSans-103"/>
     <path d="M 9.421875 75.984375 
L 18.40625 75.984375 
L 18.40625 0 
L 9.421875 0 
z
" id="DejaVuSans-108"/>
    </defs>
    <g transform="translate(73.849687 19.92)scale(0.12 -0.12)">
     <use xlink:href="#DejaVuSans-65"/>
     <use x="62.533203" xlink:href="#DejaVuSans-118"/>
     <use x="121.712891" xlink:href="#DejaVuSans-101"/>
     <use x="183.236328" xlink:href="#DejaVuSans-114"/>
     <use x="224.349609" xlink:href="#DejaVuSans-97"/>
     <use x="285.628906" xlink:href="#DejaVuSans-103"/>
     <use x="349.105469" xlink:href="#DejaVuSans-101"/>
     <use x="410.628906" xlink:href="#DejaVuSans-32"/>
     <use x="442.416016" xlink:href="#DejaVuSans-80"/>
     <use x="502.71875" xlink:href="#DejaVuSans-108"/>
     <use x="530.501953" xlink:href="#DejaVuSans-111"/>
     <use x="591.683594" xlink:href="#DejaVuSans-116"/>
     <use x="630.892578" xlink:href="#DejaVuSans-32"/>
     <use x="662.679688" xlink:href="#DejaVuSans-111"/>
     <use x="723.861328" xlink:href="#DejaVuSans-102"/>
     <use x="759.066406" xlink:href="#DejaVuSans-32"/>
     <use x="790.853516" xlink:href="#DejaVuSans-80"/>
     <use x="847.53125" xlink:href="#DejaVuSans-111"/>
     <use x="908.712891" xlink:href="#DejaVuSans-107"/>
     <use x="962.998047" xlink:href="#DejaVuSans-101"/>
     <use x="1024.521484" xlink:href="#DejaVuSans-32"/>
     <use x="1056.308594" xlink:href="#DejaVuSans-98"/>
     <use x="1119.785156" xlink:href="#DejaVuSans-105"/>
     <use x="1147.568359" xlink:href="#DejaVuSans-97"/>
     <use x="1208.847656" xlink:href="#DejaVuSans-115"/>
     <use x="1260.947266" xlink:href="#DejaVuSans-32"/>
     <use x="1292.734375" xlink:href="#DejaVuSans-40"/>
     <use x="1331.748047" xlink:href="#DejaVuSans-99"/>
     <use x="1386.728516" xlink:href="#DejaVuSans-111"/>
     <use x="1447.910156" xlink:href="#DejaVuSans-114"/>
     <use x="1487.273438" xlink:href="#DejaVuSans-114"/>
     <use x="1526.136719" xlink:href="#DejaVuSans-101"/>
     <use x="1587.660156" xlink:href="#DejaVuSans-99"/>
     <use x="1642.640625" xlink:href="#DejaVuSans-116"/>
     <use x="1681.849609" xlink:href="#DejaVuSans-32"/>
     <use x="1713.636719" xlink:href="#DejaVuSans-37"/>
     <use x="1808.65625" xlink:href="#DejaVuSans-41"/>
    </g>
   </g>
   <g id="legend_1">
    <g id="patch_9">
     <path d="M 325.94 108.423125 
L 441.561875 108.423125 
Q 443.561875 108.423125 443.561875 106.423125 
L 443.561875 32.92 
Q 443.561875 30.92 441.561875 30.92 
L 325.94 30.92 
Q 323.94 30.92 323.94 32.92 
L 323.94 106.423125 
Q 323.94 108.423125 325.94 108.423125 
z
" style="fill:#ffffff;opacity:0.8;stroke:#cccccc;stroke-linejoin:miter;"/>
    </g>
    <g id="line2d_17">
     <path d="M 327.94 39.018438 
L 347.94 39.018438 
" style="fill:none;stroke:#1f77b4;stroke-linecap:square;stroke-width:1.5;"/>
    </g>
    <g id="line2d_18"/>
    <g id="text_15">
     <!-- F_SHAM (±SEM) -->
     <defs>
      <path d="M 9.8125 72.90625 
L 51.703125 72.90625 
L 51.703125 64.59375 
L 19.671875 64.59375 
L 19.671875 43.109375 
L 48.578125 43.109375 
L 48.578125 34.8125 
L 19.671875 34.8125 
L 19.671875 0 
L 9.8125 0 
z
" id="DejaVuSans-70"/>
      <path d="M 50.984375 -16.609375 
L 50.984375 -23.578125 
L -0.984375 -23.578125 
L -0.984375 -16.609375 
z
" id="DejaVuSans-95"/>
      <path d="M 53.515625 70.515625 
L 53.515625 60.890625 
Q 47.90625 63.578125 42.921875 64.890625 
Q 37.9375 66.21875 33.296875 66.21875 
Q 25.25 66.21875 20.875 63.09375 
Q 16.5 59.96875 16.5 54.203125 
Q 16.5 49.359375 19.40625 46.890625 
Q 22.3125 44.4375 30.421875 42.921875 
L 36.375 41.703125 
Q 47.40625 39.59375 52.65625 34.296875 
Q 57.90625 29 57.90625 20.125 
Q 57.90625 9.515625 50.796875 4.046875 
Q 43.703125 -1.421875 29.984375 -1.421875 
Q 24.8125 -1.421875 18.96875 -0.25 
Q 13.140625 0.921875 6.890625 3.21875 
L 6.890625 13.375 
Q 12.890625 10.015625 18.65625 8.296875 
Q 24.421875 6.59375 29.984375 6.59375 
Q 38.421875 6.59375 43.015625 9.90625 
Q 47.609375 13.234375 47.609375 19.390625 
Q 47.609375 24.75 44.3125 27.78125 
Q 41.015625 30.8125 33.5 32.328125 
L 27.484375 33.5 
Q 16.453125 35.6875 11.515625 40.375 
Q 6.59375 45.0625 6.59375 53.421875 
Q 6.59375 63.09375 13.40625 68.65625 
Q 20.21875 74.21875 32.171875 74.21875 
Q 37.3125 74.21875 42.625 73.28125 
Q 47.953125 72.359375 53.515625 70.515625 
z
" id="DejaVuSans-83"/>
      <path d="M 46 62.703125 
L 46 43.796875 
L 73.1875 43.796875 
L 73.1875 35.5 
L 46 35.5 
L 46 16.609375 
L 37.796875 16.609375 
L 37.796875 35.5 
L 10.59375 35.5 
L 10.59375 43.796875 
L 37.796875 43.796875 
L 37.796875 62.703125 
z
M 10.59375 8.296875 
L 73.1875 8.296875 
L 73.1875 0 
L 10.59375 0 
z
" id="DejaVuSans-177"/>
      <path d="M 9.8125 72.90625 
L 55.90625 72.90625 
L 55.90625 64.59375 
L 19.671875 64.59375 
L 19.671875 43.015625 
L 54.390625 43.015625 
L 54.390625 34.71875 
L 19.671875 34.71875 
L 19.671875 8.296875 
L 56.78125 8.296875 
L 56.78125 0 
L 9.8125 0 
z
" id="DejaVuSans-69"/>
     </defs>
     <g transform="translate(355.94 42.518438)scale(0.1 -0.1)">
      <use xlink:href="#DejaVuSans-70"/>
      <use x="57.519531" xlink:href="#DejaVuSans-95"/>
      <use x="107.519531" xlink:href="#DejaVuSans-83"/>
      <use x="170.996094" xlink:href="#DejaVuSans-72"/>
      <use x="246.191406" xlink:href="#DejaVuSans-65"/>
      <use x="314.599609" xlink:href="#DejaVuSans-77"/>
      <use x="400.878906" xlink:href="#DejaVuSans-32"/>
      <use x="432.666016" xlink:href="#DejaVuSans-40"/>
      <use x="471.679688" xlink:href="#DejaVuSans-177"/>
      <use x="555.46875" xlink:href="#DejaVuSans-83"/>
      <use x="618.945312" xlink:href="#DejaVuSans-69"/>
      <use x="682.128906" xlink:href="#DejaVuSans-77"/>
      <use x="768.408203" xlink:href="#DejaVuSans-41"/>
     </g>
    </g>
    <g id="line2d_19">
     <path d="M 327.94 53.974688 
L 347.94 53.974688 
" style="fill:none;stroke:#ff7f0e;stroke-linecap:square;stroke-width:1.5;"/>
    </g>
    <g id="line2d_20"/>
    <g id="text_16">
     <!-- F_SNI (±SEM) -->
     <defs>
      <path d="M 9.8125 72.90625 
L 23.09375 72.90625 
L 55.421875 11.921875 
L 55.421875 72.90625 
L 64.984375 72.90625 
L 64.984375 0 
L 51.703125 0 
L 19.390625 60.984375 
L 19.390625 0 
L 9.8125 0 
z
" id="DejaVuSans-78"/>
      <path d="M 9.8125 72.90625 
L 19.671875 72.90625 
L 19.671875 0 
L 9.8125 0 
z
" id="DejaVuSans-73"/>
     </defs>
     <g transform="translate(355.94 57.474688)scale(0.1 -0.1)">
      <use xlink:href="#DejaVuSans-70"/>
      <use x="57.519531" xlink:href="#DejaVuSans-95"/>
      <use x="107.519531" xlink:href="#DejaVuSans-83"/>
      <use x="170.996094" xlink:href="#DejaVuSans-78"/>
      <use x="245.800781" xlink:href="#DejaVuSans-73"/>
      <use x="275.292969" xlink:href="#DejaVuSans-32"/>
      <use x="307.080078" xlink:href="#DejaVuSans-40"/>
      <use x="346.09375" xlink:href="#DejaVuSans-177"/>
      <use x="429.882812" xlink:href="#DejaVuSans-83"/>
      <use x="493.359375" xlink:href="#DejaVuSans-69"/>
      <use x="556.542969" xlink:href="#DejaVuSans-77"/>
      <use x="642.822266" xlink:href="#DejaVuSans-41"/>
     </g>
    </g>
    <g id="line2d_21">
     <path d="M 327.94 68.930937 
L 347.94 68.930937 
" style="fill:none;stroke:#2ca02c;stroke-linecap:square;stroke-width:1.5;"/>
    </g>
    <g id="line2d_22"/>
    <g id="text_17">
     <!-- M_SHAM (±SEM) -->
     <g transform="translate(355.94 72.430937)scale(0.1 -0.1)">
      <use xlink:href="#DejaVuSans-77"/>
      <use x="86.279297" xlink:href="#DejaVuSans-95"/>
      <use x="136.279297" xlink:href="#DejaVuSans-83"/>
      <use x="199.755859" xlink:href="#DejaVuSans-72"/>
      <use x="274.951172" xlink:href="#DejaVuSans-65"/>
      <use x="343.359375" xlink:href="#DejaVuSans-77"/>
      <use x="429.638672" xlink:href="#DejaVuSans-32"/>
      <use x="461.425781" xlink:href="#DejaVuSans-40"/>
      <use x="500.439453" xlink:href="#DejaVuSans-177"/>
      <use x="584.228516" xlink:href="#DejaVuSans-83"/>
      <use x="647.705078" xlink:href="#DejaVuSans-69"/>
      <use x="710.888672" xlink:href="#DejaVuSans-77"/>
      <use x="797.167969" xlink:href="#DejaVuSans-41"/>
     </g>
    </g>
    <g id="line2d_23">
     <path d="M 327.94 83.887188 
L 347.94 83.887188 
" style="fill:none;stroke:#d62728;stroke-linecap:square;stroke-width:1.5;"/>
    </g>
    <g id="line2d_24"/>
    <g id="text_18">
     <!-- M_SNI (±SEM) -->
     <g transform="translate(355.94 87.387188)scale(0.1 -0.1)">
      <use xlink:href="#DejaVuSans-77"/>
      <use x="86.279297" xlink:href="#DejaVuSans-95"/>
      <use x="136.279297" xlink:href="#DejaVuSans-83"/>
      <use x="199.755859" xlink:href="#DejaVuSans-78"/>
      <use x="274.560547" xlink:href="#DejaVuSans-73"/>
      <use x="304.052734" xlink:href="#DejaVuSans-32"/>
      <use x="335.839844" xlink:href="#DejaVuSans-40"/>
      <use x="374.853516" xlink:href="#DejaVuSans-177"/>
      <use x="458.642578" xlink:href="#DejaVuSans-83"/>
      <use x="522.119141" xlink:href="#DejaVuSans-69"/>
      <use x="585.302734" xlink:href="#DejaVuSans-77"/>
      <use x="671.582031" xlink:href="#DejaVuSans-41"/>
     </g>
    </g>
    <g id="patch_10">
     <path d="M 327.94 102.343437 
L 347.94 102.343437 
L 347.94 95.343437 
L 327.94 95.343437 
z
" style="fill:#808080;opacity:0.2;stroke:#808080;stroke-linejoin:miter;"/>
    </g>
    <g id="text_19">
     <!-- lights off -->
     <defs>
      <path d="M 54.890625 33.015625 
L 54.890625 0 
L 45.90625 0 
L 45.90625 32.71875 
Q 45.90625 40.484375 42.875 44.328125 
Q 39.84375 48.1875 33.796875 48.1875 
Q 26.515625 48.1875 22.3125 43.546875 
Q 18.109375 38.921875 18.109375 30.90625 
L 18.109375 0 
L 9.078125 0 
L 9.078125 75.984375 
L 18.109375 75.984375 
L 18.109375 46.1875 
Q 21.34375 51.125 25.703125 53.5625 
Q 30.078125 56 35.796875 56 
Q 45.21875 56 50.046875 50.171875 
Q 54.890625 44.34375 54.890625 33.015625 
z
" id="DejaVuSans-104"/>
     </defs>
     <g transform="translate(355.94 102.343437)scale(0.1 -0.1)">
      <use xlink:href="#DejaVuSans-108"/>
      <use x="27.783203" xlink:href="#DejaVuSans-105"/>
      <use x="55.566406" xlink:href="#DejaVuSans-103"/>
      <use x="119.042969" xlink:href="#DejaVuSans-104"/>
      <use x="182.421875" xlink:href="#DejaVuSans-116"/>
      <use x="221.630859" xlink:href="#DejaVuSans-115"/>
      <use x="273.730469" xlink:href="#DejaVuSans-32"/>
      <use x="305.517578" xlink:href="#DejaVuSans-111"/>
      <use x="366.699219" xlink:href="#DejaVuSans-102"/>
      <use x="401.904297" xlink:href="#DejaVuSans-102"/>
     </g>
    </g>
   </g>
  </g>
 </g>
 <defs>
  <clipPath id="p3b43f4d341">
   <rect height="215.8" width="268.46" x="50.48" y="25.92"/>
  </clipPath>
 </defs>
</svg>
