<?xml version="1.0" encoding="utf-8" standalone="no"?>
<!DOCTYPE svg PUBLIC "-//W3C//DTD SVG 1.1//EN"
  "http://www.w3.org/Graphics/SVG/1.1/DTD/svg11.dtd">
<!-- Created with matplotlib (https://matplotlib.org/) -->
<svg height="282.72pt" version="1.1" viewBox="0 0 454.08 282.72" width="454.08pt" xmlns="http://www.w3.org/2000/svg" xmlns:xlink="http://www.w3.org/1999/xlink">
 <defs>
  <style type="text/css">
*{stroke-linecap:butt;stroke-linejoin:round;}
  </style>
 </defs>
 <g id="figure_1">
  <g id="patch_1">
   <path d="M 0 282.72 
L 454.08 282.72 
L 454.08 0 
L 0 0 
z
" style="fill:#ffffff;"/>
  </g>
  <g id="axes_1">
   <g id="patch_2">
    <path d="M 47.3 241.72 
L 443.28 241.72 
L 443.28 25.92 
L 47.3 25.92 
z
" style="fill:#ffffff;"/>
   </g>
   <g id="patch_3">
    <path clip-path="url(#p3af252f0d3)" d="M 65.299091 241.72 
L 71.846603 241.72 
L 71.846603 241.72 
L 65.299091 241.72 
z
" style="fill:#1f77b4;opacity:0.4;"/>
   </g>
   <g id="patch_4">
    <path clip-path="url(#p3af252f0d3)" d="M 71.846603 241.72 
L 78.394116 241.72 
L 78.394116 241.72 
L 71.846603 241.72 
z
" style="fill:#1f77b4;opacity:0.4;"/>
   </g>
   <g id="patch_5">
    <path clip-path="url(#p3af252f0d3)" d="M 78.394116 241.72 
L 84.941629 241.72 
L 84.941629 241.72 
L 78.394116 241.72 
z
" style="fill:#1f77b4;opacity:0.4;"/>
   </g>
   <g id="patch_6">
    <path clip-path="url(#p3af252f0d3)" d="M 84.941629 241.72 
L 91.489141 241.72 
L 91.489141 241.72 
L 84.941629 241.72 
z
" style="fill:#1f77b4;opacity:0.4;"/>
   </g>
   <g id="patch_7">
    <path clip-path="url(#p3af252f0d3)" d="M 91.489141 241.72 
L 98.036654 241.72 
L 98.036654 241.72 
L 91.489141 241.72 
z
" style="fill:#1f77b4;opacity:0.4;"/>
   </g>
   <g id="patch_8">
    <path clip-path="url(#p3af252f0d3)" d="M 98.036654 241.72 
L 104.584166 241.72 
L 104.584166 241.681317 
L 98.036654 241.681317 
z
" style="fill:#1f77b4;opacity:0.4;"/>
   </g>
   <g id="patch_9">
    <path clip-path="url(#p3af252f0d3)" d="M 104.584166 241.72 
L 111.131679 241.72 
L 111.131679 241.333168 
L 104.584166 241.333168 
z
" style="fill:#1f77b4;opacity:0.4;"/>
   </g>
   <g id="patch_10">
    <path clip-path="url(#p3af252f0d3)" d="M 111.131679 241.72 
L 117.679191 241.72 
L 117.679191 241.72 
L 111.131679 241.72 
z
" style="fill:#1f77b4;opacity:0.4;"/>
   </g>
   <g id="patch_11">
    <path clip-path="url(#p3af252f0d3)" d="M 117.679191 241.72 
L 124.226704 241.72 
L 124.226704 241.101069 
L 117.679191 241.101069 
z
" style="fill:#1f77b4;opacity:0.4;"/>
   </g>
   <g id="patch_12">
    <path clip-path="url(#p3af252f0d3)" d="M 124.226704 241.72 
L 130.774216 241.72 
L 130.774216 240.86897 
L 124.226704 240.86897 
z
" style="fill:#1f77b4;opacity:0.4;"/>
   </g>
   <g id="patch_13">
    <path clip-path="url(#p3af252f0d3)" d="M 130.774216 241.72 
L 137.321729 241.72 
L 137.321729 240.366088 
L 130.774216 240.366088 
z
" style="fill:#1f77b4;opacity:0.4;"/>
   </g>
   <g id="patch_14">
    <path clip-path="url(#p3af252f0d3)" d="M 137.321729 241.72 
L 143.869241 241.72 
L 143.869241 239.747157 
L 137.321729 239.747157 
z
" style="fill:#1f77b4;opacity:0.4;"/>
   </g>
   <g id="patch_15">
    <path clip-path="url(#p3af252f0d3)" d="M 143.869241 241.72 
L 150.416754 241.72 
L 150.416754 239.012176 
L 143.869241 239.012176 
z
" style="fill:#1f77b4;opacity:0.4;"/>
   </g>
   <g id="patch_16">
    <path clip-path="url(#p3af252f0d3)" d="M 150.416754 241.72 
L 156.964266 241.72 
L 156.964266 217.040122 
L 150.416754 217.040122 
z
" style="fill:#1f77b4;opacity:0.4;"/>
   </g>
   <g id="patch_17">
    <path clip-path="url(#p3af252f0d3)" d="M 156.964266 241.72 
L 163.511779 241.72 
L 163.511779 183.46311 
L 156.964266 183.46311 
z
" style="fill:#1f77b4;opacity:0.4;"/>
   </g>
   <g id="patch_18">
    <path clip-path="url(#p3af252f0d3)" d="M 163.511779 241.72 
L 170.059291 241.72 
L 170.059291 78.128773 
L 163.511779 78.128773 
z
" style="fill:#1f77b4;opacity:0.4;"/>
   </g>
   <g id="patch_19">
    <path clip-path="url(#p3af252f0d3)" d="M 170.059291 241.72 
L 176.606804 241.72 
L 176.606804 36.19619 
L 170.059291 36.19619 
z
" style="fill:#1f77b4;opacity:0.4;"/>
   </g>
   <g id="patch_20">
    <path clip-path="url(#p3af252f0d3)" d="M 176.606804 241.72 
L 183.154317 241.72 
L 183.154317 120.641603 
L 176.606804 120.641603 
z
" style="fill:#1f77b4;opacity:0.4;"/>
   </g>
   <g id="patch_21">
    <path clip-path="url(#p3af252f0d3)" d="M 183.154317 241.72 
L 189.701829 241.72 
L 189.701829 147.526423 
L 183.154317 147.526423 
z
" style="fill:#1f77b4;opacity:0.4;"/>
   </g>
   <g id="patch_22">
    <path clip-path="url(#p3af252f0d3)" d="M 189.701829 241.72 
L 196.249342 241.72 
L 196.249342 183.34706 
L 189.701829 183.34706 
z
" style="fill:#1f77b4;opacity:0.4;"/>
   </g>
   <g id="patch_23">
    <path clip-path="url(#p3af252f0d3)" d="M 196.249342 241.72 
L 202.796854 241.72 
L 202.796854 199.400586 
L 196.249342 199.400586 
z
" style="fill:#1f77b4;opacity:0.4;"/>
   </g>
   <g id="patch_24">
    <path clip-path="url(#p3af252f0d3)" d="M 202.796854 241.72 
L 209.344367 241.72 
L 209.344367 209.226117 
L 202.796854 209.226117 
z
" style="fill:#1f77b4;opacity:0.4;"/>
   </g>
   <g id="patch_25">
    <path clip-path="url(#p3af252f0d3)" d="M 209.344367 241.72 
L 215.891879 241.72 
L 215.891879 210.889494 
L 209.344367 210.889494 
z
" style="fill:#1f77b4;opacity:0.4;"/>
   </g>
   <g id="patch_26">
    <path clip-path="url(#p3af252f0d3)" d="M 215.891879 241.72 
L 222.439392 241.72 
L 222.439392 213.326536 
L 215.891879 213.326536 
z
" style="fill:#1f77b4;opacity:0.4;"/>
   </g>
   <g id="patch_27">
    <path clip-path="url(#p3af252f0d3)" d="M 222.439392 241.72 
L 228.986904 241.72 
L 228.986904 212.282089 
L 222.439392 212.282089 
z
" style="fill:#1f77b4;opacity:0.4;"/>
   </g>
   <g id="patch_28">
    <path clip-path="url(#p3af252f0d3)" d="M 228.986904 241.72 
L 235.534417 241.72 
L 235.534417 213.558635 
L 228.986904 213.558635 
z
" style="fill:#1f77b4;opacity:0.4;"/>
   </g>
   <g id="patch_29">
    <path clip-path="url(#p3af252f0d3)" d="M 235.534417 241.72 
L 242.081929 241.72 
L 242.081929 208.259037 
L 235.534417 208.259037 
z
" style="fill:#1f77b4;opacity:0.4;"/>
   </g>
   <g id="patch_30">
    <path clip-path="url(#p3af252f0d3)" d="M 242.081929 241.72 
L 248.629442 241.72 
L 248.629442 205.319114 
L 242.081929 205.319114 
z
" style="fill:#1f77b4;opacity:0.4;"/>
   </g>
   <g id="patch_31">
    <path clip-path="url(#p3af252f0d3)" d="M 248.629442 241.72 
L 255.176954 241.72 
L 255.176954 199.632685 
L 248.629442 199.632685 
z
" style="fill:#1f77b4;opacity:0.4;"/>
   </g>
   <g id="patch_32">
    <path clip-path="url(#p3af252f0d3)" d="M 255.176954 241.72 
L 261.724467 241.72 
L 261.724467 197.234327 
L 255.176954 197.234327 
z
" style="fill:#1f77b4;opacity:0.4;"/>
   </g>
   <g id="patch_33">
    <path clip-path="url(#p3af252f0d3)" d="M 261.724467 241.72 
L 268.27198 241.72 
L 268.27198 200.715814 
L 261.724467 200.715814 
z
" style="fill:#1f77b4;opacity:0.4;"/>
   </g>
   <g id="patch_34">
    <path clip-path="url(#p3af252f0d3)" d="M 268.27198 241.72 
L 274.819492 241.72 
L 274.819492 204.622817 
L 268.27198 204.622817 
z
" style="fill:#1f77b4;opacity:0.4;"/>
   </g>
   <g id="patch_35">
    <path clip-path="url(#p3af252f0d3)" d="M 274.819492 241.72 
L 281.367005 241.72 
L 281.367005 211.547109 
L 274.819492 211.547109 
z
" style="fill:#1f77b4;opacity:0.4;"/>
   </g>
   <g id="patch_36">
    <path clip-path="url(#p3af252f0d3)" d="M 281.367005 241.72 
L 287.914517 241.72 
L 287.914517 216.885389 
L 281.367005 216.885389 
z
" style="fill:#1f77b4;opacity:0.4;"/>
   </g>
   <g id="patch_37">
    <path clip-path="url(#p3af252f0d3)" d="M 287.914517 241.72 
L 294.46203 241.72 
L 294.46203 221.101858 
L 287.914517 221.101858 
z
" style="fill:#1f77b4;opacity:0.4;"/>
   </g>
   <g id="patch_38">
    <path clip-path="url(#p3af252f0d3)" d="M 294.46203 241.72 
L 301.009542 241.72 
L 301.009542 223.538899 
L 294.46203 223.538899 
z
" style="fill:#1f77b4;opacity:0.4;"/>
   </g>
   <g id="patch_39">
    <path clip-path="url(#p3af252f0d3)" d="M 301.009542 241.72 
L 307.557055 241.72 
L 307.557055 225.318326 
L 301.009542 225.318326 
z
" style="fill:#1f77b4;opacity:0.4;"/>
   </g>
   <g id="patch_40">
    <path clip-path="url(#p3af252f0d3)" d="M 307.557055 241.72 
L 314.104567 241.72 
L 314.104567 226.401455 
L 307.557055 226.401455 
z
" style="fill:#1f77b4;opacity:0.4;"/>
   </g>
   <g id="patch_41">
    <path clip-path="url(#p3af252f0d3)" d="M 314.104567 241.72 
L 320.65208 241.72 
L 320.65208 227.948783 
L 314.104567 227.948783 
z
" style="fill:#1f77b4;opacity:0.4;"/>
   </g>
   <g id="patch_42">
    <path clip-path="url(#p3af252f0d3)" d="M 320.65208 241.72 
L 327.199592 241.72 
L 327.199592 231.585003 
L 320.65208 231.585003 
z
" style="fill:#1f77b4;opacity:0.4;"/>
   </g>
   <g id="patch_43">
    <path clip-path="url(#p3af252f0d3)" d="M 327.199592 241.72 
L 333.747105 241.72 
L 333.747105 234.602292 
L 327.199592 234.602292 
z
" style="fill:#1f77b4;opacity:0.4;"/>
   </g>
   <g id="patch_44">
    <path clip-path="url(#p3af252f0d3)" d="M 333.747105 241.72 
L 340.294617 241.72 
L 340.294617 239.282959 
L 333.747105 239.282959 
z
" style="fill:#1f77b4;opacity:0.4;"/>
   </g>
   <g id="patch_45">
    <path clip-path="url(#p3af252f0d3)" d="M 340.294617 241.72 
L 346.84213 241.72 
L 346.84213 240.250039 
L 340.294617 240.250039 
z
" style="fill:#1f77b4;opacity:0.4;"/>
   </g>
   <g id="patch_46">
    <path clip-path="url(#p3af252f0d3)" d="M 346.84213 241.72 
L 353.389643 241.72 
L 353.389643 241.217118 
L 346.84213 241.217118 
z
" style="fill:#1f77b4;opacity:0.4;"/>
   </g>
   <g id="patch_47">
    <path clip-path="url(#p3af252f0d3)" d="M 353.389643 241.72 
L 359.937155 241.72 
L 359.937155 241.333168 
L 353.389643 241.333168 
z
" style="fill:#1f77b4;opacity:0.4;"/>
   </g>
   <g id="patch_48">
    <path clip-path="url(#p3af252f0d3)" d="M 359.937155 241.72 
L 366.484668 241.72 
L 366.484668 241.642634 
L 359.937155 241.642634 
z
" style="fill:#1f77b4;opacity:0.4;"/>
   </g>
   <g id="patch_49">
    <path clip-path="url(#p3af252f0d3)" d="M 366.484668 241.72 
L 373.03218 241.72 
L 373.03218 241.72 
L 366.484668 241.72 
z
" style="fill:#1f77b4;opacity:0.4;"/>
   </g>
   <g id="patch_50">
    <path clip-path="url(#p3af252f0d3)" d="M 373.03218 241.72 
L 379.579693 241.72 
L 379.579693 241.642634 
L 373.03218 241.642634 
z
" style="fill:#1f77b4;opacity:0.4;"/>
   </g>
   <g id="patch_51">
    <path clip-path="url(#p3af252f0d3)" d="M 379.579693 241.72 
L 386.127205 241.72 
L 386.127205 241.681317 
L 379.579693 241.681317 
z
" style="fill:#1f77b4;opacity:0.4;"/>
   </g>
   <g id="patch_52">
    <path clip-path="url(#p3af252f0d3)" d="M 386.127205 241.72 
L 392.674718 241.72 
L 392.674718 241.681317 
L 386.127205 241.681317 
z
" style="fill:#1f77b4;opacity:0.4;"/>
   </g>
   <g id="patch_53">
    <path clip-path="url(#p3af252f0d3)" d="M 65.299091 241.72 
L 71.846603 241.72 
L 71.846603 241.72 
L 65.299091 241.72 
z
" style="fill:#ff7f0e;opacity:0.4;"/>
   </g>
   <g id="patch_54">
    <path clip-path="url(#p3af252f0d3)" d="M 71.846603 241.72 
L 78.394116 241.72 
L 78.394116 241.72 
L 71.846603 241.72 
z
" style="fill:#ff7f0e;opacity:0.4;"/>
   </g>
   <g id="patch_55">
    <path clip-path="url(#p3af252f0d3)" d="M 78.394116 241.72 
L 84.941629 241.72 
L 84.941629 241.72 
L 78.394116 241.72 
z
" style="fill:#ff7f0e;opacity:0.4;"/>
   </g>
   <g id="patch_56">
    <path clip-path="url(#p3af252f0d3)" d="M 84.941629 241.72 
L 91.489141 241.72 
L 91.489141 241.72 
L 84.941629 241.72 
z
" style="fill:#ff7f0e;opacity:0.4;"/>
   </g>
   <g id="patch_57">
    <path clip-path="url(#p3af252f0d3)" d="M 91.489141 241.72 
L 98.036654 241.72 
L 98.036654 241.72 
L 91.489141 241.72 
z
" style="fill:#ff7f0e;opacity:0.4;"/>
   </g>
   <g id="patch_58">
    <path clip-path="url(#p3af252f0d3)" d="M 98.036654 241.72 
L 104.584166 241.72 
L 104.584166 241.609096 
L 98.036654 241.609096 
z
" style="fill:#ff7f0e;opacity:0.4;"/>
   </g>
   <g id="patch_59">
    <path clip-path="url(#p3af252f0d3)" d="M 104.584166 241.72 
L 111.131679 241.72 
L 111.131679 241.239418 
L 104.584166 241.239418 
z
" style="fill:#ff7f0e;opacity:0.4;"/>
   </g>
   <g id="patch_60">
    <path clip-path="url(#p3af252f0d3)" d="M 111.131679 241.72 
L 117.679191 241.72 
L 117.679191 241.72 
L 111.131679 241.72 
z
" style="fill:#ff7f0e;opacity:0.4;"/>
   </g>
   <g id="patch_61">
    <path clip-path="url(#p3af252f0d3)" d="M 117.679191 241.72 
L 124.226704 241.72 
L 124.226704 240.721868 
L 117.679191 240.721868 
z
" style="fill:#ff7f0e;opacity:0.4;"/>
   </g>
   <g id="patch_62">
    <path clip-path="url(#p3af252f0d3)" d="M 124.226704 241.72 
L 130.774216 241.72 
L 130.774216 240.832771 
L 124.226704 240.832771 
z
" style="fill:#ff7f0e;opacity:0.4;"/>
   </g>
   <g id="patch_63">
    <path clip-path="url(#p3af252f0d3)" d="M 130.774216 241.72 
L 137.321729 241.72 
L 137.321729 238.245021 
L 130.774216 238.245021 
z
" style="fill:#ff7f0e;opacity:0.4;"/>
   </g>
   <g id="patch_64">
    <path clip-path="url(#p3af252f0d3)" d="M 137.321729 241.72 
L 143.869241 241.72 
L 143.869241 238.281989 
L 137.321729 238.281989 
z
" style="fill:#ff7f0e;opacity:0.4;"/>
   </g>
   <g id="patch_65">
    <path clip-path="url(#p3af252f0d3)" d="M 143.869241 241.72 
L 150.416754 241.72 
L 150.416754 237.690503 
L 143.869241 237.690503 
z
" style="fill:#ff7f0e;opacity:0.4;"/>
   </g>
   <g id="patch_66">
    <path clip-path="url(#p3af252f0d3)" d="M 150.416754 241.72 
L 156.964266 241.72 
L 156.964266 217.17334 
L 150.416754 217.17334 
z
" style="fill:#ff7f0e;opacity:0.4;"/>
   </g>
   <g id="patch_67">
    <path clip-path="url(#p3af252f0d3)" d="M 156.964266 241.72 
L 163.511779 241.72 
L 163.511779 182.423551 
L 156.964266 182.423551 
z
" style="fill:#ff7f0e;opacity:0.4;"/>
   </g>
   <g id="patch_68">
    <path clip-path="url(#p3af252f0d3)" d="M 163.511779 241.72 
L 170.059291 241.72 
L 170.059291 79.283219 
L 163.511779 79.283219 
z
" style="fill:#ff7f0e;opacity:0.4;"/>
   </g>
   <g id="patch_69">
    <path clip-path="url(#p3af252f0d3)" d="M 170.059291 241.72 
L 176.606804 241.72 
L 176.606804 37.10289 
L 170.059291 37.10289 
z
" style="fill:#ff7f0e;opacity:0.4;"/>
   </g>
   <g id="patch_70">
    <path clip-path="url(#p3af252f0d3)" d="M 176.606804 241.72 
L 183.154317 241.72 
L 183.154317 113.515458 
L 176.606804 113.515458 
z
" style="fill:#ff7f0e;opacity:0.4;"/>
   </g>
   <g id="patch_71">
    <path clip-path="url(#p3af252f0d3)" d="M 183.154317 241.72 
L 189.701829 241.72 
L 189.701829 149.633058 
L 183.154317 149.633058 
z
" style="fill:#ff7f0e;opacity:0.4;"/>
   </g>
   <g id="patch_72">
    <path clip-path="url(#p3af252f0d3)" d="M 189.701829 241.72 
L 196.249342 241.72 
L 196.249342 183.495619 
L 189.701829 183.495619 
z
" style="fill:#ff7f0e;opacity:0.4;"/>
   </g>
   <g id="patch_73">
    <path clip-path="url(#p3af252f0d3)" d="M 196.249342 241.72 
L 202.796854 241.72 
L 202.796854 195.768949 
L 196.249342 195.768949 
z
" style="fill:#ff7f0e;opacity:0.4;"/>
   </g>
   <g id="patch_74">
    <path clip-path="url(#p3af252f0d3)" d="M 202.796854 241.72 
L 209.344367 241.72 
L 209.344367 205.824207 
L 202.796854 205.824207 
z
" style="fill:#ff7f0e;opacity:0.4;"/>
   </g>
   <g id="patch_75">
    <path clip-path="url(#p3af252f0d3)" d="M 209.344367 241.72 
L 215.891879 241.72 
L 215.891879 209.7428 
L 209.344367 209.7428 
z
" style="fill:#ff7f0e;opacity:0.4;"/>
   </g>
   <g id="patch_76">
    <path clip-path="url(#p3af252f0d3)" d="M 215.891879 241.72 
L 222.439392 241.72 
L 222.439392 211.221515 
L 215.891879 211.221515 
z
" style="fill:#ff7f0e;opacity:0.4;"/>
   </g>
   <g id="patch_77">
    <path clip-path="url(#p3af252f0d3)" d="M 222.439392 241.72 
L 228.986904 241.72 
L 228.986904 211.702097 
L 222.439392 211.702097 
z
" style="fill:#ff7f0e;opacity:0.4;"/>
   </g>
   <g id="patch_78">
    <path clip-path="url(#p3af252f0d3)" d="M 228.986904 241.72 
L 235.534417 241.72 
L 235.534417 212.589326 
L 228.986904 212.589326 
z
" style="fill:#ff7f0e;opacity:0.4;"/>
   </g>
   <g id="patch_79">
    <path clip-path="url(#p3af252f0d3)" d="M 235.534417 241.72 
L 242.081929 241.72 
L 242.081929 208.818604 
L 235.534417 208.818604 
z
" style="fill:#ff7f0e;opacity:0.4;"/>
   </g>
   <g id="patch_80">
    <path clip-path="url(#p3af252f0d3)" d="M 242.081929 241.72 
L 248.629442 241.72 
L 248.629442 206.748404 
L 242.081929 206.748404 
z
" style="fill:#ff7f0e;opacity:0.4;"/>
   </g>
   <g id="patch_81">
    <path clip-path="url(#p3af252f0d3)" d="M 248.629442 241.72 
L 255.176954 241.72 
L 255.176954 203.01465 
L 248.629442 203.01465 
z
" style="fill:#ff7f0e;opacity:0.4;"/>
   </g>
   <g id="patch_82">
    <path clip-path="url(#p3af252f0d3)" d="M 255.176954 241.72 
L 261.724467 241.72 
L 261.724467 199.465735 
L 255.176954 199.465735 
z
" style="fill:#ff7f0e;opacity:0.4;"/>
   </g>
   <g id="patch_83">
    <path clip-path="url(#p3af252f0d3)" d="M 261.724467 241.72 
L 268.27198 241.72 
L 268.27198 203.421296 
L 261.724467 203.421296 
z
" style="fill:#ff7f0e;opacity:0.4;"/>
   </g>
   <g id="patch_84">
    <path clip-path="url(#p3af252f0d3)" d="M 268.27198 241.72 
L 274.819492 241.72 
L 274.819492 206.896275 
L 268.27198 206.896275 
z
" style="fill:#ff7f0e;opacity:0.4;"/>
   </g>
   <g id="patch_85">
    <path clip-path="url(#p3af252f0d3)" d="M 274.819492 241.72 
L 281.367005 241.72 
L 281.367005 213.772297 
L 274.819492 213.772297 
z
" style="fill:#ff7f0e;opacity:0.4;"/>
   </g>
   <g id="patch_86">
    <path clip-path="url(#p3af252f0d3)" d="M 281.367005 241.72 
L 287.914517 241.72 
L 287.914517 218.356312 
L 281.367005 218.356312 
z
" style="fill:#ff7f0e;opacity:0.4;"/>
   </g>
   <g id="patch_87">
    <path clip-path="url(#p3af252f0d3)" d="M 287.914517 241.72 
L 294.46203 241.72 
L 294.46203 221.572516 
L 287.914517 221.572516 
z
" style="fill:#ff7f0e;opacity:0.4;"/>
   </g>
   <g id="patch_88">
    <path clip-path="url(#p3af252f0d3)" d="M 294.46203 241.72 
L 301.009542 241.72 
L 301.009542 224.973559 
L 294.46203 224.973559 
z
" style="fill:#ff7f0e;opacity:0.4;"/>
   </g>
   <g id="patch_89">
    <path clip-path="url(#p3af252f0d3)" d="M 301.009542 241.72 
L 307.557055 241.72 
L 307.557055 226.082595 
L 301.009542 226.082595 
z
" style="fill:#ff7f0e;opacity:0.4;"/>
   </g>
   <g id="patch_90">
    <path clip-path="url(#p3af252f0d3)" d="M 307.557055 241.72 
L 314.104567 241.72 
L 314.104567 227.89402 
L 307.557055 227.89402 
z
" style="fill:#ff7f0e;opacity:0.4;"/>
   </g>
   <g id="patch_91">
    <path clip-path="url(#p3af252f0d3)" d="M 314.104567 241.72 
L 320.65208 241.72 
L 320.65208 229.003056 
L 314.104567 229.003056 
z
" style="fill:#ff7f0e;opacity:0.4;"/>
   </g>
   <g id="patch_92">
    <path clip-path="url(#p3af252f0d3)" d="M 320.65208 241.72 
L 327.199592 241.72 
L 327.199592 231.442935 
L 320.65208 231.442935 
z
" style="fill:#ff7f0e;opacity:0.4;"/>
   </g>
   <g id="patch_93">
    <path clip-path="url(#p3af252f0d3)" d="M 327.199592 241.72 
L 333.747105 241.72 
L 333.747105 235.694239 
L 327.199592 235.694239 
z
" style="fill:#ff7f0e;opacity:0.4;"/>
   </g>
   <g id="patch_94">
    <path clip-path="url(#p3af252f0d3)" d="M 333.747105 241.72 
L 340.294617 241.72 
L 340.294617 238.503796 
L 333.747105 238.503796 
z
" style="fill:#ff7f0e;opacity:0.4;"/>
   </g>
   <g id="patch_95">
    <path clip-path="url(#p3af252f0d3)" d="M 340.294617 241.72 
L 346.84213 241.72 
L 346.84213 240.389157 
L 340.294617 240.389157 
z
" style="fill:#ff7f0e;opacity:0.4;"/>
   </g>
   <g id="patch_96">
    <path clip-path="url(#p3af252f0d3)" d="M 346.84213 241.72 
L 353.389643 241.72 
L 353.389643 241.091546 
L 346.84213 241.091546 
z
" style="fill:#ff7f0e;opacity:0.4;"/>
   </g>
   <g id="patch_97">
    <path clip-path="url(#p3af252f0d3)" d="M 353.389643 241.72 
L 359.937155 241.72 
L 359.937155 241.424257 
L 353.389643 241.424257 
z
" style="fill:#ff7f0e;opacity:0.4;"/>
   </g>
   <g id="patch_98">
    <path clip-path="url(#p3af252f0d3)" d="M 359.937155 241.72 
L 366.484668 241.72 
L 366.484668 241.424257 
L 359.937155 241.424257 
z
" style="fill:#ff7f0e;opacity:0.4;"/>
   </g>
   <g id="patch_99">
    <path clip-path="url(#p3af252f0d3)" d="M 366.484668 241.72 
L 373.03218 241.72 
L 373.03218 241.350321 
L 366.484668 241.350321 
z
" style="fill:#ff7f0e;opacity:0.4;"/>
   </g>
   <g id="patch_100">
    <path clip-path="url(#p3af252f0d3)" d="M 373.03218 241.72 
L 379.579693 241.72 
L 379.579693 241.535161 
L 373.03218 241.535161 
z
" style="fill:#ff7f0e;opacity:0.4;"/>
   </g>
   <g id="patch_101">
    <path clip-path="url(#p3af252f0d3)" d="M 379.579693 241.72 
L 386.127205 241.72 
L 386.127205 241.646064 
L 379.579693 241.646064 
z
" style="fill:#ff7f0e;opacity:0.4;"/>
   </g>
   <g id="patch_102">
    <path clip-path="url(#p3af252f0d3)" d="M 386.127205 241.72 
L 392.674718 241.72 
L 392.674718 241.683032 
L 386.127205 241.683032 
z
" style="fill:#ff7f0e;opacity:0.4;"/>
   </g>
   <g id="matplotlib.axis_1">
    <g id="xtick_1">
     <g id="line2d_1">
      <defs>
       <path d="M 0 0 
L 0 3.5 
" id="mda12b83b80" style="stroke:#000000;stroke-width:0.8;"/>
      </defs>
      <g>
       <use style="stroke:#000000;stroke-width:0.8;" x="65.299091" xlink:href="#mda12b83b80" y="241.72"/>
      </g>
     </g>
     <g id="text_1">
      <!-- 0.01 -->
      <defs>
       <path d="M 31.78125 66.40625 
Q 24.171875 66.40625 20.328125 58.90625 
Q 16.5 51.421875 16.5 36.375 
Q 16.5 21.390625 20.328125 13.890625 
Q 24.171875 6.390625 31.78125 6.390625 
Q 39.453125 6.390625 43.28125 13.890625 
Q 47.125 21.390625 47.125 36.375 
Q 47.125 51.421875 43.28125 58.90625 
Q 39.453125 66.40625 31.78125 66.40625 
z
M 31.78125 74.21875 
Q 44.046875 74.21875 50.515625 64.515625 
Q 56.984375 54.828125 56.984375 36.375 
Q 56.984375 17.96875 50.515625 8.265625 
Q 44.046875 -1.421875 31.78125 -1.421875 
Q 19.53125 -1.421875 13.0625 8.265625 
Q 6.59375 17.96875 6.59375 36.375 
Q 6.59375 54.828125 13.0625 64.515625 
Q 19.53125 74.21875 31.78125 74.21875 
z
" id="DejaVuSans-48"/>
       <path d="M 10.6875 12.40625 
L 21 12.40625 
L 21 0 
L 10.6875 0 
z
" id="DejaVuSans-46"/>
       <path d="M 12.40625 8.296875 
L 28.515625 8.296875 
L 28.515625 63.921875 
L 10.984375 60.40625 
L 10.984375 69.390625 
L 28.421875 72.90625 
L 38.28125 72.90625 
L 38.28125 8.296875 
L 54.390625 8.296875 
L 54.390625 0 
L 12.40625 0 
z
" id="DejaVuSans-49"/>
      </defs>
      <g transform="translate(54.166278 256.318438)scale(0.1 -0.1)">
       <use xlink:href="#DejaVuSans-48"/>
       <use x="63.623047" xlink:href="#DejaVuSans-46"/>
       <use x="95.410156" xlink:href="#DejaVuSans-48"/>
       <use x="159.033203" xlink:href="#DejaVuSans-49"/>
      </g>
     </g>
    </g>
    <g id="xtick_2">
     <g id="line2d_2">
      <g>
       <use style="stroke:#000000;stroke-width:0.8;" x="130.774216" xlink:href="#mda12b83b80" y="241.72"/>
      </g>
     </g>
     <g id="text_2">
      <!-- 0.1 -->
      <g transform="translate(122.822654 256.318438)scale(0.1 -0.1)">
       <use xlink:href="#DejaVuSans-48"/>
       <use x="63.623047" xlink:href="#DejaVuSans-46"/>
       <use x="95.410156" xlink:href="#DejaVuSans-49"/>
      </g>
     </g>
    </g>
    <g id="xtick_3">
     <g id="line2d_3">
      <g>
       <use style="stroke:#000000;stroke-width:0.8;" x="196.249342" xlink:href="#mda12b83b80" y="241.72"/>
      </g>
     </g>
     <g id="text_3">
      <!-- 1 -->
      <g transform="translate(193.068092 256.318438)scale(0.1 -0.1)">
       <use xlink:href="#DejaVuSans-49"/>
      </g>
     </g>
    </g>
    <g id="xtick_4">
     <g id="line2d_4">
      <g>
       <use style="stroke:#000000;stroke-width:0.8;" x="261.724467" xlink:href="#mda12b83b80" y="241.72"/>
      </g>
     </g>
     <g id="text_4">
      <!-- 10 -->
      <g transform="translate(255.361967 256.318438)scale(0.1 -0.1)">
       <use xlink:href="#DejaVuSans-49"/>
       <use x="63.623047" xlink:href="#DejaVuSans-48"/>
      </g>
     </g>
    </g>
    <g id="xtick_5">
     <g id="line2d_5">
      <g>
       <use style="stroke:#000000;stroke-width:0.8;" x="327.199592" xlink:href="#mda12b83b80" y="241.72"/>
      </g>
     </g>
     <g id="text_5">
      <!-- 100 -->
      <g transform="translate(317.655842 256.318438)scale(0.1 -0.1)">
       <use xlink:href="#DejaVuSans-49"/>
       <use x="63.623047" xlink:href="#DejaVuSans-48"/>
       <use x="127.246094" xlink:href="#DejaVuSans-48"/>
      </g>
     </g>
    </g>
    <g id="xtick_6">
     <g id="line2d_6">
      <g>
       <use style="stroke:#000000;stroke-width:0.8;" x="392.674718" xlink:href="#mda12b83b80" y="241.72"/>
      </g>
     </g>
     <g id="text_6">
      <!-- 1000 -->
      <g transform="translate(379.949718 256.318438)scale(0.1 -0.1)">
       <use xlink:href="#DejaVuSans-49"/>
       <use x="63.623047" xlink:href="#DejaVuSans-48"/>
       <use x="127.246094" xlink:href="#DejaVuSans-48"/>
       <use x="190.869141" xlink:href="#DejaVuSans-48"/>
      </g>
     </g>
    </g>
    <g id="text_7">
     <!-- minutes between pellets -->
     <defs>
      <path d="M 52 44.1875 
Q 55.375 50.25 60.0625 53.125 
Q 64.75 56 71.09375 56 
Q 79.640625 56 84.28125 50.015625 
Q 88.921875 44.046875 88.921875 33.015625 
L 88.921875 0 
L 79.890625 0 
L 79.890625 32.71875 
Q 79.890625 40.578125 77.09375 44.375 
Q 74.3125 48.1875 68.609375 48.1875 
Q 61.625 48.1875 57.5625 43.546875 
Q 53.515625 38.921875 53.515625 30.90625 
L 53.515625 0 
L 44.484375 0 
L 44.484375 32.71875 
Q 44.484375 40.625 41.703125 44.40625 
Q 38.921875 48.1875 33.109375 48.1875 
Q 26.21875 48.1875 22.15625 43.53125 
Q 18.109375 38.875 18.109375 30.90625 
L 18.109375 0 
L 9.078125 0 
L 9.078125 54.6875 
L 18.109375 54.6875 
L 18.109375 46.1875 
Q 21.1875 51.21875 25.484375 53.609375 
Q 29.78125 56 35.6875 56 
Q 41.65625 56 45.828125 52.96875 
Q 50 49.953125 52 44.1875 
z
" id="DejaVuSans-109"/>
      <path d="M 9.421875 54.6875 
L 18.40625 54.6875 
L 18.40625 0 
L 9.421875 0 
z
M 9.421875 75.984375 
L 18.40625 75.984375 
L 18.40625 64.59375 
L 9.421875 64.59375 
z
" id="DejaVuSans-105"/>
      <path d="M 54.890625 33.015625 
L 54.890625 0 
L 45.90625 0 
L 45.90625 32.71875 
Q 45.90625 40.484375 42.875 44.328125 
Q 39.84375 48.1875 33.796875 48.1875 
Q 26.515625 48.1875 22.3125 43.546875 
Q 18.109375 38.921875 18.109375 30.90625 
L 18.109375 0 
L 9.078125 0 
L 9.078125 54.6875 
L 18.109375 54.6875 
L 18.109375 46.1875 
Q 21.34375 51.125 25.703125 53.5625 
Q 30.078125 56 35.796875 56 
Q 45.21875 56 50.046875 50.171875 
Q 54.890625 44.34375 54.890625 33.015625 
z
" id="DejaVuSans-110"/>
      <path d="M 8.5 21.578125 
L 8.5 54.6875 
L 17.484375 54.6875 
L 17.484375 21.921875 
Q 17.484375 14.15625 20.5 10.265625 
Q 23.53125 6.390625 29.59375 6.390625 
Q 36.859375 6.390625 41.078125 11.03125 
Q 45.3125 15.671875 45.3125 23.6875 
L 45.3125 54.6875 
L 54.296875 54.6875 
L 54.296875 0 
L 45.3125 0 
L 45.3125 8.40625 
Q 42.046875 3.421875 37.71875 1 
Q 33.40625 -1.421875 27.6875 -1.421875 
Q 18.265625 -1.421875 13.375 4.4375 
Q 8.5 10.296875 8.5 21.578125 
z
M 31.109375 56 
z
" id="DejaVuSans-117"/>
      <path d="M 18.3125 70.21875 
L 18.3125 54.6875 
L 36.8125 54.6875 
L 36.8125 47.703125 
L 18.3125 47.703125 
L 18.3125 18.015625 
Q 18.3125 11.328125 20.140625 9.421875 
Q 21.96875 7.515625 27.59375 7.515625 
L 36.8125 7.515625 
L 36.8125 0 
L 27.59375 0 
Q 17.1875 0 13.234375 3.875 
Q 9.28125 7.765625 9.28125 18.015625 
L 9.28125 47.703125 
L 2.6875 47.703125 
L 2.6875 54.6875 
L 9.28125 54.6875 
L 9.28125 70.21875 
z
" id="DejaVuSans-116"/>
      <path d="M 56.203125 29.59375 
L 56.203125 25.203125 
L 14.890625 25.203125 
Q 15.484375 15.921875 20.484375 11.0625 
Q 25.484375 6.203125 34.421875 6.203125 
Q 39.59375 6.203125 44.453125 7.46875 
Q 49.3125 8.734375 54.109375 11.28125 
L 54.109375 2.78125 
Q 49.265625 0.734375 44.1875 -0.34375 
Q 39.109375 -1.421875 33.890625 -1.421875 
Q 20.796875 -1.421875 13.15625 6.1875 
Q 5.515625 13.8125 5.515625 26.8125 
Q 5.515625 40.234375 12.765625 48.109375 
Q 20.015625 56 32.328125 56 
Q 43.359375 56 49.78125 48.890625 
Q 56.203125 41.796875 56.203125 29.59375 
z
M 47.21875 32.234375 
Q 47.125 39.59375 43.09375 43.984375 
Q 39.0625 48.390625 32.421875 48.390625 
Q 24.90625 48.390625 20.390625 44.140625 
Q 15.875 39.890625 15.1875 32.171875 
z
" id="DejaVuSans-101"/>
      <path d="M 44.28125 53.078125 
L 44.28125 44.578125 
Q 40.484375 46.53125 36.375 47.5 
Q 32.28125 48.484375 27.875 48.484375 
Q 21.1875 48.484375 17.84375 46.4375 
Q 14.5 44.390625 14.5 40.28125 
Q 14.5 37.15625 16.890625 35.375 
Q 19.28125 33.59375 26.515625 31.984375 
L 29.59375 31.296875 
Q 39.15625 29.25 43.1875 25.515625 
Q 47.21875 21.78125 47.21875 15.09375 
Q 47.21875 7.46875 41.1875 3.015625 
Q 35.15625 -1.421875 24.609375 -1.421875 
Q 20.21875 -1.421875 15.453125 -0.5625 
Q 10.6875 0.296875 5.421875 2 
L 5.421875 11.28125 
Q 10.40625 8.6875 15.234375 7.390625 
Q 20.0625 6.109375 24.8125 6.109375 
Q 31.15625 6.109375 34.5625 8.28125 
Q 37.984375 10.453125 37.984375 14.40625 
Q 37.984375 18.0625 35.515625 20.015625 
Q 33.0625 21.96875 24.703125 23.78125 
L 21.578125 24.515625 
Q 13.234375 26.265625 9.515625 29.90625 
Q 5.8125 33.546875 5.8125 39.890625 
Q 5.8125 47.609375 11.28125 51.796875 
Q 16.75 56 26.8125 56 
Q 31.78125 56 36.171875 55.265625 
Q 40.578125 54.546875 44.28125 53.078125 
z
" id="DejaVuSans-115"/>
      <path id="DejaVuSans-32"/>
      <path d="M 48.6875 27.296875 
Q 48.6875 37.203125 44.609375 42.84375 
Q 40.53125 48.484375 33.40625 48.484375 
Q 26.265625 48.484375 22.1875 42.84375 
Q 18.109375 37.203125 18.109375 27.296875 
Q 18.109375 17.390625 22.1875 11.75 
Q 26.265625 6.109375 33.40625 6.109375 
Q 40.53125 6.109375 44.609375 11.75 
Q 48.6875 17.390625 48.6875 27.296875 
z
M 18.109375 46.390625 
Q 20.953125 51.265625 25.265625 53.625 
Q 29.59375 56 35.59375 56 
Q 45.5625 56 51.78125 48.09375 
Q 58.015625 40.1875 58.015625 27.296875 
Q 58.015625 14.40625 51.78125 6.484375 
Q 45.5625 -1.421875 35.59375 -1.421875 
Q 29.59375 -1.421875 25.265625 0.953125 
Q 20.953125 3.328125 18.109375 8.203125 
L 18.109375 0 
L 9.078125 0 
L 9.078125 75.984375 
L 18.109375 75.984375 
z
" id="DejaVuSans-98"/>
      <path d="M 4.203125 54.6875 
L 13.1875 54.6875 
L 24.421875 12.015625 
L 35.59375 54.6875 
L 46.1875 54.6875 
L 57.421875 12.015625 
L 68.609375 54.6875 
L 77.59375 54.6875 
L 63.28125 0 
L 52.6875 0 
L 40.921875 44.828125 
L 29.109375 0 
L 18.5 0 
z
" id="DejaVuSans-119"/>
      <path d="M 18.109375 8.203125 
L 18.109375 -20.796875 
L 9.078125 -20.796875 
L 9.078125 54.6875 
L 18.109375 54.6875 
L 18.109375 46.390625 
Q 20.953125 51.265625 25.265625 53.625 
Q 29.59375 56 35.59375 56 
Q 45.5625 56 51.78125 48.09375 
Q 58.015625 40.1875 58.015625 27.296875 
Q 58.015625 14.40625 51.78125 6.484375 
Q 45.5625 -1.421875 35.59375 -1.421875 
Q 29.59375 -1.421875 25.265625 0.953125 
Q 20.953125 3.328125 18.109375 8.203125 
z
M 48.6875 27.296875 
Q 48.6875 37.203125 44.609375 42.84375 
Q 40.53125 48.484375 33.40625 48.484375 
Q 26.265625 48.484375 22.1875 42.84375 
Q 18.109375 37.203125 18.109375 27.296875 
Q 18.109375 17.390625 22.1875 11.75 
Q 26.265625 6.109375 33.40625 6.109375 
Q 40.53125 6.109375 44.609375 11.75 
Q 48.6875 17.390625 48.6875 27.296875 
z
" id="DejaVuSans-112"/>
      <path d="M 9.421875 75.984375 
L 18.40625 75.984375 
L 18.40625 0 
L 9.421875 0 
z
" id="DejaVuSans-108"/>
     </defs>
     <g transform="translate(183.581406 269.996563)scale(0.1 -0.1)">
      <use xlink:href="#DejaVuSans-109"/>
      <use x="97.412109" xlink:href="#DejaVuSans-105"/>
      <use x="125.195312" xlink:href="#DejaVuSans-110"/>
      <use x="188.574219" xlink:href="#DejaVuSans-117"/>
      <use x="251.953125" xlink:href="#DejaVuSans-116"/>
      <use x="291.162109" xlink:href="#DejaVuSans-101"/>
      <use x="352.685547" xlink:href="#DejaVuSans-115"/>
      <use x="404.785156" xlink:href="#DejaVuSans-32"/>
      <use x="436.572266" xlink:href="#DejaVuSans-98"/>
      <use x="500.048828" xlink:href="#DejaVuSans-101"/>
      <use x="561.572266" xlink:href="#DejaVuSans-116"/>
      <use x="600.78125" xlink:href="#DejaVuSans-119"/>
      <use x="682.568359" xlink:href="#DejaVuSans-101"/>
      <use x="744.091797" xlink:href="#DejaVuSans-101"/>
      <use x="805.615234" xlink:href="#DejaVuSans-110"/>
      <use x="868.994141" xlink:href="#DejaVuSans-32"/>
      <use x="900.78125" xlink:href="#DejaVuSans-112"/>
      <use x="964.257812" xlink:href="#DejaVuSans-101"/>
      <use x="1025.78125" xlink:href="#DejaVuSans-108"/>
      <use x="1053.564453" xlink:href="#DejaVuSans-108"/>
      <use x="1081.347656" xlink:href="#DejaVuSans-101"/>
      <use x="1142.871094" xlink:href="#DejaVuSans-116"/>
      <use x="1182.080078" xlink:href="#DejaVuSans-115"/>
     </g>
    </g>
   </g>
   <g id="matplotlib.axis_2">
    <g id="ytick_1">
     <g id="line2d_7">
      <defs>
       <path d="M 0 0 
L -3.5 0 
" id="mb79a70747f" style="stroke:#000000;stroke-width:0.8;"/>
      </defs>
      <g>
       <use style="stroke:#000000;stroke-width:0.8;" x="47.3" xlink:href="#mb79a70747f" y="241.72"/>
      </g>
     </g>
     <g id="text_8">
      <!-- 0.0 -->
      <g transform="translate(24.396875 245.519219)scale(0.1 -0.1)">
       <use xlink:href="#DejaVuSans-48"/>
       <use x="63.623047" xlink:href="#DejaVuSans-46"/>
       <use x="95.410156" xlink:href="#DejaVuSans-48"/>
      </g>
     </g>
    </g>
    <g id="ytick_2">
     <g id="line2d_8">
      <g>
       <use style="stroke:#000000;stroke-width:0.8;" x="47.3" xlink:href="#mb79a70747f" y="215.292416"/>
      </g>
     </g>
     <g id="text_9">
      <!-- 0.2 -->
      <defs>
       <path d="M 19.1875 8.296875 
L 53.609375 8.296875 
L 53.609375 0 
L 7.328125 0 
L 7.328125 8.296875 
Q 12.9375 14.109375 22.625 23.890625 
Q 32.328125 33.6875 34.8125 36.53125 
Q 39.546875 41.84375 41.421875 45.53125 
Q 43.3125 49.21875 43.3125 52.78125 
Q 43.3125 58.59375 39.234375 62.25 
Q 35.15625 65.921875 28.609375 65.921875 
Q 23.96875 65.921875 18.8125 64.3125 
Q 13.671875 62.703125 7.8125 59.421875 
L 7.8125 69.390625 
Q 13.765625 71.78125 18.9375 73 
Q 24.125 74.21875 28.421875 74.21875 
Q 39.75 74.21875 46.484375 68.546875 
Q 53.21875 62.890625 53.21875 53.421875 
Q 53.21875 48.921875 51.53125 44.890625 
Q 49.859375 40.875 45.40625 35.40625 
Q 44.1875 33.984375 37.640625 27.21875 
Q 31.109375 20.453125 19.1875 8.296875 
z
" id="DejaVuSans-50"/>
      </defs>
      <g transform="translate(24.396875 219.091634)scale(0.1 -0.1)">
       <use xlink:href="#DejaVuSans-48"/>
       <use x="63.623047" xlink:href="#DejaVuSans-46"/>
       <use x="95.410156" xlink:href="#DejaVuSans-50"/>
      </g>
     </g>
    </g>
    <g id="ytick_3">
     <g id="line2d_9">
      <g>
       <use style="stroke:#000000;stroke-width:0.8;" x="47.3" xlink:href="#mb79a70747f" y="188.864831"/>
      </g>
     </g>
     <g id="text_10">
      <!-- 0.4 -->
      <defs>
       <path d="M 37.796875 64.3125 
L 12.890625 25.390625 
L 37.796875 25.390625 
z
M 35.203125 72.90625 
L 47.609375 72.90625 
L 47.609375 25.390625 
L 58.015625 25.390625 
L 58.015625 17.1875 
L 47.609375 17.1875 
L 47.609375 0 
L 37.796875 0 
L 37.796875 17.1875 
L 4.890625 17.1875 
L 4.890625 26.703125 
z
" id="DejaVuSans-52"/>
      </defs>
      <g transform="translate(24.396875 192.66405)scale(0.1 -0.1)">
       <use xlink:href="#DejaVuSans-48"/>
       <use x="63.623047" xlink:href="#DejaVuSans-46"/>
       <use x="95.410156" xlink:href="#DejaVuSans-52"/>
      </g>
     </g>
    </g>
    <g id="ytick_4">
     <g id="line2d_10">
      <g>
       <use style="stroke:#000000;stroke-width:0.8;" x="47.3" xlink:href="#mb79a70747f" y="162.437247"/>
      </g>
     </g>
     <g id="text_11">
      <!-- 0.6 -->
      <defs>
       <path d="M 33.015625 40.375 
Q 26.375 40.375 22.484375 35.828125 
Q 18.609375 31.296875 18.609375 23.390625 
Q 18.609375 15.53125 22.484375 10.953125 
Q 26.375 6.390625 33.015625 6.390625 
Q 39.65625 6.390625 43.53125 10.953125 
Q 47.40625 15.53125 47.40625 23.390625 
Q 47.40625 31.296875 43.53125 35.828125 
Q 39.65625 40.375 33.015625 40.375 
z
M 52.59375 71.296875 
L 52.59375 62.3125 
Q 48.875 64.0625 45.09375 64.984375 
Q 41.3125 65.921875 37.59375 65.921875 
Q 27.828125 65.921875 22.671875 59.328125 
Q 17.53125 52.734375 16.796875 39.40625 
Q 19.671875 43.65625 24.015625 45.921875 
Q 28.375 48.1875 33.59375 48.1875 
Q 44.578125 48.1875 50.953125 41.515625 
Q 57.328125 34.859375 57.328125 23.390625 
Q 57.328125 12.15625 50.6875 5.359375 
Q 44.046875 -1.421875 33.015625 -1.421875 
Q 20.359375 -1.421875 13.671875 8.265625 
Q 6.984375 17.96875 6.984375 36.375 
Q 6.984375 53.65625 15.1875 63.9375 
Q 23.390625 74.21875 37.203125 74.21875 
Q 40.921875 74.21875 44.703125 73.484375 
Q 48.484375 72.75 52.59375 71.296875 
z
" id="DejaVuSans-54"/>
      </defs>
      <g transform="translate(24.396875 166.236465)scale(0.1 -0.1)">
       <use xlink:href="#DejaVuSans-48"/>
       <use x="63.623047" xlink:href="#DejaVuSans-46"/>
       <use x="95.410156" xlink:href="#DejaVuSans-54"/>
      </g>
     </g>
    </g>
    <g id="ytick_5">
     <g id="line2d_11">
      <g>
       <use style="stroke:#000000;stroke-width:0.8;" x="47.3" xlink:href="#mb79a70747f" y="136.009662"/>
      </g>
     </g>
     <g id="text_12">
      <!-- 0.8 -->
      <defs>
       <path d="M 31.78125 34.625 
Q 24.75 34.625 20.71875 30.859375 
Q 16.703125 27.09375 16.703125 20.515625 
Q 16.703125 13.921875 20.71875 10.15625 
Q 24.75 6.390625 31.78125 6.390625 
Q 38.8125 6.390625 42.859375 10.171875 
Q 46.921875 13.96875 46.921875 20.515625 
Q 46.921875 27.09375 42.890625 30.859375 
Q 38.875 34.625 31.78125 34.625 
z
M 21.921875 38.8125 
Q 15.578125 40.375 12.03125 44.71875 
Q 8.5 49.078125 8.5 55.328125 
Q 8.5 64.0625 14.71875 69.140625 
Q 20.953125 74.21875 31.78125 74.21875 
Q 42.671875 74.21875 48.875 69.140625 
Q 55.078125 64.0625 55.078125 55.328125 
Q 55.078125 49.078125 51.53125 44.71875 
Q 48 40.375 41.703125 38.8125 
Q 48.828125 37.15625 52.796875 32.3125 
Q 56.78125 27.484375 56.78125 20.515625 
Q 56.78125 9.90625 50.3125 4.234375 
Q 43.84375 -1.421875 31.78125 -1.421875 
Q 19.734375 -1.421875 13.25 4.234375 
Q 6.78125 9.90625 6.78125 20.515625 
Q 6.78125 27.484375 10.78125 32.3125 
Q 14.796875 37.15625 21.921875 38.8125 
z
M 18.3125 54.390625 
Q 18.3125 48.734375 21.84375 45.5625 
Q 25.390625 42.390625 31.78125 42.390625 
Q 38.140625 42.390625 41.71875 45.5625 
Q 45.3125 48.734375 45.3125 54.390625 
Q 45.3125 60.0625 41.71875 63.234375 
Q 38.140625 66.40625 31.78125 66.40625 
Q 25.390625 66.40625 21.84375 63.234375 
Q 18.3125 60.0625 18.3125 54.390625 
z
" id="DejaVuSans-56"/>
      </defs>
      <g transform="translate(24.396875 139.808881)scale(0.1 -0.1)">
       <use xlink:href="#DejaVuSans-48"/>
       <use x="63.623047" xlink:href="#DejaVuSans-46"/>
       <use x="95.410156" xlink:href="#DejaVuSans-56"/>
      </g>
     </g>
    </g>
    <g id="ytick_6">
     <g id="line2d_12">
      <g>
       <use style="stroke:#000000;stroke-width:0.8;" x="47.3" xlink:href="#mb79a70747f" y="109.582078"/>
      </g>
     </g>
     <g id="text_13">
      <!-- 1.0 -->
      <g transform="translate(24.396875 113.381296)scale(0.1 -0.1)">
       <use xlink:href="#DejaVuSans-49"/>
       <use x="63.623047" xlink:href="#DejaVuSans-46"/>
       <use x="95.410156" xlink:href="#DejaVuSans-48"/>
      </g>
     </g>
    </g>
    <g id="ytick_7">
     <g id="line2d_13">
      <g>
       <use style="stroke:#000000;stroke-width:0.8;" x="47.3" xlink:href="#mb79a70747f" y="83.154493"/>
      </g>
     </g>
     <g id="text_14">
      <!-- 1.2 -->
      <g transform="translate(24.396875 86.953712)scale(0.1 -0.1)">
       <use xlink:href="#DejaVuSans-49"/>
       <use x="63.623047" xlink:href="#DejaVuSans-46"/>
       <use x="95.410156" xlink:href="#DejaVuSans-50"/>
      </g>
     </g>
    </g>
    <g id="ytick_8">
     <g id="line2d_14">
      <g>
       <use style="stroke:#000000;stroke-width:0.8;" x="47.3" xlink:href="#mb79a70747f" y="56.726909"/>
      </g>
     </g>
     <g id="text_15">
      <!-- 1.4 -->
      <g transform="translate(24.396875 60.526128)scale(0.1 -0.1)">
       <use xlink:href="#DejaVuSans-49"/>
       <use x="63.623047" xlink:href="#DejaVuSans-46"/>
       <use x="95.410156" xlink:href="#DejaVuSans-52"/>
      </g>
     </g>
    </g>
    <g id="ytick_9">
     <g id="line2d_15">
      <g>
       <use style="stroke:#000000;stroke-width:0.8;" x="47.3" xlink:href="#mb79a70747f" y="30.299324"/>
      </g>
     </g>
     <g id="text_16">
      <!-- 1.6 -->
      <g transform="translate(24.396875 34.098543)scale(0.1 -0.1)">
       <use xlink:href="#DejaVuSans-49"/>
       <use x="63.623047" xlink:href="#DejaVuSans-46"/>
       <use x="95.410156" xlink:href="#DejaVuSans-54"/>
      </g>
     </g>
    </g>
    <g id="text_17">
     <!-- Density Estimation -->
     <defs>
      <path d="M 19.671875 64.796875 
L 19.671875 8.109375 
L 31.59375 8.109375 
Q 46.6875 8.109375 53.6875 14.9375 
Q 60.6875 21.78125 60.6875 36.53125 
Q 60.6875 51.171875 53.6875 57.984375 
Q 46.6875 64.796875 31.59375 64.796875 
z
M 9.8125 72.90625 
L 30.078125 72.90625 
Q 51.265625 72.90625 61.171875 64.09375 
Q 71.09375 55.28125 71.09375 36.53125 
Q 71.09375 17.671875 61.125 8.828125 
Q 51.171875 0 30.078125 0 
L 9.8125 0 
z
" id="DejaVuSans-68"/>
      <path d="M 32.171875 -5.078125 
Q 28.375 -14.84375 24.75 -17.8125 
Q 21.140625 -20.796875 15.09375 -20.796875 
L 7.90625 -20.796875 
L 7.90625 -13.28125 
L 13.1875 -13.28125 
Q 16.890625 -13.28125 18.9375 -11.515625 
Q 21 -9.765625 23.484375 -3.21875 
L 25.09375 0.875 
L 2.984375 54.6875 
L 12.5 54.6875 
L 29.59375 11.921875 
L 46.6875 54.6875 
L 56.203125 54.6875 
z
" id="DejaVuSans-121"/>
      <path d="M 9.8125 72.90625 
L 55.90625 72.90625 
L 55.90625 64.59375 
L 19.671875 64.59375 
L 19.671875 43.015625 
L 54.390625 43.015625 
L 54.390625 34.71875 
L 19.671875 34.71875 
L 19.671875 8.296875 
L 56.78125 8.296875 
L 56.78125 0 
L 9.8125 0 
z
" id="DejaVuSans-69"/>
      <path d="M 34.28125 27.484375 
Q 23.390625 27.484375 19.1875 25 
Q 14.984375 22.515625 14.984375 16.5 
Q 14.984375 11.71875 18.140625 8.90625 
Q 21.296875 6.109375 26.703125 6.109375 
Q 34.1875 6.109375 38.703125 11.40625 
Q 43.21875 16.703125 43.21875 25.484375 
L 43.21875 27.484375 
z
M 52.203125 31.203125 
L 52.203125 0 
L 43.21875 0 
L 43.21875 8.296875 
Q 40.140625 3.328125 35.546875 0.953125 
Q 30.953125 -1.421875 24.3125 -1.421875 
Q 15.921875 -1.421875 10.953125 3.296875 
Q 6 8.015625 6 15.921875 
Q 6 25.140625 12.171875 29.828125 
Q 18.359375 34.515625 30.609375 34.515625 
L 43.21875 34.515625 
L 43.21875 35.40625 
Q 43.21875 41.609375 39.140625 45 
Q 35.0625 48.390625 27.6875 48.390625 
Q 23 48.390625 18.546875 47.265625 
Q 14.109375 46.140625 10.015625 43.890625 
L 10.015625 52.203125 
Q 14.9375 54.109375 19.578125 55.046875 
Q 24.21875 56 28.609375 56 
Q 40.484375 56 46.34375 49.84375 
Q 52.203125 43.703125 52.203125 31.203125 
z
" id="DejaVuSans-97"/>
      <path d="M 30.609375 48.390625 
Q 23.390625 48.390625 19.1875 42.75 
Q 14.984375 37.109375 14.984375 27.296875 
Q 14.984375 17.484375 19.15625 11.84375 
Q 23.34375 6.203125 30.609375 6.203125 
Q 37.796875 6.203125 41.984375 11.859375 
Q 46.1875 17.53125 46.1875 27.296875 
Q 46.1875 37.015625 41.984375 42.703125 
Q 37.796875 48.390625 30.609375 48.390625 
z
M 30.609375 56 
Q 42.328125 56 49.015625 48.375 
Q 55.71875 40.765625 55.71875 27.296875 
Q 55.71875 13.875 49.015625 6.21875 
Q 42.328125 -1.421875 30.609375 -1.421875 
Q 18.84375 -1.421875 12.171875 6.21875 
Q 5.515625 13.875 5.515625 27.296875 
Q 5.515625 40.765625 12.171875 48.375 
Q 18.84375 56 30.609375 56 
z
" id="DejaVuSans-111"/>
     </defs>
     <g transform="translate(18.317187 181.042656)rotate(-90)scale(0.1 -0.1)">
      <use xlink:href="#DejaVuSans-68"/>
      <use x="77.001953" xlink:href="#DejaVuSans-101"/>
      <use x="138.525391" xlink:href="#DejaVuSans-110"/>
      <use x="201.904297" xlink:href="#DejaVuSans-115"/>
      <use x="254.003906" xlink:href="#DejaVuSans-105"/>
      <use x="281.787109" xlink:href="#DejaVuSans-116"/>
      <use x="320.996094" xlink:href="#DejaVuSans-121"/>
      <use x="380.175781" xlink:href="#DejaVuSans-32"/>
      <use x="411.962891" xlink:href="#DejaVuSans-69"/>
      <use x="475.146484" xlink:href="#DejaVuSans-115"/>
      <use x="527.246094" xlink:href="#DejaVuSans-116"/>
      <use x="566.455078" xlink:href="#DejaVuSans-105"/>
      <use x="594.238281" xlink:href="#DejaVuSans-109"/>
      <use x="691.650391" xlink:href="#DejaVuSans-97"/>
      <use x="752.929688" xlink:href="#DejaVuSans-116"/>
      <use x="792.138672" xlink:href="#DejaVuSans-105"/>
      <use x="819.921875" xlink:href="#DejaVuSans-111"/>
      <use x="881.103516" xlink:href="#DejaVuSans-110"/>
     </g>
    </g>
   </g>
   <g id="line2d_16">
    <path clip-path="url(#p3af252f0d3)" d="M 82.064001 241.719807 
L 85.329098 241.719104 
L 88.594195 241.716927 
L 91.859292 241.711961 
L 95.124388 241.702825 
L 98.389485 241.686274 
L 101.654582 241.653746 
L 104.919679 241.59505 
L 108.184775 241.51043 
L 111.449872 241.410208 
L 114.714969 241.29833 
L 117.980066 241.171937 
L 121.245162 241.038243 
L 124.510259 240.911114 
L 127.775356 240.78479 
L 131.040453 240.620327 
L 134.305549 240.356713 
L 137.570646 239.891054 
L 140.835743 238.951762 
L 144.10084 236.870761 
L 147.365936 232.358415 
L 150.631033 223.468056 
L 153.89613 208.056925 
L 157.161227 184.983294 
L 160.426323 155.651611 
L 163.69142 124.680155 
L 166.956517 98.625434 
L 170.221614 83.227765 
L 173.48671 80.956169 
L 176.751807 90.346939 
L 180.016904 107.332294 
L 183.282001 127.420392 
L 186.547097 147.175364 
L 189.812194 164.553789 
L 193.077291 178.710104 
L 196.342388 189.639823 
L 199.607484 197.7176 
L 202.872581 203.373581 
L 206.137678 207.055098 
L 209.402775 209.301272 
L 212.667871 210.687099 
L 215.932968 211.622187 
L 219.198065 212.264181 
L 222.463162 212.649353 
L 225.728258 212.783341 
L 228.993355 212.578781 
L 232.258452 211.859657 
L 235.523549 210.5333 
L 238.788645 208.729538 
L 242.053742 206.709833 
L 245.318839 204.657183 
L 248.583936 202.643233 
L 251.849032 200.795908 
L 255.114129 199.408982 
L 258.379226 198.865037 
L 261.644323 199.415994 
L 264.909419 200.984741 
L 268.174516 203.235042 
L 271.439613 205.822892 
L 274.70471 208.502954 
L 277.969806 211.12206 
L 281.234903 213.642143 
L 284.5 216.076078 
L 287.765097 218.358204 
L 291.030193 220.34623 
L 294.29529 221.938681 
L 297.560387 223.164283 
L 300.825484 224.161321 
L 304.09058 225.050785 
L 307.355677 225.859256 
L 310.620774 226.615056 
L 313.885871 227.452942 
L 317.150967 228.53076 
L 320.416064 229.878132 
L 323.681161 231.411741 
L 326.946258 233.070397 
L 330.211354 234.827552 
L 333.476451 236.573477 
L 336.741548 238.104093 
L 340.006645 239.268411 
L 343.271741 240.064949 
L 346.536838 240.584862 
L 349.801935 240.924065 
L 353.067032 241.158023 
L 356.332128 241.338739 
L 359.597225 241.484103 
L 362.862322 241.588227 
L 366.127419 241.648519 
L 369.392515 241.674571 
L 372.657612 241.67942 
L 375.922709 241.6742 
L 379.187806 241.66803 
L 382.452902 241.666942 
L 385.717999 241.673051 
L 388.983096 241.68501 
L 392.248193 241.698775 
L 395.513289 241.709856 
L 398.778386 241.716274 
L 402.043483 241.718966 
L 405.30858 241.719786 
" style="fill:none;stroke:#1f77b4;stroke-linecap:square;stroke-width:1.5;"/>
   </g>
   <g id="line2d_17">
    <path clip-path="url(#p3af252f0d3)" d="M 82.362928 241.719437 
L 85.826746 241.717111 
L 89.290564 241.709639 
L 92.754382 241.693584 
L 96.2182 241.669483 
L 99.682018 241.637707 
L 103.145836 241.58538 
L 106.609654 241.492803 
L 110.073472 241.356909 
L 113.53729 241.18653 
L 117.001108 240.984678 
L 120.464926 240.742434 
L 123.928744 240.426567 
L 127.392562 240.014205 
L 130.85638 239.549511 
L 134.320198 239.076557 
L 137.784016 238.496993 
L 141.247834 237.458807 
L 144.711652 235.144879 
L 148.17547 229.924032 
L 151.639288 219.281341 
L 155.103106 200.653489 
L 158.566924 173.325609 
L 162.030742 140.377169 
L 165.49456 108.758538 
L 168.958378 86.47753 
L 172.422196 78.519841 
L 175.886014 84.815371 
L 179.349832 101.487759 
L 182.81365 123.256997 
L 186.277468 145.188723 
L 189.741286 163.956651 
L 193.205104 178.398142 
L 196.668922 188.877606 
L 200.13274 196.276565 
L 203.596558 201.453634 
L 207.060376 205.056729 
L 210.524194 207.537529 
L 213.988012 209.240155 
L 217.45183 210.388747 
L 220.915648 211.129953 
L 224.379466 211.590859 
L 227.843284 211.765067 
L 231.307102 211.49538 
L 234.77092 210.68907 
L 238.234738 209.448843 
L 241.698556 207.978686 
L 245.162374 206.422059 
L 248.626192 204.820232 
L 252.09001 203.268034 
L 255.553828 202.087909 
L 259.017646 201.69798 
L 262.481464 202.26981 
L 265.945282 203.703175 
L 269.4091 205.892962 
L 272.872918 208.712262 
L 276.336736 211.803332 
L 279.800554 214.705647 
L 283.264372 217.170245 
L 286.72819 219.222426 
L 290.192008 221.010978 
L 293.655826 222.655077 
L 297.119644 224.141024 
L 300.583462 225.358731 
L 304.04728 226.287106 
L 307.511098 227.042567 
L 310.974915 227.753398 
L 314.438733 228.53616 
L 317.902551 229.530341 
L 321.366369 230.841214 
L 324.830187 232.454614 
L 328.294005 234.215876 
L 331.757823 235.924586 
L 335.221641 237.446033 
L 338.685459 238.714209 
L 342.149277 239.696201 
L 345.613095 240.392725 
L 349.076913 240.849128 
L 352.540731 241.136972 
L 356.004549 241.310546 
L 359.468367 241.395234 
L 362.932185 241.417485 
L 366.396003 241.418739 
L 369.859821 241.433898 
L 373.323639 241.47197 
L 376.787457 241.522681 
L 380.251275 241.573149 
L 383.715093 241.614508 
L 387.178911 241.641684 
L 390.642729 241.656688 
L 394.106547 241.66851 
L 397.570365 241.682468 
L 401.034183 241.694298 
L 404.498001 241.699471 
L 407.961819 241.70135 
L 411.425637 241.705404 
L 414.889455 241.711593 
L 418.353273 241.716595 
L 421.817091 241.719041 
L 425.280909 241.719813 
" style="fill:none;stroke:#ff7f0e;stroke-linecap:square;stroke-width:1.5;"/>
   </g>
   <g id="patch_103">
    <path d="M 47.3 241.72 
L 47.3 25.92 
" style="fill:none;stroke:#000000;stroke-linecap:square;stroke-linejoin:miter;stroke-width:0.8;"/>
   </g>
   <g id="patch_104">
    <path d="M 443.28 241.72 
L 443.28 25.92 
" style="fill:none;stroke:#000000;stroke-linecap:square;stroke-linejoin:miter;stroke-width:0.8;"/>
   </g>
   <g id="patch_105">
    <path d="M 47.3 241.72 
L 443.28 241.72 
" style="fill:none;stroke:#000000;stroke-linecap:square;stroke-linejoin:miter;stroke-width:0.8;"/>
   </g>
   <g id="patch_106">
    <path d="M 47.3 25.92 
L 443.28 25.92 
" style="fill:none;stroke:#000000;stroke-linecap:square;stroke-linejoin:miter;stroke-width:0.8;"/>
   </g>
   <g id="text_18">
    <!-- Interpellet Interval Plot -->
    <defs>
     <path d="M 9.8125 72.90625 
L 19.671875 72.90625 
L 19.671875 0 
L 9.8125 0 
z
" id="DejaVuSans-73"/>
     <path d="M 41.109375 46.296875 
Q 39.59375 47.171875 37.8125 47.578125 
Q 36.03125 48 33.890625 48 
Q 26.265625 48 22.1875 43.046875 
Q 18.109375 38.09375 18.109375 28.8125 
L 18.109375 0 
L 9.078125 0 
L 9.078125 54.6875 
L 18.109375 54.6875 
L 18.109375 46.1875 
Q 20.953125 51.171875 25.484375 53.578125 
Q 30.03125 56 36.53125 56 
Q 37.453125 56 38.578125 55.875 
Q 39.703125 55.765625 41.0625 55.515625 
z
" id="DejaVuSans-114"/>
     <path d="M 2.984375 54.6875 
L 12.5 54.6875 
L 29.59375 8.796875 
L 46.6875 54.6875 
L 56.203125 54.6875 
L 35.6875 0 
L 23.484375 0 
z
" id="DejaVuSans-118"/>
     <path d="M 19.671875 64.796875 
L 19.671875 37.40625 
L 32.078125 37.40625 
Q 38.96875 37.40625 42.71875 40.96875 
Q 46.484375 44.53125 46.484375 51.125 
Q 46.484375 57.671875 42.71875 61.234375 
Q 38.96875 64.796875 32.078125 64.796875 
z
M 9.8125 72.90625 
L 32.078125 72.90625 
Q 44.34375 72.90625 50.609375 67.359375 
Q 56.890625 61.8125 56.890625 51.125 
Q 56.890625 40.328125 50.609375 34.8125 
Q 44.34375 29.296875 32.078125 29.296875 
L 19.671875 29.296875 
L 19.671875 0 
L 9.8125 0 
z
" id="DejaVuSans-80"/>
    </defs>
    <g transform="translate(176.228125 19.92)scale(0.12 -0.12)">
     <use xlink:href="#DejaVuSans-73"/>
     <use x="29.492188" xlink:href="#DejaVuSans-110"/>
     <use x="92.871094" xlink:href="#DejaVuSans-116"/>
     <use x="132.080078" xlink:href="#DejaVuSans-101"/>
     <use x="193.603516" xlink:href="#DejaVuSans-114"/>
     <use x="234.716797" xlink:href="#DejaVuSans-112"/>
     <use x="298.193359" xlink:href="#DejaVuSans-101"/>
     <use x="359.716797" xlink:href="#DejaVuSans-108"/>
     <use x="387.5" xlink:href="#DejaVuSans-108"/>
     <use x="415.283203" xlink:href="#DejaVuSans-101"/>
     <use x="476.806641" xlink:href="#DejaVuSans-116"/>
     <use x="516.015625" xlink:href="#DejaVuSans-32"/>
     <use x="547.802734" xlink:href="#DejaVuSans-73"/>
     <use x="577.294922" xlink:href="#DejaVuSans-110"/>
     <use x="640.673828" xlink:href="#DejaVuSans-116"/>
     <use x="679.882812" xlink:href="#DejaVuSans-101"/>
     <use x="741.40625" xlink:href="#DejaVuSans-114"/>
     <use x="782.519531" xlink:href="#DejaVuSans-118"/>
     <use x="841.699219" xlink:href="#DejaVuSans-97"/>
     <use x="902.978516" xlink:href="#DejaVuSans-108"/>
     <use x="930.761719" xlink:href="#DejaVuSans-32"/>
     <use x="962.548828" xlink:href="#DejaVuSans-80"/>
     <use x="1022.851562" xlink:href="#DejaVuSans-108"/>
     <use x="1050.634766" xlink:href="#DejaVuSans-111"/>
     <use x="1111.816406" xlink:href="#DejaVuSans-116"/>
    </g>
   </g>
   <g id="legend_1">
    <g id="patch_107">
     <path d="M 388.61 55.805 
L 437.68 55.805 
Q 439.28 55.805 439.28 54.205 
L 439.28 31.52 
Q 439.28 29.92 437.68 29.92 
L 388.61 29.92 
Q 387.01 29.92 387.01 31.52 
L 387.01 54.205 
Q 387.01 55.805 388.61 55.805 
z
" style="fill:#ffffff;opacity:0.8;stroke:#cccccc;stroke-linejoin:miter;"/>
    </g>
    <g id="patch_108">
     <path d="M 390.21 39.19875 
L 406.21 39.19875 
L 406.21 33.59875 
L 390.21 33.59875 
z
" style="fill:#1f77b4;opacity:0.4;"/>
    </g>
    <g id="text_19">
     <!-- SHAM -->
     <defs>
      <path d="M 53.515625 70.515625 
L 53.515625 60.890625 
Q 47.90625 63.578125 42.921875 64.890625 
Q 37.9375 66.21875 33.296875 66.21875 
Q 25.25 66.21875 20.875 63.09375 
Q 16.5 59.96875 16.5 54.203125 
Q 16.5 49.359375 19.40625 46.890625 
Q 22.3125 44.4375 30.421875 42.921875 
L 36.375 41.703125 
Q 47.40625 39.59375 52.65625 34.296875 
Q 57.90625 29 57.90625 20.125 
Q 57.90625 9.515625 50.796875 4.046875 
Q 43.703125 -1.421875 29.984375 -1.421875 
Q 24.8125 -1.421875 18.96875 -0.25 
Q 13.140625 0.921875 6.890625 3.21875 
L 6.890625 13.375 
Q 12.890625 10.015625 18.65625 8.296875 
Q 24.421875 6.59375 29.984375 6.59375 
Q 38.421875 6.59375 43.015625 9.90625 
Q 47.609375 13.234375 47.609375 19.390625 
Q 47.609375 24.75 44.3125 27.78125 
Q 41.015625 30.8125 33.5 32.328125 
L 27.484375 33.5 
Q 16.453125 35.6875 11.515625 40.375 
Q 6.59375 45.0625 6.59375 53.421875 
Q 6.59375 63.09375 13.40625 68.65625 
Q 20.21875 74.21875 32.171875 74.21875 
Q 37.3125 74.21875 42.625 73.28125 
Q 47.953125 72.359375 53.515625 70.515625 
z
" id="DejaVuSans-83"/>
      <path d="M 9.8125 72.90625 
L 19.671875 72.90625 
L 19.671875 43.015625 
L 55.515625 43.015625 
L 55.515625 72.90625 
L 65.375 72.90625 
L 65.375 0 
L 55.515625 0 
L 55.515625 34.71875 
L 19.671875 34.71875 
L 19.671875 0 
L 9.8125 0 
z
" id="DejaVuSans-72"/>
      <path d="M 34.1875 63.1875 
L 20.796875 26.90625 
L 47.609375 26.90625 
z
M 28.609375 72.90625 
L 39.796875 72.90625 
L 67.578125 0 
L 57.328125 0 
L 50.6875 18.703125 
L 17.828125 18.703125 
L 11.1875 0 
L 0.78125 0 
z
" id="DejaVuSans-65"/>
      <path d="M 9.8125 72.90625 
L 24.515625 72.90625 
L 43.109375 23.296875 
L 61.8125 72.90625 
L 76.515625 72.90625 
L 76.515625 0 
L 66.890625 0 
L 66.890625 64.015625 
L 48.09375 14.015625 
L 38.1875 14.015625 
L 19.390625 64.015625 
L 19.390625 0 
L 9.8125 0 
z
" id="DejaVuSans-77"/>
     </defs>
     <g transform="translate(412.61 39.19875)scale(0.08 -0.08)">
      <use xlink:href="#DejaVuSans-83"/>
      <use x="63.476562" xlink:href="#DejaVuSans-72"/>
      <use x="138.671875" xlink:href="#DejaVuSans-65"/>
      <use x="207.080078" xlink:href="#DejaVuSans-77"/>
     </g>
    </g>
    <g id="patch_109">
     <path d="M 390.21 50.94125 
L 406.21 50.94125 
L 406.21 45.34125 
L 390.21 45.34125 
z
" style="fill:#ff7f0e;opacity:0.4;"/>
    </g>
    <g id="text_20">
     <!-- SNI -->
     <defs>
      <path d="M 9.8125 72.90625 
L 23.09375 72.90625 
L 55.421875 11.921875 
L 55.421875 72.90625 
L 64.984375 72.90625 
L 64.984375 0 
L 51.703125 0 
L 19.390625 60.984375 
L 19.390625 0 
L 9.8125 0 
z
" id="DejaVuSans-78"/>
     </defs>
     <g transform="translate(412.61 50.94125)scale(0.08 -0.08)">
      <use xlink:href="#DejaVuSans-83"/>
      <use x="63.476562" xlink:href="#DejaVuSans-78"/>
      <use x="138.28125" xlink:href="#DejaVuSans-73"/>
     </g>
    </g>
   </g>
  </g>
 </g>
 <defs>
  <clipPath id="p3af252f0d3">
   <rect height="215.8" width="395.98" x="47.3" y="25.92"/>
  </clipPath>
 </defs>
</svg>
