<?xml version="1.0" encoding="utf-8" standalone="no"?>
<!DOCTYPE svg PUBLIC "-//W3C//DTD SVG 1.1//EN"
  "http://www.w3.org/Graphics/SVG/1.1/DTD/svg11.dtd">
<!-- Created with matplotlib (https://matplotlib.org/) -->
<svg height="282.72pt" version="1.1" viewBox="0 0 454.08 282.72" width="454.08pt" xmlns="http://www.w3.org/2000/svg" xmlns:xlink="http://www.w3.org/1999/xlink">
 <defs>
  <style type="text/css">
*{stroke-linecap:butt;stroke-linejoin:round;}
  </style>
 </defs>
 <g id="figure_1">
  <g id="patch_1">
   <path d="M 0 282.72 
L 454.08 282.72 
L 454.08 0 
L 0 0 
z
" style="fill:#ffffff;"/>
  </g>
  <g id="axes_1">
   <g id="patch_2">
    <path d="M 53.66 241.72 
L 443.28 241.72 
L 443.28 25.92 
L 53.66 25.92 
z
" style="fill:#ffffff;"/>
   </g>
   <g id="patch_3">
    <path clip-path="url(#p62f645cd68)" d="M 71.37 241.72 
L 77.771125 241.72 
L 77.771125 241.72 
L 71.37 241.72 
z
" style="fill:#1f77b4;opacity:0.4;"/>
   </g>
   <g id="patch_4">
    <path clip-path="url(#p62f645cd68)" d="M 77.771125 241.72 
L 84.172249 241.72 
L 84.172249 241.72 
L 77.771125 241.72 
z
" style="fill:#1f77b4;opacity:0.4;"/>
   </g>
   <g id="patch_5">
    <path clip-path="url(#p62f645cd68)" d="M 84.172249 241.72 
L 90.573374 241.72 
L 90.573374 241.72 
L 84.172249 241.72 
z
" style="fill:#1f77b4;opacity:0.4;"/>
   </g>
   <g id="patch_6">
    <path clip-path="url(#p62f645cd68)" d="M 90.573374 241.72 
L 96.974499 241.72 
L 96.974499 241.72 
L 90.573374 241.72 
z
" style="fill:#1f77b4;opacity:0.4;"/>
   </g>
   <g id="patch_7">
    <path clip-path="url(#p62f645cd68)" d="M 96.974499 241.72 
L 103.375624 241.72 
L 103.375624 241.72 
L 96.974499 241.72 
z
" style="fill:#1f77b4;opacity:0.4;"/>
   </g>
   <g id="patch_8">
    <path clip-path="url(#p62f645cd68)" d="M 103.375624 241.72 
L 109.776748 241.72 
L 109.776748 241.72 
L 103.375624 241.72 
z
" style="fill:#1f77b4;opacity:0.4;"/>
   </g>
   <g id="patch_9">
    <path clip-path="url(#p62f645cd68)" d="M 109.776748 241.72 
L 116.177873 241.72 
L 116.177873 241.493039 
L 109.776748 241.493039 
z
" style="fill:#1f77b4;opacity:0.4;"/>
   </g>
   <g id="patch_10">
    <path clip-path="url(#p62f645cd68)" d="M 116.177873 241.72 
L 122.578998 241.72 
L 122.578998 241.72 
L 116.177873 241.72 
z
" style="fill:#1f77b4;opacity:0.4;"/>
   </g>
   <g id="patch_11">
    <path clip-path="url(#p62f645cd68)" d="M 122.578998 241.72 
L 128.980123 241.72 
L 128.980123 240.963463 
L 122.578998 240.963463 
z
" style="fill:#1f77b4;opacity:0.4;"/>
   </g>
   <g id="patch_12">
    <path clip-path="url(#p62f645cd68)" d="M 128.980123 241.72 
L 135.381247 241.72 
L 135.381247 241.190424 
L 128.980123 241.190424 
z
" style="fill:#1f77b4;opacity:0.4;"/>
   </g>
   <g id="patch_13">
    <path clip-path="url(#p62f645cd68)" d="M 135.381247 241.72 
L 141.782372 241.72 
L 141.782372 240.358233 
L 135.381247 240.358233 
z
" style="fill:#1f77b4;opacity:0.4;"/>
   </g>
   <g id="patch_14">
    <path clip-path="url(#p62f645cd68)" d="M 141.782372 241.72 
L 148.183497 241.72 
L 148.183497 239.828658 
L 141.782372 239.828658 
z
" style="fill:#1f77b4;opacity:0.4;"/>
   </g>
   <g id="patch_15">
    <path clip-path="url(#p62f645cd68)" d="M 148.183497 241.72 
L 154.584622 241.72 
L 154.584622 239.374735 
L 148.183497 239.374735 
z
" style="fill:#1f77b4;opacity:0.4;"/>
   </g>
   <g id="patch_16">
    <path clip-path="url(#p62f645cd68)" d="M 154.584622 241.72 
L 160.985746 241.72 
L 160.985746 218.872584 
L 154.584622 218.872584 
z
" style="fill:#1f77b4;opacity:0.4;"/>
   </g>
   <g id="patch_17">
    <path clip-path="url(#p62f645cd68)" d="M 160.985746 241.72 
L 167.386871 241.72 
L 167.386871 194.890363 
L 160.985746 194.890363 
z
" style="fill:#1f77b4;opacity:0.4;"/>
   </g>
   <g id="patch_18">
    <path clip-path="url(#p62f645cd68)" d="M 167.386871 241.72 
L 173.787996 241.72 
L 173.787996 106.6025 
L 167.386871 106.6025 
z
" style="fill:#1f77b4;opacity:0.4;"/>
   </g>
   <g id="patch_19">
    <path clip-path="url(#p62f645cd68)" d="M 173.787996 241.72 
L 180.189121 241.72 
L 180.189121 64.690353 
L 173.787996 64.690353 
z
" style="fill:#1f77b4;opacity:0.4;"/>
   </g>
   <g id="patch_20">
    <path clip-path="url(#p62f645cd68)" d="M 180.189121 241.72 
L 186.590245 241.72 
L 186.590245 140.571009 
L 180.189121 140.571009 
z
" style="fill:#1f77b4;opacity:0.4;"/>
   </g>
   <g id="patch_21">
    <path clip-path="url(#p62f645cd68)" d="M 186.590245 241.72 
L 192.99137 241.72 
L 192.99137 156.987861 
L 186.590245 156.987861 
z
" style="fill:#1f77b4;opacity:0.4;"/>
   </g>
   <g id="patch_22">
    <path clip-path="url(#p62f645cd68)" d="M 192.99137 241.72 
L 199.392495 241.72 
L 199.392495 188.611106 
L 192.99137 188.611106 
z
" style="fill:#1f77b4;opacity:0.4;"/>
   </g>
   <g id="patch_23">
    <path clip-path="url(#p62f645cd68)" d="M 199.392495 241.72 
L 205.79362 241.72 
L 205.79362 202.153117 
L 199.392495 202.153117 
z
" style="fill:#1f77b4;opacity:0.4;"/>
   </g>
   <g id="patch_24">
    <path clip-path="url(#p62f645cd68)" d="M 205.79362 241.72 
L 212.194744 241.72 
L 212.194744 209.56718 
L 205.79362 209.56718 
z
" style="fill:#1f77b4;opacity:0.4;"/>
   </g>
   <g id="patch_25">
    <path clip-path="url(#p62f645cd68)" d="M 212.194744 241.72 
L 218.595869 241.72 
L 218.595869 208.734989 
L 212.194744 208.734989 
z
" style="fill:#1f77b4;opacity:0.4;"/>
   </g>
   <g id="patch_26">
    <path clip-path="url(#p62f645cd68)" d="M 218.595869 241.72 
L 224.996994 241.72 
L 224.996994 213.274211 
L 218.595869 213.274211 
z
" style="fill:#1f77b4;opacity:0.4;"/>
   </g>
   <g id="patch_27">
    <path clip-path="url(#p62f645cd68)" d="M 224.996994 241.72 
L 231.398119 241.72 
L 231.398119 211.685483 
L 224.996994 211.685483 
z
" style="fill:#1f77b4;opacity:0.4;"/>
   </g>
   <g id="patch_28">
    <path clip-path="url(#p62f645cd68)" d="M 231.398119 241.72 
L 237.799243 241.72 
L 237.799243 212.366366 
L 231.398119 212.366366 
z
" style="fill:#1f77b4;opacity:0.4;"/>
   </g>
   <g id="patch_29">
    <path clip-path="url(#p62f645cd68)" d="M 237.799243 241.72 
L 244.200368 241.72 
L 244.200368 209.415872 
L 237.799243 209.415872 
z
" style="fill:#1f77b4;opacity:0.4;"/>
   </g>
   <g id="patch_30">
    <path clip-path="url(#p62f645cd68)" d="M 244.200368 241.72 
L 250.601493 241.72 
L 250.601493 204.347075 
L 244.200368 204.347075 
z
" style="fill:#1f77b4;opacity:0.4;"/>
   </g>
   <g id="patch_31">
    <path clip-path="url(#p62f645cd68)" d="M 250.601493 241.72 
L 257.002618 241.72 
L 257.002618 199.95916 
L 250.601493 199.95916 
z
" style="fill:#1f77b4;opacity:0.4;"/>
   </g>
   <g id="patch_32">
    <path clip-path="url(#p62f645cd68)" d="M 257.002618 241.72 
L 263.403742 241.72 
L 263.403742 198.597394 
L 257.002618 198.597394 
z
" style="fill:#1f77b4;opacity:0.4;"/>
   </g>
   <g id="patch_33">
    <path clip-path="url(#p62f645cd68)" d="M 263.403742 241.72 
L 269.804867 241.72 
L 269.804867 203.741845 
L 263.403742 203.741845 
z
" style="fill:#1f77b4;opacity:0.4;"/>
   </g>
   <g id="patch_34">
    <path clip-path="url(#p62f645cd68)" d="M 269.804867 241.72 
L 276.205992 241.72 
L 276.205992 207.751491 
L 269.804867 207.751491 
z
" style="fill:#1f77b4;opacity:0.4;"/>
   </g>
   <g id="patch_35">
    <path clip-path="url(#p62f645cd68)" d="M 276.205992 241.72 
L 282.607117 241.72 
L 282.607117 213.274211 
L 276.205992 213.274211 
z
" style="fill:#1f77b4;opacity:0.4;"/>
   </g>
   <g id="patch_36">
    <path clip-path="url(#p62f645cd68)" d="M 282.607117 241.72 
L 289.008241 241.72 
L 289.008241 222.806576 
L 282.607117 222.806576 
z
" style="fill:#1f77b4;opacity:0.4;"/>
   </g>
   <g id="patch_37">
    <path clip-path="url(#p62f645cd68)" d="M 289.008241 241.72 
L 295.409366 241.72 
L 295.409366 225.605763 
L 289.008241 225.605763 
z
" style="fill:#1f77b4;opacity:0.4;"/>
   </g>
   <g id="patch_38">
    <path clip-path="url(#p62f645cd68)" d="M 295.409366 241.72 
L 301.810491 241.72 
L 301.810491 225.908378 
L 295.409366 225.908378 
z
" style="fill:#1f77b4;opacity:0.4;"/>
   </g>
   <g id="patch_39">
    <path clip-path="url(#p62f645cd68)" d="M 301.810491 241.72 
L 308.211615 241.72 
L 308.211615 228.177989 
L 301.810491 228.177989 
z
" style="fill:#1f77b4;opacity:0.4;"/>
   </g>
   <g id="patch_40">
    <path clip-path="url(#p62f645cd68)" d="M 308.211615 241.72 
L 314.61274 241.72 
L 314.61274 228.102335 
L 308.211615 228.102335 
z
" style="fill:#1f77b4;opacity:0.4;"/>
   </g>
   <g id="patch_41">
    <path clip-path="url(#p62f645cd68)" d="M 314.61274 241.72 
L 321.013865 241.72 
L 321.013865 229.161487 
L 314.61274 229.161487 
z
" style="fill:#1f77b4;opacity:0.4;"/>
   </g>
   <g id="patch_42">
    <path clip-path="url(#p62f645cd68)" d="M 321.013865 241.72 
L 327.41499 241.72 
L 327.41499 230.750214 
L 321.013865 230.750214 
z
" style="fill:#1f77b4;opacity:0.4;"/>
   </g>
   <g id="patch_43">
    <path clip-path="url(#p62f645cd68)" d="M 327.41499 241.72 
L 333.816114 241.72 
L 333.816114 234.75986 
L 327.41499 234.75986 
z
" style="fill:#1f77b4;opacity:0.4;"/>
   </g>
   <g id="patch_44">
    <path clip-path="url(#p62f645cd68)" d="M 333.816114 241.72 
L 340.217239 241.72 
L 340.217239 240.28258 
L 333.816114 240.28258 
z
" style="fill:#1f77b4;opacity:0.4;"/>
   </g>
   <g id="patch_45">
    <path clip-path="url(#p62f645cd68)" d="M 340.217239 241.72 
L 346.618364 241.72 
L 346.618364 240.887809 
L 340.217239 240.887809 
z
" style="fill:#1f77b4;opacity:0.4;"/>
   </g>
   <g id="patch_46">
    <path clip-path="url(#p62f645cd68)" d="M 346.618364 241.72 
L 353.019489 241.72 
L 353.019489 241.341732 
L 346.618364 241.341732 
z
" style="fill:#1f77b4;opacity:0.4;"/>
   </g>
   <g id="patch_47">
    <path clip-path="url(#p62f645cd68)" d="M 353.019489 241.72 
L 359.420613 241.72 
L 359.420613 241.341732 
L 353.019489 241.341732 
z
" style="fill:#1f77b4;opacity:0.4;"/>
   </g>
   <g id="patch_48">
    <path clip-path="url(#p62f645cd68)" d="M 359.420613 241.72 
L 365.821738 241.72 
L 365.821738 241.644346 
L 359.420613 241.644346 
z
" style="fill:#1f77b4;opacity:0.4;"/>
   </g>
   <g id="patch_49">
    <path clip-path="url(#p62f645cd68)" d="M 365.821738 241.72 
L 372.222863 241.72 
L 372.222863 241.72 
L 365.821738 241.72 
z
" style="fill:#1f77b4;opacity:0.4;"/>
   </g>
   <g id="patch_50">
    <path clip-path="url(#p62f645cd68)" d="M 372.222863 241.72 
L 378.623988 241.72 
L 378.623988 241.568693 
L 372.222863 241.568693 
z
" style="fill:#1f77b4;opacity:0.4;"/>
   </g>
   <g id="patch_51">
    <path clip-path="url(#p62f645cd68)" d="M 378.623988 241.72 
L 385.025112 241.72 
L 385.025112 241.72 
L 378.623988 241.72 
z
" style="fill:#1f77b4;opacity:0.4;"/>
   </g>
   <g id="patch_52">
    <path clip-path="url(#p62f645cd68)" d="M 385.025112 241.72 
L 391.426237 241.72 
L 391.426237 241.72 
L 385.025112 241.72 
z
" style="fill:#1f77b4;opacity:0.4;"/>
   </g>
   <g id="patch_53">
    <path clip-path="url(#p62f645cd68)" d="M 71.37 241.72 
L 77.771125 241.72 
L 77.771125 241.72 
L 71.37 241.72 
z
" style="fill:#ff7f0e;opacity:0.4;"/>
   </g>
   <g id="patch_54">
    <path clip-path="url(#p62f645cd68)" d="M 77.771125 241.72 
L 84.172249 241.72 
L 84.172249 241.72 
L 77.771125 241.72 
z
" style="fill:#ff7f0e;opacity:0.4;"/>
   </g>
   <g id="patch_55">
    <path clip-path="url(#p62f645cd68)" d="M 84.172249 241.72 
L 90.573374 241.72 
L 90.573374 241.72 
L 84.172249 241.72 
z
" style="fill:#ff7f0e;opacity:0.4;"/>
   </g>
   <g id="patch_56">
    <path clip-path="url(#p62f645cd68)" d="M 90.573374 241.72 
L 96.974499 241.72 
L 96.974499 241.72 
L 90.573374 241.72 
z
" style="fill:#ff7f0e;opacity:0.4;"/>
   </g>
   <g id="patch_57">
    <path clip-path="url(#p62f645cd68)" d="M 96.974499 241.72 
L 103.375624 241.72 
L 103.375624 241.72 
L 96.974499 241.72 
z
" style="fill:#ff7f0e;opacity:0.4;"/>
   </g>
   <g id="patch_58">
    <path clip-path="url(#p62f645cd68)" d="M 103.375624 241.72 
L 109.776748 241.72 
L 109.776748 241.582023 
L 103.375624 241.582023 
z
" style="fill:#ff7f0e;opacity:0.4;"/>
   </g>
   <g id="patch_59">
    <path clip-path="url(#p62f645cd68)" d="M 109.776748 241.72 
L 116.177873 241.72 
L 116.177873 240.961124 
L 109.776748 240.961124 
z
" style="fill:#ff7f0e;opacity:0.4;"/>
   </g>
   <g id="patch_60">
    <path clip-path="url(#p62f645cd68)" d="M 116.177873 241.72 
L 122.578998 241.72 
L 122.578998 241.72 
L 116.177873 241.72 
z
" style="fill:#ff7f0e;opacity:0.4;"/>
   </g>
   <g id="patch_61">
    <path clip-path="url(#p62f645cd68)" d="M 122.578998 241.72 
L 128.980123 241.72 
L 128.980123 240.409214 
L 122.578998 240.409214 
z
" style="fill:#ff7f0e;opacity:0.4;"/>
   </g>
   <g id="patch_62">
    <path clip-path="url(#p62f645cd68)" d="M 128.980123 241.72 
L 135.381247 241.72 
L 135.381247 240.478203 
L 128.980123 240.478203 
z
" style="fill:#ff7f0e;opacity:0.4;"/>
   </g>
   <g id="patch_63">
    <path clip-path="url(#p62f645cd68)" d="M 135.381247 241.72 
L 141.782372 241.72 
L 141.782372 237.097756 
L 135.381247 237.097756 
z
" style="fill:#ff7f0e;opacity:0.4;"/>
   </g>
   <g id="patch_64">
    <path clip-path="url(#p62f645cd68)" d="M 141.782372 241.72 
L 148.183497 241.72 
L 148.183497 237.235734 
L 141.782372 237.235734 
z
" style="fill:#ff7f0e;opacity:0.4;"/>
   </g>
   <g id="patch_65">
    <path clip-path="url(#p62f645cd68)" d="M 148.183497 241.72 
L 154.584622 241.72 
L 154.584622 236.476858 
L 148.183497 236.476858 
z
" style="fill:#ff7f0e;opacity:0.4;"/>
   </g>
   <g id="patch_66">
    <path clip-path="url(#p62f645cd68)" d="M 154.584622 241.72 
L 160.985746 241.72 
L 160.985746 218.194849 
L 154.584622 218.194849 
z
" style="fill:#ff7f0e;opacity:0.4;"/>
   </g>
   <g id="patch_67">
    <path clip-path="url(#p62f645cd68)" d="M 160.985746 241.72 
L 167.386871 241.72 
L 167.386871 193.910821 
L 160.985746 193.910821 
z
" style="fill:#ff7f0e;opacity:0.4;"/>
   </g>
   <g id="patch_68">
    <path clip-path="url(#p62f645cd68)" d="M 167.386871 241.72 
L 173.787996 241.72 
L 173.787996 121.610649 
L 167.386871 121.610649 
z
" style="fill:#ff7f0e;opacity:0.4;"/>
   </g>
   <g id="patch_69">
    <path clip-path="url(#p62f645cd68)" d="M 173.787996 241.72 
L 180.189121 241.72 
L 180.189121 81.252252 
L 173.787996 81.252252 
z
" style="fill:#ff7f0e;opacity:0.4;"/>
   </g>
   <g id="patch_70">
    <path clip-path="url(#p62f645cd68)" d="M 180.189121 241.72 
L 186.590245 241.72 
L 186.590245 131.062103 
L 180.189121 131.062103 
z
" style="fill:#ff7f0e;opacity:0.4;"/>
   </g>
   <g id="patch_71">
    <path clip-path="url(#p62f645cd68)" d="M 186.590245 241.72 
L 192.99137 241.72 
L 192.99137 159.209498 
L 186.590245 159.209498 
z
" style="fill:#ff7f0e;opacity:0.4;"/>
   </g>
   <g id="patch_72">
    <path clip-path="url(#p62f645cd68)" d="M 192.99137 241.72 
L 199.392495 241.72 
L 199.392495 183.493526 
L 192.99137 183.493526 
z
" style="fill:#ff7f0e;opacity:0.4;"/>
   </g>
   <g id="patch_73">
    <path clip-path="url(#p62f645cd68)" d="M 199.392495 241.72 
L 205.79362 241.72 
L 205.79362 195.359584 
L 199.392495 195.359584 
z
" style="fill:#ff7f0e;opacity:0.4;"/>
   </g>
   <g id="patch_74">
    <path clip-path="url(#p62f645cd68)" d="M 205.79362 241.72 
L 212.194744 241.72 
L 212.194744 205.362948 
L 205.79362 205.362948 
z
" style="fill:#ff7f0e;opacity:0.4;"/>
   </g>
   <g id="patch_75">
    <path clip-path="url(#p62f645cd68)" d="M 212.194744 241.72 
L 218.595869 241.72 
L 218.595869 210.744068 
L 212.194744 210.744068 
z
" style="fill:#ff7f0e;opacity:0.4;"/>
   </g>
   <g id="patch_76">
    <path clip-path="url(#p62f645cd68)" d="M 218.595869 241.72 
L 224.996994 241.72 
L 224.996994 210.882045 
L 218.595869 210.882045 
z
" style="fill:#ff7f0e;opacity:0.4;"/>
   </g>
   <g id="patch_77">
    <path clip-path="url(#p62f645cd68)" d="M 224.996994 241.72 
L 231.398119 241.72 
L 231.398119 212.537774 
L 224.996994 212.537774 
z
" style="fill:#ff7f0e;opacity:0.4;"/>
   </g>
   <g id="patch_78">
    <path clip-path="url(#p62f645cd68)" d="M 231.398119 241.72 
L 237.799243 241.72 
L 237.799243 211.847887 
L 231.398119 211.847887 
z
" style="fill:#ff7f0e;opacity:0.4;"/>
   </g>
   <g id="patch_79">
    <path clip-path="url(#p62f645cd68)" d="M 237.799243 241.72 
L 244.200368 241.72 
L 244.200368 208.46744 
L 237.799243 208.46744 
z
" style="fill:#ff7f0e;opacity:0.4;"/>
   </g>
   <g id="patch_80">
    <path clip-path="url(#p62f645cd68)" d="M 244.200368 241.72 
L 250.601493 241.72 
L 250.601493 205.914858 
L 244.200368 205.914858 
z
" style="fill:#ff7f0e;opacity:0.4;"/>
   </g>
   <g id="patch_81">
    <path clip-path="url(#p62f645cd68)" d="M 250.601493 241.72 
L 257.002618 241.72 
L 257.002618 202.05149 
L 250.601493 202.05149 
z
" style="fill:#ff7f0e;opacity:0.4;"/>
   </g>
   <g id="patch_82">
    <path clip-path="url(#p62f645cd68)" d="M 257.002618 241.72 
L 263.403742 241.72 
L 263.403742 199.636885 
L 257.002618 199.636885 
z
" style="fill:#ff7f0e;opacity:0.4;"/>
   </g>
   <g id="patch_83">
    <path clip-path="url(#p62f645cd68)" d="M 263.403742 241.72 
L 269.804867 241.72 
L 269.804867 203.776207 
L 263.403742 203.776207 
z
" style="fill:#ff7f0e;opacity:0.4;"/>
   </g>
   <g id="patch_84">
    <path clip-path="url(#p62f645cd68)" d="M 269.804867 241.72 
L 276.205992 241.72 
L 276.205992 207.639575 
L 269.804867 207.639575 
z
" style="fill:#ff7f0e;opacity:0.4;"/>
   </g>
   <g id="patch_85">
    <path clip-path="url(#p62f645cd68)" d="M 276.205992 241.72 
L 282.607117 241.72 
L 282.607117 215.021368 
L 276.205992 215.021368 
z
" style="fill:#ff7f0e;opacity:0.4;"/>
   </g>
   <g id="patch_86">
    <path clip-path="url(#p62f645cd68)" d="M 282.607117 241.72 
L 289.008241 241.72 
L 289.008241 220.747431 
L 282.607117 220.747431 
z
" style="fill:#ff7f0e;opacity:0.4;"/>
   </g>
   <g id="patch_87">
    <path clip-path="url(#p62f645cd68)" d="M 289.008241 241.72 
L 295.409366 241.72 
L 295.409366 224.058889 
L 289.008241 224.058889 
z
" style="fill:#ff7f0e;opacity:0.4;"/>
   </g>
   <g id="patch_88">
    <path clip-path="url(#p62f645cd68)" d="M 295.409366 241.72 
L 301.810491 241.72 
L 301.810491 227.439336 
L 295.409366 227.439336 
z
" style="fill:#ff7f0e;opacity:0.4;"/>
   </g>
   <g id="patch_89">
    <path clip-path="url(#p62f645cd68)" d="M 301.810491 241.72 
L 308.211615 241.72 
L 308.211615 228.543156 
L 301.810491 228.543156 
z
" style="fill:#ff7f0e;opacity:0.4;"/>
   </g>
   <g id="patch_90">
    <path clip-path="url(#p62f645cd68)" d="M 308.211615 241.72 
L 314.61274 241.72 
L 314.61274 228.474167 
L 308.211615 228.474167 
z
" style="fill:#ff7f0e;opacity:0.4;"/>
   </g>
   <g id="patch_91">
    <path clip-path="url(#p62f645cd68)" d="M 314.61274 241.72 
L 321.013865 241.72 
L 321.013865 229.646975 
L 314.61274 229.646975 
z
" style="fill:#ff7f0e;opacity:0.4;"/>
   </g>
   <g id="patch_92">
    <path clip-path="url(#p62f645cd68)" d="M 321.013865 241.72 
L 327.41499 241.72 
L 327.41499 231.50967 
L 321.013865 231.50967 
z
" style="fill:#ff7f0e;opacity:0.4;"/>
   </g>
   <g id="patch_93">
    <path clip-path="url(#p62f645cd68)" d="M 327.41499 241.72 
L 333.816114 241.72 
L 333.816114 236.131914 
L 327.41499 236.131914 
z
" style="fill:#ff7f0e;opacity:0.4;"/>
   </g>
   <g id="patch_94">
    <path clip-path="url(#p62f645cd68)" d="M 333.816114 241.72 
L 340.217239 241.72 
L 340.217239 238.546519 
L 333.816114 238.546519 
z
" style="fill:#ff7f0e;opacity:0.4;"/>
   </g>
   <g id="patch_95">
    <path clip-path="url(#p62f645cd68)" d="M 340.217239 241.72 
L 346.618364 241.72 
L 346.618364 240.685169 
L 340.217239 240.685169 
z
" style="fill:#ff7f0e;opacity:0.4;"/>
   </g>
   <g id="patch_96">
    <path clip-path="url(#p62f645cd68)" d="M 346.618364 241.72 
L 353.019489 241.72 
L 353.019489 241.375056 
L 346.618364 241.375056 
z
" style="fill:#ff7f0e;opacity:0.4;"/>
   </g>
   <g id="patch_97">
    <path clip-path="url(#p62f645cd68)" d="M 353.019489 241.72 
L 359.420613 241.72 
L 359.420613 241.513034 
L 353.019489 241.513034 
z
" style="fill:#ff7f0e;opacity:0.4;"/>
   </g>
   <g id="patch_98">
    <path clip-path="url(#p62f645cd68)" d="M 359.420613 241.72 
L 365.821738 241.72 
L 365.821738 241.306068 
L 359.420613 241.306068 
z
" style="fill:#ff7f0e;opacity:0.4;"/>
   </g>
   <g id="patch_99">
    <path clip-path="url(#p62f645cd68)" d="M 365.821738 241.72 
L 372.222863 241.72 
L 372.222863 241.375056 
L 365.821738 241.375056 
z
" style="fill:#ff7f0e;opacity:0.4;"/>
   </g>
   <g id="patch_100">
    <path clip-path="url(#p62f645cd68)" d="M 372.222863 241.72 
L 378.623988 241.72 
L 378.623988 241.582023 
L 372.222863 241.582023 
z
" style="fill:#ff7f0e;opacity:0.4;"/>
   </g>
   <g id="patch_101">
    <path clip-path="url(#p62f645cd68)" d="M 378.623988 241.72 
L 385.025112 241.72 
L 385.025112 241.651011 
L 378.623988 241.651011 
z
" style="fill:#ff7f0e;opacity:0.4;"/>
   </g>
   <g id="patch_102">
    <path clip-path="url(#p62f645cd68)" d="M 385.025112 241.72 
L 391.426237 241.72 
L 391.426237 241.72 
L 385.025112 241.72 
z
" style="fill:#ff7f0e;opacity:0.4;"/>
   </g>
   <g id="patch_103">
    <path clip-path="url(#p62f645cd68)" d="M 71.37 241.72 
L 77.771125 241.72 
L 77.771125 241.72 
L 71.37 241.72 
z
" style="fill:#2ca02c;opacity:0.4;"/>
   </g>
   <g id="patch_104">
    <path clip-path="url(#p62f645cd68)" d="M 77.771125 241.72 
L 84.172249 241.72 
L 84.172249 241.72 
L 77.771125 241.72 
z
" style="fill:#2ca02c;opacity:0.4;"/>
   </g>
   <g id="patch_105">
    <path clip-path="url(#p62f645cd68)" d="M 84.172249 241.72 
L 90.573374 241.72 
L 90.573374 241.72 
L 84.172249 241.72 
z
" style="fill:#2ca02c;opacity:0.4;"/>
   </g>
   <g id="patch_106">
    <path clip-path="url(#p62f645cd68)" d="M 90.573374 241.72 
L 96.974499 241.72 
L 96.974499 241.72 
L 90.573374 241.72 
z
" style="fill:#2ca02c;opacity:0.4;"/>
   </g>
   <g id="patch_107">
    <path clip-path="url(#p62f645cd68)" d="M 96.974499 241.72 
L 103.375624 241.72 
L 103.375624 241.72 
L 96.974499 241.72 
z
" style="fill:#2ca02c;opacity:0.4;"/>
   </g>
   <g id="patch_108">
    <path clip-path="url(#p62f645cd68)" d="M 103.375624 241.72 
L 109.776748 241.72 
L 109.776748 241.653726 
L 103.375624 241.653726 
z
" style="fill:#2ca02c;opacity:0.4;"/>
   </g>
   <g id="patch_109">
    <path clip-path="url(#p62f645cd68)" d="M 109.776748 241.72 
L 116.177873 241.72 
L 116.177873 241.256085 
L 109.776748 241.256085 
z
" style="fill:#2ca02c;opacity:0.4;"/>
   </g>
   <g id="patch_110">
    <path clip-path="url(#p62f645cd68)" d="M 116.177873 241.72 
L 122.578998 241.72 
L 122.578998 241.72 
L 116.177873 241.72 
z
" style="fill:#2ca02c;opacity:0.4;"/>
   </g>
   <g id="patch_111">
    <path clip-path="url(#p62f645cd68)" d="M 122.578998 241.72 
L 128.980123 241.72 
L 128.980123 241.322359 
L 122.578998 241.322359 
z
" style="fill:#2ca02c;opacity:0.4;"/>
   </g>
   <g id="patch_112">
    <path clip-path="url(#p62f645cd68)" d="M 128.980123 241.72 
L 135.381247 241.72 
L 135.381247 240.725897 
L 128.980123 240.725897 
z
" style="fill:#2ca02c;opacity:0.4;"/>
   </g>
   <g id="patch_113">
    <path clip-path="url(#p62f645cd68)" d="M 135.381247 241.72 
L 141.782372 241.72 
L 141.782372 240.59335 
L 135.381247 240.59335 
z
" style="fill:#2ca02c;opacity:0.4;"/>
   </g>
   <g id="patch_114">
    <path clip-path="url(#p62f645cd68)" d="M 141.782372 241.72 
L 148.183497 241.72 
L 148.183497 239.996888 
L 141.782372 239.996888 
z
" style="fill:#2ca02c;opacity:0.4;"/>
   </g>
   <g id="patch_115">
    <path clip-path="url(#p62f645cd68)" d="M 148.183497 241.72 
L 154.584622 241.72 
L 154.584622 239.201606 
L 148.183497 239.201606 
z
" style="fill:#2ca02c;opacity:0.4;"/>
   </g>
   <g id="patch_116">
    <path clip-path="url(#p62f645cd68)" d="M 154.584622 241.72 
L 160.985746 241.72 
L 160.985746 219.650914 
L 154.584622 219.650914 
z
" style="fill:#2ca02c;opacity:0.4;"/>
   </g>
   <g id="patch_117">
    <path clip-path="url(#p62f645cd68)" d="M 160.985746 241.72 
L 167.386871 241.72 
L 167.386871 183.598112 
L 160.985746 183.598112 
z
" style="fill:#2ca02c;opacity:0.4;"/>
   </g>
   <g id="patch_118">
    <path clip-path="url(#p62f645cd68)" d="M 167.386871 241.72 
L 173.787996 241.72 
L 173.787996 83.723899 
L 167.386871 83.723899 
z
" style="fill:#2ca02c;opacity:0.4;"/>
   </g>
   <g id="patch_119">
    <path clip-path="url(#p62f645cd68)" d="M 173.787996 241.72 
L 180.189121 241.72 
L 180.189121 51.448689 
L 173.787996 51.448689 
z
" style="fill:#2ca02c;opacity:0.4;"/>
   </g>
   <g id="patch_120">
    <path clip-path="url(#p62f645cd68)" d="M 180.189121 241.72 
L 186.590245 241.72 
L 186.590245 127.795798 
L 180.189121 127.795798 
z
" style="fill:#2ca02c;opacity:0.4;"/>
   </g>
   <g id="patch_121">
    <path clip-path="url(#p62f645cd68)" d="M 186.590245 241.72 
L 192.99137 241.72 
L 192.99137 158.480443 
L 186.590245 158.480443 
z
" style="fill:#2ca02c;opacity:0.4;"/>
   </g>
   <g id="patch_122">
    <path clip-path="url(#p62f645cd68)" d="M 192.99137 241.72 
L 199.392495 241.72 
L 199.392495 190.291739 
L 192.99137 190.291739 
z
" style="fill:#2ca02c;opacity:0.4;"/>
   </g>
   <g id="patch_123">
    <path clip-path="url(#p62f645cd68)" d="M 199.392495 241.72 
L 205.79362 241.72 
L 205.79362 204.871916 
L 199.392495 204.871916 
z
" style="fill:#2ca02c;opacity:0.4;"/>
   </g>
   <g id="patch_124">
    <path clip-path="url(#p62f645cd68)" d="M 205.79362 241.72 
L 212.194744 241.72 
L 212.194744 215.409408 
L 205.79362 215.409408 
z
" style="fill:#2ca02c;opacity:0.4;"/>
   </g>
   <g id="patch_125">
    <path clip-path="url(#p62f645cd68)" d="M 212.194744 241.72 
L 218.595869 241.72 
L 218.595869 218.855631 
L 212.194744 218.855631 
z
" style="fill:#2ca02c;opacity:0.4;"/>
   </g>
   <g id="patch_126">
    <path clip-path="url(#p62f645cd68)" d="M 218.595869 241.72 
L 224.996994 241.72 
L 224.996994 219.054452 
L 218.595869 219.054452 
z
" style="fill:#2ca02c;opacity:0.4;"/>
   </g>
   <g id="patch_127">
    <path clip-path="url(#p62f645cd68)" d="M 224.996994 241.72 
L 231.398119 241.72 
L 231.398119 218.524264 
L 224.996994 218.524264 
z
" style="fill:#2ca02c;opacity:0.4;"/>
   </g>
   <g id="patch_128">
    <path clip-path="url(#p62f645cd68)" d="M 231.398119 241.72 
L 237.799243 241.72 
L 237.799243 219.650914 
L 231.398119 219.650914 
z
" style="fill:#2ca02c;opacity:0.4;"/>
   </g>
   <g id="patch_129">
    <path clip-path="url(#p62f645cd68)" d="M 237.799243 241.72 
L 244.200368 241.72 
L 244.200368 213.156108 
L 237.799243 213.156108 
z
" style="fill:#2ca02c;opacity:0.4;"/>
   </g>
   <g id="patch_130">
    <path clip-path="url(#p62f645cd68)" d="M 244.200368 241.72 
L 250.601493 241.72 
L 250.601493 212.957287 
L 244.200368 212.957287 
z
" style="fill:#2ca02c;opacity:0.4;"/>
   </g>
   <g id="patch_131">
    <path clip-path="url(#p62f645cd68)" d="M 250.601493 241.72 
L 257.002618 241.72 
L 257.002618 206.926396 
L 250.601493 206.926396 
z
" style="fill:#2ca02c;opacity:0.4;"/>
   </g>
   <g id="patch_132">
    <path clip-path="url(#p62f645cd68)" d="M 257.002618 241.72 
L 263.403742 241.72 
L 263.403742 204.474275 
L 257.002618 204.474275 
z
" style="fill:#2ca02c;opacity:0.4;"/>
   </g>
   <g id="patch_133">
    <path clip-path="url(#p62f645cd68)" d="M 263.403742 241.72 
L 269.804867 241.72 
L 269.804867 205.269557 
L 263.403742 205.269557 
z
" style="fill:#2ca02c;opacity:0.4;"/>
   </g>
   <g id="patch_134">
    <path clip-path="url(#p62f645cd68)" d="M 269.804867 241.72 
L 276.205992 241.72 
L 276.205992 208.848328 
L 269.804867 208.848328 
z
" style="fill:#2ca02c;opacity:0.4;"/>
   </g>
   <g id="patch_135">
    <path clip-path="url(#p62f645cd68)" d="M 276.205992 241.72 
L 282.607117 241.72 
L 282.607117 215.674502 
L 276.205992 215.674502 
z
" style="fill:#2ca02c;opacity:0.4;"/>
   </g>
   <g id="patch_136">
    <path clip-path="url(#p62f645cd68)" d="M 282.607117 241.72 
L 289.008241 241.72 
L 289.008241 216.867425 
L 282.607117 216.867425 
z
" style="fill:#2ca02c;opacity:0.4;"/>
   </g>
   <g id="patch_137">
    <path clip-path="url(#p62f645cd68)" d="M 289.008241 241.72 
L 295.409366 241.72 
L 295.409366 220.843837 
L 289.008241 220.843837 
z
" style="fill:#2ca02c;opacity:0.4;"/>
   </g>
   <g id="patch_138">
    <path clip-path="url(#p62f645cd68)" d="M 295.409366 241.72 
L 301.810491 241.72 
L 301.810491 224.555155 
L 295.409366 224.555155 
z
" style="fill:#2ca02c;opacity:0.4;"/>
   </g>
   <g id="patch_139">
    <path clip-path="url(#p62f645cd68)" d="M 301.810491 241.72 
L 308.211615 241.72 
L 308.211615 225.681805 
L 301.810491 225.681805 
z
" style="fill:#2ca02c;opacity:0.4;"/>
   </g>
   <g id="patch_140">
    <path clip-path="url(#p62f645cd68)" d="M 308.211615 241.72 
L 314.61274 241.72 
L 314.61274 227.537464 
L 308.211615 227.537464 
z
" style="fill:#2ca02c;opacity:0.4;"/>
   </g>
   <g id="patch_141">
    <path clip-path="url(#p62f645cd68)" d="M 314.61274 241.72 
L 321.013865 241.72 
L 321.013865 229.326849 
L 314.61274 229.326849 
z
" style="fill:#2ca02c;opacity:0.4;"/>
   </g>
   <g id="patch_142">
    <path clip-path="url(#p62f645cd68)" d="M 321.013865 241.72 
L 327.41499 241.72 
L 327.41499 234.03227 
L 321.013865 234.03227 
z
" style="fill:#2ca02c;opacity:0.4;"/>
   </g>
   <g id="patch_143">
    <path clip-path="url(#p62f645cd68)" d="M 327.41499 241.72 
L 333.816114 241.72 
L 333.816114 236.020476 
L 327.41499 236.020476 
z
" style="fill:#2ca02c;opacity:0.4;"/>
   </g>
   <g id="patch_144">
    <path clip-path="url(#p62f645cd68)" d="M 333.816114 241.72 
L 340.217239 241.72 
L 340.217239 238.936512 
L 333.816114 238.936512 
z
" style="fill:#2ca02c;opacity:0.4;"/>
   </g>
   <g id="patch_145">
    <path clip-path="url(#p62f645cd68)" d="M 340.217239 241.72 
L 346.618364 241.72 
L 346.618364 240.129435 
L 340.217239 240.129435 
z
" style="fill:#2ca02c;opacity:0.4;"/>
   </g>
   <g id="patch_146">
    <path clip-path="url(#p62f645cd68)" d="M 346.618364 241.72 
L 353.019489 241.72 
L 353.019489 241.256085 
L 346.618364 241.256085 
z
" style="fill:#2ca02c;opacity:0.4;"/>
   </g>
   <g id="patch_147">
    <path clip-path="url(#p62f645cd68)" d="M 353.019489 241.72 
L 359.420613 241.72 
L 359.420613 241.388632 
L 353.019489 241.388632 
z
" style="fill:#2ca02c;opacity:0.4;"/>
   </g>
   <g id="patch_148">
    <path clip-path="url(#p62f645cd68)" d="M 359.420613 241.72 
L 365.821738 241.72 
L 365.821738 241.653726 
L 359.420613 241.653726 
z
" style="fill:#2ca02c;opacity:0.4;"/>
   </g>
   <g id="patch_149">
    <path clip-path="url(#p62f645cd68)" d="M 365.821738 241.72 
L 372.222863 241.72 
L 372.222863 241.72 
L 365.821738 241.72 
z
" style="fill:#2ca02c;opacity:0.4;"/>
   </g>
   <g id="patch_150">
    <path clip-path="url(#p62f645cd68)" d="M 372.222863 241.72 
L 378.623988 241.72 
L 378.623988 241.72 
L 372.222863 241.72 
z
" style="fill:#2ca02c;opacity:0.4;"/>
   </g>
   <g id="patch_151">
    <path clip-path="url(#p62f645cd68)" d="M 378.623988 241.72 
L 385.025112 241.72 
L 385.025112 241.72 
L 378.623988 241.72 
z
" style="fill:#2ca02c;opacity:0.4;"/>
   </g>
   <g id="patch_152">
    <path clip-path="url(#p62f645cd68)" d="M 385.025112 241.72 
L 391.426237 241.72 
L 391.426237 241.72 
L 385.025112 241.72 
z
" style="fill:#2ca02c;opacity:0.4;"/>
   </g>
   <g id="patch_153">
    <path clip-path="url(#p62f645cd68)" d="M 71.37 241.72 
L 77.771125 241.72 
L 77.771125 241.72 
L 71.37 241.72 
z
" style="fill:#d62728;opacity:0.4;"/>
   </g>
   <g id="patch_154">
    <path clip-path="url(#p62f645cd68)" d="M 77.771125 241.72 
L 84.172249 241.72 
L 84.172249 241.72 
L 77.771125 241.72 
z
" style="fill:#d62728;opacity:0.4;"/>
   </g>
   <g id="patch_155">
    <path clip-path="url(#p62f645cd68)" d="M 84.172249 241.72 
L 90.573374 241.72 
L 90.573374 241.72 
L 84.172249 241.72 
z
" style="fill:#d62728;opacity:0.4;"/>
   </g>
   <g id="patch_156">
    <path clip-path="url(#p62f645cd68)" d="M 90.573374 241.72 
L 96.974499 241.72 
L 96.974499 241.72 
L 90.573374 241.72 
z
" style="fill:#d62728;opacity:0.4;"/>
   </g>
   <g id="patch_157">
    <path clip-path="url(#p62f645cd68)" d="M 96.974499 241.72 
L 103.375624 241.72 
L 103.375624 241.72 
L 96.974499 241.72 
z
" style="fill:#d62728;opacity:0.4;"/>
   </g>
   <g id="patch_158">
    <path clip-path="url(#p62f645cd68)" d="M 103.375624 241.72 
L 109.776748 241.72 
L 109.776748 241.655954 
L 103.375624 241.655954 
z
" style="fill:#d62728;opacity:0.4;"/>
   </g>
   <g id="patch_159">
    <path clip-path="url(#p62f645cd68)" d="M 109.776748 241.72 
L 116.177873 241.72 
L 116.177873 241.591908 
L 109.776748 241.591908 
z
" style="fill:#d62728;opacity:0.4;"/>
   </g>
   <g id="patch_160">
    <path clip-path="url(#p62f645cd68)" d="M 116.177873 241.72 
L 122.578998 241.72 
L 122.578998 241.72 
L 116.177873 241.72 
z
" style="fill:#d62728;opacity:0.4;"/>
   </g>
   <g id="patch_161">
    <path clip-path="url(#p62f645cd68)" d="M 122.578998 241.72 
L 128.980123 241.72 
L 128.980123 241.207632 
L 122.578998 241.207632 
z
" style="fill:#d62728;opacity:0.4;"/>
   </g>
   <g id="patch_162">
    <path clip-path="url(#p62f645cd68)" d="M 128.980123 241.72 
L 135.381247 241.72 
L 135.381247 241.335724 
L 128.980123 241.335724 
z
" style="fill:#d62728;opacity:0.4;"/>
   </g>
   <g id="patch_163">
    <path clip-path="url(#p62f645cd68)" d="M 135.381247 241.72 
L 141.782372 241.72 
L 141.782372 239.990756 
L 135.381247 239.990756 
z
" style="fill:#d62728;opacity:0.4;"/>
   </g>
   <g id="patch_164">
    <path clip-path="url(#p62f645cd68)" d="M 141.782372 241.72 
L 148.183497 241.72 
L 148.183497 239.92671 
L 141.782372 239.92671 
z
" style="fill:#d62728;opacity:0.4;"/>
   </g>
   <g id="patch_165">
    <path clip-path="url(#p62f645cd68)" d="M 148.183497 241.72 
L 154.584622 241.72 
L 154.584622 239.60648 
L 148.183497 239.60648 
z
" style="fill:#d62728;opacity:0.4;"/>
   </g>
   <g id="patch_166">
    <path clip-path="url(#p62f645cd68)" d="M 154.584622 241.72 
L 160.985746 241.72 
L 160.985746 221.033122 
L 154.584622 221.033122 
z
" style="fill:#d62728;opacity:0.4;"/>
   </g>
   <g id="patch_167">
    <path clip-path="url(#p62f645cd68)" d="M 160.985746 241.72 
L 167.386871 241.72 
L 167.386871 183.374038 
L 160.985746 183.374038 
z
" style="fill:#d62728;opacity:0.4;"/>
   </g>
   <g id="patch_168">
    <path clip-path="url(#p62f645cd68)" d="M 167.386871 241.72 
L 173.787996 241.72 
L 173.787996 71.8058 
L 167.386871 71.8058 
z
" style="fill:#d62728;opacity:0.4;"/>
   </g>
   <g id="patch_169">
    <path clip-path="url(#p62f645cd68)" d="M 173.787996 241.72 
L 180.189121 241.72 
L 180.189121 36.19619 
L 173.787996 36.19619 
z
" style="fill:#d62728;opacity:0.4;"/>
   </g>
   <g id="patch_170">
    <path clip-path="url(#p62f645cd68)" d="M 180.189121 241.72 
L 186.590245 241.72 
L 186.590245 122.338142 
L 180.189121 122.338142 
z
" style="fill:#d62728;opacity:0.4;"/>
   </g>
   <g id="patch_171">
    <path clip-path="url(#p62f645cd68)" d="M 186.590245 241.72 
L 192.99137 241.72 
L 192.99137 158.780351 
L 186.590245 158.780351 
z
" style="fill:#d62728;opacity:0.4;"/>
   </g>
   <g id="patch_172">
    <path clip-path="url(#p62f645cd68)" d="M 192.99137 241.72 
L 199.392495 241.72 
L 199.392495 194.902329 
L 192.99137 194.902329 
z
" style="fill:#d62728;opacity:0.4;"/>
   </g>
   <g id="patch_173">
    <path clip-path="url(#p62f645cd68)" d="M 199.392495 241.72 
L 205.79362 241.72 
L 205.79362 205.149699 
L 199.392495 205.149699 
z
" style="fill:#d62728;opacity:0.4;"/>
   </g>
   <g id="patch_174">
    <path clip-path="url(#p62f645cd68)" d="M 205.79362 241.72 
L 212.194744 241.72 
L 212.194744 213.283549 
L 205.79362 213.283549 
z
" style="fill:#d62728;opacity:0.4;"/>
   </g>
   <g id="patch_175">
    <path clip-path="url(#p62f645cd68)" d="M 212.194744 241.72 
L 218.595869 241.72 
L 218.595869 215.076839 
L 212.194744 215.076839 
z
" style="fill:#d62728;opacity:0.4;"/>
   </g>
   <g id="patch_176">
    <path clip-path="url(#p62f645cd68)" d="M 218.595869 241.72 
L 224.996994 241.72 
L 224.996994 217.510589 
L 218.595869 217.510589 
z
" style="fill:#d62728;opacity:0.4;"/>
   </g>
   <g id="patch_177">
    <path clip-path="url(#p62f645cd68)" d="M 224.996994 241.72 
L 231.398119 241.72 
L 231.398119 216.806082 
L 224.996994 216.806082 
z
" style="fill:#d62728;opacity:0.4;"/>
   </g>
   <g id="patch_178">
    <path clip-path="url(#p62f645cd68)" d="M 231.398119 241.72 
L 237.799243 241.72 
L 237.799243 218.983648 
L 231.398119 218.983648 
z
" style="fill:#d62728;opacity:0.4;"/>
   </g>
   <g id="patch_179">
    <path clip-path="url(#p62f645cd68)" d="M 237.799243 241.72 
L 244.200368 241.72 
L 244.200368 215.589207 
L 237.799243 215.589207 
z
" style="fill:#d62728;opacity:0.4;"/>
   </g>
   <g id="patch_180">
    <path clip-path="url(#p62f645cd68)" d="M 244.200368 241.72 
L 250.601493 241.72 
L 250.601493 214.372332 
L 244.200368 214.372332 
z
" style="fill:#d62728;opacity:0.4;"/>
   </g>
   <g id="patch_181">
    <path clip-path="url(#p62f645cd68)" d="M 250.601493 241.72 
L 257.002618 241.72 
L 257.002618 211.490259 
L 250.601493 211.490259 
z
" style="fill:#d62728;opacity:0.4;"/>
   </g>
   <g id="patch_182">
    <path clip-path="url(#p62f645cd68)" d="M 257.002618 241.72 
L 263.403742 241.72 
L 263.403742 207.58345 
L 257.002618 207.58345 
z
" style="fill:#d62728;opacity:0.4;"/>
   </g>
   <g id="patch_183">
    <path clip-path="url(#p62f645cd68)" d="M 263.403742 241.72 
L 269.804867 241.72 
L 269.804867 210.593614 
L 263.403742 210.593614 
z
" style="fill:#d62728;opacity:0.4;"/>
   </g>
   <g id="patch_184">
    <path clip-path="url(#p62f645cd68)" d="M 269.804867 241.72 
L 276.205992 241.72 
L 276.205992 213.027365 
L 269.804867 213.027365 
z
" style="fill:#d62728;opacity:0.4;"/>
   </g>
   <g id="patch_185">
    <path clip-path="url(#p62f645cd68)" d="M 276.205992 241.72 
L 282.607117 241.72 
L 282.607117 218.087004 
L 276.205992 218.087004 
z
" style="fill:#d62728;opacity:0.4;"/>
   </g>
   <g id="patch_186">
    <path clip-path="url(#p62f645cd68)" d="M 282.607117 241.72 
L 289.008241 241.72 
L 289.008241 220.712892 
L 282.607117 220.712892 
z
" style="fill:#d62728;opacity:0.4;"/>
   </g>
   <g id="patch_187">
    <path clip-path="url(#p62f645cd68)" d="M 289.008241 241.72 
L 295.409366 241.72 
L 295.409366 223.210688 
L 289.008241 223.210688 
z
" style="fill:#d62728;opacity:0.4;"/>
   </g>
   <g id="patch_188">
    <path clip-path="url(#p62f645cd68)" d="M 295.409366 241.72 
L 301.810491 241.72 
L 301.810491 225.964669 
L 295.409366 225.964669 
z
" style="fill:#d62728;opacity:0.4;"/>
   </g>
   <g id="patch_189">
    <path clip-path="url(#p62f645cd68)" d="M 301.810491 241.72 
L 308.211615 241.72 
L 308.211615 226.861314 
L 301.810491 226.861314 
z
" style="fill:#d62728;opacity:0.4;"/>
   </g>
   <g id="patch_190">
    <path clip-path="url(#p62f645cd68)" d="M 308.211615 241.72 
L 314.61274 241.72 
L 314.61274 230.063617 
L 308.211615 230.063617 
z
" style="fill:#d62728;opacity:0.4;"/>
   </g>
   <g id="patch_191">
    <path clip-path="url(#p62f645cd68)" d="M 314.61274 241.72 
L 321.013865 241.72 
L 321.013865 230.896216 
L 314.61274 230.896216 
z
" style="fill:#d62728;opacity:0.4;"/>
   </g>
   <g id="patch_192">
    <path clip-path="url(#p62f645cd68)" d="M 321.013865 241.72 
L 327.41499 241.72 
L 327.41499 233.394012 
L 321.013865 233.394012 
z
" style="fill:#d62728;opacity:0.4;"/>
   </g>
   <g id="patch_193">
    <path clip-path="url(#p62f645cd68)" d="M 327.41499 241.72 
L 333.816114 241.72 
L 333.816114 236.468223 
L 327.41499 236.468223 
z
" style="fill:#d62728;opacity:0.4;"/>
   </g>
   <g id="patch_194">
    <path clip-path="url(#p62f645cd68)" d="M 333.816114 241.72 
L 340.217239 241.72 
L 340.217239 239.094112 
L 333.816114 239.094112 
z
" style="fill:#d62728;opacity:0.4;"/>
   </g>
   <g id="patch_195">
    <path clip-path="url(#p62f645cd68)" d="M 340.217239 241.72 
L 346.618364 241.72 
L 346.618364 240.375033 
L 340.217239 240.375033 
z
" style="fill:#d62728;opacity:0.4;"/>
   </g>
   <g id="patch_196">
    <path clip-path="url(#p62f645cd68)" d="M 346.618364 241.72 
L 353.019489 241.72 
L 353.019489 240.951447 
L 346.618364 240.951447 
z
" style="fill:#d62728;opacity:0.4;"/>
   </g>
   <g id="patch_197">
    <path clip-path="url(#p62f645cd68)" d="M 353.019489 241.72 
L 359.420613 241.72 
L 359.420613 241.39977 
L 353.019489 241.39977 
z
" style="fill:#d62728;opacity:0.4;"/>
   </g>
   <g id="patch_198">
    <path clip-path="url(#p62f645cd68)" d="M 359.420613 241.72 
L 365.821738 241.72 
L 365.821738 241.591908 
L 359.420613 241.591908 
z
" style="fill:#d62728;opacity:0.4;"/>
   </g>
   <g id="patch_199">
    <path clip-path="url(#p62f645cd68)" d="M 365.821738 241.72 
L 372.222863 241.72 
L 372.222863 241.39977 
L 365.821738 241.39977 
z
" style="fill:#d62728;opacity:0.4;"/>
   </g>
   <g id="patch_200">
    <path clip-path="url(#p62f645cd68)" d="M 372.222863 241.72 
L 378.623988 241.72 
L 378.623988 241.527862 
L 372.222863 241.527862 
z
" style="fill:#d62728;opacity:0.4;"/>
   </g>
   <g id="patch_201">
    <path clip-path="url(#p62f645cd68)" d="M 378.623988 241.72 
L 385.025112 241.72 
L 385.025112 241.655954 
L 378.623988 241.655954 
z
" style="fill:#d62728;opacity:0.4;"/>
   </g>
   <g id="patch_202">
    <path clip-path="url(#p62f645cd68)" d="M 385.025112 241.72 
L 391.426237 241.72 
L 391.426237 241.655954 
L 385.025112 241.655954 
z
" style="fill:#d62728;opacity:0.4;"/>
   </g>
   <g id="matplotlib.axis_1">
    <g id="xtick_1">
     <g id="line2d_1">
      <defs>
       <path d="M 0 0 
L 0 3.5 
" id="mc460b206b4" style="stroke:#000000;stroke-width:0.8;"/>
      </defs>
      <g>
       <use style="stroke:#000000;stroke-width:0.8;" x="71.37" xlink:href="#mc460b206b4" y="241.72"/>
      </g>
     </g>
     <g id="text_1">
      <!-- 0.01 -->
      <defs>
       <path d="M 31.78125 66.40625 
Q 24.171875 66.40625 20.328125 58.90625 
Q 16.5 51.421875 16.5 36.375 
Q 16.5 21.390625 20.328125 13.890625 
Q 24.171875 6.390625 31.78125 6.390625 
Q 39.453125 6.390625 43.28125 13.890625 
Q 47.125 21.390625 47.125 36.375 
Q 47.125 51.421875 43.28125 58.90625 
Q 39.453125 66.40625 31.78125 66.40625 
z
M 31.78125 74.21875 
Q 44.046875 74.21875 50.515625 64.515625 
Q 56.984375 54.828125 56.984375 36.375 
Q 56.984375 17.96875 50.515625 8.265625 
Q 44.046875 -1.421875 31.78125 -1.421875 
Q 19.53125 -1.421875 13.0625 8.265625 
Q 6.59375 17.96875 6.59375 36.375 
Q 6.59375 54.828125 13.0625 64.515625 
Q 19.53125 74.21875 31.78125 74.21875 
z
" id="DejaVuSans-48"/>
       <path d="M 10.6875 12.40625 
L 21 12.40625 
L 21 0 
L 10.6875 0 
z
" id="DejaVuSans-46"/>
       <path d="M 12.40625 8.296875 
L 28.515625 8.296875 
L 28.515625 63.921875 
L 10.984375 60.40625 
L 10.984375 69.390625 
L 28.421875 72.90625 
L 38.28125 72.90625 
L 38.28125 8.296875 
L 54.390625 8.296875 
L 54.390625 0 
L 12.40625 0 
z
" id="DejaVuSans-49"/>
      </defs>
      <g transform="translate(60.237187 256.318438)scale(0.1 -0.1)">
       <use xlink:href="#DejaVuSans-48"/>
       <use x="63.623047" xlink:href="#DejaVuSans-46"/>
       <use x="95.410156" xlink:href="#DejaVuSans-48"/>
       <use x="159.033203" xlink:href="#DejaVuSans-49"/>
      </g>
     </g>
    </g>
    <g id="xtick_2">
     <g id="line2d_2">
      <g>
       <use style="stroke:#000000;stroke-width:0.8;" x="135.381247" xlink:href="#mc460b206b4" y="241.72"/>
      </g>
     </g>
     <g id="text_2">
      <!-- 0.1 -->
      <g transform="translate(127.429685 256.318438)scale(0.1 -0.1)">
       <use xlink:href="#DejaVuSans-48"/>
       <use x="63.623047" xlink:href="#DejaVuSans-46"/>
       <use x="95.410156" xlink:href="#DejaVuSans-49"/>
      </g>
     </g>
    </g>
    <g id="xtick_3">
     <g id="line2d_3">
      <g>
       <use style="stroke:#000000;stroke-width:0.8;" x="199.392495" xlink:href="#mc460b206b4" y="241.72"/>
      </g>
     </g>
     <g id="text_3">
      <!-- 1 -->
      <g transform="translate(196.211245 256.318438)scale(0.1 -0.1)">
       <use xlink:href="#DejaVuSans-49"/>
      </g>
     </g>
    </g>
    <g id="xtick_4">
     <g id="line2d_4">
      <g>
       <use style="stroke:#000000;stroke-width:0.8;" x="263.403742" xlink:href="#mc460b206b4" y="241.72"/>
      </g>
     </g>
     <g id="text_4">
      <!-- 10 -->
      <g transform="translate(257.041242 256.318438)scale(0.1 -0.1)">
       <use xlink:href="#DejaVuSans-49"/>
       <use x="63.623047" xlink:href="#DejaVuSans-48"/>
      </g>
     </g>
    </g>
    <g id="xtick_5">
     <g id="line2d_5">
      <g>
       <use style="stroke:#000000;stroke-width:0.8;" x="327.41499" xlink:href="#mc460b206b4" y="241.72"/>
      </g>
     </g>
     <g id="text_5">
      <!-- 100 -->
      <g transform="translate(317.87124 256.318438)scale(0.1 -0.1)">
       <use xlink:href="#DejaVuSans-49"/>
       <use x="63.623047" xlink:href="#DejaVuSans-48"/>
       <use x="127.246094" xlink:href="#DejaVuSans-48"/>
      </g>
     </g>
    </g>
    <g id="xtick_6">
     <g id="line2d_6">
      <g>
       <use style="stroke:#000000;stroke-width:0.8;" x="391.426237" xlink:href="#mc460b206b4" y="241.72"/>
      </g>
     </g>
     <g id="text_6">
      <!-- 1000 -->
      <g transform="translate(378.701237 256.318438)scale(0.1 -0.1)">
       <use xlink:href="#DejaVuSans-49"/>
       <use x="63.623047" xlink:href="#DejaVuSans-48"/>
       <use x="127.246094" xlink:href="#DejaVuSans-48"/>
       <use x="190.869141" xlink:href="#DejaVuSans-48"/>
      </g>
     </g>
    </g>
    <g id="text_7">
     <!-- minutes between pellets -->
     <defs>
      <path d="M 52 44.1875 
Q 55.375 50.25 60.0625 53.125 
Q 64.75 56 71.09375 56 
Q 79.640625 56 84.28125 50.015625 
Q 88.921875 44.046875 88.921875 33.015625 
L 88.921875 0 
L 79.890625 0 
L 79.890625 32.71875 
Q 79.890625 40.578125 77.09375 44.375 
Q 74.3125 48.1875 68.609375 48.1875 
Q 61.625 48.1875 57.5625 43.546875 
Q 53.515625 38.921875 53.515625 30.90625 
L 53.515625 0 
L 44.484375 0 
L 44.484375 32.71875 
Q 44.484375 40.625 41.703125 44.40625 
Q 38.921875 48.1875 33.109375 48.1875 
Q 26.21875 48.1875 22.15625 43.53125 
Q 18.109375 38.875 18.109375 30.90625 
L 18.109375 0 
L 9.078125 0 
L 9.078125 54.6875 
L 18.109375 54.6875 
L 18.109375 46.1875 
Q 21.1875 51.21875 25.484375 53.609375 
Q 29.78125 56 35.6875 56 
Q 41.65625 56 45.828125 52.96875 
Q 50 49.953125 52 44.1875 
z
" id="DejaVuSans-109"/>
      <path d="M 9.421875 54.6875 
L 18.40625 54.6875 
L 18.40625 0 
L 9.421875 0 
z
M 9.421875 75.984375 
L 18.40625 75.984375 
L 18.40625 64.59375 
L 9.421875 64.59375 
z
" id="DejaVuSans-105"/>
      <path d="M 54.890625 33.015625 
L 54.890625 0 
L 45.90625 0 
L 45.90625 32.71875 
Q 45.90625 40.484375 42.875 44.328125 
Q 39.84375 48.1875 33.796875 48.1875 
Q 26.515625 48.1875 22.3125 43.546875 
Q 18.109375 38.921875 18.109375 30.90625 
L 18.109375 0 
L 9.078125 0 
L 9.078125 54.6875 
L 18.109375 54.6875 
L 18.109375 46.1875 
Q 21.34375 51.125 25.703125 53.5625 
Q 30.078125 56 35.796875 56 
Q 45.21875 56 50.046875 50.171875 
Q 54.890625 44.34375 54.890625 33.015625 
z
" id="DejaVuSans-110"/>
      <path d="M 8.5 21.578125 
L 8.5 54.6875 
L 17.484375 54.6875 
L 17.484375 21.921875 
Q 17.484375 14.15625 20.5 10.265625 
Q 23.53125 6.390625 29.59375 6.390625 
Q 36.859375 6.390625 41.078125 11.03125 
Q 45.3125 15.671875 45.3125 23.6875 
L 45.3125 54.6875 
L 54.296875 54.6875 
L 54.296875 0 
L 45.3125 0 
L 45.3125 8.40625 
Q 42.046875 3.421875 37.71875 1 
Q 33.40625 -1.421875 27.6875 -1.421875 
Q 18.265625 -1.421875 13.375 4.4375 
Q 8.5 10.296875 8.5 21.578125 
z
M 31.109375 56 
z
" id="DejaVuSans-117"/>
      <path d="M 18.3125 70.21875 
L 18.3125 54.6875 
L 36.8125 54.6875 
L 36.8125 47.703125 
L 18.3125 47.703125 
L 18.3125 18.015625 
Q 18.3125 11.328125 20.140625 9.421875 
Q 21.96875 7.515625 27.59375 7.515625 
L 36.8125 7.515625 
L 36.8125 0 
L 27.59375 0 
Q 17.1875 0 13.234375 3.875 
Q 9.28125 7.765625 9.28125 18.015625 
L 9.28125 47.703125 
L 2.6875 47.703125 
L 2.6875 54.6875 
L 9.28125 54.6875 
L 9.28125 70.21875 
z
" id="DejaVuSans-116"/>
      <path d="M 56.203125 29.59375 
L 56.203125 25.203125 
L 14.890625 25.203125 
Q 15.484375 15.921875 20.484375 11.0625 
Q 25.484375 6.203125 34.421875 6.203125 
Q 39.59375 6.203125 44.453125 7.46875 
Q 49.3125 8.734375 54.109375 11.28125 
L 54.109375 2.78125 
Q 49.265625 0.734375 44.1875 -0.34375 
Q 39.109375 -1.421875 33.890625 -1.421875 
Q 20.796875 -1.421875 13.15625 6.1875 
Q 5.515625 13.8125 5.515625 26.8125 
Q 5.515625 40.234375 12.765625 48.109375 
Q 20.015625 56 32.328125 56 
Q 43.359375 56 49.78125 48.890625 
Q 56.203125 41.796875 56.203125 29.59375 
z
M 47.21875 32.234375 
Q 47.125 39.59375 43.09375 43.984375 
Q 39.0625 48.390625 32.421875 48.390625 
Q 24.90625 48.390625 20.390625 44.140625 
Q 15.875 39.890625 15.1875 32.171875 
z
" id="DejaVuSans-101"/>
      <path d="M 44.28125 53.078125 
L 44.28125 44.578125 
Q 40.484375 46.53125 36.375 47.5 
Q 32.28125 48.484375 27.875 48.484375 
Q 21.1875 48.484375 17.84375 46.4375 
Q 14.5 44.390625 14.5 40.28125 
Q 14.5 37.15625 16.890625 35.375 
Q 19.28125 33.59375 26.515625 31.984375 
L 29.59375 31.296875 
Q 39.15625 29.25 43.1875 25.515625 
Q 47.21875 21.78125 47.21875 15.09375 
Q 47.21875 7.46875 41.1875 3.015625 
Q 35.15625 -1.421875 24.609375 -1.421875 
Q 20.21875 -1.421875 15.453125 -0.5625 
Q 10.6875 0.296875 5.421875 2 
L 5.421875 11.28125 
Q 10.40625 8.6875 15.234375 7.390625 
Q 20.0625 6.109375 24.8125 6.109375 
Q 31.15625 6.109375 34.5625 8.28125 
Q 37.984375 10.453125 37.984375 14.40625 
Q 37.984375 18.0625 35.515625 20.015625 
Q 33.0625 21.96875 24.703125 23.78125 
L 21.578125 24.515625 
Q 13.234375 26.265625 9.515625 29.90625 
Q 5.8125 33.546875 5.8125 39.890625 
Q 5.8125 47.609375 11.28125 51.796875 
Q 16.75 56 26.8125 56 
Q 31.78125 56 36.171875 55.265625 
Q 40.578125 54.546875 44.28125 53.078125 
z
" id="DejaVuSans-115"/>
      <path id="DejaVuSans-32"/>
      <path d="M 48.6875 27.296875 
Q 48.6875 37.203125 44.609375 42.84375 
Q 40.53125 48.484375 33.40625 48.484375 
Q 26.265625 48.484375 22.1875 42.84375 
Q 18.109375 37.203125 18.109375 27.296875 
Q 18.109375 17.390625 22.1875 11.75 
Q 26.265625 6.109375 33.40625 6.109375 
Q 40.53125 6.109375 44.609375 11.75 
Q 48.6875 17.390625 48.6875 27.296875 
z
M 18.109375 46.390625 
Q 20.953125 51.265625 25.265625 53.625 
Q 29.59375 56 35.59375 56 
Q 45.5625 56 51.78125 48.09375 
Q 58.015625 40.1875 58.015625 27.296875 
Q 58.015625 14.40625 51.78125 6.484375 
Q 45.5625 -1.421875 35.59375 -1.421875 
Q 29.59375 -1.421875 25.265625 0.953125 
Q 20.953125 3.328125 18.109375 8.203125 
L 18.109375 0 
L 9.078125 0 
L 9.078125 75.984375 
L 18.109375 75.984375 
z
" id="DejaVuSans-98"/>
      <path d="M 4.203125 54.6875 
L 13.1875 54.6875 
L 24.421875 12.015625 
L 35.59375 54.6875 
L 46.1875 54.6875 
L 57.421875 12.015625 
L 68.609375 54.6875 
L 77.59375 54.6875 
L 63.28125 0 
L 52.6875 0 
L 40.921875 44.828125 
L 29.109375 0 
L 18.5 0 
z
" id="DejaVuSans-119"/>
      <path d="M 18.109375 8.203125 
L 18.109375 -20.796875 
L 9.078125 -20.796875 
L 9.078125 54.6875 
L 18.109375 54.6875 
L 18.109375 46.390625 
Q 20.953125 51.265625 25.265625 53.625 
Q 29.59375 56 35.59375 56 
Q 45.5625 56 51.78125 48.09375 
Q 58.015625 40.1875 58.015625 27.296875 
Q 58.015625 14.40625 51.78125 6.484375 
Q 45.5625 -1.421875 35.59375 -1.421875 
Q 29.59375 -1.421875 25.265625 0.953125 
Q 20.953125 3.328125 18.109375 8.203125 
z
M 48.6875 27.296875 
Q 48.6875 37.203125 44.609375 42.84375 
Q 40.53125 48.484375 33.40625 48.484375 
Q 26.265625 48.484375 22.1875 42.84375 
Q 18.109375 37.203125 18.109375 27.296875 
Q 18.109375 17.390625 22.1875 11.75 
Q 26.265625 6.109375 33.40625 6.109375 
Q 40.53125 6.109375 44.609375 11.75 
Q 48.6875 17.390625 48.6875 27.296875 
z
" id="DejaVuSans-112"/>
      <path d="M 9.421875 75.984375 
L 18.40625 75.984375 
L 18.40625 0 
L 9.421875 0 
z
" id="DejaVuSans-108"/>
     </defs>
     <g transform="translate(186.761406 269.996563)scale(0.1 -0.1)">
      <use xlink:href="#DejaVuSans-109"/>
      <use x="97.412109" xlink:href="#DejaVuSans-105"/>
      <use x="125.195312" xlink:href="#DejaVuSans-110"/>
      <use x="188.574219" xlink:href="#DejaVuSans-117"/>
      <use x="251.953125" xlink:href="#DejaVuSans-116"/>
      <use x="291.162109" xlink:href="#DejaVuSans-101"/>
      <use x="352.685547" xlink:href="#DejaVuSans-115"/>
      <use x="404.785156" xlink:href="#DejaVuSans-32"/>
      <use x="436.572266" xlink:href="#DejaVuSans-98"/>
      <use x="500.048828" xlink:href="#DejaVuSans-101"/>
      <use x="561.572266" xlink:href="#DejaVuSans-116"/>
      <use x="600.78125" xlink:href="#DejaVuSans-119"/>
      <use x="682.568359" xlink:href="#DejaVuSans-101"/>
      <use x="744.091797" xlink:href="#DejaVuSans-101"/>
      <use x="805.615234" xlink:href="#DejaVuSans-110"/>
      <use x="868.994141" xlink:href="#DejaVuSans-32"/>
      <use x="900.78125" xlink:href="#DejaVuSans-112"/>
      <use x="964.257812" xlink:href="#DejaVuSans-101"/>
      <use x="1025.78125" xlink:href="#DejaVuSans-108"/>
      <use x="1053.564453" xlink:href="#DejaVuSans-108"/>
      <use x="1081.347656" xlink:href="#DejaVuSans-101"/>
      <use x="1142.871094" xlink:href="#DejaVuSans-116"/>
      <use x="1182.080078" xlink:href="#DejaVuSans-115"/>
     </g>
    </g>
   </g>
   <g id="matplotlib.axis_2">
    <g id="ytick_1">
     <g id="line2d_7">
      <defs>
       <path d="M 0 0 
L -3.5 0 
" id="m7545a9e7f8" style="stroke:#000000;stroke-width:0.8;"/>
      </defs>
      <g>
       <use style="stroke:#000000;stroke-width:0.8;" x="53.66" xlink:href="#m7545a9e7f8" y="241.72"/>
      </g>
     </g>
     <g id="text_8">
      <!-- 0.00 -->
      <g transform="translate(24.394375 245.519219)scale(0.1 -0.1)">
       <use xlink:href="#DejaVuSans-48"/>
       <use x="63.623047" xlink:href="#DejaVuSans-46"/>
       <use x="95.410156" xlink:href="#DejaVuSans-48"/>
       <use x="159.033203" xlink:href="#DejaVuSans-48"/>
      </g>
     </g>
    </g>
    <g id="ytick_2">
     <g id="line2d_8">
      <g>
       <use style="stroke:#000000;stroke-width:0.8;" x="53.66" xlink:href="#m7545a9e7f8" y="212.041055"/>
      </g>
     </g>
     <g id="text_9">
      <!-- 0.25 -->
      <defs>
       <path d="M 19.1875 8.296875 
L 53.609375 8.296875 
L 53.609375 0 
L 7.328125 0 
L 7.328125 8.296875 
Q 12.9375 14.109375 22.625 23.890625 
Q 32.328125 33.6875 34.8125 36.53125 
Q 39.546875 41.84375 41.421875 45.53125 
Q 43.3125 49.21875 43.3125 52.78125 
Q 43.3125 58.59375 39.234375 62.25 
Q 35.15625 65.921875 28.609375 65.921875 
Q 23.96875 65.921875 18.8125 64.3125 
Q 13.671875 62.703125 7.8125 59.421875 
L 7.8125 69.390625 
Q 13.765625 71.78125 18.9375 73 
Q 24.125 74.21875 28.421875 74.21875 
Q 39.75 74.21875 46.484375 68.546875 
Q 53.21875 62.890625 53.21875 53.421875 
Q 53.21875 48.921875 51.53125 44.890625 
Q 49.859375 40.875 45.40625 35.40625 
Q 44.1875 33.984375 37.640625 27.21875 
Q 31.109375 20.453125 19.1875 8.296875 
z
" id="DejaVuSans-50"/>
       <path d="M 10.796875 72.90625 
L 49.515625 72.90625 
L 49.515625 64.59375 
L 19.828125 64.59375 
L 19.828125 46.734375 
Q 21.96875 47.46875 24.109375 47.828125 
Q 26.265625 48.1875 28.421875 48.1875 
Q 40.625 48.1875 47.75 41.5 
Q 54.890625 34.8125 54.890625 23.390625 
Q 54.890625 11.625 47.5625 5.09375 
Q 40.234375 -1.421875 26.90625 -1.421875 
Q 22.3125 -1.421875 17.546875 -0.640625 
Q 12.796875 0.140625 7.71875 1.703125 
L 7.71875 11.625 
Q 12.109375 9.234375 16.796875 8.0625 
Q 21.484375 6.890625 26.703125 6.890625 
Q 35.15625 6.890625 40.078125 11.328125 
Q 45.015625 15.765625 45.015625 23.390625 
Q 45.015625 31 40.078125 35.4375 
Q 35.15625 39.890625 26.703125 39.890625 
Q 22.75 39.890625 18.8125 39.015625 
Q 14.890625 38.140625 10.796875 36.28125 
z
" id="DejaVuSans-53"/>
      </defs>
      <g transform="translate(24.394375 215.840274)scale(0.1 -0.1)">
       <use xlink:href="#DejaVuSans-48"/>
       <use x="63.623047" xlink:href="#DejaVuSans-46"/>
       <use x="95.410156" xlink:href="#DejaVuSans-50"/>
       <use x="159.033203" xlink:href="#DejaVuSans-53"/>
      </g>
     </g>
    </g>
    <g id="ytick_3">
     <g id="line2d_9">
      <g>
       <use style="stroke:#000000;stroke-width:0.8;" x="53.66" xlink:href="#m7545a9e7f8" y="182.362111"/>
      </g>
     </g>
     <g id="text_10">
      <!-- 0.50 -->
      <g transform="translate(24.394375 186.161329)scale(0.1 -0.1)">
       <use xlink:href="#DejaVuSans-48"/>
       <use x="63.623047" xlink:href="#DejaVuSans-46"/>
       <use x="95.410156" xlink:href="#DejaVuSans-53"/>
       <use x="159.033203" xlink:href="#DejaVuSans-48"/>
      </g>
     </g>
    </g>
    <g id="ytick_4">
     <g id="line2d_10">
      <g>
       <use style="stroke:#000000;stroke-width:0.8;" x="53.66" xlink:href="#m7545a9e7f8" y="152.683166"/>
      </g>
     </g>
     <g id="text_11">
      <!-- 0.75 -->
      <defs>
       <path d="M 8.203125 72.90625 
L 55.078125 72.90625 
L 55.078125 68.703125 
L 28.609375 0 
L 18.3125 0 
L 43.21875 64.59375 
L 8.203125 64.59375 
z
" id="DejaVuSans-55"/>
      </defs>
      <g transform="translate(24.394375 156.482385)scale(0.1 -0.1)">
       <use xlink:href="#DejaVuSans-48"/>
       <use x="63.623047" xlink:href="#DejaVuSans-46"/>
       <use x="95.410156" xlink:href="#DejaVuSans-55"/>
       <use x="159.033203" xlink:href="#DejaVuSans-53"/>
      </g>
     </g>
    </g>
    <g id="ytick_5">
     <g id="line2d_11">
      <g>
       <use style="stroke:#000000;stroke-width:0.8;" x="53.66" xlink:href="#m7545a9e7f8" y="123.004221"/>
      </g>
     </g>
     <g id="text_12">
      <!-- 1.00 -->
      <g transform="translate(24.394375 126.80344)scale(0.1 -0.1)">
       <use xlink:href="#DejaVuSans-49"/>
       <use x="63.623047" xlink:href="#DejaVuSans-46"/>
       <use x="95.410156" xlink:href="#DejaVuSans-48"/>
       <use x="159.033203" xlink:href="#DejaVuSans-48"/>
      </g>
     </g>
    </g>
    <g id="ytick_6">
     <g id="line2d_12">
      <g>
       <use style="stroke:#000000;stroke-width:0.8;" x="53.66" xlink:href="#m7545a9e7f8" y="93.325277"/>
      </g>
     </g>
     <g id="text_13">
      <!-- 1.25 -->
      <g transform="translate(24.394375 97.124496)scale(0.1 -0.1)">
       <use xlink:href="#DejaVuSans-49"/>
       <use x="63.623047" xlink:href="#DejaVuSans-46"/>
       <use x="95.410156" xlink:href="#DejaVuSans-50"/>
       <use x="159.033203" xlink:href="#DejaVuSans-53"/>
      </g>
     </g>
    </g>
    <g id="ytick_7">
     <g id="line2d_13">
      <g>
       <use style="stroke:#000000;stroke-width:0.8;" x="53.66" xlink:href="#m7545a9e7f8" y="63.646332"/>
      </g>
     </g>
     <g id="text_14">
      <!-- 1.50 -->
      <g transform="translate(24.394375 67.445551)scale(0.1 -0.1)">
       <use xlink:href="#DejaVuSans-49"/>
       <use x="63.623047" xlink:href="#DejaVuSans-46"/>
       <use x="95.410156" xlink:href="#DejaVuSans-53"/>
       <use x="159.033203" xlink:href="#DejaVuSans-48"/>
      </g>
     </g>
    </g>
    <g id="ytick_8">
     <g id="line2d_14">
      <g>
       <use style="stroke:#000000;stroke-width:0.8;" x="53.66" xlink:href="#m7545a9e7f8" y="33.967388"/>
      </g>
     </g>
     <g id="text_15">
      <!-- 1.75 -->
      <g transform="translate(24.394375 37.766606)scale(0.1 -0.1)">
       <use xlink:href="#DejaVuSans-49"/>
       <use x="63.623047" xlink:href="#DejaVuSans-46"/>
       <use x="95.410156" xlink:href="#DejaVuSans-55"/>
       <use x="159.033203" xlink:href="#DejaVuSans-53"/>
      </g>
     </g>
    </g>
    <g id="text_16">
     <!-- Density Estimation -->
     <defs>
      <path d="M 19.671875 64.796875 
L 19.671875 8.109375 
L 31.59375 8.109375 
Q 46.6875 8.109375 53.6875 14.9375 
Q 60.6875 21.78125 60.6875 36.53125 
Q 60.6875 51.171875 53.6875 57.984375 
Q 46.6875 64.796875 31.59375 64.796875 
z
M 9.8125 72.90625 
L 30.078125 72.90625 
Q 51.265625 72.90625 61.171875 64.09375 
Q 71.09375 55.28125 71.09375 36.53125 
Q 71.09375 17.671875 61.125 8.828125 
Q 51.171875 0 30.078125 0 
L 9.8125 0 
z
" id="DejaVuSans-68"/>
      <path d="M 32.171875 -5.078125 
Q 28.375 -14.84375 24.75 -17.8125 
Q 21.140625 -20.796875 15.09375 -20.796875 
L 7.90625 -20.796875 
L 7.90625 -13.28125 
L 13.1875 -13.28125 
Q 16.890625 -13.28125 18.9375 -11.515625 
Q 21 -9.765625 23.484375 -3.21875 
L 25.09375 0.875 
L 2.984375 54.6875 
L 12.5 54.6875 
L 29.59375 11.921875 
L 46.6875 54.6875 
L 56.203125 54.6875 
z
" id="DejaVuSans-121"/>
      <path d="M 9.8125 72.90625 
L 55.90625 72.90625 
L 55.90625 64.59375 
L 19.671875 64.59375 
L 19.671875 43.015625 
L 54.390625 43.015625 
L 54.390625 34.71875 
L 19.671875 34.71875 
L 19.671875 8.296875 
L 56.78125 8.296875 
L 56.78125 0 
L 9.8125 0 
z
" id="DejaVuSans-69"/>
      <path d="M 34.28125 27.484375 
Q 23.390625 27.484375 19.1875 25 
Q 14.984375 22.515625 14.984375 16.5 
Q 14.984375 11.71875 18.140625 8.90625 
Q 21.296875 6.109375 26.703125 6.109375 
Q 34.1875 6.109375 38.703125 11.40625 
Q 43.21875 16.703125 43.21875 25.484375 
L 43.21875 27.484375 
z
M 52.203125 31.203125 
L 52.203125 0 
L 43.21875 0 
L 43.21875 8.296875 
Q 40.140625 3.328125 35.546875 0.953125 
Q 30.953125 -1.421875 24.3125 -1.421875 
Q 15.921875 -1.421875 10.953125 3.296875 
Q 6 8.015625 6 15.921875 
Q 6 25.140625 12.171875 29.828125 
Q 18.359375 34.515625 30.609375 34.515625 
L 43.21875 34.515625 
L 43.21875 35.40625 
Q 43.21875 41.609375 39.140625 45 
Q 35.0625 48.390625 27.6875 48.390625 
Q 23 48.390625 18.546875 47.265625 
Q 14.109375 46.140625 10.015625 43.890625 
L 10.015625 52.203125 
Q 14.9375 54.109375 19.578125 55.046875 
Q 24.21875 56 28.609375 56 
Q 40.484375 56 46.34375 49.84375 
Q 52.203125 43.703125 52.203125 31.203125 
z
" id="DejaVuSans-97"/>
      <path d="M 30.609375 48.390625 
Q 23.390625 48.390625 19.1875 42.75 
Q 14.984375 37.109375 14.984375 27.296875 
Q 14.984375 17.484375 19.15625 11.84375 
Q 23.34375 6.203125 30.609375 6.203125 
Q 37.796875 6.203125 41.984375 11.859375 
Q 46.1875 17.53125 46.1875 27.296875 
Q 46.1875 37.015625 41.984375 42.703125 
Q 37.796875 48.390625 30.609375 48.390625 
z
M 30.609375 56 
Q 42.328125 56 49.015625 48.375 
Q 55.71875 40.765625 55.71875 27.296875 
Q 55.71875 13.875 49.015625 6.21875 
Q 42.328125 -1.421875 30.609375 -1.421875 
Q 18.84375 -1.421875 12.171875 6.21875 
Q 5.515625 13.875 5.515625 27.296875 
Q 5.515625 40.765625 12.171875 48.375 
Q 18.84375 56 30.609375 56 
z
" id="DejaVuSans-111"/>
     </defs>
     <g transform="translate(18.314687 181.042656)rotate(-90)scale(0.1 -0.1)">
      <use xlink:href="#DejaVuSans-68"/>
      <use x="77.001953" xlink:href="#DejaVuSans-101"/>
      <use x="138.525391" xlink:href="#DejaVuSans-110"/>
      <use x="201.904297" xlink:href="#DejaVuSans-115"/>
      <use x="254.003906" xlink:href="#DejaVuSans-105"/>
      <use x="281.787109" xlink:href="#DejaVuSans-116"/>
      <use x="320.996094" xlink:href="#DejaVuSans-121"/>
      <use x="380.175781" xlink:href="#DejaVuSans-32"/>
      <use x="411.962891" xlink:href="#DejaVuSans-69"/>
      <use x="475.146484" xlink:href="#DejaVuSans-115"/>
      <use x="527.246094" xlink:href="#DejaVuSans-116"/>
      <use x="566.455078" xlink:href="#DejaVuSans-105"/>
      <use x="594.238281" xlink:href="#DejaVuSans-109"/>
      <use x="691.650391" xlink:href="#DejaVuSans-97"/>
      <use x="752.929688" xlink:href="#DejaVuSans-116"/>
      <use x="792.138672" xlink:href="#DejaVuSans-105"/>
      <use x="819.921875" xlink:href="#DejaVuSans-111"/>
      <use x="881.103516" xlink:href="#DejaVuSans-110"/>
     </g>
    </g>
   </g>
   <g id="line2d_15">
    <path clip-path="url(#p62f645cd68)" d="M 96.358562 241.718981 
L 99.40863 241.716212 
L 102.458698 241.708398 
L 105.508766 241.69032 
L 108.558833 241.655426 
L 111.608901 241.597912 
L 114.658969 241.515267 
L 117.709037 241.410974 
L 120.759105 241.296058 
L 123.809173 241.184675 
L 126.859241 241.082275 
L 129.909309 240.976223 
L 132.959377 240.838789 
L 136.009445 240.633809 
L 139.059513 240.303251 
L 142.109581 239.714986 
L 145.159649 238.572884 
L 148.209717 236.317376 
L 151.259785 232.072723 
L 154.309853 224.717501 
L 157.359921 213.158808 
L 160.409989 196.844115 
L 163.460057 176.390741 
L 166.510125 153.989854 
L 169.560193 133.167566 
L 172.610261 117.764018 
L 175.660329 110.517069 
L 178.710397 112.017978 
L 181.760465 120.677817 
L 184.810533 133.686913 
L 187.860601 148.257841 
L 190.910669 162.382583 
L 193.960737 174.925125 
L 197.010805 185.382239 
L 200.060873 193.631046 
L 203.110941 199.762738 
L 206.161009 204.014462 
L 209.211077 206.768899 
L 212.261145 208.518392 
L 215.311213 209.723612 
L 218.361281 210.65501 
L 221.411349 211.369232 
L 224.461417 211.822469 
L 227.511485 211.972757 
L 230.561553 211.792004 
L 233.611621 211.251746 
L 236.661689 210.337315 
L 239.711757 209.063714 
L 242.761825 207.482314 
L 245.811893 205.708643 
L 248.861961 203.948836 
L 251.912029 202.459044 
L 254.962097 201.458119 
L 258.012165 201.088149 
L 261.062233 201.428907 
L 264.112301 202.485576 
L 267.162369 204.156169 
L 270.212436 206.269051 
L 273.262504 208.684558 
L 276.312572 211.343465 
L 279.36264 214.203033 
L 282.412708 217.135739 
L 285.462776 219.906523 
L 288.512844 222.262546 
L 291.562912 224.059597 
L 294.61298 225.32163 
L 297.663048 226.197367 
L 300.713116 226.856896 
L 303.763184 227.404741 
L 306.813252 227.86954 
L 309.86332 228.264966 
L 312.913388 228.650818 
L 315.963456 229.135611 
L 319.013524 229.834219 
L 322.063592 230.829145 
L 325.11366 232.151265 
L 328.163728 233.760661 
L 331.213796 235.526415 
L 334.263864 237.242123 
L 337.313932 238.69908 
L 340.364 239.77583 
L 343.414068 240.475128 
L 346.464136 240.887929 
L 349.514204 241.127212 
L 352.564272 241.281108 
L 355.61434 241.398403 
L 358.664408 241.494972 
L 361.714476 241.56928 
L 364.764544 241.617745 
L 367.814612 241.642443 
L 370.86468 241.650803 
L 373.914748 241.652495 
L 376.964816 241.65625 
L 380.014884 241.666516 
L 383.064952 241.681872 
L 386.11502 241.697387 
L 389.165088 241.708956 
L 392.215156 241.715582 
L 395.265224 241.718557 
L 398.315292 241.719616 
" style="fill:none;stroke:#1f77b4;stroke-linecap:square;stroke-width:1.5;"/>
   </g>
   <g id="line2d_16">
    <path clip-path="url(#p62f645cd68)" d="M 85.36972 241.719393 
L 88.555203 241.717632 
L 91.740686 241.712657 
L 94.926169 241.701623 
L 98.111651 241.681729 
L 101.297134 241.650068 
L 104.482617 241.600306 
L 107.6681 241.520455 
L 110.853582 241.399185 
L 114.039065 241.235332 
L 117.224548 241.035353 
L 120.41003 240.799322 
L 123.595513 240.512143 
L 126.780996 240.150017 
L 129.966479 239.70211 
L 133.151961 239.189418 
L 136.337444 238.642457 
L 139.522927 238.031304 
L 142.70841 237.191442 
L 145.893892 235.761866 
L 149.079375 233.107211 
L 152.264858 228.256774 
L 155.450341 220.008849 
L 158.635823 207.353673 
L 161.821306 190.16997 
L 165.006789 169.832082 
L 168.192271 149.216944 
L 171.377754 131.889863 
L 174.563237 120.839485 
L 177.74872 117.501704 
L 180.934202 121.551493 
L 184.119685 131.305435 
L 187.305168 144.321031 
L 190.490651 158.060697 
L 193.676133 170.58888 
L 196.861616 180.984308 
L 200.047099 189.191703 
L 203.232582 195.543386 
L 206.418064 200.40008 
L 209.603547 204.057097 
L 212.78903 206.768224 
L 215.974512 208.752137 
L 219.159995 210.173714 
L 222.345478 211.132648 
L 225.530961 211.665416 
L 228.716443 211.765486 
L 231.901926 211.427425 
L 235.087409 210.68718 
L 238.272892 209.626927 
L 241.458374 208.349941 
L 244.643857 206.946789 
L 247.82934 205.482572 
L 251.014823 204.043906 
L 254.200305 202.815568 
L 257.385788 202.065487 
L 260.571271 202.003765 
L 263.756753 202.681027 
L 266.942236 204.056456 
L 270.127719 206.101087 
L 273.313202 208.752506 
L 276.498684 211.798517 
L 279.684167 214.893839 
L 282.86965 217.721017 
L 286.055133 220.130142 
L 289.240615 222.148605 
L 292.426098 223.886079 
L 295.611581 225.41666 
L 298.797064 226.71767 
L 301.982546 227.708578 
L 305.168029 228.352588 
L 308.353512 228.727577 
L 311.538994 229.014423 
L 314.724477 229.421796 
L 317.90996 230.101104 
L 321.095443 231.106712 
L 324.280925 232.407727 
L 327.466408 233.909033 
L 330.651891 235.47017 
L 333.837374 236.945905 
L 337.022856 238.234193 
L 340.208339 239.289776 
L 343.393822 240.103662 
L 346.579305 240.685526 
L 349.764787 241.062875 
L 352.95027 241.278739 
L 356.135753 241.380197 
L 359.321236 241.410653 
L 362.506718 241.409362 
L 365.692201 241.408525 
L 368.877684 241.427045 
L 372.063166 241.468569 
L 375.248649 241.525309 
L 378.434132 241.584395 
L 381.619615 241.634793 
L 384.805097 241.671615 
L 387.99058 241.695419 
L 391.176063 241.709101 
L 394.361546 241.715911 
L 397.547028 241.718736 
L 400.732511 241.719685 
" style="fill:none;stroke:#ff7f0e;stroke-linecap:square;stroke-width:1.5;"/>
   </g>
   <g id="line2d_17">
    <path clip-path="url(#p62f645cd68)" d="M 85.221913 241.71971 
L 88.19911 241.718964 
L 91.176306 241.716956 
L 94.153503 241.712541 
L 97.130699 241.704367 
L 100.107896 241.690819 
L 103.085093 241.669172 
L 106.062289 241.635091 
L 109.039486 241.585071 
L 112.016682 241.520738 
L 114.993879 241.448321 
L 117.971075 241.370703 
L 120.948272 241.282194 
L 123.925469 241.176097 
L 126.902665 241.056397 
L 129.879862 240.93464 
L 132.857058 240.81038 
L 135.834255 240.653783 
L 138.811451 240.3969 
L 141.788648 239.906592 
L 144.765844 238.903554 
L 147.743041 236.828583 
L 150.720238 232.72008 
L 153.697434 225.234887 
L 156.674631 212.974991 
L 159.651827 195.175177 
L 162.629024 172.513391 
L 165.60622 147.516273 
L 168.583417 124.100941 
L 171.560613 106.32521 
L 174.53781 97.001588 
L 177.515007 96.915111 
L 180.492203 104.917135 
L 183.4694 118.622648 
L 186.446596 135.247809 
L 189.423793 152.282928 
L 192.400989 167.911717 
L 195.378186 181.163774 
L 198.355382 191.804853 
L 201.332579 200.052937 
L 204.309776 206.283824 
L 207.286972 210.851527 
L 210.264169 214.046863 
L 213.241365 216.139021 
L 216.218562 217.41334 
L 219.195758 218.149581 
L 222.172955 218.561633 
L 225.150151 218.758121 
L 228.127348 218.74515 
L 231.104545 218.452501 
L 234.081741 217.782492 
L 237.058938 216.693563 
L 240.036134 215.270729 
L 243.013331 213.689995 
L 245.990527 212.083458 
L 248.967724 210.461762 
L 251.944921 208.807896 
L 254.922117 207.23649 
L 257.899314 206.023021 
L 260.87651 205.467339 
L 263.853707 205.729667 
L 266.830903 206.767309 
L 269.8081 208.378172 
L 272.785296 210.281603 
L 275.762493 212.196761 
L 278.73969 213.930002 
L 281.716886 215.448153 
L 284.694083 216.860745 
L 287.671279 218.299806 
L 290.648476 219.801693 
L 293.625672 221.291705 
L 296.602869 222.663093 
L 299.580065 223.864142 
L 302.557262 224.920099 
L 305.534459 225.892271 
L 308.511655 226.840106 
L 311.488852 227.826032 
L 314.466048 228.922241 
L 317.443245 230.172641 
L 320.420441 231.546195 
L 323.397638 232.951329 
L 326.374834 234.303652 
L 329.352031 235.568701 
L 332.329228 236.74156 
L 335.306424 237.80823 
L 338.283621 238.740229 
L 341.260817 239.515152 
L 344.238014 240.129135 
L 347.21521 240.594019 
L 350.192407 240.932683 
L 353.169603 241.175693 
L 356.1468 241.353307 
L 359.123997 241.485993 
L 362.101193 241.582793 
L 365.07839 241.647807 
L 368.055586 241.686442 
L 371.032783 241.706371 
L 374.009979 241.715212 
L 376.987176 241.718561 
L 379.964373 241.719633 
" style="fill:none;stroke:#2ca02c;stroke-linecap:square;stroke-width:1.5;"/>
   </g>
   <g id="line2d_18">
    <path clip-path="url(#p62f645cd68)" d="M 85.785755 241.719713 
L 89.217919 241.718743 
L 92.650083 241.715861 
L 96.082247 241.70968 
L 99.514411 241.700075 
L 102.946575 241.688549 
L 106.378739 241.674762 
L 109.810903 241.652278 
L 113.243067 241.610145 
L 116.675232 241.540291 
L 120.107396 241.443978 
L 123.53956 241.328324 
L 126.971724 241.191095 
L 130.403888 241.014659 
L 133.836052 240.784131 
L 137.268216 240.493381 
L 140.70038 240.08567 
L 144.132544 239.30555 
L 147.564708 237.448627 
L 150.996872 233.058511 
L 154.429037 223.850542 
L 157.861201 207.345497 
L 161.293365 182.431091 
L 164.725529 151.193148 
L 168.157693 119.494541 
L 171.589857 95.095783 
L 175.022021 84.030607 
L 178.454185 87.79601 
L 181.886349 103.310322 
L 185.318513 125.103021 
L 188.750678 147.843437 
L 192.182842 167.91337 
L 195.615006 183.727464 
L 199.04717 195.196915 
L 202.479334 203.023379 
L 205.911498 208.175688 
L 209.343662 211.529503 
L 212.775826 213.705087 
L 216.20799 215.10579 
L 219.640154 216.00132 
L 223.072318 216.594722 
L 226.504483 217.045283 
L 229.936647 217.38024 
L 233.368811 217.448693 
L 236.800975 217.082831 
L 240.233139 216.280123 
L 243.665303 215.185827 
L 247.097467 213.957234 
L 250.529631 212.689023 
L 253.961795 211.459527 
L 257.393959 210.442478 
L 260.826123 209.927921 
L 264.258288 210.15625 
L 267.690452 211.146412 
L 271.122616 212.722811 
L 274.55478 214.636234 
L 277.986944 216.630034 
L 281.419108 218.501788 
L 284.851272 220.171333 
L 288.283436 221.665834 
L 291.7156 223.037299 
L 295.147764 224.303146 
L 298.579929 225.450535 
L 302.012093 226.493835 
L 305.444257 227.505468 
L 308.876421 228.548427 
L 312.308585 229.61241 
L 315.740749 230.679137 
L 319.172913 231.80708 
L 322.605077 233.075141 
L 326.037241 234.467228 
L 329.469405 235.873917 
L 332.901569 237.187649 
L 336.333734 238.3436 
L 339.765898 239.29625 
L 343.198062 240.02062 
L 346.630226 240.536047 
L 350.06239 240.89672 
L 353.494554 241.153496 
L 356.926718 241.330658 
L 360.358882 241.435994 
L 363.791046 241.484155 
L 367.22321 241.502807 
L 370.655374 241.516898 
L 374.087539 241.535874 
L 377.519703 241.558788 
L 380.951867 241.582518 
L 384.384031 241.602808 
L 387.816195 241.617353 
L 391.248359 241.630267 
L 394.680523 241.646897 
L 398.112687 241.665215 
L 401.544851 241.67874 
L 404.977015 241.686314 
L 408.40918 241.692805 
L 411.841344 241.701312 
L 415.273508 241.709953 
L 418.705672 241.715906 
L 422.137836 241.718748 
L 425.57 241.719714 
" style="fill:none;stroke:#d62728;stroke-linecap:square;stroke-width:1.5;"/>
   </g>
   <g id="patch_203">
    <path d="M 53.66 241.72 
L 53.66 25.92 
" style="fill:none;stroke:#000000;stroke-linecap:square;stroke-linejoin:miter;stroke-width:0.8;"/>
   </g>
   <g id="patch_204">
    <path d="M 443.28 241.72 
L 443.28 25.92 
" style="fill:none;stroke:#000000;stroke-linecap:square;stroke-linejoin:miter;stroke-width:0.8;"/>
   </g>
   <g id="patch_205">
    <path d="M 53.66 241.72 
L 443.28 241.72 
" style="fill:none;stroke:#000000;stroke-linecap:square;stroke-linejoin:miter;stroke-width:0.8;"/>
   </g>
   <g id="patch_206">
    <path d="M 53.66 25.92 
L 443.28 25.92 
" style="fill:none;stroke:#000000;stroke-linecap:square;stroke-linejoin:miter;stroke-width:0.8;"/>
   </g>
   <g id="text_17">
    <!-- Interpellet Interval Plot -->
    <defs>
     <path d="M 9.8125 72.90625 
L 19.671875 72.90625 
L 19.671875 0 
L 9.8125 0 
z
" id="DejaVuSans-73"/>
     <path d="M 41.109375 46.296875 
Q 39.59375 47.171875 37.8125 47.578125 
Q 36.03125 48 33.890625 48 
Q 26.265625 48 22.1875 43.046875 
Q 18.109375 38.09375 18.109375 28.8125 
L 18.109375 0 
L 9.078125 0 
L 9.078125 54.6875 
L 18.109375 54.6875 
L 18.109375 46.1875 
Q 20.953125 51.171875 25.484375 53.578125 
Q 30.03125 56 36.53125 56 
Q 37.453125 56 38.578125 55.875 
Q 39.703125 55.765625 41.0625 55.515625 
z
" id="DejaVuSans-114"/>
     <path d="M 2.984375 54.6875 
L 12.5 54.6875 
L 29.59375 8.796875 
L 46.6875 54.6875 
L 56.203125 54.6875 
L 35.6875 0 
L 23.484375 0 
z
" id="DejaVuSans-118"/>
     <path d="M 19.671875 64.796875 
L 19.671875 37.40625 
L 32.078125 37.40625 
Q 38.96875 37.40625 42.71875 40.96875 
Q 46.484375 44.53125 46.484375 51.125 
Q 46.484375 57.671875 42.71875 61.234375 
Q 38.96875 64.796875 32.078125 64.796875 
z
M 9.8125 72.90625 
L 32.078125 72.90625 
Q 44.34375 72.90625 50.609375 67.359375 
Q 56.890625 61.8125 56.890625 51.125 
Q 56.890625 40.328125 50.609375 34.8125 
Q 44.34375 29.296875 32.078125 29.296875 
L 19.671875 29.296875 
L 19.671875 0 
L 9.8125 0 
z
" id="DejaVuSans-80"/>
    </defs>
    <g transform="translate(179.408125 19.92)scale(0.12 -0.12)">
     <use xlink:href="#DejaVuSans-73"/>
     <use x="29.492188" xlink:href="#DejaVuSans-110"/>
     <use x="92.871094" xlink:href="#DejaVuSans-116"/>
     <use x="132.080078" xlink:href="#DejaVuSans-101"/>
     <use x="193.603516" xlink:href="#DejaVuSans-114"/>
     <use x="234.716797" xlink:href="#DejaVuSans-112"/>
     <use x="298.193359" xlink:href="#DejaVuSans-101"/>
     <use x="359.716797" xlink:href="#DejaVuSans-108"/>
     <use x="387.5" xlink:href="#DejaVuSans-108"/>
     <use x="415.283203" xlink:href="#DejaVuSans-101"/>
     <use x="476.806641" xlink:href="#DejaVuSans-116"/>
     <use x="516.015625" xlink:href="#DejaVuSans-32"/>
     <use x="547.802734" xlink:href="#DejaVuSans-73"/>
     <use x="577.294922" xlink:href="#DejaVuSans-110"/>
     <use x="640.673828" xlink:href="#DejaVuSans-116"/>
     <use x="679.882812" xlink:href="#DejaVuSans-101"/>
     <use x="741.40625" xlink:href="#DejaVuSans-114"/>
     <use x="782.519531" xlink:href="#DejaVuSans-118"/>
     <use x="841.699219" xlink:href="#DejaVuSans-97"/>
     <use x="902.978516" xlink:href="#DejaVuSans-108"/>
     <use x="930.761719" xlink:href="#DejaVuSans-32"/>
     <use x="962.548828" xlink:href="#DejaVuSans-80"/>
     <use x="1022.851562" xlink:href="#DejaVuSans-108"/>
     <use x="1050.634766" xlink:href="#DejaVuSans-111"/>
     <use x="1111.816406" xlink:href="#DejaVuSans-116"/>
    </g>
   </g>
   <g id="legend_1">
    <g id="patch_207">
     <path d="M 377.7075 80.18 
L 437.68 80.18 
Q 439.28 80.18 439.28 78.58 
L 439.28 31.52 
Q 439.28 29.92 437.68 29.92 
L 377.7075 29.92 
Q 376.1075 29.92 376.1075 31.52 
L 376.1075 78.58 
Q 376.1075 80.18 377.7075 80.18 
z
" style="fill:#ffffff;opacity:0.8;stroke:#cccccc;stroke-linejoin:miter;"/>
    </g>
    <g id="patch_208">
     <path d="M 379.3075 39.19875 
L 395.3075 39.19875 
L 395.3075 33.59875 
L 379.3075 33.59875 
z
" style="fill:#1f77b4;opacity:0.4;"/>
    </g>
    <g id="text_18">
     <!-- F_SHAM -->
     <defs>
      <path d="M 9.8125 72.90625 
L 51.703125 72.90625 
L 51.703125 64.59375 
L 19.671875 64.59375 
L 19.671875 43.109375 
L 48.578125 43.109375 
L 48.578125 34.8125 
L 19.671875 34.8125 
L 19.671875 0 
L 9.8125 0 
z
" id="DejaVuSans-70"/>
      <path d="M 50.984375 -16.609375 
L 50.984375 -23.578125 
L -0.984375 -23.578125 
L -0.984375 -16.609375 
z
" id="DejaVuSans-95"/>
      <path d="M 53.515625 70.515625 
L 53.515625 60.890625 
Q 47.90625 63.578125 42.921875 64.890625 
Q 37.9375 66.21875 33.296875 66.21875 
Q 25.25 66.21875 20.875 63.09375 
Q 16.5 59.96875 16.5 54.203125 
Q 16.5 49.359375 19.40625 46.890625 
Q 22.3125 44.4375 30.421875 42.921875 
L 36.375 41.703125 
Q 47.40625 39.59375 52.65625 34.296875 
Q 57.90625 29 57.90625 20.125 
Q 57.90625 9.515625 50.796875 4.046875 
Q 43.703125 -1.421875 29.984375 -1.421875 
Q 24.8125 -1.421875 18.96875 -0.25 
Q 13.140625 0.921875 6.890625 3.21875 
L 6.890625 13.375 
Q 12.890625 10.015625 18.65625 8.296875 
Q 24.421875 6.59375 29.984375 6.59375 
Q 38.421875 6.59375 43.015625 9.90625 
Q 47.609375 13.234375 47.609375 19.390625 
Q 47.609375 24.75 44.3125 27.78125 
Q 41.015625 30.8125 33.5 32.328125 
L 27.484375 33.5 
Q 16.453125 35.6875 11.515625 40.375 
Q 6.59375 45.0625 6.59375 53.421875 
Q 6.59375 63.09375 13.40625 68.65625 
Q 20.21875 74.21875 32.171875 74.21875 
Q 37.3125 74.21875 42.625 73.28125 
Q 47.953125 72.359375 53.515625 70.515625 
z
" id="DejaVuSans-83"/>
      <path d="M 9.8125 72.90625 
L 19.671875 72.90625 
L 19.671875 43.015625 
L 55.515625 43.015625 
L 55.515625 72.90625 
L 65.375 72.90625 
L 65.375 0 
L 55.515625 0 
L 55.515625 34.71875 
L 19.671875 34.71875 
L 19.671875 0 
L 9.8125 0 
z
" id="DejaVuSans-72"/>
      <path d="M 34.1875 63.1875 
L 20.796875 26.90625 
L 47.609375 26.90625 
z
M 28.609375 72.90625 
L 39.796875 72.90625 
L 67.578125 0 
L 57.328125 0 
L 50.6875 18.703125 
L 17.828125 18.703125 
L 11.1875 0 
L 0.78125 0 
z
" id="DejaVuSans-65"/>
      <path d="M 9.8125 72.90625 
L 24.515625 72.90625 
L 43.109375 23.296875 
L 61.8125 72.90625 
L 76.515625 72.90625 
L 76.515625 0 
L 66.890625 0 
L 66.890625 64.015625 
L 48.09375 14.015625 
L 38.1875 14.015625 
L 19.390625 64.015625 
L 19.390625 0 
L 9.8125 0 
z
" id="DejaVuSans-77"/>
     </defs>
     <g transform="translate(401.7075 39.19875)scale(0.08 -0.08)">
      <use xlink:href="#DejaVuSans-70"/>
      <use x="57.519531" xlink:href="#DejaVuSans-95"/>
      <use x="107.519531" xlink:href="#DejaVuSans-83"/>
      <use x="170.996094" xlink:href="#DejaVuSans-72"/>
      <use x="246.191406" xlink:href="#DejaVuSans-65"/>
      <use x="314.599609" xlink:href="#DejaVuSans-77"/>
     </g>
    </g>
    <g id="patch_209">
     <path d="M 379.3075 51.16375 
L 395.3075 51.16375 
L 395.3075 45.56375 
L 379.3075 45.56375 
z
" style="fill:#ff7f0e;opacity:0.4;"/>
    </g>
    <g id="text_19">
     <!-- F_SNI -->
     <defs>
      <path d="M 9.8125 72.90625 
L 23.09375 72.90625 
L 55.421875 11.921875 
L 55.421875 72.90625 
L 64.984375 72.90625 
L 64.984375 0 
L 51.703125 0 
L 19.390625 60.984375 
L 19.390625 0 
L 9.8125 0 
z
" id="DejaVuSans-78"/>
     </defs>
     <g transform="translate(401.7075 51.16375)scale(0.08 -0.08)">
      <use xlink:href="#DejaVuSans-70"/>
      <use x="57.519531" xlink:href="#DejaVuSans-95"/>
      <use x="107.519531" xlink:href="#DejaVuSans-83"/>
      <use x="170.996094" xlink:href="#DejaVuSans-78"/>
      <use x="245.800781" xlink:href="#DejaVuSans-73"/>
     </g>
    </g>
    <g id="patch_210">
     <path d="M 379.3075 63.12875 
L 395.3075 63.12875 
L 395.3075 57.52875 
L 379.3075 57.52875 
z
" style="fill:#2ca02c;opacity:0.4;"/>
    </g>
    <g id="text_20">
     <!-- M_SHAM -->
     <g transform="translate(401.7075 63.12875)scale(0.08 -0.08)">
      <use xlink:href="#DejaVuSans-77"/>
      <use x="86.279297" xlink:href="#DejaVuSans-95"/>
      <use x="136.279297" xlink:href="#DejaVuSans-83"/>
      <use x="199.755859" xlink:href="#DejaVuSans-72"/>
      <use x="274.951172" xlink:href="#DejaVuSans-65"/>
      <use x="343.359375" xlink:href="#DejaVuSans-77"/>
     </g>
    </g>
    <g id="patch_211">
     <path d="M 379.3075 75.09375 
L 395.3075 75.09375 
L 395.3075 69.49375 
L 379.3075 69.49375 
z
" style="fill:#d62728;opacity:0.4;"/>
    </g>
    <g id="text_21">
     <!-- M_SNI -->
     <g transform="translate(401.7075 75.09375)scale(0.08 -0.08)">
      <use xlink:href="#DejaVuSans-77"/>
      <use x="86.279297" xlink:href="#DejaVuSans-95"/>
      <use x="136.279297" xlink:href="#DejaVuSans-83"/>
      <use x="199.755859" xlink:href="#DejaVuSans-78"/>
      <use x="274.560547" xlink:href="#DejaVuSans-73"/>
     </g>
    </g>
   </g>
  </g>
 </g>
 <defs>
  <clipPath id="p62f645cd68">
   <rect height="215.8" width="389.62" x="53.66" y="25.92"/>
  </clipPath>
 </defs>
</svg>
